<?xml version="1.0" encoding="UTF-8" standalone="no"?>
<!-- Created with Inkscape (http://www.inkscape.org/) -->

<svg
   width="154.70561mm"
   height="154.70529mm"
   viewBox="0 0 154.70561 154.70529"
   version="1.1"
   id="svg5"
   xml:space="preserve"
   xmlns="http://www.w3.org/2000/svg"
   xmlns:svg="http://www.w3.org/2000/svg"><defs
     id="defs2" /><g
     id="layer1"
     transform="translate(891.43044,914.4979)"><path
       style="fill:#ffffff;fill-opacity:1;stroke:none;stroke-width:1.18072;stroke-opacity:1"
       d="m -599.02844,-896.4628 c 1.93402,1.62 1.99849,2.14477 0.61287,5.01065 -1.51074,3.12566 -1.77328,3.18906 -11.13758,2.6914 -5.27486,-0.28031 -11.10534,-0.0554 -12.95665,0.49987 -1.85174,0.55523 -14.72866,1.2818 -28.61543,1.6146 -24.01364,0.57542 -31.46423,1.39618 -40.39813,4.45007 -3.7297,1.27485 -10.8262,1.50469 -20.7601,0.67239 -2.4689,-0.20708 -6.0035,0.34698 -7.8553,1.23112 -1.8517,0.884 -5.8911,1.93431 -8.9775,2.33409 -3.0859,0.39957 -7.5626,1.07505 -9.9479,1.5006 -4.0538,0.72313 -6.2444,-0.48198 -6.3063,-3.4692 -0.047,-2.2706 22.1432,-7.33379 32.5258,-7.4214 3.9639,-0.0329 21.7429,-2.69417 26.9321,-4.03048 1.543,-0.39724 7.8553,-1.00486 14.02717,-1.35002 6.17189,-0.34511 12.73653,-0.8974 14.58827,-1.22729 1.85131,-0.33008 7.4061,-0.92067 12.34379,-1.31292 4.93769,-0.39207 13.00373,-1.24617 17.9253,-1.8976 13.27136,-1.75674 25.42642,-1.45107 27.99959,0.70412 z m -14.50429,44.5433 c 14.00934,1.46046 16.27163,2.18683 16.27163,5.22457 0,3.76505 -4.84819,4.63493 -17.59618,3.15718 -14.84232,-1.72044 -52.71983,-0.72624 -63.76108,1.67364 -4.3206,0.93903 -14.0878,2.00569 -21.7052,2.37032 -10.1324,0.48504 -15.1019,1.28894 -18.5157,2.99538 -8.1381,4.0681 -13.0406,5.44009 -16.4641,4.60764 -4.229,-1.02824 -4.7303,-2.00347 -3.0538,-5.93648 1.0582,-2.48292 2.4714,-3.3627 6.4213,-3.99827 2.7853,-0.44794 6.3267,-1.7212 7.8697,-2.82893 2.0939,-1.50327 7.0744,-2.23947 19.6379,-2.90274 9.2579,-0.48869 18.095,-1.23071 19.638,-1.64883 10.85973,-2.94294 53.48618,-4.56614 71.25753,-2.71348 z m 17.1131,45.15859 c 2.64528,1.97667 3.28953,4.64108 1.43058,5.91315 -1.14981,0.78657 -2.82087,0.9495 -32.57083,3.17607 -28.53781,2.13583 -54.50918,5.44538 -56.50428,7.20048 -0.7079,0.6227 -2.8022,1.44256 -4.654,1.82181 -1.8513,0.37939 -6.6486,1.58709 -10.6604,2.68403 -4.0118,1.09694 -10.0942,2.41789 -13.517,2.93547 -3.4222,0.51756 -8.4723,2.25519 -11.2215,3.86139 -8.5958,5.02164 -23.5149,3.87032 -23.5149,-1.81467 0,-0.96472 0.6472,-1.4791 1.4382,-1.14306 1.9926,0.84645 10.1159,-2.4144 10.68,-4.28692 0.3393,-1.12451 -0.6163,-1.30904 -3.5839,-0.69268 -2.2703,0.47147 -4.0457,0.33713 -4.0457,-0.30567 0,-1.47947 10.453,-4.5619 16.3339,-4.81677 6.1579,-0.2667 19.5858,-4.08636 21.3909,-6.08453 1.0035,-1.11126 4.198,-1.52164 10.2032,-1.31086 8.8401,0.31036 18.03262,-1.26226 27.25738,-4.66286 2.77761,-1.02383 5.80757,-1.91591 6.73302,-1.98234 8.15469,-0.58533 28.53781,-1.45797 43.76481,-1.87362 15.24949,-0.41647 18.96102,-0.17279 21.04052,1.38144 z m -89.10613,4.23266 c -1.9713,0.60594 -5.453,0.62271 -7.8552,0.0376 -3.8316,-0.93284 -3.435,-1.05469 3.541,-1.08826 6.4039,-0.0329 7.2008,0.1634 4.3142,1.05041 z"
       id="path1403-9" /><path
       style="fill:#ffffff;stroke-width:1.3394"
       d="m -823.05227,-761.04762 c -1.0852,-0.73768 -2.1368,-1.3421 -2.337,-1.34314 -0.2002,-10e-4 -1.183,-0.86053 -2.1841,-1.91001 l -1.8199,-1.90813 -1.2957,-0.2415 c -1.3563,-0.25281 -2.279,-0.86442 -2.279,-1.51067 0,-0.20969 -0.6665,-1.07828 -1.4809,-1.93021 l -1.481,-1.54895 v -1.59487 c 0,-1.7572 -0.4462,-2.66512 -1.508,-3.06787 -0.3665,-0.13901 -0.646,-0.46412 -0.646,-0.75143 0,-0.27853 -0.3028,-0.95175 -0.6731,-1.49603 -0.7672,-1.12794 -0.8535,-1.55526 -0.2693,-1.33153 0.6645,0.25437 0.4592,-0.28725 -0.4279,-1.12858 -1.1599,-1.10031 -1.4712,-1.79884 -1.9676,-4.41546 -0.2385,-1.25584 -0.6241,-2.88776 -0.8572,-3.62648 -0.5602,-1.77548 -0.8301,-10.64738 -0.423,-13.91613 l 0.2942,-2.36515 0.8338,-1.56052 c 0.4585,-0.8583 1.5338,-2.34757 2.3897,-3.30949 1.1354,-1.27606 1.8402,-2.4216 2.6072,-4.23692 l 1.0511,-2.48799 1.002,-0.6335 c 1.0599,-0.67005 1.6404,-1.55804 1.9468,-2.978 0.1031,-0.47527 0.4806,-1.29659 0.8401,-1.82516 0.3595,-0.52859 0.6538,-1.27212 0.6538,-1.6523 0,-0.63319 0.9076,-1.70623 2.5518,-3.01672 l 0.469,-0.37398 -0.1805,-1.35801 c -0.1,-0.7469 -0.4182,-2.02921 -0.7085,-2.84957 l -0.5281,-1.49154 -0.3924,-6.62349 c -0.4437,-7.49187 -0.7466,-8.65262 -2.1203,-8.12672 -0.3918,0.15006 -3.1297,4.89313 -3.1297,5.42203 0,0.17074 -0.3494,0.70753 -0.7764,1.19284 -0.4267,0.4853 -0.9683,1.34125 -1.2029,1.90207 -0.6872,1.64147 -5.2869,7.70069 -6.4075,8.44061 -0.56,0.36971 -1.3085,1.05181 -1.6633,1.51577 -0.355,0.46395 -1.5091,1.44797 -2.565,2.1867 -1.0559,0.73872 -1.9895,1.55469 -2.0748,1.81325 -0.086,0.25854 -0.325,0.47008 -0.5325,0.47008 -0.2075,0 -1.3054,0.60442 -2.4397,1.34316 -1.1342,0.73872 -2.2185,1.34313 -2.4095,1.34313 -0.191,0 -0.9934,0.55436 -1.7829,1.23192 -1.264,1.08466 -3.8312,2.46236 -9.3784,5.03284 -4.1854,1.9395 -9.163,3.57827 -12.1921,4.01412 l -2.6339,0.37895 -2.021,-1.3372 c -3.6029,-2.38383 -6.9011,-7.18557 -7.4864,-10.8993 -0.1019,-0.64664 -0.3633,-1.42905 -0.5807,-1.73869 -0.6099,-0.86899 0.6042,-5.16397 2.021,-7.14923 1.4258,-1.99782 7.3528,-5.42379 10.2885,-5.94725 l 1.8652,-0.33256 2.5337,0.34707 2.5338,0.34709 1.0912,-0.43567 c 4.1935,-1.67404 7.6813,0.95407 6.8393,5.15379 l -0.1645,0.82128 -1.7875,0.17014 c -10.0032,0.95219 -15.5757,4.28191 -14.0202,8.37765 0.8083,2.1285 1.5968,2.30706 5.1619,1.16885 1.3714,-0.4379 3.3418,-0.97586 4.3784,-1.19544 3.7054,-0.78489 7.4945,-2.44262 8.7904,-3.8458 0.3922,-0.42457 1.2101,-0.99556 1.8175,-1.26884 0.6548,-0.29462 1.1044,-0.67994 1.1044,-0.94653 0,-1.03618 1.949,-2.15505 3.754,-2.15505 0.5837,0 1.1711,-0.1737 1.3614,-0.4027 l 0.3351,-0.40269 -0.3118,-0.75092 -0.3117,-0.75091 1.0194,-1.09428 c 0.5607,-0.60188 1.5237,-1.34911 2.1404,-1.66052 0.7874,-0.39788 1.4067,-1.02738 2.0824,-2.11731 1.1147,-1.7978 3.9633,-4.79955 5.2993,-5.584 l 0.921,-0.54076 0.081,-0.83585 c 0.048,-0.49342 -0.089,-1.00685 -0.3364,-1.25328 -0.8798,-0.87768 -0.4546,-2.03975 1.4938,-4.08232 0.5638,-0.59097 1.4014,-1.90413 1.8614,-2.91815 0.4601,-1.01401 1.2447,-2.4358 1.7438,-3.15954 1.0959,-1.58945 1.6026,-3.65565 1.417,-5.77817 l -0.1376,-1.57553 0.6649,-1.59479 c 1.0316,-2.47473 1.4137,-4.80083 1.4187,-8.64071 0.014,-5.58466 0.5223,-18.33016 0.8221,-20.34985 l 0.2735,-1.84217 -0.3213,-0.88627 -0.3212,-0.88625 0.7159,-0.84876 c 1.0413,-1.23457 1.5324,-3.23266 1.4927,-6.07164 l -0.033,-2.43802 0.4625,-0.97236 c 1.0134,-2.13074 4.1941,-4.39296 6.5715,-4.67387 l 1.2731,-0.15043 1.4071,0.60395 c 3.0185,1.29557 3.1407,1.77135 3.8244,14.90406 1.0464,20.10551 5.0449,39.98701 9.5355,47.41283 0.4913,0.81259 1.1005,2.20274 1.3537,3.08923 0.6652,2.32979 5.7304,11.73342 7.6101,14.12872 0.6266,0.79843 1.7795,2.35739 2.562,3.46436 l 1.4225,2.01266 2.15,1.54499 c 1.1825,0.84977 2.8656,2.02929 3.7402,2.62118 l 1.5903,1.07617 h 1.019 c 0.5604,0 1.0939,0.12093 1.1855,0.26863 0.092,0.14773 0.4576,0.26862 0.8137,0.26862 0.3558,0 1.2272,0.22792 1.936,0.50647 0.709,0.27858 2.1977,0.64345 3.3083,0.81086 1.1107,0.16741 3.1873,0.56091 4.6148,0.87444 l 2.5954,0.57008 2.2599,-0.57504 c 1.2427,-0.31627 2.7403,-0.5794 3.328,-0.58471 0.5874,-0.006 2.2413,-0.16405 3.6751,-0.35275 1.8734,-0.24655 3.0632,-0.26779 4.2286,-0.0755 l 1.622,0.26762 1.3273,-0.72075 c 0.7299,-0.39642 1.5229,-0.72074 1.7619,-0.72074 h 0.4348 v -0.94596 -0.94596 l 0.6391,-0.2905 c 0.6849,-0.31139 1.7841,0.0582 1.7841,0.59979 0,0.50394 0.7406,0.12657 2.6931,-1.37228 l 1.9246,-1.47745 -0.138,-2.72172 c -0.1468,-2.89738 -0.6472,-4.57588 -1.4385,-4.8257 -0.2658,-0.0839 -1.5132,-0.62505 -2.7719,-1.2025 -2.5725,-1.18016 -6.3788,-2.11498 -8.6469,-2.1237 l -1.5119,-0.006 -0.7169,0.56257 c -0.3942,0.30941 -1.3825,1.57107 -2.1961,2.80368 l -1.4792,2.24113 -1.4605,0.71289 c -1.0555,0.51519 -2.0508,0.75324 -3.5894,0.85845 l -2.129,0.14558 -1.011,-1.31166 -1.0113,-1.31165 0.1354,-2.04062 c 0.1684,-2.5331 0.6419,-3.4744 2.2082,-4.39029 1.7241,-1.00799 3.0997,-2.44983 3.0997,-3.24865 0,-0.36444 0.2424,-0.90437 0.5385,-1.19987 l 0.5385,-0.53725 h 8.6027 c 9.4328,0 10.3079,0.0996 13.0772,1.48976 1.0166,0.51034 2.1903,0.92789 2.608,0.92789 0.4176,0 0.9699,0.11358 1.227,0.2524 0.2571,0.13882 0.7704,0.32779 1.1407,0.41995 0.8114,0.20194 4.0094,3.67763 4.7248,5.13502 l 0.5119,1.04263 10e-5,2.41766 c 10e-5,2.7475 -0.7387,5.59609 -1.8505,7.13437 -0.3674,0.50845 -0.9831,1.55382 -1.368,2.32303 -1.6717,3.33982 -12.9682,9.37102 -18.9924,10.13992 -0.8082,0.10316 -3.2263,0.47527 -5.3734,0.82689 l -3.9043,0.63935 -7.8081,0.0623 -7.8081,0.0623 -2.5562,-0.86981 c -3.2154,-1.09414 -5.1672,-2.1823 -8.8192,-4.91646 -1.5921,-1.19206 -3.1978,-2.28712 -3.568,-2.43347 -1.2746,-0.50384 -1.3793,-0.61657 -2.0058,-2.15858 -0.754,-1.85608 -2.2173,-3.63715 -3.0138,-3.66854 -0.5893,-0.0232 -0.9038,-0.4947 -0.9038,-1.35495 0,-0.26533 -0.1818,-0.63289 -0.4039,-0.81681 -0.2222,-0.18392 -0.4038,-0.53452 -0.4038,-0.77908 0,-0.24457 -0.212,-0.64863 -0.4712,-0.89793 -0.92,-0.88498 -1.4135,-1.45979 -1.4135,-1.6461 0,-0.10385 -0.7388,-0.93989 -1.6417,-1.85785 -0.903,-0.91798 -2.231,-2.53293 -2.9512,-3.58878 -0.7202,-1.05585 -1.6266,-2.16866 -2.0144,-2.47291 l -0.7047,-0.55318 -0.3621,-1.72603 c -0.4173,-1.99018 -1.5242,-4.33245 -2.1631,-4.57701 -1.5165,-0.58056 -2.119,-0.008 -1.6973,1.61281 0.5205,2.00219 0.5602,2.56605 0.2241,3.19248 -0.924,1.72246 0.1547,6.49862 1.6646,7.37066 0.3963,0.22881 1.0431,0.80892 1.4374,1.28909 0.3946,0.48015 0.9561,0.87303 1.2479,0.87303 1.1683,0 5.3069,4.57705 10.2018,11.28238 1.6717,2.29004 3.6922,4.93328 4.4897,5.87385 3.1279,3.6882 8.1582,12.51256 8.566,15.02718 0.088,0.54568 0.4725,2.00629 0.853,3.24577 l 0.6921,2.25363 -0.1537,1.7758 c -0.085,0.97669 -0.4085,2.59198 -0.7199,3.58957 l -0.5664,1.81379 -1.3022,1.27542 c -1.4234,1.39423 -1.9068,2.47758 -1.9068,4.27306 v 1.17137 l -0.6058,0.46749 c -0.3332,0.2571 -1.7569,1.61759 -3.1637,3.02331 -1.4068,1.40573 -4.1633,3.85766 -6.1253,5.44876 -1.9623,1.59107 -4.3248,3.57094 -5.2504,4.39968 -0.9256,0.82874 -3.0626,2.42637 -4.749,3.5503 -1.6865,1.12392 -3.735,2.49679 -4.5527,3.05084 -1.8955,1.28462 -2.045,1.27329 -4.409,-0.33391 z m -0.3212,-8.26218 0.5023,-0.73872 -0.029,-2.01471 c -0.022,-1.46244 -0.2154,-2.49335 -0.7091,-3.76081 -0.3744,-0.96032 -0.8871,-2.79286 -1.1397,-4.07228 l -0.4594,-2.3262 0.3127,-1.50258 c 0.2057,-0.98846 0.4902,-1.59743 0.8319,-1.77982 0.65,-0.34708 0.698,-1.76499 0.084,-2.44335 -0.4839,-0.5334 -0.3298,-1.30716 0.2604,-1.30716 0.2086,0 0.5302,0.18132 0.7146,0.40295 0.3743,0.45008 1.3462,0.54948 1.3462,0.13768 0,-0.14589 -0.4792,-0.56707 -1.0649,-0.93594 l -1.0649,-0.67073 -0.3271,-1.0892 -0.327,-1.08923 1.1056,-1.1312 1.1056,-1.13119 -0.3773,-0.67157 c -0.2074,-0.36937 -0.3815,-0.86831 -0.3867,-1.10878 0,-0.24047 -0.2018,-0.59635 -0.4366,-0.79084 -0.2871,-0.23767 -0.3776,-0.6008 -0.276,-1.1074 l 0.1511,-0.75377 h -0.426 c -0.2952,0 -0.3703,-0.14439 -0.245,-0.4701 0.528,-1.37111 1.223,-4.34861 1.223,-5.23885 v -1.01877 l -1.038,-1.13565 -1.038,-1.13566 -0.1702,-2.08084 -0.17,-2.08083 0.535,-1.35412 c 0.7272,-1.84089 0.6826,-2.21416 -0.4009,-3.36055 l -0.936,-0.99007 -0.7468,0.17219 c -0.9967,0.22975 -2.5301,2.00097 -3.477,4.01606 -0.4236,0.90159 -1.2922,2.66166 -1.9303,3.91127 -0.638,1.24963 -1.3425,3.05751 -1.5659,4.01752 -0.4627,1.99082 -0.6604,2.41548 -1.8541,3.98165 l -0.8601,1.12835 -0.171,1.63183 c -0.094,0.8975 -0.3541,1.98542 -0.5781,2.41762 -1.0664,2.05724 0.8215,9.54948 3.9326,15.60734 0.5747,1.11927 1.0452,2.22263 1.0452,2.45193 0,0.22928 0.1755,0.56231 0.3903,0.74007 0.2146,0.17778 0.5889,1.21424 0.8318,2.30328 l 0.4415,1.98005 1.6187,1.15463 c 2.4935,1.77862 3.1368,2.34271 3.6394,3.19141 0.5951,1.00516 1.469,1.02363 2.1344,0.0451 z m 9.2534,-1.18076 2.8241,-1.38223 4.075,-4.05748 c 2.4985,-2.48775 4.2873,-4.50123 4.6237,-5.20448 0.5274,-1.10183 1.0381,-1.80549 2.951,-4.0652 0.4825,-0.57008 1.237,-1.82778 1.6765,-2.7949 0.4394,-0.9671 0.9142,-1.82931 1.0549,-1.91604 0.1595,-0.0985 0.1619,-0.48358 0,-1.02531 -0.1373,-0.4772 -0.2495,-1.67727 -0.2495,-2.6668 0,-1.02202 -0.1288,-1.87827 -0.2971,-1.98233 -0.2835,-0.17478 -0.149,-3.02145 0.1994,-4.22117 0.2003,-0.68983 -1.3221,-2.00195 -2.8254,-2.43511 -1.4387,-0.41453 -1.8095,-0.96627 -2.1253,-3.16153 l -0.2081,-1.44741 -1.2663,-0.1456 c -1.8921,-0.21757 -3.7181,-2.24345 -2.345,-2.60171 0.2866,-0.0748 0.5211,-0.30317 0.5211,-0.50755 0,-0.44935 0.137,-0.46113 0.8619,-0.0741 l 0.5572,0.29756 -0.1909,-0.76766 c -0.3778,-1.51788 -2.1612,-2.78235 -3.9242,-2.78235 -1.7057,0 -2.5128,-1.40959 -1.4969,-2.61416 0.7559,-0.89612 0.6984,-1.03574 -0.8959,-2.17813 -1.1808,-0.84608 -2.2687,-1.09035 -2.5849,-0.58028 -0.2514,0.40608 -0.44,0.34677 -2.135,-0.67156 -0.8607,-0.51712 -1.5886,-0.9402 -1.6176,-0.9402 -0.029,0 0.04,0.75552 0.1533,1.67893 0.3843,3.13603 0.7948,18.85026 0.851,32.58507 l 0.056,13.68608 -0.3467,0.97488 c -0.1907,0.53617 -0.5844,1.18955 -0.8752,1.45194 -1.5108,1.36425 -0.3882,1.19386 2.9727,-0.4512 z m 7.3792,-40.08745 c -0.2282,-0.59308 0.076,-0.89585 0.4868,-0.48551 l 0.3185,0.31786 -0.3143,0.31355 -0.3143,0.31355 z"
       id="path2-2" /></g></svg>
