<?xml version="1.0" encoding="UTF-8" standalone="no"?>
<!-- Created with Inkscape (http://www.inkscape.org/) -->

<svg
   width="155.6301mm"
   height="162.78883mm"
   viewBox="0 0 155.6301 162.78883"
   version="1.1"
   id="svg5"
   xml:space="preserve"
   xmlns="http://www.w3.org/2000/svg"
   xmlns:svg="http://www.w3.org/2000/svg"><defs
     id="defs2" /><g
     id="layer2"
     transform="translate(978.97304,600.32066)"><g
       id="g237"
       transform="translate(-84.731072,317.5)"
       style="fill:#ffffff;fill-opacity:1"><path
         style="fill:#ffffff;fill-opacity:1;stroke:none;stroke-width:22.4367;stroke-dasharray:none;stroke-opacity:1"
         id="path156"
         d="m -866.64854,-840.8041 c -0.38275,-0.13483 -0.80873,-0.18473 -1.21095,-0.25691 -0.7978,-0.13806 -1.60168,-0.23577 -2.40556,-0.33028 -0.93764,-0.11467 -1.88177,-0.15295 -2.82478,-0.1937 -1.08892,-0.0365 -2.1794,0.009 -3.26673,0.0695 -1.23266,0.0682 -2.44969,0.26453 -3.65283,0.53383 -1.24585,0.27167 -2.44047,0.71524 -3.61165,1.21131 -1.12821,0.48935 -2.19352,1.103 -3.23643,1.75075 -1.24082,0.7879 -2.3314,1.76982 -3.35931,2.81308 -1.21153,1.25558 -2.07375,2.75725 -2.76879,4.344 -0.64132,1.52572 -0.97168,3.14198 -1.1666,4.77761 -0.17544,1.57917 -0.08,3.15659 0.16555,4.72046 0.35095,1.81938 1.21105,3.44154 2.22928,4.96551 0.90596,1.29792 2.02938,2.40943 3.22492,3.43652 1.3929,1.12993 2.99315,1.92521 4.65855,2.56286 1.48614,0.54824 3.02842,0.90321 4.58605,1.17295 1.71296,0.312 3.44358,0.29393 5.16961,0.13578 1.82131,-0.15401 3.57497,-0.64833 5.28881,-1.25984 1.60753,-0.60465 3.15944,-1.33979 4.67953,-2.13608 1.59506,-0.81693 3.08499,-1.81264 4.54893,-2.84099 1.58953,-1.1039 3.06461,-2.35691 4.50656,-3.64419 1.50485,-1.34096 2.92262,-2.77513 4.30909,-4.23688 1.50355,-1.58329 2.86067,-3.29517 4.17486,-5.03618 1.21616,-1.65891 2.4049,-3.33783 3.57724,-5.02793 1.22944,-1.7617 2.36705,-3.58265 3.43366,-5.44669 1.15152,-1.99773 2.16937,-4.06635 3.13732,-6.1578 1.11644,-2.44481 2.03936,-4.97036 2.90619,-7.51237 0.89336,-2.71177 1.70648,-5.44918 2.48282,-8.19648 0.74832,-2.66472 1.45502,-5.34035 2.13074,-8.02428 0.64231,-2.60173 1.24341,-5.21361 1.83269,-7.8278 0.55986,-2.55135 1.09659,-5.10797 1.61301,-7.66847 0.52382,-2.56953 0.9788,-5.152 1.4157,-7.73745 0.42318,-2.57509 0.81143,-5.15596 1.16658,-7.74129 0.33316,-2.45094 0.62706,-4.90683 0.9062,-7.36441 0.20338,-1.92064 0.39266,-3.84278 0.57769,-5.76527 0.095,-1.01206 0.0485,-0.51586 0.13967,-1.4886 0.44479,-3.88363 -10.53975,-5.14165 -10.98455,-1.25801 v 0 c -0.12954,0.95639 -0.0639,0.47323 -0.19703,1.44944 -0.26495,1.8783 -0.54697,3.7542 -0.78759,5.63591 -0.33694,2.40816 -0.6433,4.82034 -0.97647,7.229 -0.34279,2.47401 -0.69548,4.94647 -1.11477,7.40897 -0.41084,2.45853 -0.84595,4.91342 -1.34323,7.3561 -0.50694,2.47521 -1.01923,4.94948 -1.57316,7.41469 -0.57351,2.51518 -1.16263,5.02689 -1.78486,7.53051 -0.66344,2.5793 -1.35228,5.15216 -2.08116,7.7138 -0.7353,2.58215 -1.50143,5.15533 -2.31428,7.71424 -0.70244,2.1761 -1.39237,4.36116 -2.32063,6.45475 -0.79516,1.79546 -1.65172,3.56333 -2.61231,5.27688 -0.88345,1.56834 -1.81378,3.10959 -2.85774,4.57763 -1.1031,1.56909 -2.21448,3.13219 -3.35481,4.67456 -1.07651,1.42631 -2.1504,2.86009 -3.38093,4.15964 -1.14813,1.25135 -2.35188,2.45256 -3.6123,3.59109 -1.10157,1.00634 -2.19832,2.0229 -3.42924,2.87303 -1.05021,0.74774 -2.09513,1.5082 -3.24525,2.09965 -1.10492,0.57071 -2.22713,1.10694 -3.38203,1.56991 -0.82611,0.31811 -1.65172,0.62722 -2.54453,0.69532 -0.74747,0.0826 -1.49616,0.12547 -2.24165,-0.0145 -0.89607,-0.15132 -1.77607,-0.37507 -2.63986,-0.65842 -0.52504,-0.1719 -1.03415,-0.37737 -1.49415,-0.68931 -0.46551,-0.30084 -0.80949,-0.77452 -1.18007,-1.17851 -0.13025,-0.17187 -0.36716,-0.64151 -0.47217,-0.63278 -0.14738,-0.53017 -0.0805,-1.10411 -0.0578,-1.64513 0.0569,-0.58967 0.16894,-1.17139 0.36468,-1.7322 0.14441,-0.38245 0.28713,-0.75774 0.58155,-1.056 0.37487,-0.429 0.81669,-0.79272 1.26379,-1.14366 0.56004,-0.35727 1.1308,-0.69985 1.73783,-0.97256 0.55764,-0.24535 1.12848,-0.45921 1.72122,-0.60462 0.62545,-0.14579 1.25997,-0.23001 1.90045,-0.27869 0.72544,-0.0487 1.45299,-0.0781 2.1799,-0.0875 0.72263,0.0262 1.44524,0.0554 2.16506,0.12787 0.59952,0.0484 1.19812,0.10846 1.79457,0.18624 0.59957,0.0775 1.19292,0.20125 1.79625,0.24932 3.76071,0.39587 4.88037,-10.24102 1.11967,-10.63689 z" /><path
         style="fill:#ffffff;fill-opacity:1;stroke:none;stroke-width:22.4367;stroke-dasharray:none;stroke-opacity:1"
         id="path157"
         d="m -830.90712,-915.11386 c -0.0896,0.85389 -0.14507,1.71066 -0.18939,2.56794 -0.0676,1.26333 -0.11605,2.52741 -0.15155,3.79201 -0.0398,1.58451 -0.0825,3.16849 -0.0934,4.7535 -0.007,1.99919 0.0474,3.99719 0.1579,5.99316 0.1442,2.18599 0.30305,4.37134 0.52149,6.55127 0.24159,2.31277 0.52769,4.62079 0.81958,6.92771 0.31631,2.33474 0.67662,4.66305 1.02663,6.99284 0.34428,2.40358 0.73883,4.79911 1.16168,7.18997 0.43011,2.46917 0.95951,4.91911 1.49082,7.36796 0.51695,2.4461 1.11689,4.87174 1.7702,7.28458 0.6945,2.47888 1.51601,4.91967 2.36614,7.34875 0.85987,2.46544 2.01015,4.81333 3.17386,7.1459 1.14192,2.25276 2.46708,4.40645 3.82784,6.53198 1.37601,2.09722 2.91412,4.08064 4.48627,6.03279 1.54533,1.95918 3.26827,3.76367 4.99391,5.56201 1.77096,1.889 3.75306,3.55542 5.73923,5.20944 2.04539,1.71752 4.23992,3.23797 6.52523,4.61521 2.23986,1.30545 4.61362,2.35153 7.00905,3.33232 2.30741,0.95109 4.69424,1.64893 7.1324,2.16524 2.33971,0.48353 4.72708,0.57727 7.10811,0.55996 2.23655,-0.0151 4.4417,-0.37499 6.62123,-0.8456 1.96318,-0.44506 3.86641,-1.09509 5.74286,-1.81542 1.74445,-0.68355 3.44146,-1.47616 5.08399,-2.37603 1.51826,-0.83355 2.9668,-1.78292 4.37947,-2.78276 1.45309,-1.01356 2.79323,-2.16365 4.04704,-3.41244 1.28095,-1.30677 2.37731,-2.77312 3.39963,-4.28603 0.98004,-1.4518 1.77591,-3.01186 2.48669,-4.60934 0.70567,-1.64086 1.13241,-3.37354 1.43943,-5.12704 0.27462,-1.69087 0.25654,-3.40413 0.13248,-5.10646 -0.14451,-1.84629 -0.68694,-3.5946 -1.44018,-5.27449 -0.89919,-1.95969 -2.35831,-3.47163 -4.06474,-4.74591 -1.48873,-1.07683 -3.12351,-1.85629 -4.86339,-2.42718 -1.69656,-0.46821 -3.45204,-0.62966 -5.20408,-0.69956 -1.76258,-0.0952 -3.50939,0.16227 -5.23264,0.50226 -1.72001,0.3289 -3.36534,0.93466 -4.97666,1.60573 -1.5603,0.67111 -3.01913,1.54916 -4.45238,2.45416 -1.27698,0.78632 -2.43387,1.73945 -3.56097,2.7231 -2.94415,2.5813 4.35686,10.90861 7.30102,8.32731 v 0 c 0.68127,-0.60111 1.35181,-1.22323 2.12799,-1.7026 0.93387,-0.58155 1.87806,-1.1567 2.87115,-1.63171 0.91236,-0.39251 1.84698,-0.74419 2.81792,-0.96255 0.86971,-0.17045 1.75069,-0.34743 2.64083,-0.32764 0.82084,0.0379 1.6378,0.11404 2.45102,0.23379 0.60711,0.13052 1.11734,0.43529 1.62523,0.79769 0.31528,0.20378 0.38476,0.0742 0.59164,0.50234 0.2708,0.44762 0.34612,0.96472 0.4106,1.47693 0.0718,0.80719 0.0776,1.62459 -0.0287,2.42917 -0.12753,0.84439 -0.35581,1.6714 -0.6676,2.46652 -0.44638,1.00314 -0.96406,1.97141 -1.5712,2.88764 -0.64119,0.94358 -1.30789,1.87457 -2.09177,2.70671 -0.77531,0.80187 -1.62616,1.51527 -2.54995,2.14297 -1.09368,0.7603 -2.21856,1.47404 -3.38825,2.11267 -1.18248,0.66138 -2.41919,1.21319 -3.68387,1.6991 -1.35086,0.51157 -2.72069,0.9738 -4.13116,1.29432 -1.42414,0.30739 -2.86178,0.55287 -4.32437,0.55366 -1.58991,0.005 -3.18813,-0.0479 -4.7498,-0.37478 -1.75202,-0.35465 -3.44652,-0.91117 -5.0967,-1.59906 -1.88476,-0.79015 -3.7615,-1.60946 -5.52934,-2.64189 -1.77792,-1.03635 -3.45694,-2.22848 -5.03939,-3.54521 -1.65457,-1.397 -3.3284,-2.78466 -4.82869,-4.34962 -1.48657,-1.56186 -3.00564,-3.09972 -4.34534,-4.79271 -1.31553,-1.66161 -2.62188,-3.3341 -3.80836,-5.09146 -1.13609,-1.75524 -2.20435,-3.55732 -3.18116,-5.4061 -0.93194,-1.92452 -1.88539,-3.84738 -2.6135,-5.8606 -0.7557,-2.20456 -1.45598,-4.42727 -2.12662,-6.65914 -0.61851,-2.19127 -1.18964,-4.39404 -1.62957,-6.62929 -0.48992,-2.32542 -0.97176,-4.65288 -1.40419,-6.98979 -0.41093,-2.28142 -0.82209,-4.56308 -1.1543,-6.8576 -0.33372,-2.26743 -0.66762,-4.5348 -0.98234,-6.80498 -0.30073,-2.20186 -0.58976,-4.40558 -0.83418,-6.61448 -0.21881,-2.02742 -0.40056,-4.05918 -0.53502,-6.09401 -0.12721,-1.7721 -0.22278,-3.54455 -0.25193,-5.32149 -0.0217,-1.50561 -0.0283,-3.01119 -0.003,-4.51683 0.01,-1.2178 0.007,-2.43557 0.0122,-3.65339 0.006,-0.71322 0.003,-1.42648 0.008,-2.13964 0.27075,-3.79047 -10.45035,-4.55625 -10.7211,-0.76578 z" /><path
         style="fill:#ffffff;fill-opacity:1;stroke:none;stroke-width:22.4367;stroke-dasharray:none;stroke-opacity:1"
         id="path158"
         d="m -828.55627,-905.83114 c -0.0694,0.71459 -0.16163,1.42624 -0.22868,2.14117 -0.17351,1.12477 -0.29218,2.25716 -0.40965,3.38886 -0.16071,1.55998 -0.26919,3.12457 -0.37336,4.6891 -0.13218,1.82193 -0.22296,3.64591 -0.27778,5.47169 -0.0711,2.0442 -0.0942,4.08948 -0.11444,6.13469 -0.0241,2.19564 0.0148,4.39121 0.0282,6.58677 0.01,2.32474 0.0518,4.64894 0.10475,6.97304 0.0545,2.39297 0.14835,4.78494 0.22627,7.17725 0.0791,2.46218 0.13806,4.92493 0.21354,7.38722 0.0694,2.44988 0.1396,4.89979 0.19611,7.34999 0.0655,2.43168 0.11293,4.86357 0.14653,7.29589 0.0304,2.56428 0.0779,5.12831 0.11276,7.69254 0.0257,2.62308 0.0645,5.24598 0.13169,7.86834 0.0808,2.54815 0.12702,5.09717 0.18092,7.64598 0.0452,2.60599 0.11089,5.21121 0.19174,7.81632 0.0815,2.46785 0.17481,4.93528 0.25265,7.40326 0.0781,2.38892 0.11563,4.7789 0.19566,7.16775 0.0842,2.32124 0.18402,4.64174 0.28983,6.96208 0.10755,2.2968 0.20912,4.59386 0.34761,6.88906 0.13361,2.33673 0.33417,4.66855 0.54713,6.99911 0.21767,2.20099 0.44908,4.40055 0.67196,6.60101 0.20069,2.02546 0.37806,4.05318 0.57558,6.07893 0.0352,0.30896 0.0703,0.61791 0.10554,0.92686 0.35594,3.93888 11.49678,2.93217 11.14086,-1.00674 v 0 c -0.0196,-0.29779 -0.0393,-0.5956 -0.0589,-0.89339 -0.15803,-2.0652 -0.33692,-4.1288 -0.52914,-6.19106 -0.20002,-2.17374 -0.4106,-4.34642 -0.61748,-6.5195 -0.19296,-2.23197 -0.39156,-4.46338 -0.51515,-6.70062 -0.14401,-2.23446 -0.25603,-4.47051 -0.35247,-6.70753 -0.10645,-2.26375 -0.17323,-4.52898 -0.24265,-6.79413 -0.069,-2.37916 -0.12441,-4.75872 -0.19095,-7.13796 -0.0639,-2.47367 -0.11891,-4.94757 -0.18865,-7.42108 -0.075,-2.57509 -0.14341,-5.1503 -0.19137,-7.72605 -0.0593,-2.55153 -0.13544,-5.10267 -0.18204,-7.6545 -0.0523,-2.59345 -0.0784,-5.18716 -0.12515,-7.78071 -0.0436,-2.57908 -0.0786,-5.15831 -0.14478,-7.73694 -0.0601,-2.44915 -0.11565,-4.89834 -0.16557,-7.34775 -0.0604,-2.46716 -0.11319,-4.93453 -0.18206,-7.40148 -0.0644,-2.48748 -0.14909,-4.97427 -0.24315,-7.4608 -0.0872,-2.35259 -0.18667,-4.70485 -0.24347,-7.05847 -0.0595,-2.28217 -0.11105,-4.56438 -0.14193,-6.84713 -0.0442,-2.13532 -0.0719,-4.27077 -0.0616,-6.40657 -0.01,-1.95357 -0.0293,-3.90757 0.027,-5.86068 0.0407,-1.69918 0.0693,-3.39878 0.1742,-5.09566 0.0816,-1.46727 0.16807,-2.93431 0.26332,-4.40079 0.0847,-1.19893 0.19211,-2.39601 0.27834,-3.59484 0.0297,-0.68201 0.0658,-1.3643 0.0749,-2.04679 0.30255,-3.78185 -10.39408,-4.63756 -10.69663,-0.85574 z" /><path
         style="fill:#ffffff;fill-opacity:1;stroke:none;stroke-width:22.4367;stroke-dasharray:none;stroke-opacity:1"
         id="path159"
         d="m -826.24307,-835.30235 c -0.38664,0.30755 -0.77208,0.61653 -1.15245,0.93207 -0.6377,0.51491 -1.24375,1.06725 -1.8448,1.62407 -0.8295,0.79279 -1.59896,1.64737 -2.35294,2.51161 -0.8214,0.97724 -1.60534,1.98585 -2.37377,3.00514 -0.85928,1.15064 -1.6633,2.34071 -2.45372,3.53922 -0.83917,1.27624 -1.62314,2.58797 -2.38884,3.90927 -0.78467,1.35446 -1.48889,2.75236 -2.17887,4.15661 -0.69929,1.44068 -1.31874,2.91801 -1.90675,4.40698 -0.56925,1.46883 -1.09939,2.95269 -1.55837,4.45965 -0.46685,1.59645 -0.74879,3.2375 -0.97803,4.88236 -0.23722,1.60314 -0.25445,3.22281 -0.23786,4.83939 0.0204,1.53918 0.14846,3.07157 0.35835,4.59562 0.1764,1.28376 0.53377,2.53077 0.78746,3.79918 0.18261,1.07934 0.33843,2.1626 0.53549,3.23964 0.25664,1.35702 0.63558,2.68497 1.04896,4.00122 0.42797,1.26933 0.89173,2.52486 1.41907,3.75623 0.52086,1.26519 1.16142,2.4724 1.87137,3.64009 0.7442,1.17239 1.60253,2.26226 2.52347,3.29922 0.84825,0.95845 1.76643,1.851 2.70383,2.72118 0.83084,0.77679 1.66668,1.54821 2.50496,2.31696 0.7927,0.74755 1.59317,1.48683 2.38665,2.23351 0.85387,0.80441 1.7136,1.60221 2.58358,2.38919 0.43587,0.4155 0.89511,0.80404 1.35662,1.1903 2.93743,2.51021 10.03737,-5.79805 7.09994,-8.30826 v 0 c -0.36962,-0.3285 -0.73083,-0.66598 -1.09358,-1.00205 -0.81171,-0.73809 -1.62287,-1.47691 -2.42654,-2.2237 -0.82725,-0.78512 -1.66241,-1.56186 -2.49251,-2.34397 -0.82331,-0.75895 -1.64986,-1.51436 -2.46497,-2.28219 -0.70752,-0.65674 -1.4062,-1.32564 -2.05644,-2.03964 -0.49192,-0.51877 -0.92433,-1.08445 -1.31517,-1.68352 -0.44151,-0.69331 -0.77888,-1.44515 -1.09728,-2.20136 -0.39462,-0.9353 -0.72406,-1.89505 -1.06473,-2.85096 -0.29443,-0.86614 -0.55031,-1.74332 -0.71515,-2.64462 -0.21576,-1.09887 -0.38338,-2.20416 -0.55655,-3.31039 -0.2032,-1.05616 -0.46598,-2.09989 -0.63079,-3.16293 -0.14079,-1.08874 -0.22365,-2.18284 -0.24646,-3.28073 -0.019,-1.03867 -0.0138,-2.07952 0.12869,-3.11097 0.16487,-1.08662 0.3483,-2.1735 0.63056,-3.2366 0.37452,-1.22449 0.82955,-2.42281 1.28701,-3.61825 0.48511,-1.22889 0.99859,-2.44605 1.56342,-3.64075 0.56068,-1.17083 1.1524,-2.32611 1.80661,-3.44802 0.66418,-1.15102 1.34008,-2.29566 2.05221,-3.41781 0.6549,-1.01579 1.33435,-2.01552 2.02607,-3.00659 0.61206,-0.83299 1.22894,-1.66254 1.8754,-2.46938 0.51808,-0.62868 1.06076,-1.23701 1.62388,-1.82571 0.41566,-0.42619 0.81219,-0.87217 1.28711,-1.23613 0.37783,-0.33938 0.76531,-0.66903 1.13367,-1.01828 2.85879,-2.47764 -4.14902,-10.56354 -7.00781,-8.0859 z" /><path
         style="fill:#ffffff;fill-opacity:1;stroke:none;stroke-width:22.4367;stroke-dasharray:none;stroke-opacity:1"
         id="path160"
         d="m -825.94568,-825.03057 c -0.22826,-0.13335 0.41376,0.43355 0.51647,0.53679 0.52244,0.48718 0.99417,1.02217 1.47412,1.54996 0.59645,0.70371 1.17989,1.41814 1.76091,2.13465 0.69398,0.83312 1.3653,1.68453 2.03721,2.5354 0.73208,0.89075 1.43116,1.80795 2.13379,2.7219 0.78044,0.9797 1.49974,2.0052 2.2403,3.01472 0.79098,1.10204 1.56795,2.21371 2.33014,3.33584 0.79443,1.14289 1.57022,2.29886 2.32664,3.46726 0.73855,1.12127 1.39647,2.29208 2.0506,3.46368 0.69773,1.18862 1.29751,2.42729 1.86772,3.6806 0.56726,1.28259 1.07839,2.58926 1.55133,3.90929 0.40886,1.12718 0.76848,2.26822 0.96578,3.452 0.1705,1.11807 0.20561,2.25025 0.22402,3.37923 0.0296,0.94602 -0.0832,1.87677 -0.30387,2.7941 -0.25472,1.05516 -0.60637,2.08212 -0.99155,3.09571 -0.41032,0.97618 -0.86651,1.93233 -1.36761,2.86504 -0.48987,0.81068 -1.08013,1.55432 -1.67836,2.28655 -0.71125,0.83738 -1.47764,1.6255 -2.26171,2.39432 -0.81936,0.7687 -1.64732,1.52948 -2.50793,2.25198 -0.90342,0.72445 -1.82142,1.43155 -2.75802,2.11264 -1.08267,0.79344 -2.16064,1.5933 -3.229,2.40591 -1.05733,0.82878 -2.12399,1.64457 -3.15547,2.50561 -0.55584,0.45114 -1.09207,0.92506 -1.62605,1.40152 -2.8996,2.59982 4.45378,10.80111 7.35338,8.20129 v 0 c 0.42947,-0.38746 0.8609,-0.77261 1.29558,-1.15419 0.90467,-0.7475 1.84838,-1.44457 2.7736,-2.16614 1.05207,-0.78902 2.11508,-1.56332 3.16138,-2.36004 1.10778,-0.84134 2.23337,-1.66139 3.29554,-2.56074 1.05169,-0.89799 2.08495,-1.8184 3.09235,-2.76587 1.08066,-1.05405 2.13537,-2.13776 3.09739,-3.30253 1.03299,-1.26625 2.01811,-2.57778 2.81504,-4.00849 0.73755,-1.35218 1.42102,-2.735 1.99435,-4.16568 0.58864,-1.52988 1.12038,-3.08438 1.4792,-4.68622 0.35883,-1.73009 0.59256,-3.47962 0.55925,-5.2514 -0.008,-1.73969 -0.0715,-3.48311 -0.35684,-5.20279 -0.32451,-1.78396 -0.79891,-3.52962 -1.41777,-5.23523 -0.57428,-1.62682 -1.20002,-3.23575 -1.91108,-4.8082 -0.69999,-1.52625 -1.45333,-3.0268 -2.29521,-4.48048 -0.78018,-1.38983 -1.58689,-2.76511 -2.45856,-4.09998 -0.79915,-1.21309 -1.60907,-2.41895 -2.42853,-3.61844 -0.85011,-1.25886 -1.71268,-2.50984 -2.6307,-3.72055 -0.80169,-1.06299 -1.59552,-2.13227 -2.42316,-3.17537 -0.73774,-0.93765 -1.47633,-1.87489 -2.23081,-2.79916 -0.71345,-0.88992 -1.42018,-1.78546 -2.15964,-2.65414 -0.74236,-0.8909 -1.4655,-1.79893 -2.25927,-2.64567 -0.67477,-0.70149 -1.36044,-1.39184 -2.08939,-2.03761 -0.6449,-0.57288 -1.31948,-1.10884 -2.04147,-1.58247 -3.1768,-2.05561 -8.99089,6.9298 -5.81409,8.9854 z" /></g></g></svg>
