<?xml version="1.0" encoding="UTF-8" standalone="no"?>
<!-- Created with Inkscape (http://www.inkscape.org/) -->

<svg
   width="165.1279mm"
   height="165.37906mm"
   viewBox="0 0 165.1279 165.37906"
   version="1.1"
   id="svg5"
   xml:space="preserve"
   xmlns="http://www.w3.org/2000/svg"
   xmlns:svg="http://www.w3.org/2000/svg"><defs
     id="defs2" /><g
     id="layer2"
     transform="translate(3093.377,601.33177)"><g
       id="g227"
       transform="translate(-638.43791,317.5)"
       style="fill:#ffffff;fill-opacity:1"><path
         style="fill:#ffffff;fill-opacity:1;stroke:none;stroke-width:22.4367;stroke-dasharray:none;stroke-opacity:1"
         id="path217"
         d="m -2391.9116,-813.55686 c 0.3124,-0.29697 0.5767,-0.6387 0.8375,-0.98224 0.3107,-0.41544 0.6184,-0.83301 0.9287,-1.2487 0.379,-0.50345 0.7483,-1.01359 1.1394,-1.50778 0.5384,-0.69389 1.0457,-1.41139 1.5541,-2.12733 0.6118,-0.88598 1.2185,-1.77567 1.8033,-2.67972 0.6719,-1.05884 1.302,-2.14355 1.925,-3.23168 0.6564,-1.13562 1.3029,-2.27698 1.9349,-3.42643 0.6822,-1.2191 1.3412,-2.45081 2.0046,-3.68017 0.6699,-1.25759 1.3319,-2.51931 1.9957,-3.78013 0.6608,-1.2379 1.3082,-2.48285 1.9674,-3.72157 0.6726,-1.27633 1.34,-2.55543 2.0051,-3.83564 0.6641,-1.28942 1.3088,-2.58884 1.9514,-3.88909 0.665,-1.31961 1.2931,-2.65723 1.905,-4.00216 0.5687,-1.25958 1.1238,-2.52524 1.6838,-3.78865 0.5386,-1.21679 1.0573,-2.44216 1.5655,-3.67186 0.475,-1.15964 0.9263,-2.32873 1.3705,-3.50047 0.4191,-1.10966 0.8262,-2.22377 1.2087,-3.34658 0.193,-0.55716 0.3749,-1.11792 0.5534,-1.67986 1.2266,-3.79852 -9.5173,-7.26782 -10.7438,-3.4693 v 0 c -0.1533,0.465 -0.3063,0.93014 -0.4724,1.39078 -0.368,1.00441 -0.737,2.00867 -1.1333,3.00236 -0.4254,1.07238 -0.8584,2.14172 -1.3082,3.20413 -0.4774,1.128 -0.9725,2.2483 -1.4863,3.36021 -0.5645,1.23015 -1.137,2.45666 -1.705,3.68522 -0.5777,1.24167 -1.1491,2.48642 -1.7553,3.71449 -0.615,1.24301 -1.2516,2.47504 -1.8856,3.70842 -0.6387,1.2504 -1.2839,2.49741 -1.9308,3.74354 -0.6536,1.24764 -1.3254,2.48563 -1.9762,3.7347 -0.6523,1.23973 -1.3155,2.47375 -1.9686,3.71306 -0.6429,1.21457 -1.2762,2.43403 -1.9167,3.64979 -0.5842,1.09395 -1.16,2.19252 -1.7689,3.27308 -0.5399,0.96343 -1.084,1.92442 -1.6252,2.88714 -0.4714,0.79737 -0.9444,1.59318 -1.4523,2.36841 -0.4205,0.65683 -0.8512,1.30691 -1.2909,1.95109 -0.356,0.55449 -0.7385,1.09165 -1.1014,1.64161 -0.2796,0.41767 -0.5541,0.83855 -0.8422,1.2504 -0.1555,0.23944 -0.3219,0.49133 -0.4354,0.7502 -2.3125,2.99264 6.152,9.53338 8.4645,6.54073 z" /><path
         style="fill:#ffffff;fill-opacity:1;stroke:none;stroke-width:22.4367;stroke-dasharray:none;stroke-opacity:1"
         id="path218"
         d="m -2373.8057,-865.70496 c 0.1006,0.38936 0.2162,0.77449 0.3307,1.15993 0.1465,0.45601 0.3338,0.89747 0.4595,1.35996 0.1961,0.65503 0.4109,1.30434 0.6374,1.94948 0.2621,0.75951 0.5055,1.52498 0.7529,2.28938 0.2973,0.92755 0.5986,1.85389 0.9078,2.77757 0.3538,1.02362 0.6938,2.05195 1.0411,3.07782 0.375,1.12983 0.7587,2.25645 1.1525,3.37984 0.4129,1.16943 0.8458,2.33164 1.2699,3.49705 0.438,1.21875 0.8965,2.42991 1.3554,3.64085 0.4855,1.28427 1.0001,2.5572 1.5013,3.83535 0.5511,1.41272 1.1372,2.81123 1.7324,4.20579 0.6423,1.52556 1.3193,3.03594 2.0061,4.54187 0.7283,1.59128 1.5084,3.15841 2.2845,4.72683 0.8062,1.60769 1.6474,3.19759 2.5024,4.77983 0.8614,1.58716 1.7571,3.15537 2.6663,4.71554 0.9243,1.57895 1.8795,3.13959 2.8612,4.68354 0.9691,1.54043 1.986,3.04933 3.0225,4.54491 0.9932,1.43174 2.033,2.83022 3.0841,4.21968 0.976,1.28453 1.9821,2.54582 3.0159,3.7842 0.1536,0.18122 0.3071,0.36246 0.4607,0.54367 2.5506,3.17283 11.5247,-4.04127 8.9741,-7.2141 v 0 c -0.1411,-0.18537 -0.2822,-0.37074 -0.4234,-0.55608 -0.9011,-1.1739 -1.8101,-2.3418 -2.6935,-3.52922 -0.9426,-1.27998 -1.8612,-2.5771 -2.7566,-3.89057 -0.9438,-1.38438 -1.8764,-2.77616 -2.7678,-4.19507 -0.9019,-1.42423 -1.7867,-2.85927 -2.6427,-4.31165 -0.8552,-1.45987 -1.6873,-2.93296 -2.4983,-4.41783 -0.804,-1.45695 -1.5795,-2.92904 -2.3391,-4.4096 -0.7436,-1.45904 -1.4475,-2.93737 -2.1684,-4.40766 -0.6667,-1.39767 -1.3208,-2.80115 -1.9579,-4.21262 -0.5753,-1.30871 -1.1537,-2.61609 -1.7087,-3.93364 -0.512,-1.2161 -1.0116,-2.43721 -1.5012,-3.66255 -0.4569,-1.13411 -0.8944,-2.27589 -1.3262,-3.41974 -0.4159,-1.11262 -0.8185,-2.23017 -1.2136,-3.35034 -0.3963,-1.11503 -0.8119,-2.22295 -1.2089,-3.33777 -0.3623,-0.9947 -0.7279,-1.98826 -1.0784,-2.98722 -0.3257,-0.92245 -0.6535,-1.8442 -0.9919,-2.76204 -0.2954,-0.80193 -0.5906,-1.60393 -0.8908,-2.40409 -0.249,-0.67037 -0.5016,-1.33945 -0.7817,-1.99765 -0.2005,-0.45228 -0.3796,-0.91366 -0.5871,-1.36284 -0.01,-0.023 -0.2657,-0.61095 -0.2635,-0.46091 -1.0996,-3.61296 -11.3186,-0.50284 -10.219,3.1101 z" /><path
         style="fill:#ffffff;fill-opacity:1;stroke:none;stroke-width:22.4367;stroke-dasharray:none;stroke-opacity:1"
         id="path219"
         d="m -2336.3403,-807.50486 c -0.3549,-0.18523 -0.7563,-0.31279 -1.1391,-0.43862 -0.818,-0.26316 -1.6639,-0.41058 -2.5116,-0.53729 -1.0615,-0.1723 -2.1286,-0.29597 -3.2011,-0.37132 -1.2189,-0.0759 -2.4372,-0.16052 -3.6565,-0.23162 -1.3761,-0.0714 -2.753,-0.12504 -4.129,-0.19796 -1.5189,-0.0845 -3.0387,-0.14713 -4.5589,-0.19962 -1.6021,-0.0557 -3.2014,-0.16873 -4.8022,-0.25115 -1.7277,-0.0626 -3.4536,-0.16094 -5.1801,-0.24754 -1.8938,-0.0967 -3.7898,-0.13602 -5.6859,-0.15042 -1.9839,-0.0249 -3.967,0.0317 -5.9491,0.11184 -1.9925,0.0915 -3.9838,0.20648 -5.9731,0.35237 -2.0509,0.15658 -4.0965,0.36939 -6.1386,0.61418 -2.0333,0.24048 -4.0574,0.54944 -6.0785,0.8749 -1.9634,0.31189 -3.9191,0.66865 -5.8755,1.02084 -1.8662,0.34287 -3.7268,0.71472 -5.5884,1.08114 -1.7764,0.34875 -3.5503,0.71009 -5.3237,1.07355 -1.7162,0.33697 -3.4271,0.69921 -5.139,1.05701 -1.6654,0.33845 -3.3217,0.71903 -4.9789,1.09516 -1.6172,0.36772 -3.2326,0.74237 -4.8416,1.14427 -3.9926,0.99555 -1.1768,12.28842 2.8158,11.2929 v 0 c 1.4959,-0.37233 2.994,-0.73787 4.5053,-1.04328 1.6248,-0.33862 3.2486,-0.68189 4.8739,-1.0177 1.6885,-0.34605 3.3793,-0.68101 5.0711,-1.01026 1.7372,-0.33977 3.4731,-0.68601 5.214,-1.00584 1.8389,-0.33549 3.6792,-0.66341 5.5179,-0.99959 1.861,-0.34359 3.7275,-0.65871 5.5954,-0.96158 1.8748,-0.28802 3.7515,-0.56554 5.635,-0.79107 1.8922,-0.22254 3.7864,-0.4309 5.6853,-0.58899 1.8262,-0.16013 3.6539,-0.30221 5.487,-0.35555 1.8037,-0.0682 3.608,-0.13994 5.4133,-0.13941 1.7692,0.008 3.5381,0.0358 5.3064,0.0972 1.7065,0.0453 3.413,0.0903 5.1178,0.18373 1.6224,0.0593 3.2458,0.0826 4.8679,0.15176 1.5243,0.0653 3.049,0.11327 4.5747,0.1342 1.3751,0.0302 2.7497,0.0796 4.1249,0.10242 1.1607,0.0201 2.3217,0.0324 3.4815,0.0835 0.8046,0.0294 1.6096,0.007 2.4127,0.0649 0.3481,0.0349 0.7976,0.15441 1.1338,0.0395 0.1232,-0.0512 0.2461,0.007 0.4076,0.0535 3.5673,1.24082 7.0769,-8.84925 3.5095,-10.0901 z" /><path
         style="fill:#ffffff;fill-opacity:1;stroke:none;stroke-width:22.4367;stroke-dasharray:none;stroke-opacity:1"
         id="path220"
         d="m -2425.6304,-790.34557 c 0.2014,-0.26196 0.3909,-0.53298 0.5733,-0.80873 0.3218,-0.52152 0.6604,-1.03219 0.9896,-1.549 0.4424,-0.72509 0.928,-1.42171 1.3837,-2.1382 0.5829,-0.92533 1.162,-1.85298 1.7354,-2.78424 0.7092,-1.13223 1.3708,-2.29343 2.0295,-3.45556 0.7446,-1.29897 1.4499,-2.6193 2.1436,-3.94592 0.7268,-1.40113 1.458,-2.79993 2.1739,-4.20672 0.7533,-1.46727 1.4802,-2.94767 2.2058,-4.4287 0.7166,-1.45931 1.431,-2.9197 2.1536,-4.3761 0.7163,-1.45092 1.4336,-2.90139 2.1536,-4.35049 0.7214,-1.4564 1.4436,-2.91232 2.1599,-4.37123 0.7133,-1.44839 1.418,-2.901 2.1148,-4.35743 0.6814,-1.41218 1.3528,-2.82919 2.0222,-4.24706 0.651,-1.37324 1.2877,-2.75307 1.9262,-4.13208 0.6324,-1.35157 1.2554,-2.70748 1.8799,-4.06268 0.6224,-1.37165 1.2557,-2.73828 1.8755,-4.11115 0.6114,-1.34773 1.2229,-2.6956 1.8511,-4.03563 0.6349,-1.35099 1.2833,-2.69552 1.9335,-4.03921 0.6758,-1.3702 1.3184,-2.75632 1.9731,-4.13663 0.6515,-1.36826 1.3038,-2.73624 1.9474,-4.10826 0.6418,-1.34972 1.2626,-2.70926 1.8873,-4.06697 0.6001,-1.30238 1.217,-2.59696 1.8266,-3.8949 0.5971,-1.27701 1.2072,-2.54783 1.8261,-3.81442 0.6075,-1.26743 1.2282,-2.52846 1.8476,-3.7901 0.6079,-1.22659 1.2279,-2.44703 1.8521,-3.6653 0.6307,-1.23592 1.2819,-2.46118 1.9233,-3.69152 0.6354,-1.22873 1.2685,-2.45862 1.9005,-3.68917 0.6317,-1.22285 1.2633,-2.44578 1.8855,-3.67352 0.6125,-1.22301 1.2311,-2.44285 1.8317,-3.67176 0.5765,-1.17105 1.1482,-2.34437 1.7162,-3.51954 0.5475,-1.12496 1.0811,-2.25647 1.6116,-3.38947 0.5,-1.06812 0.9832,-2.14397 1.4662,-3.21985 0.462,-1.02801 0.9054,-2.06422 1.3402,-3.10398 0.2652,-0.64056 0.5253,-1.28321 0.7875,-1.92498 1.5323,-3.66818 -8.8429,-8.00206 -10.3751,-4.3339 v 0 c -0.2619,0.61312 -0.5236,1.22626 -0.7856,1.83933 -0.4105,0.94403 -0.8293,1.88444 -1.2648,2.81728 -0.473,1.01621 -0.9464,2.03227 -1.4368,3.04025 -0.5207,1.07717 -1.0432,2.1535 -1.5838,3.22085 -0.5861,1.16285 -1.1714,2.32614 -1.7584,3.48859 -0.5973,1.193 -1.1817,2.39239 -1.793,3.57835 -0.6021,1.1942 -1.2207,2.38001 -1.8319,3.56958 -0.6325,1.2088 -1.258,2.42123 -1.9043,3.62272 -0.6655,1.26037 -1.3219,2.52558 -1.9661,3.79693 -0.646,1.26164 -1.2869,2.5259 -1.9232,3.79244 -0.6424,1.27989 -1.2789,2.56259 -1.9018,3.85212 -0.6362,1.3063 -1.2596,2.61868 -1.8838,3.93075 -0.6287,1.31514 -1.2454,2.63594 -1.877,3.94968 -0.6376,1.34905 -1.2708,2.70015 -1.9065,4.05008 -0.6231,1.33935 -1.2442,2.67965 -1.8934,4.00666 -0.6637,1.37031 -1.3327,2.73812 -1.9844,4.1142 -0.6672,1.39549 -1.3387,2.78892 -1.9869,4.1934 -0.6341,1.38174 -1.2787,2.75865 -1.9016,4.14552 -0.6055,1.34281 -1.1993,2.69095 -1.8219,4.02595 -0.6189,1.33872 -1.2301,2.68103 -1.8617,4.01384 -0.6371,1.35239 -1.2721,2.70584 -1.919,4.05357 -0.6622,1.38589 -1.3397,2.7644 -2.0106,4.14605 -0.7013,1.42613 -1.401,2.85306 -2.1023,4.27919 -0.7165,1.44658 -1.4276,2.89581 -2.1531,4.33787 -0.7232,1.45666 -1.4317,2.92049 -2.1597,4.37478 -0.7144,1.452 -1.4313,2.90271 -2.1545,4.35038 -0.7372,1.46622 -1.4578,2.94066 -2.1746,4.41696 -0.6676,1.36578 -1.332,2.73325 -2.0263,4.08574 -0.6345,1.2372 -1.266,2.47616 -1.9075,3.7096 -0.5833,1.07912 -1.1737,2.15431 -1.7583,3.2327 -0.5245,0.92456 -1.055,1.84571 -1.5903,2.76408 -0.4365,0.7716 -0.8701,1.54479 -1.3002,2.31997 -0.3088,0.57793 -0.6313,1.14842 -0.9273,1.7331 -0.1905,0.3901 -0.3933,0.77576 -0.5459,1.18282 -1.7887,3.33883 7.655,8.3979 9.4436,5.05907 z" /><path
         style="fill:#ffffff;fill-opacity:1;stroke:none;stroke-width:22.4367;stroke-dasharray:none;stroke-opacity:1"
         id="path221"
         d="m -2374.9256,-913.80028 c 0,0.34091 0,0.68196 0.02,1.02227 0.027,0.54477 0.086,1.08717 0.1592,1.6274 0.09,0.63314 0.1991,1.26341 0.3116,1.8929 0.1496,0.8128 0.3514,1.61372 0.5576,2.41356 0.2456,0.95967 0.5424,1.905 0.8562,2.84424 0.3473,1.04617 0.7338,2.07833 1.1204,3.11031 0.407,1.0713 0.8259,2.13797 1.2473,3.20366 0.4502,1.11823 0.9046,2.23472 1.3637,3.34933 0.4748,1.14268 0.9599,2.28103 1.4403,3.42138 0.5194,1.24458 1.0703,2.47566 1.6309,3.7021 0.5778,1.27426 1.1912,2.5317 1.805,3.78881 0.6262,1.27992 1.2719,2.55014 1.9131,3.82257 0.6928,1.3661 1.3949,2.7273 2.1181,4.07757 0.7611,1.41349 1.5336,2.82083 2.3126,4.22458 0.8121,1.48891 1.6529,2.96188 2.4919,4.43576 0.8704,1.52673 1.7564,3.04446 2.6391,4.56409 0.9266,1.60642 1.8972,3.18675 2.8493,4.77801 1.0124,1.67513 2.0492,3.33533 3.0903,4.99276 1.098,1.72345 2.1581,3.47015 3.2099,5.22201 1.1784,1.96686 2.3553,3.93459 3.5445,5.89497 1.262,2.07785 2.5408,4.14551 3.8145,6.21625 1.3037,2.10576 2.6002,4.216 3.8986,6.325 1.3056,2.15529 2.6506,4.2859 3.9926,6.41852 1.3469,2.18178 2.7406,4.33419 4.0829,6.51875 1.5163,2.47481 3.1478,4.87575 4.8079,7.25549 1.5915,2.27303 3.2084,4.52818 4.8324,6.77807 1.4832,2.04771 2.9656,4.09604 4.4541,6.13986 1.3953,1.91622 2.8168,3.81321 4.2463,5.704 1.3019,1.70746 2.5984,3.41889 3.887,5.13635 0.8088,1.08554 1.6274,2.16374 2.4477,3.24065 2.5017,3.37836 12.0571,-3.69771 9.5554,-7.07605 v 0 c -0.7923,-1.10008 -1.5887,-2.19731 -2.394,-3.28792 -1.2709,-1.73516 -2.5401,-3.47165 -3.8025,-5.21306 -1.3545,-1.85722 -2.6981,-3.72221 -4.031,-5.59498 -1.4387,-2.04748 -2.8665,-4.10263 -4.2837,-6.16514 -1.5543,-2.252 -3.1093,-4.50355 -4.6539,-6.76227 -1.5617,-2.27426 -3.1324,-4.54224 -4.7081,-6.80681 -1.399,-2.08161 -2.7158,-4.21658 -4.0644,-6.33095 -1.318,-2.13688 -2.64,-4.27119 -3.9708,-6.40014 -1.3094,-2.09796 -2.6201,-4.19512 -3.9223,-6.29755 -1.2773,-2.05293 -2.5563,-4.10488 -3.8336,-6.15778 -1.2228,-1.96689 -2.4546,-3.92819 -3.6957,-5.88352 -1.122,-1.74347 -2.2672,-3.47173 -3.3756,-5.22393 -1.0202,-1.60097 -2.0434,-3.20014 -3.0538,-4.80722 -0.9493,-1.51659 -1.8741,-3.04839 -2.8023,-4.57798 -0.8814,-1.47396 -1.7503,-2.95539 -2.6132,-4.44029 -0.833,-1.43113 -1.6556,-2.86826 -2.4874,-4.30003 -0.7682,-1.34879 -1.5286,-2.70211 -2.276,-4.06249 -0.6993,-1.26431 -1.3989,-2.52844 -2.0647,-3.81088 -0.6292,-1.19435 -1.2535,-2.39154 -1.8468,-3.60423 -0.5797,-1.17552 -1.1484,-2.3564 -1.7138,-3.53883 -0.5269,-1.12572 -1.0513,-2.25274 -1.5484,-3.39201 -0.4829,-1.10543 -0.9675,-2.21006 -1.4344,-3.3224 -0.4464,-1.04478 -0.8885,-2.0914 -1.318,-3.14325 -0.4135,-1.03158 -0.8241,-2.0643 -1.2397,-3.09504 -0.3703,-0.92369 -0.7311,-1.85108 -1.0876,-2.78019 -0.2692,-0.71062 -0.5578,-1.41486 -0.7803,-2.14212 -0.1646,-0.51035 -0.3278,-1.02073 -0.4478,-1.54395 -0.1063,-0.45087 -0.202,-0.904 -0.2859,-1.35961 -0.055,-0.3224 -0.1112,-0.64535 -0.1968,-0.96134 -0.029,-0.16505 -0.045,-0.49083 -0.1004,-0.50305 -0.1639,-3.77153 -10.8314,-3.30774 -10.6675,0.46379 z" /><path
         style="fill:#ffffff;fill-opacity:1;stroke:none;stroke-width:22.4367;stroke-dasharray:none;stroke-opacity:1"
         id="path222"
         d="m -2293.1931,-789.01689 c 0.06,0.008 0.1977,0.081 0.18,0.0233 -0.01,-0.0175 -0.947,-0.22342 -1.0982,-0.25101 -0.5417,-0.0875 -1.0865,-0.15455 -1.6302,-0.2285 -0.7286,-0.11178 -1.4615,-0.18618 -2.1956,-0.25079 -0.863,-0.0893 -1.7265,-0.17267 -2.5905,-0.2517 -1.0967,-0.16161 -2.2017,-0.2476 -3.3049,-0.34857 -1.226,-0.11025 -2.4502,-0.23846 -3.6752,-0.3589 -1.334,-0.12041 -2.6686,-0.23514 -4.0027,-0.35423 -1.4203,-0.12596 -2.8421,-0.23331 -4.2642,-0.33578 -1.4936,-0.0974 -2.9876,-0.18814 -4.4829,-0.25524 -1.5503,-0.0612 -3.1011,-0.11618 -4.6524,-0.14457 -1.694,-0.0281 -3.3882,0.007 -5.0811,0.0692 -1.7117,0.0643 -3.4213,0.17278 -5.1307,0.28176 -1.7219,0.11507 -3.4407,0.27109 -5.1594,0.42548 -1.7161,0.16171 -3.4314,0.33189 -5.1444,0.52345 -1.7143,0.19317 -3.4278,0.39208 -5.1399,0.60375 -1.6746,0.22225 -3.3511,0.43026 -5.0273,0.64003 -1.6908,0.21648 -3.3852,0.40216 -5.0779,0.60351 -1.7364,0.20709 -3.4724,0.41606 -5.2102,0.61132 -1.7943,0.19712 -3.5862,0.41582 -5.3788,0.62725 -1.8165,0.22003 -3.6327,0.44217 -5.4489,0.66429 -1.8412,0.23638 -3.6795,0.49509 -5.5169,0.75927 -1.8411,0.27485 -3.682,0.55137 -5.5202,0.84439 -1.8446,0.30951 -3.6863,0.6367 -5.5247,0.98055 -1.8789,0.32652 -3.7448,0.7208 -5.6099,1.11728 -1.8467,0.38637 -3.6849,0.81055 -5.5204,1.24675 -1.8208,0.42862 -3.636,0.88 -5.4465,1.3499 -1.8395,0.48953 -3.6761,0.98899 -5.5041,1.51969 -1.8719,0.54208 -3.731,1.12704 -5.5818,1.73677 -1.8408,0.61103 -3.6703,1.25535 -5.4967,1.9081 -1.7932,0.65397 -3.5819,1.32088 -5.3637,2.00552 -1.7495,0.67654 -3.4985,1.35358 -5.2379,2.05565 -1.6701,0.67887 -3.3417,1.35406 -5.0089,2.03973 -1.6081,0.6632 -3.2182,1.3213 -4.8181,2.00395 -1.5224,0.63555 -3.0328,1.2991 -4.5402,1.96932 -0.7309,0.32081 -1.4573,0.65151 -2.1832,0.98351 -3.7365,1.68616 1.0328,12.25433 4.7692,10.56817 v 0 c 0.6833,-0.30377 1.368,-0.60433 2.0555,-0.89852 1.4613,-0.62299 2.9271,-1.23516 4.3991,-1.8323 1.5689,-0.63846 3.1383,-1.27571 4.7129,-1.90002 1.6672,-0.65966 3.3324,-1.324 5.0001,-1.98255 1.6907,-0.67162 3.3833,-1.33898 5.0851,-1.98231 1.6999,-0.65236 3.4061,-1.28749 5.1232,-1.89333 1.7246,-0.62043 3.4521,-1.23286 5.1926,-1.80743 1.7364,-0.56774 3.4796,-1.11347 5.2301,-1.6361 1.7059,-0.50975 3.4149,-1.01084 5.1404,-1.45082 1.711,-0.44815 3.4247,-0.88738 5.1506,-1.27508 1.7624,-0.40309 3.525,-0.80557 5.2942,-1.178 1.765,-0.37394 3.5326,-0.73533 5.3035,-1.08022 1.7548,-0.32138 3.51,-0.64127 5.272,-0.92114 1.7505,-0.29004 3.5004,-0.5855 5.2584,-0.8268 1.7829,-0.24209 3.5652,-0.48805 5.3493,-0.72112 1.8005,-0.23006 3.6017,-0.45503 5.4039,-0.67257 1.782,-0.22209 3.5656,-0.43077 5.3477,-0.65212 1.734,-0.21741 3.4692,-0.42508 5.2042,-0.63407 1.7117,-0.2023 3.4196,-0.4313 5.1298,-0.64548 1.669,-0.20331 3.3355,-0.4268 5.0059,-0.61817 1.6719,-0.19926 3.3416,-0.41678 5.0148,-0.60548 1.6323,-0.17854 3.2648,-0.35777 4.9005,-0.50196 1.6377,-0.14608 3.2757,-0.28991 4.9158,-0.40638 1.6039,-0.11755 3.2084,-0.22709 4.8155,-0.29104 1.499,-0.0702 2.9984,-0.13756 4.4995,-0.13221 1.4147,-0.003 2.8286,0.0106 4.2416,0.0926 1.4019,0.0607 2.8042,0.11893 4.2045,0.21042 1.3739,0.089 2.7476,0.18055 4.1207,0.28083 1.3194,0.0965 2.6374,0.21151 3.9568,0.30805 1.2345,0.0897 2.4686,0.18455 3.7031,0.27329 1.1059,0.0844 2.2114,0.17034 3.3204,0.20357 0.9009,0.0692 1.8026,0.11809 2.7057,0.14632 0.659,0.0387 1.3182,0.0788 1.9785,0.0844 0.4101,0.0145 0.8176,0.0545 1.2259,0.094 0.3056,0.0225 0.5562,-0.0127 0.8486,0.0322 3.7346,0.53351 5.2435,-10.02943 1.509,-10.56293 z" /></g></g></svg>
