<?xml version="1.0" encoding="UTF-8" standalone="no"?>
<!-- Created with Inkscape (http://www.inkscape.org/) -->

<svg
   width="154.20583mm"
   height="154.70567mm"
   viewBox="0 0 154.20583 154.70567"
   version="1.1"
   id="svg5"
   xml:space="preserve"
   xmlns="http://www.w3.org/2000/svg"
   xmlns:svg="http://www.w3.org/2000/svg"><defs
     id="defs2" /><g
     id="layer1"
     transform="translate(1519.6599,915.56003)"><path
       style="fill:#ffffff;fill-opacity:1;stroke:none;stroke-width:0.889432;stroke-opacity:1"
       d="m -1569.9296,-764.26311 c -1.5024,-1.94072 -2.9631,-4.2104 -3.246,-5.04372 -0.3802,-1.12125 -2.2413,-1.78093 -7.1587,-2.53755 -6.5421,-1.00663 -12.4436,-0.62531 -23.4207,1.51339 -8.0567,1.56971 -8.7736,-3.50971 -1.5243,-10.80045 5.4338,-5.46499 9.2724,-11.84047 9.9928,-16.59682 0.6458,-4.2647 -2.243,-12.56798 -5.8755,-16.88848 -2.2677,-2.69766 -2.4533,-6.09012 -0.4775,-8.72967 1.7912,-2.3926 3.3621,-2.40274 7.8353,-0.0507 5.2503,2.76087 10.4484,13.4218 9.5792,19.64653 -1.3008,9.31606 -1.2167,9.10016 -6.9456,17.81887 l -3.2717,4.9796 11.0879,0.0738 c 13.7491,0.0914 19.0244,1.79787 21.298,6.88926 0.7767,1.73948 2.2048,4.17512 3.1734,5.41252 1.9135,2.44543 1.5312,6.543 -0.5415,5.7989 -0.643,-0.23086 -1.9334,0.12226 -2.8676,0.78429 -2.8307,2.00663 -4.7734,1.42927 -7.6375,-2.26981 z m -69.003,-31.42971 c -5.6663,-1.01232 -8.4675,-2.40176 -11.4793,-5.69371 -5.521,-6.03475 -3.7319,-10.49806 5.7873,-14.43773 6.9779,-2.88794 19.4851,-2.05267 19.4851,1.30126 0,0.66629 0.757,1.7173 1.6825,2.33559 4.9997,3.34031 6.2682,11.10773 2.373,14.5314 -1.7558,1.54347 -3.4323,1.94823 -8.8578,2.13881 -3.6804,0.12941 -7.7265,0.0501 -8.9908,-0.17559 z m 10.1148,-10.65709 c 0,-2.87337 -0.3973,-3.62908 -2.3442,-4.45905 -2.6038,-1.11003 -7.7759,0.12226 -10.7557,2.56308 -3.0767,2.51969 1.3534,5.20903 8.7323,5.30115 l 4.3676,0.0546 z m 73.9266,6.87246 c -4.3439,-2.01183 -5.8811,-4.55862 -5.8811,-9.74466 0,-2.88573 0.5405,-4.14986 2.5287,-5.91548 4.0523,-3.59838 9.9341,-5.38913 17.7009,-5.38913 7.8218,0 10.837,1.40885 13.3449,6.23523 2.8547,5.49316 0,11.5268 -7.1013,14.92631 -4.8308,2.31781 -15.4701,2.25983 -20.5921,-0.11218 z m 15.339,-8.50847 c 3.7243,-3.48461 3.5376,-5.22808 -0.5602,-5.22808 -3.5838,0 -9.0305,1.84434 -10.063,3.40771 -1.0458,1.58301 2.2861,4.33516 5.2485,4.33516 1.7436,0 3.6304,-0.88284 5.3747,-2.51479 z m -52.4841,-21.55785 c -11.1206,-1.5779 -19.3103,-8.6503 -19.3103,-16.67577 0,-5.65447 10.0831,-11.03369 20.9577,-11.18076 4.5753,-0.0618 5.2273,0.18079 7.8391,2.91731 1.5667,1.6416 4.4318,3.6492 6.3673,4.46126 6.1834,2.59484 8.9394,11.22921 5.3444,16.74519 -1.4909,2.28805 -2.5064,2.8207 -6.2032,3.25355 -8.4129,0.98507 -10.8752,1.06376 -14.995,0.47922 z m 10.5089,-8.25081 c 2.746,-2.56931 1.9532,-3.8839 -4.3143,-7.15121 -5.4474,-2.83991 -9.9911,-3.21479 -12.1323,-1.001 -1.7631,1.82284 -1.7579,1.84944 0.7966,4.06551 2.5919,2.24884 9.8044,5.32391 12.6615,5.3984 0.8487,0.0228 2.1937,-0.56812 2.9885,-1.3117 z m 54.2132,4.09992 c -2.0804,-0.80162 -4.3565,-1.89796 -5.0574,-2.4363 -0.701,-0.53837 -5.1391,-2.84665 -9.8625,-5.12953 -4.7238,-2.28288 -9.4823,-5.14075 -10.5746,-6.3508 -1.0927,-1.21005 -3.4727,-3.05715 -5.2889,-4.10466 -3.9265,-2.26473 -16.5168,-14.90189 -21.08,-21.15868 -1.7784,-2.43825 -3.889,-5.30788 -4.6904,-6.37694 l -1.4569,-1.94378 -3.5856,2.64996 c -1.9723,1.4575 -5.3858,4.05016 -7.5861,5.76145 -13.0877,10.17887 -25.4921,18.71491 -32.3212,22.24166 -7.8232,4.04018 -15.7992,8.28921 -18.3905,9.79707 -2.0657,1.20205 -8.9794,3.92088 -14.972,5.88787 -4.8402,1.58877 -5.6044,1.63269 -8.5265,0.49031 -2.8499,-1.11403 -3.0959,-1.45473 -2.1909,-3.03661 0.5606,-0.98 2.9492,-2.5447 5.3083,-3.47709 7.3095,-2.88905 8.7983,-3.58893 11.6454,-5.47424 1.5173,-1.00464 7.952,-4.21267 14.2999,-7.12897 8.9401,-4.10745 14.4312,-7.43524 24.3674,-14.76685 7.0547,-5.20545 15.8266,-11.64577 19.4932,-14.31182 3.6665,-2.66602 6.6668,-5.15558 6.6668,-5.53234 0,-0.37673 -2.4265,-5.12985 -5.3924,-10.5625 -6.0594,-11.09979 -6.9432,-13.87386 -4.999,-15.69264 1.4162,-1.32506 4.6782,-1.62502 6.3457,-0.5835 0.5564,0.34762 2.38,2.95492 4.0523,5.79399 3.8806,6.58865 5.3966,8.69 13.7331,19.03676 9.1347,11.33768 17.997,21.08341 21.9134,24.09757 1.7599,1.35443 5.113,4.05862 7.4513,6.00932 2.3382,1.9507 6.1135,4.4145 8.3892,5.47508 2.2761,1.0606 7.5413,3.91236 11.7007,6.33724 7.0575,4.11434 7.5996,4.63938 8.1133,7.85986 0.6141,3.8486 -0.7524,8.20838 -2.5499,8.13466 -0.6447,-0.026 -2.8745,-0.70394 -4.9552,-1.50555 z"
       id="path2861-6" /><path
       style="fill:#ffffff;fill-opacity:1;stroke:none;stroke-width:1.23839;stroke-opacity:1"
       d="m -1519.313,-763.44041 c -0.4379,-1.4586 -0.4653,-4.52619 -0.059,-6.81686 1.6201,-9.09249 9.3441,-31.47309 14.1197,-40.91259 2.7774,-5.48924 5.8694,-11.69598 6.8715,-13.79275 8.2317,-17.22675 34.3375,-47.60674 55.9701,-65.13372 6.6256,-5.36796 24.8961,-15.56071 27.8929,-15.56071 0.9378,0 5.983,-1.4296 11.211,-3.17691 5.2286,-1.74735 11.4136,-3.17411 13.7449,-3.17066 2.3312,0.003 6.7643,-0.94704 9.8518,-2.11218 4.7514,-1.79304 6.1882,-1.86796 9.3533,-0.48755 3.9546,1.72502 4.6716,3.64476 2.2956,6.14685 -1.1207,1.1797 -0.9213,1.92242 0.889,3.31633 2.2724,1.74981 2.2752,1.86321 0.1004,4.39657 -1.274,1.48204 -4.5467,2.96543 -7.61,3.44913 -3.301,0.52126 -5.9205,1.76854 -6.7885,3.23286 -0.7781,1.31125 -1.8163,2.38413 -2.3075,2.38413 -3.082,0 -15.4366,10.50682 -23.5032,19.98844 -23.3654,27.46451 -31.6851,45.40752 -31.8598,68.71201 -0.077,10.41484 1.082,14.23255 4.325,14.23255 0.8247,0 2.7947,1.03547 4.3779,2.301 3.7917,3.0318 11.5513,5.32367 18.0237,5.32367 9.6457,0 20.319,-7.56746 20.8088,-14.75338 0.2144,-3.16548 -0.2235,-3.72987 -3.1709,-4.08538 -1.8815,-0.2267 -5.6053,0.50757 -8.2741,1.63213 -3.7954,1.59905 -5.2308,1.71451 -6.5864,0.52991 -1.3128,-1.14732 -2.0722,-1.15794 -3.1304,-0.0432 -0.7681,0.80911 -1.9148,1.4711 -2.5479,1.4711 -1.5212,0 11.2183,-13.16976 14.5622,-15.05395 4.0663,-2.29149 12.2775,-1.76297 16.6312,1.07057 3.3662,2.19067 3.9993,3.44746 4.6387,9.21315 0.9533,8.59217 0.1414,11.88285 -4.4627,18.11342 -4.4987,6.08619 -9.1279,10.35571 -15.7641,14.5385 -4.2228,2.66169 -6.2771,3.07128 -14.4874,2.8882 -5.2618,-0.1172 -10.1223,-0.7982 -10.801,-1.51307 -0.6787,-0.71483 -2.1565,-1.29973 -3.2832,-1.29973 -2.6049,0 -10.2349,-4.60049 -15.8074,-9.53081 -2.7322,-2.41732 -4.6319,-5.43985 -5.1925,-8.26004 -0.4862,-2.44629 -1.4003,-5.12392 -2.0311,-5.95037 -0.6313,-0.82644 -1.2247,-3.39976 -1.3191,-5.71852 -0.3102,-7.61487 3.0305,-28.24542 5.5172,-34.07912 6.5874,-15.45249 28.5288,-45.72389 42.8178,-59.07366 2.8384,-2.65189 5.0027,-4.98795 4.8098,-5.19121 -0.9378,-0.98758 -16.847,4.6651 -21.1158,7.50258 -2.6697,1.77449 -6.7903,4.07846 -9.1576,5.11993 -10.9447,4.81534 -36.5643,29.77501 -49.4945,48.21931 -7.6268,10.87904 -21.2969,35.94107 -21.3101,39.06836 0,1.08335 -0.4616,2.51295 -1.0158,3.17695 -1.4441,1.73089 -4.5813,11.308 -6.8468,20.90427 -1.0728,4.54305 -2.8353,8.97487 -3.9163,9.84857 -2.9571,2.38922 -6.071,1.91388 -6.9687,-1.06361 z m 117.0792,-7.70343 c 0.8634,-0.96492 0.3923,-1.10242 -1.5996,-0.46733 -1.5522,0.49485 -5.354,1.39708 -8.4479,2.00499 -5.2851,1.03854 -5.1889,1.06673 1.6001,0.46732 3.9733,-0.35061 7.7751,-1.25304 8.4474,-2.00498 z m 34.0843,-131.46862 c -0.4014,-0.42218 -1.4423,-0.46732 -2.3134,-0.10038 -0.9625,0.40585 -0.6765,0.7068 0.7293,0.76775 1.2721,0.0552 1.985,-0.24495 1.5841,-0.66742 z"
       id="path2947-5" /></g></svg>
