<?xml version="1.0" encoding="UTF-8" standalone="no"?>
<!-- Created with Inkscape (http://www.inkscape.org/) -->

<svg
   width="149.65895mm"
   height="153.03304mm"
   viewBox="0 0 149.65895 153.03303"
   version="1.1"
   id="svg5"
   xml:space="preserve"
   xmlns="http://www.w3.org/2000/svg"
   xmlns:svg="http://www.w3.org/2000/svg"><defs
     id="defs2" /><g
     id="layer2"
     transform="translate(1757.4909,594.96397)"><g
       id="g233"
       transform="translate(-236.92514,317.5)"
       style="fill:#ffffff;fill-opacity:1"><path
         style="fill:#ffffff;fill-opacity:1;stroke:none;stroke-width:22.4367;stroke-dasharray:none;stroke-opacity:1"
         id="path132"
         d="m -1510.2128,-761.03831 c 0.3865,-0.81497 0.6801,-1.67095 0.9864,-2.51833 0.4774,-1.34337 0.9368,-2.69319 1.3899,-4.04498 0.55,-1.63369 1.0892,-3.27093 1.6231,-4.90998 0.5436,-1.71664 1.1046,-3.4278 1.6862,-5.13193 0.6564,-1.86026 1.2752,-3.73335 1.8973,-5.60523 0.6239,-1.93521 1.3033,-3.85185 1.985,-5.76731 0.7297,-2.05057 1.5131,-4.08119 2.2944,-6.11245 0.8277,-2.14326 1.6648,-4.28276 2.5272,-6.41228 0.9035,-2.18615 1.8767,-4.34248 2.8152,-6.5137 0.8961,-2.1 1.8408,-4.17754 2.8363,-6.23205 1.0196,-2.04462 2.0785,-4.06982 3.1789,-6.07211 1.0953,-1.98519 2.2185,-3.95412 3.415,-5.88015 1.2463,-1.97758 2.5616,-3.91076 3.9135,-5.81742 1.3791,-1.96914 2.7962,-3.91025 4.245,-5.82859 1.4747,-1.94685 2.9986,-3.85609 4.5593,-5.73458 1.6443,-1.96731 3.3293,-3.90022 5.0509,-5.80014 1.7895,-1.99223 3.6526,-3.91671 5.5153,-5.8402 1.8993,-1.95993 3.8205,-3.89856 5.7346,-5.84409 1.8297,-1.84518 3.6972,-3.65228 5.5614,-5.46254 1.6893,-1.65388 3.4204,-3.2626 5.1933,-4.82631 1.7205,-1.50596 3.4885,-2.95632 5.2836,-4.37203 1.7827,-1.40031 3.5766,-2.78709 5.4058,-4.12634 1.7313,-1.3037 3.5831,-2.42691 5.4355,-3.54618 1.8883,-1.14512 3.8118,-2.23033 5.7365,-3.3125 1.7996,-1.01032 3.622,-1.97901 5.4609,-2.9155 1.7941,-0.9199 3.607,-1.80168 5.438,-2.64573 1.7798,-0.81478 3.5695,-1.60795 5.3792,-2.35437 1.7096,-0.69492 3.4466,-1.31886 5.1879,-1.92891 1.6623,-0.5891 3.3479,-1.10758 5.0416,-1.59753 1.6227,-0.45797 3.2457,-0.91887 4.8879,-1.30292 1.3804,-0.31157 2.7651,-0.60214 4.1503,-0.89106 0.9649,-0.18082 1.9103,-0.45368 2.8762,-0.62767 0.5106,-0.11028 1.0205,-0.19984 1.5432,-0.18584 0.8442,0.0212 1.6803,-0.11375 2.5121,-0.22069 0.7413,0.013 1.4762,-0.0652 2.2052,-0.19513 -1.0295,0.24323 2.7058,-0.41609 1.0581,-0.12542 -0.2281,0.0338 0.2683,0.005 0.3476,-0.003 -3.3824,-0.4845 -1.1969,0 -4.3339,-7.79663 -0.4,-0.99407 0.8302,-0.31155 0.5269,-0.75549 -0.072,-0.10547 -0.1945,0.16555 -0.2933,0.24654 -0.6182,0.47212 -1.231,0.95149 -1.8427,1.43216 -0.8485,0.69101 -1.7015,1.3766 -2.5618,2.0529 -0.6288,0.49297 -0.3111,0.2435 -0.953,0.74843 -3.044,2.41316 3.7814,11.02317 6.8255,8.61001 v 0 c 0.6338,-0.50635 0.3151,-0.25204 0.9561,-0.76292 0.9115,-0.73062 1.8129,-1.47437 2.6921,-2.24377 0.6758,-0.5959 1.3804,-1.15824 2.0473,-1.76438 0.3523,-0.32205 1.9613,-1.85459 1.8821,-2.11926 -2.4637,-8.23753 -0.6358,-7.72763 -4.2359,-8.2886 -0.6447,-0.0769 -1.2952,-0.10366 -1.9435,-0.0549 -0.2873,0.0364 -0.5751,0.069 -0.862,0.10906 -0.068,0.01 -0.2184,-0.027 -0.2013,0.0393 0.017,0.0668 0.1368,-0.0182 0.2056,-0.0227 0.081,-0.005 0.3259,-0.0101 0.2444,-0.006 -0.8791,0.0416 -0.058,-0.0201 -1.1412,0.0773 -0.1348,0.0164 -0.6186,0.0363 -1.3293,0.0456 -0.6493,0.0467 -1.2951,0.14314 -1.9466,0.14195 -1.1165,0.0265 -2.2248,0.13351 -3.3226,0.34467 -0.9731,0.17439 -1.9451,0.35531 -2.9228,0.50237 -1.5671,0.24201 -3.1341,0.49136 -4.6816,0.84084 -1.8489,0.41953 -3.6807,0.91017 -5.5052,1.42513 -1.8757,0.54464 -3.7429,1.11837 -5.5909,1.75157 -1.9462,0.66532 -3.8853,1.35342 -5.7911,2.1287 -1.9578,0.80055 -3.9061,1.62526 -5.8251,2.51564 -1.9667,0.90519 -3.9172,1.84568 -5.844,2.83323 -1.9627,1.00084 -3.9171,2.01793 -5.8462,3.08232 -2.0444,1.12898 -4.0861,2.26293 -6.0918,3.45972 -2.1487,1.28955 -4.2645,2.63337 -6.2767,4.13004 -1.9357,1.4184 -3.8511,2.86467 -5.7411,4.34348 -1.9591,1.54209 -3.8825,3.12941 -5.7594,4.77088 -1.9,1.67005 -3.7737,3.36913 -5.6053,5.11432 -1.9453,1.85121 -3.8682,3.7256 -5.7726,5.6188 -1.9743,1.96479 -3.9357,3.94229 -5.8695,5.94706 -1.9497,2.02494 -3.8982,4.05244 -5.7731,6.14736 -1.8176,2.03041 -3.5896,4.10125 -5.332,6.19659 -1.6606,2.01832 -3.2889,4.06347 -4.8448,6.16411 -1.5155,2.01575 -3.0267,4.03495 -4.4664,6.1061 -1.4782,2.1032 -2.924,4.23019 -4.266,6.42366 -1.2852,2.09326 -2.517,4.21844 -3.7054,6.36818 -1.2014,2.17996 -2.3583,4.38491 -3.4548,6.61961 -1.048,2.18451 -2.0477,4.39108 -3.0215,6.60969 -1.0057,2.27319 -2.0309,4.53909 -2.9454,6.85117 -0.864,2.18745 -1.7199,4.37796 -2.5672,6.57191 -0.8128,2.12767 -1.5798,4.27212 -2.3493,6.4157 -0.6941,1.98323 -1.3517,3.97835 -2.0042,5.97561 -0.6173,1.85386 -1.2257,3.71065 -1.8336,5.5676 -0.5915,1.76443 -1.1801,3.53002 -1.7343,5.30662 -0.5165,1.64012 -1.0314,3.28078 -1.5283,4.92699 -0.4063,1.3227 -0.8362,2.63776 -1.2554,3.95644 -0.2893,0.94372 -0.5714,1.88976 -0.8339,2.84134 -1.117,3.63037 9.1512,6.78981 10.2682,3.15947 z" /><path
         style="fill:#ffffff;fill-opacity:1;stroke:none;stroke-width:22.4367;stroke-dasharray:none;stroke-opacity:1"
         id="path133"
         d="m -1377.1962,-910.56152 c -0.7565,0.30208 -1.4909,0.65508 -2.212,1.03272 -0.7589,0.39333 -1.5014,0.816 -2.2396,1.24661 -0.8418,0.47975 -1.6632,0.99386 -2.4931,1.49371 -1.0162,0.60026 -2.0057,1.24433 -2.9985,1.88227 -1.0821,0.69675 -2.1489,1.41687 -3.2183,2.13281 -1.1199,0.76885 -2.2395,1.5381 -3.3389,2.33616 -1.104,0.81166 -2.1992,1.63555 -3.2824,2.47476 -1.1613,0.87722 -2.3248,1.75188 -3.4762,2.64194 -1.2438,0.97176 -2.4988,1.92886 -3.7414,2.90221 -1.3212,1.04672 -2.6119,2.13101 -3.8999,3.21797 -1.2467,1.03468 -2.4601,2.10786 -3.676,3.17815 -1.1856,1.0451 -2.3664,2.09624 -3.5318,3.16394 -1.2192,1.13996 -2.4307,2.28849 -3.6189,3.4608 -1.2832,1.25146 -2.546,2.52376 -3.7799,3.82382 -1.3687,1.45203 -2.6513,2.9801 -3.9106,4.5268 -1.2495,1.54165 -2.4427,3.12624 -3.607,4.73274 -1.1196,1.56501 -2.2217,3.14208 -3.2843,4.74636 -1.13,1.68579 -2.1766,3.424 -3.2015,5.1749 -1.0653,1.84066 -2.0998,3.69795 -3.0902,5.58001 -1.0564,1.97978 -2.0205,4.00593 -2.9537,6.04597 -1.0254,2.2234 -1.903,4.50758 -2.7385,6.80749 -0.8456,2.34458 -1.5931,4.72244 -2.3048,7.11047 -0.6907,2.32537 -1.316,4.66915 -1.9033,7.02254 -0.5702,2.31368 -1.075,4.64275 -1.5555,6.97648 -0.4783,2.27674 -0.8542,4.57235 -1.2011,6.87208 -0.3348,2.21284 -0.5334,4.44291 -0.7064,6.67321 -0.1727,2.1136 -0.2136,4.23429 -0.1967,6.35389 0.025,2.01369 0.1984,4.02093 0.4185,6.02142 0.208,2.02964 0.6823,4.01132 1.2506,5.96603 0.6295,2.15191 1.69,4.10922 2.9481,5.95019 1.177,1.60139 2.569,3.02403 4.0144,4.38132 1.4125,1.35307 2.9978,2.4866 4.6744,3.48451 1.5942,0.89574 3.2862,1.59564 4.9976,2.23112 1.5489,0.56208 3.1272,1.03579 4.717,1.46632 1.6323,0.4568 3.288,0.80624 4.9584,1.08778 1.8273,0.25863 3.6678,0.39741 5.511,0.46927 2.0033,0.056 4.0012,-0.1015 5.9868,-0.35126 1.9481,-0.25792 3.8531,-0.73898 5.7405,-1.27368 1.7795,-0.52766 3.522,-1.17337 5.2299,-1.89799 1.6831,-0.71953 3.2984,-1.5784 4.8795,-2.49745 1.591,-0.92874 3.0779,-2.01743 4.53,-3.14706 1.4542,-1.12033 2.7588,-2.41213 4.014,-3.74682 1.2748,-1.35628 2.3501,-2.87652 3.3833,-4.41942 0.969,-1.45719 1.8186,-2.98802 2.6283,-4.53789 0.7743,-1.48759 1.4703,-3.01294 2.0876,-4.57176 0.6138,-1.58835 1.0587,-3.23274 1.412,-4.89628 0.3703,-1.70764 0.4917,-3.43974 0.4263,-5.18165 -0.1174,-1.769 -0.6303,-3.46157 -1.2705,-5.10267 -0.5732,-1.42838 -1.3876,-2.73249 -2.2944,-3.96899 -0.9632,-1.35298 -2.2268,-2.41141 -3.5889,-3.33812 -1.2768,-0.826 -2.6898,-1.37631 -4.1315,-1.83417 -1.244,-0.37364 -2.5222,-0.6015 -3.8089,-0.76218 -1.2454,-0.14158 -2.4976,-0.14171 -3.7472,-0.0748 -1.4047,0.0669 -2.7722,0.38568 -4.1161,0.77941 -1.1119,0.33412 -2.2033,0.73242 -3.2843,1.1548 -1.3402,0.52171 -2.6051,1.20161 -3.8451,1.92437 -1.1698,0.69879 -2.3072,1.44769 -3.4223,2.23028 -1.0328,0.72297 -2.0537,1.4628 -3.0527,2.23173 -0.7019,0.53904 -1.3973,1.0863 -2.0811,1.64804 -2.972,2.51156 4.1318,10.91745 7.1037,8.40589 v 0 c 0.5382,-0.47326 1.0801,-0.94136 1.6626,-1.36043 0.8694,-0.66776 1.7626,-1.30334 2.6642,-1.92681 0.8817,-0.61457 1.7754,-1.21025 2.699,-1.76064 0.7271,-0.43376 1.4549,-0.87561 2.2288,-1.22161 0.8177,-0.3161 1.6439,-0.61076 2.4812,-0.8709 0.5101,-0.16267 1.0242,-0.33584 1.563,-0.36624 0.6106,-0.0356 1.2209,-0.0334 1.8308,0.0228 0.6401,0.0728 1.2741,0.20005 1.8956,0.36872 0.4628,0.13489 0.9117,0.30581 1.3492,0.50856 0.3144,0.17089 0.5529,0.36846 0.7609,0.66198 0.3584,0.50253 0.7217,1.00669 0.9532,1.58375 0.2133,0.51387 0.3748,1.04613 0.4829,1.59202 0.076,0.7801 -0.098,1.56155 -0.2396,2.32445 -0.24,1.07831 -0.5294,2.14545 -0.9166,3.18135 -0.4643,1.19446 -1.0529,2.33605 -1.6293,3.47929 -0.6231,1.18973 -1.2722,2.36731 -2.0096,3.49094 -0.6971,1.03333 -1.3985,2.0706 -2.2366,2.99691 -0.8711,0.91853 -1.7628,1.82354 -2.7711,2.59387 -1.0597,0.8251 -2.1457,1.61856 -3.2998,2.30838 -1.1795,0.68789 -2.3824,1.33588 -3.6394,1.87286 -1.2743,0.54398 -2.5796,1.01981 -3.9091,1.41086 -1.3518,0.38103 -2.7143,0.73552 -4.1076,0.92969 -1.3997,0.17741 -2.8069,0.29221 -4.2192,0.27813 -1.4154,-0.0368 -2.826,-0.14449 -4.2319,-0.31488 -1.2541,-0.15065 -2.4801,-0.45328 -3.6975,-0.78549 -1.2713,-0.3502 -2.5316,-0.73861 -3.7754,-1.17774 -1.1162,-0.414 -2.2229,-0.86201 -3.273,-1.4265 -0.9532,-0.52832 -1.8178,-1.18293 -2.6001,-1.94355 -0.8987,-0.8713 -1.7863,-1.75591 -2.5699,-2.73468 -0.6091,-0.80606 -1.0676,-1.69884 -1.3617,-2.66835 -0.3835,-1.31451 -0.6903,-2.65189 -0.8279,-4.01677 -0.1606,-1.63923 -0.3043,-3.28203 -0.3155,-4.93036 -0.01,-1.78657 0.049,-3.57198 0.2032,-5.35257 0.176,-1.97869 0.3662,-3.95806 0.6697,-5.92193 0.3137,-2.0892 0.6741,-4.17224 1.1176,-6.23808 0.4636,-2.18882 0.9399,-4.37512 1.4759,-6.54759 0.5418,-2.17683 1.1132,-4.34605 1.7699,-6.49153 0.6678,-2.19435 1.3513,-4.38428 2.1239,-6.54447 0.7149,-2.01654 1.4367,-4.03267 2.3305,-5.97886 0.8322,-1.85092 1.6876,-3.69314 2.6431,-5.48426 0.9065,-1.7371 1.8426,-3.45837 2.8162,-5.1589 0.911,-1.57305 1.8263,-3.14571 2.831,-4.66135 0.9668,-1.46899 1.9759,-2.90912 3.0075,-4.33332 1.0443,-1.43505 2.1127,-2.85194 3.2303,-4.23108 1.1004,-1.34734 2.2039,-2.69193 3.385,-3.97034 1.1255,-1.22293 2.2915,-2.40774 3.4708,-3.57873 1.0736,-1.0809 2.1736,-2.13548 3.2805,-3.18212 1.0909,-1.00954 2.2004,-1.99921 3.3223,-2.9741 1.1747,-1.02063 2.349,-2.04113 3.5469,-3.03453 1.1857,-1.00174 2.3745,-2.00007 3.5836,-2.97363 1.2281,-0.9652 2.4652,-1.91889 3.6866,-2.89255 1.1423,-0.89416 2.2891,-1.78245 3.4275,-2.68158 1.0015,-0.77735 2.0111,-1.54377 3.0319,-2.29558 0.9712,-0.7171 1.9636,-1.4038 2.9626,-2.0815 1.0207,-0.68448 2.0329,-1.38158 3.0564,-2.06174 0.9239,-0.60267 1.8411,-1.21592 2.7724,-1.80708 0.7892,-0.49935 1.5773,-1.00055 2.3734,-1.4886 0.57,-0.35867 1.1442,-0.70921 1.7419,-1.0206 0.2035,-0.1147 1.3768,-0.74393 0.9051,-0.54063 3.5403,-1.34868 -0.2744,-11.36216 -3.8147,-10.01347 z" /></g></g></svg>
