<?xml version="1.0" encoding="UTF-8" standalone="no"?>
<!-- Created with Inkscape (http://www.inkscape.org/) -->

<svg
   width="136.02115mm"
   height="163.27171mm"
   viewBox="0 0 136.02115 163.27171"
   version="1.1"
   id="svg5"
   xml:space="preserve"
   xmlns="http://www.w3.org/2000/svg"
   xmlns:svg="http://www.w3.org/2000/svg"><defs
     id="defs2" /><g
     id="layer2"
     transform="translate(2152.6809,601.37846)"><g
       id="g231"
       transform="translate(-339.84402,317.5)"
       style="fill:#ffffff;fill-opacity:1"><path
         style="fill:#ffffff;fill-opacity:1;stroke:none;stroke-width:22.4367;stroke-dasharray:none;stroke-opacity:1"
         id="path122"
         d="m -1683.0508,-905.54626 c -0.3492,0.15848 -0.7074,0.28382 -1.0706,0.40375 -0.7625,0.25252 -1.5133,0.5365 -2.2875,0.75192 -1.0595,0.28744 -2.1144,0.59055 -3.1743,0.87651 -1.1912,0.30578 -2.3893,0.5833 -3.5853,0.86977 -1.2945,0.28548 -2.591,0.56155 -3.8904,0.82364 -1.325,0.27073 -2.6616,0.47895 -3.997,0.69073 -1.3906,0.22005 -2.7862,0.40695 -4.1834,0.57972 -1.2894,0.19328 -2.5931,0.23091 -3.8943,0.26316 -1.1773,-0.0193 -2.3425,-0.22111 -3.5107,-0.35224 -1.2481,-0.1247 -2.4945,-0.24056 -3.7284,-0.46895 -1.2834,-0.2245 -2.5651,-0.454 -3.8407,-0.71919 -1.3005,-0.27927 -2.5792,-0.64783 -3.8643,-0.98872 -1.2645,-0.33269 -2.5189,-0.69876 -3.764,-1.09747 -1.1537,-0.37465 -2.2903,-0.79793 -3.4181,-1.2437 -1.1317,-0.47167 -2.2543,-0.96501 -3.3757,-1.46055 -1.0777,-0.48143 -2.1406,-0.99446 -3.2001,-1.51431 -1.1442,-0.59143 -2.2925,-1.17489 -3.4436,-1.7529 -1.17,-0.59745 -2.3233,-1.22703 -3.4822,-1.84583 -1.535,-0.8562 -3.1485,-1.55218 -4.7592,-2.24984 -1.54,-0.6714 -3.0822,-1.33717 -4.6372,-1.97313 -1.4656,-0.58959 -2.9298,-1.18226 -4.4053,-1.74683 -0.9091,-0.35549 -1.8202,-0.70614 -2.7338,-1.0501 -3.6541,-1.38647 -7.5756,8.94908 -3.9214,10.33552 v 0 c 0.8928,0.34168 1.7826,0.69117 2.6691,1.04926 1.3928,0.54205 2.7724,1.11596 4.1543,1.68502 1.4823,0.6172 2.9513,1.26482 4.4202,1.91292 1.3635,0.59851 2.7493,1.15088 4.0823,1.81533 1.2253,0.63129 2.438,1.28587 3.6632,1.91725 1.2072,0.60716 2.4124,1.21814 3.6254,1.81345 1.1649,0.54965 2.3214,1.11657 3.492,1.65407 1.2458,0.55928 2.4914,1.12072 3.7563,1.63584 1.3679,0.55362 2.7493,1.07278 4.1511,1.53511 1.4171,0.4526 2.8439,0.87122 4.2783,1.26559 1.4753,0.39534 2.9465,0.81216 4.448,1.09892 1.414,0.29905 2.8328,0.57181 4.26,0.80081 1.4157,0.22371 2.8341,0.41426 4.2606,0.55544 1.6817,0.21675 3.3632,0.48305 5.0648,0.4585 1.6878,-0.0324 3.3761,-0.10221 5.0489,-0.34703 1.5087,-0.19638 3.0164,-0.40161 4.5192,-0.63968 1.483,-0.23485 2.9625,-0.49089 4.4348,-0.78658 1.445,-0.28758 2.8893,-0.58275 4.318,-0.94417 1.2924,-0.31755 2.5863,-0.62862 3.8685,-0.98589 1.1691,-0.31996 2.3328,-0.65971 3.4887,-1.02452 1.0383,-0.33475 2.0682,-0.69474 3.0788,-1.10673 0.768,-0.33102 1.5225,-0.68921 2.2499,-1.10299 3.3202,-1.8261 -1.8448,-11.21698 -5.1649,-9.39088 z" /><path
         style="fill:#ffffff;fill-opacity:1;stroke:none;stroke-width:22.4367;stroke-dasharray:none;stroke-opacity:1"
         id="path123"
         d="m -1768.2696,-911.79194 c 0.1296,0.46874 0.2684,0.93485 0.4083,1.40068 0.2358,0.63934 0.3872,1.30048 0.5022,1.97067 0.2067,1.16919 0.4346,2.33439 0.6523,3.50157 0.2738,1.36697 0.5163,2.74014 0.7443,4.11544 0.2467,1.56639 0.5265,3.12698 0.7583,4.69575 0.2466,1.81274 0.4319,3.63307 0.6327,5.45126 0.2384,2.08256 0.4541,4.1675 0.6138,6.25761 0.178,2.50885 0.3577,5.01758 0.5381,7.52628 0.1939,2.79763 0.3856,5.59544 0.5556,8.39459 0.198,3.05552 0.3519,6.11355 0.5051,9.17155 0.1584,3.18288 0.3055,6.36632 0.4515,9.54979 0.1538,3.06247 0.2494,6.12727 0.3408,9.1921 0.091,3.01763 0.1498,6.03583 0.1576,9.05481 0.028,2.97315 -0.041,5.94579 -0.1299,8.91733 -0.096,2.92841 -0.3286,5.85028 -0.5482,8.77147 -0.2046,2.83308 -0.4745,5.66094 -0.7731,8.4855 -0.249,2.63904 -0.6537,5.25746 -1.0773,7.87284 -0.4205,2.58408 -1.0081,5.13487 -1.6249,7.67776 -0.6237,2.53349 -1.2961,5.05481 -1.9898,7.56996 -0.6444,2.25663 -1.3042,4.50906 -2.0137,6.74616 -0.6117,1.89135 -1.2549,3.7718 -1.937,5.63886 -0.4895,1.34606 -1.0376,2.67033 -1.6589,3.96081 -0.2068,0.45905 -0.4587,0.89424 -0.7168,1.32546 -2.0366,3.31739 7.3465,9.07758 9.383,5.76019 v 0 c 0.444,-0.71483 0.8783,-1.43465 1.2513,-2.19012 0.7958,-1.58372 1.5447,-3.19151 2.2013,-4.83857 0.8157,-2.03316 1.5802,-4.08559 2.27,-6.16521 0.7767,-2.35879 1.5134,-4.73017 2.2137,-7.11279 0.7758,-2.65526 1.5206,-5.32025 2.1887,-8.00481 0.671,-2.81583 1.2803,-5.64537 1.7628,-8.50035 0.4738,-2.82927 0.8956,-5.66698 1.2014,-8.51993 0.3142,-2.92716 0.6241,-5.85483 0.8556,-8.78993 0.2586,-3.10026 0.4783,-6.20425 0.5756,-9.31437 0.1078,-3.11809 0.2005,-6.23739 0.1742,-9.35781 -0.028,-3.10197 -0.096,-6.20308 -0.184,-9.30391 -0.078,-3.12897 -0.1591,-6.25798 -0.301,-9.38485 -0.1346,-3.21969 -0.2784,-6.43906 -0.4551,-9.65674 -0.1744,-3.11586 -0.3684,-6.23065 -0.5908,-9.3435 -0.2142,-2.82551 -0.4434,-5.64978 -0.6538,-8.47558 -0.2053,-2.56402 -0.4342,-5.12598 -0.6825,-7.6862 -0.2296,-2.18702 -0.4546,-4.37467 -0.7256,-6.55706 -0.2476,-1.94791 -0.49,-3.8971 -0.8057,-5.83546 -0.2676,-1.6441 -0.5478,-3.28613 -0.8465,-4.92491 -0.2667,-1.41282 -0.5538,-2.82159 -0.8371,-4.23119 -0.2451,-1.26801 -0.5064,-2.53322 -0.8097,-3.78872 -0.2453,-0.99505 -0.5151,-1.98417 -0.878,-2.94389 -0.2041,-0.59965 -0.4257,-1.19248 -0.6563,-1.78242 -1.3081,-3.55055 -11.3506,0.14931 -10.0425,3.69988 z" /><path
         style="fill:#ffffff;fill-opacity:1;stroke:none;stroke-width:22.4367;stroke-dasharray:none;stroke-opacity:1"
         id="path124"
         d="m -1767.2573,-755.73886 c 0.6923,-0.1447 1.3556,-0.40654 2.0185,-0.64892 1.024,-0.36155 2.0301,-0.76994 3.0389,-1.17152 1.2773,-0.4802 2.5269,-1.02839 3.7807,-1.56581 1.3136,-0.56155 2.6281,-1.12088 3.9415,-1.68306 1.3787,-0.585 2.7526,-1.18105 4.1309,-1.76695 1.4923,-0.61171 2.9704,-1.25767 4.4456,-1.90936 1.4298,-0.6286 2.851,-1.2764 4.2736,-1.92101 1.4684,-0.67024 2.9433,-1.32522 4.4022,-2.01615 1.5157,-0.73901 3.0096,-1.52167 4.4946,-2.32032 1.4384,-0.77425 2.8694,-1.5618 4.2766,-2.39156 1.4708,-0.87485 2.9006,-1.81391 4.3066,-2.78887 1.3385,-0.9438 2.643,-1.93437 3.9279,-2.94958 1.1956,-0.97734 2.3768,-1.97247 3.5368,-2.99172 1.122,-0.97801 2.1934,-2.01176 3.2555,-3.05379 1.0187,-1.00225 2.0027,-2.03875 2.97,-3.09034 1.0744,-1.13956 2.0197,-2.38567 2.909,-3.67204 0.9009,-1.32059 1.6574,-2.73019 2.3482,-4.16947 0.7019,-1.48037 1.23,-3.02786 1.6368,-4.61242 0.4001,-1.64299 0.5596,-3.32238 0.5611,-5.00912 -0.074,-1.65426 -0.4747,-3.26435 -0.937,-4.84635 -0.4207,-1.44806 -1.0517,-2.81739 -1.7547,-4.14679 -0.7272,-1.35268 -1.6536,-2.57953 -2.6084,-3.77677 -0.8772,-1.08029 -1.7958,-2.12611 -2.7479,-3.14078 -1.1734,-1.21534 -2.4419,-2.33157 -3.7763,-3.36572 -1.3846,-1.01441 -2.8413,-1.92452 -4.2978,-2.83075 -1.5728,-0.99716 -3.2276,-1.85256 -4.9065,-2.65448 -1.6882,-0.80132 -3.4034,-1.54033 -5.1487,-2.20755 -1.7898,-0.67649 -3.6065,-1.2776 -5.4364,-1.83494 -1.8741,-0.55769 -3.7722,-1.02905 -5.6734,-1.48365 -1.9252,-0.44151 -3.8578,-0.85313 -5.7987,-1.21992 -2.0431,-0.37459 -4.1005,-0.66098 -6.1597,-0.93003 -2.1125,-0.29451 -4.2302,-0.54221 -6.3576,-0.69644 -2.1408,-0.16129 -4.2871,-0.18317 -6.4325,-0.15444 -2.0687,0.027 -4.1344,0.1491 -6.1962,0.31406 -2.0184,0.16124 -4.0294,0.39963 -6.036,0.6681 -1.9594,0.24188 -3.9023,0.59161 -5.8342,0.99494 -1.8843,0.38558 -3.7384,0.89935 -5.5807,1.44807 -1.6972,0.51906 -3.3709,1.10955 -5.034,1.72794 -1.6634,0.62021 -3.2787,1.35773 -4.864,2.15445 -1.7036,0.88045 -3.2619,2.00302 -4.7667,3.18381 -1.3251,1.06833 -2.5691,2.23168 -3.7534,3.45289 -1.2986,1.33128 -2.3331,2.87078 -3.237,4.48754 -0.7676,1.44272 -1.2894,2.99435 -1.7743,4.54943 -0.4966,1.64325 -0.6768,3.34619 -0.7224,5.05434 0,1.63399 0.2616,3.24509 0.6585,4.82523 0.4143,1.61534 1.0969,3.12658 1.9131,4.57393 0.8874,1.53027 2.0665,2.84748 3.3052,4.09737 1.2907,1.28294 2.7647,2.35024 4.2855,3.33973 1.5374,0.98912 3.1582,1.83282 4.8187,2.5932 1.6834,0.75092 3.4189,1.3747 5.1623,1.96946 1.6555,0.56904 3.3347,1.06161 5.0231,1.52207 1.7215,0.4813 3.4627,0.88603 5.2091,1.26531 1.7943,0.37145 3.5991,0.6921 5.4072,0.98888 1.9335,0.33613 3.8877,0.51935 5.8413,0.68829 2.1132,0.17997 4.2348,0.20384 6.3541,0.17476 2.1442,-0.041 4.2786,-0.25324 6.4079,-0.49401 1.9814,-0.22992 3.9449,-0.58298 5.8931,-1.00713 1.9092,-0.40622 3.7511,-1.05199 5.5577,-1.78067 1.6711,-0.67504 3.238,-1.56073 4.753,-2.52969 1.3311,-0.85365 2.5442,-1.86766 3.6879,-2.95537 1.2637,-1.23166 2.1553,-2.73798 2.8475,-4.34549 0.5643,-1.43107 0.7994,-2.93915 0.8647,-4.46659 0.014,-1.64353 -0.5319,-3.17391 -1.1798,-4.65576 -0.6145,-1.47558 -1.6506,-2.67788 -2.7469,-3.81191 -0.9801,-0.97165 -2.1,-1.78318 -3.231,-2.56741 -1.238,-0.87188 -2.5823,-1.57189 -3.9297,-2.25581 -1.492,-0.75343 -3.0644,-1.32514 -4.6334,-1.89296 -1.7227,-0.62288 -3.4956,-1.08297 -5.2869,-1.45674 -1.749,-0.34341 -3.5192,-0.56171 -5.2922,-0.73449 -1.6801,-0.15917 -3.367,-0.20989 -5.0536,-0.22841 -1.6443,-0.014 -3.2852,0.10117 -4.9232,0.23016 -1.4945,0.1207 -2.9838,0.29816 -4.4695,0.49813 -1.3848,0.17248 -2.7606,0.40021 -4.1325,0.65347 -1.3383,0.23606 -2.6617,0.54636 -3.977,0.88577 -3.8204,0.95975 -1.1058,11.76541 2.7146,10.80566 v 0 c 1.0634,-0.25797 2.1293,-0.50876 3.2078,-0.69654 1.192,-0.20066 2.3881,-0.37613 3.5885,-0.51845 1.3132,-0.1519 2.6274,-0.30041 3.9461,-0.39664 1.315,-0.10189 2.6327,-0.18171 3.9522,-0.18282 1.3333,0.006 2.6659,0.0726 3.9935,0.1974 1.3961,0.15216 2.7876,0.34385 4.1709,0.58783 1.2684,0.25251 2.5292,0.55652 3.7569,0.96546 1.1719,0.4154 2.334,0.8613 3.4834,1.33501 0.8791,0.41545 1.7571,0.84172 2.5966,1.33268 0.6036,0.41143 1.1917,0.84635 1.7731,1.28796 0.1501,0.11692 0.2598,0.30528 0.416,0.40553 0.067,0.0428 -0.2505,-0.70813 -0.059,-0.23058 0.063,0.0555 0.073,0.15173 0.1095,0.22762 0.2506,0.55054 0.2688,0.89249 0.2545,-0.0101 0.06,-0.29159 -0.045,0.36859 -0.049,0.39749 -0.074,0.2123 -0.1823,0.41402 -0.3409,0.57504 -0.6187,0.57645 -1.3048,1.07268 -2.0244,1.51612 -0.9504,0.57925 -1.9273,1.11773 -2.9654,1.52561 -1.2119,0.47117 -2.4435,0.89543 -3.7224,1.14652 -1.5887,0.31803 -3.1888,0.57658 -4.8019,0.73467 -1.7998,0.19002 -3.6049,0.34166 -5.4144,0.39634 -1.7133,0.0562 -3.4277,0.0644 -5.1392,-0.0547 -1.6442,-0.13367 -3.2881,-0.28972 -4.9189,-0.54216 -1.662,-0.28311 -3.3234,-0.5688 -4.9774,-0.89644 -1.5023,-0.2935 -2.9999,-0.61563 -4.4759,-1.0233 -1.4669,-0.41902 -2.9291,-0.8537 -4.3692,-1.35842 -1.4284,-0.49575 -2.8561,-0.99817 -4.2501,-1.5852 -1.1519,-0.49062 -2.2842,-1.01989 -3.3323,-1.71209 -0.8598,-0.54269 -1.7212,-1.09374 -2.4721,-1.78478 -0.5564,-0.54451 -1.1273,-1.09119 -1.5649,-1.73865 -0.3515,-0.57328 -0.6563,-1.15036 -0.8004,-1.81605 -0.1858,-0.64244 -0.2873,-1.29873 -0.3011,-1.96906 -0.1258,-0.56488 0.153,-1.22221 0.242,-1.77641 0.2587,-0.82645 0.547,-1.64841 0.9199,-2.43088 0.4202,-0.76579 0.9272,-1.47865 1.5263,-2.11606 0.821,-0.85191 1.7179,-1.62587 2.634,-2.37347 0.928,-0.72213 1.8913,-1.39645 2.9054,-1.99343 1.1903,-0.606 2.4216,-1.12813 3.6712,-1.59919 1.4346,-0.51747 2.878,-1.01195 4.3442,-1.43344 1.539,-0.4445 3.0823,-0.88119 4.6553,-1.19081 1.6556,-0.32916 3.3175,-0.62891 4.9965,-0.81287 1.8452,-0.22128 3.6944,-0.40455 5.5433,-0.59137 1.7883,-0.15614 3.5811,-0.25453 5.3766,-0.26827 1.8201,-0.0177 3.641,0.007 5.4556,0.16489 1.8862,0.13962 3.7691,0.31856 5.6409,0.59494 1.9002,0.2716 3.8025,0.53028 5.6981,0.83212 1.7432,0.28972 3.4707,0.65505 5.1908,1.06032 1.6915,0.39264 3.374,0.82161 5.0448,1.29487 1.5618,0.45064 3.1103,0.94493 4.6275,1.53101 1.4574,0.55517 2.91,1.12019 4.3093,1.81337 1.293,0.61905 2.5871,1.24127 3.8175,1.97972 1.2031,0.75705 2.3898,1.53927 3.5732,2.32662 0.8993,0.61269 1.7157,1.3118 2.4873,2.08166 0.7321,0.70855 1.3972,1.47785 2.0246,2.28055 0.542,0.68553 1.0931,1.36641 1.5537,2.11111 0.3579,0.64193 0.6874,1.30061 0.886,2.01189 0.1828,0.61346 0.3203,1.24132 0.463,1.86216 0.072,0.70578 -0.1439,1.41515 -0.2512,2.1064 -0.2177,0.87189 -0.527,1.71265 -0.904,2.52926 -0.4403,0.92001 -0.9325,1.81473 -1.4906,2.66907 -0.576,0.84769 -1.1767,1.68034 -1.8973,2.41334 -0.8388,0.90247 -1.7048,1.77826 -2.5812,2.64427 -0.9272,0.8948 -1.85,1.79591 -2.8346,2.62829 -1.0249,0.89173 -2.071,1.75901 -3.1285,2.61165 -1.0942,0.86699 -2.2185,1.69447 -3.3679,2.48685 -1.1829,0.8156 -2.3789,1.61216 -3.6092,2.35503 -1.2683,0.7467 -2.5516,1.46632 -3.8574,2.14593 -1.3541,0.71403 -2.7191,1.40679 -4.0909,2.0864 -1.3596,0.66524 -2.7249,1.31923 -4.105,1.94103 -1.4043,0.62381 -2.8117,1.24026 -4.2249,1.84375 -1.4532,0.63881 -2.9058,1.27897 -4.358,1.92 -1.3628,0.60108 -2.7358,1.17859 -4.0946,1.78864 -1.3204,0.57068 -2.6439,1.13403 -3.9595,1.71587 -1.2096,0.52914 -2.4173,1.0635 -3.6162,1.61634 -0.9161,0.40548 -1.8301,0.81574 -2.7544,1.20214 -0.6508,0.27527 -1.2976,0.55869 -1.9357,0.8623 -3.5409,1.39108 0.3936,11.40616 3.9345,10.01509 z" /></g></g></svg>
