<?xml version="1.0" encoding="UTF-8" standalone="no"?>
<!-- Created with Inkscape (http://www.inkscape.org/) -->

<svg
   width="121.78588mm"
   height="160.93324mm"
   viewBox="0 0 121.78588 160.93324"
   version="1.1"
   id="svg5"
   xml:space="preserve"
   xmlns="http://www.w3.org/2000/svg"
   xmlns:svg="http://www.w3.org/2000/svg"><defs
     id="defs2" /><g
     id="layer2"
     transform="translate(-243.33148,598.54777)"><g
       id="g243"
       transform="translate(204.71191,317.5)"
       style="fill:#ffffff;fill-opacity:1"><path
         style="fill:#ffffff;fill-opacity:1;stroke:none;stroke-width:22.4367;stroke-dasharray:none;stroke-opacity:1"
         id="path180"
         d="m 42.747522,-911.88277 c 0.181451,0.90572 0.474107,1.78554 0.767207,2.66023 0.406149,1.15612 0.843738,2.30058 1.275818,3.44715 0.480629,1.30725 0.936644,2.62281 1.353929,3.9516 0.522015,1.66455 0.899128,3.36773 1.259255,5.07289 0.473602,2.21276 0.883383,4.43817 1.290047,6.66395 0.450729,2.47909 0.804424,4.97406 1.134277,7.47162 0.353304,2.80083 0.694103,5.60345 0.914818,8.41814 0.254312,3.08444 0.401908,6.17501 0.476647,9.26854 0.06296,3.33545 0.039,6.67221 0.0095,10.00795 -0.02989,3.24776 -0.13263,6.49353 -0.277315,9.73796 -0.147936,3.25038 -0.373594,6.49613 -0.620316,9.74026 -0.264813,3.26216 -0.566777,6.52116 -0.872151,9.77975 -0.303609,3.19995 -0.652912,6.39511 -1.034373,9.58664 -0.400322,3.27502 -0.830635,6.54616 -1.269076,9.81626 -0.425741,3.25826 -0.869506,6.51396 -1.31699,9.76926 -0.443291,3.09142 -0.894451,6.18188 -1.357395,9.27044 -0.409146,2.82194 -0.972177,5.61891 -1.535477,8.4133 -0.523018,2.66153 -1.136185,5.30389 -1.728465,7.95049 -0.578048,2.57467 -1.169948,5.14639 -1.763199,7.71766 -0.271333,1.16282 -0.532559,2.32752 -0.780203,3.49557 -0.920142,3.89636 10.100484,6.49891 11.020626,2.60255 v 0 c 0.301984,-1.15192 0.602448,-2.30423 0.886354,-3.46075 0.633219,-2.60295 1.243655,-5.2111 1.83017,-7.825 0.619242,-2.7128 1.244198,-5.42449 1.825326,-8.14578 0.62973,-2.97445 1.233631,-5.95566 1.690481,-8.96242 0.509572,-3.1469 1.005089,-6.29621 1.466308,-9.4506 0.458779,-3.26712 0.884833,-6.53864 1.343419,-9.80582 0.456766,-3.3382 0.881182,-6.68073 1.268092,-10.02779 0.376643,-3.27599 0.753319,-6.55204 1.066718,-9.83483 0.324446,-3.33415 0.64411,-6.66909 0.905846,-10.00887 0.253215,-3.37193 0.493168,-6.74534 0.635408,-10.12415 0.13653,-3.36722 0.257699,-6.73502 0.324744,-10.10449 0.04603,-3.48776 0.06321,-6.97672 -0.05086,-10.46353 -0.104561,-3.32975 -0.277091,-6.65707 -0.601909,-9.97352 -0.297127,-2.99966 -0.639429,-5.99485 -1.074592,-8.97797 -0.391599,-2.66412 -0.81512,-5.32371 -1.33051,-7.96706 -0.453551,-2.38342 -0.893366,-4.77083 -1.467437,-7.12909 -0.499894,-1.99699 -1.032455,-3.9864 -1.695072,-5.93672 -0.506129,-1.53188 -1.060029,-3.04652 -1.650328,-4.54805 -0.435245,-1.08191 -0.889183,-2.15665 -1.354741,-3.2257 -0.164959,-0.38409 -0.322649,-0.76949 -0.487532,-1.14768 -0.805256,-3.70419 -11.28228,-1.42658 -10.477021,2.27761 z" /><path
         style="fill:#ffffff;fill-opacity:1;stroke:none;stroke-width:22.4367;stroke-dasharray:none;stroke-opacity:1"
         id="path181"
         d="m 72.730465,-775.56425 c 0.594566,-0.67604 1.174329,-1.36467 1.765422,-2.0438 1.052883,-1.23566 2.06951,-2.50108 3.075424,-3.77502 1.248439,-1.60094 2.495243,-3.20316 3.737983,-4.80852 1.412544,-1.83051 2.820402,-3.66463 4.24516,-5.48571 1.551085,-1.95752 3.077477,-3.93432 4.630502,-5.89028 1.675357,-2.10267 3.367918,-4.1914 5.040058,-6.29666 1.667325,-2.11495 3.358084,-4.21124 5.034896,-6.31862 1.80873,-2.26034 3.60522,-4.53041 5.40776,-6.79567 2.0959,-2.63242 4.12148,-5.31876 6.08761,-8.04913 2.06559,-2.86464 4.06092,-5.77868 6.02444,-8.71389 2.10065,-3.14343 4.10901,-6.34698 6.12674,-9.54384 2.03452,-3.27369 4.03263,-6.56976 6.03534,-9.86295 1.8976,-3.11536 3.7521,-6.25663 5.62734,-9.38546 1.736,-2.87462 3.43734,-5.76985 5.14429,-8.66174 1.66572,-2.81848 3.30095,-5.6547 4.89624,-8.51361 1.50417,-2.71973 2.99199,-5.44808 4.44221,-8.19702 1.38302,-2.67119 2.70469,-5.37359 3.99983,-8.08826 1.08584,-2.31058 2.1464,-4.63291 3.21976,-6.94929 0.76253,-1.64107 1.52176,-3.28377 2.30682,-4.91423 0.40239,-0.81656 0.20266,-0.41683 0.59873,-1.19944 1.83394,-3.44927 -7.92203,-8.63642 -9.75597,-5.18718 v 0 c -0.50051,0.90403 -0.25014,0.44614 -0.75082,1.37377 -0.86896,1.6442 -1.7206,3.29753 -2.57359,4.95003 -1.17688,2.29227 -2.32706,4.59867 -3.44018,6.92262 -1.24931,2.57177 -2.49922,5.14344 -3.82681,7.67611 -1.41647,2.66137 -2.8882,5.29236 -4.36845,7.91866 -1.56306,2.76972 -3.14823,5.52686 -4.77552,8.25937 -1.70213,2.85517 -3.40627,5.7091 -5.16084,8.53252 -1.89265,3.0983 -3.78609,6.19612 -5.68173,9.29259 -1.99927,3.25652 -3.9987,6.51291 -5.99229,9.77289 -1.91551,3.12036 -3.88453,6.20694 -5.84609,9.29846 -1.87632,2.83393 -3.7868,5.64465 -5.77512,8.40164 -1.86026,2.61575 -3.747443,5.21279 -5.705076,7.75681 -1.723822,2.27002 -3.49766,4.50122 -5.235083,6.76082 -1.680943,2.10793 -3.373869,4.20624 -5.050324,6.31775 -1.685518,2.11664 -3.380166,4.22613 -5.039043,6.36383 -1.555636,1.98906 -3.079879,4.00217 -4.628628,5.99655 -1.435227,1.86356 -2.876601,3.72242 -4.260424,5.62491 -1.202556,1.61496 -2.415821,3.22193 -3.609647,4.84338 -0.910376,1.226 -1.832753,2.44295 -2.742661,3.66927 -0.542467,0.71808 -1.086059,1.43534 -1.57758,2.18937 -2.389659,2.95193 5.959662,9.7109 8.349321,6.75897 z" /><path
         style="fill:#ffffff;fill-opacity:1;stroke:none;stroke-width:22.4367;stroke-dasharray:none;stroke-opacity:1"
         id="path183"
         d="m 69.849004,-900.18694 c 0.3482,0.32853 0.693381,0.66296 1.04729,0.9874 0.621488,0.53858 1.202044,1.12016 1.784268,1.70002 0.899819,0.86747 1.842542,1.68863 2.762647,2.53426 0.987374,0.89964 1.935895,1.83785 2.853298,2.80824 1.241801,1.29466 2.449428,2.62167 3.623456,3.97798 1.355381,1.51331 2.626656,3.09266 3.854248,4.7103 1.401252,1.84946 2.743507,3.74219 4.067281,5.6475 1.422652,2.0732 2.772926,4.19484 4.141288,6.30397 1.427017,2.27078 2.84004,4.55019 4.233851,6.84149 1.433325,2.37675 2.828689,4.7757 4.185489,7.19687 1.4526,2.60319 2.88543,5.21759 4.30164,7.84075 1.45352,2.69195 2.8612,5.40787 4.25095,8.13313 1.40785,2.76772 2.76682,5.56022 4.10497,8.36221 1.32853,2.78995 2.61593,5.59898 3.91278,8.40369 1.27036,2.78199 2.53425,5.56676 3.77687,8.36123 1.24107,2.76797 2.47612,5.53858 3.70395,8.31247 1.20733,2.73005 2.39553,5.46822 3.57122,8.21201 1.21015,2.77844 2.39139,5.56932 3.596,8.35014 1.20283,2.74928 2.40466,5.49902 3.59644,8.25309 1.19241,2.76683 2.40556,5.52453 3.65311,8.26691 0.78467,1.72315 0.39154,0.86733 1.17922,2.56754 1.66999,3.70523 12.14996,-1.01822 10.47997,-4.72347 v 0 c -0.73887,-1.68701 -0.36496,-0.83476 -1.12181,-2.55667 -1.19361,-2.7173 -2.37741,-5.43891 -3.57655,-8.1538 -1.19545,-2.75481 -2.38062,-5.5141 -3.58289,-8.26595 -1.20286,-2.76611 -2.38689,-5.5404 -3.58129,-8.31017 -1.195,-2.77399 -2.41203,-5.53839 -3.62441,-8.30484 -1.22475,-2.79305 -2.44878,-5.58639 -3.69173,-8.37142 -1.26369,-2.82998 -2.55918,-5.64576 -3.83001,-8.47259 -1.30318,-2.86692 -2.63167,-5.72238 -3.97289,-8.57168 -1.3849,-2.90581 -2.77599,-5.80962 -4.25559,-8.6687 -1.44763,-2.79803 -2.89638,-5.5957 -4.40434,-8.36187 -1.46564,-2.67589 -2.92246,-5.35704 -4.44374,-8.00187 -1.43938,-2.50582 -2.90848,-4.99425 -4.40687,-7.46527 -1.4593,-2.40337 -2.9314,-4.79947 -4.47178,-7.15204 -1.44185,-2.17879 -2.86291,-4.37179 -4.359246,-6.51396 -1.434441,-2.07531 -2.910401,-4.12289 -4.471572,-6.10528 -1.412886,-1.7884 -2.873476,-3.53767 -4.393481,-5.23643 -1.351205,-1.49034 -2.71458,-2.97058 -4.16529,-4.36559 -1.083191,-1.04246 -2.210514,-2.03806 -3.306014,-3.06772 -0.89735,-0.81716 -1.808517,-1.61819 -2.727214,-2.41122 -0.686691,-0.60413 -1.375103,-1.20716 -2.078111,-1.79216 -0.480954,-0.41161 -0.966182,-0.81695 -1.465196,-1.20645 -2.937307,-2.38656 -9.687518,5.92138 -6.750212,8.30795 z" /><path
         style="fill:#ffffff;fill-opacity:1;stroke:none;stroke-width:22.4367;stroke-dasharray:none;stroke-opacity:1"
         id="path184"
         d="m 125.78001,-855.50853 c 0.38203,0.86088 0.90943,1.64867 1.42636,2.43282 0.71341,1.00819 1.48728,1.97212 2.26238,2.93317 0.87889,1.05921 1.81452,2.0701 2.78582,3.04469 0.96632,0.96422 1.98481,1.87325 3.00719,2.77704 0.88972,0.80764 1.80406,1.58777 2.69725,2.39136 0.59894,0.55594 1.23506,1.06804 1.87961,1.56938 2.98686,2.43805 9.8827,-6.01007 6.89585,-8.4481 v 0 c -0.48429,-0.42772 -0.96244,-0.86235 -1.44551,-1.29145 -0.90854,-0.81339 -1.82421,-1.61878 -2.72415,-2.44179 -0.87217,-0.77925 -1.74077,-1.56274 -2.58211,-2.3754 -0.71328,-0.68787 -1.39743,-1.40669 -2.03529,-2.16538 -0.60972,-0.73025 -1.18544,-1.48788 -1.79017,-2.22208 -0.33713,-0.44987 -0.69177,-0.89019 -0.98635,-1.36924 -1.8261,-3.32018 -11.21698,1.8448 -9.39088,5.16498 z" /><path
         style="fill:#ffffff;fill-opacity:1;stroke:none;stroke-width:22.4367;stroke-dasharray:none;stroke-opacity:1"
         id="path185"
         d="m 132.29058,-821.08812 c 0.33201,-0.3307 0.69408,-0.71067 1.05041,-1.07817 0.54685,-0.53002 1.11225,-1.0431 1.67025,-1.56268 0.75058,-0.71269 1.51141,-1.41444 2.25979,-2.12945 0.81064,-0.78039 1.62583,-1.55599 2.44052,-2.33222 0.9382,-0.89392 1.859,-1.80557 2.75547,-2.74132 0.98769,-1.04148 1.88526,-2.16192 2.74736,-3.30798 0.7408,-1.01196 1.4232,-2.0641 2.14279,-3.09097 0.60964,-0.8749 1.29974,-1.68905 1.97335,-2.51442 0.33385,-0.41314 0.68631,-0.81052 1.03815,-1.20827 2.56897,-2.9097 -5.66093,-10.17585 -8.2299,-7.26615 v 0 c -0.44285,0.50239 -0.88787,1.00312 -1.31225,1.52138 -0.84619,1.03302 -1.68408,2.07362 -2.45541,3.16458 -0.64923,0.9248 -1.2657,1.87172 -1.92878,2.78664 -0.61584,0.81609 -1.25861,1.6119 -1.95793,2.35866 -0.76861,0.82523 -1.57822,1.60975 -2.38652,2.39583 -0.81074,0.78996 -1.61915,1.58226 -2.42668,2.37548 -0.71063,0.69919 -1.44082,1.37811 -2.15467,2.07402 -0.70102,0.67418 -1.39935,1.35262 -2.05561,2.07094 -0.48274,0.52771 -0.96608,1.05688 -1.40652,1.6206 -2.42661,2.91195 5.80958,9.77543 8.23618,6.8635 z" /><path
         style="fill:#ffffff;fill-opacity:1;stroke:none;stroke-width:22.4367;stroke-dasharray:none;stroke-opacity:1"
         id="path188"
         d="m 107.47592,-797.14261 c 1.20405,-0.3788 2.18159,-1.20735 3.16473,-1.96734 0.86805,-0.62872 1.68191,-1.33789 2.47451,-2.0593 0.47577,-0.35298 0.49135,-0.56954 1.01082,-0.77396 0.71663,-0.44312 1.42814,-0.89921 2.11288,-1.39121 -0.0322,0.028 -0.13333,0.10576 -0.0967,0.0839 0.57232,-0.3411 1.06436,-0.7457 1.56347,-1.18065 3.03266,-2.48756 -4.00327,-11.06521 -7.03593,-8.57766 v 0 c 0.21971,-0.36851 -1.25461,1.13864 -0.97801,0.669 -0.33411,0.26684 -0.76125,0.33372 -1.12621,0.58526 -0.92969,0.55748 -1.83752,1.15401 -2.69211,1.8224 -0.7958,0.51543 -1.61158,1.00285 -2.36962,1.57313 -0.47249,0.36362 -0.99318,0.69334 -1.44401,1.08138 -0.0755,0.065 -0.11806,0.16129 -0.18743,0.23281 -0.13437,0.13851 -0.30203,0.24505 -0.42243,0.39584 -0.0645,0.0808 -0.0809,0.19018 -0.1214,0.28527 -3.260159,2.17345 2.88725,11.39458 6.14741,9.22113 z" /><path
         style="fill:#ffffff;fill-opacity:1;stroke:none;stroke-width:22.4367;stroke-dasharray:none;stroke-opacity:1"
         id="path189"
         d="m 109.58508,-792.21901 c 1.36404,-0.19973 2.50567,-0.94355 3.62456,-1.69447 0.72063,-0.59608 1.46629,-1.15845 2.20311,-1.7332 0.75494,-0.57992 0.83164,-0.71295 1.54892,-1.24926 0.51317,-0.36298 1.03525,-0.72475 1.50014,-1.15668 0.57437,-0.63513 0.49044,-0.37975 1.31029,-1.28556 0.15646,-0.17287 0.29371,-0.3634 0.45926,-0.52757 0.0676,-0.0671 -0.10904,0.15621 -0.16356,0.23431 0.074,-0.0839 0.14308,-0.17235 0.22204,-0.25157 0.0687,-0.0689 0.1534,-0.12107 0.22009,-0.19198 0.45404,-0.48278 0.78444,-1.03192 1.13288,-1.58697 2.1942,-3.22117 -6.91669,-9.42731 -9.1109,-6.20614 v 0 c -0.0411,-0.16026 0.006,-0.004 -0.27681,0.29599 -0.0394,0.0419 0.0665,-0.094 0.10149,-0.13965 0.0833,-0.10856 -0.36879,0.48294 -0.36967,0.43698 -0.187,0.21818 -0.38502,0.42739 -0.56102,0.65453 -0.1223,0.15785 0.62475,-0.49744 0.47285,-0.36782 -0.70826,0.60433 -0.74957,0.65651 -0.42337,0.32647 -0.5303,0.34443 0.20023,-0.12698 0.11838,-0.0927 -0.60974,0.25508 -1.08587,0.77197 -1.64248,1.11125 -0.17794,0.19383 0.0345,-0.0193 -0.29042,0.20799 -0.51059,0.357 -1.00095,0.7434 -1.45713,1.16787 0.0296,0.0537 -0.66732,0.53366 -0.77976,0.59208 -0.0155,0.008 -0.0339,-0.008 -0.0508,-0.0124 -0.12496,0.0674 -0.24991,0.1348 -0.37486,0.20219 0.0405,-0.0327 0.17185,-0.11157 0.12155,-0.0981 -0.14473,0.0388 -0.27765,0.11303 -0.41348,0.17629 -0.48861,0.22757 -0.95323,0.42262 -1.23643,0.90045 -3.63727,1.45492 0.47784,11.74269 4.11511,10.28777 z" /></g></g></svg>
