<?xml version="1.0" encoding="UTF-8" standalone="no"?>
<!-- Created with Inkscape (http://www.inkscape.org/) -->

<svg
   width="116.3424mm"
   height="154.47868mm"
   viewBox="0 0 116.3424 154.47868"
   version="1.1"
   id="svg5"
   xml:space="preserve"
   xmlns="http://www.w3.org/2000/svg"
   xmlns:svg="http://www.w3.org/2000/svg"><defs
     id="defs2" /><g
     id="layer1"
     transform="translate(-42.196179,915.56003)"><path
       style="fill:#ffffff;fill-opacity:1;stroke:none;stroke-width:0.321114;stroke-opacity:1"
       d="m 45.389788,-764.35092 c -0.019,-1.83426 -0.17869,-3.48793 -0.35484,-3.67484 -0.19578,-0.20774 -0.19789,-0.97868 -0.005,-1.98357 0.17316,-0.90405 0.30722,-2.58515 0.29792,-3.73576 -0.008,-1.15064 0.14707,-3.7059 0.34751,-5.67839 0.73982,-7.28059 1.03988,-9.91493 1.37871,-12.10394 0.1908,-1.23281 0.58226,-5.33468 0.8699,-9.11529 0.28762,-3.78061 0.7491,-9.29462 1.02549,-12.25337 1.17656,-12.59562 1.12283,-11.55667 1.16673,-22.56412 0.018,-4.52027 -0.12793,-9.83256 -0.32434,-11.80505 -0.37963,-3.81249 -0.9123,-13.84007 -1.20652,-22.71353 -0.098,-2.95874 -0.31062,-6.05198 -0.47225,-6.87384 -1.01429,-5.15731 -1.85592,-8.70521 -2.12329,-8.95093 -0.16992,-0.15616 -0.31275,-0.8286 -0.31739,-1.49431 -0.005,-0.66572 -0.14798,-1.74834 -0.31851,-2.40584 -0.17055,-0.6575 -0.39378,-2.83615 -0.49606,-4.84146 -0.10877,-2.13148 -0.47804,-4.6625 -0.88906,-6.09303 -0.38673,-1.34585 -0.71446,-2.73112 -0.72833,-3.07839 -0.0138,-0.34726 -0.29369,-1.0278 -0.62186,-1.51232 -0.56794,-0.83855 -0.56672,-0.90685 0.0251,-1.41959 0.34203,-0.29626 0.62187,-0.89363 0.62187,-1.32748 0,-0.43384 0.43972,-1.40888 0.97714,-2.16675 0.53743,-0.75786 1.26215,-2.1644 1.61047,-3.12562 0.89777,-2.47753 2.57104,-2.96651 4.68054,-1.36783 0.46196,0.3501 1.08853,0.79085 1.39236,0.97944 1.15905,0.71947 1.78772,2.36164 1.84486,4.81909 0.0306,1.3187 0.22982,2.66662 0.44258,2.99537 0.70192,1.08456 1.43481,5.42689 1.39512,8.26592 -0.0216,1.5356 0.14838,3.73341 0.37748,4.88402 2.40697,12.089 2.70157,14.27686 2.57574,19.1272 -0.0682,2.62998 0.0206,6.53014 0.19747,8.667 0.17685,2.13687 0.21505,4.42306 0.085,5.08041 -0.13373,0.67534 0.032,3.14518 0.38071,5.67839 0.33955,2.46574 0.61082,6.16428 0.60284,8.21896 -0.0445,11.39551 -0.70212,26.36105 -1.38598,31.52999 -0.1957,1.47936 -0.4158,4.16912 -0.48911,5.97724 -0.32488,8.01338 -0.88647,15.12671 -1.35709,17.18956 -0.28063,1.23007 -0.68546,3.64862 -0.89959,5.37455 -0.21413,1.72593 -0.59987,4.01223 -0.85718,5.08066 -0.25731,1.06844 -0.72174,3.28748 -1.03205,4.93124 -0.31033,1.64373 -0.70868,3.45932 -0.88525,4.03463 -0.17657,0.57531 -0.62411,2.05468 -0.99456,3.2875 -0.37044,1.23279 -1.14339,3.3846 -1.71769,4.78179 -1.04416,2.54032 -1.04416,2.54032 -2.91439,2.62881 -1.87023,0.0885 -1.87023,0.0885 -1.90479,-3.24652 z m 102.642122,-13.8024 c -0.46542,-0.53423 -1.00725,-1.44202 -1.20405,-2.01732 -1.0523,-3.07634 -5.03103,-11.69388 -6.69224,-14.49483 -2.6856,-4.52813 -3.40603,-5.67919 -3.73181,-5.96231 -0.1797,-0.15615 -0.32673,-0.6013 -0.32673,-0.98922 0,-0.38794 -0.55616,-1.33606 -1.23591,-2.10699 -0.67976,-0.77091 -2.07786,-2.88103 -3.10683,-4.68915 -1.029,-1.80812 -2.09836,-3.62371 -2.37638,-4.03464 -0.27803,-0.41094 -0.72762,-1.21787 -0.99909,-1.79317 -1.40544,-2.9784 -2.92011,-5.68643 -3.92446,-7.01646 -0.61779,-0.81812 -1.12384,-1.69228 -1.12455,-1.9426 -6.9e-4,-0.25032 -0.2876,-0.86179 -0.63755,-1.35886 -0.34995,-0.49707 -0.83058,-1.41377 -1.06807,-2.03711 -0.23752,-0.62333 -0.94463,-1.53755 -1.57136,-2.03157 -0.65831,-0.5189 -1.22949,-1.31355 -1.35255,-1.88177 -0.11713,-0.54097 -0.50181,-1.20996 -0.85477,-1.48665 -0.35295,-0.27668 -0.73668,-1.01737 -0.85272,-1.64597 -0.24757,-1.3411 -0.96328,-1.98801 -1.76787,-1.59799 -0.63586,0.30823 -4.31473,4.51584 -4.31473,4.93486 0,0.45739 -1.34344,1.79721 -2.15235,2.14654 -0.43125,0.18623 -0.92626,0.83326 -1.16095,1.51744 -0.49522,1.44362 -3.2053,5.53281 -3.79728,5.72956 -0.23333,0.0776 -0.84886,0.868 -1.36787,1.75655 -0.51899,0.88853 -1.23023,1.69431 -1.58048,1.79059 -0.35026,0.0964 -0.63685,0.34162 -0.63685,0.54519 0,0.20354 -0.388162,0.82581 -0.862562,1.38279 -0.47443,0.55699 -0.86257,1.20225 -0.86257,1.43391 0,0.23165 -0.78428,1.23419 -1.74281,2.22787 -0.95856,0.99368 -1.95295,2.15653 -2.20977,2.58409 -0.25681,0.42757 -1.1014,1.18086 -1.87683,1.67399 -0.89366,0.56831 -1.53127,1.26515 -1.74148,1.90323 -0.18237,0.55367 -0.5571,1.2261 -0.83268,1.49432 -1.16309,1.13196 -3.65721,4.62591 -4.03527,5.65291 -0.22492,0.61097 -0.83778,1.51431 -1.36194,2.00745 -0.52414,0.49312 -1.22659,1.40913 -1.56101,2.03559 -0.33441,0.62645 -0.9957,1.36614 -1.46952,1.64374 -2.25338,1.32023 -7.81046,7.14 -10.37943,10.87007 -1.2417,1.80295 -3.16905,2.27986 -3.73209,0.92349 -0.121,-0.29138 -0.50561,-0.77036 -0.85474,-1.06444 -0.75127,-0.63271 -0.78959,-0.92935 -0.18879,-1.46131 0.98289,-0.87029 3.64703,-4.36027 4.29395,-5.62501 0.37834,-0.73969 1.17451,-1.8677 1.76924,-2.50672 0.59474,-0.63901 1.08134,-1.26608 1.08134,-1.3935 0,-0.12744 0.54342,-0.94643 1.20758,-1.81998 0.66418,-0.87357 1.20761,-1.69192 1.20761,-1.81858 0,-0.12664 0.52994,-0.86939 1.17766,-1.65056 0.64773,-0.78115 1.83014,-2.49618 2.62758,-3.81118 0.79743,-1.31498 2.02395,-3.06335 2.72559,-3.88521 2.03112,-2.37918 3.81992,-4.76132 3.81992,-5.08698 0,-0.29329 2.43622,-3.59014 4.41224,-5.97092 0.5457,-0.6575 1.85882,-2.67482 2.91801,-4.48294 1.05923,-1.80812 2.54606,-4.34161 3.30413,-5.62996 0.75804,-1.28839 1.68597,-2.63325 2.06204,-2.98864 0.37607,-0.35537 1.149082,-1.40994 1.717822,-2.34347 0.56871,-0.93353 1.76776,-2.52328 2.66451,-3.53276 0.89677,-1.00948 2.09669,-2.59922 2.66651,-3.53276 0.56981,-0.93353 1.63913,-2.48596 2.37626,-3.44985 0.73712,-0.96389 1.34022,-1.85705 1.34022,-1.98483 0,-0.26111 -2.6252,-5.03326 -4.0271,-7.32056 -0.97901,-1.5973 -2.8425,-4.08702 -3.24351,-4.33351 -0.13375,-0.0822 -0.4021,-0.65042 -0.59642,-1.26275 -0.36626,-1.15431 -2.482402,-4.41691 -3.542442,-5.46164 -0.33357,-0.32876 -0.99076,-1.22827 -1.46042,-1.99894 -0.46965,-0.77067 -1.18182,-1.80009 -1.58257,-2.28761 -0.40077,-0.48751 -0.72868,-0.96197 -0.72868,-1.05436 0,-0.0924 -1.16446,-1.77344 -2.58768,-3.73567 -1.42324,-1.96224 -2.58769,-3.69425 -2.58769,-3.84891 0,-0.15468 -0.59219,-1.07538 -1.31602,-2.04601 -1.3735,-1.84192 -3.1693,-5.02519 -3.1693,-5.61803 0,-0.18925 -0.43833,-0.81182 -0.97406,-1.38349 -0.93712,-1 -1.87708,-2.39115 -4.43799,-6.56834 -0.65502,-1.06843 -1.80294,-2.81678 -2.55091,-3.88521 -0.74798,-1.06844 -1.54887,-2.27883 -1.77973,-2.68976 -0.47781,-0.85049 -2.24014,-3.10635 -3.95753,-5.06585 -0.64917,-0.74069 -1.1209,-1.60152 -1.06455,-1.94261 0.15523,-0.93973 3.0091,-0.77838 4.57907,0.25888 0.64295,0.42478 1.31527,0.77234 1.49409,0.77234 0.1788,0 2.01349,0.67038 4.07706,1.48974 2.0636,0.81937 4.01259,1.49181 4.33112,1.49431 0.31854,0.002 0.78433,0.18133 1.03508,0.39737 0.25076,0.21605 1.33595,0.87976 2.41154,1.47493 1.53152,0.84745 2.25661,1.52853 3.34363,3.14077 0.76341,1.13225 1.57445,2.45224 1.80229,2.93329 1.12828,2.38221 1.86631,3.67346 2.89833,5.0709 0.62127,0.8413 1.2434,1.85516 1.38248,2.25303 0.32401,0.92701 1.99334,3.2625 2.33242,3.2632 0.142322,3e-4 0.258772,0.20705 0.258772,0.45943 0,0.25239 0.68207,1.69813 1.51571,3.21278 0.83365,1.51463 1.86706,3.49355 2.29647,4.39762 1.05172,2.21416 4.65288,8.59852 5.47873,9.71303 0.36542,0.49311 0.67574,1.08029 0.6896,1.30483 0.0137,0.22454 0.55725,1.03607 1.20756,1.80341 0.65027,0.76735 1.29217,1.79402 1.42643,2.28151 0.13427,0.48749 0.41905,1.08808 0.63287,1.33464 0.83806,0.96639 1.5363,2.2918 1.76567,3.35155 0.39521,1.82603 0.96088,1.94094 2.31791,0.47084 0.65093,-0.70513 1.69632,-2.08898 2.32313,-3.07524 0.62682,-0.98624 1.58472,-2.28323 2.12862,-2.88219 0.54393,-0.59896 0.98896,-1.22269 0.98896,-1.38606 0,-0.16337 0.51298,-0.95094 1.13993,-1.75017 0.62694,-0.79921 1.89683,-2.6299 2.82194,-4.06817 0.92511,-1.43828 1.80163,-2.61505 1.9478,-2.61505 0.58856,0 2.37914,-2.01188 3.43833,-3.86324 0.61817,-1.08052 1.63617,-2.46552 2.2622,-3.07778 0.62602,-0.61225 1.24443,-1.48642 1.3742,-1.9426 0.12975,-0.45617 0.5812,-1.23286 1.0031,-1.726 0.42192,-0.49312 1.03719,-1.3673 1.36728,-1.9426 0.33007,-0.57531 1.3576,-2.01648 2.2834,-3.20261 0.92578,-1.18611 1.68325,-2.24004 1.68325,-2.34204 0,-0.10197 0.4513,-0.74539 1.00285,-1.42975 2.2634,-2.80839 4.82826,-6.8114 4.85176,-7.57221 0.005,-0.19285 0.38368,-0.73448 0.83939,-1.20361 0.45573,-0.46911 1.01409,-1.44974 1.24088,-2.17915 0.22672,-0.72942 0.69897,-1.64195 1.0494,-2.02784 0.35044,-0.3859 0.81466,-1.19756 1.03157,-1.80369 0.41378,-1.15614 1.20975,-2.88192 1.67993,-3.6424 0.45903,-0.74237 1.92843,-0.70078 2.98226,0.0843 1.37821,1.02687 1.94351,3.13398 1.32126,4.92489 -0.26024,0.749 -0.47544,2.38273 -0.47824,3.63051 -0.005,2.19358 -0.18263,2.71574 -1.44599,4.24853 -0.35905,0.4356 -0.63593,1.44851 -0.71009,2.59761 -0.10223,1.58501 -0.26265,1.98737 -1.0116,2.53828 -0.94321,0.69382 -1.45802,1.88642 -0.93516,2.16633 0.50649,0.27114 0.36116,0.87086 -0.37742,1.55756 -0.3795,0.35288 -0.69003,0.8459 -0.69003,1.09564 0,0.4141 -0.75343,1.73017 -2.69195,4.70223 -0.39341,0.60316 -0.76379,1.34284 -0.82304,1.64374 -0.0594,0.30091 -0.18643,0.61433 -0.28257,0.69652 -0.0962,0.0822 -0.87243,1.34327 -1.72511,2.80241 -0.8527,1.45912 -2.00798,3.07298 -2.56727,3.58634 -0.5593,0.51337 -1.0251,1.06788 -1.03508,1.23225 -0.018,0.29699 -0.37192,0.75761 -2.51959,3.27969 -0.61673,0.72424 -1.12134,1.44123 -1.12134,1.5933 0,0.41269 -1.37811,1.85141 -1.77341,1.85141 -0.18881,0 -0.24469,-0.26898 -0.12429,-0.59773 0.31307,-0.85436 -0.26864,-0.73567 -0.74383,0.15176 -0.32367,0.60448 -0.30743,0.74482 0.0863,0.74482 0.77764,0 0.5781,0.57786 -0.96177,2.78547 -1.44687,2.07423 -1.44687,2.07423 -0.81861,3.00659 0.34553,0.51279 0.93763,1.40227 1.31576,1.97663 0.37813,0.57435 1.14798,1.44851 1.71078,1.9426 0.56279,0.49408 1.40959,1.4651 1.88176,2.1578 0.47219,0.6927 1.38259,1.54004 2.02316,1.88295 0.64056,0.34293 1.47388,1.05688 1.85181,1.58658 0.50817,0.71221 1.19241,1.11186 2.62674,1.53417 3.04569,0.89675 4.10995,2.79185 2.59961,4.62912 -0.50414,0.6133 -0.62445,1.10236 -0.47171,1.91768 0.1738,0.92762 0.0638,1.20778 -0.72113,1.83794 -0.50938,0.40892 -1.00583,0.7435 -1.10317,0.7435 -0.43141,0 -2.05095,1.99566 -2.93793,3.62026 -0.5335,0.97717 -1.36261,2.22252 -1.84247,2.76748 -0.47985,0.54494 -0.87247,1.14156 -0.87247,1.32578 0,0.18423 -0.43098,0.77675 -0.95774,1.31668 -0.52674,0.53993 -1.17922,1.38516 -1.44988,1.8783 -0.27069,0.4931 -0.8301,1.23278 -1.24314,1.64372 -0.41304,0.41095 -0.8505,1.23312 -0.97209,1.82708 -0.12165,0.59395 -0.69128,1.9207 -1.26593,2.94829 -1.6644,2.97619 -1.65649,3.21323 0.20597,6.194 0.96906,1.55088 1.91636,3.60928 2.31017,5.01976 0.36715,1.315 0.92685,2.65989 1.24378,2.98864 0.99976,1.03703 1.43881,1.90521 1.43881,2.84506 0,0.96043 1.28082,3.41764 2.56737,4.92535 0.42078,0.49314 1.35448,1.90525 2.07489,3.13807 0.72041,1.23279 1.60087,2.56219 1.95656,2.95421 0.3557,0.39199 0.64671,0.85 0.64671,1.01779 0,0.16778 0.36417,0.72123 0.80926,1.22986 1.25912,1.43889 3.33791,5.21935 2.97643,5.41288 -0.17844,0.0955 -0.312,1.00763 -0.29674,2.02689 0.0387,2.59718 -0.35346,4.36732 -1.11383,5.02595 -0.92462,0.8009 -1.52881,0.70207 -2.49619,-0.40829 z m -12.71878,-42.70525 c -0.14288,-0.37127 -0.82222,-0.30111 -0.7024,0.0725 0.0475,0.14793 -0.0691,0.26898 -0.25877,0.26898 -0.18976,0 -0.34502,0.13922 -0.34502,0.30937 0,0.20672 0.23594,0.20001 0.71102,-0.0202 0.39106,-0.1813 0.65888,-0.46509 0.59517,-0.63066 z m -3.36955,-3.54007 c -0.43527,-0.23302 -0.42822,-0.29586 0.0509,-0.45517 0.35338,-0.11744 0.49038,-0.40213 0.37594,-0.78122 -0.17063,-0.56515 -0.23195,-0.55339 -1.16945,0.22465 -1.19016,0.98767 -1.25863,1.52585 -0.21311,1.67501 1.00254,0.14305 1.63795,-0.29799 0.95561,-0.66327 z m 1.82923,-1.5863 c 0.52644,-0.50128 1.61425,-2.27064 1.61425,-2.62562 0,-0.47914 -0.47974,-0.2787 -1.86001,0.77718 -1.05449,0.80663 -1.25867,1.11438 -0.95181,1.43464 0.21486,0.22424 0.28849,0.49621 0.16362,0.60436 -0.12494,0.10825 -0.0347,0.19665 0.20015,0.19665 0.23494,0 0.61016,-0.17425 0.8338,-0.38721 z m 2.54253,-3.66165 c 0.29365,-0.25439 0.46006,-0.52653 0.36974,-0.60477 -0.30617,-0.26521 -1.29802,0.2322 -1.29802,0.65096 0,0.53976 0.26713,0.52648 0.92828,-0.0462 z m -3.33311,-5.67704 c 0.48009,-0.48602 1.73486,-1.89238 2.78834,-3.12518 1.05348,-1.2328 2.17448,-2.42604 2.49108,-2.65163 0.3166,-0.2256 0.57566,-0.635 0.57566,-0.90977 0,-0.57426 -3.43698,-3.91016 -4.02864,-3.91016 -0.21637,0 -1.10647,-0.97503 -1.97803,-2.16675 -2.93673,-4.01553 -3.49263,-4.44514 -4.90477,-3.7905 -0.8135,0.37711 -1.13569,1.17546 -0.47443,1.17546 0.56712,0 0.39207,0.75817 -0.345,1.49431 -0.37954,0.37905 -0.69005,0.80309 -0.69005,0.94231 0,0.13923 -0.62106,0.25313 -1.38011,0.25313 -0.75905,0 -1.38009,0.1345 -1.38009,0.29886 0,0.16439 0.23289,0.29887 0.51754,0.29887 0.28463,0 0.51753,0.19499 0.51753,0.43332 0,0.50516 -1.95034,3.09657 -2.8229,3.75075 -1.05133,0.78823 -1.09554,1.85144 -0.12831,3.08603 0.48457,0.61852 0.88104,1.32703 0.88104,1.57446 0,0.60716 0.86452,2.01754 1.52988,2.49585 0.29715,0.21363 0.54028,0.61828 0.54028,0.89921 0,0.68239 1.39037,4.55284 1.79624,5.00031 0.22924,0.25273 1.08062,-0.30753 2.97155,-1.95546 1.45763,-1.27032 3.04306,-2.70736 3.52317,-3.19342 z m 4.47497,4.34639 c 0,-0.16438 -0.15528,-0.29887 -0.34503,-0.29887 -0.18976,0 -0.34501,0.13449 -0.34501,0.29887 0,0.16437 0.15525,0.29885 0.34501,0.29885 0.18975,0 0.34503,-0.13448 0.34503,-0.29885 z m 2.07014,-2.38217 c 0,-0.15956 0.49403,-0.89721 1.09781,-1.63922 0.6038,-0.742 1.00727,-1.42752 0.8966,-1.52337 -0.19245,-0.1667 -2.68444,2.85914 -2.68444,3.25951 0,0.10627 0.15524,0.1932 0.34501,0.1932 0.18977,0 0.34502,-0.13055 0.34502,-0.29012 z m -3.45026,-28.84896 c 0.35179,-0.36715 0.32822,-0.44829 -0.13027,-0.44829 -0.30787,0 -0.55977,0.20173 -0.55977,0.44829 0,0.24656 0.0588,0.4483 0.13027,0.4483 0.0715,0 0.32354,-0.20174 0.55977,-0.4483 z m 5.9649,-8.05148 c 0.70436,-0.7299 1.28064,-1.46959 1.28064,-1.64375 0,-0.17416 0.15319,-0.31666 0.3404,-0.31666 0.18721,0 0.55954,-0.45428 0.82736,-1.00953 0.26784,-0.55524 0.65602,-1.10004 0.86266,-1.21066 0.20665,-0.11059 0.62726,-0.96759 0.93472,-1.90438 0.36447,-1.11053 0.98678,-2.08974 1.78828,-2.81386 1.01491,-0.91697 1.1317,-1.14307 0.66963,-1.29666 -0.82153,-0.27307 -1.18518,0.0241 -2.33284,1.90605 -1.50378,2.46599 -2.44978,3.78369 -3.51519,4.8964 -0.5184,0.54139 -0.94538,1.09931 -0.94883,1.2398 -0.004,0.14051 -0.39445,0.92487 -0.86884,1.74303 -0.47442,0.81815 -0.86257,1.54375 -0.86257,1.61242 0,0.42017 0.71115,-0.0485 1.82458,-1.2022 z m 8.52617,-13.4571 c 0,-0.22439 0.15455,-0.45282 0.34344,-0.50761 0.26013,-0.0754 1.72673,-3.01216 1.72673,-3.4576 0,-0.28634 -0.78841,0.0136 -1.24218,0.47277 -0.57621,0.58294 -1.97605,3.3886 -2.37135,4.75286 -0.23447,0.80923 -0.23447,0.80923 0.65445,-0.0216 0.4889,-0.45694 0.88891,-1.01441 0.88891,-1.23881 z m -41.59636,87.5757 c -2.46213,-0.99803 -7.40059,-5.1367 -7.39867,-6.20046 0.003,-1.46588 0.62409,-2.34339 1.98314,-2.80018 3.02534,-1.01689 5.45073,-2.42616 7.86474,-4.56979 1.22688,-1.08944 1.56977,-1.24874 2.12948,-0.98927 0.75298,0.34907 4.58529,3.88626 4.58529,4.23219 0,0.12352 0.47782,0.39601 1.06181,0.60554 0.58399,0.20954 1.29868,0.69413 1.5882,1.07686 0.49155,0.64981 0.44297,0.84412 -0.73354,2.93456 -1.23621,2.19653 -1.65623,2.59679 -5.65813,5.39212 -1.79777,1.25575 -2.94391,1.32305 -5.42232,0.31843 z"
       id="path908-6" /></g></svg>
