<?xml version="1.0" encoding="UTF-8" standalone="no"?>
<!-- Created with Inkscape (http://www.inkscape.org/) -->

<svg
   width="156.07632mm"
   height="161.7493mm"
   viewBox="0 0 156.07633 161.7493"
   version="1.1"
   id="svg5"
   xml:space="preserve"
   xmlns="http://www.w3.org/2000/svg"
   xmlns:svg="http://www.w3.org/2000/svg"><defs
     id="defs2" /><g
     id="layer2"
     transform="translate(616.23878,599.25139)"><g
       id="g239"
       transform="translate(-21.631145,317.5)"
       style="fill:#ffffff;fill-opacity:1"><path
         style="fill:#ffffff;fill-opacity:1;stroke:none;stroke-width:22.4367;stroke-dasharray:none;stroke-opacity:1"
         id="path164"
         d="m -584.41655,-898.58478 c 0.50929,-0.27094 1.04383,-0.48996 1.56974,-0.72592 0.81241,-0.33628 1.62113,-0.68079 2.43541,-1.01295 1.04198,-0.41095 2.1359,-0.66871 3.21834,-0.94864 1.51993,-0.35478 3.05758,-0.62854 4.59147,-0.91519 1.80864,-0.32997 3.6376,-0.51917 5.46436,-0.71414 2.11863,-0.24291 4.24469,-0.41024 6.36985,-0.58296 2.23771,-0.18558 4.47741,-0.34702 6.71724,-0.50482 2.37884,-0.1465 4.75792,-0.28787 7.13634,-0.44167 2.42091,-0.1791 4.84151,-0.36245 7.26239,-0.54208 2.25645,-0.17719 4.51575,-0.30895 6.77669,-0.41156 2.03412,-0.0891 4.07012,-0.0304 6.10317,0.0524 1.74752,0.0669 3.48872,0.23135 5.21386,0.51665 1.18253,0.19632 2.34336,0.50432 3.45175,0.96118 0.84685,0.35658 1.62303,0.84413 2.37509,1.36644 0.6133,0.4222 1.19417,0.88765 1.73021,1.40406 0.0493,0.0209 0.61526,0.69443 0.31586,0.35277 -0.0951,-0.1734 -0.11554,-0.40862 -0.13303,-0.60864 -0.0291,0.0816 -0.0225,0.059 -0.0865,0.23352 -0.13938,0.38497 -0.30033,0.76975 -0.45778,1.15091 -0.44114,1.02936 -0.69149,2.12151 -0.87196,3.22231 -0.23037,1.45862 -0.0758,2.89885 0.27546,4.32117 0.41917,1.47532 1.23512,2.75474 2.18405,3.93925 0.93864,1.09207 2.08225,1.96355 3.29126,2.73198 1.13157,0.70662 2.35236,1.23764 3.60905,1.67468 1.34583,0.45239 2.75018,0.65601 4.1497,0.85664 1.97879,0.30464 3.97901,0.3973 5.97712,0.46474 2.27012,0.052 4.54102,-0.0217 6.8081,-0.13634 2.21707,-0.1067 4.42349,-0.34102 6.62919,-0.57986 2.21324,-0.23553 4.41354,-0.56798 6.61201,-0.91143 2.16419,-0.32415 4.31438,-0.72872 6.46507,-1.13044 2.17088,-0.43095 4.33964,-0.87309 6.50484,-1.33188 2.14921,-0.46398 4.29397,-0.94819 6.44511,-1.40322 2.19549,-0.45318 4.38015,-0.95758 6.56148,-1.47418 2.14466,-0.50805 4.27816,-1.06185 6.40271,-1.6479 1.0173,-0.2894 2.03409,-0.58042 3.04935,-0.87689 3.82214,-1.10736 0.69003,-11.91805 -3.13211,-10.81069 v 0 c -0.95348,0.27393 -1.90752,0.54576 -2.8643,0.80794 -2.00512,0.53221 -4.01426,1.04849 -6.03459,1.52024 -2.11296,0.4894 -4.22646,0.97663 -6.34773,1.42896 -2.1459,0.46434 -4.29498,0.91385 -6.43916,1.38613 -2.08248,0.44643 -4.16105,0.91236 -6.25269,1.31492 -2.01633,0.38984 -4.03653,0.75676 -6.06856,1.0567 -2.03708,0.30617 -4.0717,0.63611 -6.12005,0.85971 -1.98057,0.21608 -3.96256,0.42867 -5.95328,0.52636 -1.99898,0.0912 -3.99921,0.13793 -6.00046,0.13218 -1.67929,-0.019 -3.35701,-0.10324 -5.03677,-0.0948 -0.62807,-0.0322 -1.25037,-0.12554 -1.86267,-0.27053 -0.47847,-0.14722 -0.93567,-0.34714 -1.36575,-0.60495 -0.20182,-0.11324 -0.63505,-0.43023 -0.71101,-0.43889 -0.16635,-0.13573 -0.10266,-0.0644 -0.0793,0.12327 0.0222,0.17973 0.0159,0.53486 0,0.17402 0.009,-0.27628 0.10811,-0.54552 0.19445,-0.80481 0.28799,-0.73713 0.56377,-1.47902 0.80036,-2.23457 0.27374,-0.99991 0.48556,-2.01945 0.48847,-3.06141 -0.0127,-1.40036 -0.23627,-2.77159 -0.82536,-4.054 -0.61659,-1.30561 -1.39931,-2.51105 -2.43713,-3.5257 -0.95891,-0.96761 -1.98554,-1.86315 -3.09063,-2.66179 -1.3802,-0.97986 -2.81453,-1.88241 -4.36896,-2.5645 -1.89015,-0.81484 -3.84796,-1.45463 -5.87832,-1.81904 -2.18078,-0.38671 -4.37851,-0.64865 -6.59228,-0.75094 -2.35789,-0.12247 -4.71811,-0.20079 -7.07909,-0.10708 -2.37842,0.0828 -4.75319,0.23292 -7.12716,0.39868 -2.4034,0.16155 -4.80568,0.33816 -7.20844,0.50871 -2.39239,0.15978 -4.78261,0.347 -7.17479,0.50948 -2.29629,0.15756 -4.592,0.32282 -6.88538,0.51877 -2.22819,0.19527 -4.45376,0.41762 -6.67697,0.663 -2.09278,0.24659 -4.17992,0.5367 -6.24774,0.94726 -1.81679,0.33739 -3.63183,0.69334 -5.41375,1.18763 -1.54995,0.42678 -3.09342,0.88757 -4.56303,1.54824 -1.0211,0.43278 -2.02633,0.90067 -3.01749,1.39843 -0.52239,0.2863 -1.06069,0.55398 -1.56789,0.86145 -3.38834,1.69418 1.40348,11.27779 4.79179,9.58364 z" /><path
         style="fill:#ffffff;fill-opacity:1;stroke:none;stroke-width:22.4367;stroke-dasharray:none;stroke-opacity:1"
         id="path165"
         d="m -589.95177,-874.81322 c 0.74692,-0.0866 1.48191,-0.28797 2.21713,-0.44841 1.23034,-0.22138 2.46142,-0.43598 3.68993,-0.66802 1.52437,-0.25945 3.05544,-0.47207 4.58907,-0.66757 1.79893,-0.22738 3.61069,-0.33174 5.41991,-0.43884 2.26869,-0.0535 4.53993,-0.0404 6.8091,-0.004 2.60617,0.018 5.21192,0.0627 7.81804,0.0841 2.69579,0.0295 5.39136,0.0751 8.08726,0.0946 2.72465,0.0183 5.44891,0.0572 8.17332,0.0969 2.44348,0.0401 4.88535,0.12036 7.32375,0.28382 1.92995,0.12475 3.84664,0.38338 5.75127,0.71242 1.54411,0.26945 3.06242,0.65855 4.56195,1.11098 1.13273,0.32327 2.23099,0.7411 3.28144,1.2722 0.90503,0.56092 1.76088,1.19565 2.60868,1.83838 1.36753,1.05656 2.84663,1.95035 4.35213,2.79305 1.60253,0.8986 3.31164,1.57892 5.03402,2.20734 1.8012,0.6365 3.6377,1.15831 5.49648,1.59551 2.11389,0.48403 4.25027,0.85421 6.39683,1.15716 2.29703,0.30887 4.61052,0.47294 6.92415,0.59214 2.36656,0.1329 4.73821,0.0949 7.10517,-2.2e-4 2.47388,-0.11014 4.93316,-0.40872 7.38746,-0.72493 2.52627,-0.34195 5.03102,-0.81425 7.52033,-1.36033 2.35127,-0.52064 4.68466,-1.12022 7.00312,-1.77077 2.12313,-0.5887 4.23929,-1.20187 6.35606,-1.81288 2.109,-0.59388 4.19669,-1.25796 6.27031,-1.96461 1.9544,-0.65259 3.87517,-1.3998 5.78898,-2.16177 1.18626,-0.4653 2.36355,-0.95248 3.53695,-1.4491 3.64389,-1.53453 -0.69639,-11.84098 -4.34025,-10.30647 v 0 c -1.08757,0.4554 -2.17901,0.90151 -3.28232,1.31778 -1.75802,0.67506 -3.51843,1.34665 -5.30971,1.92953 -1.92019,0.64296 -3.85466,1.24113 -5.80625,1.78218 -2.06939,0.60108 -4.14129,1.19316 -6.22266,1.75162 -2.11942,0.57266 -4.24786,1.11477 -6.39699,1.56543 -2.17789,0.46257 -4.35988,0.91842 -6.56749,1.21722 -2.14471,0.2759 -4.29286,0.55115 -6.45263,0.67606 -1.99845,0.10372 -4.00129,0.1456 -6.0008,0.036 -2.01986,-0.10734 -4.03834,-0.26869 -6.04613,-0.51597 -1.82263,-0.21743 -3.63918,-0.47069 -5.42729,-0.89622 -1.4169,-0.2944 -2.83565,-0.57856 -4.19148,-1.10075 -1.16721,-0.40621 -2.31711,-0.87429 -3.40796,-1.45766 -1.06048,-0.57833 -2.10447,-1.19148 -3.07301,-1.9162 -1.37228,-1.02976 -2.755,-2.05978 -4.26704,-2.87856 -1.60094,-0.81068 -3.25704,-1.49661 -4.96556,-2.04909 -1.92085,-0.61002 -3.86533,-1.14546 -5.84581,-1.52702 -2.28304,-0.43621 -4.58097,-0.79226 -6.89714,-1.00046 -2.65737,-0.22847 -5.32011,-0.37635 -7.98737,-0.42138 -2.76135,-0.0613 -5.5231,-0.0973 -8.28516,-0.10467 -2.68783,-0.027 -5.37575,-0.0302 -8.06358,-0.0587 -2.63138,-0.035 -5.26296,-0.0534 -7.89447,-0.077 -2.52768,0.0177 -5.05905,0.0206 -7.58108,0.20905 -2.07,0.14404 -4.1401,0.30183 -6.19313,0.6133 -1.73302,0.24744 -3.4644,0.51393 -5.18115,0.85847 -1.39266,0.27241 -2.78151,0.56494 -4.15457,0.92519 -0.89376,0.23569 -1.79144,0.45874 -2.66631,0.76002 -3.64199,1.06225 -0.63749,11.36338 3.0045,10.30113 z" /><path
         style="fill:#ffffff;fill-opacity:1;stroke:none;stroke-width:22.4367;stroke-dasharray:none;stroke-opacity:1"
         id="path166"
         d="m -532.67654,-876.34367 c -0.83524,0.15282 -1.63502,0.43389 -2.41956,0.75157 -0.88498,0.37153 -1.69569,0.88437 -2.49315,1.41232 -0.85349,0.54592 -1.61991,1.21172 -2.38043,1.87735 -0.80811,0.69488 -1.55575,1.45423 -2.2751,2.23944 -0.78523,0.86828 -1.50145,1.7939 -2.19572,2.73537 -0.76708,1.07113 -1.41941,2.21699 -2.04282,3.37568 -0.74322,1.34554 -1.2655,2.78966 -1.73109,4.24945 -0.49911,1.56056 -0.74269,3.17696 -0.86762,4.80549 -0.13338,1.64955 0.0387,3.29285 0.34001,4.9131 0.33915,1.68582 1.03315,3.2497 1.8772,4.73639 0.85555,1.44513 1.99228,2.67645 3.21833,3.81079 1.08866,0.97203 2.28378,1.81118 3.49264,2.62451 1.03965,0.69165 2.10484,1.34334 3.13859,2.04391 0.89596,0.60269 1.78422,1.2197 2.61303,1.91288 0.5848,0.54115 1.1613,1.11461 1.60395,1.78078 0.38346,0.6255 0.77774,1.26336 1.00428,1.96538 0.22106,0.79928 0.30493,1.62607 0.37081,2.44993 0.0825,1.19111 -0.006,2.38739 -0.10257,3.57511 -0.13185,1.37123 -0.27247,2.74894 -0.58315,4.09276 -0.34721,1.48076 -0.85209,2.91586 -1.3798,4.33998 -0.58473,1.52586 -1.3421,2.97101 -2.15193,4.3869 -0.96518,1.69468 -2.1076,3.27631 -3.24895,4.85426 -1.45635,1.90346 -2.88589,3.82722 -4.31912,5.74812 -1.49378,1.99044 -2.96259,3.99945 -4.39412,6.03512 -1.44862,2.05894 -2.83239,4.16216 -4.16271,6.29915 -1.28233,2.07174 -2.501,4.18179 -3.68274,6.31222 -1.18247,2.13111 -2.28634,4.30329 -3.31938,6.51034 -1.03944,2.2594 -1.93739,4.57935 -2.81107,6.90665 -0.38639,1.05159 -0.75043,2.11106 -1.11143,3.17156 -1.33834,3.75179 9.27335,7.53724 10.61172,3.78542 v 0 c 0.36534,-0.97552 0.73348,-1.94998 1.10204,-2.92428 0.79894,-2.07147 1.60796,-4.14007 2.51484,-6.16728 0.89157,-1.95045 1.84407,-3.87239 2.90121,-5.73921 1.11138,-1.95992 2.25171,-3.9031 3.43281,-5.82197 1.23166,-1.95535 2.50172,-3.88609 3.83204,-5.77606 1.37403,-1.94678 2.77601,-3.87403 4.21315,-5.77477 1.48791,-1.98977 2.99138,-3.96857 4.42952,-5.99493 1.35043,-1.92834 2.68298,-3.87332 3.82272,-5.93633 1.06329,-1.93307 2.05666,-3.90593 2.83401,-5.9741 0.73567,-1.97393 1.38896,-3.98108 1.80422,-6.04986 0.32896,-1.79178 0.59505,-3.59635 0.73255,-5.41393 0.14084,-1.83615 0.21378,-3.68133 0.0315,-5.51825 -0.19354,-1.79168 -0.47865,-3.58294 -1.10127,-5.28254 -0.63421,-1.6011 -1.39221,-3.15153 -2.39236,-4.56047 -1.02823,-1.36702 -2.16207,-2.65297 -3.48002,-3.75121 -1.09902,-0.90228 -2.23988,-1.75006 -3.4218,-2.54132 -1.08696,-0.74181 -2.20572,-1.43248 -3.31351,-2.14225 -0.75369,-0.47263 -1.48839,-0.97481 -2.16138,-1.55898 -0.41497,-0.35155 -0.80531,-0.73297 -1.11493,-1.18327 -0.25794,-0.40124 -0.45352,-0.83571 -0.56933,-1.29998 -0.13893,-0.65791 -0.20164,-1.3285 -0.15872,-2.00112 0.0625,-0.80394 0.17444,-1.60102 0.41632,-2.3736 0.24186,-0.8018 0.50353,-1.60139 0.88302,-2.3504 0.39883,-0.74589 0.81608,-1.48204 1.27966,-2.19004 0.4236,-0.62243 0.8868,-1.2178 1.38107,-1.78578 0.44625,-0.50112 0.90395,-0.99131 1.411,-1.4324 0.38647,-0.34919 0.77028,-0.70786 1.1925,-1.01147 0.27059,-0.18328 0.53618,-0.37402 0.81518,-0.54441 0.0736,-0.0342 0.20455,-0.0988 0.18495,-0.10631 3.71067,-0.74213 1.6116,-11.23754 -2.0991,-10.49541 z" /><path
         style="fill:#ffffff;fill-opacity:1;stroke:none;stroke-width:22.4367;stroke-dasharray:none;stroke-opacity:1"
         id="path167"
         d="m -507.93255,-870.53093 c -0.63394,0.10586 -1.2587,0.25831 -1.87582,0.43632 -0.77591,0.2358 -1.5208,0.55727 -2.25255,0.9039 -0.86884,0.42087 -1.68106,0.94813 -2.47285,1.49759 -0.83934,0.59169 -1.63084,1.24531 -2.40901,1.91421 -1.0364,0.87386 -1.9332,1.88359 -2.75169,2.95997 -0.87104,1.15917 -1.51548,2.45824 -2.07933,3.78751 -0.62003,1.45494 -0.89567,3.00016 -1.00952,4.56787 -0.0711,1.49657 0.14853,2.97736 0.48855,4.42966 0.39603,1.56757 1.12914,3.00609 1.95265,4.38581 0.86326,1.42584 2.01605,2.62448 3.23194,3.7496 1.16041,1.06389 2.46015,1.95323 3.79241,2.78458 1.33934,0.78483 2.76502,1.40242 4.2037,1.97792 1.01922,0.35814 2.00157,0.79901 2.97,1.27481 0.88513,0.43064 1.73918,0.91906 2.56529,1.45338 0.65786,0.482 1.26045,1.03172 1.84404,1.5997 0.46117,0.44786 0.90093,0.91448 1.197,1.48812 0.21635,0.458 0.29096,0.95986 0.36462,1.45616 0.0791,0.74388 -0.0332,1.48884 -0.13086,2.22526 -0.1365,0.97686 -0.43143,1.91672 -0.76462,2.84152 -0.39862,1.1281 -0.93985,2.19731 -1.50789,3.2477 -0.66471,1.24058 -1.42139,2.42729 -2.20083,3.59794 -0.82949,1.22534 -1.7518,2.38474 -2.69359,3.52486 -1.04555,1.28484 -2.20234,2.47393 -3.35065,3.66606 -1.34126,1.41116 -2.71177,2.79385 -4.06337,4.195 -1.44814,1.48032 -2.86557,2.98921 -4.26908,4.51175 -1.49545,1.60341 -2.91406,3.27573 -4.28495,4.98616 -1.39054,1.72741 -2.66816,3.5402 -3.93771,5.35696 -1.22971,1.74474 -2.39245,3.53571 -3.52142,5.34689 -1.12334,1.80377 -2.15948,3.65826 -3.14151,5.54201 -0.98954,1.89987 -1.8525,3.85961 -2.6394,5.85076 -0.78592,1.97887 -1.42412,4.00886 -1.93379,6.07494 -0.48522,1.99633 -0.78946,4.02656 -1.0401,6.06338 -0.1741,1.48182 -0.27861,2.96976 -0.36595,4.45875 -0.28657,3.91364 10.78291,4.72419 11.06948,0.81056 v 0 c 0.11388,-1.28636 0.21384,-2.57445 0.38013,-3.85546 0.21566,-1.62391 0.46622,-3.24334 0.83965,-4.83968 0.36645,-1.55609 0.86178,-3.07681 1.46619,-4.55734 0.66059,-1.6364 1.37404,-3.25035 2.18954,-4.81637 0.84156,-1.61822 1.72003,-3.2181 2.69999,-4.75753 1.03423,-1.63732 2.09563,-3.25789 3.21143,-4.84105 1.14747,-1.62108 2.29942,-3.24043 3.53335,-4.79751 1.1969,-1.50325 2.41581,-2.98891 3.73597,-4.3871 1.3589,-1.46505 2.72788,-2.92037 4.11943,-4.35457 1.3466,-1.40637 2.68455,-2.82088 4.02278,-4.23521 1.35366,-1.41182 2.69981,-2.83525 3.91419,-4.37084 1.15705,-1.43015 2.28966,-2.88417 3.30738,-4.41793 0.9825,-1.47558 1.92891,-2.97614 2.74526,-4.55163 0.82367,-1.56887 1.59099,-3.16973 2.16088,-4.85095 0.55747,-1.66301 1.04431,-3.35261 1.26272,-5.09844 0.21275,-1.82017 0.3229,-3.6581 2.4e-4,-5.47494 -0.3351,-1.78642 -0.82513,-3.53806 -1.74569,-5.12223 -0.83921,-1.37673 -1.80647,-2.65935 -2.98194,-3.77076 -1.09635,-1.06754 -2.23761,-2.09476 -3.51229,-2.94826 -1.21798,-0.79332 -2.47089,-1.53098 -3.78534,-2.15489 -1.18959,-0.561 -2.38916,-1.09964 -3.62368,-1.55581 -0.86627,-0.35266 -1.72339,-0.72924 -2.55283,-1.16252 -0.7415,-0.44321 -1.46725,-0.9188 -2.12008,-1.48731 -0.47488,-0.43264 -0.96867,-0.85748 -1.3289,-1.3952 -0.25844,-0.39507 -0.48731,-0.8061 -0.69069,-1.23232 -0.10486,-0.39381 -0.185,-0.7892 -0.20617,-1.19769 0.004,-0.34689 0.0387,-0.67858 0.18648,-1.00034 0.22069,-0.53395 0.47501,-1.05997 0.80362,-1.53646 0.3079,-0.45503 0.66442,-0.85825 1.0935,-1.20634 0.52927,-0.46059 1.05735,-0.92363 1.60387,-1.36364 0.26962,-0.21724 0.55963,-0.40782 0.85217,-0.58843 0.24265,-0.1261 0.49369,-0.24085 0.74303,-0.34838 0.19924,-0.0933 0.43715,-0.11906 0.45017,-0.1453 3.72827,-0.6214 1.97075,-11.16656 -1.75755,-10.54518 z" /></g></g></svg>
