<?xml version="1.0" encoding="UTF-8" standalone="no"?>
<!-- Created with Inkscape (http://www.inkscape.org/) -->

<svg
   width="153.70554mm"
   height="154.70561mm"
   viewBox="0 0 153.70554 154.70561"
   version="1.1"
   id="svg5"
   xml:space="preserve"
   xmlns="http://www.w3.org/2000/svg"
   xmlns:svg="http://www.w3.org/2000/svg"><defs
     id="defs2" /><g
     id="layer1"
     transform="translate(593.42634,915.56003)"><path
       style="fill:#ffffff;fill-opacity:1;stroke:none;stroke-width:1.06928;stroke-opacity:1"
       d="m -525.28316,-761.50974 c -2.61653,-1.77732 -4.79719,-7.204 -4.79719,-11.93794 0,-5.0924 4.71271,-15.76156 13.02695,-29.49179 6.8055,-11.23875 8.97015,-14.22826 16.49511,-22.78091 6.1692,-7.01175 5.78353,-8.15148 -3.50929,-10.37068 -6.65385,-1.58902 -11.87358,-6.4214 -11.87358,-10.99249 0,-5.69488 6.02217,-14.03754 12.74179,-17.65151 2.55861,-1.37607 3.58206,-1.43192 5.47115,-0.29869 2.31981,1.39173 2.31572,1.40293 -2.38989,6.52947 -2.59254,2.82447 -4.71369,5.94498 -4.71369,6.93454 0,0.98951 -0.52492,1.79915 -1.16648,1.79915 -2.72376,0 2.5758,4.31065 6.06946,4.93689 6.7201,1.20458 16.30579,7.94317 16.30579,11.46273 0,0.69217 -3.86303,5.39274 -8.58451,10.44567 -4.72148,5.05295 -8.5845,9.74053 -8.5845,10.41688 0,0.67634 -0.34814,1.22971 -0.77364,1.22971 -1.06363,0 -6.52223,8.96682 -13.23584,21.7425 -5.81416,11.06402 -6.67922,17.00421 -3.48499,23.93028 0.81638,1.77021 1.30406,3.42062 1.08374,3.6676 -1.07166,1.20129 -6.51757,1.49014 -8.08039,0.42855 z m -27.80114,-7.37884 c -3.94634,-3.09849 -2.98806,-8.26239 4.47879,-24.13526 3.69785,-7.86085 6.99279,-14.54714 7.32207,-14.85848 0.32929,-0.31134 1.66205,-2.93866 2.96169,-5.83852 2.45717,-5.48263 3.83001,-7.7394 8.49388,-13.96275 3.37046,-4.49742 3.46195,-5.76445 0.50497,-6.99209 -5.37955,-2.23347 -15.80041,-9.98905 -16.30015,-12.13118 -1.15786,-4.96332 1.51213,-11.78678 7.341,-18.76073 4.70892,-5.63397 6.29816,-6.84523 8.98138,-6.84523 4.49583,0 4.26023,2.82012 -0.69263,8.29086 -2.43029,2.68439 -4.32227,6.11058 -4.98114,9.02037 -0.58433,2.58058 -0.97201,4.73912 -0.8615,4.7968 0.11046,0.0578 2.51305,1.72984 5.33903,3.71589 2.82597,1.98606 5.42591,3.61103 5.77764,3.61103 0.35173,0 2.69794,1.62644 5.21377,3.6143 3.17264,2.5068 4.57427,4.41475 4.57427,6.22663 0,1.43679 -0.51597,2.61236 -1.14662,2.61236 -2.33238,0 -11.76691,13.48527 -17.67182,25.25929 -9.86521,19.67069 -11.94808,26.6299 -9.97481,33.3276 0.64725,2.1969 0.3952,2.54724 -1.83258,2.54724 -1.42066,0 -2.86392,0.50947 -3.20722,1.13213 -0.85474,1.55027 -1.69983,1.427 -4.32002,-0.63026 z m 60.3718,-97.9965 c -13.60581,-1.79891 -26.25849,-5.5187 -26.25849,-7.71984 0,-2.00605 -6.61718,-4.45703 -15.51417,-5.74632 -10.63633,-1.54134 -33.33811,-0.89645 -44.65723,1.26858 -10.24852,1.96024 -17.20162,-1.48376 -10.33108,-5.1172 6.60184,-3.49135 17.37213,-4.5451 43.73901,-4.27935 12.85878,0.12959 26.33868,2.76621 29.74242,5.81755 5.09102,4.56388 8.05733,5.65994 19.01403,7.02563 11.09317,1.38272 22.95186,0.62492 39.54647,-2.52711 6.62089,-1.2576 15.22472,-1.36705 15.19367,-0.19335 -0.049,1.85237 -3.67662,5.65115 -6.54217,6.85085 -8.27935,3.46627 -32.99893,6.06608 -43.93246,4.62048 z m -4.37584,-19.21588 c -11.11064,-1.02716 -18.85282,-4.24518 -18.85282,-7.83616 0,-1.142 1.13618,-3.58999 2.52484,-5.43997 1.38868,-1.84999 2.52486,-3.86746 2.52486,-4.48328 0,-5.18844 -38.62999,-3.90631 -60.89414,2.02106 -9.19152,2.44706 -20.95402,2.71614 -21.60726,0.49429 -1.04448,-3.55251 22.55228,-10.78779 40.58881,-12.44543 3.88828,-0.35735 7.68611,-0.87798 8.43963,-1.15696 3.30012,-1.22186 22.72212,-0.49434 29.65456,1.1108 10.10006,2.33861 10.04318,2.30525 12.65539,7.42108 2.67184,5.23259 2.84107,7.64743 0.7201,10.2746 -1.45009,1.79615 -0.70205,1.97399 11.36184,2.70116 11.51854,0.69432 14.16926,0.47752 24.52846,-2.00609 13.77929,-3.3036 24.8156,-4.70672 25.6151,-3.25663 0.95729,1.73629 -4.61202,6.47805 -9.961,8.4809 -12.43648,4.65669 -27.39939,5.96025 -47.29837,4.12063 z"
       id="path1047-6" /><path
       style="fill:#ffffff;fill-opacity:1;stroke:none;stroke-width:1.05614;stroke-opacity:1"
       d="m -353.79712,-765.88693 c -1.27737,-2.76794 -2.32245,-5.88823 -2.32245,-6.93398 0,-1.04574 -0.42982,-2.33729 -0.95512,-2.87007 -0.52528,-0.5328 -3.039,-4.63968 -5.586,-9.12639 -8.14748,-14.35226 -21.90591,-29.43472 -30.73194,-33.68935 -1.62411,-0.78294 -6.87146,-1.72814 -11.66081,-2.10047 -6.88487,-0.53524 -9.94511,-0.29598 -14.61767,1.14275 -7.85857,2.41977 -10.83952,4.34608 -10.79747,6.97741 0.0658,4.1054 2.51063,5.74601 8.5634,5.74601 3.09225,0 5.62225,-0.45885 5.62225,-1.01969 0,-1.50426 6.54839,-1.25302 6.64454,0.25475 0.0447,0.70104 0.29149,2.32928 0.54818,3.61829 0.38615,1.93734 -0.33943,2.68481 -4.18333,4.31135 -5.43038,2.2978 -18.04497,2.74846 -20.65238,0.73782 -6.73538,-5.19383 -7.84078,-18.18566 -2.04104,-23.98887 1.22083,-1.22156 6.39538,-3.42725 11.56563,-4.92993 7.92115,-2.30222 10.64564,-2.63421 17.76183,-2.16432 10.927,0.72154 22.12302,4.5248 26.94507,9.15321 3.34518,3.21089 3.82397,3.3814 5.32081,1.8948 0.90463,-0.89849 2.92067,-2.45805 4.48001,-3.46569 2.08677,-1.34848 2.83521,-2.72555 2.83521,-5.21646 0,-3.38431 0,-3.38431 -7.4013,-3.87799 -18.22001,-1.21523 -28.19238,-11.3846 -25.30288,-25.80269 1.02593,-5.11906 9.3343,-17.55731 14.10062,-21.10967 1.71485,-1.27801 4.48692,-3.32183 6.16021,-4.54174 3.60781,-2.63029 15.14957,-5.85381 17.69691,-4.94257 1.45566,0.52073 1.08857,1.15198 -1.96567,3.38021 -3.49395,2.54898 -9.19986,5.79267 -15.04708,8.55386 -1.35366,0.63924 -2.46349,1.6622 -2.46626,2.27321 -0.002,0.61103 -1.35647,2.48758 -3.00819,4.17007 -2.88292,2.93668 -4.02755,4.81758 -6.67646,10.97092 -1.76522,4.10047 2.13373,13.47909 6.67345,16.05262 4.99495,2.83167 12.30016,3.377 21.33698,1.59284 10.89239,-2.15059 14.82959,-3.86065 18.10495,-7.86368 6.96253,-8.50934 5.93345,-13.86898 -3.21971,-16.76927 -5.45352,-1.72803 -6.10145,-1.73519 -11.56102,-0.12795 -6.28615,1.85046 -8.73472,4.33063 -7.74802,7.84798 0.56637,2.01891 1.11352,2.1838 5.30297,1.59813 5.55023,-0.77584 7.68483,1.01585 3.95826,3.32244 -1.30596,0.80833 -2.37448,2.00443 -2.37448,2.65794 0,1.61999 -6.34902,1.95225 -10.0437,0.52565 -1.65555,-0.63926 -3.33893,-2.14541 -3.74083,-3.34697 -0.40185,-1.20156 -1.19709,-2.46448 -1.76707,-2.80649 -1.28837,-0.77303 1.18198,-8.98522 3.31687,-11.02603 1.4507,-1.38683 7.12857,-3.12398 17.62624,-5.39288 6.72998,-1.45452 15.34355,0.44187 19.85647,4.37173 3.24713,2.82755 3.4261,3.35771 2.99045,8.858 -0.37581,4.74569 -1.2606,6.90941 -4.68568,11.45879 -6.14737,8.1653 -11.40633,11.83627 -19.58734,13.67273 -2.97101,0.66695 -3.1113,0.93858 -2.53903,4.91614 0.43321,3.01067 0.0125,5.29575 -1.47938,8.02038 -2.02673,3.70335 -7.26337,8.06072 -9.68728,8.06072 -2.06228,0 -1.3176,2.08287 1.80966,5.06149 3.81914,3.63765 5.26632,5.64366 7.85389,10.88653 1.14592,2.32176 2.51356,4.46922 3.03923,4.77206 0.52568,0.30294 1.81767,-2.94523 2.8711,-7.21801 2.21671,-8.99116 7.0445,-18.01862 12.02061,-22.47735 4.8634,-4.35772 17.43725,-10.36958 26.05452,-12.45726 8.49583,-2.05832 15.01991,-1.7489 21.34458,1.01214 4.49446,1.9621 9.71555,7.29863 8.3689,8.55396 -0.38326,0.35726 -0.12277,0.6497 0.57922,0.6497 1.64995,0 1.72564,11.5877 0.0943,14.42925 -2.88661,5.02793 -16.22193,6.6803 -21.26683,2.6351 -2.30683,-1.84973 -2.73284,-2.86025 -2.13758,-5.0711 0.72033,-2.67537 0.8401,-2.71446 3.85949,-1.25891 9.43457,4.54795 17.27239,-1.58882 10.06152,-7.8779 -7.50143,-6.54252 -12.32404,-7.03537 -26.24537,-2.68211 -5.43989,1.70103 -8.27686,3.46537 -13.94696,8.6735 -3.91489,3.59595 -7.11795,7.20607 -7.11795,8.02247 0,0.81642 -0.57428,1.48441 -1.27618,1.48441 -0.70192,0 -0.95229,0.30175 -0.55644,0.67094 0.39607,0.3692 0.26874,1.17762 -0.28279,1.79683 -3.23125,3.62945 -5.49743,23.46786 -3.27837,28.69912 2.28167,5.37873 0.90724,13.7001 -2.26276,13.7001 -0.45387,0 -1.87033,-2.2647 -3.14768,-5.03264 z m 42.17814,-87.94374 c -2.5308,-2.547 -3.65762,-2.99122 -6.28983,-2.47955 -11.24405,2.18572 -10.19451,2.34736 -9.3809,-1.44475 1.30897,-6.10112 3.5005,-7.36497 11.9948,-6.91755 6.87388,0.36227 7.72965,0.66747 10.67124,3.80814 3.81095,4.06891 3.82245,4.16248 0.93084,7.58927 -2.85931,3.38855 -4.09303,3.30211 -7.92615,-0.55556 z m -109.82254,1.50753 c -2.88047,-0.51972 -7.69707,-5.57157 -8.63561,-9.05741 -0.36673,-1.36254 -0.33818,-4.11102 0.0637,-6.10771 0.69704,-3.46367 0.89086,-3.5979 4.2224,-2.9243 3.928,0.79423 5.09157,1.98446 5.11593,5.23325 0.0207,2.74247 1.64174,3.76643 6.43497,4.06442 4.7772,0.29714 4.99616,0.59318 3.04242,4.11503 -1.29624,2.33673 -6.50398,5.93722 -7.59785,5.25293 -0.122,-0.0763 -1.31273,-0.33568 -2.6459,-0.57621 z m 46.84246,-43.94908 c -2.30922,-4.02224 3.55214,-17.30386 8.40202,-19.03875 2.09235,-0.74849 12.40186,0.31912 14.44429,1.49593 3.52451,2.03056 -1.02612,5.40799 -8.88,6.59062 -3.50902,0.52839 -4.22265,1.17251 -6.19127,5.58827 -2.61417,5.86391 -6.10527,8.27238 -7.77504,5.36393 z"
       id="path1280-1" /></g></svg>
