<?xml version="1.0" encoding="UTF-8" standalone="no"?>
<!-- Created with Inkscape (http://www.inkscape.org/) -->

<svg
   width="160.39mm"
   height="153.23659mm"
   viewBox="0 0 160.39 153.23659"
   version="1.1"
   id="svg5"
   xml:space="preserve"
   xmlns="http://www.w3.org/2000/svg"
   xmlns:svg="http://www.w3.org/2000/svg"><defs
     id="defs2" /><g
     id="layer2"
     transform="translate(218.49585,597.90153)"><g
       id="g241"
       transform="translate(71.092645,317.5)"
       style="fill:#ffffff;fill-opacity:1"><path
         style="fill:#ffffff;fill-opacity:1;stroke:none;stroke-width:22.4367;stroke-dasharray:none;stroke-opacity:1"
         id="path174"
         d="m -138.55084,-797.73149 c -0.2612,0.37502 -0.52365,0.77409 -0.79323,1.19599 -0.20101,0.35727 -0.43858,0.68914 -0.68961,1.01198 -0.27353,0.17481 -0.51058,0.42101 -0.77086,0.62188 -0.61144,0.47522 -1.23103,0.93977 -1.85853,1.39356 -0.85388,0.59936 -1.71061,1.19457 -2.56628,1.79141 -0.94013,0.66882 -1.92103,1.27691 -2.90176,1.88355 -1.08695,0.70479 -2.19381,1.37535 -3.33353,1.99112 -1.1961,0.68799 -2.44758,1.26082 -3.72069,1.78866 -1.47817,0.55904 -2.96246,1.10334 -4.46634,1.58946 -1.56485,0.49458 -3.14482,0.93353 -4.73524,1.33715 -1.54238,0.40563 -3.09647,0.7589 -4.6652,1.04539 -1.49524,0.28134 -3.00214,0.48856 -4.51471,0.64874 -1.41012,0.14994 -2.82377,0.2224 -4.2409,0.24587 -1.2964,-0.003 -2.59331,-0.0411 -3.88435,-0.16145 -1.24141,-0.18759 -2.44975,-0.54199 -3.65623,-0.88098 -1.42538,-0.43653 -2.828,-0.94493 -4.21659,-1.48624 -1.45181,-0.56436 -2.84422,-1.26585 -4.22611,-1.98099 -1.56676,-0.82381 -3.14678,-1.62198 -4.72436,-2.42477 -1.6059,-0.84154 -3.24489,-1.6178 -4.88307,-2.39393 -1.76007,-0.85159 -3.5638,-1.60276 -5.39142,-2.29547 -1.95791,-0.74417 -3.95739,-1.36798 -5.98096,-1.90537 -2.09849,-0.55015 -4.22936,-0.95792 -6.37129,-1.29442 -2.12797,-0.32303 -4.27157,-0.51036 -6.41742,-0.66159 -2.07366,-0.14457 -4.15149,-0.18082 -6.22941,-0.17722 -2.03038,0.006 -4.0583,0.1139 -6.08221,0.26808 -2.14766,0.16528 -4.27612,0.48606 -6.39386,0.87127 -2.35276,0.42209 -4.67121,0.99684 -6.9559,1.69582 -2.47114,0.79036 -4.87819,1.75884 -7.25127,2.80331 -2.30927,1.02603 -4.55645,2.18337 -6.79046,3.36225 -2.25603,1.19287 -4.4222,2.54233 -6.55931,3.93409 -2.06434,1.35432 -4.05189,2.82059 -6.00303,4.33202 -1.8606,1.44333 -3.61709,3.01022 -5.34247,4.61047 -1.32643,1.24468 -2.59995,2.54347 -3.84815,3.86599 -2.81273,2.93854 5.49873,10.89411 8.31144,7.95557 v 0 c 1.09601,-1.12668 2.20532,-2.24055 3.36692,-3.30023 1.48961,-1.3544 3.00541,-2.68203 4.6073,-3.90342 1.71971,-1.31083 3.47202,-2.57805 5.2796,-3.76571 1.84002,-1.1955 3.70598,-2.3517 5.64033,-3.39 1.98999,-1.04881 3.99527,-2.07013 6.05464,-2.97744 2.00069,-0.87934 4.01505,-1.73231 6.08893,-2.42673 1.79532,-0.60984 3.61774,-1.13136 5.48619,-1.46891 1.72658,-0.32213 3.45895,-0.62111 5.20975,-0.77862 1.72394,-0.14176 3.45268,-0.21143 5.18267,-0.20937 1.79998,0.003 3.59987,0.0335 5.39527,0.17503 1.84046,0.13787 3.67925,0.30289 5.50611,0.57084 1.74186,0.25849 3.47711,0.56618 5.18302,1.00843 1.64886,0.43267 3.28138,0.92726 4.88157,1.51677 1.53197,0.57206 3.06109,1.15742 4.53334,1.8727 1.53201,0.73067 3.04834,1.49286 4.57421,2.23615 1.57767,0.81672 3.14045,1.6618 4.72336,2.46848 1.74621,0.88316 3.51229,1.73027 5.34695,2.41666 1.72732,0.65622 3.46112,1.29772 5.23758,1.81096 1.86122,0.51864 3.74236,0.97962 5.67153,1.15904 1.68483,0.15644 3.37389,0.25926 5.06685,0.25482 1.76231,-0.0156 3.52381,-0.0873 5.2781,-0.26395 1.82568,-0.18788 3.65057,-0.40212 5.45346,-0.75216 1.79102,-0.34814 3.57485,-0.73456 5.34626,-1.17221 1.85026,-0.46654 3.69426,-0.9621 5.5059,-1.56385 1.8198,-0.6087 3.64188,-1.22065 5.40293,-1.98688 1.6242,-0.72171 3.21619,-1.51043 4.75239,-2.40644 1.29333,-0.75338 2.56997,-1.53466 3.82283,-2.35387 1.10767,-0.72411 2.1917,-1.48256 3.27327,-2.24501 0.92018,-0.65202 1.83229,-1.31596 2.7169,-2.01581 0.82863,-0.62257 1.65829,-1.24481 2.44328,-1.92254 0.87229,-0.77245 1.71291,-1.58541 2.4038,-2.52894 0.42719,-0.59955 0.83594,-1.21262 1.20108,-1.85232 0.21025,-0.36074 0.4227,-0.73272 0.61468,-1.10313 0.008,-0.0159 -0.0253,0.0257 -0.0379,0.0384 2.02303,-3.20312 -7.03678,-8.92511 -9.05981,-5.72198 z" /><path
         style="fill:#ffffff;fill-opacity:1;stroke:none;stroke-width:22.4367;stroke-dasharray:none;stroke-opacity:1"
         id="path175"
         d="m -279.62701,-762.95836 c 0.48802,-0.50626 0.93962,-1.04132 1.37102,-1.59621 0.68704,-0.90575 1.39348,-1.79644 2.0787,-2.70356 0.80512,-1.08154 1.60078,-2.17006 2.41384,-3.24567 1.02664,-1.2581 2.05897,-2.51114 3.07872,-3.77487 1.23965,-1.57258 2.46973,-3.15309 3.68557,-4.74414 1.36546,-1.77987 2.69746,-3.58465 3.99051,-5.41774 1.36281,-1.94884 2.66008,-3.94261 3.93893,-5.94719 1.22121,-1.92315 2.41474,-3.86371 3.58361,-5.81906 1.14988,-1.93638 2.27372,-3.88859 3.36746,-5.85722 1.08798,-1.95373 2.1557,-3.91864 3.19564,-5.89833 1.03377,-1.98617 2.05523,-3.97888 3.05234,-5.98371 0.9935,-1.98713 1.96064,-3.98708 2.93452,-5.98384 0.9598,-1.96953 1.9037,-3.94669 2.8718,-5.91217 0.93761,-1.90106 1.87862,-3.80008 2.84763,-5.68539 0.94537,-1.83706 1.94974,-3.64183 2.97228,-5.43666 1.01478,-1.83425 2.13606,-3.60482 3.28086,-5.35969 1.23713,-1.89421 2.51654,-3.76045 3.79738,-5.62528 1.25812,-1.84526 2.55391,-3.66377 3.86783,-5.46949 1.36728,-1.81301 2.76775,-3.6008 4.17334,-5.3842 1.3603,-1.72876 2.73469,-3.44662 4.14873,-5.13177 1.35409,-1.59454 2.74632,-3.1559 4.17607,-4.68281 1.47174,-1.54803 3.01205,-3.0284 4.57285,-4.48583 1.63334,-1.52805 3.303,-3.01641 4.98142,-4.49455 1.67687,-1.46603 3.41399,-2.86044 5.14044,-4.26704 1.68882,-1.38888 3.40496,-2.74209 5.1482,-4.06173 1.75623,-1.33223 3.53972,-2.62768 5.31929,-3.92837 1.78778,-1.29408 3.53544,-2.64171 5.27179,-4.00357 1.5735,-1.23233 3.10521,-2.5159 4.62979,-3.80773 1.39253,-1.1821 2.74164,-2.41363 4.08359,-3.65241 0.79743,-0.73361 0.39669,-0.36335 1.20214,-1.11085 2.96182,-2.6987 -4.67124,-11.07599 -7.63305,-8.3773 v 0 c -0.78709,0.70321 -0.38593,0.34616 -1.20363,1.07096 -1.24007,1.10363 -2.47848,2.21022 -3.75568,3.27091 -1.44115,1.17266 -2.8858,2.34143 -4.37194,3.45705 -1.67275,1.26531 -3.34778,2.52814 -5.05641,3.74491 -1.85356,1.33802 -3.69177,2.69706 -5.51838,4.07164 -1.8344,1.39592 -3.64208,2.82642 -5.44359,4.26443 -1.85037,1.48531 -3.68437,2.99106 -5.47162,4.55221 -1.79341,1.55191 -3.55629,3.13846 -5.28719,4.75996 -1.75396,1.64443 -3.47433,3.32467 -5.10285,5.09463 -1.54066,1.66589 -3.06368,3.34835 -4.5344,5.07664 -1.51438,1.76839 -2.99532,3.56441 -4.4457,5.38572 -1.51571,1.90095 -3.02296,3.81061 -4.43631,5.78959 -1.36951,1.88203 -2.72524,3.77428 -4.05516,5.68452 -1.36612,1.96556 -2.71078,3.94621 -3.99114,5.96903 -1.23329,1.94741 -2.43234,3.91681 -3.56959,5.92211 -1.09098,1.9254 -2.13774,3.8748 -3.15604,5.83962 -1.01539,1.94045 -2.01529,3.88866 -2.98472,5.85258 -0.99214,1.98938 -1.93407,4.00339 -2.91391,5.9989 -0.95087,1.96747 -1.91619,3.92769 -2.88369,5.88703 -0.95346,1.91839 -1.92327,3.8286 -2.91402,5.72805 -1.01455,1.90494 -2.0412,3.80336 -3.08594,5.6919 -1.02412,1.84827 -2.06957,3.68498 -3.16096,5.49452 -1.12466,1.84928 -2.24626,3.70105 -3.43831,5.5081 -1.22245,1.88166 -2.46219,3.75205 -3.70933,5.61739 -1.17652,1.7294 -2.38431,3.4363 -3.64294,5.10723 -1.1484,1.54741 -2.29862,3.09332 -3.47453,4.6201 -1.04714,1.36985 -2.06531,2.76116 -3.09692,4.14258 -0.80788,1.10641 -1.61256,2.21525 -2.40425,3.3333 -0.66243,0.93184 -1.32093,1.86671 -1.95119,2.82072 -0.36359,0.54616 -0.73724,1.08612 -1.06717,1.65383 -2.27624,3.03501 6.30803,9.4732 8.58427,6.43822 z" /><path
         style="fill:#ffffff;fill-opacity:1;stroke:none;stroke-width:22.4367;stroke-dasharray:none;stroke-opacity:1"
         id="path176"
         d="m -170.38663,-910.77086 c -0.5944,-0.34382 -1.22524,-0.61449 -1.86001,-0.87312 -0.95638,-0.40741 -1.93428,-0.75634 -2.91832,-1.08985 -1.3451,-0.4304 -2.72036,-0.75673 -4.09806,-1.06301 -1.65118,-0.35261 -3.32311,-0.59725 -4.9906,-0.858 -2.10699,-0.33115 -4.2382,-0.44682 -6.36435,-0.57996 -2.24083,-0.13822 -4.48718,-0.1641 -6.7317,-0.16677 -2.40546,0.004 -4.80706,0.16791 -7.20218,0.37772 -2.35299,0.20884 -4.69522,0.51356 -7.02919,0.87474 -2.40875,0.36497 -4.78308,0.91535 -7.14529,1.50405 -2.45485,0.61754 -4.85941,1.41184 -7.24243,2.26081 -2.41054,0.87545 -4.76574,1.89243 -7.09685,2.959 -2.26047,1.02682 -4.47939,2.14246 -6.67254,3.30533 -2.38345,1.25066 -4.65316,2.69571 -6.87125,4.21621 -2.17736,1.51186 -4.26765,3.1414 -6.33532,4.79836 -2.13441,1.67862 -4.1339,3.51173 -6.06738,5.41538 -1.98443,1.9562 -3.78403,4.08427 -5.51701,6.26266 -1.66291,2.12749 -3.16315,4.37481 -4.58674,6.66734 -1.35531,2.17152 -2.49037,4.46538 -3.569,6.78318 -1.05468,2.19853 -1.80953,4.51538 -2.49428,6.84985 -0.62367,2.12172 -1.08042,4.27934 -1.34434,6.47385 -0.20101,2.38207 0.10353,4.75192 0.64939,7.06599 0.64415,2.24875 1.88577,4.22428 3.26776,6.08367 1.37383,1.81832 3.20784,3.15632 5.104,4.37602 1.72926,1.09903 3.62605,1.8682 5.54152,2.57075 1.81014,0.65775 3.66576,1.16927 5.53968,1.60702 1.97866,0.43702 3.99069,0.68379 6.00507,0.88154 2.20967,0.22691 4.4296,0.21267 6.64381,0.0824 2.37903,-0.15978 4.72896,-0.56671 7.06343,-1.03556 2.52172,-0.49982 4.98019,-1.24997 7.39989,-2.10857 2.51746,-0.92651 4.92862,-2.11037 7.32327,-3.31226 2.20021,-1.12472 4.3936,-2.26261 6.5928,-3.38929 2.10135,-1.08529 4.2147,-2.14701 6.32611,-3.21249 2.07928,-1.03132 4.16756,-2.04515 6.26255,-3.04419 2.2075,-1.04796 4.4201,-2.08507 6.63251,-3.12258 2.18653,-1.02717 4.39914,-1.99589 6.61856,-2.94921 2.14174,-0.92855 4.30063,-1.81785 6.48308,-2.64628 2.11129,-0.79256 4.25756,-1.4827 6.4121,-2.14622 2.02766,-0.64231 4.06501,-1.24519 6.14014,-1.71368 1.82145,-0.37733 3.68028,-0.50819 5.53571,-0.5646 1.71962,-0.0924 3.42194,0.0969 5.1117,0.39418 1.45002,0.2599 2.84231,0.71384 4.17478,1.334 1.15946,0.59256 2.2205,1.35168 3.21084,2.19247 0.89851,0.75901 1.61644,1.67984 2.25766,2.65777 0.66754,0.97205 1.05375,2.06917 1.33722,3.20352 0.28616,1.35779 0.34587,2.74788 0.34406,4.13123 -0.0169,1.47063 -0.29347,2.90989 -0.66375,4.32702 -0.4624,1.58631 -1.12423,3.10507 -1.86106,4.58081 -0.83839,1.63709 -1.8984,3.13955 -3.00971,4.59936 -1.1833,1.55268 -2.51672,2.97913 -3.96779,4.28241 -1.62093,1.4047 -3.31369,2.72185 -5.0693,3.95312 -1.75157,1.15165 -3.58129,2.18395 -5.4563,3.11994 -1.68501,0.80904 -3.43808,1.461 -5.21748,2.02758 -1.47491,0.37362 -2.97356,0.65937 -4.48883,0.80108 -1.20196,0.16364 -2.38456,0.008 -3.56562,-0.21286 -0.98137,-0.18373 -1.92791,-0.49067 -2.80441,-0.96771 -0.60512,-0.34415 -1.13279,-0.79211 -1.58238,-1.32096 -0.27649,-0.33367 -0.52318,-0.70411 -0.60178,-1.13628 -0.009,-0.59799 -0.0873,-1.26762 -0.10027,-1.89365 0.0452,-0.64146 0.23158,-1.27243 0.40276,-1.89161 0.26017,-0.86183 0.58208,-1.70281 0.92817,-2.53326 0.33041,-0.73435 0.72484,-1.43727 1.14195,-2.12529 0.34031,-0.56139 0.73471,-1.07339 1.22915,-1.50381 0.6795,-0.55391 1.39686,-1.05772 2.12726,-1.54157 0.84023,-0.55245 1.69755,-1.07786 2.58802,-1.54524 0.67558,-0.36688 1.40393,-0.60614 2.13587,-0.82992 3.75998,-1.11133 0.61667,-11.74615 -3.14331,-10.63485 v 0 c -1.41691,0.41084 -2.80545,0.91408 -4.12153,1.58679 -1.25279,0.6464 -2.47068,1.35696 -3.64956,2.13066 -1.32963,0.88913 -2.64019,1.81864 -3.78216,2.9459 -1.06076,1.10111 -2.02737,2.28208 -2.81791,3.59529 -0.71176,1.1489 -1.37106,2.33005 -1.91976,3.56671 -0.55612,1.2845 -1.06567,2.59059 -1.4501,3.93801 -0.45079,1.64549 -0.81682,3.32205 -0.78443,5.03965 0.0278,1.71873 0.14774,3.44426 0.6251,5.10521 0.63429,1.85762 1.49412,3.61043 2.79084,5.10516 1.36057,1.53509 2.87789,2.90897 4.68849,3.90229 1.89759,1.00052 3.89216,1.77202 6.00734,2.17548 2.19187,0.41119 4.40852,0.63424 6.63959,0.43096 2.31358,-0.18976 4.61588,-0.52819 6.8577,-1.14607 2.39846,-0.7016 4.76449,-1.51874 7.02306,-2.59731 2.43074,-1.18467 4.81918,-2.46875 7.03642,-4.02442 2.17674,-1.53768 4.3132,-3.14121 6.27449,-4.95033 1.92002,-1.81665 3.73898,-3.73972 5.32666,-5.85829 1.54126,-2.06868 2.99533,-4.20937 4.1134,-6.54214 1.05259,-2.21287 2.01209,-4.47623 2.6214,-6.85689 0.56401,-2.3435 0.97045,-4.72258 0.97413,-7.14148 -0.016,-2.42472 -0.16378,-4.8587 -0.80509,-7.21003 -0.67993,-2.27253 -1.56658,-4.46709 -2.91716,-6.43424 -1.25154,-1.83343 -2.64733,-3.56738 -4.34113,-5.01645 -1.77649,-1.49423 -3.64442,-2.88808 -5.75051,-3.89075 -2.22244,-1.02333 -4.52914,-1.84028 -6.94172,-2.2884 -2.47759,-0.45194 -4.98006,-0.7206 -7.50322,-0.64098 -2.59832,0.0772 -5.19786,0.2695 -7.74172,0.83656 -2.36216,0.53138 -4.69728,1.16779 -7.01423,1.87076 -2.39831,0.73266 -4.7835,1.51074 -7.13164,2.39263 -2.33694,0.88622 -4.6608,1.80522 -6.96096,2.78352 -2.3382,0.99959 -4.65546,2.04711 -6.96729,3.10613 -2.26131,1.05428 -4.5148,2.12516 -6.75069,3.23254 -2.12636,1.04241 -4.25457,2.08098 -6.37618,3.13304 -2.16478,1.06672 -4.34036,2.11209 -6.48459,3.2199 -2.15556,1.11257 -4.30328,2.24057 -6.47521,3.32108 -2.00716,0.99806 -4.01778,2.00038 -6.09494,2.84564 -1.85706,0.71157 -3.76565,1.28122 -5.70779,1.7118 -1.82457,0.3822 -3.66047,0.73301 -5.5189,0.90226 -1.59074,0.12909 -3.18958,0.21056 -4.78145,0.043 -1.53849,-0.13994 -3.07085,-0.33618 -4.5899,-0.62079 -1.39248,-0.29509 -2.76831,-0.66408 -4.11079,-1.14012 -1.14675,-0.42561 -2.30497,-0.84907 -3.36419,-1.46886 -0.75503,-0.47823 -1.55013,-0.95364 -2.16521,-1.60602 -0.51094,-0.66977 -0.95815,-1.38719 -1.33083,-2.14323 -0.36023,-0.88353 -0.22251,-1.94927 -0.30139,-2.88325 0.18011,-1.53797 0.63253,-3.02445 1.07327,-4.5044 0.54733,-1.76993 1.13485,-3.5339 1.9545,-5.19975 0.91143,-1.89349 1.86898,-3.76655 2.98699,-5.54836 1.20522,-1.91474 2.49407,-3.77378 3.87869,-5.56392 1.42705,-1.80991 2.92689,-3.56267 4.55815,-5.1933 1.63646,-1.6183 3.30035,-3.21339 5.12995,-4.61547 1.85944,-1.47881 3.73803,-2.93502 5.68804,-4.29353 1.84359,-1.2818 3.71705,-2.52613 5.69569,-3.59248 1.96558,-1.05921 3.96603,-2.05417 6.0093,-2.9555 2.05337,-0.9257 4.11693,-1.83449 6.22881,-2.61988 1.99908,-0.73472 4.01817,-1.41616 6.07896,-1.9589 2.02957,-0.50389 4.06692,-0.98205 6.13134,-1.32299 2.06601,-0.32753 4.14155,-0.58309 6.22682,-0.75422 2.07904,-0.17386 4.16,-0.34415 6.24674,-0.38833 2.01859,-0.0172 4.03531,0.031 6.05234,0.11398 1.84833,0.0888 3.69528,0.2032 5.54114,0.33324 1.43026,0.1406 2.84937,0.35796 4.26937,0.57722 1.0361,0.17296 2.06278,0.38915 3.07867,0.65767 0.73946,0.18307 1.46466,0.41294 2.17983,0.67548 0.49185,0.17344 0.98054,0.35574 1.47597,0.51888 3.47688,1.52982 7.80387,-8.30427 4.327,-9.83409 z" /></g></g></svg>
