<?xml version="1.0" encoding="UTF-8" standalone="no"?>
<!-- Created with Inkscape (http://www.inkscape.org/) -->

<svg
   width="133.52983mm"
   height="154.70561mm"
   viewBox="0 0 133.52983 154.70561"
   version="1.1"
   id="svg5"
   xml:space="preserve"
   xmlns="http://www.w3.org/2000/svg"
   xmlns:svg="http://www.w3.org/2000/svg"><defs
     id="defs2" /><g
     id="layer1"
     transform="translate(2127.2134,915.56003)"><path
       style="fill:#ffffff;fill-opacity:1;stroke:none;stroke-width:0.96467;stroke-opacity:1"
       d="m -2078.8187,-761.21426 c -1.5245,-0.32903 -4.5186,-0.63791 -6.653,-0.68641 -3.1052,-0.0707 -4.9044,-0.89077 -8.9993,-4.10325 -2.8152,-2.20829 -5.5003,-4.94426 -5.9671,-6.07993 -0.8597,-2.09153 -4.2958,-6.18121 -6.8971,-8.20927 -0.7825,-0.60992 -1.4229,-1.49578 -1.4229,-1.96852 0,-0.47277 -0.9647,-1.88504 -2.1436,-3.13839 -1.1794,-1.25335 -2.4811,-3.29435 -2.8926,-4.53555 -0.4107,-1.24117 -1.1182,-2.25669 -1.5704,-2.25669 -1.295,0 -6.8367,-10.46492 -8.5785,-16.19968 -3.1181,-10.26416 -3.5472,-13.4172 -3.142,-23.0858 0.5528,-13.18864 2.101,-19.15853 6.7006,-25.83726 2.1257,-3.08643 3.8649,-6.11139 3.8649,-6.72211 0,-1.42207 7.1557,-10.21373 11.3655,-13.96395 1.0674,-0.95072 1.9409,-1.97724 1.9409,-2.28118 0,-0.30387 0.9374,-1.31434 2.0837,-2.2454 1.9135,-1.55455 5.9696,-5.92311 10.1135,-10.89293 0.915,-1.0971 2.0185,-1.99542 2.4522,-1.99624 0.4342,-8.3e-4 3.0997,-1.70094 5.9235,-3.77807 2.824,-2.0771 5.5191,-3.77655 5.9902,-3.77655 0.4706,0 2.0465,-0.86615 3.502,-1.92481 8.571,-6.23453 18.4347,-10.66373 23.748,-10.66373 4.2883,0 5.1885,1.66269 1.907,3.52187 -2.3474,1.3298 -9.1409,7.85808 -9.1661,8.80765 0,0.37324 -1.5012,2.00044 -3.3146,3.61596 -1.8135,1.61552 -3.7408,3.34459 -4.2837,3.84239 -0.5426,0.4978 -1.8427,3.14137 -2.8888,5.87464 -1.046,2.73327 -2.2853,5.34725 -2.7538,5.80883 -1.1743,1.15759 -5.592,12.12452 -5.592,13.88322 0,0.7874 -0.7435,3.02728 -1.653,4.9775 -0.9091,1.95022 -1.9094,5.86868 -2.2228,8.70767 -0.3144,2.83899 -1.1123,6.71488 -1.7749,8.61305 -2.5904,7.41873 0.2012,19.26879 6.0513,25.69877 2.2192,2.43869 4.0351,4.88916 4.0351,5.44551 0,1.76803 8.0425,5.26821 12.1048,5.26821 2.1051,0 5.9818,-0.78924 8.6149,-1.75382 4.8087,-1.76197 11.4372,-6.93593 11.4372,-8.92783 0,-0.58722 0.4409,-1.06767 0.9794,-1.06767 0.5389,0 1.2506,-0.6609 1.5813,-1.46866 0.331,-0.80776 1.9697,-4.30109 3.6419,-7.76292 2.8414,-5.88311 3.046,-7.21103 3.1315,-20.32789 0.084,-13.05246 0.2515,-14.15588 2.4019,-15.78259 l 2.3104,-1.74903 4.3171,4.03331 c 2.3746,2.21831 6.0753,5.40102 8.224,7.07265 6.3938,4.9748 7.9411,6.65499 9.6736,10.50319 0.9069,2.01401 2.0426,3.66182 2.5237,3.66182 1.4639,0 4.6986,9.75168 6.2811,18.93387 0.6916,4.01291 -1.0972,12.10622 -3.4718,15.70875 -0.9212,1.3979 -1.6751,3.0386 -1.6751,3.64602 0,0.60743 -0.9916,2.44044 -2.2033,4.07338 -1.212,1.63293 -2.2157,3.24947 -2.2312,3.59226 -0.067,1.51021 -1.5896,4.11981 -3.6117,6.18999 -1.205,1.23321 -1.9501,2.75113 -1.656,3.37317 0.2934,0.62205 -1.2404,2.83043 -3.4097,4.90756 -16.5178,15.81622 -26.5913,21.02961 -43.6326,22.58116 -14.0762,1.28161 -20.0525,1.49996 -23.0936,0.84373 z m 27.6685,-10.49381 c 4.4101,-1.78005 5.1975,-1.8766 6.2743,-0.76938 1.7195,1.76837 3.7873,1.57606 7.5492,-0.70201 3.9884,-2.41557 3.3804,-5.23677 -0.9518,-4.41385 -4.8779,0.92661 -7.688,-0.66943 -11.1321,-6.32328 -5.2144,-8.55938 -10.6358,-10.50484 -16.631,-5.9678 -2.9094,2.20166 -3.0247,2.59761 -2.5041,8.60218 0.3018,3.46186 1.383,7.74857 2.4056,9.52605 1.7866,3.10474 2.0188,3.20922 5.9035,2.65765 2.2241,-0.31592 6.3128,-1.49007 9.0864,-2.60956 z m -27.1453,-1.39159 c -0.4292,-1.96173 -1.2678,-4.26819 -1.8634,-5.12553 -0.7293,-1.04933 -0.6869,-1.85842 0.1299,-2.47574 0.6664,-0.50433 1.2117,-1.55389 1.2117,-2.33237 0,-2.06371 7.0115,-13.32548 8.316,-13.35719 0.6103,-0.0159 2.2887,-0.96823 3.7308,-2.11862 4.2263,-3.37216 7.012,-3.4134 15.3743,-0.22743 6.2549,2.38319 7.939,3.49431 10.0914,6.65915 4.9688,7.30524 22.3659,11.38927 22.3659,5.25041 0,-1.10455 0.4988,-2.0083 1.1089,-2.0083 0.6098,0 1.1073,-0.47207 1.106,-1.04904 0,-0.57698 1.4563,-3.69265 3.2396,-6.92369 10.4431,-18.91947 11.1975,-34.99249 2.1961,-46.78741 -2.0255,-2.6541 -4.0669,-4.82563 -4.5367,-4.82563 -0.9305,0 -1.3646,1.23213 -3.0821,8.74681 -0.6248,2.73362 -1.8854,5.83601 -2.8016,6.89416 -0.9162,1.05815 -1.6659,2.60215 -1.6659,3.43109 0,1.96279 -8.9691,12.05906 -14.2318,16.01977 -3.9859,3.00006 -11.1424,6.13267 -16.8162,7.36071 -5.0434,1.09165 -12.077,0.43973 -14.4244,-1.33699 -1.2145,-0.91932 -2.9567,-1.67144 -3.8717,-1.67144 -0.9149,0 -1.6634,-0.36794 -1.6634,-0.81769 0,-0.44972 -1.4899,-1.40072 -3.3104,-2.11335 -1.9526,-0.76409 -3.6173,-2.23627 -4.0586,-3.5883 -0.4107,-1.26096 -1.9151,-3.70134 -3.3427,-5.42312 -1.427,-1.72174 -2.5946,-3.51559 -2.5946,-3.98637 0,-0.47074 -0.4493,-0.85591 -0.9983,-0.85591 -1.9404,0 -3.3888,-8.0736 -2.8608,-15.94547 1.14,-16.9911 2.0821,-21.85495 5.0762,-26.21474 0.5503,-0.80152 1.0037,-2.12328 1.0075,-2.93733 0,-0.81404 0.7522,-2.56176 1.6634,-3.88388 0.9112,-1.32212 1.6562,-2.79525 1.6562,-3.27367 0,-0.47839 2.5025,-4.80542 5.5607,-9.61563 3.0581,-4.81018 5.2767,-9.09287 4.9306,-9.51708 -0.3479,-0.42421 -1.9702,0.16938 -3.6088,1.3192 -1.6384,1.14979 -3.2815,2.09048 -3.652,2.09048 -1.6077,0 -5.5325,3.42577 -11.5386,10.07083 -3.546,3.92344 -6.8003,7.32234 -7.2316,7.55313 -1.2555,0.67216 -3.9679,5.10466 -5.9896,9.7878 -1.029,2.383 -2.5386,4.52674 -3.3549,4.76384 -1.6383,0.47582 -5.0548,5.1949 -5.0548,6.98196 0,0.62369 -1.1353,2.92603 -2.5225,5.11627 -2.3759,3.75009 -2.4777,4.61831 -1.7481,14.89233 0.4263,6.00054 1.3227,11.99425 1.9916,13.31932 0.6692,1.32513 1.6521,4.72403 2.1835,7.55313 0.8424,4.48185 9.3446,19.8475 12.5981,22.76782 1.2916,1.15905 5.1041,5.97348 8.3077,10.49044 4.227,5.95969 9.4996,10.85582 11.7213,10.88412 1.7836,0.0222 1.9404,-0.41924 1.2573,-3.54078 z m 14.1096,-52.2327 c -6.0425,-3.84797 -7.332,-7.21439 -7.0768,-18.47295 0.2263,-9.91649 2.0137,-17.50285 6.2345,-26.43592 4.4621,-9.44486 16.5502,-25.58109 22.7101,-30.31625 1.5753,-1.21101 4.1171,-3.28811 5.6485,-4.61581 3.7187,-3.22393 8.8136,-6.19053 10.6325,-6.19053 0.811,0 2.0544,0.81962 2.7626,1.82138 1.1157,1.57809 0.899,2.03583 -1.6244,3.42693 -1.6018,0.88307 -2.9122,2.14057 -2.9122,2.79443 0,0.65389 -0.6547,1.18887 -1.4548,1.18887 -1.689,0 -5.6389,3.79872 -6.7805,6.52031 -0.4317,1.02964 -1.2402,1.87204 -1.7966,1.87204 -1.1991,0 -5.492,6.12554 -5.492,7.83656 0,0.65424 0.7486,1.65968 1.6631,2.23427 2.0723,1.30166 2.1063,3.97016 0.084,6.7139 -8.9255,12.1177 -11.7431,18.33183 -9.1891,20.26496 2.4479,1.85252 4.1516,4.66757 5.9004,9.74933 0.8928,2.59481 2.1358,5.18484 2.7615,5.75563 0.7791,0.71038 0.7644,2.56763 -0.046,5.88714 -0.9119,3.7342 -2.0122,5.43305 -4.7832,7.38749 -7.3736,5.20022 -12.0314,5.89668 -17.2425,2.57822 z m 12.4493,-11.22763 c -0.3436,-1.67702 -0.7354,-3.61563 -0.8717,-4.308 -0.709,-3.60323 -3.5699,-9.23157 -4.6923,-9.23157 -1.3515,0 -2.8779,9.02153 -1.768,10.45247 0.3436,0.44071 0.7824,1.95133 0.9798,3.35694 0.4367,3.10927 3.3419,5.06234 5.5069,3.70232 0.9686,-0.60837 1.2569,-1.96237 0.8453,-3.97216 z"
       id="path1977-0" /></g></svg>
