<?xml version="1.0" encoding="UTF-8" standalone="no"?>
<!-- Created with Inkscape (http://www.inkscape.org/) -->

<svg
   width="132.41388mm"
   height="159.12169mm"
   viewBox="0 0 132.41388 159.12169"
   version="1.1"
   id="svg5"
   xml:space="preserve"
   xmlns="http://www.w3.org/2000/svg"
   xmlns:svg="http://www.w3.org/2000/svg"><defs
     id="defs2" /><g
     id="layer2"
     transform="translate(2580.783,601.18644)"><g
       id="g229"
       transform="translate(-452.48471,317.5)"
       style="fill:#ffffff;fill-opacity:1"><path
         style="fill:#ffffff;fill-opacity:1;stroke:none;stroke-width:22.4367;stroke-dasharray:none;stroke-opacity:1"
         id="path111"
         d="m -2051.0359,-918.54495 c -0.4125,0.13285 -0.8141,0.29972 -1.2188,0.4554 -0.5426,0.23146 -1.0853,0.46223 -1.6251,0.70035 -0.671,0.29258 -1.3414,0.58603 -2.0107,0.8826 -0.8224,0.36838 -1.6381,0.7512 -2.4512,1.13959 -0.8228,0.40695 -1.6514,0.8002 -2.4868,1.18046 -0.9214,0.43617 -1.8404,0.87754 -2.7594,1.31871 -0.961,0.46569 -1.9338,0.90593 -2.8969,1.36686 -1.034,0.50822 -2.0814,0.98777 -3.1204,1.48559 -1.2368,0.56941 -2.4451,1.19647 -3.6484,1.83261 -1.1703,0.63677 -2.3445,1.26613 -3.5101,1.9114 -1.2464,0.68506 -2.4553,1.43436 -3.6581,2.19242 -1.2791,0.80248 -2.5176,1.66674 -3.7415,2.55026 -1.224,0.85995 -2.4089,1.77126 -3.5768,2.70529 -1.0986,0.89453 -2.185,1.8039 -3.2593,2.72756 -1.0919,0.91173 -2.1504,1.86137 -3.1969,2.82461 -1.0576,0.96377 -2.0801,1.96459 -3.0953,2.97252 -0.9977,0.98009 -1.9478,2.00639 -2.9112,3.01963 -1.0028,1.07577 -1.9679,2.18573 -2.9177,3.30822 -0.9231,1.12609 -1.8248,2.26939 -2.7137,3.42252 -0.8683,1.1443 -1.7297,2.29343 -2.5719,3.45712 -0.8515,1.16795 -1.6597,2.36628 -2.4653,3.56603 -0.7996,1.18695 -1.5632,2.39734 -2.3376,3.60064 -0.8166,1.26447 -1.5969,2.55082 -2.3555,3.85061 -0.7981,1.32466 -1.5198,2.69274 -2.2491,4.0558 -0.7087,1.32662 -1.3872,2.6693 -2.0546,4.01714 -0.676,1.36829 -1.3,2.76069 -1.9001,4.1637 -0.5977,1.42308 -1.1379,2.86972 -1.6662,4.31969 -0.5229,1.44124 -0.9804,2.9047 -1.4189,4.37343 -0.451,1.49548 -0.8451,3.00736 -1.2094,4.52607 -0.3469,1.48264 -0.6421,2.97672 -0.9319,4.47138 -0.3212,1.54831 -0.5475,3.11282 -0.7607,4.67881 -0.2248,1.65364 -0.3585,3.31676 -0.4541,4.98221 -0.086,1.69836 -0.1095,3.39902 -0.071,5.09892 0.031,1.79334 0.2116,3.57801 0.4446,5.3549 0.2394,1.74024 0.5997,3.46104 0.9802,5.17504 0.402,1.83652 0.9869,3.62309 1.623,5.38969 0.6741,1.82237 1.4858,3.58767 2.3597,5.32157 0.838,1.69349 1.7579,3.34314 2.7208,4.96824 0.9864,1.65743 2.0632,3.2571 3.1587,4.84354 1.0808,1.55194 2.2074,3.07231 3.374,4.56078 1.1785,1.48362 2.4388,2.89864 3.7186,4.2948 1.3077,1.4089 2.6996,2.73613 4.1245,4.02513 1.3346,1.17279 2.7148,2.29163 4.1072,3.39463 1.3678,1.08259 2.7711,2.11841 4.2044,3.11235 1.431,1.00721 2.925,1.91812 4.4199,2.82596 1.5364,0.93326 3.1176,1.78739 4.7138,2.61284 1.5942,0.81785 3.2333,1.54368 4.8793,2.24959 1.5957,0.69067 3.2317,1.27828 4.8827,1.82068 1.5931,0.54459 3.2273,0.94332 4.8705,1.30111 1.7814,0.37336 3.5999,0.48744 5.4141,0.55708 1.702,0.0579 3.4005,-0.0704 5.0929,-0.23442 1.5432,-0.15306 3.0744,-0.40304 4.6061,-0.64095 1.5303,-0.2508 3.0563,-0.52758 4.577,-0.8309 1.5275,-0.32798 3.0477,-0.68964 4.5681,-1.04899 1.5589,-0.36799 3.1062,-0.78097 4.6491,-1.21029 1.5453,-0.42799 3.0818,-0.88714 4.6061,-1.38475 1.5054,-0.48119 2.9763,-1.06031 4.4518,-1.62438 1.4439,-0.55229 2.8682,-1.15292 4.2798,-1.7826 1.4001,-0.61582 2.7607,-1.31408 4.1283,-1.99726 1.3115,-0.65657 2.5979,-1.36181 3.8793,-2.07489 1.2605,-0.71152 2.479,-1.49355 3.6894,-2.28645 1.1684,-0.78346 2.2977,-1.62417 3.412,-2.4823 1.0662,-0.81486 2.0873,-1.68605 3.0943,-2.57235 1.0321,-0.89324 1.986,-1.86942 2.9253,-2.85806 0.9209,-0.96367 1.7786,-1.98324 2.6158,-3.0195 0.8843,-1.08006 1.6534,-2.24386 2.4007,-3.42046 0.7457,-1.17753 1.3885,-2.41493 2.0284,-3.65178 0.7071,-1.37131 1.2976,-2.79672 1.8494,-4.23611 0.517,-1.38274 0.9898,-2.78167 1.4557,-4.18229 0.4785,-1.41939 0.9006,-2.85663 1.3031,-4.29911 0.4499,-1.5512 0.812,-3.1251 1.1535,-4.703 0.3375,-1.61909 0.664,-3.24048 0.9229,-4.87413 0.2718,-1.69746 0.4199,-3.41132 0.5539,-5.12415 0.1374,-1.66611 0.1712,-3.33735 0.1523,-5.00822 -0.023,-1.68347 -0.1952,-3.35931 -0.398,-5.02904 -0.2098,-1.69059 -0.5312,-3.36445 -0.9162,-5.02314 -0.3815,-1.62357 -0.8731,-3.21861 -1.3776,-4.80738 -0.4751,-1.53686 -1.0372,-3.04419 -1.6326,-4.53781 -0.6214,-1.53329 -1.3414,-3.02332 -2.1184,-4.48297 -0.7658,-1.38737 -1.6037,-2.73328 -2.476,-4.05567 -0.8119,-1.23057 -1.6803,-2.42234 -2.5658,-3.6005 -0.887,-1.16575 -1.8434,-2.2765 -2.8205,-3.36709 -0.9146,-1.02269 -1.9002,-1.97691 -2.8905,-2.92512 -0.8511,-0.79976 -1.6906,-1.61171 -2.5391,-2.4143 -0.74,-0.6962 -1.4556,-1.41756 -2.1672,-2.14249 -0.7621,-0.77457 -1.5282,-1.54501 -2.3074,-2.30243 -0.5168,-0.50324 -0.2666,-0.25779 -0.7509,-0.73613 -2.8119,-2.72425 -10.5172,5.2291 -7.7053,7.95333 v 0 c 0.5171,0.49252 0.2675,0.2564 0.7485,0.70868 0.7,0.68125 1.3729,1.38952 2.0612,2.08251 0.8001,0.83524 1.6067,1.66428 2.4415,2.46518 0.8173,0.79147 1.6365,1.58104 2.4557,2.37069 0.7829,0.77287 1.5663,1.54625 2.2896,2.3763 0.7844,0.89056 1.5576,1.79081 2.2774,2.73505 0.7459,0.95504 1.4312,1.95432 2.0883,2.97241 0.684,1.04262 1.3369,2.1059 1.9363,3.19969 0.582,1.07532 1.1268,2.1708 1.5752,3.30962 0.4872,1.23917 0.947,2.48827 1.3335,3.76314 0.4107,1.33292 0.8067,2.6715 1.1412,4.02582 0.3009,1.25516 0.5914,2.51449 0.7383,3.79902 0.1538,1.24875 0.2743,2.50193 0.3076,3.76042 0.01,1.34003 -0.03,2.67988 -0.1508,4.01516 -0.1164,1.4383 -0.2827,2.8716 -0.4703,4.30228 -0.2078,1.4138 -0.4746,2.81633 -0.7902,4.21021 -0.2965,1.38406 -0.5968,2.76772 -0.947,4.13938 -0.3219,1.22766 -0.6852,2.44406 -1.0922,3.64635 -0.4357,1.26574 -0.8707,2.53191 -1.3317,3.78873 -0.4055,1.08024 -0.7868,2.1726 -1.3125,3.20241 -0.4546,0.9329 -0.9298,1.85671 -1.4759,2.74008 -0.5063,0.81185 -1.0227,1.6188 -1.6317,2.35897 -0.6498,0.80261 -1.3182,1.58999 -2.0348,2.33442 -0.7175,0.75242 -1.4381,1.50437 -2.2209,2.18996 -0.8073,0.71458 -1.6434,1.39575 -2.5029,2.04679 -0.91,0.68746 -1.8259,1.36808 -2.7705,2.00771 -0.9784,0.64315 -1.9735,1.26235 -2.9971,1.83126 -1.1376,0.62939 -2.2878,1.23626 -3.4529,1.81319 -1.2244,0.60849 -2.4532,1.20832 -3.6936,1.78339 -1.2228,0.54433 -2.4517,1.07493 -3.7072,1.5403 -1.3051,0.49536 -2.6153,0.97764 -3.942,1.41243 -1.3617,0.44304 -2.7319,0.85788 -4.1126,1.23822 -1.4158,0.3878 -2.8407,0.74126 -4.2604,1.11459 -1.3969,0.33607 -2.7947,0.67008 -4.2004,0.96766 -1.3626,0.28326 -2.7289,0.54895 -4.1011,0.7824 -1.2843,0.21129 -2.5726,0.40063 -3.8659,0.54848 -1.2076,0.10488 -2.418,0.19878 -3.6313,0.17372 -1.147,-0.043 -2.2932,-0.1238 -3.4296,-0.29133 -1.249,-0.27668 -2.49,-0.59317 -3.6968,-1.02187 -1.3445,-0.45977 -2.6797,-0.94594 -3.9814,-1.51758 -1.3921,-0.60335 -2.7663,-1.24618 -4.1259,-1.9196 -1.3623,-0.71221 -2.7208,-1.43521 -4.0519,-2.20408 -1.2989,-0.79661 -2.5852,-1.61462 -3.8487,-2.4665 -1.2157,-0.84707 -2.4335,-1.69466 -3.5774,-2.63822 -1.2233,-0.99763 -2.4371,-2.00665 -3.6202,-3.05186 -1.157,-1.01497 -2.2448,-2.10254 -3.3061,-3.21688 -1.093,-1.19772 -2.1602,-2.4179 -3.1736,-3.68427 -1.0238,-1.27971 -1.9967,-2.59869 -2.9151,-3.95632 -0.9554,-1.39388 -1.8926,-2.80069 -2.7824,-4.23762 -0.8417,-1.38252 -1.6255,-2.7982 -2.3378,-4.25214 -0.6818,-1.3366 -1.3355,-2.6887 -1.8626,-4.0953 -0.4876,-1.28789 -0.944,-2.58816 -1.241,-3.93568 -0.3159,-1.39718 -0.5938,-2.80331 -0.7966,-4.22174 -0.1906,-1.35557 -0.3455,-2.71619 -0.3754,-4.08636 -0.03,-1.40994 -0.01,-2.81924 0.065,-4.22794 0.072,-1.39186 0.1592,-2.78349 0.3395,-4.16639 0.1561,-1.30929 0.3504,-2.61549 0.6065,-3.90906 0.2832,-1.3712 0.5765,-2.74029 0.8816,-4.10678 0.2926,-1.28662 0.6069,-2.5681 0.9881,-3.83189 0.3927,-1.27058 0.7922,-2.53936 1.2401,-3.79184 0.4571,-1.26021 0.9359,-2.51259 1.44,-3.75484 0.5097,-1.20131 1.0251,-2.40051 1.611,-3.56724 0.6157,-1.22976 1.2591,-2.44557 1.9106,-3.65668 0.6872,-1.25645 1.3483,-2.5274 2.0602,-3.77023 0.6751,-1.16766 1.3775,-2.31881 2.1037,-3.45546 0.7124,-1.12472 1.3983,-2.26695 2.1566,-3.36193 0.7504,-1.10133 1.503,-2.20112 2.2785,-3.28496 0.7643,-1.06434 1.5407,-2.12042 2.3394,-3.15918 0.8013,-1.03208 1.6158,-2.05361 2.4381,-3.06892 0.8031,-0.96576 1.623,-1.91752 2.4744,-2.84115 0.8714,-0.93329 1.7491,-1.86087 2.6592,-2.7568 0.91,-0.90684 1.8404,-1.79311 2.7859,-2.66287 0.9464,-0.86966 1.8917,-1.74094 2.8759,-2.56813 0.9839,-0.83386 1.9828,-1.65021 2.9861,-2.46063 1.0159,-0.80708 2.0374,-1.60826 3.1106,-2.33886 1.0744,-0.75853 2.1442,-1.52466 3.2398,-2.25234 1.0053,-0.65165 2.0185,-1.29223 3.0665,-1.87381 1.085,-0.60928 2.1891,-1.18213 3.29,-1.76212 1.0972,-0.57592 2.1842,-1.17166 3.2917,-1.72789 1.0244,-0.50382 2.0491,-1.00672 3.0736,-1.51024 0.9587,-0.46617 1.9212,-0.92438 2.875,-1.40039 0.8865,-0.42836 1.7721,-0.85826 2.6561,-1.29164 0.851,-0.41207 1.7003,-0.82743 2.5509,-1.24037 0.7903,-0.37986 1.58,-0.76094 2.3649,-1.15194 0.6034,-0.30105 1.2013,-0.61302 1.8049,-0.91295 0.4431,-0.20452 0.8864,-0.40769 1.3327,-0.60513 0.4287,-0.18909 0.7076,-0.34488 1.1053,-0.51194 3.509,-1.43547 -0.5511,-11.3602 -4.0601,-9.92473 z" /><path
         style="fill:#ffffff;fill-opacity:1;stroke:none;stroke-width:22.4367;stroke-dasharray:none;stroke-opacity:1"
         id="path112"
         d="m -2028.9995,-863.90389 c 0.011,0.51133 0.027,1.02232 0.051,1.53318 0.018,0.54525 0.038,1.09046 0.063,1.63544 0.037,0.64609 0.038,1.29305 0.019,1.93972 -0.02,0.87392 -0.06,1.74701 -0.1022,2.62006 -0.037,1.02553 -0.1083,2.04896 -0.1803,3.07239 -0.068,1.00119 -0.1585,1.99793 -0.3163,2.9889 -0.1671,1.04772 -0.3786,2.08785 -0.6106,3.12293 -0.2699,1.13572 -0.5575,2.26721 -0.8529,3.39653 -0.2837,1.11758 -0.5942,2.22798 -0.927,3.33187 -0.3058,1.06064 -0.6741,2.10167 -1.0505,3.13891 -0.364,0.97296 -0.7975,1.91683 -1.2442,2.85388 -0.4608,0.96509 -1.0088,1.88217 -1.5667,2.79297 -0.6176,0.97962 -1.2472,1.95172 -1.9199,2.89443 -0.6524,0.8957 -1.3278,1.77655 -2.0503,2.61705 -0.7178,0.84601 -1.4707,1.66026 -2.2545,2.44523 -0.769,0.72276 -1.5668,1.4143 -2.3907,2.07362 -0.7961,0.61386 -1.67,1.11548 -2.5466,1.60324 -0.9466,0.5448 -1.9582,0.96091 -2.9638,1.38157 -0.9717,0.3978 -1.9544,0.77449 -2.9646,1.06268 -0.9165,0.25757 -1.8367,0.49016 -2.7804,0.61756 -0.963,0.12528 -1.9367,0.12755 -2.9062,0.13861 -0.9366,0 -1.8703,-0.0817 -2.799,-0.19592 -0.7624,-0.12475 -1.525,-0.28257 -2.2541,-0.54158 -0.7189,-0.26154 -1.3729,-0.66545 -2.0206,-1.06621 -0.9014,-0.56097 -1.7754,-1.1629 -2.6435,-1.77353 -0.7733,-0.53475 -1.4831,-1.14893 -2.1726,-1.78597 -0.7477,-0.70331 -1.45,-1.45163 -2.1301,-2.2198 -0.6993,-0.76927 -1.3468,-1.58043 -1.9482,-2.42781 -0.6204,-0.8721 -1.1569,-1.79801 -1.6651,-2.73855 -0.5538,-1.01975 -1.026,-2.07952 -1.4748,-3.14862 -0.4171,-1.05751 -0.6976,-2.16209 -0.9563,-3.26699 -0.2971,-1.26603 -0.4914,-2.55276 -0.6769,-3.8389 -0.1868,-1.25118 -0.3366,-2.5069 -0.3811,-3.77155 -0.034,-1.32075 -0.045,-2.6424 -0.023,-3.96343 0.046,-1.30406 0.1231,-2.60665 0.2378,-3.90642 0.1325,-1.37239 0.369,-2.73121 0.5901,-4.09122 0.2525,-1.48196 0.5536,-2.95516 0.8631,-4.42611 0.3214,-1.4722 0.6866,-2.93386 1.0804,-4.3882 0.402,-1.4806 0.8192,-2.9569 1.3128,-4.40983 0.5059,-1.47881 1.1283,-2.91307 1.7626,-4.34017 0.6759,-1.48236 1.3979,-2.94278 2.1396,-4.39307 0.7043,-1.37001 1.5095,-2.6852 2.3058,-4.0029 0.8162,-1.31271 1.6941,-2.58588 2.5729,-3.85718 0.8689,-1.26079 1.7816,-2.49047 2.7046,-3.71195 0.8739,-1.19287 1.8007,-2.34513 2.7205,-3.50255 0.8517,-1.08818 1.7412,-2.14585 2.6232,-3.20939 0.8285,-0.9992 1.6724,-1.98546 2.509,-2.97792 0.7565,-0.88188 1.5303,-1.74839 2.3088,-2.61072 0.7359,-0.80608 1.4804,-1.60406 2.2289,-2.39842 0.7127,-0.74875 1.4252,-1.49765 2.1422,-2.24221 0.6755,-0.71432 1.3644,-1.41574 2.0471,-2.12318 2.7161,-2.79823 -5.1984,-10.48067 -7.9146,-7.68244 v 0 c -0.6805,0.69612 -1.3681,1.38523 -2.0478,2.08217 -0.7544,0.76424 -1.5061,1.53114 -2.2502,2.30547 -0.8122,0.83912 -1.6181,1.68415 -2.4154,2.53764 -0.8776,0.94383 -1.7525,1.89056 -2.5921,2.86867 -0.8724,1.00462 -1.7496,2.00522 -2.608,3.02196 -0.9442,1.10848 -1.8949,2.21176 -2.8101,3.34455 -1.001,1.22343 -1.9859,2.45967 -2.9399,3.72031 -1.0388,1.34916 -2.0704,2.70438 -3.0387,4.10564 -1.0044,1.44383 -1.9824,2.906 -2.9183,4.39534 -0.9496,1.5294 -1.869,3.07829 -2.7103,4.67048 -0.882,1.65819 -1.7326,3.33375 -2.5038,5.04679 -0.7779,1.77128 -1.5068,3.56436 -2.1104,5.40353 -0.5341,1.66624 -1.0233,3.34566 -1.4818,5.03426 -0.4334,1.64563 -0.8203,3.30226 -1.193,4.96265 -0.3534,1.65182 -0.7048,3.30499 -0.9589,4.97573 -0.2617,1.63626 -0.4912,3.27819 -0.6243,4.93062 -0.1287,1.5362 -0.233,3.07485 -0.2753,4.61613 -0.042,1.58168 -0.051,3.1651 0.019,4.7462 0.089,1.61311 0.2419,3.22093 0.4678,4.82095 0.2286,1.63856 0.4943,3.2739 0.8795,4.88392 0.4102,1.68529 0.8741,3.36129 1.5588,4.95916 0.5985,1.44251 1.2562,2.8602 2.0049,4.23161 0.751,1.35001 1.5551,2.67055 2.466,3.91989 0.8495,1.14318 1.7322,2.26192 2.6856,3.32105 0.9328,1.01946 1.8877,2.02043 2.9012,2.9605 1.0359,0.94173 2.11,1.84039 3.2527,2.65131 1.0823,0.77242 2.1721,1.53612 3.3041,2.23475 1.3626,0.81468 2.775,1.55011 4.2834,2.05975 1.4226,0.46276 2.8722,0.84024 4.3581,1.03659 1.4256,0.18632 2.8584,0.32271 4.2979,0.3203 1.4888,-0.008 2.9798,-0.0463 4.455,-0.26741 1.459,-0.22776 2.9064,-0.52965 4.3234,-0.94893 1.3684,-0.41701 2.7191,-0.88784 4.0491,-1.41552 1.4284,-0.58269 2.8489,-1.1915 4.1907,-1.95779 1.4019,-0.79483 2.7792,-1.63819 4.0376,-2.65017 1.1519,-0.92358 2.2742,-1.88431 3.3241,-2.92372 0.9835,-0.99341 1.9493,-2.00549 2.847,-3.07801 0.9198,-1.08918 1.8113,-2.20324 2.6412,-3.36283 0.8319,-1.16728 1.6417,-2.35111 2.3778,-3.58187 0.7456,-1.23738 1.4564,-2.49545 2.0777,-3.80071 0.599,-1.25934 1.1641,-2.53471 1.6488,-3.84305 0.4474,-1.23023 0.8753,-2.46798 1.251,-3.72224 0.3733,-1.23486 0.7146,-2.47899 1.0501,-3.72454 0.3342,-1.27323 0.6613,-2.54876 0.9446,-3.83445 0.285,-1.31995 0.5608,-2.64353 0.749,-3.98137 0.1571,-1.26013 0.2815,-2.52394 0.3728,-3.7906 0.07,-1.13446 0.1182,-2.26997 0.1381,-3.40649 0.024,-0.99848 0.047,-1.99689 0.03,-2.99574 -0.012,-0.87101 -0.044,-1.74226 -0.1105,-2.61096 -0.048,-0.65723 -0.1037,-1.31432 -0.1931,-1.96734 -0.01,-0.0685 -0.1145,-0.89471 -0.1005,-0.55221 0,-3.78336 -10.7009,-3.78336 -10.7009,0 z" /><path
         style="fill:#ffffff;fill-opacity:1;stroke:none;stroke-width:22.4367;stroke-dasharray:none;stroke-opacity:1"
         id="path113"
         d="m -2025.3896,-915.61313 c -0.2596,0.15674 -0.5331,0.28916 -0.8036,0.42587 -0.6329,0.31129 -1.2499,0.64924 -1.8538,1.01349 -0.7334,0.4382 -1.4537,0.89853 -2.161,1.37782 -0.7667,0.52819 -1.5338,1.05561 -2.2825,1.60933 -0.863,0.62166 -1.7028,1.27338 -2.5272,1.94527 -0.8531,0.69675 -1.6894,1.41398 -2.5225,2.13457 -0.9421,0.77478 -1.8231,1.61835 -2.7183,2.4456 -1.0143,0.94459 -2.0054,1.91323 -2.9739,2.90452 -1.0047,1.03476 -1.9607,2.11479 -2.9086,3.2013 -0.961,1.07844 -1.8648,2.20551 -2.7841,3.31912 -0.9939,1.19279 -1.945,2.42091 -2.8816,3.65894 -0.9693,1.28487 -1.9277,2.57768 -2.8642,3.88668 -0.9775,1.37123 -1.9157,2.76961 -2.8587,4.16457 -0.9381,1.39734 -1.843,2.8167 -2.7376,4.24222 -0.9,1.4223 -1.7629,2.86777 -2.6135,4.32004 -0.8349,1.43708 -1.633,2.8951 -2.4203,4.35867 -0.7754,1.46439 -1.5107,2.94933 -2.2137,4.44965 -0.7374,1.57613 -1.3615,3.20032 -1.9603,4.83288 -0.5955,1.64545 -1.1031,3.3192 -1.547,5.01121 -0.4818,1.80867 -0.7293,3.66223 -0.937,5.51828 -0.1791,1.76443 -0.2151,3.53883 -0.2135,5.31096 0,1.67357 0.131,3.34195 0.3083,5.00486 0.1596,1.46605 0.3981,2.92015 0.6669,4.36943 0.2573,1.38292 0.6062,2.74518 1.0248,4.08736 0.3902,1.32136 0.931,2.58707 1.5334,3.8235 0.6888,1.42726 1.6392,2.68292 2.7084,3.84225 1.3052,1.36856 2.9347,2.25708 4.6881,2.90645 1.4156,0.49117 2.8985,0.67611 4.3877,0.73321 1.3529,0.0438 2.6843,-0.14719 3.9961,-0.45887 1.6327,-0.42262 3.0185,-1.34871 4.2944,-2.41517 1.0239,-0.87018 1.8648,-1.9127 2.6183,-3.0181 0.7733,-1.13498 1.2895,-2.40022 1.6979,-3.70379 0.3878,-1.23553 0.5445,-2.5209 0.6427,-3.80678 0.087,-1.23981 0.053,-2.48224 -0.012,-3.72189 -0.084,-1.1884 -0.1975,-2.37419 -0.323,-3.55883 -0.1281,-1.18626 -0.2924,-2.36768 -0.4668,-3.54785 -0.1933,-1.1566 -0.3722,-2.31548 -0.5586,-3.47319 -0.2046,-1.2142 -0.406,-2.42874 -0.5922,-3.64593 -0.1804,-1.2923 -0.3353,-2.58776 -0.4589,-3.8867 -0.1381,-1.29897 -0.1746,-2.60239 -0.1742,-3.90747 -0.01,-1.31951 0.061,-2.63734 0.1518,-3.95312 0.1023,-1.24859 0.2605,-2.49187 0.4429,-3.73105 0.169,-1.1608 0.4226,-2.3065 0.6998,-3.44556 0.3179,-1.18877 0.6311,-2.37871 0.969,-3.56198 0.3291,-1.17051 0.6739,-2.33643 1.0231,-3.50104 0.3806,-1.16343 0.7461,-2.33175 1.107,-3.50142 0.334,-1.08828 0.6899,-2.16948 1.0599,-3.24599 0.3577,-1.06063 0.7478,-2.10994 1.1461,-3.15587 0.1957,-0.52824 0.3966,-1.05457 0.5967,-1.58115 1.416,-3.66609 -8.9532,-7.67125 -10.3692,-4.00518 v 0 c -0.2162,0.55094 -0.4363,1.10045 -0.6405,1.65597 -0.4278,1.14292 -0.8598,2.28428 -1.2508,3.44051 -0.4125,1.18134 -0.8122,2.36696 -1.1878,3.56058 -0.3791,1.19346 -0.7628,2.38546 -1.1262,3.58386 -0.3731,1.20631 -0.7389,2.41483 -1.0953,3.62619 -0.4,1.35329 -0.7928,2.70915 -1.1295,4.07985 -0.3417,1.45024 -0.6633,2.9056 -0.8984,4.37756 -0.233,1.51466 -0.4371,3.03469 -0.5584,4.56282 -0.1272,1.59348 -0.2291,3.18982 -0.2303,4.78914 0,1.69553 0.073,3.38897 0.2587,5.07516 0.1664,1.49823 0.3565,2.99387 0.6124,4.47985 0.2072,1.26309 0.4379,2.52185 0.6691,3.78071 0.1983,1.07468 0.3869,2.15114 0.5585,3.23045 0.1551,1.01645 0.2836,2.03605 0.3917,3.05861 0.107,1.03325 0.2234,2.06558 0.3108,3.10076 0.057,0.73986 0.1272,1.4827 0.1036,2.22528 -0.031,0.46768 -0.053,0.94043 -0.1707,1.3961 -0.084,0.29154 -0.133,0.57806 -0.3226,0.82751 -0.168,0.29102 -0.3986,0.5407 -0.6427,0.76946 -0.3737,0.36335 -0.2193,0.15267 0.1217,0.14219 -0.2186,0.10358 -0.6165,0.0556 -0.8923,0.0721 -0.3561,-0.006 -0.7136,-0.0378 -1.0573,-0.13563 -0.1673,-0.0331 -0.1784,-0.0295 -0.32,-0.0579 -0.334,-0.33708 -0.6158,-0.71599 -0.8229,-1.14509 -0.3516,-0.72226 -0.6466,-1.47167 -0.8699,-2.24375 -0.2738,-0.90921 -0.4938,-1.83253 -0.6438,-2.77087 -0.1964,-1.16626 -0.3664,-2.33691 -0.4711,-3.51544 -0.1123,-1.28363 -0.2132,-2.57059 -0.2065,-3.86006 0.014,-1.37692 0.058,-2.75474 0.1775,-4.12692 0.1393,-1.31482 0.3129,-2.6276 0.6279,-3.91377 0.345,-1.35977 0.7833,-2.69166 1.2529,-4.01328 0.462,-1.3181 0.9679,-2.62183 1.5475,-3.89308 0.6049,-1.30863 1.261,-2.59212 1.9362,-3.86585 0.7176,-1.33731 1.4587,-2.66163 2.2392,-3.96346 0.8039,-1.3634 1.5963,-2.73389 2.4363,-4.07559 0.8177,-1.3194 1.6839,-2.60744 2.5559,-3.89144 0.8878,-1.32408 1.7536,-2.66313 2.6683,-3.96906 0.8492,-1.21283 1.7215,-2.40779 2.6116,-3.59101 0.8896,-1.16126 1.7875,-2.31598 2.6736,-3.47991 0.7868,-1.02245 1.6278,-2.00059 2.4688,-2.97865 0.8294,-0.95771 1.6808,-1.89547 2.5547,-2.81289 0.7961,-0.85577 1.6165,-1.6869 2.4584,-2.49788 0.8154,-0.76499 1.6299,-1.53111 2.4553,-2.28523 0.7269,-0.6563 1.4697,-1.29421 2.2337,-1.90704 0.6973,-0.58272 1.3998,-1.15924 2.1197,-1.71389 0.5926,-0.46199 1.2015,-0.89977 1.8225,-1.32313 0.5728,-0.39372 1.1458,-0.78684 1.7326,-1.15937 0.4619,-0.30047 0.9375,-0.57841 1.406,-0.8676 0.4195,-0.24704 0.8281,-0.51131 1.2286,-0.78822 3.2031,-2.02303 -2.5189,-11.08284 -5.722,-9.05981 z" /><path
         style="fill:#ffffff;fill-opacity:1;stroke:none;stroke-width:22.4367;stroke-dasharray:none;stroke-opacity:1"
         id="path114"
         d="m -2068.7349,-769.57596 c 0.1238,0.0498 0.067,0.008 0,-0.0666 -0.153,-0.12575 -0.2422,-0.28635 -0.3378,-0.45429 -0.3018,-0.37877 -0.5252,-0.80748 -0.7528,-1.23216 -0.3407,-0.62061 -0.6196,-1.27122 -0.8794,-1.92887 -0.3129,-0.7357 -0.5488,-1.49611 -0.7513,-2.26811 -0.1953,-0.88762 -0.3849,-1.77668 -0.5333,-2.67343 -0.1175,-0.85984 -0.1763,-1.7272 -0.204,-2.59426 -0.033,-0.85927 0,-1.71585 0.072,-2.57178 0.078,-0.87929 0.2303,-1.75035 0.3799,-2.61977 0.145,-0.85442 0.3323,-1.70048 0.5581,-2.53696 0.1856,-0.65503 0.3954,-1.30807 0.6965,-1.92019 0.2929,-0.5335 0.5833,-1.07381 0.9608,-1.55329 0.3885,-0.51522 0.836,-0.97843 1.2969,-1.42819 0.3828,-0.36489 0.7697,-0.73732 1.2201,-1.01891 0.2928,-0.18833 0.6109,-0.31335 0.9406,-0.41746 -0.085,0.006 0.3107,-0.0496 0.297,-0.0407 -0.1449,0.095 -0.3224,0.0635 -0.039,0.16626 0.8213,0.19436 1.6441,0.38425 2.4405,0.66622 1.0087,0.45344 1.9579,1.02709 2.9181,1.57321 1.1929,0.66448 2.3463,1.39002 3.4512,2.19176 1.1976,0.93657 2.3184,1.96704 3.4545,2.9764 1.2478,1.10003 2.4458,2.25378 3.6254,3.42604 1.2908,1.28691 2.6252,2.52905 3.9974,3.72848 1.3249,1.15409 2.7381,2.19919 4.1769,3.2054 1.3555,0.9579 2.765,1.82864 4.2332,2.60165 1.5889,0.83283 3.2844,1.42023 5.0013,1.92278 1.6315,0.44887 3.2982,0.7398 4.9767,0.93842 1.5339,0.16788 3.0746,0.21633 4.616,0.17976 0.2518,-0.0143 0.5037,-0.0283 0.7555,-0.0425 3.9348,-0.20232 3.3625,-11.33149 -0.5723,-11.12914 v 0 c -0.1481,0.006 -0.2962,0.0127 -0.4444,0.0193 -1.0135,0.0233 -2.0237,-0.0474 -3.0302,-0.16786 -1.0716,-0.12835 -2.1327,-0.3167 -3.1763,-0.59668 -0.983,-0.27919 -1.9562,-0.59844 -2.8759,-1.0495 -1.0298,-0.54896 -2.0166,-1.16406 -2.9522,-1.86396 -1.0949,-0.79442 -2.1712,-1.61722 -3.1792,-2.52064 -1.2203,-1.09929 -2.387,-2.25512 -3.562,-3.40225 -1.3179,-1.25947 -2.6348,-2.5201 -3.9776,-3.75303 -1.4544,-1.31067 -2.9333,-2.60133 -4.5421,-3.72198 -1.4258,-0.98541 -2.8846,-1.92373 -4.3881,-2.78688 -1.6026,-0.90815 -3.2466,-1.75334 -5.0068,-2.31725 -1.4922,-0.47521 -3.0039,-0.91125 -4.564,-1.09754 -1.7576,-0.15031 -3.5092,-0.08 -5.1863,0.52343 -1.219,0.4264 -2.3992,0.95226 -3.481,1.66515 -0.9945,0.674 -1.9442,1.40925 -2.8107,2.24393 -0.9043,0.87826 -1.7701,1.7975 -2.5224,2.81173 -0.7796,1.08998 -1.4981,2.22557 -2.0735,3.43844 -0.5363,1.18457 -1.0087,2.39774 -1.3445,3.65602 -0.3124,1.14834 -0.586,2.3065 -0.7801,3.48141 -0.2185,1.18787 -0.4047,2.38252 -0.5201,3.58524 -0.117,1.28545 -0.1682,2.57601 -0.1301,3.8668 0.035,1.36173 0.126,2.72169 0.3399,4.06845 0.2106,1.30506 0.4665,2.60368 0.8183,3.87884 0.3442,1.18068 0.7439,2.34339 1.2147,3.48012 0.4477,1.06042 0.9288,2.10783 1.5093,3.10338 0.5445,0.94776 1.1401,1.86642 1.8514,2.69941 0.5852,0.67911 1.2085,1.32321 1.9092,1.88521 0.5493,0.43958 1.1257,0.84653 1.7454,1.18197 3.3202,1.8261 8.4852,-7.56478 5.165,-9.39088 z" /></g></g></svg>
