<?xml version="1.0" encoding="UTF-8" standalone="no"?>
<!-- Created with Inkscape (http://www.inkscape.org/) -->

<svg
   width="155.70445mm"
   height="159.24339mm"
   viewBox="0 0 155.70445 159.24339"
   version="1.1"
   id="svg5"
   xml:space="preserve"
   xmlns="http://www.w3.org/2000/svg"
   xmlns:svg="http://www.w3.org/2000/svg"><defs
     id="defs2" /><g
     id="layer2"
     transform="translate(1971.3077,601.4514)"><g
       id="g232"
       transform="translate(-296.06,317.5)"
       style="fill:#ffffff;fill-opacity:1"><path
         style="fill:#ffffff;fill-opacity:1;stroke:none;stroke-width:22.4367;stroke-dasharray:none;stroke-opacity:1"
         id="path125"
         d="m -1605.2084,-915.3777 c 0.062,0.59856 0.164,1.19049 0.2653,1.78361 0.1475,0.77665 0.3877,1.53037 0.6196,2.2847 0.2477,0.7715 0.4874,1.54556 0.7352,2.31701 0.2979,0.9089 0.6555,1.79649 1.0072,2.68547 0.4354,1.13908 0.9703,2.23342 1.5497,3.30501 0.6436,1.13792 1.3084,2.26362 2.0075,3.36839 0.7376,1.16041 1.4838,2.31539 2.249,3.45792 0.8825,1.29169 1.7736,2.57728 2.6929,3.84309 1.0663,1.48977 2.1777,2.9472 3.3116,4.38598 1.2148,1.53823 2.4513,3.05906 3.6954,4.57358 1.3122,1.62489 2.6364,3.23951 3.9821,4.83688 1.4047,1.68121 2.8588,3.32002 4.3251,4.94752 1.4759,1.63798 3.0193,3.21294 4.5413,4.80759 1.6653,1.70693 3.4051,3.33914 5.1487,4.9653 1.8381,1.7149 3.7586,3.33706 5.6956,4.93818 1.8767,1.57292 3.829,3.052 5.7853,4.52366 1.876,1.40436 3.8057,2.73479 5.7399,4.05718 1.9127,1.32693 3.9076,2.52727 5.8992,3.73009 1.8777,1.12522 3.8044,2.16578 5.7255,3.21424 1.6807,0.90456 3.364,1.80419 5.0378,2.72142 1.3655,0.75999 2.7446,1.49514 4.1012,2.27106 0.8867,0.50665 1.743,1.0619 2.5853,1.63861 0.4253,0.28803 0.8433,0.5864 1.2571,0.89062 3.0659,2.45483 10.0093,-6.21692 6.9433,-8.67175 v 0 c -0.4866,-0.41312 -0.978,-0.82042 -1.4756,-1.22026 -1.0305,-0.8264 -2.056,-1.66211 -3.1437,-2.41305 -1.4522,-0.98383 -2.9497,-1.89455 -4.474,-2.76243 -1.6667,-0.96679 -3.341,-1.92022 -5.013,-2.87769 -1.7882,-1.02021 -3.5755,-2.04177 -5.3434,-3.09714 -1.7963,-1.07608 -3.5595,-2.20675 -5.3038,-3.36515 -1.771,-1.21044 -3.5103,-2.46766 -5.224,-3.75785 -1.7993,-1.37652 -3.5638,-2.798 -5.3143,-4.23582 -1.7873,-1.49778 -3.5444,-3.03147 -5.3039,-4.56163 -1.6271,-1.44304 -3.2152,-2.92844 -4.7919,-4.42614 -1.4433,-1.4003 -2.8016,-2.8844 -4.1533,-4.37266 -1.3849,-1.55017 -2.7486,-3.11946 -4.1122,-4.68828 -1.3225,-1.54871 -2.6349,-3.10611 -3.9532,-4.6582 -1.2167,-1.46543 -2.4416,-2.92413 -3.6398,-4.40484 -1.0708,-1.30892 -2.1587,-2.60366 -3.2116,-3.92724 -0.8471,-1.1076 -1.6981,-2.21273 -2.4942,-3.35809 -0.7355,-1.06968 -1.4723,-2.13868 -2.191,-3.21971 -0.5978,-0.89279 -1.1814,-1.79364 -1.7324,-2.71632 -0.3847,-0.64545 -0.8131,-1.27064 -1.0876,-1.97435 -0.2848,-0.65982 -0.527,-1.33638 -0.7846,-2.00707 -0.2445,-0.68641 -0.4842,-1.37436 -0.6978,-2.07119 -0.1847,-0.58137 -0.3675,-1.16694 -0.6096,-1.72728 -0.028,-0.0525 -0.253,-0.68077 -0.2032,-0.3633 -0.4704,-3.76277 -11.1131,-2.43245 -10.6427,1.33033 z" /><path
         style="fill:#ffffff;fill-opacity:1;stroke:none;stroke-width:22.4367;stroke-dasharray:none;stroke-opacity:1"
         id="path126"
         d="m -1587.572,-892.79557 c -0.2227,0.14116 -0.4517,0.36039 -0.6778,0.5357 -0.374,0.32573 -0.7511,0.64834 -1.1186,0.98137 -0.3707,0.332 -0.7301,0.67768 -1.1205,0.98684 -0.4943,0.37246 -0.9709,0.76719 -1.4704,1.13311 -0.6487,0.48614 -1.3175,0.94308 -1.9884,1.39782 -0.8513,0.57173 -1.6915,1.1599 -2.5441,1.72963 -0.8883,0.58566 -1.771,1.18017 -2.6974,1.70426 -1.0538,0.58698 -2.1075,1.17406 -3.1629,1.75821 -1.0966,0.60465 -2.2053,1.18647 -3.3175,1.76194 -1.2315,0.63087 -2.4655,1.25608 -3.6896,1.9014 -1.3472,0.69504 -2.6784,1.4196 -4.0029,2.15678 -1.3775,0.76975 -2.7182,1.60165 -4.0642,2.42438 -1.2686,0.773 -2.5198,1.57376 -3.7826,2.35598 -1.2172,0.74861 -2.4293,1.50548 -3.6504,2.24777 -1.1972,0.73358 -2.3981,1.46137 -3.6075,2.1749 -1.2178,0.71657 -2.4428,1.42025 -3.6749,2.11195 -1.2445,0.69414 -2.4943,1.3788 -3.7413,2.06849 -1.176,0.65215 -2.3646,1.2814 -3.5579,1.9013 -1.2027,0.61584 -2.4093,1.22407 -3.6126,1.83861 -1.1853,0.596 -2.3656,1.20163 -3.5489,1.80168 -1.1711,0.59748 -2.359,1.16179 -3.5443,1.73067 -1.2072,0.59531 -2.4183,1.18266 -3.6326,1.76355 -1.2329,0.591 -2.4705,1.17208 -3.7143,1.73972 -1.2759,0.56136 -2.5505,1.12553 -3.8308,1.67664 -1.3493,0.57263 -2.7125,1.11167 -4.0653,1.67621 -1.3255,0.56311 -2.6722,1.07416 -4.0096,1.60795 -1.225,0.49432 -2.4561,0.97277 -3.6922,1.43857 -0.205,0.0786 -0.4101,0.15727 -0.6152,0.2359 -3.7909,1.39123 0.1441,12.11355 3.935,10.72232 v 0 c 0.1925,-0.0673 0.385,-0.13457 0.5775,-0.20185 1.3255,-0.4627 2.6469,-0.93697 3.9609,-1.43156 1.4227,-0.53305 2.835,-1.09167 4.2443,-1.65917 1.4193,-0.57417 2.8257,-1.17827 4.2294,-1.78919 1.367,-0.58902 2.7265,-1.19539 4.0792,-1.8165 1.2887,-0.59746 2.5712,-1.20822 3.8471,-1.83253 1.2523,-0.596 2.4945,-1.21214 3.7426,-1.81692 1.1923,-0.59619 2.3747,-1.21222 3.5757,-1.79104 1.2177,-0.5918 2.4299,-1.19478 3.6407,-1.80052 1.2405,-0.6201 2.4676,-1.26661 3.7049,-1.89294 1.2578,-0.64703 2.5132,-1.2986 3.7627,-1.96143 1.3236,-0.69858 2.6429,-1.40568 3.946,-2.14207 1.309,-0.74234 2.606,-1.50532 3.8971,-2.27832 1.2328,-0.74243 2.4666,-1.48313 3.6993,-2.22571 1.244,-0.75813 2.4884,-1.51556 3.7282,-2.28047 1.2331,-0.762 2.4609,-1.5326 3.7063,-2.27449 1.2511,-0.75128 2.505,-1.49791 3.7597,-2.24313 1.2294,-0.70525 2.467,-1.39584 3.7135,-2.0704 1.1915,-0.63851 2.3784,-1.28545 3.5738,-1.9165 1.1868,-0.62199 2.3684,-1.25405 3.5498,-1.88614 1.2141,-0.66487 2.4263,-1.33644 3.5966,-2.07666 1.049,-0.68355 2.1115,-1.34737 3.1308,-2.07526 0.9082,-0.63357 1.8143,-1.27082 2.7021,-1.93273 0.7896,-0.59349 1.5718,-1.19642 2.3298,-1.8301 0.6071,-0.50376 1.2037,-1.02063 1.7838,-1.55538 0.4501,-0.40896 0.8929,-0.82571 1.3446,-1.2329 0.349,-0.32964 0.6885,-0.66829 1.0193,-1.01624 0.239,-0.23836 0.4536,-0.4971 0.7015,-0.72676 2.7601,-2.59773 -4.5874,-10.40447 -7.3475,-7.80674 z" /><path
         style="fill:#ffffff;fill-opacity:1;stroke:none;stroke-width:22.4367;stroke-dasharray:none;stroke-opacity:1"
         id="path127"
         d="m -1586.8835,-858.03636 c -0.5042,-0.2282 -1.028,-0.40333 -1.5577,-0.56115 -0.6161,-0.18164 -1.2413,-0.3275 -1.8707,-0.45458 -1.0917,-0.20294 -2.1994,-0.20863 -3.3037,-0.15179 -1.1834,0.0636 -2.3462,0.269 -3.4886,0.57763 -1.1009,0.32195 -2.1524,0.78317 -3.1693,1.30903 -0.9481,0.49673 -1.8223,1.11588 -2.6708,1.76451 -0.8352,0.64756 -1.579,1.39911 -2.288,2.17985 -0.6767,0.7594 -1.2753,1.58109 -1.8248,2.4357 -0.6773,1.06756 -1.1398,2.24176 -1.4936,3.45006 -0.3573,1.27939 -0.4368,2.60233 -0.4111,3.92311 0.033,1.29418 0.3094,2.5514 0.698,3.78015 0.3879,1.12879 0.9692,2.16974 1.5898,3.18349 0.9052,1.51792 2.2779,2.59403 3.6829,3.6104 1.0812,0.78912 2.2411,1.45844 3.4036,2.11807 1.0668,0.59907 2.1581,1.15192 3.2615,1.67989 1.1308,0.54936 2.2987,1.01563 3.4826,1.43632 1.2729,0.45942 2.5931,0.75039 3.9251,0.97261 1.3356,0.22707 2.6878,0.27956 4.0395,0.24879 1.452,-0.0225 2.8709,-0.28144 4.2647,-0.67178 1.3797,-0.40875 2.6601,-1.05952 3.8867,-1.8007 1.0937,-0.68355 2.0613,-1.53445 2.9665,-2.44716 1.1119,-1.12673 1.8647,-2.48875 2.429,-3.95298 0.4703,-1.32188 0.6194,-2.71269 0.6487,-4.10609 0.031,-1.32184 -0.1883,-2.6225 -0.4991,-3.90136 -0.3013,-1.18312 -0.7697,-2.31175 -1.2838,-3.41572 -0.5313,-1.11419 -1.1739,-2.16699 -1.883,-3.17553 -0.7017,-0.96525 -1.5391,-1.81679 -2.363,-2.67571 -0.749,-0.77927 -1.5586,-1.49735 -2.3709,-2.2094 -0.8514,-0.73694 -1.7307,-1.44023 -2.6473,-2.09423 -0.8929,-0.6096 -1.8352,-1.1398 -2.7873,-1.64981 -0.8653,-0.45537 -1.7583,-0.85272 -2.6682,-1.20941 -3.6125,-1.48529 -7.8136,8.73252 -4.201,10.21784 v 0 c 0.5127,0.23209 1.0161,0.48485 1.5039,0.76605 0.6203,0.35221 1.2309,0.72133 1.8328,1.10429 0.5587,0.33586 1.0289,0.78951 1.5251,1.20877 0.5822,0.53105 1.1555,1.07175 1.7259,1.61544 0.4839,0.5056 0.9537,1.02423 1.43,1.53689 0.3432,0.39978 0.5767,0.87061 0.8184,1.33604 0.2255,0.46043 0.421,0.9334 0.5784,1.42176 0.098,0.30499 0.1853,0.62487 0.1861,0.94584 -10e-5,0.17028 -0.016,0.40552 0.015,0.55152 0.068,-0.0732 0.3234,-0.36999 0.1158,-0.1216 -0.273,0.27995 -0.5913,0.51117 -0.9194,0.72247 -0.3562,0.23095 -0.7364,0.41783 -1.1393,0.55372 -0.4711,0.14787 -0.9469,0.23082 -1.4447,0.22212 -0.6463,0.0196 -1.2907,-0.0172 -1.93,-0.11983 -0.6717,-0.10801 -1.3407,-0.24522 -1.9817,-0.47781 -0.7866,-0.28041 -1.551,-0.61916 -2.3022,-0.98314 -0.8865,-0.44262 -1.7693,-0.89295 -2.6257,-1.39192 -0.8246,-0.46638 -1.6426,-0.9452 -2.431,-1.47111 -0.4893,-0.33981 -0.2412,-0.16362 -0.7438,-0.5293 -0.1022,-0.0717 -0.3839,-0.27948 -0.3365,-0.16407 0.068,0.16505 0.1858,0.30501 0.2698,0.46247 0.01,0.0169 -0.029,-0.0251 -0.043,-0.0378 -0.1809,-0.26757 -0.3206,-0.56129 -0.4764,-0.84167 -0.1042,-0.16671 -0.1292,-0.36009 -0.1332,-0.55393 0,-0.065 0.018,-0.64913 -0.024,-0.52292 0.062,-0.21818 0.119,-0.43767 0.2107,-0.64625 0.2004,-0.34372 0.4409,-0.66071 0.7046,-0.9585 0.2409,-0.28014 0.5055,-0.53925 0.7875,-0.77822 0.3289,-0.25456 0.6791,-0.47866 1.0326,-0.69739 0.3576,-0.18515 0.7262,-0.34729 1.1126,-0.46365 0.3025,-0.10449 0.7456,-0.17386 1.1517,-0.18315 0,0 1.0571,-0.045 0.8241,-0.16753 0.2059,-0.0628 0.4764,0.10538 0.6827,0.11959 0.033,0.008 0.6164,0.17235 0.4696,0.0927 3.5213,1.43462 7.5791,-8.52527 4.0577,-9.9599 z" /><path
         style="fill:#ffffff;fill-opacity:1;stroke:none;stroke-width:22.4367;stroke-dasharray:none;stroke-opacity:1"
         id="path128"
         d="m -1633.3326,-820.36723 c 0.262,-0.0287 -0.696,-0.09 -0.7283,-0.0921 -0.5715,-0.0396 -1.1442,-0.043 -1.7166,-0.0259 -0.7011,0.0185 -1.399,0.0871 -2.0955,0.16492 -0.9092,0.11943 -1.7963,0.3457 -2.674,0.60507 -0.8744,0.26057 -1.7238,0.59468 -2.5604,0.95666 -0.8861,0.39703 -1.7146,0.90617 -2.5302,1.42938 -0.7255,0.4717 -1.4154,0.99449 -2.0924,1.5325 -0.7657,0.60605 -1.4671,1.28513 -2.1262,2.00424 -0.6094,0.67741 -1.1549,1.40801 -1.6639,2.16271 -0.6109,0.87391 -1.0805,1.82731 -1.477,2.81379 -0.4605,1.12127 -0.6775,2.30796 -0.779,3.50959 -0.1149,1.38425 0.1575,2.73624 0.5838,4.04471 0.482,1.53977 1.4344,2.81122 2.5418,3.95383 1.0508,1.02481 2.3089,1.77324 3.6093,2.4321 1.0993,0.55496 2.2538,0.97933 3.4217,1.36292 1.1685,0.34864 2.3664,0.58513 3.569,0.77883 1.1377,0.17148 2.2863,0.25876 3.4344,0.32422 1.1018,0.0481 2.206,0.0432 3.3081,0.005 1.071,-0.0278 2.1378,-0.11377 3.2013,-0.24074 1.0739,-0.13856 2.1349,-0.35719 3.186,-0.61439 1.2073,-0.29731 2.3489,-0.78494 3.4518,-1.35041 1.0645,-0.55628 2.022,-1.2768 2.9222,-2.06576 0.8645,-0.7661 1.578,-1.67399 2.2178,-2.63033 0.6901,-1.05473 1.1159,-2.23454 1.4189,-3.4495 0.3173,-1.27429 0.2922,-2.57509 0.1277,-3.86736 -0.1736,-1.18174 -0.5588,-2.30537 -1.0356,-3.39506 -0.5322,-1.1163 -1.2685,-2.10904 -2.0639,-3.04855 -0.7197,-0.82931 -1.5272,-1.57221 -2.3704,-2.27304 -0.6795,-0.54271 -1.3714,-1.07003 -2.0678,-1.59089 -0.7885,-0.59467 -1.6083,-1.14247 -2.4584,-1.64467 -0.871,-0.50853 -1.7696,-0.96594 -2.6897,-1.37846 -0.7312,-0.3154 -1.4795,-0.58745 -2.2344,-0.83999 -3.695,-1.2898 -7.343,9.16125 -3.648,10.45101 v 0 c 0.4606,0.17272 0.9188,0.35206 1.3673,0.55446 0.5367,0.23487 1.0743,0.46607 1.5703,0.78206 0.4798,0.28098 0.9645,0.55353 1.3935,0.91138 0.5568,0.42968 1.1098,0.86437 1.6581,1.30474 0.3832,0.31885 0.7781,0.62746 1.1087,1.00306 0.1628,0.16923 0.2994,0.36798 0.4843,0.51345 -0.027,-0.3003 0.06,0.1528 0.1028,0.23731 0.055,0.16653 -0.01,-0.30507 0.075,-0.23728 0.01,-0.005 0.075,-0.0602 0.1138,-0.127 -0.092,0.14978 -0.218,0.27099 -0.3433,0.3932 -0.2334,0.20108 -0.4791,0.38878 -0.7473,0.54144 -0.3241,0.17378 -0.6653,0.3088 -1.0237,0.3951 -0.5972,0.15002 -1.2006,0.26967 -1.8142,0.33134 -0.7316,0.0829 -1.4655,0.13983 -2.2024,0.14108 -0.8017,0.0127 -1.6036,0.0124 -2.4051,-0.0146 -0.7727,-0.0379 -1.5435,-0.10713 -2.312,-0.19616 -0.6526,-0.0956 -1.2999,-0.21828 -1.9376,-0.38788 -0.6024,-0.1684 -1.1843,-0.40767 -1.741,-0.69215 -0.044,-0.022 -0.914,-0.47217 -0.9765,-0.46939 -0.025,0 0.017,0.0472 0.026,0.0708 0,0.0164 -0.028,0.0291 -0.022,0.0439 0,0 0.4077,0.72872 0.2429,0.53197 -0.1094,-0.31152 0,0.12999 -0.069,0.21178 -0.011,-0.0731 -0.048,-0.0706 0.031,-0.23845 0.086,-0.22137 0.1682,-0.44431 0.3141,-0.63598 0.2525,-0.34917 0.5029,-0.70117 0.7866,-1.02608 0.2317,-0.26651 0.4651,-0.52662 0.759,-0.72908 0.4067,-0.31435 0.8189,-0.62315 1.2465,-0.90853 0.3606,-0.23265 0.7252,-0.46008 1.1,-0.66926 0.371,-0.19093 0.77,-0.31491 1.1652,-0.44604 0.3717,-0.11271 0.7483,-0.20727 1.1225,-0.31152 0.3322,-0.0755 0.6691,-0.11319 1.0061,-0.16097 0.1795,-0.0119 0.517,-0.0275 0.7549,-0.01 0.3945,0.006 0.7888,-0.008 1.1833,-0.007 3.7917,0 3.7917,-10.72447 0,-10.72447 z" /><path
         style="fill:#ffffff;fill-opacity:1;stroke:none;stroke-width:22.4367;stroke-dasharray:none;stroke-opacity:1"
         id="path129"
         d="m -1544.4565,-823.28461 c -0.4386,-0.0355 -0.8767,-0.0257 -1.3153,0 -0.7034,0.0435 -1.3999,0.15611 -2.0892,0.29835 -0.7054,0.14954 -1.4035,0.33081 -2.0933,0.54028 -0.8138,0.24423 -1.6084,0.54676 -2.3883,0.88241 -0.8167,0.36242 -1.6011,0.79131 -2.3704,1.24433 -0.9321,0.55396 -1.7525,1.26336 -2.5368,2.006 -0.7809,0.73138 -1.4568,1.55818 -2.0844,2.42165 -0.5758,0.8297 -1.0496,1.72267 -1.4982,2.62556 -0.4146,0.83177 -0.7772,1.68677 -1.0977,2.55863 -0.4088,1.15631 -0.5639,2.37167 -0.619,3.58995 -0.038,1.94537 0.6268,3.7592 1.8742,5.25105 0.2102,0.25141 0.4538,0.47284 0.6807,0.70924 1.0946,1.03254 2.3981,1.78406 3.7479,2.42721 1.2423,0.60391 2.536,1.07339 3.8688,1.43076 1.4235,0.36502 2.8849,0.5321 4.3476,0.6337 1.3523,0.0917 2.7082,0.0664 4.0618,0.0286 1.2889,-0.0298 2.5741,-0.13398 3.8568,-0.25799 1.4546,-0.11454 2.8866,-0.38722 4.3037,-0.72562 1.5177,-0.35304 2.9688,-0.91599 4.3826,-1.56189 1.3575,-0.62497 2.6057,-1.44579 3.7934,-2.34619 1.1261,-0.86601 2.0769,-1.91561 2.9319,-3.04285 1.3205,-1.89272 1.8034,-3.80571 1.4111,-6.11536 -0.061,-0.36134 -0.1912,-0.70763 -0.2868,-1.06146 -0.6736,-1.97469 -1.8404,-3.43762 -3.3633,-4.83147 -1.3237,-1.15655 -2.8339,-2.05431 -4.3837,-2.86835 -1.5344,-0.75965 -3.1531,-1.33094 -4.7788,-1.85973 -1.4335,-0.45794 -2.8944,-0.82077 -4.3591,-1.16245 -1.3516,-0.29908 -2.7157,-0.53956 -4.0866,-0.72967 -3.9691,-0.59867 -5.6624,10.62765 -1.6933,11.22633 v 0 c 1.0514,0.17626 2.0971,0.38137 3.132,0.63867 1.1553,0.2811 2.3036,0.59193 3.4308,0.97222 1.0848,0.35668 2.1555,0.75472 3.2045,1.20697 0.7914,0.35759 1.5576,0.77137 2.2599,1.28532 0.055,0.0265 0.1043,0.0888 0.1646,0.0795 0.068,-0.0106 -0.1505,-0.47077 -0.073,-0.5003 -0.1375,-1.00605 -0.079,-2.1436 0.5599,-2.984 -0.2077,0.28742 -0.5111,0.50218 -0.7856,0.71925 -0.555,0.39256 -1.1364,0.7466 -1.7535,1.0338 -0.7504,0.33288 -1.5159,0.63871 -2.3184,0.82236 -0.9116,0.21052 -1.8281,0.42587 -2.7601,0.52054 -1.0285,0.0946 -2.06,0.15655 -3.0927,0.18195 -1.0107,0.0257 -2.0228,0.0506 -3.0333,0.008 -0.7732,-0.0429 -1.5492,-0.0843 -2.308,-0.25067 -0.6261,-0.13433 -1.2299,-0.31716 -1.7979,-0.62592 -0.09,-0.0428 -0.9935,-0.48303 -1.0156,-0.43651 -0.01,0.022 0.017,0.0455 0.026,0.0682 0.5154,0.76803 0.9021,1.64158 0.8268,2.58644 0.01,-0.0886 0.063,-0.37926 0.01,-0.23876 0.1833,-0.49213 0.4165,-0.9637 0.646,-1.43542 0.218,-0.43468 0.4406,-0.86688 0.6816,-1.28947 0.1197,-0.27012 0.353,-0.47448 0.5566,-0.68078 0.2093,-0.19595 0.4231,-0.38666 0.6391,-0.5751 0.3794,-0.25228 0.8132,-0.41867 1.2108,-0.63941 0.3757,-0.19064 0.7674,-0.34089 1.1732,-0.45506 0.4029,-0.13266 0.8033,-0.27197 1.2128,-0.3837 0.1739,-0.0646 0.3628,-0.088 0.5383,-0.15018 0.2081,-0.0262 0.2462,-0.0804 0.4498,-0.076 3.7875,0 3.7875,-10.71269 0,-10.71269 z" /><path
         style="fill:#ffffff;fill-opacity:1;stroke:none;stroke-width:22.4367;stroke-dasharray:none;stroke-opacity:1"
         id="path130"
         d="m -1606.2819,-819.19973 c 0.3436,0.25556 0.7255,0.45812 1.0971,0.67032 0.3538,0.23736 0.7376,0.43857 1.0731,0.70202 0.2359,0.27339 0.4703,0.54925 0.7025,0.82645 0.5023,0.58828 0.97,1.20439 1.4261,1.82867 0.4617,0.61788 0.8762,1.26582 1.2445,1.94291 0.4101,0.71967 0.7337,1.47942 1.0299,2.25116 0.3304,0.79563 0.5491,1.6207 0.7141,2.46351 0.1879,0.93829 0.2733,1.89145 0.3136,2.84615 0.034,1.0677 0,2.13561 -0.066,3.20132 -0.082,1.07429 -0.2411,2.14313 -0.4618,3.19741 -0.2383,1.15562 -0.513,2.30341 -0.8601,3.43125 -0.3621,1.16877 -0.787,2.31614 -1.2104,3.46366 -0.4017,1.08318 -0.8585,2.14434 -1.3337,3.19691 -0.4337,0.97883 -0.9155,1.93461 -1.4201,2.87838 -0.4827,0.87341 -0.9629,1.7509 -1.5149,2.58291 -0.5521,0.77703 -1.114,1.54776 -1.6977,2.30137 -0.505,0.6934 -1.0944,1.31271 -1.6891,1.92784 -0.5699,0.5965 -1.178,1.15414 -1.8021,1.69307 -0.1124,0.0952 -0.2249,0.19036 -0.3373,0.28553 -3.0431,2.54424 4.1531,11.15134 7.1961,8.60711 v 0 c 0.134,-0.11083 0.2679,-0.22164 0.4019,-0.33247 0.9058,-0.75883 1.789,-1.54504 2.6178,-2.38824 0.8833,-0.90186 1.7363,-1.83256 2.5181,-2.82493 0.8044,-1.02015 1.6094,-2.04282 2.3165,-3.13415 0.6871,-1.08616 1.3632,-2.18027 1.9809,-3.30784 0.6424,-1.17433 1.2553,-2.36467 1.8208,-3.5782 0.5757,-1.26561 1.1368,-2.53815 1.6554,-3.82844 0.5552,-1.41603 1.1025,-2.83713 1.5303,-4.29803 0.4279,-1.50204 0.8161,-3.01659 1.1052,-4.55213 0.2676,-1.53331 0.502,-3.07316 0.5982,-4.62838 0.091,-1.50913 0.1362,-3.02165 0.057,-4.53274 -0.1008,-1.54688 -0.2465,-3.09255 -0.5764,-4.6102 -0.3346,-1.48381 -0.7732,-2.94153 -1.3698,-4.34295 -0.5177,-1.22066 -1.0836,-2.42147 -1.7431,-3.57283 -0.6228,-1.05632 -1.2943,-2.08277 -2.0327,-3.06253 -0.6719,-0.87987 -1.3469,-1.7594 -2.1053,-2.56775 -0.84,-0.90657 -1.7414,-1.7603 -2.7685,-2.45472 -0.6988,-0.46596 -1.4163,-0.90107 -2.1717,-1.27043 -0.4654,-0.2313 -0.9229,-0.49921 -1.4289,-0.62989 -3.4008,-1.7004 -8.2102,7.9185 -4.8095,9.6189 z" /><path
         style="fill:#ffffff;fill-opacity:1;stroke:none;stroke-width:22.4367;stroke-dasharray:none;stroke-opacity:1"
         id="path131"
         d="m -1602.9187,-768.63989 c 0.11,-0.0249 0.2902,-0.0902 0.4235,-0.13875 0.222,-0.077 0.4527,-0.1378 0.6858,-0.17383 0.4719,-0.0858 0.9441,-0.1682 1.4196,-0.23247 0.6665,-0.0677 1.3367,-0.0914 2.0052,-0.13877 0.8727,-0.023 1.7463,-0.0284 2.6192,-0.0119 1.1011,0.0395 2.202,0.0822 3.3032,0.12002 1.1892,0.0483 2.3725,0.18515 3.5564,0.30157 1.243,0.1233 2.4873,0.23032 3.7273,0.38134 1.1754,0.14068 2.3366,0.37365 3.4971,0.60307 1.1482,0.22553 2.2844,0.50501 3.4188,0.79036 1.029,0.24633 2.0415,0.55026 3.0414,0.89488 0.8626,0.29527 1.7032,0.65317 2.521,1.05555 0.8568,0.45347 1.704,0.92485 2.5427,1.41102 0.8079,0.47649 1.6077,0.96759 2.3924,1.48138 0.6334,0.43151 1.2544,0.88141 1.8474,1.36694 0.27,0.22183 0.5296,0.45562 0.7888,0.68977 2.8976,2.68124 10.4813,-5.51434 7.5837,-8.1956 v 0 c -0.3999,-0.37594 -0.8006,-0.75131 -1.2197,-1.10609 -0.891,-0.74607 -1.8028,-1.46883 -2.7687,-2.11677 -0.9462,-0.63693 -1.9027,-1.25905 -2.8751,-1.85526 -1.0936,-0.65564 -2.1961,-1.29863 -3.3414,-1.86071 -1.2197,-0.58809 -2.4591,-1.13411 -3.7352,-1.58959 -1.264,-0.44429 -2.5375,-0.86011 -3.8319,-1.20798 -1.396,-0.39063 -2.8014,-0.7484 -4.2258,-1.02103 -1.3897,-0.25429 -2.7836,-0.48508 -4.1839,-0.67315 -1.3836,-0.18457 -2.7682,-0.36568 -4.1594,-0.48302 -1.3922,-0.11203 -2.7856,-0.19796 -4.1818,-0.24368 -1.2508,-0.0437 -2.5026,-0.0608 -3.7541,-0.0291 -1.1197,0.029 -2.2399,0.0502 -3.3558,0.15751 -1.019,0.0729 -2.0354,0.17381 -3.0426,0.34957 -0.8877,0.16314 -1.7704,0.35973 -2.6328,0.62809 -0.7185,0.23564 -1.4288,0.49475 -2.114,0.81635 -0.4875,0.23307 -0.9593,0.4935 -1.4118,0.78949 -3.2671,1.93058 2.1934,11.17139 5.4605,9.24084 z" /></g></g></svg>
