<?xml version="1.0" encoding="UTF-8" standalone="no"?>
<!-- Created with Inkscape (http://www.inkscape.org/) -->

<svg
   width="153.73997mm"
   height="128.39336mm"
   viewBox="0 0 153.73998 128.39336"
   version="1.1"
   id="svg5"
   xml:space="preserve"
   xmlns="http://www.w3.org/2000/svg"
   xmlns:svg="http://www.w3.org/2000/svg"><defs
     id="defs2" /><g
     id="layer2"
     transform="translate(800.91413,585.5468)"><g
       id="g238"
       transform="translate(-55.324215,317.5)"
       style="fill:#ffffff;fill-opacity:1"><path
         style="fill:#ffffff;fill-opacity:1;stroke:none;stroke-width:22.4367;stroke-dasharray:none;stroke-opacity:1"
         id="path161"
         d="m -738.72727,-873.81653 c 0.41974,-0.12176 0.85868,-0.20661 1.28432,-0.32438 1.47431,-0.45103 2.99127,-0.73144 4.50125,-1.03108 2.248,-0.47456 4.5086,-0.88363 6.76542,-1.31321 2.97439,-0.56054 5.9423,-1.14837 8.89958,-1.79358 3.4762,-0.77026 6.96412,-1.48513 10.45286,-2.19583 4.04064,-0.86566 8.12705,-1.47929 12.20838,-2.1136 4.83733,-0.78105 9.68838,-1.46746 14.54031,-2.15003 5.04256,-0.72657 10.08012,-1.48751 15.12742,-2.18064 4.76382,-0.63884 9.5305,-1.25444 14.30192,-1.83372 4.54353,-0.53108 9.09082,-1.03124 13.64094,-1.50239 4.12607,-0.3974 8.26423,-0.6572 12.40544,-0.82764 3.68432,-0.12372 7.36917,-0.0413 11.04979,0.13549 3.13627,0.16426 6.27174,0.34338 9.40628,0.53764 2.00697,0.13358 4.01614,0.22756 6.02565,0.31284 3.9788,0.2458 4.674,-11.00799 0.69519,-11.25379 v 0 c -1.94349,-0.1593 -3.88477,-0.34308 -5.82512,-0.53678 -3.20961,-0.30155 -6.41916,-0.60743 -9.63512,-0.8341 -4.04336,-0.26078 -8.09416,-0.39479 -12.1463,-0.28943 -4.39111,0.13697 -8.78012,0.35526 -13.15644,0.75041 -4.63417,0.43238 -9.26335,0.91588 -13.88647,1.4541 -4.84306,0.55827 -9.68525,1.12747 -14.51805,1.76945 -5.09318,0.68128 -10.18726,1.35779 -15.26818,2.12651 -4.91707,0.74832 -9.82562,1.55152 -14.72854,2.38752 -4.24934,0.74221 -8.49074,1.53445 -12.7051,2.45692 -3.51629,0.78073 -7.02686,1.58631 -10.53346,2.40948 -2.88997,0.66466 -5.77377,1.357 -8.67363,1.97747 -2.27271,0.51247 -4.55279,0.9914 -6.8268,1.49794 -1.88465,0.43749 -3.75446,0.93782 -5.5807,1.58112 -1.31781,0.48686 -2.63318,1.01682 -3.7855,1.83632 -3.16322,2.10883 2.80141,11.0558 5.96466,8.94699 z" /><path
         style="fill:#ffffff;fill-opacity:1;stroke:none;stroke-width:22.4367;stroke-dasharray:none;stroke-opacity:1"
         id="path162"
         d="m -729.55385,-831.46804 c 0.49644,-0.28561 0.97364,-0.6037 1.47654,-0.8809 0.87971,-0.49586 1.82851,-0.85257 2.75077,-1.25929 1.30444,-0.60917 2.68496,-1.01965 4.05328,-1.45512 1.86931,-0.68123 3.82791,-1.02894 5.77659,-1.39137 2.7322,-0.51094 5.49625,-0.8219 8.25019,-1.18874 3.18124,-0.41074 6.38347,-0.6285 9.57781,-0.91118 3.50075,-0.30728 7.00929,-0.51654 10.51605,-0.74274 3.72766,-0.24402 7.45919,-0.4214 11.18918,-0.62484 3.84048,-0.20759 7.68376,-0.35935 11.52675,-0.51236 3.88443,-0.1514 7.76785,-0.32711 11.65355,-0.44297 3.86477,-0.099 7.72956,-0.19404 11.5947,-0.27707 3.69017,-0.0874 7.38029,-0.17833 11.07038,-0.26881 3.32851,-0.076 6.65837,-0.0542 9.98665,0.0201 3.12965,0.0745 6.2552,0.25395 9.37945,0.44522 2.85879,0.1742 5.71119,0.43907 8.55628,0.76591 2.11193,0.25731 4.21809,0.55965 6.32394,0.86218 3.97721,0.63156 5.7635,-10.61773 1.78628,-11.24927 v 0 c -2.24298,-0.38907 -4.48778,-0.77298 -6.74722,-1.05531 -3.03758,-0.37368 -6.08147,-0.69977 -9.13524,-0.91001 -3.28483,-0.24231 -6.5736,-0.42328 -9.8656,-0.53483 -3.50102,-0.1 -7.00376,-0.15158 -10.50615,-0.0978 -3.69983,0.0488 -7.39969,0.1012 -11.09925,0.16782 -3.9025,0.0811 -7.80534,0.15526 -11.70696,0.27289 -3.93052,0.12314 -7.86056,0.26432 -11.7896,0.42834 -3.88498,0.17163 -7.76896,0.36258 -11.65243,0.56509 -3.78455,0.19349 -7.56677,0.42439 -11.34759,0.68088 -3.58537,0.24577 -7.16759,0.52499 -10.74748,0.84103 -3.36764,0.28766 -6.73041,0.62704 -10.07938,1.08768 -3.02908,0.39589 -6.05509,0.83333 -9.04282,1.4787 -2.36019,0.52729 -4.69688,1.14753 -6.97749,1.95829 -1.71836,0.58415 -3.40431,1.24976 -5.05026,2.01623 -1.31691,0.59817 -2.63647,1.20142 -3.86053,1.97805 -0.92694,0.58354 -1.84772,1.18361 -2.66798,1.91394 -2.94172,2.40687 3.8659,10.72727 6.80759,8.32044 z" /><path
         style="fill:#ffffff;fill-opacity:1;stroke:none;stroke-width:22.4367;stroke-dasharray:none;stroke-opacity:1"
         id="path163"
         d="m -735.29324,-774.9533 c 0.72901,-0.37608 1.49177,-0.6704 2.24655,-0.99039 1.52564,-0.67866 3.10129,-1.23172 4.66609,-1.81084 1.94508,-0.73514 3.92591,-1.36945 5.89745,-2.02869 2.21557,-0.79729 4.49837,-1.37514 6.77225,-1.97622 2.69214,-0.74028 5.41787,-1.34739 8.13933,-1.96787 2.93441,-0.6741 5.89547,-1.22288 8.85377,-1.77972 3.24004,-0.62047 6.48994,-1.18748 9.73524,-1.7793 3.34317,-0.63687 6.70245,-1.18194 10.05494,-1.76612 3.34303,-0.60221 6.69538,-1.15014 10.04855,-1.69243 3.49189,-0.48435 6.97415,-1.03804 10.47195,-1.47846 3.6808,-0.46228 7.36425,-0.90112 11.05498,-1.27654 3.71416,-0.40558 7.42582,-0.83002 11.1444,-1.19367 3.59201,-0.35613 7.18603,-0.68937 10.78151,-1.00859 3.41691,-0.30403 6.8363,-0.58409 10.25819,-0.82597 3.24196,-0.23159 6.48734,-0.40662 9.73309,-0.57402 2.89039,-0.15428 5.78255,-0.27218 8.67627,-0.33814 0.4385,-0.009 0.87702,-0.018 1.31551,-0.0272 4.05577,-0.035 3.95682,-11.50638 -0.0989,-11.4714 v 0 c -0.45927,0 -0.91856,-0.003 -1.37785,-0.004 -3.01667,0.018 -6.03266,0.10255 -9.04708,0.21865 -3.33613,0.13372 -6.67099,0.29406 -10.00257,0.51636 -3.48946,0.23265 -6.97566,0.50686 -10.46131,0.79074 -3.6503,0.30218 -7.29975,0.61711 -10.94539,0.97139 -3.74602,0.37851 -7.49197,0.75885 -11.23508,1.16533 -3.79582,0.42481 -7.59249,0.84846 -11.37621,1.3725 -3.58995,0.51763 -7.18442,1.00766 -10.76235,1.60464 -3.40088,0.55097 -6.80125,1.10551 -10.19514,1.69818 -3.38386,0.59227 -6.76661,1.1903 -10.14653,1.80475 -3.28316,0.60401 -6.56154,1.23364 -9.83951,1.8651 -3.08242,0.61357 -6.16363,1.23534 -9.22549,1.94588 -2.87409,0.6641 -5.74659,1.33733 -8.58002,2.16201 -2.46959,0.69638 -4.91553,1.46267 -7.33867,2.30759 -2.09806,0.70239 -4.18298,1.44105 -6.24596,2.24134 -1.81864,0.68826 -3.6235,1.41528 -5.36012,2.29418 -1.17988,0.57996 -2.34518,1.19427 -3.4109,1.96984 -3.20357,2.05029 2.59548,11.11134 5.79906,9.06106 z" /></g></g></svg>
