<?xml version="1.0" encoding="UTF-8" standalone="no"?>
<!-- Created with Inkscape (http://www.inkscape.org/) -->

<svg
   width="132.65327mm"
   height="163.60533mm"
   viewBox="0 0 132.65328 163.60533"
   version="1.1"
   id="svg5"
   xml:space="preserve"
   xmlns="http://www.w3.org/2000/svg"
   xmlns:svg="http://www.w3.org/2000/svg"><defs
     id="defs2" /><g
     id="layer2"
     transform="translate(-480.25093,603.56981)"><g
       id="g244"
       transform="translate(292.214,317.5)"
       style="fill:#ffffff;fill-opacity:1"><path
         style="fill:#ffffff;fill-opacity:1;stroke:none;stroke-width:22.4367;stroke-dasharray:none;stroke-opacity:1"
         id="path190"
         d="m 220.55682,-766.88346 c 0.0209,-0.0236 0.0629,-0.10218 0.0628,-0.0707 -5e-5,0.0423 -0.20425,0.2336 -0.0911,0.1411 0.10728,-0.0877 0.19505,-0.21007 0.2876,-0.3131 0.14992,-0.15928 0.27909,-0.33798 0.42444,-0.50366 0.18428,-0.24421 0.37499,-0.483 0.55719,-0.72872 0.23386,-0.30054 0.43861,-0.62172 0.64169,-0.94335 0.25676,-0.39899 0.50129,-0.80539 0.73838,-1.21628 0.31669,-0.53684 0.58416,-1.09898 0.84059,-1.66635 0.2678,-0.61251 0.50638,-1.23666 0.73191,-1.86574 0.29753,-0.77541 0.51633,-1.5772 0.73087,-2.37849 0.21533,-0.84112 0.40162,-1.68916 0.58057,-2.5386 0.19786,-0.96631 0.33537,-1.94313 0.46598,-2.92029 0.14048,-1.05825 0.22549,-2.1223 0.29533,-3.18717 0.0894,-1.16163 0.10327,-2.32587 0.096,-3.49028 8e-4,-1.22547 -0.0663,-2.44864 -0.14898,-3.67083 -0.0769,-1.24526 -0.21165,-2.48544 -0.35724,-3.72419 -0.14052,-1.2274 -0.31455,-2.45049 -0.49449,-3.6726 -0.18992,-1.25677 -0.40498,-2.50958 -0.63501,-3.75955 -0.24445,-1.27309 -0.54862,-2.53365 -0.87234,-3.78859 -0.32569,-1.27688 -0.70289,-2.53963 -1.11458,-3.79116 -0.41687,-1.2808 -0.92463,-2.52902 -1.4559,-3.76584 -0.53129,-1.26625 -1.16623,-2.48156 -1.84222,-3.67523 -0.63318,-1.13135 -1.31752,-2.23215 -2.02771,-3.31639 -0.66179,-0.98478 -1.35454,-1.94831 -2.06305,-2.89986 -0.70655,-0.92818 -1.39998,-1.86637 -2.11581,-2.78741 -0.71012,-0.90892 -1.46214,-1.78337 -2.18833,-2.67922 -0.70664,-0.87858 -1.40803,-1.76123 -2.12291,-2.63314 -0.72348,-0.8832 -1.46766,-1.74918 -2.20824,-2.61802 -0.61527,-0.71692 -1.23674,-1.42407 -1.78189,-2.19615 -0.46773,-0.66334 -0.87894,-1.36279 -1.27404,-2.07095 -0.43327,-0.74517 -0.76869,-1.53667 -1.09959,-2.33045 -0.35218,-0.88511 -0.67803,-1.78075 -0.99573,-2.67877 -0.30994,-0.88284 -0.57769,-1.77919 -0.82796,-2.68047 -0.24091,-0.88738 -0.45243,-1.78226 -0.64381,-2.68152 -0.18341,-0.86964 -0.32921,-1.74633 -0.46346,-2.62464 -0.12788,-0.80627 -0.18918,-1.61981 -0.22703,-2.43454 -0.0499,-0.83122 -0.0407,-1.6637 -0.0285,-2.49574 0.0214,-0.85317 0.0775,-1.70492 0.13056,-2.55656 0.0478,-0.83444 0.12524,-1.66695 0.21364,-2.49798 0.0789,-0.74049 0.21076,-1.47344 0.34173,-2.20605 0.1049,-0.65301 0.28549,-1.28923 0.46363,-1.92497 0.1646,-0.62011 0.38527,-1.22166 0.61298,-1.8206 0.23071,-0.59796 0.47593,-1.1906 0.74316,-1.77316 0.23432,-0.5044 0.48928,-0.9983 0.7695,-1.47865 0.2772,-0.48694 0.57589,-0.96041 0.8864,-1.42655 0.26639,-0.40344 0.56492,-0.78391 0.86841,-1.15972 0.31681,-0.36145 0.65259,-0.70597 0.98335,-1.05463 0.32221,-0.34129 0.65722,-0.66876 1.01228,-0.97563 0.35755,-0.30734 0.72287,-0.60539 1.09625,-0.89323 0.36241,-0.28139 0.74085,-0.54099 1.12627,-0.7896 0.39102,-0.26257 0.78864,-0.51403 1.19587,-0.75057 0.35953,-0.20449 0.74438,-0.3584 1.12048,-0.52948 0.41334,-0.18143 0.83452,-0.34261 1.26226,-0.48639 0.46882,-0.14909 0.93577,-0.30268 1.41138,-0.42896 0.4437,-0.12907 0.90457,-0.1795 1.36041,-0.24588 0.58606,-0.0901 1.17311,-0.17307 1.76139,-0.24728 0.58342,-0.0678 1.16537,-0.14555 1.75193,-0.18055 0.50556,-0.045 1.01358,-0.0325 1.52046,-0.0305 0.42255,-0.005 0.84434,0.0214 1.26299,0.0775 0.35109,0.049 0.69138,0.15086 1.03205,0.24553 0.40941,0.12618 0.81388,0.26792 1.21313,0.42315 0.37916,0.15856 0.75066,0.33499 1.119,0.51707 0.38098,0.19558 0.75758,0.40111 1.12423,0.62249 0.2946,0.17587 0.57741,0.36983 0.84783,0.58079 0.26092,0.19534 0.49761,0.41907 0.73307,0.64362 0.21675,0.2072 0.42538,0.42323 0.60379,0.66461 0.1491,0.19547 0.27357,0.40759 0.38486,0.62629 0.069,0.13793 0.11802,0.28446 0.15543,0.43373 0.0211,0.0249 0.0476,0.26657 0.0226,0.21408 -0.0279,-0.0899 -0.0919,0.23283 -0.0949,0.24445 -0.0418,0.17296 -0.11266,0.33311 -0.22018,0.47482 -0.19247,0.27715 -0.37849,0.55853 -0.57521,0.8328 -0.22367,0.33295 -0.52442,0.59851 -0.81219,0.87336 -0.40313,0.37042 -0.77392,0.78386 -1.22333,1.09961 -0.4844,0.35267 -0.98534,0.68109 -1.49384,0.99777 -0.62622,0.38391 -1.26106,0.75303 -1.89958,1.11599 -0.61288,0.33311 -1.22935,0.66098 -1.8612,0.95681 -0.54313,0.26353 -1.1061,0.48231 -1.67682,0.67763 -0.53274,0.17229 -1.07167,0.32512 -1.61649,0.45415 -0.26116,0.0831 -0.52295,0.0951 -0.79274,0.0941 -0.25598,0.008 -0.50148,-0.0437 -0.74996,-0.0963 -0.39374,-0.087 -0.77856,-0.20873 -1.16183,-0.33293 -3.77912,-1.34712 -7.58938,9.34186 -3.81026,10.68899 v 0 c 0.75515,0.28466 1.51733,0.55279 2.29941,0.75491 1.04481,0.26244 2.10587,0.45921 3.18607,0.48725 1.16844,0.0278 2.33413,-0.0435 3.4797,-0.29093 0.96256,-0.19804 1.92237,-0.41588 2.85654,-0.72457 0.96932,-0.3198 1.92774,-0.66939 2.85784,-1.09185 0.91809,-0.41571 1.832,-0.84233 2.71035,-1.33816 0.88628,-0.48839 1.76421,-0.99383 2.60954,-1.55083 0.88546,-0.59825 1.74899,-1.22928 2.55209,-1.93595 0.70625,-0.6372 1.41366,-1.27477 2.06385,-1.97028 0.66843,-0.72757 1.3042,-1.48378 1.86044,-2.3019 0.54377,-0.78602 1.06446,-1.59033 1.47374,-2.45644 0.42185,-0.92991 0.78347,-1.88727 1.0056,-2.88653 0.22819,-1.03465 0.38504,-2.08629 0.35237,-3.14941 -0.052,-1.05775 -0.17735,-2.11064 -0.487,-3.12777 -0.29698,-0.9569 -0.64897,-1.89826 -1.15801,-2.76556 -0.44269,-0.75965 -0.93302,-1.48937 -1.49748,-2.16498 -0.49533,-0.5882 -1.0095,-1.1607 -1.56613,-1.69206 -0.54052,-0.51269 -1.09907,-1.00629 -1.69317,-1.45664 -0.58455,-0.43725 -1.17776,-0.86328 -1.80057,-1.24502 -0.58259,-0.35452 -1.16704,-0.70652 -1.76993,-1.02587 -0.67282,-0.35764 -1.35387,-0.70088 -2.05902,-0.99111 -0.74094,-0.30845 -1.48942,-0.59986 -2.25759,-0.83436 -0.8863,-0.26972 -1.78666,-0.49043 -2.7044,-0.62412 -0.8838,-0.12306 -1.77245,-0.20133 -2.66475,-0.22712 -0.8543,-0.0177 -1.70885,-0.003 -2.56087,0.0675 -0.75822,0.066 -1.51603,0.13896 -2.27179,0.229 -0.76241,0.0919 -1.52307,0.19883 -2.2805,0.3256 -0.82393,0.15335 -1.64138,0.33673 -2.45072,0.55483 -0.73731,0.20494 -1.474,0.41635 -2.1949,0.67392 -0.74232,0.2681 -1.47948,0.55255 -2.19594,0.88447 -0.71324,0.32594 -1.41124,0.68247 -2.08724,1.08056 -0.60013,0.34803 -1.19465,0.70628 -1.77676,1.08381 -0.59785,0.40167 -1.18768,0.81526 -1.76245,1.2495 -0.57536,0.43889 -1.14994,0.87976 -1.69177,1.36014 -0.55883,0.4943 -1.10653,1.00137 -1.63858,1.52448 -0.56921,0.56123 -1.13137,1.1303 -1.64399,1.74463 -0.54064,0.63889 -1.06127,1.29408 -1.5397,1.98136 -0.47016,0.67289 -0.91654,1.362 -1.34689,2.06103 -0.45755,0.77041 -0.89543,1.55249 -1.28765,2.35857 -0.3953,0.80973 -0.78397,1.62309 -1.12401,2.45801 -0.37578,0.92287 -0.71728,1.85933 -1.0082,2.81265 -0.3052,1.00275 -0.57373,2.01586 -0.77367,3.04541 -0.19621,0.99719 -0.36449,1.9999 -0.49401,3.0081 -0.12443,0.97991 -0.23081,1.96167 -0.32199,2.94526 -0.099,1.0641 -0.17625,2.13024 -0.2101,3.19866 -0.0356,1.13733 -0.0331,2.27589 0.0189,3.4128 0.0663,1.16126 0.1744,2.31913 0.3267,3.47245 0.14911,1.12593 0.32013,2.24896 0.54317,3.3629 0.22919,1.14631 0.47977,2.28865 0.78419,3.41763 0.3095,1.15861 0.64548,2.31002 1.02957,3.44635 0.39333,1.17195 0.79405,2.34244 1.29124,3.47544 0.51033,1.18417 1.07107,2.34585 1.691,3.47686 0.64568,1.1547 1.33078,2.28918 2.1251,3.34912 0.69661,0.9138 1.42398,1.80375 2.14185,2.7009 0.67114,0.84248 1.34176,1.68537 1.99838,2.53928 0.74359,0.95795 1.49947,1.90633 2.29294,2.82374 0.71874,0.84154 1.43257,1.68717 2.16558,2.51632 0.61792,0.71588 1.20488,1.45473 1.7271,2.24478 0.57427,0.81825 1.14595,1.63862 1.68481,2.48081 0.53426,0.81227 1.03688,1.64486 1.48353,2.50897 0.45424,0.865 0.9394,1.71637 1.32013,2.61739 0.39144,0.92815 0.75721,1.86682 1.09586,2.81559 0.32167,0.96808 0.61913,1.94376 0.86603,2.93396 0.25159,1.04069 0.49175,2.08397 0.69994,3.13436 0.21595,1.06913 0.40558,2.14318 0.55685,3.22353 0.16228,1.11775 0.31724,2.23657 0.46134,3.35684 0.13054,1.07072 0.26129,2.14162 0.36711,3.21511 0.0869,0.97558 0.17099,1.95236 0.2144,2.93085 0.0255,0.88857 0.0397,1.77818 0.0286,2.66697 -0.031,0.82608 -0.0815,1.65108 -0.14623,2.47523 -0.0682,0.74988 -0.15058,1.49849 -0.24301,2.24578 -0.0846,0.64588 -0.18018,1.29059 -0.3088,1.92937 -0.0878,0.47239 -0.19487,0.94065 -0.28292,1.41293 -0.11906,0.40571 -0.25133,0.80724 -0.38747,1.20753 -0.089,0.27371 -0.18865,0.54478 -0.26699,0.81944 -0.0654,0.19751 -0.16275,0.38293 -0.26418,0.56409 -0.10445,0.18153 -0.2251,0.35473 -0.30706,0.54822 -0.0753,0.13883 -0.16407,0.26932 -0.24044,0.4059 -0.0791,0.12142 -0.15044,0.24262 -0.22861,0.36237 -0.009,0.0156 -0.0261,0.0287 -0.0275,0.0467 -7.9e-4,0.0103 0.0706,-0.0548 0.0601,-0.0365 -0.0579,0.10174 -0.29774,0.35497 -0.20285,0.28652 -2.31749,2.97963 6.11018,9.53447 8.42767,6.55484 z" /><path
         style="fill:#ffffff;fill-opacity:1;stroke:none;stroke-width:22.4367;stroke-dasharray:none;stroke-opacity:1"
         id="path191"
         d="m 256.76752,-766.39154 c -0.1658,-0.20627 0.16669,0.0812 -0.0129,-0.16132 0.0728,-0.0372 0.027,-0.0412 0.0187,-0.12324 0.0881,0.003 0.009,-0.14261 -0.007,-0.20815 -0.0583,-0.22551 -0.1159,-0.44974 -0.15521,-0.67953 -0.0254,-0.37383 -0.0538,-0.74787 -0.082,-1.12223 -0.0529,-0.58309 -0.006,-1.16515 0.0291,-1.74744 0.0523,-0.79656 0.14879,-1.58893 0.24349,-2.38125 0.10938,-0.8839 0.26143,-1.76141 0.43078,-2.63552 0.18697,-0.93554 0.40136,-1.86512 0.62773,-2.7918 0.25077,-0.95755 0.51605,-1.9113 0.79604,-2.8607 0.28359,-0.95827 0.59485,-1.90759 0.91725,-2.85337 0.31722,-0.93364 0.66701,-1.8555 1.03341,-2.7708 0.35974,-0.9021 0.74368,-1.79406 1.14345,-2.67904 0.40074,-0.81976 0.82501,-1.62756 1.27932,-2.41885 0.47887,-0.8006 0.97563,-1.59067 1.49578,-2.36508 0.51246,-0.7692 1.15135,-1.43957 1.75791,-2.13326 0.69778,-0.81205 1.43417,-1.58996 2.18524,-2.35267 0.78391,-0.78706 1.57298,-1.56909 2.37887,-2.33365 0.79362,-0.7448 1.6087,-1.46619 2.43507,-2.17432 0.84119,-0.70562 1.69137,-1.40049 2.55193,-2.08235 0.88022,-0.68099 1.74207,-1.38512 2.61707,-2.07267 1.0087,-0.76361 2.02073,-1.52021 3.00821,-2.3114 0.98504,-0.81724 1.96731,-1.63756 2.95288,-2.45406 0.98965,-0.82717 1.96726,-1.66865 2.94616,-2.50846 0.97296,-0.82389 1.94848,-1.64473 2.92048,-2.46976 0.94122,-0.80653 1.87946,-1.61649 2.83464,-2.40654 0.95673,-0.78621 1.91793,-1.567 2.87858,-2.34842 0.95478,-0.79338 1.93273,-1.55815 2.89727,-2.33955 0.97255,-0.7901 1.94749,-1.57734 2.91319,-2.37582 1.01193,-0.83019 1.99679,-1.69193 2.96122,-2.57662 0.93583,-0.86051 1.82978,-1.76472 2.7101,-2.68145 0.82484,-0.85471 1.62306,-1.73421 2.40766,-2.62583 0.78105,-0.88074 1.51556,-1.80025 2.22927,-2.73587 0.65762,-0.86527 1.28341,-1.754 1.89981,-2.64893 0.60413,-0.87974 1.17047,-1.78395 1.71612,-2.70081 0.50453,-0.87016 0.97795,-1.75755 1.44079,-2.65039 0.46016,-0.90601 0.87093,-1.83597 1.25634,-2.77585 0.36656,-0.92344 0.68816,-1.86406 0.97399,-2.81537 0.25175,-0.86815 0.45844,-1.7484 0.65331,-2.63076 0.19624,-0.89341 0.34991,-1.79519 0.48006,-2.70033 0.1483,-1.04577 0.17502,-2.10119 0.15057,-3.15535 -0.0335,-1.37683 -0.3842,-2.70547 -0.83468,-3.99716 -0.37687,-1.04619 -0.86283,-2.04505 -1.39031,-3.02207 -0.56406,-0.99237 -1.23295,-1.91847 -1.94005,-2.81252 -0.67662,-0.83251 -1.43312,-1.59449 -2.20602,-2.33662 -0.82383,-0.80137 -1.71114,-1.52958 -2.63837,-2.20702 -0.88765,-0.63431 -1.80927,-1.21888 -2.74444,-1.78009 -0.96282,-0.58108 -1.97115,-1.0782 -2.99212,-1.54712 -1.00957,-0.46628 -2.03679,-0.89226 -3.08161,-1.2727 -1.03682,-0.37703 -2.09473,-0.69051 -3.15859,-0.98071 -1.06281,-0.28128 -2.14207,-0.49199 -3.22305,-0.689 -1.02635,-0.17764 -2.0623,-0.28921 -3.09869,-0.38756 -0.97703,-0.0937 -1.95694,-0.15251 -2.93728,-0.19815 -0.97075,-0.0402 -1.94209,-0.0442 -2.91343,-0.0353 -0.93681,0.01 -1.87243,0.0553 -2.80797,0.10083 -0.90585,0.0477 -1.80943,0.12952 -2.71219,0.21664 -0.95414,0.0844 -1.90331,0.21151 -2.84954,0.35889 -1.02547,0.15737 -2.03758,0.38764 -3.04302,0.64087 -1.08292,0.27546 -2.13717,0.64683 -3.17431,1.05979 -1.11517,0.44153 -2.17689,1.00081 -3.21096,1.60515 -1.08215,0.6219 -2.08299,1.36511 -3.05086,2.14955 -0.98568,0.82521 -1.8728,1.75548 -2.70384,2.73378 -0.78634,0.957 -1.47351,1.98885 -2.11255,3.04821 -0.60819,1.01314 -1.10842,2.08323 -1.58349,3.16336 -0.46478,1.06217 -0.81013,2.16871 -1.12101,3.28377 -0.31822,1.12408 -0.47788,2.28119 -0.59081,3.44114 -0.12691,1.16388 -0.0985,2.3309 0.01,3.49409 0.1353,1.06151 0.32726,2.13051 0.71763,3.13203 0.1127,0.28917 0.24859,0.56873 0.37288,0.85307 0.62298,1.2205 1.48072,2.32082 2.56404,3.16789 0.23113,0.18071 0.47726,0.34139 0.71588,0.51207 1.07297,0.70173 2.27592,1.12607 3.51226,1.42949 1.17716,0.28168 2.38019,0.28821 3.57725,0.17174 1.06992,-0.12033 2.09174,-0.4509 3.08475,-0.8527 0.87476,-0.36293 1.6729,-0.87016 2.44107,-1.41771 0.64468,-0.47363 1.23846,-1.01053 1.79742,-1.58158 0.45371,-0.46416 0.86029,-0.97089 1.26264,-1.47928 0.33878,-0.4372 0.67406,-0.87712 1.00024,-1.32382 0.29665,-0.40926 0.5948,-0.81732 0.88468,-1.2314 0.0534,-0.0786 0.10674,-0.15721 0.16008,-0.23582 2.24353,-3.27221 -7.01167,-9.61789 -9.25521,-6.34569 v 0 c -0.0378,0.0544 -0.0757,0.1088 -0.11351,0.1632 -0.26093,0.37679 -0.52469,0.75157 -0.79237,1.12361 -0.20952,0.29805 -0.41047,0.60192 -0.61431,0.90365 -0.1506,0.18706 -0.30824,0.3682 -0.47223,0.54367 -0.11028,0.10295 -0.22479,0.20084 -0.3515,0.2835 -0.0844,0.056 -0.19235,0.11806 -0.24884,0.15221 -0.0275,0.0143 -0.16451,0.0612 -0.0578,0.061 0.10321,0.009 0.21248,0.0204 0.30784,0.0602 0.0836,0.0929 0.28779,0.0838 0.35189,0.20264 0.27395,0.21201 0.53713,0.43934 0.65651,0.77692 0.0241,0.0719 0.0515,0.14285 0.072,0.21588 0.005,0.0193 0.003,0.0791 -0.003,0.0601 -0.0452,-0.12994 -0.0331,-0.27559 -0.0579,-0.40902 -0.0328,-0.3619 -0.0124,-0.72247 0.0498,-1.08106 0.0742,-0.50837 0.14047,-1.02103 0.29721,-1.51228 0.19333,-0.62206 0.40849,-1.23743 0.65838,-1.83925 0.26972,-0.62672 0.58423,-1.23399 0.91636,-1.8297 0.31777,-0.5443 0.66059,-1.07106 1.06109,-1.55916 0.3529,-0.45157 0.75012,-0.85831 1.18766,-1.23029 0.42823,-0.39626 0.91413,-0.72424 1.41369,-1.02367 0.53348,-0.31134 1.07733,-0.60449 1.63775,-0.8649 0.59497,-0.24035 1.19303,-0.47305 1.80729,-0.6604 0.61574,-0.17854 1.24097,-0.31631 1.87327,-0.42262 0.68197,-0.11147 1.36621,-0.21135 2.05478,-0.27233 0.75809,-0.0612 1.51699,-0.10946 2.27661,-0.14748 0.76552,-0.0419 1.53186,-0.0675 2.2986,-0.0711 0.7526,-0.005 1.50579,-0.004 2.25782,0.0291 0.76636,0.0383 1.53104,0.0995 2.29367,0.18471 0.76399,0.0862 1.52699,0.17989 2.28576,0.30493 0.72557,0.11539 1.44042,0.28728 2.15202,0.46879 0.7385,0.19836 1.46762,0.42844 2.1821,0.70186 0.72588,0.26723 1.45494,0.52787 2.15048,0.86934 0.68019,0.32367 1.3626,0.64468 2.02308,1.00743 0.62973,0.35589 1.24246,0.7394 1.82941,1.16289 0.49448,0.34785 1.00618,0.67686 1.4387,1.10332 0.43971,0.4173 0.8614,0.85262 1.2795,1.29135 0.3122,0.33909 0.57785,0.71313 0.81634,1.10752 0.24432,0.37751 0.42426,0.79248 0.57912,1.21367 0.0462,0.12356 0.0912,0.34668 0.1778,0.45487 0.0145,0.0183 0.0451,-0.10268 0.0523,-0.007 0.027,0.42399 -0.0249,0.84928 -0.0583,1.2715 -0.0644,0.5551 -0.16901,1.10334 -0.30255,1.64608 -0.14925,0.6141 -0.31467,1.22418 -0.49988,1.82846 -0.18597,0.59219 -0.39891,1.17454 -0.64103,1.74633 -0.26056,0.62013 -0.55152,1.22624 -0.86786,1.82001 -0.35425,0.67501 -0.73422,1.33631 -1.13652,1.9839 -0.41674,0.67927 -0.85579,1.34427 -1.32305,1.99004 -0.51101,0.71403 -1.04203,1.41346 -1.59072,2.09902 -0.56656,0.70278 -1.13546,1.4048 -1.74856,2.06798 -0.67315,0.73015 -1.35718,1.45034 -2.06917,2.14299 -0.75642,0.73557 -1.52133,1.46238 -2.30362,2.17046 -0.82413,0.73708 -1.65883,1.46211 -2.51775,2.15863 -0.93189,0.75676 -1.86537,1.51135 -2.81816,2.24184 -1.00028,0.78642 -1.98837,1.58808 -2.98431,2.37998 -1.00708,0.81386 -2.01065,1.63206 -2.99463,2.47388 -0.97248,0.81719 -1.94903,1.62941 -2.92471,2.44277 -0.9706,0.81994 -1.93701,1.64478 -2.90756,2.46478 -0.9852,0.81965 -1.97302,1.63626 -2.94642,2.46996 -0.96026,0.82026 -1.91006,1.65277 -2.87584,2.46669 -0.82849,0.72143 -1.62642,1.48 -2.50661,2.13886 -0.94356,0.70636 -1.90331,1.3916 -2.82152,2.1313 -0.97991,0.77798 -1.95746,1.55956 -2.90695,2.37471 -0.96217,0.82447 -1.91814,1.65637 -2.84903,2.51624 -0.95383,0.88376 -1.90287,1.77332 -2.81107,2.70434 -0.93507,0.97107 -1.85584,1.95572 -2.72324,2.98839 -0.87153,1.05394 -1.69021,2.14825 -2.44732,3.28771 -0.69538,1.03142 -1.37542,2.07386 -1.97925,3.16238 -0.60549,1.08206 -1.20056,2.17127 -1.71228,3.30168 -0.50572,1.07471 -0.99347,2.15805 -1.42975,3.26313 -0.4375,1.10482 -0.85745,2.21668 -1.23329,3.3442 -0.3753,1.10345 -0.74259,2.20999 -1.06966,3.32883 -0.33155,1.12559 -0.64963,2.25544 -0.92629,3.39596 -0.28478,1.15538 -0.55346,2.31505 -0.76168,3.48705 -0.20854,1.1843 -0.40136,2.37238 -0.51044,3.57065 -0.10645,1.16195 -0.18072,2.3277 -0.16044,3.49528 0.0242,1.10506 0.0941,2.20872 0.24185,3.30483 0.15685,1.04672 0.36529,2.08677 0.71938,3.08703 0.29926,0.84037 0.63057,1.67037 1.06977,2.44917 0.40513,0.71355 0.84117,1.4115 1.38401,2.03044 0.41861,0.4758 0.85339,0.94242 1.36448,1.32135 0.25546,0.18465 0.5122,0.38637 0.80088,0.51366 3.02236,2.26677 9.43377,-6.28176 6.4114,-8.54855 z" /><path
         style="fill:#ffffff;fill-opacity:1;stroke:none;stroke-width:22.4367;stroke-dasharray:none;stroke-opacity:1"
         id="path192"
         d="m 230.08091,-912.31399 c 0.1209,0.21439 0.13441,0.29361 0.22822,0.48123 0.0405,0.14147 0.18995,0.27889 0.17724,0.42516 0.10109,0.23008 0.2095,0.45669 0.3143,0.68511 0.1922,0.36885 0.35438,0.75245 0.54179,1.12347 0.19539,0.35962 0.37402,0.72742 0.55612,1.09382 0.21586,0.41476 0.41609,0.83714 0.62179,1.2569 0.22153,0.44831 0.4238,0.90569 0.61821,1.36631 0.21032,0.49858 0.4177,0.99991 0.5817,1.51585 0.19371,0.5997 0.41043,1.19216 0.57322,1.80125 0.19896,0.71414 0.39955,1.4277 0.58588,2.14527 0.1995,0.79053 0.40343,1.57999 0.59352,2.37287 0.19163,0.8125 0.3664,1.62882 0.53887,2.44559 0.17978,0.83331 0.33426,1.67159 0.48616,2.51032 0.15621,0.86368 0.29413,1.73056 0.42933,2.59775 0.13478,0.88567 0.26683,1.77171 0.38731,2.65946 0.12443,0.91729 0.21759,1.83814 0.30265,2.75977 0.0832,1.00906 0.18166,2.01668 0.27696,3.02466 0.0947,1.03987 0.14098,2.08325 0.20121,3.1255 0.045,1.11977 0.0836,2.23983 0.1189,3.35994 0.0447,1.172 0.0654,2.34442 0.0855,3.51697 0.0333,1.19902 0.026,2.39843 0.0272,3.5977 -0.0166,1.26625 -0.0393,2.53307 -0.0734,3.79915 -0.0303,1.33533 -0.0581,2.67071 -0.0879,4.00606 -0.026,1.34922 -0.0809,2.69764 -0.12735,4.04625 -0.047,1.34757 -0.12094,2.69417 -0.18789,4.04093 -0.0634,1.33011 -0.15979,2.658 -0.27631,3.98441 -0.12054,1.32704 -0.27045,2.65094 -0.43581,3.97306 -0.16144,1.35914 -0.36817,2.71195 -0.57565,4.06461 -0.20021,1.35041 -0.40877,2.69968 -0.67227,4.03931 -0.26069,1.37049 -0.53039,2.73921 -0.7861,4.11065 -0.24695,1.33541 -0.49789,2.6701 -0.74179,4.00611 -0.22339,1.24161 -0.46781,2.47922 -0.70717,3.71782 -0.24117,1.15866 -0.48467,2.31669 -0.74558,3.47109 -0.26665,1.14401 -0.5362,2.28735 -0.80655,3.43051 -0.17354,0.74621 -0.34058,1.49389 -0.50518,2.24211 -1.01235,4.14298 10.70573,7.00632 11.71808,2.86334 v 0 c 0.19752,-0.73718 0.3897,-1.47576 0.58139,-2.2145 0.30012,-1.18351 0.59785,-2.3676 0.87539,-3.55667 0.29671,-1.23909 0.5906,-2.47914 0.85415,-3.72581 0.28532,-1.26661 0.55242,-2.53722 0.8272,-3.80613 0.29056,-1.33477 0.56967,-2.672 0.85989,-4.00685 0.30023,-1.43047 0.5884,-2.86359 0.84021,-4.30348 0.24495,-1.45716 0.51554,-2.91002 0.74617,-4.36964 0.22904,-1.48516 0.43809,-2.9735 0.61774,-4.46551 0.17486,-1.49124 0.33103,-2.98484 0.4385,-4.48262 0.10358,-1.43111 0.20171,-2.86261 0.28871,-4.2948 0.0845,-1.42605 0.14502,-2.85303 0.19508,-4.28064 0.0507,-1.40705 0.0835,-2.81448 0.11433,-4.22209 0.0276,-1.38917 0.0531,-2.77855 0.0413,-4.16808 -0.013,-1.32012 -0.0207,-2.64012 -0.0526,-3.95989 -0.0112,-1.2519 -0.038,-2.50362 -0.0486,-3.75552 -0.0236,-1.25934 -0.0617,-2.51852 -0.11749,-3.77685 -0.0576,-1.23862 -0.12655,-2.47682 -0.23792,-3.71197 -0.0913,-1.14782 -0.20484,-2.29315 -0.31848,-3.43892 -0.10533,-1.08249 -0.21258,-2.16472 -0.36511,-3.24186 -0.13792,-1.01738 -0.28172,-2.03402 -0.42976,-3.04999 -0.14127,-0.96811 -0.28181,-1.93646 -0.44644,-2.90094 -0.15924,-0.94425 -0.3182,-1.88855 -0.49122,-2.83038 -0.17487,-0.94279 -0.36049,-1.8836 -0.55512,-2.82247 -0.20027,-0.94464 -0.41063,-1.88722 -0.64801,-2.82332 -0.23126,-0.91488 -0.46108,-1.83044 -0.73097,-2.73492 -0.26374,-0.87617 -0.52725,-1.75315 -0.84401,-2.61199 -0.29457,-0.78237 -0.56964,-1.57234 -0.8951,-2.34278 -0.30031,-0.68442 -0.59248,-1.37261 -0.91677,-2.04623 -0.28718,-0.59923 -0.58403,-1.19349 -0.89613,-1.7802 -0.27793,-0.5289 -0.56553,-1.0528 -0.86525,-1.56967 -0.26248,-0.4414 -0.54281,-0.87154 -0.81502,-1.30693 -0.15616,-0.23109 -0.31942,-0.45786 -0.50541,-0.66612 -0.11833,-0.18034 -0.23199,-0.36324 -0.34323,-0.54808 -0.0911,-0.14825 -0.18291,-0.28028 -0.27691,-0.41027 0.005,0.0127 0.0234,0.0487 0.0153,0.0377 -0.0155,-0.0212 -0.11558,-0.20199 -0.11896,-0.20648 -0.0169,-0.0225 0.0237,0.051 0.0353,0.0765 0.0126,0.0278 0.007,0.089 0.0372,0.0836 0.0299,-0.005 -0.0234,-0.056 -0.0351,-0.084 -1.647,-3.41164 -11.29656,1.24677 -9.64956,4.65841 z" /><path
         style="fill:#ffffff;fill-opacity:1;stroke:none;stroke-width:22.4367;stroke-dasharray:none;stroke-opacity:1"
         id="path193"
         d="m 234.28471,-911.04494 c 0.21327,0.15105 0.45145,0.27231 0.69997,0.39095 0.35309,0.18357 0.72457,0.32276 1.09489,0.46617 0.43919,0.19801 0.89266,0.35898 1.34974,0.50972 0.48436,0.17994 0.96613,0.36441 1.45431,0.53406 0.61,0.23283 1.22489,0.45064 1.84673,0.65024 0.70102,0.22212 1.40487,0.43503 2.10579,0.65741 0.78935,0.24858 1.58923,0.46172 2.38841,0.67593 0.87283,0.22008 1.73595,0.47501 2.60617,0.70474 1.01528,0.2648 2.03203,0.51671 3.05809,0.7365 1.05138,0.21878 2.10437,0.42974 3.15786,0.63809 1.06212,0.20871 2.12568,0.4099 3.18791,0.61799 1.10468,0.21677 2.21122,0.42394 3.31714,0.63431 1.13832,0.21262 2.28118,0.39955 3.42126,0.60222 1.1842,0.22506 2.37433,0.41434 3.5668,0.58941 1.21023,0.17974 2.41882,0.37032 3.62919,0.54894 1.2491,0.1842 2.50206,0.33787 3.75663,0.47897 1.23883,0.15277 2.48224,0.2631 3.72266,0.40084 1.2537,0.14299 2.5096,0.26244 3.76804,0.35452 1.21486,0.0905 2.43006,0.17642 3.6467,0.23876 1.15586,0.055 2.31158,0.11083 3.46813,0.14901 1.07492,0.0359 2.14934,0.0807 3.22456,0.10764 1.03105,0.0347 2.06219,0.0651 3.09361,0.0855 0.9915,0.0309 1.98345,0.0355 2.97529,0.0427 0.60643,0.006 1.21272,0 1.81904,-0.0109 4.14629,0.0717 4.34896,-11.65582 0.20267,-11.72749 v 0 c -0.59026,-0.0301 -1.18062,-0.0569 -1.77138,-0.0754 -0.93173,-0.0341 -1.86312,-0.0778 -2.79475,-0.11443 -1.00689,-0.0545 -2.01377,-0.10874 -3.02088,-0.1588 -1.06558,-0.0631 -2.1318,-0.10816 -3.19793,-0.15947 -1.06146,-0.0598 -2.12376,-0.11144 -3.18276,-0.20703 -1.13302,-0.0974 -2.26568,-0.19878 -3.39709,-0.31356 -1.19327,-0.12338 -2.38792,-0.23048 -3.58277,-0.33695 -1.1864,-0.11237 -2.36892,-0.26283 -3.55365,-0.39142 -1.17798,-0.14378 -2.35659,-0.28152 -3.53462,-0.42476 -1.13517,-0.14034 -2.26941,-0.28813 -3.39759,-0.47829 -1.13872,-0.18844 -2.27968,-0.36182 -3.42162,-0.52964 -1.11125,-0.17836 -2.21994,-0.37185 -3.32973,-0.55896 -1.07237,-0.17659 -2.14463,-0.35357 -3.21388,-0.54848 -1.04192,-0.18646 -2.08152,-0.38508 -3.12156,-0.58169 -1.01751,-0.19272 -2.03356,-0.39291 -3.05046,-0.58886 -0.93167,-0.17954 -1.86762,-0.33141 -2.79779,-0.51792 -0.80594,-0.15655 -1.61599,-0.2921 -2.41142,-0.49842 -0.70831,-0.16621 -1.41634,-0.33338 -2.12416,-0.50162 -0.63436,-0.14896 -1.26217,-0.32303 -1.88784,-0.50488 -0.57909,-0.16291 -1.1605,-0.31724 -1.73976,-0.47903 -0.50303,-0.14899 -1.01206,-0.26786 -1.52079,-0.39476 -0.34449,-0.10284 -0.69096,-0.19351 -1.04019,-0.2776 -0.24904,-0.0766 -0.49474,-0.16394 -0.74961,-0.21135 -0.11093,-0.0301 -0.22505,-0.0496 -0.33525,-0.0751 -0.0572,-0.0132 -0.11074,-0.0425 -0.16902,-0.0496 -0.0114,-0.003 0.0102,0.0204 0.0153,0.0307 -3.48989,-1.49569 -7.72028,8.37523 -4.23039,9.87089 z" /><path
         style="fill:#ffffff;fill-opacity:1;stroke:none;stroke-width:22.4367;stroke-dasharray:none;stroke-opacity:1"
         id="path194"
         d="m 300.08626,-910.39978 c -0.30872,0 -0.64468,0.0948 -0.95062,0.16566 -0.49565,0.11758 -0.9806,0.27373 -1.46857,0.41865 -0.75123,0.23944 -1.48196,0.53512 -2.20631,0.84505 -0.83952,0.36539 -1.65902,0.77443 -2.47147,1.19599 -0.85392,0.4467 -1.6931,0.92065 -2.52791,1.4019 -0.89903,0.50797 -1.77517,1.0537 -2.64589,1.6084 -0.87651,0.55205 -1.73971,1.12459 -2.60395,1.6955 -0.88799,0.58997 -1.7685,1.19095 -2.64419,1.79899 -0.87781,0.61169 -1.7486,1.23343 -2.61763,1.85753 -0.88315,0.64593 -1.7657,1.29278 -2.63816,1.9531 -0.90495,0.67601 -1.79641,1.36988 -2.6842,2.06825 -0.92112,0.71578 -1.82562,1.4524 -2.72854,2.19088 -0.91842,0.7434 -1.81782,1.50974 -2.7192,2.27359 -0.90713,0.76748 -1.80835,1.54189 -2.70251,2.32445 -0.89487,0.77541 -1.77879,1.56329 -2.65837,2.356 -0.91017,0.82019 -1.8037,1.65844 -2.68957,2.50471 -0.93516,0.89286 -1.82392,1.832 -2.69982,2.78249 -0.95604,1.02981 -1.84414,2.11889 -2.70333,3.2299 -0.87176,1.14065 -1.68185,2.32712 -2.45963,3.53333 -0.75573,1.18059 -1.45695,2.39461 -2.13726,3.61981 -0.65688,1.19177 -1.30371,2.3889 -1.93011,3.59696 -0.61904,1.19182 -1.19921,2.40329 -1.77739,3.61532 -0.56607,1.18335 -1.11072,2.37667 -1.64491,3.57471 -0.53567,1.23094 -1.09273,2.45218 -1.62102,3.68633 -0.56113,1.31368 -1.05925,2.65303 -1.55323,3.99304 -0.48278,1.35392 -0.97523,2.70431 -1.43134,4.06757 -0.44268,1.34229 -0.85683,2.69359 -1.26856,4.04561 -0.38316,1.26445 -0.75535,2.53222 -1.12563,3.8005 -0.35729,1.21098 -0.72495,2.4189 -1.07868,3.63093 -0.33229,1.16166 -0.66973,2.32185 -0.99503,3.48549 -0.32554,1.12639 -0.63852,2.25629 -0.95115,3.3863 -0.30818,1.10164 -0.5967,2.20863 -0.88625,3.31528 -0.27397,1.04497 -0.53911,2.09225 -0.80439,3.13947 -0.24461,1.00219 -0.50951,1.99921 -0.75628,3.00085 -0.23482,0.94102 -0.46741,1.88259 -0.70131,2.82382 -0.11089,0.43489 -0.21213,0.87214 -0.31437,1.3091 -1.08202,4.01688 10.27943,7.07731 11.36146,3.06044 v 0 c 0.13633,-0.44887 0.27346,-0.89758 0.39685,-1.35022 0.2647,-0.94589 0.53259,-1.89085 0.78794,-2.83933 0.27016,-0.98266 0.52334,-1.9699 0.79824,-2.95132 0.28008,-1.02081 0.56029,-2.0416 0.84739,-3.06049 0.29035,-1.04478 0.58668,-2.0879 0.88767,-3.1297 0.32196,-1.09215 0.65108,-2.18212 0.98226,-3.27149 0.35548,-1.14771 0.70063,-2.29862 1.05026,-3.44811 0.35202,-1.1675 0.70822,-2.33365 1.0882,-3.49244 0.39906,-1.22727 0.80624,-2.45187 1.21157,-3.6771 0.42121,-1.28217 0.83883,-2.56556 1.26804,-3.84509 0.42069,-1.26725 0.82269,-2.54084 1.28591,-3.79351 0.42136,-1.19476 0.85514,-2.38498 1.29289,-3.57384 0.41808,-1.09987 0.85101,-2.19284 1.36829,-3.25088 0.51324,-1.10752 1.03122,-2.21287 1.56189,-3.31216 0.54002,-1.11046 1.08913,-2.21644 1.64827,-3.3174 0.54792,-1.07463 1.09767,-2.14897 1.70288,-3.19286 0.58734,-1.02645 1.17498,-2.05306 1.80008,-3.05715 0.5842,-0.9357 1.18789,-1.85738 1.84967,-2.74093 0.61102,-0.83013 1.2274,-1.65856 1.91352,-2.42906 0.70098,-0.77761 1.42533,-1.53389 2.16497,-2.27483 0.75637,-0.74703 1.52808,-1.47841 2.32495,-2.18231 0.83974,-0.74554 1.68717,-1.48235 2.53955,-2.21337 0.86709,-0.74618 1.72559,-1.50231 2.59763,-2.24274 0.86624,-0.7366 1.73879,-1.46577 2.60384,-2.20377 0.83111,-0.70041 1.66039,-1.40303 2.50259,-2.0901 0.80343,-0.64971 1.60864,-1.29728 2.42655,-1.92879 0.80269,-0.61034 1.60041,-1.22727 2.418,-1.81777 0.80658,-0.59113 1.61597,-1.17853 2.43472,-1.75275 0.80227,-0.5646 1.61372,-1.11583 2.42657,-1.66508 0.81328,-0.54843 1.62859,-1.09376 2.44518,-1.63729 0.75131,-0.49557 1.50402,-0.9892 2.258,-1.48051 0.67969,-0.42965 1.36761,-0.84613 2.06235,-1.251 0.58833,-0.34287 1.17941,-0.68067 1.7798,-1.00211 0.48969,-0.26352 0.98658,-0.51274 1.48137,-0.76644 0.39519,-0.22133 0.8173,-0.39156 1.20867,-0.62082 0.0616,-0.035 0.21149,-0.11518 0.26861,-0.16566 0.033,-0.0291 0.01,-0.0857 0.0441,-0.11205 0.0284,-0.0217 0.0625,-0.0349 0.0937,-0.0524 3.5932,-1.19774 0.2055,-11.36079 -3.38767,-10.16307 z" /></g></g></svg>
