<?xml version="1.0" encoding="UTF-8" standalone="no"?>
<!-- Created with Inkscape (http://www.inkscape.org/) -->

<svg
   width="133.11763mm"
   height="154.70561mm"
   viewBox="0 0 133.11763 154.70561"
   version="1.1"
   id="svg5"
   xml:space="preserve"
   xmlns="http://www.w3.org/2000/svg"
   xmlns:svg="http://www.w3.org/2000/svg"><defs
     id="defs2" /><g
     id="layer1"
     transform="translate(-189.53919,915.56003)"><path
       style="fill:#ffffff;fill-opacity:1;stroke:none;stroke-width:0.911474;stroke-opacity:1"
       d="m 248.11034,-761.81834 c -1.15531,-0.73822 -2.43524,-1.76211 -2.84467,-2.2753 -1.19942,-1.50384 -0.0427,-16.46056 1.59789,-20.67372 1.90646,-4.89326 7.03419,-13.33335 8.10076,-13.33335 0.44511,0 1.04491,-0.69456 1.33268,-1.54349 0.52431,-1.54717 12.54391,-13.40679 20.3845,-20.11344 4.15652,-3.55546 11.27012,-8.42714 21.459,-14.69612 2.93112,-1.80349 7.13107,-5.13832 9.33268,-7.41077 3.71006,-3.82878 4.00306,-4.49357 3.99809,-9.06852 0,-7.48834 -1.57682,-11.5483 -5.91454,-15.30502 -7.81425,-6.76734 -18.91526,-9.48386 -26.31047,-6.43834 -1.70142,0.70063 -4.68165,1.51216 -6.62265,1.80337 -3.80157,0.57031 -8.24541,3.78484 -8.24541,5.96455 0,1.04237 1.48781,1.42148 6.64935,1.69455 6.73589,0.35638 8.70787,1.38328 8.17422,4.25713 -0.19583,1.04777 -2.1048,1.36962 -9.18282,1.54719 -4.91553,0.12333 -10.05857,-0.139 -11.42889,-0.58328 -2.37929,-0.77116 -2.54483,-0.62256 -3.67836,3.30366 -0.65299,2.26118 -1.4957,4.50808 -1.87309,4.99316 -1.13781,1.46421 -3.51418,12.7947 -4.18249,19.94376 -0.34532,3.69283 -1.2329,7.80628 -1.97232,9.14107 -0.73974,1.33473 -1.34471,2.95465 -1.34471,3.59977 0,0.64512 -1.04634,2.28654 -2.32506,3.64758 -2.03926,2.1701 -2.32911,2.26298 -2.35507,0.75476 -0.0359,-1.33768 -0.28122,-1.48465 -1.16032,-0.66149 -1.96773,1.84265 -2.86022,1.15301 -2.33895,-1.80805 4.54945,-25.85855 5.62499,-39.73496 4.01481,-51.78891 -0.74914,-5.60621 -1.30417,-6.413 -2.77526,-4.03526 -0.58663,0.9485 -3.12339,3.80765 -5.63686,6.3537 -3.7759,3.82472 -5.29218,4.73055 -8.72626,5.21273 -2.61643,0.36739 -5.23464,0.16534 -7.06696,-0.54544 -2.63794,-1.02291 -2.86215,-1.41278 -2.38782,-4.14954 0.91176,-5.2606 4.25756,-7.2601 6.26665,-3.74512 2.51341,4.39747 11.57235,-0.75049 13.19215,-7.49676 0.78469,-3.26838 0.62516,-3.74569 -2.16914,-6.48865 l -3.01627,-2.96076 -8.42381,0.53779 c -4.63315,0.29568 -8.66003,0.83776 -8.94879,1.20437 -0.28836,0.36664 -2.58435,1.45697 -5.10142,2.42297 -4.10774,1.57646 -4.92798,2.38888 -8.00684,7.93019 -2.53838,4.56925 -3.42988,7.26263 -3.42988,10.3632 0,2.30413 -0.27759,4.18936 -0.61841,4.18936 -0.71598,0 -0.0825,3.16733 1.15103,5.73281 0.46556,0.97017 1.23116,3.44252 1.70069,5.49411 1.06033,4.62886 5.80988,11.36395 12.99583,18.4287 7.59059,7.46259 9.73279,9.97867 9.73279,11.43101 0,0.68642 0.42397,1.24805 0.94207,1.24805 0.51789,0 0.94186,0.56224 0.94186,1.24944 0,0.6872 0.4038,1.38177 0.89726,1.54343 0.49386,0.16167 1.52337,2.55198 2.28857,5.31175 1.81416,6.54436 1.13953,27.05928 -1.03254,31.38762 -1.56184,3.11264 -5.37736,6.3703 -7.46105,6.3703 -1.70476,0 -1.64832,-3.03024 0.0825,-4.37397 1.75522,-1.36394 2.44906,-6.04898 2.68371,-18.1163 0.16371,-8.43399 -0.10346,-10.36441 -2.04033,-14.77307 -1.22616,-2.78923 -2.57507,-5.07132 -2.99809,-5.07132 -0.42292,0 -1.00715,-0.69457 -1.29803,-1.54346 -0.2919,-0.8489 -4.3381,-5.31391 -8.9933,-9.92218 -4.65581,-4.60831 -8.47342,-8.64597 -8.48335,-8.97255 0,-0.32668 -1.14853,-1.85083 -2.52919,-3.38721 -2.8166,-3.13463 -3.6523,-8.40996 -3.56006,-22.47814 0.0427,-6.64154 0.4995,-8.98195 2.79372,-14.33206 1.50771,-3.51687 3.17987,-6.39546 3.71573,-6.39683 0.53576,-10e-4 1.79033,-1.14331 2.78799,-2.53758 2.03877,-2.84993 12.8133,-8.06079 16.64522,-8.05029 1.34504,0.003 3.79169,-0.62202 5.43679,-1.39047 4.80021,-2.24211 13.42901,-0.23168 16.70113,3.89108 0.57069,0.71926 1.54122,1.01024 2.16542,0.64922 0.79353,-0.45918 0.83839,-0.98369 0.14947,-1.75932 -0.53889,-0.60781 -0.74017,-1.32937 -0.44745,-1.60348 0.29187,-0.27401 -0.17808,-1.78666 -1.04891,-3.36128 -0.86976,-1.57461 -1.71499,-3.69518 -1.87869,-4.71231 -0.16371,-1.01717 -0.91321,-4.96556 -1.6658,-8.77421 l -1.36851,-6.92479 2.73705,-1.0775 c 1.86768,-0.7354 4.44668,-0.85663 8.12289,-0.38188 20.28273,2.61948 27.94887,3.40234 33.31621,3.40234 3.36008,0 8.27385,0.60182 10.91908,1.33735 2.64558,0.73552 7.06732,1.38144 9.8261,1.43534 2.75915,0.054 5.30505,0.52218 5.65749,1.0406 1.13997,1.67699 -0.9787,3.90479 -4.2619,4.48151 -1.76087,0.30934 -4.04401,1.24847 -5.07362,2.08707 -3.61322,2.94242 -14.71317,12.12871 -17.0287,14.09287 -1.28703,1.09144 -2.61034,1.98444 -2.94108,1.98444 -0.3311,0 -1.4077,1.2899 -2.39351,2.86642 -0.98581,1.57651 -2.45474,3.36591 -3.26469,3.97639 -2.09483,1.57952 8.13822,0.45012 10.97604,-1.21133 1.19872,-0.70197 4.58908,-1.22162 7.97019,-1.22162 5.04015,0 7.02994,0.53746 13.87831,3.74839 13.12961,6.1563 18.02487,12.18429 17.92979,22.07924 -0.0355,3.04686 -0.76151,7.07025 -1.64835,9.05671 -1.6943,3.79503 -13.20259,14.34938 -18.3791,16.85583 -1.59815,0.77379 -3.52423,1.98581 -4.27969,2.69336 -0.75583,0.70751 -3.02225,2.26057 -5.03659,3.45118 -2.01436,1.19059 -3.89947,2.7431 -4.1889,3.45003 -0.2884,0.70693 -1.11756,1.28532 -1.83921,1.28532 -0.72166,0 -1.31192,0.39688 -1.31192,0.88196 0,0.48507 -0.42545,0.88195 -0.94523,0.88195 -1.02427,0 -11.04406,9.40204 -17.04724,15.99621 -9.26044,10.17159 -11.91627,15.44229 -12.80954,25.41954 -0.53756,6.00109 -0.44575,6.39633 2.05459,8.83965 1.43935,1.40671 2.3835,3.12699 2.09837,3.82287 -0.76153,1.85815 -5.98545,2.30622 -8.45866,0.72553 z m 4.96427,-105.6001 c 0,-0.59682 4.83692,-7.17319 7.20085,-9.79021 0.96124,-1.06447 2.72176,-3.11543 3.91157,-4.55771 5.01524,-6.07816 11.40825,-11.82427 17.07143,-15.34352 3.32594,-2.06697 6.21288,-4.22344 6.41546,-4.79211 0.65223,-1.83236 -3.79658,-3.31732 -11.52111,-3.84554 -6.97333,-0.47687 -21.46859,-2.46143 -31.55425,-4.3203 -4.94144,-0.91066 -5.51897,-0.67371 -3.33727,1.36908 0.91446,0.85646 1.38835,2.24724 1.10785,3.252 -0.27056,0.96557 0.33472,3.78386 1.34394,6.26284 1.03998,2.55532 2.26038,8.89968 2.81864,14.64993 0.54147,5.57847 1.22577,11.7302 1.52052,13.67057 0.29555,1.94033 0.63165,4.5201 0.74841,5.73281 0.11751,1.21271 0.28119,2.60182 0.3627,3.0869 0.14246,0.83196 3.91126,-4.34747 3.91126,-5.37474 z m 68.91237,-10.05978 c 0,-1.21271 0.21361,-1.70882 0.47492,-1.10247 0.25991,0.60638 0.25991,1.59858 0,2.20494 -0.25988,0.60635 -0.47492,0.11033 -0.47492,-1.10247 z"
       id="path1732-7" /></g></svg>
