<?xml version="1.0" encoding="UTF-8" standalone="no"?>
<!-- Created with Inkscape (http://www.inkscape.org/) -->

<svg
   width="158.92809mm"
   height="152.70969mm"
   viewBox="0 0 158.92809 152.70969"
   version="1.1"
   id="svg5"
   xml:space="preserve"
   xmlns="http://www.w3.org/2000/svg"
   xmlns:svg="http://www.w3.org/2000/svg"><defs
     id="defs2" /><g
     id="layer2"
     transform="translate(1167.7819,600.12047)"><g
       id="g236"
       transform="translate(-110.83253,317.5)"
       style="fill:#ffffff;fill-opacity:1"><path
         style="fill:#ffffff;fill-opacity:1;stroke:none;stroke-width:22.4367;stroke-dasharray:none;stroke-opacity:1"
         id="path145"
         d="m -1004.9301,-823.04262 c -0.036,-1.01806 -0.17,-2.0298 -0.321,-3.03623 -0.249,-1.54818 -0.6815,-3.05554 -1.185,-4.5377 -0.5797,-1.65029 -1.2949,-3.24589 -2.0615,-4.81637 -0.8266,-1.66654 -1.7782,-3.26713 -2.775,-4.83635 -1.0168,-1.54591 -2.0998,-3.04644 -3.2098,-4.52625 -1.0544,-1.42904 -2.1701,-2.81165 -3.3062,-4.17605 -1.124,-1.33136 -2.2962,-2.62118 -3.5018,-3.87869 -1.1564,-1.21497 -2.3335,-2.40874 -3.5599,-3.55298 -1.2915,-1.16896 -2.6024,-2.31601 -3.9245,-3.4502 -1.325,-1.12318 -2.6984,-2.18667 -4.0787,-3.24048 -0.9188,-0.70789 -1.8729,-1.36713 -2.8332,-2.01676 -3.2457,-2.20567 -9.4843,6.97442 -6.2386,9.18009 v 0 c 0.7833,0.53533 1.5646,1.07479 2.313,1.65864 1.2213,0.93917 2.4323,1.89209 3.6076,2.88875 1.2208,1.03614 2.41,2.10757 3.6181,3.1582 1.0624,0.96465 2.0954,1.95779 3.0564,3.0253 1.0199,1.08172 2.0038,2.19636 2.9696,3.3265 1.0151,1.23381 2.0116,2.48288 2.963,3.76674 0.9497,1.26537 1.8623,2.55701 2.7517,3.86554 0.7905,1.20896 1.5371,2.44819 2.1889,3.73814 0.5926,1.17464 1.1521,2.36632 1.6143,3.59926 0.3371,0.87333 0.6314,1.76119 0.8263,2.67845 0.1083,0.54049 0.1885,1.11723 0.371,1.62894 0.1579,3.78841 10.8732,3.34195 10.7153,-0.44649 z" /><path
         style="fill:#ffffff;fill-opacity:1;stroke:none;stroke-width:22.4367;stroke-dasharray:none;stroke-opacity:1"
         id="path146"
         d="m -1042.3259,-857.54452 c 1.3655,-0.49356 2.6938,-1.07736 4.002,-1.70551 1.7657,-0.85032 3.4829,-1.79398 5.1745,-2.78204 1.9756,-1.1933 3.8677,-2.5173 5.7272,-3.88249 1.9028,-1.39285 3.7541,-2.85306 5.5991,-4.32094 1.7926,-1.45013 3.578,-2.90909 5.3551,-4.37814 1.8838,-1.56816 3.7064,-3.20675 5.531,-4.8427 1.8509,-1.67063 3.6999,-3.34346 5.5212,-5.04637 1.8536,-1.72487 3.6579,-3.50051 5.45237,-5.28637 1.83427,-1.84304 3.61881,-3.73412 5.3826,-5.64438 1.71609,-1.87228 3.38085,-3.79095 5.01404,-5.7357 1.51461,-1.80377 2.99784,-3.63296 4.44267,-5.49304 0.88313,-1.11521 1.73752,-2.25202 2.57625,-3.40082 2.37715,-3.18132 -6.62101,-9.90497 -8.99819,-6.72364 v 0 c -0.81031,1.05613 -1.63187,2.10354 -2.46718,3.14007 -1.38042,1.73482 -2.803,3.43453 -4.23262,5.12895 -1.54565,1.80938 -3.12084,3.59296 -4.72854,5.34749 -1.6538,1.79742 -3.3395,3.56471 -5.0484,5.30977 -1.7051,1.70828 -3.4154,3.41048 -5.1972,5.0396 -1.7578,1.65531 -3.5328,3.29229 -5.3345,4.89981 -1.7128,1.54702 -3.4136,3.10825 -5.1725,4.60323 -1.6944,1.42673 -3.4205,2.81545 -5.1498,4.19965 -1.7462,1.38401 -3.491,2.76979 -5.278,4.10107 -1.5809,1.17901 -3.1786,2.33526 -4.8378,3.40278 -1.3724,0.88669 -2.817,1.6452 -4.2738,2.38352 -1.1356,0.58431 -2.3061,1.11416 -3.3838,1.80205 -3.4946,1.52887 0.8297,11.41301 4.3243,9.88415 z" /><path
         style="fill:#ffffff;fill-opacity:1;stroke:none;stroke-width:22.4367;stroke-dasharray:none;stroke-opacity:1"
         id="path147"
         d="m -988.65945,-906.84677 c 0.47524,0.45903 0.96721,0.89932 1.46261,1.33623 0.69916,0.63224 1.42886,1.22944 2.15461,1.83059 0.7915,0.6644 1.58361,1.32827 2.35355,2.01766 0.8486,0.78804 1.66193,1.61203 2.44433,2.46558 0.99435,1.07405 1.89843,2.22408 2.80675,3.37018 1.00528,1.25084 1.94352,2.55188 2.82686,3.89104 0.95602,1.50426 1.8179,3.06523 2.68777,4.62005 0.90524,1.603 1.75181,3.2372 2.53428,4.90336 0.80198,1.69485 1.52594,3.4249 2.20139,5.17356 0.70848,1.81226 1.3462,3.64974 1.94609,5.50032 0.64101,1.89349 1.19343,3.81389 1.72958,5.73905 0.52536,1.89137 1.01616,3.79243 1.46296,5.70389 0.4513,1.91055 0.87588,3.82733 1.32789,5.73767 0.42873,1.78028 0.8064,3.57201 1.20338,5.35943 0.27646,1.12874 0.13907,0.57433 0.4119,1.66335 0.87503,3.82638 11.69771,1.35136 10.82265,-2.47502 v 0 c -0.2024,-0.98885 -0.10207,-0.48654 -0.30054,-1.50706 -0.37584,-1.85923 -0.7816,-3.71219 -1.20756,-5.56059 -0.43317,-1.93408 -0.86058,-3.86943 -1.31077,-5.79967 -0.48757,-2.05084 -0.98777,-4.09882 -1.54453,-6.13222 -0.58034,-2.10497 -1.20385,-4.19777 -1.89264,-6.27007 -0.68271,-2.02491 -1.38885,-4.04146 -2.15988,-6.03475 -0.78761,-2.01655 -1.61628,-4.0182 -2.55796,-5.96852 -0.91199,-1.86029 -1.85314,-3.7065 -2.85697,-5.51926 -1.01696,-1.81864 -2.06002,-3.62405 -3.21456,-5.3598 -1.07722,-1.58467 -2.19088,-3.14534 -3.40257,-4.631 -1.11244,-1.37835 -2.25541,-2.73174 -3.47972,-4.01299 -1.06947,-1.10268 -2.16249,-2.18493 -3.3316,-3.18283 -0.87128,-0.72036 -1.74128,-1.44219 -2.61263,-2.16241 -0.6975,-0.55708 -1.39478,-1.11538 -2.10862,-1.65127 -0.36045,-0.28223 -0.70922,-0.57774 -1.06948,-0.8595 -2.76301,-2.59035 -10.08959,5.22468 -7.32657,7.815 z" /><path
         style="fill:#ffffff;fill-opacity:1;stroke:none;stroke-width:22.4367;stroke-dasharray:none;stroke-opacity:1"
         id="path148"
         d="m -944.7033,-845.60298 c 0.0332,-0.58489 0.035,-1.17078 0.0508,-1.7562 0.0214,-0.70561 0.0615,-1.41091 0.13087,-2.11351 0.11649,-0.84852 0.34036,-1.6781 0.53871,-2.51008 0.28493,-1.07363 0.60082,-2.13855 0.93835,-3.19672 0.35184,-1.10408 0.77996,-2.18033 1.23873,-3.24358 0.50755,-1.22426 1.17176,-2.36988 1.81832,-3.5233 0.7562,-1.35551 1.5903,-2.66539 2.42403,-3.97396 0.9016,-1.35025 1.8732,-2.65221 2.85274,-3.94647 1.03788,-1.39912 2.09886,-2.78051 3.17971,-4.14661 1.08119,-1.30077 2.2148,-2.55714 3.35695,-3.80436 1.19105,-1.29061 2.41657,-2.54762 3.68152,-3.76574 1.25481,-1.25251 2.56693,-2.44469 3.89821,-3.61479 1.31257,-1.14056 2.6393,-2.26729 4.00413,-3.34502 1.32175,-1.02481 2.65107,-2.03994 4.00428,-3.02297 1.23518,-0.89471 2.51764,-1.72072 3.80357,-2.53979 0.99735,-0.63629 2.02039,-1.23028 3.05205,-1.80871 3.42373,-1.90508 -1.96464,-11.58889 -5.38837,-9.68381 v 0 c -1.21764,0.67321 -2.42586,1.36374 -3.60387,2.10474 -1.4773,0.92921 -2.94925,1.86854 -4.37295,2.87887 -1.5163,1.08157 -3.01265,2.19155 -4.48029,3.33841 -1.48379,1.19946 -2.96596,2.40213 -4.39868,3.66263 -1.4837,1.29847 -2.95126,2.61673 -4.34739,4.00989 -1.39332,1.37642 -2.76863,2.76977 -4.08773,4.21809 -1.32935,1.44188 -2.64555,2.89693 -3.8661,4.43334 -1.14048,1.43319 -2.26684,2.87726 -3.36161,4.34583 -1.16112,1.54104 -2.29145,3.10661 -3.33557,4.72993 -0.93996,1.49423 -1.89005,2.98368 -2.73857,4.53271 -0.82661,1.50238 -1.59906,3.03273 -2.26219,4.61534 -0.58269,1.39581 -1.11651,2.81151 -1.57199,4.25439 -0.41135,1.32855 -0.80336,2.66407 -1.13695,4.01452 -0.29998,1.33134 -0.58872,2.67108 -0.68397,4.03567 -0.083,1.01912 -0.14362,2.04224 -0.10033,3.06506 0.0159,0.58542 0.0177,1.17131 0.0509,1.7562 0,3.78751 10.71269,3.78751 10.71269,0 z" /><path
         style="fill:#ffffff;fill-opacity:1;stroke:none;stroke-width:22.4367;stroke-dasharray:none;stroke-opacity:1"
         id="path149"
         d="m -994.00303,-908.35328 c -0.0299,0.64564 -0.0527,1.29154 -0.0778,1.93736 -0.0519,1.18345 -0.0692,2.36781 -0.0745,3.55227 -0.019,1.53791 0.006,3.07588 0.0524,4.61309 0.051,1.71262 0.14709,3.42344 0.26805,5.13241 0.10727,1.77864 0.24485,3.55521 0.36595,5.33294 0.1402,1.98562 0.32562,3.96735 0.50258,5.94985 0.21791,2.15013 0.45383,4.29826 0.69262,6.44615 0.25823,2.18903 0.53136,4.37618 0.81825,6.56161 0.30956,2.30793 0.64932,4.61103 1.02579,6.90893 0.37402,2.37453 0.83391,4.7339 1.29913,7.09187 0.454,2.40403 0.987,4.792 1.56557,7.1688 0.55139,2.30018 1.17782,4.58097 1.83642,6.85245 0.60894,2.09542 1.25402,4.18039 1.91177,6.26094 0.65262,2.0374 1.35739,4.05715 2.07709,6.0716 0.58949,1.65545 1.24563,3.28504 1.90915,4.91178 1.4872,3.68335 11.90532,-0.52308 10.41813,-4.20642 v 0 c -0.58849,-1.47286 -1.17952,-2.94513 -1.7122,-4.43939 -0.65966,-1.90545 -1.31964,-3.81117 -1.93744,-5.73067 -0.62262,-1.97773 -1.23341,-3.95962 -1.78244,-5.95929 -0.59286,-2.13574 -1.16867,-4.27654 -1.67497,-6.43474 -0.53256,-2.21361 -1.03635,-4.43408 -1.47807,-6.66782 -0.4381,-2.27105 -0.83392,-4.54983 -1.23884,-6.82699 -0.3847,-2.1653 -0.70577,-4.34076 -1.02025,-6.51724 -0.29322,-2.09966 -0.53804,-4.2049 -0.78349,-6.31063 -0.2399,-2.10342 -0.48943,-4.20572 -0.72549,-6.30958 -0.21153,-1.8823 -0.38819,-3.76764 -0.54083,-5.65568 -0.14272,-1.75768 -0.29432,-3.5147 -0.41963,-5.27372 -0.10922,-1.58907 -0.21286,-3.17874 -0.28144,-4.77015 -0.0622,-1.3993 -0.12274,-2.79921 -0.13054,-4.2001 -0.005,-1.18446 -0.0225,-2.36882 -0.0745,-3.55227 -0.0251,-0.64582 -0.0479,-1.29172 -0.0778,-1.93736 0,-3.78748 -10.71271,-3.78748 -10.71271,0 z" /><path
         style="fill:#ffffff;fill-opacity:1;stroke:none;stroke-width:22.4367;stroke-dasharray:none;stroke-opacity:1"
         id="path150"
         d="m -977.77034,-829.40789 c -0.18923,0.30015 -0.49562,0.79476 -0.72472,1.18253 -0.55534,0.90326 -1.04616,1.84428 -1.5671,2.76744 -0.75899,1.35758 -1.48,2.73539 -2.20052,4.11361 -0.78822,1.55062 -1.57464,3.10216 -2.3573,4.65558 -0.80894,1.621 -1.57673,3.26218 -2.34765,4.90151 -0.75538,1.63595 -1.47836,3.28652 -2.20131,4.93697 -0.72982,1.70545 -1.42472,3.42569 -2.09433,5.15559 -0.69234,1.80282 -1.29765,3.63688 -1.88325,5.47656 -0.55716,1.82594 -1.03862,3.67387 -1.48019,5.53077 -0.474,1.93447 -0.80113,3.89723 -1.03505,5.87375 -0.22135,1.96739 -0.29945,3.9465 -0.32406,5.92492 -0.0201,1.75604 0.005,3.51176 0.0434,5.26732 0.0164,1.43129 0.10306,2.85994 0.21529,4.28644 0.24215,3.91366 11.31163,3.22876 11.06948,-0.6849 v 0 c -0.0559,-1.2699 -0.143,-2.53889 -0.15944,-3.81008 -0.0254,-1.62539 -0.0398,-3.25083 -0.007,-4.87627 0.0339,-1.60277 0.0953,-3.20487 0.25823,-4.8006 0.18105,-1.54752 0.42537,-3.08576 0.79505,-4.60084 0.37658,-1.58597 0.80568,-3.15995 1.27735,-4.72025 0.51988,-1.63409 1.07135,-3.25818 1.67251,-4.86431 0.60092,-1.5853 1.21986,-3.16386 1.89151,-4.72077 0.67125,-1.56716 1.38356,-3.11619 2.09055,-4.66749 0.70234,-1.53022 1.4215,-3.05247 2.16739,-4.56205 0.78102,-1.53017 1.54601,-3.06848 2.31283,-4.60579 0.69241,-1.36721 1.37869,-2.73751 2.03554,-4.12226 0.4336,-0.89914 0.8821,-1.79091 1.35499,-2.67012 0.29972,-0.60114 0.58491,-1.20785 0.87365,-1.81386 1.60988,-3.42098 -8.06609,-7.97435 -9.67595,-4.5534 z" /><path
         style="fill:#ffffff;fill-opacity:1;stroke:none;stroke-width:22.4367;stroke-dasharray:none;stroke-opacity:1"
         id="path151"
         d="m -985.06572,-770.72447 c -0.26615,-0.69836 -0.61524,-1.36051 -0.97105,-2.01631 -0.69848,-1.24833 -1.64502,-2.32187 -2.63991,-3.33875 -1.01161,-1.01608 -2.12452,-1.91897 -3.24697,-2.80768 -1.21176,-0.95599 -2.48467,-1.8279 -3.77266,-2.67676 -1.39946,-0.92866 -2.87795,-1.72918 -4.35519,-2.52521 -1.6182,-0.86236 -3.2992,-1.5956 -4.978,-2.3296 -1.8241,-0.79788 -3.6834,-1.50699 -5.5579,-2.17625 -1.9075,-0.67525 -3.8365,-1.28757 -5.7771,-1.86026 -1.9202,-0.56404 -3.8632,-1.0418 -5.8127,-1.49186 -2.0392,-0.4522 -4.1067,-0.75731 -6.1755,-1.03634 -2.0433,-0.27244 -4.0979,-0.44117 -6.1539,-0.57904 -2.0948,-0.12579 -4.1941,-0.14986 -6.2921,-0.15547 -1.9255,-0.007 -3.8505,0.046 -5.7744,0.11964 -1.8322,0.0809 -3.6623,0.20341 -5.4865,0.39235 -0.8531,0.0892 -1.7045,0.19175 -2.5553,0.30089 -3.8995,0.47828 -2.5467,11.50786 1.3529,11.02955 v 0 c 0.7678,-0.089 1.536,-0.17391 2.3053,-0.24945 1.5805,-0.1493 3.1644,-0.26143 4.7514,-0.3125 1.7779,-0.0485 3.5566,-0.0714 5.3351,-0.0498 1.9169,0.0198 3.8334,0.0642 5.7487,0.14557 1.7638,0.0711 3.5207,0.2363 5.27,0.47488 1.7386,0.23428 3.4771,0.49463 5.1961,0.84505 1.7309,0.38452 3.4444,0.83703 5.146,1.33575 1.7288,0.49876 3.4426,1.04441 5.1366,1.65195 1.6527,0.59494 3.309,1.18451 4.9307,1.86079 1.3957,0.59116 2.7837,1.20319 4.1522,1.85496 1.1873,0.63268 2.366,1.28366 3.5128,1.98769 1.0363,0.68188 2.07777,1.35826 3.06155,2.11529 0.79346,0.61423 1.60478,1.21041 2.33399,1.9019 0.29851,0.2821 0.62162,0.5815 0.8999,0.85738 0.2594,0.4394 0.50322,0.8871 0.73719,1.34057 1.62949,3.42196 11.30823,-1.18697 9.67875,-4.60894 z" /><path
         style="fill:#ffffff;fill-opacity:1;stroke:none;stroke-width:22.4367;stroke-dasharray:none;stroke-opacity:1"
         id="path152"
         d="m -970.30825,-819.7639 c 1.00415,-0.19582 1.98298,-0.49866 2.94995,-0.82847 1.34877,-0.47087 2.66848,-1.02243 3.9828,-1.58123 1.45899,-0.64825 2.9215,-1.28825 4.36393,-1.97286 1.47077,-0.70329 2.94129,-1.40684 4.38952,-2.15564 1.46566,-0.77192 2.90856,-1.58549 4.32578,-2.44292 1.41187,-0.84241 2.78201,-1.74813 4.13027,-2.68814 1.06122,-0.72838 2.10889,-1.47548 3.15429,-2.22621 3.20677,-2.24832 -3.15243,-11.31848 -6.35921,-9.07015 v 0 c -1.05622,0.72456 -2.09574,1.47214 -3.14365,2.20842 -1.13651,0.79573 -2.2902,1.5652 -3.48326,2.27446 -1.22682,0.72851 -2.47238,1.42497 -3.73272,2.09378 -1.32858,0.69176 -2.68726,1.32469 -4.03717,1.97345 -1.34718,0.63773 -2.70497,1.25217 -4.05884,1.87545 -1.10008,0.50265 -2.20771,0.99007 -3.32594,1.45092 -0.51068,0.21225 -1.02476,0.41698 -1.53065,0.63963 -3.69445,0.83966 -1.31955,11.28916 2.3749,10.44951 z" /><path
         style="fill:#ffffff;fill-opacity:1;stroke:none;stroke-width:22.4367;stroke-dasharray:none;stroke-opacity:1"
         id="path153"
         d="m -947.82951,-840.32507 c -0.0872,0.73972 -0.12007,1.48368 -0.16476,2.22671 -0.0598,1.02542 -0.0887,2.05181 -0.0948,3.07887 -0.0132,1.29487 0.0386,2.58906 0.0824,3.8829 0.0497,1.51148 0.18881,3.01876 0.34272,4.5227 0.14788,1.59311 0.31946,3.18371 0.5271,4.77015 0.22633,1.70286 0.49469,3.39971 0.76893,5.09543 0.29372,1.76101 0.6322,3.51403 0.95925,5.26901 0.33118,1.79721 0.68257,3.59059 1.03598,5.38351 0.35335,1.8357 0.72869,3.66702 1.10754,5.49759 0.39206,1.875 0.80931,3.74425 1.24955,5.60848 0.43416,1.85491 0.91557,3.69845 1.42063,5.53521 0.48173,1.7752 1.01894,3.53423 1.5657,5.29024 0.53935,1.72657 1.12818,3.43686 1.77236,5.12702 0.60931,1.60303 1.27471,3.18399 1.997,4.73919 0.62875,1.37805 1.36033,2.70269 2.14476,3.99703 2.036,3.35407 11.52276,-2.40453 9.48677,-5.7586 v 0 c -0.56751,-0.93276 -1.09429,-1.88696 -1.55422,-2.87822 -0.60076,-1.31966 -1.16697,-2.65533 -1.66216,-4.0186 -0.5507,-1.48629 -1.0509,-2.99029 -1.52268,-4.50344 -0.50496,-1.6459 -0.99695,-3.29557 -1.44042,-4.95935 -0.46931,-1.70865 -0.92035,-3.42191 -1.30386,-5.15223 -0.41606,-1.75252 -0.83569,-3.50425 -1.1834,-5.27206 -0.36616,-1.8088 -0.75013,-3.61397 -1.107,-5.42465 -0.35414,-1.77967 -0.68656,-3.56357 -1.03983,-5.34339 -0.33079,-1.63021 -0.65133,-3.26298 -0.923,-4.90421 -0.25697,-1.61034 -0.53332,-3.21768 -0.76079,-4.83259 -0.20986,-1.46209 -0.37994,-2.92923 -0.53908,-4.39764 -0.13616,-1.31382 -0.25938,-2.62948 -0.33399,-3.9484 -0.0773,-1.12467 -0.13483,-2.25097 -0.15219,-3.37831 -0.0145,-0.87014 -0.0436,-1.7399 -0.006,-2.61004 0.008,-0.60637 0.0323,-1.21253 0.0323,-1.81882 0.29115,-3.78481 -10.41389,-4.60827 -10.70504,-0.82349 z" /><path
         style="fill:#ffffff;fill-opacity:1;stroke:none;stroke-width:22.4367;stroke-dasharray:none;stroke-opacity:1"
         id="path154"
         d="m -934.06697,-854.14786 c 0.2359,0.41003 0.41555,0.84746 0.61905,1.27379 0.34917,0.81121 0.65325,1.64007 0.97633,2.46181 0.47112,1.2109 0.93107,2.42642 1.3797,3.64591 0.51038,1.45198 0.95284,2.92666 1.39912,4.39925 0.53877,1.71397 0.96668,3.46014 1.38758,5.206 0.45762,1.89055 0.83571,3.79854 1.19737,5.70933 0.367,2.08153 0.67884,4.17246 0.98592,6.26354 0.29779,2.15508 0.58213,4.31199 0.85987,6.46975 0.27437,2.0782 0.45627,4.16737 0.63989,6.25512 0.17304,2.01231 0.26723,4.03011 0.36417,6.04713 0.0496,1.87897 0.0138,3.75928 -0.0143,5.63838 0,0.31514 -0.003,0.63029 -0.003,0.94543 -0.0828,3.95375 11.10006,4.18788 11.18285,0.23416 v 0 c 0.0116,-0.29303 0.023,-0.58605 0.0346,-0.87905 0.081,-2.14225 0.116,-4.28694 0.0465,-6.43017 -0.086,-2.18054 -0.1736,-4.36155 -0.35584,-6.53669 -0.19225,-2.22562 -0.39513,-4.45016 -0.68395,-6.66581 -0.26842,-2.24319 -0.54165,-4.48609 -0.87352,-6.72094 -0.33031,-2.25335 -0.67368,-4.50538 -1.11461,-6.74029 -0.40558,-2.09563 -0.83982,-4.18595 -1.34707,-6.25964 -0.48589,-1.96242 -1.00561,-3.91647 -1.64084,-5.83674 -0.52899,-1.6777 -1.07503,-3.35121 -1.71181,-4.99165 -0.50604,-1.32123 -1.03303,-2.63443 -1.5772,-3.94039 -0.46374,-1.07447 -0.93382,-2.1471 -1.47397,-3.18596 -0.36147,-0.65875 -0.69514,-1.33688 -1.13993,-1.94564 -1.974,-3.23019 -11.11041,2.35316 -9.13638,5.58337 z" /><path
         style="fill:#ffffff;fill-opacity:1;stroke:none;stroke-width:22.4367;stroke-dasharray:none;stroke-opacity:1"
         id="path155"
         d="m -918.09262,-853.65211 c 0.30231,0.71105 0.547,1.44291 0.81838,2.16633 0.40069,1.14459 0.83373,2.27754 1.23603,3.42149 0.48387,1.31281 0.8781,2.65478 1.26706,3.99788 0.4653,1.58559 0.90435,3.1796 1.29271,4.78584 0.42761,1.79586 0.85312,3.59243 1.23965,5.39765 0.39711,1.88857 0.74369,3.78759 1.03235,5.69569 0.31795,2.06084 0.62029,4.12401 0.89852,6.19059 0.29684,2.07351 0.49427,4.158 0.65887,6.24551 0.1343,2.1993 0.20206,4.40214 0.25567,6.60467 0.0585,2.15198 0.0595,4.30463 0.0345,6.45707 -0.018,2.05372 -0.11774,4.10499 -0.23651,6.1549 -0.11004,1.86571 -0.26903,3.72771 -0.50948,5.58115 -0.24318,1.70754 -0.55536,3.4045 -0.89133,5.09595 -0.29355,1.58094 -0.6636,3.14256 -1.08643,4.69318 -0.0691,0.25252 -0.13819,0.50506 -0.20727,0.75758 -1.06958,3.79188 9.65546,6.8171 10.72504,3.02522 v 0 c 0.0846,-0.29231 0.16918,-0.58462 0.25376,-0.87693 0.47289,-1.76819 0.87919,-3.55309 1.25527,-5.3443 0.41388,-1.94752 0.79237,-3.90342 1.07674,-5.87451 0.2857,-2.11535 0.49184,-4.23956 0.64371,-6.36876 0.14229,-2.21748 0.24066,-4.43704 0.26958,-6.6592 0.0476,-2.29655 0.0643,-4.59345 0.0132,-6.89022 -0.048,-2.4288 -0.12189,-4.85915 -0.30247,-7.28205 -0.19344,-2.28185 -0.4595,-4.55567 -0.77012,-6.82453 -0.29239,-2.17249 -0.58828,-4.34488 -0.94525,-6.50788 -0.36582,-2.0938 -0.74264,-4.18615 -1.20026,-6.26226 -0.42836,-1.93667 -0.87257,-3.86969 -1.37599,-5.7885 -0.46823,-1.73757 -0.93231,-3.47684 -1.47304,-5.19367 -0.47559,-1.54537 -0.98396,-3.08004 -1.54631,-4.59626 -0.47236,-1.25582 -0.9535,-2.5088 -1.48791,-3.73986 -0.32165,-0.73863 -0.6368,-1.48696 -1.02843,-2.19106 -1.45995,-3.50386 -11.37029,0.62547 -9.91037,4.12929 z" /></g></g></svg>
