<?xml version="1.0" encoding="UTF-8" standalone="no"?>
<!-- Created with Inkscape (http://www.inkscape.org/) -->

<svg
   width="128.13609mm"
   height="167.93636mm"
   viewBox="0 0 128.13609 167.93635"
   version="1.1"
   id="svg5"
   xml:space="preserve"
   xmlns="http://www.w3.org/2000/svg"
   xmlns:svg="http://www.w3.org/2000/svg"><defs
     id="defs2" /><g
     id="layer2"
     transform="translate(1532.3986,607.44047)"><g
       id="g234"
       transform="translate(-182.44825,317.5)"
       style="fill:#ffffff;fill-opacity:1"><path
         style="fill:#ffffff;fill-opacity:1;stroke:none;stroke-width:22.4367;stroke-dasharray:none;stroke-opacity:1"
         id="path134"
         d="m -1310.1648,-923.33375 c -0.6854,0.279 -1.3464,0.61309 -1.9945,0.96912 -0.7994,0.42452 -1.5377,0.9498 -2.2651,1.48542 -1.1289,0.84283 -2.0604,1.89574 -2.9585,2.97138 -0.9303,1.15498 -1.7509,2.39342 -2.5624,3.63317 -0.9563,1.46334 -1.7877,3.00035 -2.5552,4.56933 -0.8524,1.71331 -1.5578,3.49171 -2.2178,5.28611 -0.6751,1.85941 -1.2471,3.75349 -1.7853,5.65632 -0.5861,1.96942 -1.0071,3.97883 -1.3503,6.00292 -0.3288,1.93564 -0.535,3.8881 -0.6726,5.8457 -0.1286,1.97647 -0.077,3.95653 0.05,5.93109 0.1041,1.87637 0.36,3.73827 0.6472,5.5939 0.2839,1.88071 0.7115,3.73202 1.1836,5.57289 0.4518,1.7285 0.9517,3.4436 1.4554,5.15752 0.4977,1.63179 0.969,3.27081 1.4134,4.91789 0.4797,1.62621 0.877,3.2739 1.2559,4.92588 0.3935,1.67667 0.728,3.36606 1.0584,5.056 0.3146,1.5702 0.5498,3.15495 0.7417,4.74443 0.1835,1.34806 0.1888,2.70645 0.1657,4.06353 -10e-5,1.23941 -0.1998,2.45938 -0.4298,3.67281 -0.1913,1.24174 -0.5866,2.42943 -1.0029,3.60966 -0.431,1.21216 -0.9534,2.38723 -1.5226,3.53986 -0.5834,1.16488 -1.2398,2.29058 -1.9088,3.40773 -2.023,3.34221 7.4302,9.06417 9.4532,5.72195 v 0 c 0.8419,-1.37869 1.6649,-2.77034 2.3829,-4.21862 0.7667,-1.54797 1.4642,-3.13028 2.0518,-4.75562 0.6027,-1.70323 1.1224,-3.43453 1.4382,-5.2166 0.3527,-1.8255 0.6041,-3.66837 0.6384,-5.53054 0.044,-1.8675 0.014,-3.73694 -0.1987,-5.59509 -0.2143,-1.86311 -0.4778,-3.72062 -0.8409,-5.56119 -0.3491,-1.82952 -0.7203,-3.6548 -1.1388,-5.46984 -0.4176,-1.77417 -0.8752,-3.53769 -1.3652,-5.29328 -0.4663,-1.73887 -0.964,-3.46906 -1.4954,-5.1892 -0.4705,-1.57408 -0.9437,-3.14748 -1.345,-4.74109 -0.3788,-1.49696 -0.7477,-2.99744 -0.9755,-4.52655 -0.2354,-1.51553 -0.4623,-3.03477 -0.5273,-4.56922 -0.086,-1.49159 -0.1655,-2.98611 -0.053,-4.4791 0.1067,-1.57917 0.2953,-3.1509 0.5631,-4.71117 0.2889,-1.6338 0.6242,-3.26112 1.1001,-4.85212 0.467,-1.64234 0.9432,-3.283 1.5167,-4.89209 0.5213,-1.45418 1.0632,-2.90298 1.7359,-4.29543 0.536,-1.14644 1.0992,-2.281 1.7786,-3.35092 0.6154,-0.94814 1.2226,-1.90267 1.8773,-2.82443 0.2962,-0.39801 0.5935,-0.79957 0.9217,-1.16962 0.3316,-0.26008 0.6519,-0.53718 1.0295,-0.72937 0.3012,-0.18566 0.6287,-0.32883 0.9289,-0.51245 3.4829,-1.49264 -0.739,-11.34374 -4.2219,-9.85107 z" /><path
         style="fill:#ffffff;fill-opacity:1;stroke:none;stroke-width:22.4367;stroke-dasharray:none;stroke-opacity:1"
         id="path135"
         d="m -1285.5462,-922.62602 c -0.6006,0.41598 -1.1302,0.92565 -1.6478,1.43844 -0.7058,0.69162 -1.3305,1.45536 -1.9368,2.23374 -0.7919,1.03174 -1.493,2.12865 -2.1839,3.22932 -0.8885,1.41272 -1.6408,2.90386 -2.3527,4.41137 -0.7782,1.66092 -1.4284,3.37656 -2.0446,5.10276 -0.6772,1.9023 -1.1577,3.86133 -1.5593,5.83739 -0.3981,2.04965 -0.6024,4.12793 -0.7479,6.2085 -0.1398,2.3019 0,4.60269 0.2093,6.89489 0.203,2.14487 0.5202,4.27656 0.8898,6.39836 0.3701,2.03094 0.8297,4.04477 1.3451,6.04343 0.5002,1.92648 1.1105,3.82175 1.7412,5.70875 0.5741,1.71069 1.1461,3.42189 1.7387,5.12625 0.5869,1.7634 1.2083,3.51478 1.8282,5.26672 0.592,1.65277 1.1299,3.32399 1.6458,5.00187 0.4767,1.50762 0.8384,3.04477 1.1391,4.59586 0.2849,1.36184 0.4316,2.74342 0.4732,4.13256 0.012,1.26016 -0.1123,2.51449 -0.2833,3.76121 -0.1612,1.16491 -0.3833,2.31717 -0.7195,3.44421 -0.3277,1.0314 -0.7803,2.01502 -1.2572,2.98424 -0.4565,0.89852 -0.9694,1.76813 -1.5392,2.59924 -0.4494,0.63135 -0.9829,1.19462 -1.5332,1.73768 -0.5716,0.55853 -1.1967,1.05671 -1.8376,1.53244 -0.4255,0.30548 -0.1995,0.14253 -0.6777,0.48924 -3.1552,2.2144 3.1081,11.13874 6.2633,8.92434 v 0 c 0.5917,-0.4027 0.2773,-0.18608 0.9423,-0.65143 1.0459,-0.78095 2.0642,-1.60028 2.9975,-2.51489 1.022,-1.01074 2.0004,-2.06756 2.8454,-3.23348 0.8964,-1.2714 1.7267,-2.58923 2.4283,-3.97946 0.7722,-1.5493 1.4796,-3.13357 1.974,-4.79634 0.474,-1.64775 0.8542,-3.31806 1.095,-5.01708 0.2606,-1.87246 0.4593,-3.75746 0.4225,-5.65121 -0.07,-1.96527 -0.2499,-3.92531 -0.6348,-5.85645 -0.3678,-1.94474 -0.8105,-3.87453 -1.4029,-5.76461 -0.5575,-1.83914 -1.1422,-3.67022 -1.7862,-5.48113 -0.6153,-1.73099 -1.2223,-3.4648 -1.8427,-5.19396 -0.5743,-1.64663 -1.1129,-3.30538 -1.6548,-4.96292 -0.5382,-1.65388 -1.0716,-3.31028 -1.5178,-4.99195 -0.437,-1.7041 -0.808,-3.42542 -1.1207,-5.15665 -0.3108,-1.83647 -0.5806,-3.68104 -0.752,-5.53627 -0.1618,-1.69992 -0.2875,-3.40635 -0.238,-5.11543 0.098,-1.60538 0.2412,-3.2086 0.5347,-4.79192 0.2716,-1.44907 0.6092,-2.8852 1.0941,-4.27971 0.4852,-1.38946 1.0009,-2.7689 1.6027,-4.11279 0.5245,-1.13642 1.0452,-2.27836 1.6549,-3.37188 0.5093,-0.85815 1.0713,-1.68233 1.607,-2.52402 0.2736,-0.4087 0.5317,-0.83074 0.8701,-1.19044 0.4303,-0.44291 -0.015,-0.0593 0.4337,-0.42188 3.0076,-2.29997 -3.4976,-10.80688 -6.5053,-8.50691 z" /><path
         style="fill:#ffffff;fill-opacity:1;stroke:none;stroke-width:22.4367;stroke-dasharray:none;stroke-opacity:1"
         id="path136"
         d="m -1250.7061,-924.63706 c -0.5441,0.337 -1.0609,0.71877 -1.5695,1.10709 -0.9138,0.72367 -1.7415,1.54575 -2.5404,2.39223 -1.151,1.19291 -2.1439,2.51326 -3.0513,3.89681 -0.9842,1.5683 -1.8024,3.23133 -2.5795,4.9093 -0.8216,1.75868 -1.4503,3.59245 -2.0169,5.44597 -0.5726,1.92648 -0.9569,3.90075 -1.2871,5.88094 -0.334,2.01875 -0.5352,4.05493 -0.6603,6.09624 -0.1247,2.06597 -0.1485,4.13396 -0.071,6.20178 0.087,2.09294 0.3636,4.17007 0.6999,6.23546 0.3417,2.01549 0.8386,3.99995 1.3955,5.96543 0.4976,1.79607 1.1205,3.5528 1.7632,5.30088 0.6001,1.53672 1.1911,3.07617 1.7506,4.62811 0.5173,1.40576 0.9791,2.82972 1.3521,4.28038 0.3405,1.37679 0.6272,2.76561 0.828,4.16965 0.2097,1.29984 0.2107,2.61861 0.2166,3.93142 0,1.33638 -0.1338,2.66721 -0.2812,3.99372 -0.1754,1.36705 -0.4448,2.71915 -0.7182,4.06919 -0.2536,1.27172 -0.6037,2.52108 -0.972,3.76354 -0.345,1.1376 -0.8044,2.23099 -1.2722,3.32168 -0.4672,1.10577 -0.9908,2.1843 -1.5491,3.24644 -0.5759,1.01896 -1.19,2.01501 -1.8206,3.00082 -0.5676,0.92266 -1.1863,1.81063 -1.8548,2.66251 -2.4047,3.04916 6.2196,9.85067 8.6243,6.80151 v 0 c 0.8871,-1.1212 1.7275,-2.27785 2.4865,-3.49047 0.8255,-1.27018 1.6346,-2.55262 2.343,-3.89284 0.6721,-1.3063 1.3334,-2.61792 1.9133,-3.96856 0.6328,-1.46963 1.2364,-2.95198 1.7078,-4.48286 0.4794,-1.56168 0.9215,-3.13534 1.2549,-4.73552 0.3508,-1.69259 0.6997,-3.38888 0.8868,-5.10907 0.1806,-1.73149 0.3502,-3.46694 0.3483,-5.20991 0,-1.83402 -0.036,-3.67295 -0.3161,-5.48963 -0.2648,-1.82118 -0.607,-3.62921 -1.0616,-5.41346 -0.4734,-1.76855 -1.0038,-3.51962 -1.6392,-5.23763 -0.5629,-1.55202 -1.1853,-3.08023 -1.7643,-4.62606 -0.5316,-1.49421 -1.0436,-2.99656 -1.4567,-4.52863 -0.432,-1.56628 -0.8486,-3.14042 -1.1186,-4.74414 -0.2613,-1.61592 -0.4791,-3.24157 -0.5466,-4.87863 -0.07,-1.70788 -0.048,-3.4146 0.063,-5.12098 0.087,-1.65224 0.2321,-3.30121 0.4962,-4.93567 0.2396,-1.50106 0.5217,-2.99789 0.9341,-4.46228 0.4106,-1.38141 0.8661,-2.74775 1.4643,-4.06148 0.5425,-1.22058 1.144,-2.41377 1.808,-3.5731 0.5281,-0.87952 1.1062,-1.72066 1.8079,-2.47359 0.3822,-0.43989 0.7566,-0.89958 1.1379,-1.3304 0.4222,-0.35777 0.4514,-0.40844 0.6792,-0.55078 3.1768,-2.05558 -2.6373,-11.04099 -5.8141,-8.98541 z" /><path
         style="fill:#ffffff;fill-opacity:1;stroke:none;stroke-width:22.4367;stroke-dasharray:none;stroke-opacity:1"
         id="path137"
         d="m -1300.7677,-815.65368 c -0.6508,-0.12001 -1.3085,-0.19701 -1.9658,-0.27025 -0.8954,-0.0781 -1.7933,-0.11316 -2.6918,-0.11435 -0.9666,0.003 -1.9328,0.0333 -2.8985,0.0714 -1.1996,0.0562 -2.3947,0.16502 -3.5875,0.30139 -1.2813,0.17941 -2.5643,0.34772 -3.8399,0.56491 -1.3101,0.22762 -2.612,0.49837 -3.9167,0.75414 -1.4219,0.27554 -2.8333,0.60204 -4.2401,0.94549 -1.5027,0.34766 -2.9848,0.77732 -4.4525,1.25016 -1.6987,0.54107 -3.3277,1.26788 -4.9299,2.04367 -1.6665,0.81732 -3.2365,1.8076 -4.7541,2.87176 -1.6446,1.16509 -3.0819,2.58193 -4.4553,4.04839 -1.3211,1.36937 -2.4264,2.91121 -3.4533,4.50678 -0.9272,1.43301 -1.6761,2.96852 -2.3568,4.53048 -0.6703,1.61219 -1.1256,3.29531 -1.4197,5.01306 -0.253,1.62219 -0.2651,3.26274 -0.1538,4.89638 0.1259,1.63293 0.6193,3.18871 1.1812,4.71517 0.6244,1.75824 1.6422,3.29867 2.8163,4.7321 1.1307,1.27913 2.401,2.42358 3.6807,3.54989 1.512,1.34122 3.231,2.40673 4.9665,3.42828 1.809,1.11049 3.716,2.03534 5.658,2.88539 2.2149,1.0015 4.522,1.75596 6.8483,2.44761 2.3881,0.7172 4.8104,1.30765 7.2379,1.87386 2.5274,0.6093 5.0793,1.10307 7.6423,1.53479 2.7494,0.45289 5.5132,0.80669 8.283,1.10649 2.9139,0.31313 5.8347,0.54385 8.7592,0.72895 3.1754,0.20598 6.3554,0.25106 9.5363,0.22823 3.3656,-0.0151 6.7255,-0.21373 10.0769,-0.50935 3.2735,-0.30043 6.5318,-0.74133 9.788,-1.18718 3.0375,-0.4032 6.0609,-0.90377 9.0646,-1.50866 2.8534,-0.57242 5.6752,-1.28172 8.4605,-2.1232 2.7264,-0.83487 5.31,-2.04229 7.8352,-3.35174 2.4319,-1.2967 4.5518,-3.05165 6.5498,-4.92972 1.6701,-1.57191 3.1139,-3.3497 4.4697,-5.19295 1.2429,-1.74397 2.2604,-3.63175 3.1185,-5.59004 0.7466,-1.80858 1.1945,-3.71557 1.5769,-5.62821 0.3439,-1.78131 0.5122,-3.58572 0.5194,-5.39782 -0.066,-2.15987 -0.5754,-4.21722 -1.4078,-6.20046 -0.8906,-1.89468 -2.1677,-3.53938 -3.5986,-5.05097 -1.5408,-1.54697 -3.3862,-2.71666 -5.2864,-3.76576 -1.9165,-1.02794 -3.9756,-1.74091 -6.0365,-2.41509 -2.1973,-0.71774 -4.4465,-1.2472 -6.7035,-1.73617 -2.5702,-0.5632 -5.1664,-0.98812 -7.7682,-1.3733 -2.7751,-0.40214 -5.5497,-0.80737 -8.3318,-1.15787 -3.1644,-0.42531 -6.3429,-0.72427 -9.5221,-1.0111 -3.1819,-0.28509 -6.373,-0.44725 -9.565,-0.56192 -2.9435,-0.0987 -5.8886,-0.15256 -8.8336,-0.18283 -2.7642,-0.0246 -5.5282,0.0183 -8.2915,0.0844 -2.5847,0.0795 -5.167,0.22424 -7.7439,0.43932 -2.3843,0.21854 -4.7656,0.46799 -7.1444,0.73991 -3.9813,0.43301 -2.7566,11.694 1.2247,11.26101 v 0 c 2.2718,-0.23408 4.5452,-0.45194 6.8202,-0.65217 2.3484,-0.17566 4.6983,-0.33703 7.0545,-0.34841 2.6463,-0.0337 5.2931,-0.0472 7.9394,-0.009 2.8293,0.0405 5.6587,0.10755 8.4856,0.23463 2.9962,0.14692 5.9941,0.29287 8.9815,0.57253 3.0654,0.29147 6.1318,0.57301 9.1951,0.88612 2.6827,0.31734 5.3666,0.62843 8.039,1.02557 2.3785,0.35915 4.7643,0.68067 7.1255,1.14372 1.8885,0.38476 3.7846,0.75697 5.6295,1.32146 1.4144,0.43752 2.8198,0.92004 4.164,1.54427 0.9157,0.4709 1.8048,0.99861 2.6045,1.6515 0.5683,0.56332 1.0826,1.15874 1.4754,1.86214 0.3558,0.55078 0.338,1.21914 0.4569,1.84748 0.1044,1.01872 -0.232,2.05594 -0.3449,3.06107 -0.2313,1.13699 -0.4865,2.27422 -0.9039,3.35989 -0.5179,1.18941 -1.1694,2.3174 -1.9181,3.37677 -0.967,1.28863 -1.9861,2.53706 -3.1833,3.6227 -1.2312,1.14247 -2.5149,2.23711 -4.0007,3.0407 -1.928,0.95808 -3.882,1.87544 -5.9464,2.50544 -2.4419,0.71274 -4.9145,1.30691 -7.4125,1.78991 -2.7776,0.52763 -5.5682,0.98369 -8.3767,1.3144 -3.094,0.39857 -6.1928,0.75972 -9.2964,1.07479 -3.0355,0.27511 -6.0781,0.49347 -9.1276,0.5112 -2.9267,0.0238 -5.8538,0.0278 -8.7771,-0.14335 -2.753,-0.14523 -5.5016,-0.34962 -8.2436,-0.63855 -2.5471,-0.2518 -5.0934,-0.52729 -7.6175,-0.95885 -2.3029,-0.36676 -4.6098,-0.72382 -6.871,-1.30543 -2.2172,-0.5349 -4.4395,-1.0565 -6.6291,-1.69701 -1.885,-0.55896 -3.7991,-1.05685 -5.5928,-1.87592 -1.5278,-0.66024 -3.0695,-1.30487 -4.4839,-2.1926 -1.1427,-0.67247 -2.3088,-1.32686 -3.3569,-2.14236 -0.8852,-0.76247 -1.7314,-1.56892 -2.5679,-2.3844 -0.4006,-0.41912 -0.7613,-0.78068 -0.9265,-1.36419 -0.2167,-0.58203 -0.4702,-1.15885 -0.5254,-1.78461 -0.091,-0.73118 -0.011,-1.47558 0.069,-2.20414 0.1325,-0.82952 0.3656,-1.63767 0.6792,-2.41731 0.4437,-1.0091 0.9334,-2.0002 1.5436,-2.92069 0.6815,-1.03841 1.4065,-2.04316 2.2837,-2.92888 0.8597,-0.91795 1.7342,-1.83751 2.7475,-2.58834 1.0343,-0.74083 2.1065,-1.42351 3.248,-1.99022 1.121,-0.56952 2.2845,-1.05275 3.4638,-1.48797 1.1911,-0.40007 2.4006,-0.74554 3.6261,-1.02409 1.2412,-0.30205 2.4803,-0.61601 3.7332,-0.86662 1.2521,-0.24312 2.5016,-0.49977 3.7561,-0.73062 1.0554,-0.20315 2.1146,-0.38288 3.1818,-0.5135 0.9383,-0.11544 1.8749,-0.24151 2.8203,-0.28668 0.8282,-0.0468 1.6553,-0.11827 2.4852,-0.1265 0.4977,-0.0132 0.995,-0.0251 1.4927,-0.003 0.431,0.0384 0.8615,0.0824 1.2923,0.12385 3.7407,0.62344 5.5041,-9.95701 1.7634,-10.58048 z" /></g></g></svg>
