<?xml version="1.0" encoding="UTF-8" standalone="no"?>
<!-- Created with Inkscape (http://www.inkscape.org/) -->

<svg
   width="157.69263mm"
   height="152.56152mm"
   viewBox="0 0 157.69263 152.56152"
   version="1.1"
   id="svg5"
   xml:space="preserve"
   xmlns="http://www.w3.org/2000/svg"
   xmlns:svg="http://www.w3.org/2000/svg"><defs
     id="defs2" /><g
     id="layer2"
     transform="translate(-716.87935,598.47825)"><g
       id="g245"
       transform="translate(378.64547,317.5)"
       style="fill:#ffffff;fill-opacity:1"><path
         style="fill:#ffffff;fill-opacity:1;stroke:none;stroke-width:22.4367;stroke-dasharray:none;stroke-opacity:1"
         id="path195"
         d="m 351.30292,-902.425 c 0.0164,0.16364 -0.008,0.0856 0.01,0.20759 -0.019,0.15391 -0.0875,0.29528 -0.13425,0.44119 0.006,0.0366 -0.22701,0.33841 -0.0936,0.26538 0.16944,-0.11358 0.34922,-0.21156 0.52816,-0.30969 0.38685,-0.1279 0.76806,-0.29649 1.14702,-0.459 0.57277,-0.254 1.1638,-0.46096 1.75379,-0.67019 0.65763,-0.24641 1.32742,-0.45718 2.00041,-0.65696 0.68665,-0.20564 1.38073,-0.38489 2.07574,-0.55965 0.60669,-0.16475 1.22806,-0.24392 1.85097,-0.31448 0.64222,-0.0718 1.28767,-0.0868 1.93326,-0.0879 0.6577,-0.009 1.31267,0.0539 1.96448,0.13443 0.70246,0.10584 1.39922,0.24572 2.09444,0.39085 0.66529,0.12657 1.30929,0.32779 1.9481,0.548 0.63222,0.22548 1.24534,0.49729 1.85303,0.78105 0.56275,0.24622 1.09376,0.55086 1.60809,0.88472 0.4522,0.29884 0.87119,0.63986 1.26455,1.01176 0.45484,0.43781 0.8772,0.90758 1.29307,1.38208 0.25117,0.28043 0.4794,0.57692 0.62291,0.92414 0.12036,0.2423 0.15406,0.50051 0.17618,0.76581 0.0356,0.43325 0.0314,0.86812 -0.003,1.30116 -0.0132,0.35103 -0.14972,0.66527 -0.27217,0.98957 -0.12237,0.36074 -0.33825,0.6685 -0.56494,0.96952 -0.34624,0.47233 -0.7262,0.91731 -1.14044,1.33098 -0.42296,0.42519 -0.90074,0.78571 -1.38787,1.13268 -0.61513,0.42072 -1.25896,0.79717 -1.90373,1.17007 -0.66942,0.37798 -1.36125,0.71467 -2.06454,1.02447 -0.74938,0.30731 -1.50789,0.59227 -2.26711,0.87429 -0.71861,0.25982 -1.44621,0.49474 -2.18464,0.69138 -0.67656,0.15883 -1.36228,0.27712 -2.04925,0.38097 -0.66976,0.11076 -1.34622,0.15798 -2.02395,0.17772 -0.64413,0.0143 -1.28781,-0.0305 -1.9276,-0.10152 -0.60447,-0.0751 -1.20224,-0.18634 -1.79033,-0.34454 -0.51231,-0.15301 -1.01073,-0.34838 -1.4899,-0.5852 -0.44553,-0.22241 -0.84925,-0.5134 -1.23819,-0.82177 -0.37711,-0.3088 -0.69834,-0.68369 -0.99931,-1.06574 -0.36644,-0.47147 -0.68453,-0.97576 -0.97697,-1.49548 -0.30417,-0.53055 -0.53708,-1.09506 -0.75279,-1.66579 -0.1954,-0.53258 -0.31369,-1.08493 -0.41633,-1.64116 -0.0919,-0.50022 -0.12001,-1.00547 -0.10255,-1.51262 0.0313,-0.43842 0.19542,-0.85006 0.31438,-1.27207 0.17518,-0.68032 0.40939,-1.34051 0.68614,-1.98532 0.19556,-0.44765 0.46152,-0.85829 0.71467,-1.27434 2.11982,-3.45589 -7.65487,-9.45166 -9.77469,-5.99578 v 0 c -0.57028,0.9252 -1.10315,1.87452 -1.51656,2.88195 -0.43471,1.06807 -0.82899,2.15212 -1.14115,3.26305 -0.38076,1.35017 -0.6631,2.72738 -0.68847,4.13584 -0.0222,1.27396 0.044,2.54732 0.26543,3.80439 0.22241,1.23044 0.52512,2.44461 0.96324,3.61772 0.42738,1.13986 0.90416,2.26203 1.51043,3.32013 0.62484,1.08601 1.30008,2.14455 2.09878,3.11287 0.8591,1.01899 1.77077,1.9961 2.82987,2.81268 1.03588,0.79272 2.12067,1.5222 3.30163,2.08423 1.14221,0.53909 2.31421,1.0187 3.54108,1.33115 1.14933,0.29413 2.31235,0.53702 3.49372,0.66114 1.14824,0.11255 2.29984,0.18759 3.45445,0.1451 1.11101,-0.0364 2.2197,-0.11841 3.321,-0.27393 1.12993,-0.16179 2.25663,-0.35311 3.35907,-0.65455 1.03777,-0.28038 2.07021,-0.5815 3.08449,-0.93877 1.05457,-0.36565 2.10817,-0.73829 3.12433,-1.20271 1.03708,-0.47536 2.06446,-0.97335 3.0557,-1.53946 1.01213,-0.57827 2.01573,-1.17543 2.95769,-1.8642 1.00897,-0.74747 1.97451,-1.55273 2.8457,-2.45954 0.83154,-0.8777 1.62997,-1.78855 2.32125,-2.78281 0.77202,-1.15202 1.45669,-2.36106 1.91405,-3.67614 0.44635,-1.30787 0.79478,-2.64697 0.87537,-4.03326 0.0749,-1.28183 0.081,-2.57061 -0.11668,-3.84331 -0.25011,-1.40721 -0.61926,-2.79016 -1.27101,-4.07088 -0.60039,-1.14824 -1.29381,-2.23922 -2.14405,-3.22135 -0.70638,-0.83048 -1.43952,-1.63968 -2.24382,-2.37742 -0.87432,-0.78496 -1.78599,-1.52892 -2.77236,-2.17045 -0.94425,-0.60569 -1.91505,-1.16959 -2.93428,-1.64103 -0.99245,-0.46585 -2.00136,-0.8976 -3.038,-1.25645 -1.02584,-0.3424 -2.06314,-0.64945 -3.11976,-0.88313 -1.07323,-0.25014 -2.15439,-0.47291 -3.24993,-0.60084 -1.12585,-0.12724 -2.25568,-0.20339 -3.38952,-0.19293 -1.10781,0.0145 -2.2161,0.0597 -3.3156,0.20499 -1.03791,0.14777 -2.07071,0.33195 -3.08848,0.58574 -0.90734,0.22032 -1.81097,0.4572 -2.70209,0.73684 -0.86283,0.27381 -1.721,0.56205 -2.57114,0.87333 -0.8428,0.31899 -1.67407,0.66683 -2.49012,1.04955 -0.82421,0.39034 -1.63825,0.80132 -2.39776,1.30977 -0.69271,0.4568 -1.37634,0.93141 -1.97959,1.50479 -0.6513,0.62037 -1.26042,1.28638 -1.72889,2.05923 -0.38217,0.63481 -0.71911,1.29661 -0.93231,2.00932 -0.1306,0.43807 -0.25332,0.8817 -0.29983,1.33787 -0.665,3.72403 9.86814,5.60496 10.53314,1.88092 z" /><path
         style="fill:#ffffff;fill-opacity:1;stroke:none;stroke-width:18.4686;stroke-dasharray:none;stroke-opacity:1"
         id="path196"
         d="m 363.34572,-858.51792 c 0.17052,0.0869 0.19485,0.1397 0.38266,0.26232 0.23082,0.14855 0.46481,0.29055 0.70087,0.42813 0.29183,0.16526 0.58197,0.33443 0.87351,0.50041 0.33556,0.1834 0.66662,0.37667 0.98733,0.59208 0.41944,0.26691 0.83417,0.54309 1.24993,0.81733 0.4726,0.31598 0.92563,0.66687 1.38388,1.0087 0.54843,0.40261 1.07077,0.84906 1.60086,1.28216 0.59265,0.48845 1.18255,0.9812 1.76863,1.47992 0.59916,0.51615 1.17991,1.05952 1.75809,1.60585 0.61636,0.57478 1.21761,1.17051 1.80944,1.77793 0.62018,0.63546 1.23055,1.28323 1.83249,1.94115 0.63176,0.69609 1.26168,1.3945 1.88717,2.09793 0.63547,0.71399 1.26848,1.43094 1.89457,2.15568 0.63023,0.72446 1.24262,1.46876 1.85449,2.21336 0.61713,0.76153 1.22343,1.53431 1.81801,2.31884 0.62472,0.82565 1.24181,1.65876 1.85578,2.49484 0.62177,0.85139 1.23774,1.70857 1.8333,2.58416 0.6248,0.92577 1.23255,1.86627 1.84062,2.8064 0.64091,0.98593 1.26368,1.98702 1.87957,2.99348 0.6306,1.02654 1.23376,2.07447 1.832,3.12584 0.62191,1.10239 1.23215,2.21323 1.84469,3.32242 0.61924,1.11433 1.2073,2.25029 1.78838,3.39091 0.6136,1.24597 1.22947,2.49036 1.84653,3.7341 0.6402,1.2927 1.28435,2.58284 1.93017,3.87187 0.63592,1.2566 1.24923,2.52695 1.84662,3.80785 0.60121,1.34257 1.20916,2.68115 1.80727,4.02551 0.60841,1.36997 1.20359,2.74749 1.8106,4.11826 0.58831,1.32576 1.16408,2.65869 1.73739,3.99298 0.56046,1.29836 1.10662,2.60473 1.65777,3.90828 0.52652,1.23268 1.04145,2.47171 1.53907,3.71999 0.46846,1.25025 0.93958,2.49916 1.40417,3.75128 0.4615,1.22592 0.91375,2.45635 1.36744,3.68607 0.41875,1.15216 0.83954,2.30335 1.26177,3.45387 0.38933,1.08178 0.77982,2.16286 1.19852,3.23031 0.0661,0.16707 0.13231,0.33415 0.19844,0.50122 1.23266,3.35725 9.54142,-0.62735 8.30876,-3.9846 v 0 c -0.053,-0.15733 -0.10596,-0.31468 -0.15893,-0.47202 -0.34969,-1.05709 -0.71007,-2.10944 -1.07004,-3.162 -0.3958,-1.18002 -0.78901,-2.36119 -1.19336,-3.53741 -0.43943,-1.28043 -0.88904,-2.55618 -1.34482,-3.82915 -0.48956,-1.34394 -0.97937,-2.6883 -1.51785,-4.00792 -0.516,-1.31244 -1.03537,-2.62314 -1.56565,-3.92816 -0.54884,-1.34118 -1.10692,-2.67727 -1.66996,-4.0107 -0.57378,-1.35898 -1.15565,-2.7135 -1.72446,-4.07521 -0.60065,-1.42136 -1.21081,-2.83743 -1.83507,-4.24548 -0.64105,-1.43682 -1.28161,-2.87476 -1.98327,-4.27461 -0.64498,-1.31738 -1.29122,-2.63392 -1.93563,-3.9517 -0.64479,-1.30801 -1.28305,-2.62035 -1.95073,-3.91344 -0.65057,-1.28027 -1.30081,-2.56122 -1.98154,-3.82094 -0.63661,-1.20551 -1.28265,-2.40453 -1.93279,-3.60058 -0.64346,-1.1785 -1.29831,-2.34896 -1.97184,-3.50539 -0.6624,-1.13602 -1.33349,-2.26531 -2.02203,-3.3809 -0.67035,-1.0792 -1.35386,-2.14757 -2.0484,-3.20662 -0.6764,-1.02648 -1.37065,-2.03704 -2.08288,-3.0314 -0.66145,-0.92148 -1.31735,-1.84817 -1.99227,-2.75692 -0.65959,-0.89748 -1.32559,-1.78883 -2.0058,-2.66603 -0.67697,-0.86679 -1.36033,-1.72721 -2.06068,-2.56947 -0.66611,-0.79935 -1.34329,-1.58637 -2.02474,-2.3686 -0.65584,-0.75157 -1.31428,-1.50008 -1.98226,-2.23758 -0.66341,-0.74379 -1.32366,-1.49133 -2.00016,-2.21966 -0.69163,-0.74528 -1.39041,-1.48198 -2.1098,-2.19234 -0.69531,-0.68286 -1.39262,-1.36337 -2.11034,-2.01551 -0.68665,-0.62042 -1.37782,-1.23452 -2.08622,-1.82238 -0.65923,-0.55446 -1.32147,-1.10433 -1.9975,-1.63187 -0.65166,-0.50402 -1.31005,-0.99505 -1.98262,-1.46206 -0.61076,-0.42539 -1.23139,-0.83188 -1.86372,-1.21405 -0.52901,-0.31869 -1.05934,-0.6352 -1.60815,-0.90779 -0.43305,-0.21974 -0.86583,-0.44042 -1.30258,-0.6504 -0.32738,-0.15343 -0.65339,-0.31075 -0.98322,-0.45711 -0.2074,-0.0817 -0.41271,-0.16915 -0.61855,-0.25567 -0.026,-0.0114 -0.67726,-0.28659 -0.35611,-0.12079 -2.62491,-1.42101 -6.14172,7.06402 -3.51682,8.48503 z" /><path
         style="fill:#ffffff;fill-opacity:1;stroke:none;stroke-width:22.4367;stroke-dasharray:none;stroke-opacity:1"
         id="path197"
         d="m 391.91059,-879.35648 c 0.22707,0.51258 0.52271,0.98523 0.83937,1.4455 0.2853,0.39796 0.58983,0.78115 0.89241,1.16599 0.42087,0.51279 0.86746,1.00391 1.32882,1.48039 0.48672,0.49787 0.97633,0.99314 1.47354,1.48059 0.64061,0.65024 1.30606,1.27539 1.98334,1.88711 0.8372,0.76166 1.7053,1.48574 2.60541,2.17157 0.96657,0.7325 1.95588,1.43399 2.95986,2.11407 1.01622,0.67278 2.05727,1.30683 3.09259,1.94948 1.10273,0.66934 2.214,1.32448 3.33973,1.95434 1.1838,0.6518 2.38313,1.2754 3.59108,1.88114 1.2723,0.64079 2.57112,1.22584 3.86845,1.81343 1.3735,0.6061 2.77093,1.15562 4.17496,1.68634 1.46987,0.54682 2.94431,1.08085 4.43717,1.56157 1.53445,0.49639 3.07454,0.97216 4.6264,1.41097 1.58567,0.45739 3.17976,0.88321 4.78144,1.28048 1.58301,0.37881 3.16725,0.75327 4.75637,1.1057 1.58162,0.35134 3.17216,0.66 4.76295,0.96647 1.52106,0.29218 3.04948,0.5439 4.5734,0.82057 1.49376,0.26374 2.98524,0.53981 4.47863,0.80558 1.46796,0.24942 2.93642,0.49612 4.40597,0.73613 1.41192,0.22521 2.82414,0.44886 4.2377,0.66362 1.3521,0.205 2.70684,0.39196 4.06101,0.58264 1.31424,0.18082 2.62871,0.36029 3.94533,0.5229 1.2568,0.15674 2.51574,0.29535 3.77492,0.43143 1.2033,0.1333 2.40734,0.25752 3.61283,0.36883 1.12263,0.10485 2.24494,0.21045 3.36931,0.29443 4.07596,0.39983 5.20684,-11.12867 1.13088,-11.52851 v 0 c -1.09841,-0.13343 -2.19924,-0.24352 -3.2985,-0.36965 -1.14843,-0.13216 -2.2981,-0.25323 -3.44554,-0.39357 -1.20851,-0.15517 -2.41491,-0.32654 -3.62281,-0.48654 -1.25709,-0.17237 -2.51534,-0.33695 -3.76965,-0.5293 -1.30215,-0.19489 -2.60173,-0.40576 -3.90123,-0.61759 -1.36146,-0.22471 -2.72224,-0.4536 -4.07924,-0.70419 -1.4428,-0.25886 -2.88581,-0.51638 -4.32747,-0.78144 -1.47053,-0.25964 -2.94248,-0.5107 -4.41023,-0.78579 -1.48191,-0.27435 -2.96117,-0.56232 -4.44106,-0.84709 -1.49029,-0.29168 -2.97741,-0.59925 -4.46204,-0.91842 -1.47965,-0.32425 -2.95682,-0.65887 -4.42206,-1.04434 -1.47487,-0.37245 -2.9518,-0.73845 -4.41343,-1.16065 -1.43026,-0.40973 -2.86589,-0.80113 -4.2857,-1.24624 -1.29463,-0.4074 -2.60091,-0.77911 -3.86363,-1.28148 -1.23132,-0.46529 -2.46441,-0.92638 -3.68313,-1.42409 -1.13424,-0.4621 -2.24981,-0.96925 -3.35333,-1.50037 -1.06963,-0.51856 -2.12842,-1.0576 -3.17622,-1.61904 -0.99025,-0.52652 -1.97752,-1.05889 -2.94026,-1.63481 -0.92774,-0.54266 -1.83303,-1.12173 -2.74299,-1.69347 -0.81677,-0.51302 -1.61906,-1.04846 -2.39244,-1.62541 -0.69593,-0.51472 -1.4093,-1.00753 -2.06571,-1.57308 -0.60259,-0.49742 -1.20626,-0.99348 -1.80424,-1.4964 -0.47824,-0.42096 -0.96483,-0.83215 -1.44622,-1.24947 -0.2526,-0.21712 -0.5148,-0.41976 -0.75504,-0.65059 -0.15372,-0.15264 -0.30647,-0.29805 -0.44979,-0.46005 -0.29755,-0.36105 -0.003,0.14927 0.0206,0.25407 -1.69217,-3.38436 -11.26464,1.40187 -9.57244,4.78624 z" /><path
         style="fill:#ffffff;fill-opacity:1;stroke:none;stroke-width:22.4367;stroke-dasharray:none;stroke-opacity:1"
         id="path198"
         d="m 447.20681,-813.88928 c -0.30104,-0.11276 -0.60118,-0.23053 -0.9072,-0.32893 -0.29538,-0.10287 -0.59576,-0.18875 -0.8909,-0.29197 -0.30684,-0.084 -0.6096,-0.17732 -0.90573,-0.29368 -0.35358,-0.16034 -0.71744,-0.29679 -1.07352,-0.4517 -0.46034,-0.2267 -0.92516,-0.44344 -1.39104,-0.65852 -0.49567,-0.22373 -0.97507,-0.48117 -1.45119,-0.74332 -0.46133,-0.25919 -0.91384,-0.53361 -1.35498,-0.82574 -0.41971,-0.29051 -0.82016,-0.6086 -1.2118,-0.9357 -0.43312,-0.35153 -0.82333,-0.74986 -1.21314,-1.14755 -0.40526,-0.39902 -0.77023,-0.83389 -1.12307,-1.27892 -0.35981,-0.44818 -0.68191,-0.92384 -0.97901,-1.41536 -0.29396,-0.51512 -0.54896,-1.05114 -0.78693,-1.59401 -0.26371,-0.61984 -0.48157,-1.25751 -0.6835,-1.89968 -0.2168,-0.71559 -0.40378,-1.43968 -0.58142,-2.16583 -0.16171,-0.66913 -0.27678,-1.34781 -0.36838,-2.02969 -0.0811,-0.57923 -0.10567,-1.16264 -0.11589,-1.74662 0.007,-0.31925 -0.0201,-0.6526 0.0769,-0.96198 0.0509,-0.1742 0.14933,-0.32541 0.23926,-0.48098 0.079,-0.17637 0.21137,-0.26149 0.34634,-0.38889 0.0661,-0.0214 0.29003,-0.16438 0.11731,-0.004 0.3723,-0.13171 0.7519,-0.2277 1.13856,-0.30647 0.42791,-0.0857 0.86931,-0.0712 1.30381,-0.0725 0.56769,0.0309 1.1347,0.11406 1.69619,0.20571 0.63027,0.0871 1.23368,0.26961 1.8264,0.4943 0.68638,0.25654 1.33998,0.58409 1.97958,0.93932 0.70006,0.38341 1.33594,0.86175 1.95448,1.36253 0.7148,0.55716 1.32916,1.22327 1.93876,1.88976 0.70773,0.78237 1.37083,1.60311 2.01097,2.4412 0.63902,0.83013 1.21623,1.70413 1.77342,2.59038 0.57142,0.90074 1.1041,1.82478 1.61763,2.75944 0.33282,0.62156 0.65633,1.24807 0.97997,1.87444 1.84425,3.67792 12.24698,-1.53834 10.40275,-5.21626 v 0 c -0.36184,-0.74178 -0.72612,-1.48254 -1.11553,-2.21038 -0.61648,-1.15483 -1.25804,-2.29619 -1.93977,-3.41397 -0.74454,-1.19938 -1.52773,-2.37435 -2.3812,-3.49964 -0.87341,-1.14795 -1.76961,-2.28018 -2.75156,-3.33831 -1.05182,-1.11476 -2.16376,-2.17191 -3.38169,-3.1057 -1.17284,-0.88725 -2.39411,-1.70871 -3.69924,-2.39128 -1.22341,-0.62656 -2.47534,-1.20028 -3.78519,-1.62451 -1.22867,-0.37727 -2.47602,-0.68834 -3.74965,-0.873 -1.21533,-0.17049 -2.43802,-0.29895 -3.66768,-0.24267 -1.17165,0.0438 -2.34288,0.13859 -3.48845,0.40275 -1.09376,0.25447 -2.17469,0.57091 -3.20582,1.02084 -1.22994,0.60362 -2.40848,1.30074 -3.39667,2.26433 -0.87,0.85063 -1.66116,1.77437 -2.26581,2.83652 -0.62884,1.09421 -1.16425,2.23903 -1.46288,3.47162 -0.27186,1.17594 -0.44958,2.36797 -0.44665,3.57833 -0.0111,1.0822 0.0262,2.16459 0.15973,3.23964 0.13796,1.05275 0.30496,2.10174 0.54631,3.13642 0.23474,1.03733 0.49081,2.07087 0.81717,3.08375 0.34999,1.06339 0.73388,2.11624 1.20584,3.13248 0.46887,0.99494 0.96321,1.97945 1.56538,2.90203 0.54568,0.84206 1.11654,1.66804 1.7462,2.45017 0.61394,0.75579 1.25944,1.48514 1.94849,2.17371 0.66411,0.6545 1.34798,1.28876 2.07225,1.87683 0.70985,0.57372 1.43922,1.12355 2.20583,1.61999 0.71133,0.4591 1.42666,0.91381 2.17871,1.30447 0.68874,0.36439 1.38988,0.70366 2.09836,1.02804 0.66524,0.30321 1.33633,0.59317 2.0248,0.84029 0.60439,0.21908 1.21158,0.43212 1.83549,0.58986 0.44379,0.12227 0.88975,0.23654 1.33742,0.34362 0.28215,0.0626 0.56512,0.11623 0.84709,0.16462 0.11277,0.0249 0.47448,0.12809 0.16248,-0.0198 3.55679,1.28042 7.17841,-8.77964 3.62164,-10.06007 z" /><path
         style="fill:#ffffff;fill-opacity:1;stroke:none;stroke-width:22.4367;stroke-dasharray:none;stroke-opacity:1"
         id="path199"
         d="m 462.17816,-818.97118 c 0.1252,-0.30748 0.28797,-0.59825 0.42936,-0.89887 0.16661,-0.3778 0.3514,-0.74618 0.53306,-1.11681 0.18772,-0.37211 0.39764,-0.7326 0.60298,-1.09524 0.17778,-0.30078 0.36711,-0.5932 0.58317,-0.86768 0.26779,-0.35332 0.57558,-0.67132 0.88252,-0.99001 0.22331,-0.24861 0.48694,-0.40453 0.72768,-0.53116 0.52629,-0.31205 1.08479,-0.56435 1.6465,-0.80478 0.64165,-0.27355 1.29956,-0.49903 1.9743,-0.67379 0.77303,-0.20216 1.55633,-0.36203 2.34167,-0.50802 0.73067,-0.14076 1.47008,-0.22172 2.21149,-0.2771 0.76166,-0.0652 1.52474,-0.0797 2.28854,-0.0703 0.63664,0.007 1.26487,0.11274 1.89042,0.22048 0.70467,0.12149 1.39957,0.28924 2.08852,0.47924 0.56927,0.13229 1.10416,0.35729 1.6329,0.59999 0.49125,0.21897 0.95282,0.49297 1.39515,0.79732 0.31826,0.22437 0.59176,0.50171 0.85674,0.78492 0.21175,0.21611 0.36389,0.46939 0.49673,0.7375 0.059,0.24177 0.12364,0.48188 0.16278,0.72789 0.0666,0.35105 0.0553,0.7044 0.0273,1.05807 -0.0541,0.35174 -0.18862,0.6849 -0.30985,1.02074 -0.19402,0.53393 -0.45757,1.03571 -0.74814,1.5222 -0.34197,0.55134 -0.78115,1.03058 -1.21602,1.50844 -0.61897,0.68892 -1.33813,1.27632 -2.04962,1.86544 -0.90691,0.75838 -1.8506,1.46871 -2.81448,2.1525 -1.04145,0.74252 -2.11828,1.43303 -3.20799,2.10198 -1.15414,0.72657 -2.3521,1.37768 -3.55614,2.01657 -1.34702,0.72419 -2.7015,1.43418 -4.05659,2.1431 -1.45039,0.74967 -2.8847,1.52927 -4.31244,2.32103 -1.5263,0.82733 -3.01096,1.72794 -4.48966,2.63668 -1.50445,0.92723 -2.97276,1.91032 -4.42508,2.91666 -1.48214,1.00886 -2.90722,2.09738 -4.30924,3.21387 -1.33959,1.07865 -2.64208,2.20173 -3.92404,3.34793 -1.30196,1.15925 -2.52566,2.39985 -3.71197,3.67591 -1.21317,1.29082 -2.2764,2.70767 -3.28808,4.15846 -1.04529,1.48637 -1.88884,3.09102 -2.59297,4.7622 -0.65037,1.63113 -1.00716,3.34643 -1.23447,5.08101 -0.18645,1.51839 -0.16602,3.04377 -0.007,4.56192 0.16714,1.27767 0.52914,2.51526 0.93768,3.73332 0.21709,0.62595 0.46315,1.24127 0.71319,1.8546 1.45137,3.59251 11.61248,-0.5126 10.16111,-4.10512 v 0 c -0.15865,-0.39788 -0.31631,-0.79647 -0.45347,-1.2024 -0.15468,-0.47749 -0.30462,-0.9603 -0.37452,-1.45872 -0.0764,-0.63217 0.005,-1.27265 0.0648,-1.9027 0.10922,-0.77515 0.27178,-1.5399 0.55393,-2.27288 0.35756,-0.91379 0.88321,-1.75006 1.43706,-2.55632 0.73345,-1.02323 1.49625,-2.02608 2.3576,-2.94659 0.94692,-1.01436 1.92048,-2.00438 2.96185,-2.92285 1.13324,-1.00174 2.28867,-1.97776 3.47297,-2.9188 1.20134,-0.95515 2.41695,-1.89297 3.6871,-2.7558 1.2976,-0.89175 2.60747,-1.76546 3.94529,-2.59609 1.32577,-0.8233 2.65636,-1.63854 4.01867,-2.40064 1.35642,-0.75457 2.72196,-1.49246 4.09398,-2.2183 1.39478,-0.74281 2.7995,-1.46708 4.18304,-2.23075 1.37601,-0.76907 2.74838,-1.54504 4.08733,-2.37765 1.30215,-0.81727 2.59223,-1.6555 3.83728,-2.55818 1.19044,-0.87037 2.35207,-1.77885 3.48007,-2.72907 1.10974,-0.9592 2.18879,-1.95609 3.14311,-3.07345 0.89755,-1.04384 1.75192,-2.12961 2.44163,-3.32494 0.63188,-1.11543 1.19975,-2.26769 1.61155,-3.48457 0.4318,-1.30368 0.78052,-2.63858 0.8495,-4.01727 0.0524,-1.2746 0.01,-2.55371 -0.25554,-3.80627 -0.27794,-1.28074 -0.64195,-2.54444 -1.26066,-3.70787 -0.59682,-1.08416 -1.27187,-2.12169 -2.12912,-3.02152 -0.82982,-0.88897 -1.71252,-1.72873 -2.7254,-2.40958 -0.94056,-0.62844 -1.91111,-1.21092 -2.94113,-1.68275 -1.04796,-0.48139 -2.11992,-0.90691 -3.23689,-1.20227 -1.05481,-0.30075 -2.12003,-0.56711 -3.20167,-0.75364 -1.20152,-0.20627 -2.4113,-0.36311 -3.63257,-0.37655 -1.08717,-0.0114 -2.17427,0.014 -3.25877,0.0952 -1.12794,0.0884 -2.25102,0.22236 -3.3651,0.42233 -1.10421,0.20243 -2.20554,0.42505 -3.29105,0.71319 -1.16562,0.3339 -2.31555,0.72125 -3.42614,1.21076 -1.09148,0.47995 -2.15892,1.01481 -3.16066,1.66481 -0.99173,0.6655 -1.92143,1.41438 -2.73436,2.29298 -0.56811,0.60862 -1.11429,1.23786 -1.61782,1.90138 -0.51004,0.68014 -0.98579,1.38488 -1.39166,2.13299 -0.333,0.601 -0.66667,1.20261 -0.94702,1.83062 -0.2045,0.45739 -0.40476,0.91681 -0.58999,1.38237 -0.10015,0.33719 -0.23895,0.58203 -0.33915,0.81831 -1.5494,3.45638 8.22672,7.83875 9.77612,4.3824 z" /></g></g></svg>
