<?xml version="1.0" encoding="UTF-8" standalone="no"?>
<!-- Created with Inkscape (http://www.inkscape.org/) -->

<svg
   width="160.1981mm"
   height="153.92535mm"
   viewBox="0 0 160.19811 153.92535"
   version="1.1"
   id="svg5"
   xml:space="preserve"
   xmlns="http://www.w3.org/2000/svg"
   xmlns:svg="http://www.w3.org/2000/svg"><defs
     id="defs2" /><g
     id="layer2"
     transform="translate(429.76831,599.84489)"><g
       id="g240"
       transform="translate(12.612418,317.5)"
       style="fill:#ffffff;fill-opacity:1"><path
         style="fill:#ffffff;fill-opacity:1;stroke:none;stroke-width:22.4367;stroke-dasharray:none;stroke-opacity:1"
         id="path168"
         d="m -419.16029,-806.95614 c -0.87498,0 -1.73533,0.17397 -2.57964,0.38669 -0.94318,0.2264 -1.85531,0.55732 -2.75664,0.9116 -1.25457,0.46847 -2.43747,1.08968 -3.58783,1.76993 -1.41496,0.8374 -2.7188,1.83602 -3.96145,2.90827 -1.50807,1.31932 -2.74589,2.88848 -3.89561,4.519 -1.05905,1.52287 -1.97898,3.13354 -2.84631,4.77108 -0.83061,1.62192 -1.50207,3.31814 -2.1049,5.03573 -0.57139,1.61732 -0.92633,3.29523 -1.22256,4.98094 -0.30649,1.71773 -0.31654,3.45792 -0.18645,5.1916 0.14166,1.87772 0.74981,3.64514 1.53874,5.33816 0.77682,1.56704 1.89135,2.89819 3.1238,4.12197 1.18965,1.17252 2.60435,2.02848 4.12263,2.69896 1.39888,0.58206 2.88468,0.81409 4.3869,0.8953 1.37446,0.0514 2.72325,-0.17061 4.04376,-0.53044 1.18264,-0.34105 2.28029,-0.89083 3.33896,-1.50805 1.07773,-0.64397 2.03147,-1.46108 2.95291,-2.30714 0.77753,-0.71906 1.49564,-1.49733 2.22682,-2.26232 0.89728,-0.93406 1.7133,-1.93963 2.50467,-2.96352 0.90059,-1.17414 1.72363,-2.40471 2.51352,-3.65513 0.99219,-1.57531 1.81829,-3.24419 2.5881,-4.93663 0.92596,-2.06409 1.63594,-4.2123 2.3101,-6.36865 0.74581,-2.35929 1.39446,-4.74657 2.00427,-7.14407 0.65995,-2.68449 1.2386,-5.38853 1.7788,-8.09942 0.56076,-2.85843 1.0187,-5.73516 1.45994,-8.61396 0.44374,-2.85478 0.83061,-5.71778 1.18912,-8.58438 0.35002,-2.84549 0.69704,-5.69114 0.97843,-8.54432 0.25839,-2.78334 0.5039,-5.56808 0.70927,-8.35586 0.21468,-2.64904 0.31496,-5.3053 0.41471,-7.96055 0.089,-2.23271 0.066,-4.46722 0.0459,-6.70091 -0.0177,-1.61304 -0.04,-3.22602 -0.0599,-4.83902 -0.0206,-1.13663 -0.0352,-2.27336 -0.0594,-3.4099 -0.0257,-0.55388 -0.005,-1.11535 -0.0526,-1.6651 -0.15949,0.77832 -0.65973,1.53508 -1.10773,2.19588 -0.0814,0.0893 -0.32573,0.3569 -0.24413,0.26784 0.89395,-0.97592 1.4119,-2.06063 1.70614,-3.34314 0.14129,-0.75277 0.19648,-1.5176 0.24273,-2.28098 0.036,-0.65653 0.0614,-1.31357 0.0862,-1.97059 0.0387,-0.78652 0.0334,-1.57411 0.0116,-2.36098 -0.0303,-0.60341 -0.0148,-0.3129 -0.0456,-0.87156 -0.25514,-3.84993 -11.14435,-3.1283 -10.88922,0.72162 v 0 c 0.0306,0.37555 0.0175,0.20193 0.0404,0.52078 0.0236,0.54158 0.029,1.08246 0,1.62433 -0.018,0.61529 -0.0377,1.23052 -0.0573,1.84576 -0.003,0.0559 -0.0724,1.31405 0.0367,0.84 0.18558,-0.47628 0.31141,-0.86402 0.59031,-1.32279 0.13647,-0.22449 0.30443,-0.42865 0.46847,-0.63386 0.076,-0.095 0.33208,-0.35586 0.25051,-0.26556 -0.11089,0.12271 -0.22561,0.24191 -0.3384,0.36288 -0.22821,0.32771 -0.48536,0.63703 -0.68456,0.98311 -0.4681,0.81322 -0.66582,1.74326 -0.82899,2.65504 -0.11449,0.84201 -0.18672,1.68685 -0.21577,2.53651 -0.0573,1.14453 -0.10226,2.28965 -0.15071,3.43458 -0.0586,1.60639 -0.11747,3.21278 -0.17616,4.81917 -0.0772,2.1005 -0.17639,4.20005 -0.29104,6.29886 -0.14666,2.53357 -0.30919,5.06611 -0.50001,7.5968 -0.22302,2.69552 -0.46487,5.38937 -0.74157,8.07997 -0.28506,2.74458 -0.56978,5.48966 -0.93986,8.22439 -0.36491,2.75945 -0.72583,5.51976 -1.15069,8.2708 -0.43371,2.7419 -0.87871,5.48227 -1.37126,8.2143 -0.46109,2.52849 -0.94776,5.05217 -1.52834,7.55645 -0.50811,2.20461 -1.04579,4.40182 -1.6946,6.57016 -0.50395,1.74612 -1.01346,3.49287 -1.67021,5.18925 -0.49861,1.23782 -1.02751,2.46642 -1.70934,3.61682 -0.56375,0.97417 -1.17057,1.92278 -1.84563,2.82433 -0.5167,0.72175 -1.02989,1.44859 -1.62655,2.10775 -0.54237,0.59261 -1.09535,1.17557 -1.67931,1.72772 -0.36878,0.34931 -0.73877,0.69755 -1.12969,1.02206 -0.21852,0.17966 -0.49888,0.27872 -0.75983,0.37865 0.11231,0.003 -0.31843,0.094 -0.41495,0.0692 -0.19127,-0.004 -0.38015,-0.0201 -0.567,-0.0635 -0.28385,-0.0805 -0.49811,-0.29479 -0.71102,-0.48953 -0.3357,-0.31924 -0.64079,-0.66169 -0.87998,-1.06151 -0.23444,-0.39809 -0.37166,-0.85169 -0.42507,-1.30942 -0.0549,-0.79692 -0.0574,-1.60025 0.1012,-2.38707 0.20108,-1.07378 0.42701,-2.14662 0.8073,-3.17381 0.4391,-1.19375 0.91969,-2.37381 1.48989,-3.51165 0.65897,-1.23135 1.3566,-2.4429 2.14299,-3.59815 0.63572,-0.92295 1.2668,-1.85603 2.08881,-2.62695 0.69519,-0.6618 1.42441,-1.28508 2.2511,-1.77987 0.6263,-0.39556 1.23555,-0.8372 1.93141,-1.10382 0.53326,-0.22833 1.07373,-0.44077 1.60927,-0.66347 0.33772,-0.17481 -0.23019,-0.0175 0.0471,-0.10131 3.78841,-0.15787 3.34196,-10.87313 -0.44648,-10.71528 z" /><path
         style="fill:#ffffff;fill-opacity:1;stroke:none;stroke-width:22.4367;stroke-dasharray:none;stroke-opacity:1"
         id="path169"
         d="m -407.19705,-872.34264 c -0.0459,0.82203 0.0372,1.64272 0.12597,2.45885 0.11628,1.06622 0.27154,2.12736 0.43555,3.18712 0.18156,1.32881 0.42977,2.64723 0.67395,3.96557 0.29639,1.5625 0.59878,3.12423 0.9343,4.67884 0.38301,1.80639 0.84431,3.59431 1.31368,5.37969 0.54052,1.98679 1.11945,3.96206 1.76279,5.91794 0.69916,2.05642 1.39364,4.11485 2.12039,6.16167 0.80283,2.21297 1.65656,4.40677 2.55691,6.58175 0.94067,2.31344 2.02729,4.56094 3.14984,6.79024 1.13408,2.26618 2.36966,4.47815 3.6382,6.67107 1.2676,2.17368 2.62864,4.29027 3.99743,6.40096 1.34366,2.05208 2.7122,4.0876 4.10639,6.10568 1.42714,2.05481 2.88272,4.08924 4.40243,6.07666 1.39613,1.79986 2.79527,3.59738 4.19296,5.39605 1.31503,1.70063 2.63178,3.39976 3.97422,5.07888 0.63471,0.79018 1.2691,1.58057 1.90455,2.37014 2.53331,3.18244 11.53462,-3.9828 9.00131,-7.16523 v 0 c -0.61237,-0.77835 -1.21883,-1.56123 -1.82721,-2.34268 -1.2828,-1.66065 -2.57151,-3.31676 -3.84053,-4.988 -1.35803,-1.80364 -2.71965,-3.60452 -4.06995,-5.41398 -1.40002,-1.8713 -2.78519,-3.75386 -4.11666,-5.67487 -1.32614,-1.90984 -2.63345,-3.83315 -3.89368,-5.78725 -1.26225,-1.96678 -2.52151,-3.9361 -3.69409,-5.95831 -1.1671,-1.99121 -2.31558,-3.99368 -3.3401,-6.0633 -1.00282,-1.9607 -1.98977,-3.93108 -2.82982,-5.96847 -0.84524,-2.02219 -1.6246,-4.06959 -2.40316,-6.11815 -0.733,-1.92328 -1.43264,-3.85789 -2.09161,-5.808 -0.59235,-1.74077 -1.1624,-3.48946 -1.66182,-5.25949 -0.45834,-1.6328 -0.87969,-3.27517 -1.28604,-4.92168 -0.35102,-1.43039 -0.6863,-2.86422 -0.97126,-4.30942 -0.2604,-1.2522 -0.52707,-2.50304 -0.77136,-3.75852 -0.18468,-0.88463 -0.35351,-1.77199 -0.49723,-2.6643 -0.0758,-0.47474 -0.16944,-0.94559 -0.26152,-1.41705 -0.14057,-3.79532 -10.87541,-3.39775 -10.73483,0.39759 z" /><path
         style="fill:#ffffff;fill-opacity:1;stroke:none;stroke-width:22.4367;stroke-dasharray:none;stroke-opacity:1"
         id="path170"
         d="m -394.47978,-766.78466 c 0.65779,-0.82111 1.18841,-1.73345 1.69863,-2.6506 0.69667,-1.26778 1.33596,-2.56532 1.95064,-3.8744 0.75451,-1.60679 1.48275,-3.22561 2.18728,-4.85486 0.84387,-1.90537 1.63558,-3.83318 2.44931,-5.75146 0.92826,-2.20401 1.88243,-4.39664 2.78468,-6.61152 1.15295,-2.78082 2.13448,-5.62602 3.06237,-8.48828 1.0178,-3.2589 1.87158,-6.56603 2.73807,-9.8675 0.92376,-3.50123 1.76945,-7.02226 2.6136,-10.54328 0.86456,-3.54168 1.65034,-7.10194 2.43396,-10.6622 0.71948,-3.31592 1.45275,-6.62887 2.16016,-9.94741 0.64696,-3.09716 1.28201,-6.19678 1.89828,-9.30021 0.55658,-2.87086 1.08239,-5.74757 1.62677,-8.62076 0.53363,-2.79022 1.03952,-5.58557 1.52397,-8.38473 0.46911,-2.67808 0.85323,-5.36921 1.19986,-8.0655 0.31218,-2.44494 0.54345,-4.89905 0.82357,-7.34769 0.28784,-2.36411 0.57811,-4.72776 0.84407,-7.09446 0.27546,-2.40699 0.50379,-4.8187 0.71273,-7.23225 0.18228,-2.21046 0.39109,-4.41854 0.61561,-6.62509 0.20468,-2.07248 0.44863,-4.14076 0.66273,-6.21223 0.1755,-1.52511 0.25662,-3.05845 0.40907,-4.58542 0.56169,-3.90406 -10.48073,-5.49272 -11.04238,-1.58863 v 0 c -0.29658,1.60636 -0.6199,3.20757 -0.81362,4.83121 -0.27858,2.12368 -0.5324,4.25061 -0.76399,6.37992 -0.22757,2.23592 -0.46529,4.4708 -0.6913,6.70687 -0.23821,2.34268 -0.4627,4.68673 -0.71324,7.0281 -0.26056,2.35088 -0.53385,4.70033 -0.83455,7.04641 -0.27797,2.37109 -0.53223,4.74533 -0.86611,7.10946 -0.36555,2.5414 -0.7802,5.07537 -1.24473,7.60061 -0.48353,2.72955 -0.98888,5.4552 -1.50853,8.17811 -0.5562,2.83099 -1.11405,5.66169 -1.70267,8.48617 -0.63182,3.03858 -1.29392,6.07068 -1.97003,9.09968 -0.73777,3.28266 -1.49458,6.56095 -2.256,9.83821 -0.81436,3.50293 -1.63597,7.00411 -2.44919,10.50727 -0.82431,3.46091 -1.63928,6.92404 -2.47185,10.38296 -0.7757,3.12492 -1.56416,6.24689 -2.43972,9.34564 -0.74991,2.59482 -1.53919,5.18208 -2.49365,7.71004 -0.82835,2.1753 -1.68621,4.33901 -2.57405,6.49078 -0.77721,1.9271 -1.54313,3.85866 -2.29772,5.79472 -0.60682,1.52821 -1.22539,3.05136 -1.88806,4.55639 -0.52404,1.18287 -1.03241,2.37263 -1.56359,3.55227 -0.19992,0.45008 -0.49067,0.9379 -0.54586,1.42404 -2.20604,3.08846 6.52944,9.3281 8.73548,6.23962 z" /><path
         style="fill:#ffffff;fill-opacity:1;stroke:none;stroke-width:22.4367;stroke-dasharray:none;stroke-opacity:1"
         id="path171"
         d="m -367.08635,-911.19776 c -0.0544,0.82378 -0.0595,1.6506 -0.0383,2.47576 0.045,1.36091 0.11713,2.72126 0.20511,4.08008 0.097,1.64825 0.22087,3.29473 0.32829,4.94226 0.15158,2.0324 0.3484,4.06091 0.56372,6.08743 0.24424,2.271 0.50671,4.54025 0.80526,6.80479 0.30962,2.48309 0.75367,4.94504 1.18457,7.40897 0.44296,2.47758 0.90728,4.95146 1.38689,7.42222 0.47776,2.66547 1.00243,5.32149 1.53699,7.97611 0.57629,2.83286 1.17547,5.66099 1.77959,8.48804 0.61836,2.94592 1.29299,5.8796 2.00393,8.80443 0.70725,2.93545 1.52447,5.84277 2.35161,8.74623 0.79068,2.82461 1.67206,5.62221 2.56532,8.41565 0.85553,2.68105 1.75229,5.34842 2.67155,8.00817 0.93925,2.72336 1.96599,5.41386 3.06711,8.07554 1.06188,2.55301 2.22313,5.06277 3.43564,7.54724 1.12802,2.31544 2.35169,4.58213 3.60706,6.83048 1.20806,2.14432 2.49624,4.24151 3.79156,6.33373 1.30241,2.07917 2.66391,4.12057 4.04527,6.14788 1.30715,1.91172 2.6484,3.79992 4.00791,5.67465 1.22867,1.71892 2.49584,3.40932 3.78854,5.08043 0.82814,1.01166 0.41934,0.52146 1.22518,1.47164 2.49785,3.15256 11.41463,-3.91248 8.91677,-7.06504 v 0 c -0.62947,-0.86048 -0.31181,-0.42431 -0.95284,-1.30858 -1.18909,-1.63089 -2.37731,-3.26215 -3.53015,-4.9191 -1.27317,-1.81552 -2.54587,-3.63162 -3.77193,-5.47952 -1.28238,-1.91305 -2.57394,-3.82053 -3.80486,-5.76737 -1.19674,-1.91955 -2.37787,-3.84987 -3.4697,-5.83162 -1.12969,-2.06701 -2.23644,-4.14748 -3.245,-6.2769 -1.08435,-2.28587 -2.10791,-4.60039 -3.04933,-6.94899 -0.99822,-2.45446 -2.00326,-4.90847 -2.84821,-7.42109 -0.87778,-2.56503 -1.73522,-5.13709 -2.5291,-7.72951 -0.83423,-2.68835 -1.68164,-5.37321 -2.433,-8.0863 -0.77767,-2.77116 -1.52096,-5.5517 -2.20946,-8.34649 -0.69617,-2.81874 -1.34757,-5.6478 -1.95929,-8.48614 -0.61084,-2.77826 -1.22179,-5.55654 -1.81131,-8.33943 -0.54441,-2.62062 -1.11744,-5.23528 -1.64709,-7.85887 -0.4767,-2.39823 -0.93988,-4.79927 -1.36911,-7.2065 -0.41727,-2.31955 -0.8287,-4.64056 -1.17758,-6.97159 -0.31925,-2.15921 -0.59836,-4.32393 -0.87577,-6.48885 -0.22969,-1.91969 -0.46133,-3.83916 -0.67514,-5.76067 -0.16915,-1.61306 -0.32745,-3.2272 -0.47641,-4.84225 -0.12245,-1.33008 -0.20222,-2.66379 -0.34742,-3.99171 -0.0872,-0.7194 -0.18987,-1.43261 -0.33155,-2.1417 -0.15785,-3.78841 -10.87313,-3.34195 -10.71528,0.44649 z" /><path
         style="fill:#ffffff;fill-opacity:1;stroke:none;stroke-width:22.4367;stroke-dasharray:none;stroke-opacity:1"
         id="path172"
         d="m -346.85377,-786.64138 c 0.50382,-0.83619 0.95091,-1.70383 1.37938,-2.58048 0.6101,-1.21441 1.24931,-2.41422 1.88336,-3.61646 0.84523,-1.59967 1.65629,-3.21706 2.47978,-4.82798 0.98441,-1.8806 1.90508,-3.79354 2.83403,-5.70185 1.01833,-2.10622 2.00435,-4.22809 2.9686,-6.35958 1.02306,-2.23951 2.01408,-4.49344 2.9959,-6.75126 1.02653,-2.37199 2.02999,-4.75372 3.01755,-7.14219 1.06653,-2.53712 2.09184,-5.09106 3.08948,-7.65596 1.01198,-2.62088 1.9381,-5.27333 2.88277,-7.91885 0.9607,-2.68023 1.85947,-5.38167 2.72457,-8.09408 0.92147,-2.87903 1.76557,-5.78217 2.62097,-8.68132 0.821,-2.83139 1.67994,-5.65155 2.55619,-8.46624 0.84299,-2.66671 1.64176,-5.34705 2.45054,-8.02423 0.77841,-2.53167 1.47773,-5.0863 2.16863,-7.64289 0.62778,-2.3722 1.20169,-4.75813 1.76597,-7.1461 0.51988,-2.22362 1.00914,-4.45429 1.46796,-6.69129 0.2127,-1.04606 0.4151,-2.09418 0.6174,-3.1423 0.80793,-4.00111 -10.5089,-6.28626 -11.31684,-2.28515 v 0 c -0.21333,1.0105 -0.42714,2.02089 -0.64717,3.02995 -0.46175,2.12032 -0.92792,4.23969 -1.45663,6.34458 -0.56518,2.27708 -1.15904,4.54694 -1.77795,6.81006 -0.65966,2.41847 -1.37361,4.82203 -2.1172,7.216 -0.84566,2.65063 -1.70389,5.29723 -2.55354,7.94655 -0.9176,2.88891 -1.84476,5.77517 -2.6838,8.68821 -0.81376,2.82109 -1.61259,5.64642 -2.43986,8.46359 -0.80449,2.57765 -1.63565,5.14676 -2.55087,7.68766 -0.91099,2.5541 -1.82857,5.10571 -2.80268,7.63667 -0.94647,2.48586 -1.88595,4.97448 -2.89867,7.43442 -0.96036,2.33992 -1.93236,4.675 -2.91468,7.00579 -0.93305,2.21107 -1.87894,4.41675 -2.86096,6.60657 -0.90496,2.04528 -1.81753,4.0871 -2.76667,6.11235 -0.88905,1.87986 -1.77086,3.76312 -2.66647,5.63989 -0.77163,1.62171 -1.56515,3.23286 -2.3341,4.85587 -0.62783,1.3308 -1.23561,2.67086 -1.84685,4.00933 -0.35904,0.82934 -0.73012,1.66185 -0.98523,2.52942 -1.66568,3.43551 8.05138,8.14681 9.71709,4.7113 z" /><path
         style="fill:#ffffff;fill-opacity:1;stroke:none;stroke-width:22.4367;stroke-dasharray:none;stroke-opacity:1"
         id="path173"
         d="m -317.07314,-903.16094 c -0.14568,0.5542 -0.27014,1.11522 -0.38555,1.68381 -0.26848,1.29344 -0.49877,2.59411 -0.72054,3.89623 -0.28583,1.66962 -0.56616,3.34023 -0.83275,5.01306 -0.29398,1.93281 -0.53822,3.87273 -0.7969,5.81049 -0.30261,2.20911 -0.52996,4.42708 -0.74023,6.64654 -0.22299,2.3771 -0.42449,4.7561 -0.60528,7.13674 -0.17402,2.47015 -0.32343,4.94205 -0.46713,7.41413 -0.1489,2.51886 -0.2717,5.03915 -0.39399,7.55941 -0.13472,2.62892 -0.24072,5.2592 -0.3425,7.88958 -0.12824,2.73129 -0.19595,5.46489 -0.263,8.19822 -0.0696,2.65547 -0.10178,5.3118 -0.0839,7.96811 5e-5,2.58736 0.11477,5.17232 0.27122,7.75433 0.14587,2.32455 0.35208,4.64511 0.60307,6.96055 0.21928,2.124 0.57293,4.22786 0.9979,6.31921 0.39476,1.91558 0.93554,3.79418 1.52442,5.65764 0.55134,1.72847 1.21,3.42021 1.91601,5.09063 0.63918,1.53416 1.37107,3.02723 2.12815,4.50596 0.7919,1.56882 1.7739,3.0248 2.83377,4.42222 1.12945,1.45031 2.50026,2.66756 3.96353,3.76748 1.38004,1.00362 2.93487,1.70278 4.52385,2.29979 1.49706,0.55583 3.06104,0.84629 4.64497,0.99745 1.65357,0.14602 3.2892,-0.0955 4.89257,-0.47993 1.61716,-0.38931 3.09978,-1.119 4.5031,-1.99361 1.47214,-0.9449 2.67036,-2.20186 3.74857,-3.56383 0.98197,-1.27238 1.74175,-2.68597 2.39699,-4.14784 0.66429,-1.47175 1.09006,-3.02446 1.37472,-4.60915 0.2871,-1.68537 0.23389,-3.38709 0.0322,-5.07635 -0.21426,-1.53816 -0.69779,-3.01559 -1.25497,-4.45884 -0.50377,-1.31011 -1.19587,-2.53145 -1.94763,-3.71218 -0.7303,-1.09315 -1.58946,-2.09029 -2.48798,-3.04676 -0.8464,-0.88966 -1.78208,-1.6846 -2.74439,-2.44456 -0.94493,-0.73256 -1.95585,-1.37192 -2.98479,-1.97827 -0.68535,-0.3883 -0.34431,-0.19973 -1.02288,-0.56615 -3.4331,-1.84857 -8.66161,7.8617 -5.22851,9.71026 v 0 c 0.44167,0.2368 0.2251,0.11898 0.64981,0.35322 0.61233,0.36163 1.21825,0.73427 1.78811,1.16102 0.54062,0.41666 1.05878,0.8632 1.5322,1.35572 0.44006,0.45604 0.85495,0.93604 1.22489,1.45127 0.35227,0.51916 0.6381,1.08683 0.8686,1.6696 0.2322,0.62015 0.45366,1.24616 0.58142,1.89767 0.0877,0.60036 0.10952,1.2061 0.0311,1.80985 -0.0967,0.65707 -0.24734,1.29871 -0.54351,1.89892 -0.30454,0.66148 -0.61648,1.32315 -1.04854,1.9136 -0.29652,0.40111 -0.58883,0.80774 -1.00577,1.09503 -0.32273,0.26337 -0.67974,0.43442 -1.08645,0.53562 -0.42582,0.11004 -0.8585,0.2105 -1.30072,0.19704 -0.57745,-0.0316 -1.13718,-0.18058 -1.68463,-0.36132 -0.6228,-0.23828 -1.24381,-0.49318 -1.7948,-0.87529 -0.63664,-0.45657 -1.20333,-1.00359 -1.69468,-1.6142 -0.65937,-0.85302 -1.2449,-1.76141 -1.72207,-2.72968 -0.61966,-1.21965 -1.19785,-2.46062 -1.70371,-3.73224 -0.55414,-1.36117 -1.09521,-2.7291 -1.51863,-4.13787 -0.45283,-1.46672 -0.88307,-2.94082 -1.15239,-4.45455 -0.32226,-1.73712 -0.57668,-3.48464 -0.71144,-5.24743 -0.18298,-2.15283 -0.3361,-4.30821 -0.42775,-6.46708 -0.11012,-2.39059 -0.1924,-4.7829 -0.1942,-7.17634 -0.004,-2.52495 0.0427,-5.04907 0.14343,-7.57217 0.0923,-2.70676 0.18761,-5.4135 0.24855,-8.1212 0.0855,-2.59236 0.17695,-5.18448 0.27739,-7.77631 0.10604,-2.4774 0.22516,-4.95422 0.35724,-7.43038 0.13451,-2.4221 0.27995,-4.84349 0.4432,-7.26387 0.14595,-2.29811 0.29297,-4.59631 0.49774,-6.89012 0.18682,-2.10701 0.37221,-4.21431 0.58864,-6.31849 0.20283,-1.85446 0.42648,-3.70641 0.67461,-5.55537 0.21709,-1.65754 0.44995,-3.31266 0.68757,-4.96732 0.17584,-1.33593 0.3628,-2.67054 0.49504,-4.01171 0.0737,-0.79979 0.13083,-1.60129 0.14427,-2.40425 0.30253,-3.78182 -10.3941,-4.63756 -10.69662,-0.85574 z" /></g></g></svg>
