<?xml version="1.0" encoding="UTF-8" standalone="no"?>
<!-- Created with Inkscape (http://www.inkscape.org/) -->

<svg
   width="159.46727mm"
   height="147.53502mm"
   viewBox="0 0 159.46727 147.53502"
   version="1.1"
   id="svg5"
   xml:space="preserve"
   xmlns="http://www.w3.org/2000/svg"
   xmlns:svg="http://www.w3.org/2000/svg"><defs
     id="defs2" /><g
     id="layer2"
     transform="translate(3347.5301,599.04832)"><g
       id="g226"
       transform="translate(-745.16829,319.20341)"
       style="fill:#ffffff;fill-opacity:1"><path
         style="fill:#ffffff;fill-opacity:1;stroke:none;stroke-width:22.4367;stroke-dasharray:none;stroke-opacity:1"
         id="path207"
         d="m -2602.3528,-849.37602 c 0,0.27266 0.037,0.54346 0.064,0.81463 0.062,0.6051 0.1863,1.20142 0.3273,1.79234 0.1568,0.60955 0.3378,1.21224 0.5253,1.81293 0.2384,0.7694 0.504,1.53021 0.7832,2.28568 0.3534,0.9316 0.7178,1.85856 1.0954,2.78058 0.3981,0.95115 0.7782,1.90963 1.1627,2.86629 0.4287,1.04997 0.8468,2.1042 1.2593,3.16063 0.4652,1.16808 0.9365,2.3337 1.4175,3.49531 0.4996,1.23528 1.0256,2.45927 1.561,3.67937 0.5516,1.28646 1.1324,2.55982 1.7338,3.82368 0.6408,1.31789 1.3062,2.62382 1.9854,3.92226 0.7098,1.37232 1.4619,2.72137 2.2303,4.06149 0.8347,1.46378 1.7267,2.89308 2.6388,4.30945 0.9062,1.39346 1.8287,2.77646 2.7674,4.14825 0.9977,1.47542 2.0901,2.88226 3.183,4.28738 1.0981,1.41581 2.245,2.79268 3.4069,4.15624 1.1528,1.31789 2.3091,2.63268 3.4955,3.92049 1.1785,1.28315 2.4074,2.5178 3.6556,3.73274 1.2549,1.2356 2.5803,2.39342 3.926,3.52801 1.3137,1.11693 2.6817,2.16654 4.0582,3.20407 1.3685,1.02722 2.7717,2.00647 4.1952,2.95548 1.4189,0.94284 2.8567,1.85518 4.3247,2.71944 1.5617,0.91395 3.1714,1.73871 4.8059,2.51333 1.7222,0.81079 3.4995,1.49267 5.3029,2.09806 1.7953,0.60897 3.6359,1.06104 5.4891,1.45199 1.7812,0.35358 3.5817,0.59854 5.385,0.8056 1.79,0.20614 3.5886,0.29646 5.3892,0.32821 1.7644,0.0276 3.5278,-0.0542 5.2877,-0.17348 1.7817,-0.12981 3.5534,-0.35724 5.3157,-0.64617 1.8469,-0.29607 3.664,-0.73599 5.4637,-1.24047 1.8456,-0.51689 3.6362,-1.19613 5.4035,-1.93257 1.6983,-0.72356 3.3402,-1.5689 4.9731,-2.42763 1.5121,-0.80113 3.0044,-1.63814 4.476,-2.51119 1.564,-0.91596 3.0666,-1.92868 4.5342,-2.99069 1.4342,-1.04119 2.827,-2.13733 4.215,-3.23871 1.4165,-1.13371 2.8003,-2.30738 4.1664,-3.50102 1.3734,-1.18578 2.7107,-2.41192 4.03,-3.65734 1.2964,-1.23978 2.5867,-2.48621 3.8488,-3.761 1.2709,-1.27418 2.4806,-2.60678 3.6902,-3.93856 1.2009,-1.32323 2.3633,-2.67959 3.5026,-4.05598 1.1037,-1.33429 2.1668,-2.70116 3.2269,-4.07014 1.032,-1.33935 2.0173,-2.71346 2.9983,-4.09024 0.9585,-1.33435 1.8984,-2.68172 2.8208,-4.0412 0.9072,-1.3412 1.7991,-2.69245 2.6881,-4.04571 0.8776,-1.33689 1.7437,-2.68129 2.5898,-4.03831 0.8282,-1.31461 1.6334,-2.64319 2.4288,-3.97788 0.7697,-1.30919 1.5194,-2.63025 2.253,-3.95999 0.719,-1.31022 1.3924,-2.64446 2.0506,-3.98595 0.63,-1.29299 1.215,-2.6071 1.7897,-3.92539 0.4519,-1.04111 0.8871,-2.08931 1.3043,-3.14478 1.479,-3.6622 -8.8793,-7.84543 -10.3583,-4.18322 v 0 c -0.3896,0.94099 -0.7845,1.87978 -1.1986,2.8103 -0.5211,1.16863 -1.053,2.33248 -1.612,3.48355 -0.5836,1.1811 -1.1882,2.35191 -1.827,3.50422 -0.6743,1.2192 -1.3737,2.42428 -2.088,3.62056 -0.7556,1.26413 -1.5331,2.51458 -2.3224,3.75799 -0.8124,1.29053 -1.645,2.56775 -2.4848,3.84061 -0.8505,1.30593 -1.7245,2.59617 -2.5918,3.89099 -0.8622,1.27513 -1.7406,2.53923 -2.641,3.78788 -0.9105,1.25767 -1.8255,2.51235 -2.7746,3.74139 -0.9782,1.26127 -1.9594,2.52084 -2.9887,3.74113 -1.0472,1.24621 -2.0964,2.49092 -3.1937,3.69369 -1.0985,1.21211 -2.2124,2.41049 -3.3557,3.58047 -1.1606,1.17496 -2.354,2.31672 -3.5541,3.45125 -1.235,1.15049 -2.465,2.30728 -3.7476,3.40522 -1.2306,1.08505 -2.4811,2.14794 -3.7548,3.18217 -1.2462,1.00504 -2.5083,1.99027 -3.8004,2.93605 -1.1741,0.86186 -2.3616,1.70979 -3.6248,2.43814 -1.2921,0.76724 -2.6042,1.49878 -3.9439,2.18014 -1.3591,0.70112 -2.7232,1.39531 -4.1246,2.00909 -1.3532,0.57232 -2.726,1.09606 -4.1413,1.4968 -1.3672,0.40608 -2.754,0.7448 -4.1612,0.98136 -1.4126,0.23207 -2.8322,0.41725 -4.2597,0.53041 -1.4381,0.10131 -2.879,0.15963 -4.321,0.13737 -1.4255,-0.0214 -2.8503,-0.0839 -4.2671,-0.2514 -1.4611,-0.17259 -2.917,-0.39135 -4.362,-0.66823 -1.4228,-0.29602 -2.8362,-0.63413 -4.2116,-1.10951 -1.3848,-0.46212 -2.7516,-0.97726 -4.0716,-1.60409 -1.3412,-0.62605 -2.6764,-1.26653 -3.9479,-2.02753 -1.2718,-0.72818 -2.5163,-1.49889 -3.7214,-2.33375 -1.2415,-0.835 -2.4747,-1.68304 -3.6688,-2.58517 -1.2065,-0.91263 -2.4021,-1.84012 -3.5604,-2.81358 -1.1303,-0.96118 -2.2619,-1.9227 -3.3116,-2.97293 -1.0964,-1.08366 -2.1935,-2.16795 -3.2276,-3.3119 -1.097,-1.20147 -2.1562,-2.43573 -3.2231,-3.66382 -1.0523,-1.21451 -2.0953,-2.43848 -3.0742,-3.71353 -0.9527,-1.2255 -1.9129,-2.44708 -2.8099,-3.71422 -0.8804,-1.2827 -1.7373,-2.58117 -2.5806,-3.8885 -0.8224,-1.27442 -1.6374,-2.5536 -2.4201,-3.85294 -0.7105,-1.19523 -1.4,-2.4021 -2.0456,-3.6339 -0.6206,-1.1561 -1.2206,-2.32309 -1.8024,-3.49924 -0.5563,-1.15711 -1.0955,-2.32289 -1.6097,-3.4993 -0.5085,-1.14896 -1.0098,-2.30098 -1.4955,-3.45983 -0.4708,-1.12326 -0.9321,-2.25036 -1.393,-3.37772 -0.4408,-1.05601 -0.89,-2.10844 -1.3307,-3.16445 -0.4073,-0.98594 -0.8056,-1.97559 -1.2209,-2.9582 -0.363,-0.84717 -0.7211,-1.69642 -1.1041,-2.53478 -0.2505,-0.56992 -0.4697,-1.1534 -0.6987,-1.73212 -0.1386,-0.3678 -0.26,-0.741 -0.3859,-1.11313 -0.046,-0.0904 -0.042,-0.24641 -0.117,-0.28194 -0.03,-0.2145 -0.047,-0.26136 -0.073,-0.56296 -0.3576,-3.75531 -10.9793,-2.74373 -10.6216,1.01158 z" /><path
         style="fill:#ffffff;fill-opacity:1;stroke:none;stroke-width:22.4367;stroke-dasharray:none;stroke-opacity:1"
         id="path208"
         d="m -2597.4124,-847.12679 c 0.3803,0.0879 0.7756,0.11943 1.1644,0.15557 0.3793,0.0348 0.7522,0.11076 1.1173,0.21887 0.7206,0.19452 1.4512,0.34861 2.1712,0.54512 0.8839,0.27045 1.7541,0.58608 2.6239,0.89879 1.0238,0.34742 2.0145,0.77673 2.9968,1.22563 1.1645,0.53173 2.3305,1.06029 3.4828,1.61811 1.1481,0.55589 2.2643,1.17446 3.3725,1.80522 1.2042,0.67435 2.368,1.41494 3.5224,2.17033 1.2259,0.82383 2.4384,1.66759 3.6358,2.53248 1.2364,0.89969 2.4602,1.81589 3.6678,2.75392 1.2764,0.99004 2.5235,2.01673 3.7787,3.03334 1.2749,1.03995 2.5406,2.09182 3.7925,3.15947 1.2702,1.06132 2.4871,2.18302 3.7051,3.30303 1.243,1.14298 2.4488,2.32458 3.6354,3.5256 1.2395,1.23738 2.4005,2.5491 3.5528,3.86683 1.2542,1.44582 2.4736,2.92114 3.6893,4.39931 1.2164,1.49363 2.4089,3.00646 3.6015,4.51908 1.1351,1.43709 2.2476,2.89219 3.3303,4.36925 1.0674,1.42611 2.0703,2.89828 3.0643,4.37597 0.9876,1.46886 1.9535,2.95207 2.8941,4.45141 0.9067,1.43724 1.7437,2.91668 2.548,4.41317 0.8257,1.55786 1.6047,3.13983 2.3754,4.72545 0.7585,1.56909 1.4793,3.1563 2.183,4.75065 0.3387,0.77703 0.6691,1.55763 0.9992,2.33839 1.5509,3.71943 12.0711,-0.66725 10.5201,-4.38671 v 0 c -0.3485,-0.84686 -0.697,-1.69387 -1.062,-2.53384 -0.7501,-1.72334 -1.5194,-3.43807 -2.3319,-5.13302 -0.8365,-1.75189 -1.6969,-3.49282 -2.6208,-5.2006 -0.9243,-1.70143 -1.8874,-3.38124 -2.9174,-5.02129 -1.0008,-1.61224 -2.0217,-3.2123 -3.0782,-4.78874 -1.0837,-1.61666 -2.1924,-3.21646 -3.3499,-4.78132 -1.1515,-1.55794 -2.3062,-3.11377 -3.495,-4.64359 -1.243,-1.61094 -2.4912,-3.21839 -3.7814,-4.79206 -1.3001,-1.56583 -2.6083,-3.12531 -3.9547,-4.65169 -1.3101,-1.47685 -2.6585,-2.91885 -4.0561,-4.31366 -1.3187,-1.32731 -2.6544,-2.63821 -4.0418,-3.89419 -1.3257,-1.21137 -2.6651,-2.40773 -4.0418,-3.56118 -1.3208,-1.12036 -2.6528,-2.22761 -3.9915,-3.32645 -1.3292,-1.08122 -2.6763,-2.14024 -4.0362,-3.18257 -1.3143,-1.00248 -2.6304,-2.00255 -3.9725,-2.96775 -1.3579,-0.97107 -2.7213,-1.93551 -4.1238,-2.84147 -1.357,-0.86082 -2.7236,-1.70651 -4.1323,-2.48073 -1.3313,-0.73832 -2.6717,-1.46153 -4.0502,-2.10873 -1.2631,-0.59563 -2.5233,-1.19838 -3.8073,-1.74837 -1.2666,-0.54041 -2.5503,-1.03756 -3.8514,-1.48912 -1.1716,-0.39569 -2.3494,-0.77608 -3.5542,-1.05921 -0.9721,-0.23614 -1.9463,-0.47379 -2.9364,-0.62151 -0.7649,-0.10366 -1.5319,-0.19912 -2.3034,-0.23582 -0.3363,-0.0151 -0.6728,-0.0204 -1.0093,-0.0291 -3.761,-0.32705 -4.6861,10.31066 -0.9251,10.63771 z" /><path
         style="fill:#ffffff;fill-opacity:1;stroke:none;stroke-width:22.4367;stroke-dasharray:none;stroke-opacity:1"
         id="path209"
         d="m -2518.6003,-775.05488 c 0.1097,-0.34409 0.2456,-0.6786 0.3631,-1.02012 0.1982,-0.60934 0.4445,-1.20105 0.6905,-1.79218 0.3297,-0.79341 0.7371,-1.55099 1.1303,-2.314 0.5034,-0.98327 1.0546,-1.94125 1.5981,-2.90272 0.6114,-1.08002 1.2634,-2.13595 1.9154,-3.19172 0.766,-1.19906 1.5538,-2.38413 2.3433,-3.56785 0.9143,-1.37705 1.8443,-2.74354 2.759,-4.1203 1.0091,-1.49522 2.0145,-2.993 3.0021,-4.5025 0.9959,-1.51537 1.9837,-3.03606 2.995,-4.54128 0.9869,-1.4777 2.0104,-2.93031 3.0438,-4.37576 1.0358,-1.441 2.1238,-2.84265 3.2201,-4.23775 1.0962,-1.40936 2.2565,-2.76585 3.436,-4.10546 1.173,-1.35088 2.3938,-2.65732 3.6455,-3.93504 1.2719,-1.30919 2.6023,-2.55884 3.9503,-3.78883 1.3967,-1.26294 2.8057,-2.51228 4.2146,-3.76167 1.3015,-1.16332 2.6629,-2.25591 4.0361,-3.3325 1.3437,-1.03876 2.7272,-2.02443 4.1396,-2.96722 1.424,-0.91578 2.8761,-1.78689 4.3332,-2.64859 1.4074,-0.81497 2.8342,-1.59583 4.2813,-2.33788 1.4124,-0.72417 2.845,-1.40751 4.2839,-2.07709 1.3487,-0.63344 2.7222,-1.20891 4.1102,-1.74979 1.2802,-0.49377 2.5891,-0.90557 3.908,-1.28151 1.1232,-0.33155 2.2793,-0.51475 3.4365,-0.67702 0.7715,-0.10512 1.5468,-0.17669 2.3222,-0.24574 3.939,-0.31375 3.0515,-11.45485 -0.8874,-11.14111 v 0 c -0.962,0.0692 -1.9238,0.14576 -2.8821,0.25535 -1.6968,0.20767 -3.3878,0.47416 -5.0365,0.93734 -1.6676,0.46122 -3.3233,0.96801 -4.9401,1.58703 -1.6131,0.61793 -3.2043,1.28889 -4.7748,2.00853 -1.5922,0.72541 -3.177,1.46783 -4.7372,2.26007 -1.6287,0.83693 -3.247,1.69455 -4.8333,2.60972 -1.6684,0.9616 -3.3329,1.93275 -4.94,2.99497 -1.6417,1.09927 -3.2628,2.23068 -4.8203,3.44752 -1.5496,1.20235 -3.0677,2.44468 -4.5446,3.73563 -1.496,1.29228 -2.9934,2.58366 -4.4533,3.91673 -1.4949,1.3834 -2.9609,2.79792 -4.3853,4.254 -1.3755,1.4205 -2.7147,2.87549 -4.0292,4.35255 -1.326,1.50228 -2.6218,3.03131 -3.8498,4.61524 -1.1945,1.52447 -2.3599,3.07133 -3.4914,4.64325 -1.1076,1.53609 -2.1969,3.08541 -3.2528,4.65754 -1.0458,1.55318 -2.0617,3.12581 -3.0838,4.69461 -0.9646,1.49243 -1.9446,2.97458 -2.9209,4.45928 -0.9179,1.39788 -1.816,2.80856 -2.7211,4.21476 -0.8335,1.30363 -1.6882,2.59483 -2.4681,3.93166 -0.7024,1.17856 -1.4053,2.35672 -2.0594,3.56306 -0.6183,1.11583 -1.2386,2.23145 -1.7934,3.38077 -0.5222,1.07032 -1.0214,2.15157 -1.4361,3.26898 -0.3349,0.89818 -0.659,1.8012 -0.9112,2.72677 -0.1733,0.65839 -0.3356,1.32162 -0.4066,2.00014 -0.7425,3.71256 9.7581,5.81266 10.5006,2.10013 z" /><path
         style="fill:#ffffff;fill-opacity:1;stroke:none;stroke-width:22.4367;stroke-dasharray:none;stroke-opacity:1"
         id="path211"
         d="m -2518.4769,-799.19845 c -0.09,-0.12377 -0.2115,-0.24127 -0.2474,-0.3929 -0.1516,-0.30909 -0.3109,-0.61598 -0.4454,-0.93398 -0.2527,-0.55333 -0.4711,-1.12168 -0.6834,-1.69149 -0.3012,-0.78655 -0.5844,-1.57903 -0.855,-2.37656 -0.3213,-0.92149 -0.5921,-1.85886 -0.8684,-2.79443 -0.3224,-1.06627 -0.6116,-2.14169 -0.8892,-3.22029 -0.3078,-1.22764 -0.6324,-2.45092 -0.9471,-3.67678 -0.3294,-1.27879 -0.629,-2.56485 -0.9353,-3.84927 -0.3204,-1.35395 -0.6473,-2.70639 -0.9648,-4.06106 -0.3439,-1.44833 -0.6551,-2.90396 -0.9768,-4.35732 -0.37,-1.57583 -0.7136,-3.15756 -1.0673,-4.73707 -0.3648,-1.64201 -0.7254,-3.28494 -1.0593,-4.93353 -0.3496,-1.73569 -0.6947,-3.47228 -1.0265,-5.2115 -0.3362,-1.76718 -0.6414,-3.53994 -0.9228,-5.31661 -0.2952,-1.83441 -0.5527,-3.67432 -0.7923,-5.51672 -0.2356,-1.83796 -0.3887,-3.68499 -0.5287,-5.53226 -0.1618,-1.8642 -0.2023,-3.73396 -0.2079,-5.60406 -0.01,-1.94185 0.04,-3.88265 0.128,-5.82231 0.088,-1.91397 0.266,-3.8213 0.4806,-5.72466 0.2198,-1.93484 0.4682,-3.86593 0.763,-5.7908 0.2844,-1.89741 0.6623,-3.77807 1.0553,-5.65534 0.4027,-1.89484 0.8463,-3.78063 1.2938,-5.66531 0.4302,-1.80313 0.9033,-3.59553 1.3875,-5.38483 0.4519,-1.68301 0.9615,-3.34922 1.5031,-5.0053 0.5291,-1.6182 1.125,-3.21313 1.7087,-4.81211 0.5419,-1.49217 1.1156,-2.97244 1.7019,-4.44762 0.093,-0.22963 0.1855,-0.45927 0.2782,-0.68892 1.5253,-3.69634 -8.9295,-8.01042 -10.4548,-4.31409 v 0 c -0.1053,0.25027 -0.2106,0.50054 -0.3159,0.75081 -0.6491,1.57234 -1.2895,3.14833 -1.8907,4.73975 -0.6485,1.72225 -1.3032,3.44275 -1.8783,5.19138 -0.6081,1.82854 -1.1803,3.66874 -1.696,5.52567 -0.539,1.90376 -1.0424,3.81735 -1.5168,5.73823 -0.4916,1.99144 -0.9725,3.98584 -1.4015,5.99189 -0.4435,2.08634 -0.8495,4.18068 -1.1614,6.29126 -0.3192,2.08264 -0.6105,4.16933 -0.847,6.26316 -0.2358,2.15757 -0.431,4.3194 -0.5335,6.48793 -0.093,2.14363 -0.1579,4.28879 -0.1435,6.43472 0.03,2.12254 0.1118,4.24397 0.2795,6.3605 0.1532,2.06185 0.3325,4.12234 0.61,6.17175 0.2613,1.96096 0.5365,3.92012 0.8665,5.87089 0.3177,1.87984 0.6448,3.7582 1.009,5.62965 0.3524,1.80565 0.7078,3.61095 1.0943,5.40964 0.3769,1.7058 0.7481,3.41297 1.1488,5.11339 0.3713,1.57295 0.7321,3.14831 1.0985,4.72239 0.3511,1.4827 0.7208,2.96088 1.0804,4.44154 0.3334,1.36874 0.6547,2.74029 0.9863,4.10945 0.3324,1.33242 0.6719,2.66301 1.0141,3.99296 0.3306,1.26545 0.6653,2.52987 1.0069,3.79233 0.3396,1.19464 0.6822,2.38871 1.0539,3.57383 0.342,1.06275 0.6854,2.12508 1.0652,3.17511 0.3402,0.9399 0.6892,1.87666 1.0774,2.79804 0.3463,0.82712 0.7113,1.64622 1.1285,2.44047 0.3343,0.63791 0.6888,1.26518 1.0909,1.86327 0.2718,0.39968 0.5606,0.78597 0.8516,1.17176 2.3104,3.00345 10.8054,-3.5312 8.4951,-6.53465 z" /><path
         style="fill:#ffffff;fill-opacity:1;stroke:none;stroke-width:22.4367;stroke-dasharray:none;stroke-opacity:1"
         id="path212"
         d="m -2530.1319,-910.24905 c 0.1217,0.0935 0.1913,0.22379 0.2859,0.35325 0.281,0.39042 0.5993,0.75126 0.9075,1.11995 0.3208,0.40603 0.6029,0.84119 0.8943,1.26839 0.4832,0.71453 0.9618,1.43216 1.444,2.14738 0.5136,0.77759 1.0137,1.56372 1.4983,2.35958 0.5347,0.90096 0.9975,1.84238 1.4671,2.77824 0.5682,1.11723 1.1049,2.25123 1.5982,3.40349 0.5843,1.36496 1.1367,2.74336 1.6929,4.11993 0.5938,1.4922 1.1628,2.99395 1.7063,4.50512 0.5718,1.638 1.139,3.2775 1.6852,4.92424 0.5739,1.71989 1.0578,3.46794 1.5477,5.21308 0.5181,1.81846 0.9833,3.6508 1.4315,5.48749 0.4612,1.8937 0.8518,3.8029 1.1945,5.72129 0.3767,2.05656 0.6872,4.12417 0.9644,6.19623 0.276,2.1355 0.509,4.27614 0.7141,6.41953 0.2123,2.15059 0.3656,4.30617 0.4937,6.46321 0.1282,2.15231 0.2095,4.30705 0.2794,6.4619 0.072,2.077 0.075,4.15491 0.041,6.2326 -0.037,2.07418 -0.1464,4.14589 -0.2674,6.21655 -0.1081,1.97577 -0.2973,3.94432 -0.5536,5.90594 -0.2428,1.87238 -0.6047,3.72563 -1.0173,5.56708 -0.4123,1.82417 -0.9025,3.62825 -1.4512,5.41565 -0.5145,1.73251 -1.2701,3.37579 -2.0044,5.02237 -0.7838,1.75914 -1.6216,3.4934 -2.4557,5.22904 -0.7853,1.65066 -1.6229,3.27538 -2.4668,4.89656 -1.8823,3.58487 8.2572,8.90871 10.1395,5.32384 v 0 c 0.9068,-1.71341 1.7852,-3.4414 2.6442,-5.17932 0.9128,-1.83777 1.8228,-3.67726 2.6745,-5.5444 0.9409,-2.08666 1.8349,-4.1969 2.4893,-6.39424 0.6216,-2.05811 1.197,-4.13086 1.6834,-6.22548 0.499,-2.19131 0.9353,-4.39703 1.2301,-6.62617 0.2847,-2.21544 0.5086,-4.43744 0.6475,-6.66719 0.1497,-2.2521 0.2707,-4.50619 0.299,-6.76359 0.033,-2.25155 0.028,-4.50334 -0.032,-6.7545 -0.062,-2.27928 -0.1384,-4.55819 -0.2722,-6.83458 -0.1466,-2.285 -0.317,-4.56859 -0.5312,-6.84835 -0.219,-2.30547 -0.4585,-4.60906 -0.7746,-6.90364 -0.3211,-2.26687 -0.6593,-4.5326 -1.096,-6.78053 -0.4242,-2.10497 -0.8895,-4.20145 -1.4014,-6.28689 -0.4837,-1.96649 -0.9927,-3.92682 -1.5384,-5.87706 -0.5461,-1.92093 -1.1294,-3.83064 -1.7735,-5.72122 -0.594,-1.75268 -1.194,-3.5035 -1.8405,-5.23766 -0.6123,-1.61674 -1.2426,-3.22652 -1.8925,-4.82852 -0.6183,-1.50905 -1.2448,-3.01495 -1.9415,-4.48997 -0.6191,-1.30887 -1.2436,-2.6156 -1.9113,-3.9006 -0.6229,-1.17335 -1.2688,-2.33466 -1.9833,-3.45532 -0.587,-0.93943 -1.1815,-1.87447 -1.8125,-2.78519 -0.5611,-0.80333 -1.114,-1.61272 -1.719,-2.38427 -0.4851,-0.62566 -0.9857,-1.2382 -1.5121,-1.82983 -0.2855,-0.32756 -0.5759,-0.65172 -0.8755,-0.96634 -0.2647,-0.28927 -0.534,-0.57359 -0.7879,-0.87257 -2.6182,-2.73727 -10.3604,4.66823 -7.7421,7.4055 z" /><path
         style="fill:#ffffff;fill-opacity:1;stroke:none;stroke-width:22.4367;stroke-dasharray:none;stroke-opacity:1"
         id="path213"
         d="m -2499.5387,-862.73475 c 0.1265,-0.26561 0.2991,-0.50207 0.4535,-0.75353 0.2172,-0.3374 0.4416,-0.66987 0.6829,-0.99058 0.3114,-0.44177 0.6813,-0.83534 1.0517,-1.22708 0.5168,-0.56459 1.0622,-1.09876 1.6156,-1.62692 0.5983,-0.57957 1.2255,-1.12776 1.8564,-1.67122 0.6562,-0.5548 1.3372,-1.08 2.0233,-1.59721 0.686,-0.54321 1.4299,-1.0006 2.1827,-1.44293 0.9288,-0.55922 1.8492,-1.13141 2.8101,-1.63422 0.9162,-0.47721 1.8612,-0.89181 2.8242,-1.26389 1.0872,-0.40799 2.187,-0.77928 3.2927,-1.13364 1.0629,-0.35483 2.1428,-0.65047 3.2289,-0.92432 0.7236,-0.17759 0.367,-0.0912 1.0698,-0.25924 3.836,-0.88476 1.3335,-11.73456 -2.5025,-10.84979 v 0 c -0.8389,0.18769 -0.4224,0.0915 -1.2494,0.28834 -1.3232,0.32316 -2.6406,0.66863 -3.9361,1.09143 -1.3539,0.42794 -2.7036,0.87228 -4.0247,1.39457 -1.3665,0.55123 -2.714,1.15025 -4.013,1.84798 -1.1375,0.62979 -2.2564,1.29172 -3.3547,1.98792 -1.0371,0.66598 -2.0483,1.37105 -3.0292,2.11775 -0.8505,0.65577 -1.693,1.32194 -2.51,2.0193 -0.7986,0.68588 -1.5869,1.38377 -2.3398,2.11987 -0.724,0.7116 -1.4274,1.44301 -2.1023,2.20157 -0.6371,0.73033 -1.2497,1.48268 -1.8006,2.28087 -0.4741,0.69271 -0.9275,1.401 -1.3176,2.14516 -0.2309,0.46379 -0.4661,0.93938 -0.6311,1.42518 -1.575,3.43625 8.1442,7.89088 9.7192,4.45463 z" /><path
         style="fill:#ffffff;fill-opacity:1;stroke:none;stroke-width:22.4367;stroke-dasharray:none;stroke-opacity:1"
         id="path214"
         d="m -2485.6257,-821.15291 c 0.6742,-0.5071 1.2187,-1.15496 1.7338,-1.81679 0.5242,-0.67625 0.9883,-1.39422 1.4391,-2.12048 0.4875,-0.81465 0.9529,-1.64216 1.3941,-2.48277 0.521,-0.99033 1.0131,-1.9948 1.4706,-3.0159 0.4996,-1.12993 0.9577,-2.27732 1.4095,-3.42697 0.5231,-1.3181 0.977,-2.66125 1.4057,-4.01245 0.4373,-1.40862 0.8398,-2.82779 1.2359,-4.24842 0.4083,-1.51326 0.7626,-3.04022 1.1001,-4.57057 0.3514,-1.57761 0.6698,-3.16217 0.9654,-4.7511 0.3098,-1.65436 0.5735,-3.31671 0.8412,-4.97824 0.2823,-1.7146 0.5237,-3.43543 0.7646,-5.1562 0.2443,-1.75755 0.4722,-3.51716 0.6623,-5.28143 0.2139,-1.90087 0.3173,-3.81111 0.3838,-5.72201 0.048,-1.80961 0.052,-3.62013 0.038,-5.43023 -0.01,-1.70082 -0.063,-3.40076 -0.1467,-5.09934 -0.047,-1.06664 -0.1267,-2.13116 -0.2157,-3.19492 -0.2997,-3.97227 -11.5349,-3.12476 -11.2353,0.84749 v 0 c 0.062,0.94236 0.1138,1.88529 0.1452,2.82921 0.054,1.54128 0.097,3.08325 0.08,4.62566 -0.012,1.68098 -0.03,3.36201 -0.08,5.04232 -0.051,1.62923 -0.1231,3.2579 -0.2881,4.88035 -0.1782,1.64894 -0.3885,3.29417 -0.6151,4.93715 -0.2281,1.65558 -0.4713,3.30909 -0.718,4.962 -0.2392,1.56876 -0.4751,3.13817 -0.7534,4.70064 -0.2608,1.45206 -0.523,2.9042 -0.8437,4.34453 -0.3077,1.37814 -0.6142,2.75675 -0.9622,4.12541 -0.3181,1.27445 -0.6936,2.5332 -1.0612,3.79408 -0.346,1.1285 -0.7008,2.25507 -1.1058,3.36404 -0.3802,1.01775 -0.781,2.02721 -1.1969,3.03086 -0.3278,0.80555 -0.6634,1.60848 -1.0616,2.38238 -0.3199,0.64456 -0.6611,1.27836 -1.0099,1.90768 -0.2442,0.43778 -0.4989,0.86876 -0.7678,1.2918 -0.2165,0.33557 -0.084,0.10633 0.1102,0.0691 -2.8896,2.43337 3.993,10.60648 6.8826,8.17311 z" /><path
         style="fill:#ffffff;fill-opacity:1;stroke:none;stroke-width:22.4367;stroke-dasharray:none;stroke-opacity:1"
         id="path215"
         d="m -2557.3425,-838.7022 c 0.1852,0.19257 -0.086,-0.13459 -0.1079,-0.16308 -0.1556,-0.24369 0.2248,0.31731 0.053,-0.004 0.069,0.0803 -0.065,-0.19941 -0.082,-0.25056 -0.068,-0.18137 -0.081,-0.37298 -0.114,-0.56176 -0.1041,-0.50099 -0.1918,-1.00478 -0.2774,-1.50916 -0.1047,-0.7198 -0.2058,-1.4401 -0.3058,-2.16053 -0.1104,-0.86461 -0.2238,-1.72879 -0.3358,-2.59316 -0.1205,-0.91517 -0.2385,-1.83065 -0.3557,-2.74627 -0.1128,-0.93967 -0.201,-1.88201 -0.2996,-2.82321 -0.1086,-0.9992 -0.1961,-2.00049 -0.2775,-3.00225 -0.095,-1.0278 -0.1466,-2.0587 -0.2007,-3.08925 -0.044,-1.0487 -0.084,-2.09799 -0.07,-3.14769 0,-1.10453 0.017,-2.20856 0.066,-3.31206 0.041,-1.10924 0.1311,-2.21602 0.2403,-3.32039 0.11,-1.13247 0.248,-2.26189 0.4171,-3.38698 0.1556,-1.06617 0.3526,-2.12423 0.6053,-3.17146 0.271,-1.07817 0.574,-2.14812 0.8896,-3.21402 0.3037,-1.03198 0.6342,-2.05552 0.995,-3.06896 0.3522,-0.9707 0.7246,-1.93397 1.1008,-2.89557 0.2308,-0.58761 0.4774,-1.16866 0.7269,-1.74847 1.6067,-3.64078 -8.6909,-8.18513 -10.2976,-4.54438 v 0 c -0.3091,0.68643 -0.6127,1.37538 -0.8986,2.07185 -0.4494,1.08598 -0.8894,2.17596 -1.3026,3.27631 -0.4321,1.19094 -0.8368,2.39135 -1.2194,3.59918 -0.4068,1.31032 -0.7989,2.62617 -1.1042,3.96451 -0.2996,1.34684 -0.5702,2.70082 -0.77,4.06644 -0.1913,1.3158 -0.3643,2.63408 -0.4871,3.95832 -0.1246,1.32056 -0.215,2.64366 -0.2555,3.9697 -0.044,1.26508 -0.078,2.5308 -0.064,3.79677 0.02,1.24386 0.047,2.48762 0.1247,3.72954 0.067,1.16041 0.147,2.31984 0.2647,3.47636 0.1041,1.06411 0.2128,2.12773 0.3257,3.19096 0.112,1.02455 0.2417,2.04703 0.3849,3.06768 0.1236,0.93626 0.2358,1.87394 0.3633,2.80969 0.1309,0.92554 0.2726,1.84955 0.4244,2.77191 0.1419,0.85331 0.279,1.70797 0.4576,2.55458 0.1643,0.79079 0.3433,1.57948 0.5741,2.35387 0.2272,0.72051 0.4908,1.43004 0.8056,2.11722 0.2661,0.55689 0.5537,1.10405 0.893,1.62044 0.3005,0.44246 0.6144,0.87961 0.9841,1.26756 0.1914,0.2014 0.3918,0.39397 0.5837,0.59495 2.6676,2.66753 10.2125,-4.87741 7.545,-7.54497 z" /><path
         style="fill:#ffffff;fill-opacity:1;stroke:none;stroke-width:22.4367;stroke-dasharray:none;stroke-opacity:1"
         id="path216"
         d="m -2560.5685,-879.25075 c -0.2013,-0.0935 0.3793,0.16917 0.4184,0.18674 0.1245,0.0687 0.046,0.0352 0.2212,0.14719 0.036,0.0908 0.1689,0.16838 0.2592,0.24725 0.3043,0.23916 0.5948,0.49408 0.8818,0.75356 0.3475,0.34679 0.7079,0.68112 1.0665,1.01655 0.3856,0.35013 0.7497,0.72046 1.0919,1.11279 0.4204,0.48294 0.8653,0.94337 1.2852,1.42671 0.3939,0.46652 0.7285,0.97867 1.0681,1.4849 0.4719,0.70294 0.9426,1.40679 1.4081,2.11402 0.4609,0.69876 0.9079,1.40628 1.3478,2.11841 0.4338,0.70154 0.8533,1.4119 1.2696,2.12394 0.403,0.6975 0.7794,1.40962 1.159,2.11998 0.3678,0.67638 0.6945,1.37393 1.0219,2.07041 0.3437,0.72605 0.6773,1.45672 1.0015,2.19165 0.3112,0.71287 0.5972,1.43606 0.8861,2.15813 0.3057,0.75128 0.6111,1.5027 0.9031,2.25946 0.292,0.73269 0.5633,1.47323 0.8277,2.21621 0.2753,0.78144 0.5624,1.5586 0.839,2.33957 0.261,0.73293 0.4907,1.47641 0.7197,2.21975 0.2375,0.77812 0.4831,1.55371 0.7109,2.33476 0.1837,0.64641 0.375,1.29056 0.5628,1.9358 1.0779,3.77915 11.7669,0.73036 10.689,-3.04879 v 0 c -0.1873,-0.66971 -0.3734,-1.3398 -0.5633,-2.00882 -0.2457,-0.83995 -0.4952,-1.67876 -0.7518,-2.51545 -0.2704,-0.86672 -0.5607,-1.72683 -0.8538,-2.58609 -0.282,-0.81902 -0.5716,-1.63534 -0.8717,-2.44793 -0.3007,-0.82581 -0.6137,-1.64695 -0.9332,-2.46567 -0.3071,-0.7874 -0.6209,-1.57218 -0.9359,-2.35646 -0.3294,-0.82892 -0.6639,-1.65566 -1.0187,-2.47412 -0.3536,-0.82346 -0.7157,-1.64328 -1.095,-2.45531 -0.4086,-0.88696 -0.8322,-1.76681 -1.2953,-2.62686 -0.4376,-0.81881 -0.8872,-1.63118 -1.3442,-2.4393 -0.4601,-0.80465 -0.9276,-1.6052 -1.4145,-2.39395 -0.4947,-0.80775 -1.0002,-1.60891 -1.5104,-2.40694 -0.5337,-0.8151 -1.0708,-1.62817 -1.6399,-2.41925 -0.594,-0.81388 -1.2186,-1.60504 -1.8908,-2.35622 -0.5218,-0.58645 -1.0539,-1.16395 -1.6024,-1.72556 -0.5165,-0.51032 -1.0363,-1.01711 -1.5646,-1.51521 -0.496,-0.46509 -0.9985,-0.92284 -1.5291,-1.34877 -0.4318,-0.34589 -0.8627,-0.69358 -1.3096,-1.01989 -0.5121,-0.37803 -1.0368,-0.74001 -1.5983,-1.04201 -0.4091,-0.21762 -0.823,-0.42661 -1.2508,-0.60536 -0.264,-0.11007 -0.5343,-0.20048 -0.7956,-0.31642 -3.5343,-1.36813 -7.4039,8.62846 -3.8696,9.9966 z" /></g></g></svg>
