<?xml version="1.0" encoding="UTF-8" standalone="no"?>
<!-- Created with Inkscape (http://www.inkscape.org/) -->

<svg
   width="154.20531mm"
   height="154.70561mm"
   viewBox="0 0 154.20531 154.70561"
   version="1.1"
   id="svg5"
   xml:space="preserve"
   xmlns="http://www.w3.org/2000/svg"
   xmlns:svg="http://www.w3.org/2000/svg"><defs
     id="defs2" /><g
     id="layer1"
     transform="translate(1981.7768,915.56003)"><path
       style="fill:#ffffff;fill-opacity:1;stroke:none;stroke-width:0.875012;stroke-opacity:1"
       d="m -1917.8741,-764.53522 c -10.0453,-1.73641 -11.4866,-2.18427 -13.178,-4.09496 -1.0441,-1.1799 -2.6373,-2.24051 -3.5407,-2.35691 -0.9029,-0.11634 -1.5862,-0.57122 -1.5184,-1.0107 0.256,-1.65068 -2.9809,-2.94377 -6.0002,-2.39798 -2.4463,0.44221 -3.5731,0.14068 -6.746,-1.80437 -2.0949,-1.28441 -3.7604,-2.64965 -3.7012,-3.03384 0.059,-0.38419 -0.5726,-1.00558 -1.4047,-1.38082 -0.8317,-0.37541 -2.7511,-2.00636 -4.2651,-3.62463 -1.5136,-1.61823 -3.1493,-3.25082 -3.6344,-3.62797 -0.485,-0.37698 -2.3858,-2.97014 -4.2236,-5.76226 -1.8381,-2.79212 -3.5171,-5.28924 -3.7309,-5.54913 -1.4818,-1.79862 -5.0228,-9.38223 -4.8633,-10.41547 0.1073,-0.69685 -0.211,-1.10368 -0.7099,-0.90407 -0.4979,0.19948 -0.9975,-0.7413 -1.1099,-2.09082 -0.1142,-1.34953 -0.9663,-3.44958 -1.8969,-4.66678 -0.931,-1.21716 -1.5652,-2.3956 -1.4099,-2.61876 0.4795,-0.68806 -0.256,-3.78642 -1.2441,-5.24839 -1.0455,-1.54572 -0.9424,-14.85695 0.1903,-24.50505 0.4051,-3.45037 0.4709,-6.8267 0.1453,-7.50287 -0.3982,-0.8295 -0.2802,-0.99335 0.365,-0.50363 0.6681,0.50755 1.1282,-0.39399 1.5299,-2.99761 0.5103,-3.30429 4.4758,-13.51567 6.9114,-17.79613 1.0137,-1.78143 5.9247,-8.61307 7.6414,-10.62988 0.6238,-0.73266 1.6451,-1.93143 2.27,-2.66393 0.6248,-0.73251 1.5018,-1.8549 1.9488,-2.49414 0.447,-0.63928 4.8045,-3.95283 9.6833,-7.36347 l 8.8704,-6.20124 4.9079,0.66802 c 4.1146,0.55901 5.2172,0.38729 6.8197,-1.06839 1.0518,-0.95503 2.2014,-2.80367 2.555,-4.10808 0.9822,-3.62235 5.5916,-4.0967 20.4776,-2.10745 13.3776,1.78768 19.4864,3.34958 18.8986,4.83217 -0.2076,0.52513 0.1072,1.01718 0.6975,1.09346 2.6079,0.33611 -5.0121,4.34641 -8.4196,4.43123 -3.5174,0.0876 -3.6458,0.19 -3.4828,2.77553 0.093,1.47645 0.5719,5.20726 1.0645,8.29058 0.9269,5.80139 1.7202,22.72043 1.514,32.29395 -0.066,3.01149 -0.069,9.28313 0,13.93695 0.062,4.65384 -0.2111,10.70065 -0.6048,13.43736 -0.3944,2.73671 -0.2802,7.88299 0.2526,11.43617 0.5335,3.55317 0.6708,10.41301 0.3044,15.24408 -0.9725,12.84613 -0.6407,32.11872 0.5968,34.69623 0.1799,0.37723 2.1828,0.95955 4.4485,1.29401 2.2654,0.33447 4.4454,0.85615 4.8446,1.15947 1.2531,0.95238 1.8191,-1.28026 1.2355,-4.87551 -0.3079,-1.90289 -0.2837,-3.95204 0.055,-4.55367 0.3391,-0.60166 0.173,-0.91656 -0.367,-0.69937 -0.6069,0.24342 -0.7449,-1.42951 -0.3605,-4.36361 1.0932,-8.33689 0.7912,-11.86272 -0.9874,-11.53926 -1.2749,0.23173 -1.3237,0.10433 -0.263,-0.68483 1.6842,-1.25131 2.3443,-5.05214 0.7677,-4.42007 -0.8116,0.32543 -0.8549,-0.091 -0.1487,-1.44759 1.196,-2.29744 1.3167,-2.98253 1.6617,-9.42087 0.1487,-2.76838 0.5898,-8.77172 0.9808,-13.34069 0.3913,-4.56896 0.5736,-8.59362 0.4055,-8.94367 -0.1696,-0.35008 0.073,-4.52202 0.5355,-9.27102 0.4626,-4.74894 0.647,-9.9899 0.4103,-11.64649 -0.2387,-1.65658 -0.4459,-5.4847 -0.4646,-8.50693 -0.035,-3.02224 -0.5217,-10.49938 -1.1182,-16.6159 -1.1932,-12.24141 -0.4061,-20.58993 2.3395,-24.81482 l 1.762,-2.71088 5.1387,1.42553 c 5.9908,1.66196 12.9545,5.53082 17.1414,9.52376 1.624,1.54869 4.4768,3.78705 6.3399,4.97422 3.3811,2.15442 10.7752,10.89514 10.5347,12.45315 -0.069,0.45242 -0.9033,1.13551 -1.8519,1.518 -1.5756,0.6352 -1.5645,0.69295 0.128,0.66684 2.4114,-0.0373 5.642,3.5919 6.3707,7.15633 0.3148,1.54746 0.8863,2.66359 1.2666,2.48027 0.3802,-0.18336 1.2333,1.25709 1.8962,3.20088 3.2269,9.46446 3.9223,12.19683 3.8991,15.31988 0,1.85999 0.2975,3.62655 0.6905,3.92568 0.3938,0.29906 0.5228,1.79524 0.2872,3.32474 -0.2353,1.5295 0,2.9695 0.4923,3.20002 0.5878,0.26745 0.2145,6.15749 -1.0327,16.26313 -1.6527,13.39876 -2.2838,16.44016 -4.088,19.7066 -1.1735,2.12446 -2.621,4.2676 -3.2168,4.7626 -0.5958,0.495 -0.8923,1.29733 -0.6591,1.78294 0.7317,1.52384 -4.2346,8.75842 -8.4773,12.34887 -5.4614,4.62232 -9.5989,7.37424 -10.8451,7.21364 -0.5643,-0.0727 -0.8085,0.13183 -0.5425,0.45453 0.6076,0.73763 -7.9652,6.36257 -12.8655,8.4416 -2.0239,0.85864 -5.183,2.70028 -7.0201,4.09255 -3.2729,2.48017 -6.9983,2.99025 -7.9137,1.08354 -0.2422,-0.50328 -0.7909,-0.7742 -1.2206,-0.60201 -0.4293,0.17229 -4.2827,0.22667 -8.5627,0.1214 -4.28,-0.10559 -8.7998,-0.16976 -10.0435,-0.14258 -1.2441,0.0284 -7.3373,-0.82782 -13.5409,-1.90029 z m 1.8727,-8.27933 c 6.3164,0.81407 6.7122,0.76261 6.088,-0.79367 -0.3671,-0.91542 -0.438,-1.82214 -0.1591,-2.01495 0.2802,-0.19284 0.2214,-1.48566 -0.128,-2.8728 -0.8176,-3.23866 -0.7203,-9.51034 0.3646,-23.51076 0.3218,-4.13998 0.3183,-8.19817 0,-9.01831 -0.3252,-0.8201 -0.4169,-2.35235 -0.2041,-3.405 0.2145,-1.05265 0.2906,-5.72749 0.1764,-10.38858 -0.1176,-4.66108 -0.1729,-11.32043 -0.1245,-14.79858 0.048,-3.47816 0.062,-8.60801 0.035,-11.39963 -0.035,-2.79165 -0.08,-10.40001 -0.1038,-16.90749 -0.035,-6.50747 -0.2353,-13.75675 -0.466,-16.10948 -0.4539,-4.61848 -0.4481,-4.40044 -0.3114,-11.86608 0.1764,-9.62799 0.4539,-9.12136 -5.0103,-9.11504 -2.6432,0.003 -5.8338,-0.0724 -7.09,-0.16786 -1.945,-0.14764 -2.4315,0.30949 -3.2756,3.07765 -0.5449,1.78813 -0.7691,3.65984 -0.4979,4.15939 0.2733,0.49958 0.445,2.99271 0.3854,5.54024 -0.059,2.5476 0.4266,6.79155 1.0802,9.43098 0.6535,2.63947 1.2185,6.51349 1.2558,8.60892 0.1246,6.9341 1.2528,21.60993 2.1347,27.72809 0.4774,3.31368 0.5667,9.21703 0.1972,13.11855 -0.3685,3.90158 -0.7581,11.83383 -0.8657,17.62729 -0.1072,5.79346 -0.6618,14.8449 -1.2309,20.11435 -1.8264,16.90951 -1.9219,22.70791 -0.3692,22.38125 0.7563,-0.15933 4.4153,0.10243 8.1307,0.58146 z m -20.7987,-15.14001 c 0.1073,-2.65754 0.4778,-8.02648 0.8228,-11.93103 0.3459,-3.90456 0.5559,-9.19901 0.4694,-11.76538 -0.086,-2.56644 -0.1072,-6.75052 -0.048,-9.29799 0.059,-2.54747 0.1211,-5.58043 0.1384,-6.7399 0,-1.15947 0.2145,-6.45525 0.4453,-11.76848 0.2283,-5.3132 0.4781,-11.17299 0.5528,-13.02171 0.076,-1.84873 -0.1038,-4.58304 -0.3947,-6.07625 -0.2906,-1.49317 -0.3851,-3.02565 -0.2076,-3.40548 0.6705,-1.43033 0.3695,-10.39243 -0.3681,-10.9527 -0.4231,-0.32148 -0.6041,-1.65656 -0.4017,-2.9666 0.2007,-1.31004 0.1211,-3.37068 -0.1799,-4.57918 -0.301,-1.20853 -0.5058,-3.96803 -0.457,-6.13232 0.048,-2.16423 -0.1211,-4.37373 -0.3792,-4.91001 -0.256,-0.53625 -0.4345,-1.88388 -0.393,-2.99473 0.042,-1.11088 -0.059,-2.18139 -0.2214,-2.37894 -0.5539,-0.67216 -9.7419,5.56869 -15.1127,10.26512 -3.9994,3.49703 -5.6573,5.63274 -6.5565,8.44675 -2.0993,6.56902 -7.211,18.63065 -8.4921,20.03831 -0.9981,1.09669 -4.3305,21.32962 -3.6493,22.15655 0.2871,0.34898 0.3954,1.45825 0.2387,2.46538 -0.1557,1.00709 0.2872,2.40265 0.9815,3.1012 0.6951,0.69859 2.2769,4.07388 3.5151,7.50069 5.5379,15.32735 11.3588,25.20253 18.921,32.09976 4.1282,3.76527 8.8458,7.39565 9.8169,7.55447 0.4176,0.0699 0.8477,-2.05004 0.9553,-4.70753 z m 66.9912,9.31073 c 0.4269,0.15807 1.2783,-0.42134 1.8921,-1.28785 0.6134,-0.86648 2.3152,-2.0306 3.7821,-2.58692 3.5486,-1.34599 10.4552,-7.20559 13.0496,-11.07173 1.148,-1.71039 2.9006,-4.10451 3.8946,-5.32019 3.056,-3.73688 6.6641,-19.82977 7.1443,-31.86611 0.6895,-17.28071 0.6674,-21.19235 -0.1315,-23.38686 -0.2906,-0.79308 -0.9915,-2.83243 -1.5614,-4.53195 -1.7973,-5.36359 -4.9304,-11.88244 -6.2928,-13.09297 -0.7217,-0.64152 -1.2496,-1.57199 -1.1732,-2.06771 0.076,-0.49573 -0.7535,-2.07489 -1.8443,-3.50924 -1.0909,-1.43437 -2.1963,-3.03102 -2.4568,-3.54808 -0.8248,-1.63794 -4.6238,-4.22066 -8.3364,-5.66768 -1.9735,-0.76908 -4.042,-1.94749 -4.5969,-2.61873 -0.5546,-0.67127 -2.2198,-1.78951 -3.7005,-2.48506 l -2.6917,-1.26459 0.3951,3.13722 c 0.218,1.72547 0.4335,5.15763 0.4809,7.62701 0.049,2.46942 0.4214,4.98841 0.8314,5.59775 0.41,0.60938 0.8189,3.58817 0.9085,6.61955 0.09,3.0314 0.3356,6.8641 0.5435,8.51717 0.4128,3.25712 0.4674,13.98231 0.1038,20.70887 -0.1245,2.30693 -0.4338,8.15884 -0.6881,13.00423 -0.7556,14.38762 -1.543,28.60115 -1.8818,33.96809 -0.1764,2.76506 -0.2698,7.31411 -0.2145,10.10899 0.055,2.79494 0.055,5.45558 0,5.91258 -0.059,0.45684 0.3149,0.37768 0.8311,-0.1764 0.5158,-0.55392 1.2873,-0.87771 1.7146,-0.71955 z"
       id="path2537-4" /></g></svg>
