<?xml version="1.0" encoding="UTF-8" standalone="no"?>
<!-- Created with Inkscape (http://www.inkscape.org/) -->

<svg
   width="147.98502mm"
   height="154.44926mm"
   viewBox="0 0 147.98502 154.44926"
   version="1.1"
   id="svg5"
   xml:space="preserve"
   xmlns="http://www.w3.org/2000/svg"
   xmlns:svg="http://www.w3.org/2000/svg"><defs
     id="defs2" /><g
     id="layer2"
     transform="translate(2373.7466,597.81468)"><g
       id="g230"
       transform="translate(-394.66938,317.5)"
       style="fill:#ffffff;fill-opacity:1"><path
         style="fill:#ffffff;fill-opacity:1;stroke:none;stroke-width:22.4367;stroke-dasharray:none;stroke-opacity:1"
         id="path115"
         d="m -1910.1537,-911.2044 c -0.08,0.41735 -0.1394,0.83925 -0.1875,1.26309 -0.1272,0.83812 -0.2131,1.68082 -0.2891,2.52489 -0.097,1.18126 -0.1448,2.36599 -0.1846,3.55034 -0.061,1.35374 -0.088,2.70875 -0.1233,4.06334 -0.034,1.53456 -0.038,3.06946 -0.028,4.60428 0.014,1.61078 0.044,3.22135 0.066,4.83206 0.015,1.70206 0.051,3.40376 0.091,5.1054 0.02,1.80199 0.071,3.60346 0.081,5.40557 0.022,2.01221 0.043,4.02441 0.085,6.03631 0.057,2.10478 0.1028,4.20976 0.1475,6.31481 0.027,2.30182 0.03,4.60356 0.077,6.90512 0.049,2.44057 0.106,4.88095 0.1446,7.32173 0.034,2.55688 0.046,5.11395 0.058,7.67102 3e-4,2.63268 0.018,5.26523 0.041,7.89778 0.014,2.57651 0.021,5.15308 0.04,7.72959 0.027,2.47423 0.038,4.94861 0.046,7.42297 0.018,2.44813 0,4.89624 0,7.34435 0.014,2.46182 -0.01,4.92353 -0.021,7.38529 -0.015,2.38591 0.019,4.77168 0.017,7.15756 0,2.18832 -0.01,4.37663 -0.018,6.56495 -0.015,2.06528 -0.02,4.1306 -0.033,6.19588 0,1.93106 0.01,3.86218 0.028,5.79313 0.023,1.76956 0.024,3.53936 0.049,5.30887 0.031,1.61538 0.07,3.23061 0.099,4.84603 0.02,0.9861 0.042,1.97215 0.064,2.9582 0.039,4.07754 11.5722,3.96666 11.533,-0.11089 v 0 c 0,-0.98806 0.01,-1.97612 0.01,-2.96418 0,-1.59674 -3e-4,-3.19347 0.01,-4.7902 0.01,-1.74636 0.021,-3.49264 0.041,-5.23891 0.022,-1.89283 0.038,-3.78571 0.088,-5.67812 0.03,-2.05925 0.07,-4.11832 0.1041,-6.17752 0.044,-2.19964 0.087,-4.39933 0.1364,-6.59889 0.041,-2.4008 0.087,-4.80158 0.1014,-7.20275 0.011,-2.48896 0.018,-4.97798 0.012,-7.46697 -0.01,-2.44948 -0.028,-4.89892 -0.02,-7.34848 0,-2.47563 0,-4.95128 0.017,-7.42688 0.01,-2.57879 0,-5.15752 0,-7.73631 0.01,-2.66589 0.016,-5.33191 -0.024,-7.99764 -0.044,-2.60123 -0.083,-5.20272 -0.1624,-7.80315 -0.068,-2.45388 -0.1252,-4.90804 -0.2016,-7.36168 -0.069,-2.30566 -0.1611,-4.61042 -0.2504,-6.91534 -0.066,-2.0924 -0.1451,-4.18444 -0.183,-6.27764 -0.052,-2.02242 -0.1305,-4.04397 -0.2213,-6.06504 -0.085,-1.80224 -0.1048,-3.60685 -0.1849,-5.40938 -0.049,-1.6837 -0.096,-3.36743 -0.1433,-5.05119 -0.048,-1.57186 -0.1011,-3.14367 -0.1281,-4.71606 -0.026,-1.45114 -0.045,-2.90232 -0.067,-4.35351 -0.01,-1.2796 -0.017,-2.55945 0,-3.83902 0.029,-1.13724 0.052,-2.27492 0.047,-3.41257 -0.01,-0.77822 -0.011,-1.55739 -0.049,-2.33469 0,-0.3565 -0.012,-0.71416 -0.02,-1.06984 0.3026,-3.78182 -10.394,-4.63754 -10.6966,-0.85571 z" /><path
         style="fill:#ffffff;fill-opacity:1;stroke:none;stroke-width:22.4367;stroke-dasharray:none;stroke-opacity:1"
         id="path116"
         d="m -1925.6463,-763.47396 c 0.4119,0.0564 0.8163,0.14039 1.23,0.19198 0.6011,0.0548 1.2025,0.10729 1.8047,0.15002 0.7415,0.0349 1.4786,0.12367 2.2168,0.19773 0.8712,0.0724 1.7416,0.15158 2.612,0.23312 0.9861,0.0946 1.9724,0.18375 2.9571,0.2926 1.1226,0.11002 2.2459,0.21379 3.369,0.3198 1.1829,0.12079 2.368,0.21818 3.5514,0.33383 1.2439,0.11213 2.4869,0.23479 3.7307,0.34949 1.2756,0.11644 2.5528,0.21457 3.8306,0.30469 1.2408,0.0896 2.4827,0.16338 3.726,0.20802 1.0342,0.0246 2.0688,0.0323 3.1033,0.0241 0.7282,-0.008 1.4562,-0.0214 2.1843,-0.0357 0.4765,-0.006 0.9527,-0.0236 1.429,-0.0382 0.2251,-0.007 0.1153,-0.003 0.3295,-0.0103 3.8171,0.12317 4.1655,-10.67339 0.3483,-10.79656 v 0 c -0.2379,-0.0214 -0.1166,-0.0106 -0.3641,-0.032 -0.4982,-0.042 -0.9965,-0.0839 -1.4958,-0.1125 -0.7158,-0.0457 -1.4317,-0.0883 -2.1477,-0.13139 -0.9504,-0.06 -1.8999,-0.13478 -2.8504,-0.19513 -1.1271,-0.069 -2.254,-0.14179 -3.3786,-0.24479 -1.2321,-0.10504 -2.4643,-0.20857 -3.6961,-0.31645 -1.2452,-0.10802 -2.4909,-0.21071 -3.7363,-0.31657 -1.2017,-0.0979 -2.4027,-0.20172 -3.6041,-0.30247 -1.1218,-0.0842 -2.243,-0.17463 -3.3653,-0.25061 -1.0079,-0.0632 -2.0144,-0.13825 -3.0204,-0.22752 -0.952,-0.0638 -1.9034,-0.13623 -2.8566,-0.18174 -0.7211,-0.013 -1.4431,-0.003 -2.1624,-0.0621 -0.6164,-0.0361 -1.2334,-0.0622 -1.851,-0.0608 -0.3077,0.007 -0.6177,0.0235 -0.9239,0.0402 -3.7722,-0.34293 -4.7421,10.32632 -0.97,10.66924 z" /><path
         style="fill:#ffffff;fill-opacity:1;stroke:none;stroke-width:22.4367;stroke-dasharray:none;stroke-opacity:1"
         id="path117"
         d="m -1923.3494,-904.32407 c 0.766,0.21021 1.5654,0.21553 2.3535,0.2337 1.0056,-0.009 2.0043,0.11102 3.0054,0.18164 1.2253,0.0735 2.447,0.19317 3.6718,0.2739 1.3033,0.0774 2.6058,0.16676 3.9093,0.24116 1.2782,0.0686 2.5571,0.12841 3.8364,0.1737 1.2507,0.0422 2.501,0.0775 3.7524,0.0744 1.1761,0 2.351,-0.0558 3.5258,-0.10427 1.0631,-0.0477 2.126,-0.10361 3.1884,-0.16526 0.8482,-0.064 1.6941,-0.15433 2.5413,-0.22981 0.6148,-0.0473 1.2273,-0.11502 1.8382,-0.19873 0.2127,-0.0311 0.4256,-0.0619 0.6379,-0.0959 0.023,-0.004 0.3537,-0.0588 0.3757,-0.0658 0.022,-0.007 -0.047,-0.003 -0.071,-0.003 -0.1702,-0.0936 -0.388,-0.0185 -0.5817,-0.0325 3.7539,0.30099 4.6052,-10.31672 0.8513,-10.61771 v 0 c -0.3685,-0.0275 -0.7365,-0.0326 -1.1059,-0.0269 -0.2678,0.0119 -0.5325,-0.0101 -0.8016,-0.0185 -0.5655,-0.0161 -1.131,-0.0196 -1.6967,-0.008 -0.8804,0.0116 -1.7609,0.0306 -2.6405,0.0714 -0.9618,0.0561 -1.924,0.10182 -2.8875,0.11248 -1.0368,0.0217 -2.0737,0.0399 -3.1108,0.0351 -1.1096,-0.0161 -2.219,-0.038 -3.327,-0.10231 -1.2237,-0.0633 -2.4462,-0.14603 -3.6696,-0.2149 -1.2641,-0.0729 -2.5288,-0.13896 -3.7912,-0.23852 -1.2935,-0.09 -2.5885,-0.15123 -3.8832,-0.22053 -1.1298,-0.0337 -2.2606,-0.0109 -3.3907,-0.0405 -0.8464,-0.007 -1.7069,-0.036 -2.53,0.19638 -3.8145,0 -3.8145,10.78912 0,10.78912 z" /><path
         style="fill:#ffffff;fill-opacity:1;stroke:none;stroke-width:22.4367;stroke-dasharray:none;stroke-opacity:1"
         id="path118"
         d="m -1936.7196,-911.23906 c -0.2189,0.0974 -0.4144,0.23801 -0.6272,0.34776 -0.3291,0.19326 -0.6737,0.35624 -1.0038,0.54843 -0.4197,0.24728 -0.851,0.47419 -1.2807,0.70332 -0.6766,0.34753 -1.3418,0.71472 -1.9978,1.09955 -0.736,0.42236 -1.4511,0.8795 -2.1689,1.33168 -0.8116,0.50673 -1.6239,1.01216 -2.4236,1.53746 -0.9824,0.6445 -1.9391,1.32768 -2.874,2.0392 -1.0152,0.76137 -1.9922,1.57096 -2.956,2.3958 -0.9935,0.85027 -1.9659,1.72548 -2.9219,2.61753 -1.0225,0.98202 -2.0247,1.98548 -2.9964,3.0177 -1.0101,1.07106 -1.9773,2.18178 -2.9209,3.31155 -1.0158,1.21134 -1.9575,2.47986 -2.887,3.75754 -0.9395,1.34165 -1.8043,2.73293 -2.6547,4.13197 -0.8915,1.45621 -1.6855,2.96582 -2.4478,4.49244 -0.7793,1.53746 -1.4841,3.11092 -2.1527,4.69916 -0.6589,1.58366 -1.2558,3.19121 -1.8352,4.80523 -0.5763,1.59797 -1.0956,3.21572 -1.5837,4.84261 -0.4912,1.61788 -0.9413,3.24763 -1.3633,4.88482 -0.429,1.65372 -0.8069,3.31975 -1.1608,4.99097 -0.3492,1.68169 -0.6604,3.37113 -0.952,5.0637 -0.2994,1.70672 -0.5304,3.42373 -0.7363,5.14387 -0.2515,1.90328 -0.3685,3.8164 -0.4128,5.73444 0,1.97612 0.1329,3.94814 0.3,5.91598 0.1828,2.05722 0.5474,4.09057 0.9485,6.11444 0.4291,2.06486 0.9657,4.10562 1.5671,6.12643 0.6338,2.16572 1.4711,4.26289 2.3296,6.34712 0.8461,2.1115 1.8308,4.1611 2.8739,6.18106 0.9907,1.919 2.0689,3.79018 3.1706,5.64698 1.0878,1.82962 2.27,3.59986 3.4793,5.35072 1.1362,1.63115 2.3019,3.24146 3.4825,4.84076 1.1696,1.60033 2.3872,3.1646 3.6373,4.7026 1.2438,1.53596 2.5657,3.00434 3.906,4.45587 1.2309,1.31623 2.5026,2.59326 3.7814,3.86271 1.1707,1.14183 2.3766,2.24689 3.5961,3.3361 1.0815,0.96547 2.1871,1.90323 3.3,2.8321 0.5183,0.42987 1.0418,0.85342 1.5657,1.27641 3.1082,2.57352 10.3873,-6.21766 7.2791,-8.79121 v 0 c -0.4644,-0.39518 -0.9274,-0.79198 -1.3907,-1.18853 -0.9998,-0.88054 -1.9942,-1.76694 -2.9749,-2.66888 -1.0567,-0.98547 -2.0905,-1.9953 -3.1033,-3.0258 -1.1398,-1.16237 -2.2425,-2.36032 -3.3393,-3.56312 -1.1629,-1.29839 -2.3172,-2.60562 -3.4163,-3.95875 -1.1194,-1.39591 -2.2503,-2.78381 -3.289,-4.24193 -1.1008,-1.52733 -2.1667,-3.07914 -3.2417,-4.62465 -1.0515,-1.52588 -2.0945,-3.05843 -3.0315,-4.65852 -0.9684,-1.6392 -1.8914,-3.30475 -2.7441,-5.00745 -0.8683,-1.73824 -1.7369,-3.47943 -2.4763,-5.27738 -0.7135,-1.76213 -1.3984,-3.53542 -2.0368,-5.32625 -0.5269,-1.6388 -0.9914,-3.2943 -1.3398,-4.9815 -0.3359,-1.60358 -0.6287,-3.21709 -0.8155,-4.84563 -0.1625,-1.58131 -0.2456,-3.16822 -0.2608,-4.758 -0.027,-1.45912 0.025,-2.92161 0.2181,-4.36954 0.2004,-1.5494 0.4353,-3.09359 0.6884,-4.63526 0.255,-1.54258 0.5258,-3.08232 0.8466,-4.61283 0.3102,-1.49061 0.6313,-2.97952 1.0174,-4.45264 0.387,-1.46902 0.7787,-2.93728 1.2177,-4.39177 0.4656,-1.46754 0.9348,-2.93375 1.4483,-4.38544 0.4911,-1.41248 1.0089,-2.81527 1.5906,-4.19333 0.5598,-1.34599 1.1423,-2.68277 1.7953,-3.98672 0.6292,-1.24772 1.2487,-2.50264 1.9725,-3.69919 0.7175,-1.18917 1.4628,-2.36167 2.2296,-3.51972 0.6976,-1.05905 1.4688,-2.06598 2.2641,-3.05345 0.7817,-0.95946 1.5861,-1.90058 2.4398,-2.7971 0.8158,-0.88019 1.6415,-1.75133 2.4981,-2.5922 0.805,-0.79066 1.6324,-1.55684 2.4918,-2.28849 0.7848,-0.69162 1.5749,-1.3784 2.4091,-2.01036 0.7597,-0.59203 1.5192,-1.18456 2.3064,-1.74008 0.6859,-0.49056 1.3683,-0.98703 2.081,-1.43862 0.6445,-0.41902 1.3018,-0.8174 1.9508,-1.22931 0.5471,-0.34856 1.0928,-0.69918 1.6482,-1.03436 0.5032,-0.3021 1.0029,-0.60989 1.502,-0.91858 0.3684,-0.23789 0.7304,-0.48353 1.0928,-0.72996 0.2417,-0.15981 0.4714,-0.33414 0.7059,-0.50406 3.1768,-2.0556 -2.6372,-11.04101 -5.8141,-8.9854 z" /><path
         style="fill:#ffffff;fill-opacity:1;stroke:none;stroke-width:22.4367;stroke-dasharray:none;stroke-opacity:1"
         id="path119"
         d="m -1929.2387,-774.8893 c 0.1612,-0.60007 0.2469,-1.2119 0.3176,-1.82946 0.1423,-1.06013 0.2492,-2.12431 0.3606,-3.18812 0.1184,-1.32586 0.2629,-2.64896 0.3705,-3.97574 0.1097,-1.48487 0.2566,-2.96653 0.3887,-4.4496 0.1416,-1.7236 0.2884,-3.44676 0.4249,-5.17073 0.1429,-1.90971 0.2524,-3.82169 0.3715,-5.73302 0.1231,-1.97321 0.2316,-3.94734 0.3436,-5.92121 0.1218,-2.02833 0.2235,-4.05773 0.3361,-6.08656 0.1018,-2.09973 0.1943,-4.19994 0.2808,-6.30036 0.09,-2.16765 0.1667,-4.33575 0.2342,-6.50423 0.065,-2.24988 0.1274,-4.49987 0.1999,-6.74957 0.064,-2.4375 0.043,-4.87622 0.028,-7.31422 10e-5,-2.45962 -0.042,-4.91884 -0.087,-7.37796 -0.045,-2.41205 -0.1194,-4.82349 -0.1593,-7.23561 -0.061,-2.43367 -0.154,-4.86662 -0.258,-7.29883 -0.1184,-2.41935 -0.2338,-4.83878 -0.3954,-7.25566 -0.1498,-2.35593 -0.3346,-4.70946 -0.5118,-7.06343 -0.1873,-2.27031 -0.3692,-4.54101 -0.5495,-6.81188 -0.174,-2.13506 -0.3617,-4.26895 -0.5469,-6.40305 -0.1523,-1.96051 -0.319,-3.91996 -0.4611,-5.88121 -0.1402,-1.85539 -0.3071,-3.70872 -0.4712,-5.56212 -0.1527,-1.7248 -0.3025,-3.4498 -0.4588,-5.17427 -0.1,-1.06868 -0.2019,-2.13712 -0.3027,-3.20572 -0.3327,-4.09538 -11.9161,-3.15452 -11.5835,0.94086 v 0 c 0.074,1.08336 0.1483,2.16672 0.2304,3.2495 0.1341,1.71133 0.2718,3.42233 0.3946,5.13451 0.1318,1.82226 0.2463,3.64572 0.3711,5.46846 0.1408,1.96773 0.2398,3.93816 0.373,5.90642 0.1303,2.15197 0.2654,4.30366 0.426,6.45364 0.1689,2.26163 0.3274,4.52403 0.4999,6.78543 0.1699,2.30081 0.3363,4.60208 0.467,6.90551 0.1294,2.33323 0.2846,4.66514 0.3626,7.00099 0.089,2.38119 0.1786,4.76234 0.2544,7.14401 0.091,2.35442 0.1001,4.71088 0.136,7.06662 0.021,2.43462 0.054,4.86902 0.088,7.30346 0.021,2.35622 0.048,4.71238 0.046,7.06874 0.017,2.18231 -0.03,4.36364 -0.1045,6.54468 -0.062,2.13891 -0.1204,4.27797 -0.1907,6.41662 -0.07,2.06393 -0.1424,4.12774 -0.2341,6.19083 -0.075,1.98913 -0.1756,3.97724 -0.2848,5.96481 -0.1143,1.97896 -0.231,3.95785 -0.3226,5.93802 -0.094,1.88227 -0.1797,3.76489 -0.2826,5.64671 -0.081,1.68519 -0.1461,3.37127 -0.2587,5.05484 -0.089,1.48299 -0.1565,2.96699 -0.2604,4.44894 -0.09,1.29297 -0.1444,2.58781 -0.2424,3.88028 -0.073,1.13276 -0.1497,2.26531 -0.1777,3.40034 -0.016,0.73086 -0.047,1.4737 0.097,2.19472 -0.1356,3.79759 10.6056,4.18121 10.7412,0.38362 z" /><path
         style="fill:#ffffff;fill-opacity:1;stroke:none;stroke-width:22.4367;stroke-dasharray:none;stroke-opacity:1"
         id="path120"
         d="m -1885.8868,-904.36321 c -0.01,0.3836 -0.022,0.76764 -0.043,1.15123 -0.045,0.66805 -0.043,1.3371 -0.042,2.00618 0.017,0.93747 0.062,1.87418 0.1037,2.81077 0.043,1.1488 0.081,2.2977 0.1452,3.44551 0.075,1.39362 0.1294,2.78805 0.2089,4.18145 0.097,1.56671 0.1851,3.13375 0.2624,4.70152 0.089,1.7172 0.1482,3.43574 0.2034,5.15432 0.049,1.91696 0.1277,3.83363 0.1385,5.75127 0.036,2.07418 0.075,4.14806 0.075,6.22258 0,2.16424 -0.014,4.32848 -0.03,6.49266 -0.028,2.2274 -0.1298,4.45365 -0.2321,6.6788 -0.1154,2.3762 -0.252,4.75133 -0.3678,7.12753 -0.1104,2.37569 -0.2335,4.75067 -0.3575,7.12568 -0.1315,2.36916 -0.2562,4.73855 -0.366,7.1088 -0.1668,2.39913 -0.2751,4.80137 -0.3784,7.20383 -0.1002,2.38451 -0.221,4.76803 -0.3214,7.15251 -0.094,2.37884 -0.1715,4.75819 -0.2412,7.13785 -0.052,2.32484 -0.1434,4.64844 -0.2226,6.97246 -0.067,2.3055 -0.1372,4.611 -0.1924,6.91684 -0.065,2.25158 -0.078,4.50414 -0.089,6.75648 -0.01,2.14511 0.062,4.28911 0.133,6.43271 0.071,1.94718 0.2054,3.89112 0.3553,5.83359 0.1441,1.77538 0.3257,3.5478 0.5541,5.31429 0.4568,4.09527 12.04,2.80323 11.5832,-1.29204 v 0 c -0.1478,-1.59277 -0.3292,-3.18336 -0.4056,-4.78182 -0.092,-1.79268 -0.1598,-3.58603 -0.1845,-5.38112 -0.036,-2.01904 -0.034,-4.03836 -0.017,-6.05764 0.015,-2.15169 0.051,-4.3032 0.141,-6.45324 0.087,-2.30139 0.1658,-4.60308 0.251,-6.90454 0.068,-2.31502 0.101,-4.63108 0.2121,-6.94473 0.091,-2.3536 0.1798,-4.7073 0.2748,-7.06077 0.09,-2.3494 0.1706,-4.69924 0.3036,-7.04673 0.1315,-2.39072 0.266,-4.78123 0.358,-7.17389 0.1343,-2.36532 0.2686,-4.73069 0.3812,-7.09715 0.1248,-2.37191 0.2507,-4.74377 0.3841,-7.1152 0.1404,-2.43801 0.2668,-4.87699 0.3408,-7.31803 0.069,-2.33725 0.1285,-4.67448 0.1366,-7.01289 0.028,-2.23428 0.036,-4.46889 0,-6.70317 -0.031,-2.15842 -0.069,-4.31691 -0.1495,-6.47414 -0.098,-1.979 -0.1729,-3.95922 -0.2915,-5.93725 -0.101,-1.77551 -0.21,-3.55055 -0.3282,-5.325 -0.1129,-1.61282 -0.2306,-3.22541 -0.3699,-4.83616 -0.1218,-1.38756 -0.2585,-2.77353 -0.3835,-4.16081 -0.1,-1.12917 -0.1997,-2.2583 -0.3072,-3.38675 -0.082,-0.88178 -0.1459,-1.76509 -0.2201,-2.64753 -0.066,-0.60677 -0.1421,-1.21213 -0.1906,-1.82075 -0.028,-0.26102 -0.085,-0.72017 -0.1119,-0.74751 0,-3.78542 -10.7068,-3.78542 -10.7068,0 z" /><path
         style="fill:#ffffff;fill-opacity:1;stroke:none;stroke-width:22.4367;stroke-dasharray:none;stroke-opacity:1"
         id="path121"
         d="m -1876.9437,-767.11081 c 0.3703,-0.14632 0.7413,-0.28962 1.1159,-0.425 0.5316,-0.22556 1.06,-0.45736 1.5987,-0.66556 0.7281,-0.26326 1.4318,-0.58783 2.1552,-0.86358 1.1806,-0.37526 2.3159,-0.87963 3.4459,-1.38385 1.374,-0.61494 2.7227,-1.28397 4.0475,-1.99818 1.4848,-0.80198 2.9059,-1.71366 4.2908,-2.676 1.4435,-1.00801 2.7959,-2.13577 4.1311,-3.28089 1.3678,-1.16668 2.6459,-2.43115 3.8978,-3.71969 1.2673,-1.28945 2.4598,-2.64674 3.6196,-4.03268 1.1961,-1.43115 2.3332,-2.90877 3.4171,-4.42624 1.1306,-1.59472 2.1449,-3.26734 3.1234,-4.95837 1.0318,-1.78234 1.9101,-3.64585 2.7682,-5.51601 0.8733,-1.93238 1.6769,-3.89461 2.4174,-5.88139 0.7756,-2.09495 1.408,-4.23897 2.0212,-6.38588 0.5963,-2.08396 1.1122,-4.18912 1.6323,-6.29296 0.5279,-2.2366 0.938,-4.49971 1.2785,-6.77182 0.3276,-2.28767 0.534,-4.59031 0.7016,-6.89449 0.1644,-2.30618 0.1991,-4.61885 0.1872,-6.93002 0,-2.34206 -0.1548,-4.68018 -0.3388,-7.01389 -0.1727,-2.35458 -0.4795,-4.69498 -0.811,-7.03141 -0.3188,-2.25996 -0.741,-4.50326 -1.1734,-6.74364 -0.416,-2.19991 -0.9384,-4.377 -1.4828,-6.54796 -0.5606,-2.15234 -1.2186,-4.27747 -1.945,-6.37911 -0.6996,-2.00221 -1.5554,-3.94332 -2.452,-5.86356 -0.8217,-1.78218 -1.7363,-3.51825 -2.7352,-5.2069 -1.0465,-1.77083 -2.3494,-3.36502 -3.6898,-4.91765 -1.2637,-1.51249 -2.7142,-2.8431 -4.1959,-4.13567 -1.3973,-1.21166 -2.8962,-2.29712 -4.4096,-3.35725 -1.3677,-0.95475 -2.7748,-1.85086 -4.1817,-2.74624 -1.4789,-0.93496 -3.0643,-1.68098 -4.6395,-2.43565 -1.0958,-0.52856 -2.1769,-1.08638 -3.2495,-1.66031 -0.7871,-0.42873 -1.5752,-0.85582 -2.3551,-1.29757 -0.5324,-0.31041 -1.0683,-0.61463 -1.6005,-0.92541 -0.2189,-0.1016 -0.4165,-0.27162 -0.64,-0.35904 -0.2006,-0.13927 -0.2813,-0.18925 -0.4895,-0.35883 -0.6343,-0.50731 -1.3348,-0.91773 -2.1132,-1.16916 -0.3173,-0.1025 -0.6502,-0.14857 -0.9752,-0.22284 -0.5111,-0.0509 -0.4024,-0.0455 -0.787,-0.0704 -0.2226,-0.0143 -0.3257,-0.0135 -0.2645,-0.0198 0.1021,-0.0106 0.2051,-0.009 0.3076,-0.0138 0.278,0.0312 -0.3566,-0.093 -0.3644,-0.0946 -0.4134,-0.087 -0.8298,-0.15822 -1.247,-0.2245 -0.1709,-0.0368 -0.344,-0.0618 -0.5151,-0.097 -3.763,-0.71421 -5.7832,9.92908 -2.0202,10.64332 v 0 c 0.319,0.0594 0.6389,0.11171 0.9601,0.15745 0.2532,0.0325 0.5063,0.0668 0.7577,0.11102 0.4597,0.0825 0.9188,0.16899 1.3852,0.20553 0.5297,0.0333 1.4634,0.0471 0.3454,-0.0581 -0.8694,-0.20587 -1.7527,-0.46442 -2.4593,-1.01637 0.2257,0.22389 0.4701,0.45387 0.7195,0.66461 0.4552,0.37856 0.9283,0.73268 1.4104,1.07616 0.5577,0.40788 1.1183,0.81211 1.6893,1.2011 0.8493,0.57616 1.6968,1.1551 2.5729,1.69027 1.1804,0.72845 2.3726,1.43753 3.5834,2.11447 1.2925,0.7212 2.6039,1.40671 3.9396,2.04483 1.2005,0.69101 2.3145,1.51868 3.4428,2.31987 1.1777,0.86836 2.3546,1.73985 3.4816,2.67382 1.0367,0.9202 2.0963,1.83336 2.9806,2.90524 0.8774,1.066 1.7699,2.12785 2.5203,3.28908 0.7734,1.33917 1.469,2.71981 2.0699,4.1456 0.6984,1.61256 1.3936,3.22871 1.9501,4.89709 0.6137,1.78155 1.1444,3.58984 1.6,5.41841 0.494,1.94722 0.9402,3.90604 1.3075,5.8815 0.3899,2.0457 0.7428,4.09882 1.0263,6.16222 0.2909,2.08429 0.5516,4.17325 0.7506,6.26846 0.1517,2.05489 0.2708,4.11266 0.3346,6.17225 0.015,2.00226 -0.037,4.00423 -0.1712,6.00239 -0.139,2.00901 -0.316,4.01521 -0.5994,6.00977 -0.274,1.93228 -0.5962,3.85636 -1.0355,5.75908 -0.4305,1.92384 -0.943,3.82842 -1.488,5.72284 -0.5537,1.89444 -1.1334,3.78081 -1.7485,5.65628 -0.5933,1.70905 -1.2229,3.40318 -1.9916,5.04312 -0.6903,1.54821 -1.3915,3.09401 -2.1989,4.58555 -0.7657,1.37615 -1.5855,2.72261 -2.484,4.01672 -0.88,1.26904 -1.8022,2.50708 -2.8029,3.68445 -0.9837,1.1779 -1.9791,2.34664 -3.0539,3.4435 -0.9899,1.04032 -1.9971,2.06439 -3.0828,3.00617 -1.0368,0.89993 -2.0923,1.77999 -3.1939,2.5999 -1.0432,0.74163 -2.1057,1.45727 -3.2208,2.08767 -1.0389,0.59796 -2.0951,1.16493 -3.1878,1.65965 -1.0743,0.49655 -2.1592,0.9743 -3.2019,1.53517 -0.7931,0.38997 -1.6048,0.74163 -2.386,1.15588 -0.4499,0.24757 -0.8962,0.50142 -1.3575,0.72748 -0.2464,0.127 -0.6764,0.33975 -0.7051,0.40658 -3.509,1.43547 0.5512,11.3602 4.0601,9.92473 z" /></g></g></svg>
