<?xml version="1.0" encoding="UTF-8" standalone="no"?>
<!-- Created with Inkscape (http://www.inkscape.org/) -->

<svg
   width="154.20557mm"
   height="154.70563mm"
   viewBox="0 0 154.20557 154.70563"
   version="1.1"
   id="svg5"
   inkscape:version="1.1 (c68e22c387, 2021-05-23)"
   sodipodi:docname="InkscapeProject.svg"
   xml:space="preserve"
   xmlns:inkscape="http://www.inkscape.org/namespaces/inkscape"
   xmlns:sodipodi="http://sodipodi.sourceforge.net/DTD/sodipodi-0.dtd"
   xmlns="http://www.w3.org/2000/svg"
   xmlns:svg="http://www.w3.org/2000/svg"><sodipodi:namedview
     id="namedview7"
     pagecolor="#ffffff"
     bordercolor="#666666"
     borderopacity="1.0"
     inkscape:pageshadow="2"
     inkscape:pageopacity="0.0"
     inkscape:pagecheckerboard="0"
     inkscape:document-units="mm"
     showgrid="false"
     inkscape:zoom="0.34698725"
     inkscape:cx="474.08082"
     inkscape:cy="-1468.3537"
     inkscape:window-width="2560"
     inkscape:window-height="1417"
     inkscape:window-x="-8"
     inkscape:window-y="-8"
     inkscape:window-maximized="1"
     inkscape:current-layer="layer1"
     inkscape:snap-bbox="true"
     inkscape:bbox-paths="true"
     inkscape:bbox-nodes="true"
     inkscape:snap-bbox-edge-midpoints="true"
     inkscape:snap-bbox-midpoints="false"
     inkscape:object-paths="true"
     inkscape:snap-intersection-paths="true"
     inkscape:snap-smooth-nodes="true"
     inkscape:snap-midpoints="true"
     inkscape:snap-object-midpoints="false"
     inkscape:snap-center="false"
     inkscape:snap-text-baseline="false"
     inkscape:showpageshadow="2"
     inkscape:deskcolor="#d1d1d1" /><defs
     id="defs2" /><g
     inkscape:label="Layer 1"
     inkscape:groupmode="layer"
     id="layer1"
     transform="translate(2740.3643,364.73589)"><rect
       style="fill:none;stroke:#ff0000;stroke-width:0.500062;stroke-linejoin:round"
       id="rect3169"
       width="154.20555"
       height="154.20555"
       x="-2740.1143"
       y="-364.48584" /><path
       style="fill:#000000;stroke-width:0.766541"
       d="m -2657.9931,-210.14733 c -1.503,-0.11946 -3.2598,-0.42715 -3.904,-0.68387 -0.6443,-0.25655 -1.4511,-0.40767 -1.7934,-0.33548 -0.5731,0.12088 -14.4048,-2.10815 -22.2305,-3.58254 -3.5735,-0.67326 -10.4188,-4.42205 -17.3589,-9.50623 -2.362,-1.73035 -5.6997,-3.83642 -7.4176,-4.68016 -4.241,-2.08301 -13.4023,-10.79809 -17.4609,-16.61025 -4.1894,-5.99915 -6.3525,-9.69916 -6.3587,-10.87639 0,-0.50479 -0.4814,-1.79798 -1.0636,-2.87381 -1.9613,-3.62228 -5.1125,-22.02349 -4.7557,-27.76921 0.089,-1.44863 0.7118,-5.00438 1.382,-7.90163 0.6699,-2.89728 1.4475,-8.4583 1.7282,-12.35786 0.5002,-6.95791 2.8218,-14.15491 4.9805,-15.44076 0.4834,-0.288 1.6092,-1.90287 2.5014,-3.58857 0.8924,-1.68572 2.2927,-3.75846 3.1122,-4.60607 0.8192,-0.84763 1.4897,-1.77483 1.4897,-2.06047 0,-0.28565 1.0541,-0.94017 2.3423,-1.45449 1.2884,-0.51432 2.3425,-1.23269 2.3425,-1.59635 0,-0.3637 0.5439,-0.66126 1.2088,-0.66126 0.6649,0 3.7393,-2.4073 6.832,-5.34958 5.9459,-5.6565 10.6895,-9.13873 13.6783,-10.04083 0.9945,-0.30024 3.5289,-2.01853 5.6316,-3.81845 2.5816,-2.20974 5.2907,-3.68365 8.3421,-4.53837 2.4854,-0.69616 6.5523,-1.94879 9.0377,-2.78354 3.6573,-1.22828 6.4124,-1.50844 14.445,-1.46882 5.4592,0.0256 10.8783,0.39813 12.0419,0.82485 2.5125,0.9212 5.3016,3.4545 5.3016,4.8153 0,0.98706 -8.4236,6.68571 -11.804,7.9855 -1.0229,0.39336 -3.9858,2.51851 -6.5839,4.72257 -4.3443,3.68544 -9.7103,7.93302 -11.2224,8.88337 -0.3426,0.21559 -1.2489,1.57699 -2.0138,3.02561 -1.4744,2.79244 -4.3948,6.67002 -11.2159,14.89174 -2.3045,2.77776 -5.0408,6.74371 -6.0801,8.8132 -1.0394,2.06947 -2.5539,4.7786 -3.3657,6.02031 -1.0914,1.66976 -1.4906,3.73701 -1.5328,7.93925 -0.035,3.47239 -0.4365,6.04779 -1.0329,6.62323 -1.2955,1.24965 -1.305,13.04458 0,14.54636 0.5185,0.60241 1.3492,2.93471 1.8453,5.18291 0.4964,2.2482 1.2043,4.27414 1.5735,4.50208 0.3689,0.22782 0.7936,1.49456 0.9435,2.81471 0.1505,1.32013 0.9482,2.99615 1.7739,3.7245 0.8257,0.72832 3.0794,3.32941 5.0083,5.78011 1.9288,2.45074 5.4848,6.56055 7.9021,9.13287 2.4172,2.57233 4.5252,4.99667 4.6848,5.38741 0.1594,0.39077 3.9793,2.49175 8.4882,4.6689 9.6911,4.67902 9.8274,4.77715 11.7852,8.47559 0.8363,1.5798 1.9701,2.87237 2.5196,2.87237 0.5495,0 1.4095,0.39549 1.9111,0.87886 1.1088,1.06864 6.2316,2.84464 8.3797,2.90514 0.859,0.0228 2.967,0.87227 4.6848,1.88464 1.7178,1.01238 3.9072,2.17212 4.8652,2.57716 1.1122,0.47027 1.5764,1.15215 1.284,1.88659 -0.3654,0.91777 -1.2914,1.05572 -4.5839,0.68275 -2.8502,-0.32285 -5.1789,-0.10267 -7.5306,0.7116 -3.4708,1.20201 -9.8127,1.81591 -14.7259,1.42551 z m 7.1631,-5.13149 c 1.5871,-0.94545 0.4471,-3.76284 -2.1749,-5.37503 -1.5148,-0.93126 -3.1196,-1.69321 -3.5664,-1.69321 -1.3277,0 -10.0107,-4.66838 -10.0107,-5.38209 0,-0.36144 -1.8783,-1.45781 -4.174,-2.43634 -2.9446,-1.25505 -6.2224,-3.78121 -11.1265,-8.57531 -11.1878,-10.93654 -14.3234,-14.39547 -14.8368,-16.36738 -0.2656,-1.02057 -0.7163,-1.85558 -1.0008,-1.85558 -0.6861,0 -3.4114,-5.22847 -5.8841,-11.28806 -2.1608,-5.29562 -4.3588,-14.69247 -4.36,-18.63913 -8e-4,-3.4969 2.8163,-13.17472 5.0464,-17.33749 1.0408,-1.94238 2.1351,-4.54753 2.4317,-5.78921 0.2966,-1.24168 0.9933,-2.76557 1.5484,-3.38641 0.5548,-0.62084 2.803,-4.45452 4.9953,-8.51928 7.6752,-14.22939 14.2092,-22.34357 21.8947,-27.18932 1.5033,-0.94767 3.3569,-2.3957 4.1191,-3.21783 1.2301,-1.32638 1.2528,-1.60133 0.2037,-2.44032 -0.9568,-0.76519 -1.7828,-0.71399 -4.3302,0.26849 -1.7311,0.66766 -3.7871,1.21392 -4.5688,1.21392 -1.773,0 -11.0403,4.40925 -11.0403,5.25288 0,0.34111 -0.9662,0.99369 -2.1472,1.45022 -3.2197,1.24469 -10.5516,5.19784 -11.066,5.96655 -0.2479,0.3706 -1.9569,1.40977 -3.7978,2.30926 -3.2411,1.58381 -17.5474,14.61681 -19.4588,17.72693 -2.6687,4.34249 -6.305,11.75787 -6.6713,13.604 -0.2272,1.1518 -0.088,2.99427 0.3081,4.09439 0.5002,1.3833 0.3589,3.349 -0.4583,6.37319 -0.6501,2.40515 -1.0219,4.62223 -0.8266,4.92687 0.358,0.55816 -1.4699,9.90269 -2.1616,11.05071 -0.5625,0.93402 0.8496,10.83184 1.6844,11.80611 0.4017,0.46853 0.9757,2.20644 1.2755,3.86202 0.3001,1.6556 1.737,5.43886 3.1931,8.40724 1.4563,2.96842 2.6477,5.74095 2.6477,6.16119 0,0.42023 1.5714,2.39387 3.4917,4.38586 1.9203,1.99202 3.5015,4.04513 3.5136,4.5625 0,0.51736 0.5459,0.94067 1.186,0.94067 0.6404,0 1.9581,1.18198 2.9281,2.6266 1.0066,1.49891 2.8386,2.97316 4.267,3.43376 1.3766,0.44392 3.309,1.62659 4.2944,2.62815 0.9853,1.00155 2.1431,1.83226 2.5724,1.84603 0.4294,0.0142 1.928,0.95088 3.33,2.08249 6.0515,4.88392 9.0336,6.59496 15.4094,8.84142 2.473,0.87136 10.8417,2.53236 11.321,2.24694 0.239,-0.14221 2.357,0.37698 4.7072,1.15394 3.3112,1.09477 5.6652,1.32732 10.4599,1.03337 3.4029,-0.20877 6.4773,-0.55224 6.832,-0.76357 z m -11.5727,-37.87736 c -2.1079,-0.86986 -2.7492,-1.84918 -2.1672,-3.31084 0.6595,-1.65625 4.5733,-2.75435 9.8168,-2.75435 5.1629,0 7.6914,-1.60779 7.6914,-4.89072 0,-2.75752 7.2083,-9.61776 12.4928,-11.88962 6.4924,-2.7911 9.4503,-3.5304 12.8835,-3.22038 1.7179,0.15501 3.6576,0.31639 4.311,0.3584 1.1595,0.0745 10.5115,6.31642 12.6221,8.42425 0.5831,0.58236 2.3865,3.00255 4.0073,5.37823 3.4577,5.06766 4.3926,5.64489 10.2098,6.30385 3.4407,0.38974 4.3765,0.77568 4.3765,1.80506 0,3.04032 -1.0642,3.14317 -34.9217,3.3756 -17.9399,0.12315 -34.1992,0.42384 -36.1319,0.66822 -1.9324,0.24432 -4.2681,0.13283 -5.1904,-0.24773 z m 54.7928,-8.38708 c 0.6764,-2.05314 -1.0517,-4.01661 -6.7308,-7.64852 -4.8507,-3.10201 -5.1918,-3.19846 -11.2486,-3.18108 -4.3104,0.0114 -6.9915,0.40573 -8.6497,1.26913 -3.4418,1.79226 -8.3536,7.78413 -7.7882,9.50105 0.4217,1.28067 1.6694,1.38457 17.2016,1.43261 15.7727,0.0486 16.774,-0.031 17.2157,-1.37319 z m -38.4612,-55.63356 c -1.8172,-0.25513 -3.5616,-0.71197 -3.8765,-1.01542 -0.9972,-0.96112 0.9399,-2.98136 3.719,-3.87823 1.986,-0.64103 2.7418,-1.35915 2.9177,-2.77225 0.3807,-3.06358 -5.4226,-5.55001 -14.1431,-6.05944 -3.7833,-0.221 -7.077,-0.59294 -7.3193,-0.82648 -0.2419,-0.23351 0.091,-1.70756 0.7393,-3.27562 2.2484,-5.43297 16.6111,-13.23335 26.7778,-14.543 3.4106,-0.43932 8.2584,-1.10829 10.7727,-1.48654 3.4746,-0.52269 5.3485,-0.42689 7.8083,0.39916 1.7797,0.59777 4.3209,1.09181 5.6469,1.09784 3.6375,0.0171 14.2127,7.39249 16.3953,11.43559 1.7712,3.28069 0.6085,8.58578 -2.6412,12.05274 -2.8047,2.99205 -3.6611,3.12618 -7.7183,1.20905 -2.2219,-1.04978 -3.9978,-0.3419 -4.9035,1.9545 -0.8573,2.17297 -6.7689,5.72852 -9.4677,5.69425 -2.2015,-0.0284 -4.1026,-1.29299 -4.8587,-3.23327 -0.3774,-0.96852 0.1683,-2.0553 1.8451,-3.67091 2.334,-2.24937 2.3517,-2.32175 0.8882,-3.6357 -0.8212,-0.73737 -3.2934,-1.95692 -5.4937,-2.71013 -3.667,-1.25519 -4.105,-1.26902 -5.2497,-0.16582 -1.1447,1.10322 -1.0804,1.36603 0.7691,3.14857 3.0012,2.89255 2.5016,4.59528 -2.2765,7.75796 -3.433,2.27234 -6.6028,3.04643 -10.3312,2.52315 z m 32.1837,-20.12029 c 0.4238,-0.93129 1.0388,-1.69323 1.3663,-1.69323 0.3276,0 0.5959,-0.48105 0.5959,-1.06901 0,-0.60579 -1.0996,-1.27726 -2.5377,-1.54959 -1.3958,-0.26423 -4.8223,-1.02191 -7.615,-1.68356 -6.0208,-1.42659 -10.8936,-0.90916 -10.5935,1.12492 0.1948,1.32263 7.5516,5.3 9.9638,5.38715 0.7262,0.0256 1.5496,0.40491 1.8294,0.8415 0.2803,0.43659 1.7939,0.69058 3.3645,0.56441 2.0787,-0.16696 3.0653,-0.69007 3.6263,-1.92259 z"
       id="path3329"
       inkscape:export-filename="SVG\Poolvari.svg"
       inkscape:export-xdpi="96"
       inkscape:export-ydpi="96" /></g></svg>
