<?xml version="1.0" encoding="UTF-8" standalone="no"?>
<!-- Created with Inkscape (http://www.inkscape.org/) -->

<svg
   width="153.73582mm"
   height="160.66475mm"
   viewBox="0 0 153.73583 160.66475"
   version="1.1"
   id="svg5"
   xml:space="preserve"
   xmlns="http://www.w3.org/2000/svg"
   xmlns:svg="http://www.w3.org/2000/svg"><defs
     id="defs2" /><g
     id="layer2"
     transform="translate(3584.0262,593.42766)"><g
       id="g225"
       transform="translate(-830.48206,325.19407)"
       style="fill:#ffffff;fill-opacity:1"><path
         style="fill:#ffffff;fill-opacity:1;stroke:none;stroke-width:22.4367;stroke-dasharray:none;stroke-opacity:1"
         id="path200"
         d="m -2662.9185,-918.12622 c -0.4231,0.0352 -0.8456,0.0813 -1.2666,0.13512 -0.5188,0.0775 -1.0382,0.15095 -1.5584,0.21968 -0.6834,0.10229 -1.3652,0.21202 -2.05,0.30618 -0.8363,0.0992 -1.6666,0.24154 -2.5016,0.3506 -0.9572,0.12049 -1.9127,0.25371 -2.8686,0.38465 -1.1747,0.15182 -2.3458,0.32959 -3.5147,0.52131 -1.4261,0.22868 -2.8387,0.53073 -4.2455,0.85606 -1.5201,0.36782 -3.0308,0.77287 -4.5355,1.19822 -1.5616,0.44077 -3.107,0.93596 -4.6503,1.4369 -1.5751,0.50487 -3.1433,1.0305 -4.699,1.59229 -1.5852,0.56448 -3.1539,1.17303 -4.7162,1.7981 -1.6669,0.66564 -3.3002,1.40952 -4.9123,2.19803 -1.6666,0.79835 -3.2861,1.68701 -4.8763,2.62726 -1.5134,0.91051 -2.995,1.87261 -4.4648,2.85173 -1.4708,0.97295 -2.9104,1.9902 -4.3169,3.0539 -1.4349,1.09252 -2.8184,2.24917 -4.1879,3.42196 -1.3702,1.16891 -2.6913,2.39271 -3.9925,3.63728 -1.3044,1.26302 -2.5633,2.57183 -3.7955,3.90507 -1.2353,1.32987 -2.4183,2.70682 -3.5819,4.09935 -1.1573,1.3784 -2.2625,2.79876 -3.361,4.22373 -1.121,1.46039 -2.1786,2.9673 -3.2253,4.48124 -1.0893,1.56597 -2.1037,3.18133 -3.0924,4.81182 -1.0491,1.73683 -2.0167,3.51994 -2.9282,5.33215 -0.9596,1.91894 -1.788,3.89747 -2.5683,5.89473 -0.8144,2.10323 -1.4737,4.26032 -2.0455,6.44065 -0.5471,2.13508 -0.9861,4.29532 -1.3856,6.46215 -0.3926,2.14329 -0.6625,4.30604 -0.9038,6.47071 -0.2471,2.24872 -0.3514,4.509 -0.3768,6.77005 -0.043,2.4983 0.2493,4.97951 0.6263,7.44384 0.3717,2.51492 0.9363,4.99121 1.6364,7.43334 0.7417,2.4149 1.6338,4.78078 2.5787,7.12266 0.9369,2.29341 2.0095,4.52728 3.1371,6.732 1.1176,2.14673 2.3252,4.24426 3.6076,6.29608 1.2425,1.94977 2.5601,3.84974 3.9196,5.71939 1.3943,1.91659 2.9286,3.72296 4.5153,5.48127 1.6233,1.75318 3.3751,3.37937 5.1523,4.97335 1.8245,1.63264 3.77,3.1183 5.7615,4.53908 1.9484,1.38097 3.9667,2.6584 6.0029,3.90459 2.0061,1.24746 4.0714,2.39326 6.1624,3.49139 2.0807,1.09977 4.2048,2.11307 6.3426,3.09568 2.1193,0.97414 4.273,1.86954 6.4365,2.74013 2.1884,0.86921 4.3995,1.68185 6.6371,2.41522 2.4347,0.78079 4.9186,1.39158 7.4179,1.92413 2.522,0.51657 5.0733,0.86929 7.6321,1.14102 2.494,0.26683 5.0041,0.26781 7.5078,0.19145 2.2175,-0.0804 4.4276,-0.28781 6.6353,-0.50104 2.0044,-0.19479 4.0063,-0.41632 6.0076,-0.6432 1.8926,-0.22318 3.7835,-0.46083 5.6737,-0.70271 4.014,-0.49117 2.6247,-11.84392 -1.389,-11.35274 v 0 c -1.8468,0.21566 -3.6934,0.43132 -5.5423,0.62817 -1.9415,0.20714 -3.8825,0.42217 -5.8279,0.58992 -1.9434,0.17682 -3.8897,0.33033 -5.8405,0.38756 -1.9878,0.0336 -3.9804,0.0268 -5.9584,-0.19982 -2.1807,-0.24606 -4.3511,-0.57906 -6.505,-1.00197 -2.1095,-0.4299 -4.2077,-0.91266 -6.2664,-1.54869 -1.9775,-0.61296 -3.9233,-1.31371 -5.8375,-2.10442 -1.9849,-0.80171 -3.9587,-1.632 -5.9039,-2.5264 -1.9516,-0.9054 -3.9024,-1.81485 -5.8045,-2.82125 -1.8571,-0.97967 -3.706,-1.97765 -5.4819,-3.09983 -1.8118,-1.12355 -3.6068,-2.27393 -5.3546,-3.49549 -1.6391,-1.16004 -3.2615,-2.34815 -4.7628,-3.68527 -1.483,-1.32975 -2.9273,-2.70132 -4.3095,-4.13605 -1.3147,-1.43624 -2.5778,-2.91888 -3.7264,-4.49284 -1.203,-1.65835 -2.3532,-3.35359 -3.4417,-5.08952 -1.1078,-1.75906 -2.1381,-3.56357 -3.0797,-5.4175 -0.9681,-1.89977 -1.9,-3.81908 -2.6972,-5.79803 -0.8078,-2.00075 -1.5483,-4.02823 -2.2072,-6.08309 -0.6011,-1.92206 -1.0403,-3.88435 -1.3361,-5.87719 -0.2871,-1.84668 -0.581,-3.7007 -0.5614,-5.57572 0.01,-1.86859 0.088,-3.73658 0.2815,-5.59597 0.2085,-1.8901 0.4503,-3.77716 0.7903,-5.64872 0.3484,-1.88817 0.7405,-3.76859 1.2107,-5.63052 0.4604,-1.76231 0.9472,-3.51649 1.6137,-5.21477 0.6406,-1.67966 1.3324,-3.33952 2.1185,-4.95705 0.7469,-1.54297 1.5537,-3.0547 2.4345,-4.52596 0.8577,-1.43857 1.7354,-2.86645 2.6871,-4.2453 0.9263,-1.35395 1.8724,-2.6947 2.8604,-4.00449 0.9998,-1.30527 2.0177,-2.59646 3.0718,-3.85842 1.0462,-1.25156 2.109,-2.48939 3.2094,-3.69358 1.0628,-1.15742 2.15,-2.2931 3.2819,-3.38368 1.161,-1.10466 2.3302,-2.20091 3.5557,-3.2344 1.1975,-1.03174 2.4024,-2.05539 3.656,-3.01887 1.1986,-0.9208 2.4212,-1.8084 3.6933,-2.62599 1.3208,-0.86667 2.6554,-1.71262 4.0098,-2.52584 1.3253,-0.78846 2.6694,-1.54565 4.0627,-2.20835 1.3705,-0.66961 2.7522,-1.31638 4.1658,-1.89058 1.4251,-0.58087 2.8597,-1.13916 4.3117,-1.6496 1.4319,-0.51398 2.8625,-1.03282 4.3148,-1.48751 1.4518,-0.46016 2.9059,-0.91218 4.3598,-1.36504 1.311,-0.39706 2.6297,-0.76787 3.9582,-1.10114 1.2083,-0.29327 2.4178,-0.58306 3.6375,-0.8245 1.0292,-0.20552 2.0629,-0.38584 3.0988,-0.55443 0.9644,-0.14446 1.9306,-0.27728 2.894,-0.42979 0.8935,-0.14221 1.7886,-0.27429 2.6797,-0.43167 0.7154,-0.13208 1.4277,-0.28014 2.1436,-0.41053 0.4594,-0.0949 0.9176,-0.1961 1.3738,-0.30559 0.1664,-0.0384 0.499,-0.0874 0.4765,-0.11112 3.7637,-0.31361 2.8765,-10.95865 -0.8869,-10.64501 z" /><path
         style="fill:#ffffff;fill-opacity:1;stroke:none;stroke-width:22.4367;stroke-dasharray:none;stroke-opacity:1"
         id="path201"
         d="m -2646.7916,-769.51609 c 0.2757,0.0806 -0.052,-0.0859 -0.2106,-0.16512 -0.2969,-0.20085 -0.6072,-0.38071 -0.9158,-0.56296 -0.5259,-0.34438 -1.0575,-0.67993 -1.5832,-1.02476 -0.7509,-0.4654 -1.5174,-0.90447 -2.2683,-1.36922 -0.8623,-0.53969 -1.7507,-1.03557 -2.6204,-1.56297 -0.9126,-0.54941 -1.8148,-1.11633 -2.7046,-1.70185 -0.9538,-0.6341 -1.9074,-1.26881 -2.853,-1.91537 -0.994,-0.66855 -1.9751,-1.35607 -2.9541,-2.04669 -1.0527,-0.73461 -2.1164,-1.45354 -3.1662,-2.19255 -1.0859,-0.78031 -2.1807,-1.54831 -3.2597,-2.33833 -1.1245,-0.82876 -2.2296,-1.68312 -3.3306,-2.54296 -1.1589,-0.90324 -2.2942,-1.83664 -3.4258,-2.77376 -1.1999,-0.98838 -2.395,-1.98213 -3.583,-2.98501 -1.1927,-1.00134 -2.3241,-2.07213 -3.4602,-3.13623 -1.2052,-1.11835 -2.3746,-2.27344 -3.5174,-3.45504 -1.1864,-1.23126 -2.3553,-2.47904 -3.5036,-3.74594 -1.1311,-1.23643 -2.2024,-2.52458 -3.2575,-3.82551 -1.0518,-1.30151 -2.0553,-2.64065 -3.0396,-3.99351 -0.958,-1.29916 -1.8526,-2.64155 -2.713,-4.00662 -0.8395,-1.3436 -1.6113,-2.72613 -2.3479,-4.128 -0.7565,-1.41552 -1.4449,-2.86544 -2.104,-4.32834 -0.6501,-1.41597 -1.2065,-2.87071 -1.7227,-4.33988 -0.5233,-1.494 -0.9311,-3.02364 -1.3303,-4.55425 -0.4136,-1.54604 -0.7573,-3.10901 -1.0565,-4.68088 -0.294,-1.52365 -0.4919,-3.06239 -0.6578,-4.60443 -0.1629,-1.5107 -0.2286,-3.02956 -0.2357,-4.54835 0,-1.53861 0.094,-3.07456 0.227,-4.60671 0.1241,-1.47834 0.3884,-2.93579 0.7128,-4.3814 0.3709,-1.52654 0.875,-3.01625 1.3835,-4.50122 0.5398,-1.56634 1.1663,-3.10108 1.8476,-4.61071 0.7321,-1.6355 1.5433,-3.23353 2.3918,-4.81121 0.8991,-1.65018 1.8902,-3.24638 2.9266,-4.81298 1.0969,-1.63486 2.2651,-3.22011 3.4665,-4.77928 1.1809,-1.54037 2.4461,-3.01225 3.7431,-4.45516 1.2917,-1.43494 2.6609,-2.79511 4.0622,-4.12202 1.4607,-1.38488 2.9572,-2.73203 4.469,-4.06072 1.4923,-1.3222 3.0091,-2.61578 4.5353,-3.89893 1.4774,-1.23229 2.9911,-2.42011 4.5106,-3.59994 1.4761,-1.14327 2.9842,-2.24375 4.4984,-3.33555 1.4518,-1.04201 2.92,-2.06103 4.399,-3.06388 1.3586,-0.92032 2.7543,-1.78302 4.1566,-2.63459 0.9123,-0.54686 0.4575,-0.27757 1.3642,-0.80806 3.4732,-2.01618 -2.2294,-11.83979 -5.7026,-9.82361 v 0 c -1.0139,0.58433 -0.5088,0.29115 -1.5147,0.87953 -1.5703,0.93242 -3.1277,1.88717 -4.6506,2.89584 -1.5899,1.04973 -3.1705,2.11397 -4.7223,3.2195 -1.6449,1.16538 -3.2774,2.34868 -4.8776,3.57487 -1.633,1.26328 -3.2607,2.53391 -4.849,3.85357 -1.6068,1.33419 -3.1986,2.68626 -4.7734,4.05842 -1.6293,1.43042 -3.2422,2.8802 -4.8172,4.37063 -1.614,1.54484 -3.1917,3.12803 -4.6935,4.78263 -1.4856,1.66203 -2.94,3.35246 -4.3042,5.11633 -1.378,1.79393 -2.7408,3.60151 -3.977,5.4974 -1.2147,1.87286 -2.3749,3.78159 -3.4128,5.75922 -0.9562,1.82708 -1.882,3.67059 -2.7004,5.56442 -0.7932,1.821 -1.5335,3.66567 -2.1807,5.54405 -0.6508,1.90074 -1.2845,3.81125 -1.7182,5.7757 -0.4079,1.91794 -0.7355,3.85172 -0.908,5.80657 -0.1691,1.88913 -0.2865,3.78407 -0.2749,5.68172 0.016,1.90505 0.098,3.80949 0.3048,5.70431 0.2029,1.84859 0.4482,3.69303 0.7937,5.521 0.3501,1.80774 0.734,3.60871 1.1975,5.39121 0.4774,1.85555 0.9909,3.70287 1.636,5.50828 0.6326,1.7654 1.303,3.51811 2.0814,5.22528 0.7589,1.66889 1.5468,3.32439 2.3995,4.94774 0.8777,1.65801 1.7958,3.29491 2.789,4.88677 0.9896,1.56951 2.0238,3.10965 3.1076,4.61603 1.1009,1.52966 2.2304,3.03821 3.4152,4.50416 1.1906,1.4665 2.4082,2.91081 3.6796,4.30839 1.2475,1.36769 2.4984,2.73262 3.7957,4.05355 1.288,1.30009 2.5974,2.57903 3.9393,3.82376 1.2656,1.15814 2.5565,2.28788 3.8571,3.40619 1.237,1.05863 2.4845,2.10506 3.7569,3.12121 1.2202,0.98518 2.4471,1.96229 3.6827,2.92844 1.1954,0.91768 2.3916,1.83454 3.6176,2.71134 1.1584,0.83937 2.3228,1.66989 3.5113,2.46629 1.0676,0.72382 2.1254,1.46169 3.1962,2.18056 1.0007,0.6721 2.0005,1.34467 2.9898,2.03306 1.0139,0.69662 2.037,1.37922 3.0689,2.04859 1.0274,0.66604 2.064,1.31818 3.1308,1.91953 0.8975,0.52244 1.8029,1.02994 2.717,1.52212 0.7189,0.39399 1.4118,0.83312 2.1304,1.22801 0.6414,0.36452 1.2817,0.73051 1.9196,1.10149 0.5657,0.31011 1.1327,0.61939 1.7185,0.89056 0.5021,0.21428 1.0046,0.43151 1.5308,0.58142 3.5976,1.14467 6.835,-9.03055 3.2375,-10.17519 z" /><path
         style="fill:#ffffff;fill-opacity:1;stroke:none;stroke-width:22.4367;stroke-dasharray:none;stroke-opacity:1"
         id="path202"
         d="m -2685.756,-860.30479 c 0.1934,-0.30713 0.3768,-0.61986 0.5535,-0.9385 0.2117,-0.37531 0.4291,-0.74716 0.6464,-1.11911 0.2561,-0.42079 0.5342,-0.82696 0.8128,-1.23275 0.4199,-0.6178 0.8445,-1.23232 1.2755,-1.84237 0.4599,-0.63108 0.939,-1.24756 1.4277,-1.85656 0.5472,-0.65889 1.1033,-1.30992 1.6799,-1.94354 0.6119,-0.67252 1.2443,-1.327 1.902,-1.95496 0.7774,-0.73758 1.5748,-1.45312 2.372,-2.16884 0.8213,-0.743 1.6637,-1.46166 2.521,-2.16294 0.8549,-0.69842 1.755,-1.33782 2.6556,-1.97509 0.9898,-0.68181 1.9905,-1.34758 2.9946,-2.00779 0.9948,-0.65805 2.0129,-1.27966 3.0379,-1.88931 1.066,-0.61193 2.1394,-1.21052 3.2261,-1.78488 1.1102,-0.58063 2.2384,-1.12366 3.3837,-1.63068 1.1991,-0.51803 2.3998,-1.03394 3.6341,-1.46294 1.2687,-0.45675 2.5715,-0.79859 3.8777,-1.12672 1.3605,-0.33803 2.7403,-0.58934 4.1223,-0.82034 1.3822,-0.2194 2.7737,-0.37399 4.1674,-0.49835 1.3186,-0.13398 2.642,-0.13774 3.9647,-0.0881 1.3603,0.058 2.7156,0.18868 4.0654,0.36375 1.2225,0.1542 2.4313,0.39426 3.6205,0.71512 1.0435,0.30427 2.0491,0.72139 3.0284,1.18967 0.8283,0.40185 1.6158,0.88204 2.339,1.45132 0.3861,0.30591 0.7278,0.66897 0.9539,1.10913 0.2647,0.52306 0.4395,1.08405 0.6042,1.64465 0.1301,0.37352 0.1292,0.73983 0.1035,1.12821 -0.031,0.45371 -0.1384,0.89263 -0.2632,1.32787 -0.097,0.28689 -0.045,0.13774 -0.1578,0.4472 -1.3376,3.64191 8.9634,7.42505 10.3009,3.78314 v 0 c 0.273,-0.74157 0.1392,-0.36063 0.3997,-1.14332 0.3799,-1.28701 0.6605,-2.60199 0.7288,-3.94618 0.058,-1.55985 -0.029,-3.11922 -0.476,-4.62584 -0.4167,-1.48796 -0.9253,-2.95407 -1.7001,-4.29879 -0.9728,-1.59486 -2.121,-3.06538 -3.6032,-4.22463 -1.3705,-1.0709 -2.8171,-2.03861 -4.3884,-2.79432 -1.5979,-0.76205 -3.2338,-1.44981 -4.9442,-1.92061 -1.6658,-0.44749 -3.3523,-0.81425 -5.0641,-1.03753 -1.7208,-0.23136 -3.4487,-0.41461 -5.1847,-0.48139 -1.7846,-0.0499 -3.5693,-0.0274 -5.348,0.14595 -1.6713,0.15359 -3.3412,0.33364 -4.9983,0.6029 -1.6849,0.27826 -3.3661,0.58256 -5.0234,0.99669 -1.6907,0.42365 -3.3687,0.89966 -5.0025,1.51056 -1.4867,0.56364 -2.9615,1.15959 -4.4082,1.81948 -1.3512,0.62789 -2.6943,1.27376 -4.0071,1.9794 -1.2444,0.66961 -2.4884,1.34089 -3.6939,2.07923 -1.1469,0.69112 -2.287,1.39372 -3.4104,2.12297 -1.133,0.73649 -2.2543,1.49071 -3.3616,2.26536 -1.103,0.79036 -2.1889,1.60467 -3.2417,2.46134 -0.9863,0.81134 -1.955,1.64327 -2.9056,2.49639 -0.9221,0.83207 -1.8296,1.67924 -2.7014,2.56413 -0.8006,0.80992 -1.5991,1.62291 -2.3553,2.475 -0.7136,0.80856 -1.4126,1.63023 -2.0834,2.47496 -0.622,0.79674 -1.2369,1.59922 -1.8079,2.43385 -0.4749,0.69511 -0.9366,1.39928 -1.3816,2.11389 -0.4109,0.64709 -0.8004,1.30781 -1.17,1.9794 -0.2371,0.46133 -0.4871,0.91604 -0.7141,1.38253 -0.1228,0.25188 -0.2527,0.53245 -0.3583,0.76692 -1.819,3.30756 7.5362,8.45291 9.3552,5.14535 z" /><path
         style="fill:#ffffff;fill-opacity:1;stroke:none;stroke-width:22.4367;stroke-dasharray:none;stroke-opacity:1"
         id="path203"
         d="m -2684.9649,-858.99164 c -0.235,0.40908 0.2418,-0.22071 0.3326,-0.31218 0.3048,-0.31149 0.6082,-0.626 0.9273,-0.92421 0.5091,-0.49983 1.0576,-0.95663 1.6087,-1.40867 0.6628,-0.5406 1.3539,-1.04466 2.0537,-1.53607 0.8477,-0.59274 1.7095,-1.1648 2.5694,-1.73929 0.9083,-0.60693 1.833,-1.18864 2.7524,-1.77853 0.9367,-0.58518 1.8844,-1.15289 2.839,-1.70817 0.9782,-0.58481 1.9815,-1.12456 2.9911,-1.65235 1.0734,-0.5393 2.1736,-1.02365 3.2684,-1.51741 1.1391,-0.51195 2.303,-0.9638 3.4751,-1.39357 1.2559,-0.45018 2.5286,-0.85394 3.8047,-1.24295 1.2959,-0.37595 2.5871,-0.77 3.8991,-1.08723 1.2494,-0.26461 2.5088,-0.47286 3.7743,-0.64259 1.2682,-0.16368 2.5397,-0.29787 3.8164,-0.37542 1.0136,-0.0581 2.0303,-0.0103 3.0391,0.0955 0.9208,0.0841 1.8182,0.29734 2.7077,0.53999 0.6695,0.19666 1.3239,0.44183 1.9335,0.78266 0.2986,0.17307 0.5582,0.40429 0.7834,0.66429 0.2039,0.23249 0.357,0.49866 0.4903,0.77579 0.122,0.24402 0.2023,0.49982 0.2572,0.76541 0.034,0.21974 0.035,0.44053 0.029,0.66209 -0.094,3.84331 10.7767,4.10888 10.8706,0.26557 v 0 c 0.026,-1.07691 -0.023,-2.15485 -0.2412,-3.21308 -0.2459,-1.13707 -0.5837,-2.25248 -1.0934,-3.30197 -0.5857,-1.18655 -1.2653,-2.32283 -2.1468,-3.31735 -1.0527,-1.15845 -2.2111,-2.21578 -3.5795,-2.99537 -1.3734,-0.75851 -2.8042,-1.40118 -4.3201,-1.82229 -1.4763,-0.41513 -2.9728,-0.75409 -4.4997,-0.92192 -1.6151,-0.17526 -3.24,-0.27019 -4.8648,-0.18973 -1.5671,0.084 -3.1314,0.21646 -4.6884,0.41669 -1.6613,0.22503 -3.3195,0.48525 -4.9509,0.87696 -1.5211,0.37711 -3.0313,0.79775 -4.5297,1.25733 -1.4811,0.45979 -2.9601,0.92779 -4.4114,1.4764 -1.4015,0.52819 -2.7927,1.08471 -4.1574,1.7027 -1.3139,0.59079 -2.6254,1.18949 -3.8928,1.87616 -1.147,0.61548 -2.2913,1.23682 -3.4089,1.90429 -1.0768,0.63762 -2.1428,1.29315 -3.1964,1.96813 -0.979,0.62862 -1.9606,1.25338 -2.9271,1.90119 -0.9649,0.64698 -1.9254,1.30053 -2.8628,1.98657 -0.9115,0.66995 -1.8129,1.35472 -2.6778,2.08428 -0.7922,0.67768 -1.5722,1.37226 -2.2805,2.13884 -0.6252,0.65479 -1.2308,1.32879 -1.7669,2.05994 -0.3579,0.51207 -0.6966,1.03378 -1.0014,1.57967 -1.8738,3.27916 7.4009,8.57908 9.2747,5.29994 z" /><path
         style="fill:#ffffff;fill-opacity:1;stroke:none;stroke-width:22.4367;stroke-dasharray:none;stroke-opacity:1"
         id="path204"
         d="m -2685.9891,-859.4473 c 0,0.0296 -0.1371,0.32724 -0.05,0.24659 0.1479,-0.14708 0.098,-0.0535 0.3538,-0.23852 0.4344,-0.30835 0.8697,-0.61341 1.3237,-0.893 0.649,-0.38962 1.3015,-0.77353 1.9661,-1.13622 0.7633,-0.41061 1.5412,-0.79288 2.3299,-1.15253 0.8573,-0.40293 1.7405,-0.74538 2.6242,-1.08519 0.9504,-0.3702 1.9079,-0.72001 2.8757,-1.0419 0.9891,-0.32507 1.9826,-0.63727 2.9837,-0.9226 1.002,-0.29184 2.0159,-0.53546 3.0324,-0.76994 0.9382,-0.22643 1.8862,-0.40354 2.8414,-0.54091 0.8908,-0.11989 1.7873,-0.19087 2.6842,-0.2444 0.6966,-0.0352 1.3938,-0.0458 2.0883,0.022 0.5581,0.0718 1.1108,0.18328 1.6532,0.33229 0.2659,0.066 0.5178,0.15468 0.7448,0.30705 0.041,0.0599 0.3466,0.32811 0.477,0.46146 0.1159,0.1261 0.2194,0.26234 0.3035,0.41151 0.1267,0.2341 0.096,0.2164 -0.016,-0.13655 -0.099,-0.36635 -0.1225,-0.74359 -0.074,-1.11887 0.089,-0.4938 0.3225,-0.94801 0.6101,-1.35385 0.034,-0.0572 0.1008,-0.14057 0.1154,-0.15767 -0.019,0.01 -0.036,0.0198 -0.053,0.0296 -3.2334,2.02422 2.4919,11.16941 5.7254,9.14519 v 0 c 0.1071,-0.0683 0.214,-0.13669 0.3212,-0.20503 0.7688,-0.52525 1.4951,-1.10966 2.097,-1.82612 0.8261,-1.01587 1.4748,-2.14805 1.731,-3.44758 0.2315,-1.19692 0.2995,-2.41051 0.021,-3.60942 -0.2757,-1.0178 -0.6326,-2.00403 -1.1856,-2.90872 -0.5252,-0.86617 -1.1067,-1.69751 -1.8103,-2.43046 -0.7987,-0.81727 -1.642,-1.59407 -2.6151,-2.20303 -1.097,-0.65384 -2.2476,-1.21057 -3.4872,-1.54006 -1.1396,-0.31266 -2.2937,-0.57568 -3.4692,-0.7108 -1.2404,-0.12412 -2.4861,-0.17325 -3.7322,-0.11049 -1.2388,0.0539 -2.4771,0.13946 -3.7061,0.30723 -1.2649,0.18127 -2.5225,0.40685 -3.7687,0.69033 -1.2179,0.28183 -2.4304,0.58615 -3.6295,0.94069 -1.1528,0.34076 -2.3051,0.68438 -3.4433,1.07091 -1.1301,0.38798 -2.2545,0.79245 -3.3674,1.22711 -1.1091,0.44198 -2.2127,0.89865 -3.2914,1.41078 -0.9967,0.48154 -1.9852,0.98007 -2.9488,1.52551 -0.9091,0.50908 -1.8095,1.03526 -2.672,1.62102 -0.799,0.55153 -1.5939,1.11168 -2.3278,1.74935 -0.6982,0.62492 -1.3758,1.28037 -1.9153,2.05171 -0.4128,0.58494 -0.8001,1.1889 -1.0729,1.8538 -1.5486,3.44115 8.1843,7.82103 9.733,4.37986 z" /><path
         style="fill:#ffffff;fill-opacity:1;stroke:none;stroke-width:22.4367;stroke-dasharray:none;stroke-opacity:1"
         id="path205"
         d="m -2677.5344,-800.79926 c 0.4453,-0.01 0.8893,-0.0418 1.333,-0.0791 0.3609,-0.0228 0.7207,-0.0567 1.0803,-0.093 0.4276,-0.0466 0.8581,-0.0524 1.2872,-0.0728 0.7326,-0.0222 1.4629,-0.0879 2.1934,-0.14449 0.8112,-0.0695 1.624,-0.11308 2.4373,-0.15253 1.0473,-0.0535 2.0937,-0.12549 3.1396,-0.20055 1.1311,-0.0823 2.2614,-0.17497 3.3927,-0.25451 1.2259,-0.0921 2.4541,-0.14917 3.6812,-0.22235 1.311,-0.0746 2.6218,-0.15465 3.9336,-0.22077 1.3774,-0.0689 2.7559,-0.11811 4.1338,-0.17357 1.4367,-0.0524 2.8744,-0.0789 4.3119,-0.0939 1.5211,-0.0169 3.0417,-0.0353 4.5628,-0.0359 1.5368,-0.006 3.0736,-0.003 4.6103,0.0106 1.564,0.0167 3.128,0.0336 4.6919,0.051 1.5404,0.004 3.0805,0.0348 4.6207,0.0603 1.527,0.028 3.0541,0.0516 4.5813,0.0722 1.4628,0.019 2.9255,0.0405 4.3883,0.0584 1.4082,0.0175 2.8163,0.0371 4.2245,0.0543 1.3543,0.0156 2.7086,0.0286 4.063,0.0416 1.3062,0.0193 2.6124,0.0188 3.9187,0.0138 1.2455,-0.007 2.4912,-0.027 3.7362,-0.0629 0.2,-0.006 0.4,-0.0124 0.6,-0.0188 3.9312,-0.10486 3.6346,-11.22408 -0.2966,-11.11922 v 0 c -0.1856,0.004 -0.3711,0.008 -0.5567,0.0122 -1.1592,0.0183 -2.3186,0.0306 -3.4779,0.0233 -1.2578,-0.006 -2.5154,-0.0235 -3.7729,-0.0484 -1.3498,-0.0233 -2.6996,-0.0476 -4.0493,-0.0716 -1.4023,-0.0241 -2.8046,-0.0467 -4.2068,-0.0748 -1.4572,-0.0294 -2.9144,-0.0561 -4.3715,-0.0888 -1.523,-0.0333 -3.046,-0.0645 -4.5691,-0.0944 -1.5751,-0.0327 -3.1503,-0.0619 -4.7257,-0.0749 -1.5646,-0.0119 -3.1292,-0.0262 -4.6938,-0.0403 -1.5853,-0.0148 -3.1705,-0.0288 -4.7559,-0.0169 -1.5653,0.0106 -3.1306,0.0317 -4.6956,0.0631 -1.5443,0.0313 -3.0893,0.0431 -4.6315,0.13571 -1.4155,0.0673 -2.8303,0.14507 -4.2447,0.22738 -1.3433,0.0773 -2.6869,0.147 -4.0294,0.23667 -1.2879,0.0845 -2.5744,0.1897 -3.8605,0.29871 -1.1284,0.099 -2.2566,0.20505 -3.3856,0.30009 -0.9991,0.086 -1.9981,0.17542 -2.9972,0.26273 -0.8882,0.0735 -1.7756,0.15407 -2.6628,0.23527 -0.7233,0.0703 -1.4464,0.14306 -2.1674,0.23342 -0.534,0.0718 -1.0703,0.1253 -1.6039,0.19883 -0.3331,0.044 -0.6649,0.0949 -0.9991,0.13211 -0.4368,0.0605 0.1109,0.0225 -0.1678,0.0268 -3.7851,0 -3.7851,10.70616 0,10.70616 z" /><path
         style="fill:#ffffff;fill-opacity:1;stroke:none;stroke-width:22.4367;stroke-dasharray:none;stroke-opacity:1"
         id="path206"
         d="m -2657.8353,-806.5482 c -0.026,0.31816 -0.01,0.34544 0.085,0.0823 0.1016,-0.36603 0.226,-0.72536 0.3525,-1.08339 0.1132,-0.30941 0.2045,-0.62887 0.3754,-0.91263 0.218,-0.39883 0.4397,-0.79732 0.6988,-1.17128 0.3479,-0.4979 0.7167,-0.9815 1.0832,-1.46606 0.3974,-0.48263 0.7972,-0.96644 1.2372,-1.41105 0.5421,-0.53917 1.1231,-1.036 1.6983,-1.53887 0.6652,-0.5811 1.3626,-1.12334 2.067,-1.65552 0.7384,-0.5579 1.4983,-1.08408 2.2743,-1.58764 0.8591,-0.55284 1.7478,-1.0583 2.6312,-1.57101 0.8624,-0.5134 1.7604,-0.9616 2.6732,-1.37727 0.9702,-0.4577 1.9667,-0.85277 2.9722,-1.22475 1.0062,-0.3855 2.0378,-0.69408 3.0749,-0.98343 0.858,-0.28464 1.7363,-0.36965 2.6318,-0.41008 1.091,-0.0402 2.1785,0.0565 3.2624,0.16759 1.036,0.1025 2.0551,0.31043 3.0477,0.62143 0.9373,0.30831 1.8352,0.72225 2.6981,1.19848 0.8378,0.45929 1.6093,1.02211 2.3254,1.65232 0.6827,0.62225 1.286,1.31921 1.8114,2.07754 0.579,0.82806 1.0533,1.72003 1.4905,2.62884 0.4279,0.93216 0.7408,1.91088 1.0434,2.88912 0.1589,0.52898 0.3026,1.06233 0.4466,1.59552 0.997,3.81775 11.7952,0.99774 10.7982,-2.82001 v 0 c -0.1731,-0.6813 -0.3494,-1.36178 -0.5482,-2.03618 -0.4589,-1.52191 -0.9608,-3.03316 -1.6396,-4.47376 -0.7248,-1.51344 -1.5312,-2.98905 -2.5002,-4.36216 -1.0701,-1.44891 -2.2291,-2.83218 -3.5987,-4.01122 -1.336,-1.13307 -2.7515,-2.16836 -4.2947,-3.00553 -1.537,-0.82203 -3.1198,-1.56337 -4.7872,-2.08415 -1.6825,-0.49826 -3.3944,-0.88405 -5.1443,-1.0545 -1.7101,-0.17584 -3.4299,-0.29255 -5.1488,-0.16893 -1.6528,0.12652 -3.2892,0.37946 -4.8837,0.84479 -1.3474,0.37369 -2.6842,0.78507 -3.9944,1.27537 -1.2833,0.48328 -2.5476,1.01496 -3.7909,1.59422 -1.1946,0.57115 -2.3723,1.17623 -3.5163,1.84388 -1.0695,0.61791 -2.1281,1.25463 -3.1605,1.93357 -0.9919,0.66096 -1.9656,1.3494 -2.9146,2.07111 -0.8909,0.69342 -1.7727,1.39859 -2.6197,2.14561 -0.8345,0.73848 -1.6581,1.49098 -2.4138,2.31103 -0.6837,0.74544 -1.3411,1.51572 -1.9542,2.32045 -0.5482,0.72382 -1.0898,1.4541 -1.5682,2.22671 -0.4439,0.72514 -0.8715,1.46087 -1.2319,2.23189 -0.3312,0.70337 -0.6289,1.42126 -0.8728,2.1599 -0.2122,0.62084 -0.4104,1.24735 -0.5583,1.88703 -0.1852,0.76401 -0.317,1.53911 -0.3511,2.32609 -0.1146,3.78782 10.5989,4.11247 10.7138,0.32467 z" /></g></g></svg>
