<?xml version="1.0" encoding="UTF-8" standalone="no"?>
<!-- Created with Inkscape (http://www.inkscape.org/) -->

<svg
   width="160.80956mm"
   height="97.741066mm"
   viewBox="0 0 160.80956 97.741065"
   version="1.1"
   id="svg5"
   xml:space="preserve"
   xmlns="http://www.w3.org/2000/svg"
   xmlns:svg="http://www.w3.org/2000/svg"><defs
     id="defs2" /><g
     id="layer2"
     transform="translate(2824.2994,567.89207)"><g
       id="g228"
       transform="translate(-530.85756,317.5)"
       style="fill:#ffffff;fill-opacity:1"><path
         style="fill:#ffffff;fill-opacity:1;stroke:none;stroke-width:22.4367;stroke-dasharray:none;stroke-opacity:1"
         id="path223"
         d="m -2262.6888,-845.14319 c -0.8695,0.43654 -1.5571,1.09956 -2.1912,1.82177 -0.7091,0.86349 -1.118,1.88716 -1.3875,2.95838 -0.2007,0.85294 -0.2019,1.7231 -0.1264,2.58988 0.079,0.7375 0.3099,1.43727 0.6016,2.11439 0.2021,0.40513 0.2405,0.48765 0.1241,0.24326 1.6203,3.39082 11.211,-1.19203 9.5908,-4.58288 v 0 c -0.1428,-0.29945 -0.1349,-0.28072 0.029,0.0536 0.1465,0.34459 0.2708,0.69249 0.2967,1.07045 0.022,0.31289 0.024,0.621 -0.064,0.92646 -0.1384,0.48046 -0.3671,0.92292 -0.6994,1.30075 -0.3534,0.37883 -0.7267,0.72622 -1.2035,0.9471 3.3386,-1.7572 -1.6315,-11.20037 -4.9701,-9.44317 z" /><path
         style="fill:#ffffff;fill-opacity:1;stroke:none;stroke-width:22.4367;stroke-dasharray:none;stroke-opacity:1"
         id="path224"
         d="m -2170.765,-846.10288 c -0.443,0.10636 -0.8795,0.2363 -1.3129,0.37584 -0.4383,0.14578 -0.8611,0.33081 -1.2814,0.52096 -0.7671,0.34235 -1.4389,0.84312 -2.0663,1.3938 -0.7324,0.64426 -1.2772,1.44658 -1.7262,2.30431 -0.4998,0.99576 -0.6825,2.07367 -0.7102,3.17574 0,1.03124 0.2845,2.00189 0.6976,2.93648 0.074,0.13533 0.1479,0.27067 0.2218,0.40598 1.8827,3.26937 11.1299,-2.05568 9.2472,-5.32503 v 0 c 0.043,0.0811 0.086,0.16232 0.1282,0.24347 0.2299,0.54774 0.4138,1.11331 0.3986,1.7145 -0.028,0.58713 -0.1326,1.15911 -0.4136,1.68327 -0.1662,0.29859 -0.3657,0.58497 -0.6313,0.80431 -0.1897,0.14671 -0.3935,0.27588 -0.6144,0.36986 0.081,-0.0389 0.2687,-0.12898 0.1568,-0.0894 0.035,-0.0124 0.3347,-0.11649 0.01,-0.0135 3.7125,-0.7425 1.6124,-11.24312 -2.1001,-10.50062 z" /><path
         style="fill:#ffffff;fill-opacity:1;stroke:none;stroke-width:22.4367;stroke-dasharray:none;stroke-opacity:1"
         id="path225"
         d="m -2256.9716,-803.91623 c 0.1506,0.0151 0.301,0.0314 0.4512,0.0495 0.1961,0.003 0.3889,0.0274 0.5838,0.0412 0.057,0.0119 0.4076,0.0361 0.2134,0.035 -0.264,0.006 0.066,0.0932 0.1461,0.12329 0.1276,0.067 0.2611,0.1206 0.3766,0.20849 0.2207,0.14502 0.4519,0.27483 0.6632,0.43358 0.1388,0.0919 0.2436,0.2147 0.3545,0.33575 0.097,0.13531 0.192,0.27218 0.2846,0.41074 0.1052,0.11634 0.237,0.46765 0.053,0.0617 -0.029,-0.0188 -0.081,-0.32375 -0.074,-0.17053 0.011,0.11393 -0.01,0.22596 -0.024,0.33772 -0.064,0.10744 0.066,-0.19622 -0.045,0.0408 -0.037,0.055 -0.073,0.10856 -0.1167,0.16637 -0.053,0.0627 -0.1454,0.2123 -0.1994,0.20531 -0.1338,0.0405 -0.2574,0.13433 -0.3754,0.21045 -0.2933,0.19225 -0.6065,0.34997 -0.9205,0.50467 -0.405,0.20913 -0.823,0.39095 -1.2406,0.57293 -0.4402,0.19542 -0.8869,0.37478 -1.3389,0.54057 -0.4608,0.15245 -0.9278,0.28784 -1.3921,0.43026 -0.4068,0.14008 -0.8301,0.2163 -1.2553,0.27276 -0.5248,0.0608 -1.0455,0.1505 -1.572,0.19659 -0.4516,0.0259 -0.9037,0.0635 -1.3558,0.0338 -0.4097,-0.0748 -0.8202,-0.14634 -1.2294,-0.22461 -0.457,-0.0789 -0.8984,-0.22079 -1.3316,-0.38319 -0.4776,-0.18027 -0.9461,-0.38188 -1.403,-0.6095 -0.3895,-0.21002 -0.7516,-0.46694 -1.109,-0.72673 -0.4092,-0.27826 -0.7511,-0.63368 -1.1022,-0.97843 -0.4585,-0.44328 -0.8722,-0.92892 -1.2859,-1.41332 -0.4449,-0.5066 -0.8401,-1.05241 -1.2269,-1.60367 -0.4417,-0.63384 -0.8662,-1.27942 -1.2633,-1.94217 -0.4306,-0.73946 -0.8475,-1.48723 -1.2445,-2.24531 -0.4232,-0.83029 -0.8491,-1.6592 -1.2662,-2.49259 -0.4102,-0.81012 -0.7652,-1.64557 -1.1203,-2.48068 -0.3604,-0.84947 -0.6965,-1.70857 -1.0144,-2.57474 -0.323,-0.8945 -0.6239,-1.79665 -0.9192,-2.7006 -0.2954,-0.90858 -0.5459,-1.831 -0.7947,-2.75323 -0.2586,-0.93705 -0.495,-1.87976 -0.7173,-2.82601 -0.2045,-0.90638 -0.3625,-1.82174 -0.5143,-2.73807 -0.1486,-0.91808 -0.2804,-1.83901 -0.3757,-2.76418 -0.095,-0.89194 -0.1371,-1.7884 -0.1543,-2.68489 -0.024,-0.98094 -0.016,-1.96238 -0.01,-2.94346 0.013,-0.9824 0.05,-1.96421 0.1117,-2.94468 0.066,-0.96777 0.1763,-1.93156 0.2825,-2.89549 0.1001,-0.96285 0.2322,-1.92196 0.3779,-2.87886 0.146,-0.86095 0.3511,-1.71145 0.5583,-2.55955 0.2041,-0.83637 0.474,-1.65362 0.766,-2.46279 0.3073,-0.86339 0.6628,-1.70802 1.038,-2.54373 0.3948,-0.88567 0.806,-1.76369 1.2361,-2.63271 0.4184,-0.84352 0.8724,-1.66854 1.3305,-2.49095 0.4308,-0.78145 0.8865,-1.54853 1.3679,-2.29981 0.4554,-0.70091 0.9469,-1.3775 1.4404,-2.0519 0.4399,-0.60976 0.9258,-1.18287 1.4219,-1.74696 0.4154,-0.48533 0.8513,-0.94893 1.3448,-1.35491 0.5059,-0.38825 1.02,-0.76544 1.5537,-1.11455 0.5745,-0.3551 1.1686,-0.6766 1.7617,-0.99918 0.5375,-0.29085 1.1082,-0.51329 1.6755,-0.73792 0.5257,-0.21193 1.074,-0.35533 1.624,-0.48723 0.5894,-0.1243 1.1844,-0.21817 1.7816,-0.29551 0.6302,-0.0747 1.2645,-0.0985 1.8981,-0.12547 0.6177,-0.0295 1.2344,-0.005 1.8507,0.0368 0.6253,0.0415 1.2445,0.13573 1.8632,0.23146 0.6613,0.10088 1.3166,0.23672 1.97,0.37883 0.6435,0.14139 1.2822,0.30297 1.9169,0.47934 0.6191,0.17399 1.2327,0.36701 1.8391,0.58108 0.6142,0.22458 1.2233,0.46207 1.8289,0.70893 0.5884,0.24704 1.1616,0.52887 1.7347,0.80946 0.582,0.27543 1.1442,0.58539 1.6881,0.92906 0.6124,0.39299 1.217,0.79801 1.8214,1.20317 0.5995,0.40174 1.1868,0.82055 1.7558,1.26428 0.5584,0.43434 1.093,0.89794 1.6209,1.36848 0.5564,0.48895 1.082,1.01071 1.5988,1.54088 0.5786,0.58978 1.1449,1.19147 1.7085,1.79549 0.5873,0.63074 1.165,1.27034 1.7468,1.90614 0.5608,0.60782 1.1098,1.22597 1.6523,1.85009 0.5393,0.60929 1.0604,1.23415 1.5829,1.8578 0.4978,0.60778 0.9919,1.21838 1.4741,1.83865 0.4688,0.60145 0.8992,1.23131 1.3331,1.85806 0.4655,0.67352 0.9094,1.36146 1.3603,2.04475 0.4401,0.66847 0.8662,1.34588 1.2697,2.037 0.4272,0.71835 0.8323,1.44947 1.2483,2.17432 0.4212,0.74324 0.8361,1.49013 1.2535,2.23552 0.4197,0.72017 0.8023,1.46058 1.1856,2.20046 0.4052,0.77756 0.8081,1.55636 1.2148,2.33317 0.4151,0.79812 0.8339,1.59449 1.2294,2.40253 0.4126,0.84558 0.84,1.68365 1.2732,2.51886 0.4148,0.81229 0.8336,1.62255 1.2442,2.43702 0.4017,0.79081 0.786,1.5903 1.1774,2.38628 0.3822,0.79375 0.7733,1.58313 1.1666,2.3714 0.3839,0.77822 0.7796,1.55046 1.1744,2.32323 0.3798,0.7424 0.7643,1.4823 1.1549,2.21904 0.4161,0.78824 0.8536,1.56474 1.3083,2.33129 0.4349,0.72605 0.8908,1.43931 1.3561,2.14614 0.4876,0.75184 1.0217,1.47148 1.5613,2.18636 0.5708,0.77221 1.1926,1.50321 1.837,2.21433 0.6127,0.67151 1.2632,1.30648 1.9172,1.93722 0.6217,0.60542 1.2642,1.18888 1.9095,1.76887 0.6498,0.58881 1.3206,1.15406 1.9992,1.70929 0.6733,0.54057 1.3618,1.0618 2.0535,1.57845 0.6744,0.51189 1.3711,0.99346 2.0727,1.46709 0.707,0.48321 1.4294,0.94224 2.1618,1.3857 0.7295,0.45424 1.4762,0.87911 2.2264,1.29781 0.8105,0.44365 1.6388,0.85331 2.4789,1.23759 0.7801,0.35123 1.5682,0.68456 2.3607,1.00663 0.7832,0.32422 1.5755,0.62508 2.3699,0.92049 0.8054,0.3075 1.6237,0.5784 2.444,0.84275 0.8307,0.27196 1.6716,0.50945 2.5152,0.73715 0.8664,0.22948 1.7417,0.41948 2.6221,0.58619 0.8036,0.14364 1.6127,0.25204 2.4226,0.35221 0.7436,0.089 1.4891,0.1614 2.2347,0.23069 0.7323,0.0686 1.4666,0.11324 2.2009,0.15373 0.7594,0.0395 1.5196,0.0607 2.28,0.0612 0.8618,0 1.7222,-0.0561 2.5788,-0.14832 0.8918,-0.0922 1.773,-0.25781 2.6466,-0.45625 0.8158,-0.19468 1.6218,-0.42746 2.4193,-0.68633 0.7712,-0.2618 1.5261,-0.56785 2.2756,-0.88535 0.7744,-0.32856 1.5311,-0.69532 2.2714,-1.09418 0.7149,-0.40037 1.4148,-0.82714 2.0999,-1.27632 0.6933,-0.45498 1.3516,-0.95915 2.0017,-1.47302 0.6427,-0.51308 1.2703,-1.0446 1.8806,-1.59581 0.5808,-0.53464 1.1483,-1.08294 1.7056,-1.6419 0.5711,-0.56848 1.1185,-1.15977 1.6629,-1.7536 0.5625,-0.62119 1.1096,-1.25643 1.642,-1.9036 0.5402,-0.66278 1.0459,-1.35295 1.5448,-2.04711 0.4791,-0.66844 0.9444,-1.34643 1.4016,-2.03007 0.4619,-0.6836 0.8971,-1.38443 1.3279,-2.08787 0.4665,-0.75745 0.8978,-1.5353 1.3149,-2.32077 0.4385,-0.82341 0.8312,-1.66968 1.2129,-2.52053 0.3665,-0.83709 0.6935,-1.69031 1.0146,-2.54553 0.308,-0.84373 0.6015,-1.69304 0.8803,-2.54685 0.2619,-0.81875 0.5044,-1.64362 0.7509,-2.46711 0.2428,-0.79933 0.4679,-1.60385 0.696,-2.40741 0.2234,-0.80108 0.4419,-1.60356 0.6504,-2.40867 0.2027,-0.80025 0.4193,-1.59689 0.6181,-2.3981 0.2084,-0.8359 0.3972,-1.67645 0.5844,-2.51732 0.2084,-0.91091 0.3751,-1.83029 0.5262,-2.75217 0.1546,-0.94975 0.2666,-1.9058 0.3746,-2.86176 0.1067,-0.9737 0.1723,-1.95123 0.2191,-2.92944 0.04,-0.94451 0.059,-1.88976 0.059,-2.83509 0.02,-1.02717 -0.048,-2.05172 -0.1258,-3.0751 -0.085,-1.05336 -0.2301,-2.0997 -0.411,-3.14044 -0.1693,-0.98063 -0.3919,-1.95083 -0.6146,-2.92037 -0.2385,-0.9617 -0.5184,-1.9127 -0.8129,-2.85858 -0.2955,-0.9551 -0.66,-1.8864 -1.0277,-2.81543 -0.3903,-1.00595 -0.8719,-1.97155 -1.3689,-2.92791 -0.4473,-0.84685 -0.9214,-1.67904 -1.3994,-2.50883 -0.4743,-0.81529 -0.9831,-1.60928 -1.5027,-2.39617 -0.5538,-0.86088 -1.1669,-1.68003 -1.8104,-2.47526 -0.5735,-0.70863 -1.1593,-1.40687 -1.7623,-2.09058 -0.5896,-0.66664 -1.2071,-1.30799 -1.8278,-1.94553 -0.6836,-0.70813 -1.4222,-1.35935 -2.1691,-1.99919 -0.7197,-0.62061 -1.4836,-1.18634 -2.2466,-1.75178 -0.7073,-0.52155 -1.4315,-1.01981 -2.1585,-1.51337 -0.7852,-0.53528 -1.5939,-1.03481 -2.4154,-1.51201 -0.866,-0.50046 -1.7574,-0.95438 -2.6623,-1.37967 -0.9416,-0.43405 -1.9133,-0.79648 -2.8872,-1.14999 -0.9926,-0.34718 -2.0148,-0.59412 -3.0389,-0.82671 -0.9205,-0.21233 -1.8455,-0.40278 -2.7741,-0.57571 -0.908,-0.16343 -1.8223,-0.2867 -2.7362,-0.41135 -0.9356,-0.12962 -1.8759,-0.22016 -2.8174,-0.29194 -0.9241,-0.0723 -1.8504,-0.10189 -2.7768,-0.12081 -1.0288,-0.0243 -2.0553,0.047 -3.0778,0.15267 -0.939,0.0974 -1.874,0.22886 -2.8038,0.39137 -1.0104,0.18087 -1.9933,0.48082 -2.9695,0.79269 -0.8797,0.27998 -1.7364,0.62508 -2.5889,0.9779 -0.843,0.33999 -1.6619,0.73504 -2.4688,1.15255 -0.7642,0.39359 -1.5054,0.82889 -2.2357,1.2817 -0.7557,0.46609 -1.4847,0.9717 -2.1922,1.50756 -0.6487,0.49377 -1.2683,1.0241 -1.8804,1.56195 -0.5911,0.52112 -1.1612,1.06494 -1.7223,1.61803 -0.611,0.60044 -1.1881,1.23338 -1.7387,1.88928 -0.5096,0.60841 -0.9828,1.24574 -1.4497,1.88712 -0.4756,0.65063 -0.9124,1.32746 -1.3284,2.01734 -0.3869,0.65132 -0.7313,1.32598 -1.0551,2.01044 -0.5214,1.00197 -0.8244,2.07748 -1.0024,3.1882 -0.1008,0.78711 -0.095,1.5817 -0.068,2.37305 0.022,0.74215 0.126,1.47706 0.26,2.20612 0.1242,0.67103 0.3064,1.32826 0.5142,1.97757 0.2142,0.69554 0.5053,1.36184 0.8251,2.01422 0.3073,0.60947 0.6827,1.18007 1.0748,1.73739 0.5075,0.73107 1.1264,1.37025 1.7982,1.95016 0.5664,0.49218 1.1941,0.90305 1.8382,1.28453 0.7076,0.42143 1.4644,0.7379 2.2409,1.00587 0.6789,0.2209 1.3806,0.35194 2.0851,0.45746 0.6427,0.0901 1.2897,0.13581 1.9382,0.15092 0.6737,0.0145 1.3449,-0.0457 2.0131,-0.12393 0.715,-0.0834 1.414,-0.25805 2.1052,-0.454 0.6861,-0.20156 1.3507,-0.46408 1.9976,-0.76769 0.7344,-0.34226 1.41,-0.78825 2.0587,-1.27005 0.5641,-0.4191 1.0755,-0.90144 1.5703,-1.3987 0.5635,-0.56456 1.0473,-1.19713 1.4925,-1.85689 0.3582,-0.55502 0.6548,-1.14573 0.9383,-1.74133 1.6659,-3.4979 -8.2276,-8.20979 -9.8935,-4.71189 v 0 c -0.061,0.1274 -0.1541,0.3157 -0.2035,0.41098 0.1002,-0.12708 -0.093,0.12848 -0.1196,0.12906 -0.1379,0.13719 -0.2762,0.27422 -0.4203,0.40474 -0.043,0.0395 -0.101,0.0837 -0.1338,0.12163 -0.061,0.0323 -0.2261,0.10678 -0.3539,0.1379 -0.124,0.0417 -0.2529,0.0658 -0.3774,0.10506 -0.1588,0.0241 -0.3202,0.0385 -0.4803,0.0477 -0.1747,0 -0.3485,-0.006 -0.521,-0.038 -0.1219,-0.0177 -0.2437,-0.0385 -0.3662,-0.0512 0.1952,0.0837 0.2553,0.14049 0.027,0.003 -0.093,-0.0555 -0.1874,-0.10914 -0.2712,-0.17848 -0.095,-0.0797 0.018,0.0494 0.023,0.0942 -0.09,-0.13039 -0.1737,-0.26635 -0.2628,-0.39619 0.035,0.11137 -0.1467,-0.35276 -0.1354,-0.36057 -0.062,-0.20857 -0.123,-0.41854 -0.1606,-0.63304 -0.033,-0.19317 -0.07,-0.38725 -0.082,-0.5824 0,-0.17849 0.01,-0.41849 0,-0.56497 -0.06,0.25292 -0.1499,0.47829 -0.24,0.72208 -0.014,0.0361 0.032,-0.07 0.049,-0.10465 0.044,-0.0892 0.1356,-0.26984 0.1791,-0.3557 0.2004,-0.37111 0.4094,-0.73763 0.6389,-1.09167 0.2689,-0.42416 0.5446,-0.8445 0.8445,-1.24751 0.3361,-0.45493 0.6862,-0.89935 1.0436,-1.33766 0.3097,-0.38081 0.6264,-0.7561 0.9787,-1.09881 0.3847,-0.38275 0.7838,-0.7507 1.1982,-1.1012 0.4342,-0.37033 0.8668,-0.74345 1.3227,-1.08717 0.4036,-0.30745 0.8078,-0.61537 1.251,-0.86484 0.4891,-0.29157 0.98,-0.58092 1.4873,-0.84021 0.5123,-0.25374 1.0278,-0.50277 1.5635,-0.70395 0.5982,-0.22974 1.1965,-0.45996 1.8024,-0.6685 0.5475,-0.17029 1.102,-0.31512 1.6514,-0.47874 0.5834,-0.13147 1.1799,-0.16983 1.7744,-0.22193 0.5797,-0.0476 1.16,-0.10975 1.7424,-0.10102 0.713,0.0204 1.4248,0.0666 2.1358,0.12232 0.7348,0.0629 1.4701,0.12263 2.2016,0.21786 0.749,0.10091 1.4952,0.2214 2.2411,0.34234 0.7264,0.12584 1.4473,0.27916 2.1614,0.46281 0.6714,0.16838 1.3431,0.33703 2.0093,0.52512 0.6253,0.17777 1.2106,0.4704 1.8139,0.70895 0.5899,0.25993 1.1699,0.53893 1.7251,0.86812 0.5754,0.33002 1.1443,0.67099 1.6957,1.04013 0.6054,0.41762 1.2028,0.8463 1.7969,1.27974 0.5598,0.41503 1.1071,0.84672 1.6556,1.27651 0.4874,0.40955 0.9577,0.83902 1.4195,1.2772 0.5033,0.51138 0.9794,1.04814 1.4614,1.57943 0.4801,0.52832 0.9312,1.08055 1.3659,1.64684 0.3911,0.49311 0.7995,0.97549 1.127,1.51485 0.3956,0.63243 0.7949,1.26304 1.1595,1.91405 0.3995,0.70199 0.7807,1.41419 1.1605,2.12701 0.3237,0.61706 0.643,1.2373 0.9298,1.87245 0.2678,0.65829 0.5111,1.32636 0.7349,2.00086 0.2214,0.69419 0.4085,1.39796 0.5916,2.10312 0.1855,0.72454 0.3138,1.46116 0.4457,2.19697 0.1187,0.70006 0.2356,1.40105 0.3002,2.10862 0.058,0.69448 0.1111,1.39124 0.1123,2.08839 -0.013,0.77959 -0.041,1.55866 -0.079,2.33746 -0.043,0.78748 -0.095,1.57435 -0.1703,2.3595 -0.065,0.74795 -0.1458,1.49466 -0.257,2.23726 -0.1066,0.70959 -0.2296,1.41653 -0.3802,2.11826 -0.1549,0.73247 -0.3241,1.46187 -0.5043,2.18855 -0.1869,0.74785 -0.3677,1.49725 -0.5687,2.24152 -0.2013,0.74459 -0.4043,1.48874 -0.6106,2.232 -0.2086,0.74729 -0.4263,1.49183 -0.652,2.23414 -0.2206,0.74049 -0.4514,1.4777 -0.6877,2.21332 -0.2244,0.6994 -0.4456,1.39991 -0.7051,2.08746 -0.2449,0.66432 -0.5042,1.32339 -0.7814,1.9749 -0.2522,0.60598 -0.5313,1.20018 -0.8306,1.78441 -0.3002,0.57779 -0.6045,1.15326 -0.9427,1.7101 -0.3527,0.58177 -0.7115,1.15994 -1.0846,1.72892 -0.3625,0.55169 -0.7362,1.09604 -1.13,1.62605 -0.3902,0.52877 -0.7774,1.05974 -1.183,1.57695 -0.3943,0.49678 -0.7998,0.98475 -1.2237,1.45671 -0.4156,0.46578 -0.8406,0.92279 -1.2765,1.3697 -0.4365,0.43722 -0.8759,0.87154 -1.3328,1.28762 -0.4064,0.37878 -0.817,0.75282 -1.2569,1.09294 -0.4091,0.32419 -0.8177,0.64984 -1.2474,0.94663 -0.4089,0.28067 -0.8358,0.53099 -1.269,0.77234 -0.409,0.23257 -0.8318,0.43717 -1.2671,0.61619 -0.464,0.1974 -0.9332,0.38415 -1.4112,0.54528 -0.4725,0.16052 -0.9535,0.29234 -1.439,0.40809 -0.4273,0.10269 -0.8582,0.19392 -1.2954,0.24249 -0.4602,0.0465 -0.9217,0.087 -1.3849,0.0807 -0.573,-0.003 -1.1459,-0.0151 -1.7181,-0.0485 -0.598,-0.0286 -1.195,-0.0696 -1.7914,-0.1229 -0.5851,-0.0487 -1.1688,-0.11081 -1.7498,-0.19566 -0.5932,-0.0859 -1.1846,-0.18402 -1.7741,-0.29255 -0.5944,-0.11673 -1.1825,-0.26302 -1.7644,-0.43151 -0.6772,-0.18769 -1.3506,-0.38899 -2.0216,-0.59764 -0.6771,-0.21852 -1.3521,-0.44413 -2.0224,-0.6826 -0.6539,-0.23593 -1.301,-0.49088 -1.9451,-0.7525 -0.6554,-0.27686 -1.3089,-0.55851 -1.9531,-0.86111 -0.5976,-0.27559 -1.2013,-0.5398 -1.7801,-0.85423 -0.5892,-0.31314 -1.1659,-0.64924 -1.7364,-0.99523 -0.5648,-0.35468 -1.1322,-0.70618 -1.6831,-1.08218 -0.5735,-0.40227 -1.1466,-0.80531 -1.7105,-1.22094 -0.5643,-0.41969 -1.1111,-0.86157 -1.6599,-1.30112 -0.5475,-0.44257 -1.091,-0.89014 -1.6176,-1.35763 -0.5254,-0.46511 -1.0295,-0.95353 -1.529,-1.44629 -0.5042,-0.49816 -1.0099,-0.99515 -1.5016,-1.50577 -0.4085,-0.43095 -0.8141,-0.86622 -1.1701,-1.34263 -0.3721,-0.48969 -0.7229,-0.99541 -1.073,-1.50101 -0.3731,-0.59224 -0.7422,-1.18692 -1.0977,-1.78993 -0.3523,-0.59679 -0.6992,-1.19729 -1.0127,-1.8156 -0.3598,-0.69826 -0.7186,-1.39708 -1.0663,-2.10145 -0.3656,-0.72729 -0.7162,-1.4619 -1.0708,-2.19459 -0.3794,-0.79197 -0.7568,-1.5849 -1.1382,-2.3759 -0.3965,-0.81807 -0.7937,-1.63581 -1.1897,-2.45417 -0.4163,-0.85312 -0.837,-1.70415 -1.2616,-2.5532 -0.4339,-0.87239 -0.875,-1.74115 -1.3389,-2.59803 -0.4343,-0.79229 -0.8488,-1.59522 -1.2652,-2.39699 -0.4156,-0.8047 -0.8329,-1.60872 -1.2678,-2.40318 -0.4219,-0.78073 -0.8542,-1.55575 -1.269,-2.34035 -0.4279,-0.79597 -0.8698,-1.58414 -1.312,-2.37223 -0.4563,-0.81891 -0.9259,-1.63031 -1.4055,-2.43575 -0.4934,-0.80269 -0.9888,-1.60425 -1.5,-2.3957 -0.5085,-0.78666 -1.023,-1.5694 -1.5648,-2.33373 -0.5433,-0.77224 -1.0994,-1.5354 -1.6789,-2.2811 -0.5558,-0.72393 -1.112,-1.44807 -1.6973,-2.14866 -0.5767,-0.70482 -1.1684,-1.39716 -1.7655,-2.0847 -0.6008,-0.68808 -1.2011,-1.37655 -1.8118,-2.05581 -0.6133,-0.67474 -1.2236,-1.35205 -1.8502,-2.01449 -0.6402,-0.68125 -1.2778,-1.36493 -1.9419,-2.02324 -0.6928,-0.69001 -1.3988,-1.36639 -2.1293,-2.01668 -0.7363,-0.65413 -1.489,-1.28937 -2.2732,-1.88587 -0.7545,-0.57087 -1.5131,-1.13668 -2.2972,-1.66656 -0.7906,-0.53851 -1.5873,-1.06968 -2.4182,-1.54485 -0.801,-0.45545 -1.6172,-0.88328 -2.4401,-1.29786 -0.8128,-0.40637 -1.6356,-0.79177 -2.48,-1.12887 -0.7978,-0.32721 -1.601,-0.64206 -2.4163,-0.92337 -0.8087,-0.27567 -1.6228,-0.53483 -2.4423,-0.77687 -0.841,-0.24246 -1.6873,-0.46527 -2.5409,-0.65921 -0.8847,-0.20071 -1.7726,-0.38642 -2.6688,-0.52882 -0.9596,-0.15288 -1.9236,-0.28144 -2.8935,-0.347 -0.9758,-0.061 -1.953,-0.0865 -2.9307,-0.0586 -0.9884,0.0222 -1.9761,0.0785 -2.9576,0.20206 -1.0213,0.12536 -2.0406,0.28035 -3.0405,0.52724 -1.02,0.2482 -2.0286,0.53951 -3.0103,0.91416 -0.9748,0.36465 -1.9361,0.7634 -2.8615,1.2419 -0.9442,0.47323 -1.8774,0.97168 -2.7658,1.54435 -0.9544,0.62454 -1.8951,1.27476 -2.762,2.01821 -0.8451,0.74232 -1.6425,1.53421 -2.3991,2.36691 -0.7316,0.80476 -1.4365,1.63335 -2.0899,2.50333 -0.6639,0.87029 -1.3205,1.74699 -1.9202,2.66332 -0.6135,0.93869 -1.2025,1.8932 -1.7647,2.86356 -0.576,1.0028 -1.1308,2.01811 -1.6447,3.05435 -0.5113,1.03219 -1.0141,2.06891 -1.4815,3.12187 -0.4736,1.10445 -0.935,2.21464 -1.3399,3.34645 -0.401,1.15922 -0.7651,2.33085 -1.0636,3.52102 -0.2953,1.17441 -0.5787,2.35326 -0.7573,3.55214 -0.1791,1.11498 -0.3415,2.23245 -0.4783,3.35349 -0.1382,1.17091 -0.2586,2.34389 -0.3297,3.5211 -0.065,1.14387 -0.1133,2.28865 -0.1342,3.43427 -0.028,1.16845 -0.028,2.33719 0.015,3.50541 0.048,1.19385 0.1171,2.38707 0.2477,3.57513 0.1288,1.13405 0.2648,2.26761 0.4418,3.39531 0.1899,1.15388 0.4043,2.30392 0.6644,3.44419 0.2492,1.10252 0.5192,2.20017 0.8162,3.29081 0.304,1.09739 0.6251,2.18969 0.9801,3.27181 0.3408,1.0504 0.6974,2.09571 1.0779,3.13243 0.39,1.04598 0.792,2.08775 1.231,3.11422 0.4381,1.01537 0.8991,2.02081 1.387,3.01329 0.4765,0.98608 0.9533,1.97295 1.485,2.93082 0.5383,0.95567 1.0755,1.91272 1.6752,2.83194 0.5565,0.85344 1.124,1.70013 1.7268,2.5218 0.597,0.80584 1.2161,1.59498 1.8718,2.35418 0.6421,0.73303 1.3002,1.45283 2.0025,2.1291 0.7576,0.72377 1.5527,1.40623 2.4089,2.01216 0.8503,0.60116 1.7206,1.17509 2.6561,1.63726 0.867,0.42921 1.7485,0.8308 2.6613,1.15388 0.9495,0.32612 1.914,0.60738 2.9005,0.79907 1.0197,0.20492 2.0483,0.37573 3.0913,0.39155 0.9122,0.013 1.8256,0.004 2.7348,-0.0798 0.8513,-0.0844 1.7039,-0.1728 2.5434,-0.3416 0.8266,-0.17063 1.6431,-0.37949 2.4518,-0.62143 0.6994,-0.20899 1.395,-0.43003 2.0743,-0.69837 0.6241,-0.23817 1.2447,-0.48516 1.8593,-0.74691 0.6452,-0.27954 1.2839,-0.57389 1.9092,-0.89583 0.6801,-0.3592 1.3486,-0.74062 1.9869,-1.17073 0.7425,-0.50464 1.4573,-1.05233 2.0825,-1.7 0.5664,-0.6033 1.0991,-1.2373 1.5452,-1.93643 0.4408,-0.68919 0.8437,-1.40296 1.1417,-2.16718 0.3087,-0.80753 0.5647,-1.63483 0.686,-2.49362 0.1056,-0.772 0.1715,-1.54903 0.1439,-2.32912 -0.041,-1.0109 -0.168,-2.01748 -0.4944,-2.98024 -0.3326,-0.91512 -0.7403,-1.79655 -1.2899,-2.60411 -0.4832,-0.72425 -1.0013,-1.42597 -1.6187,-2.04333 -0.5973,-0.59346 -1.2277,-1.15342 -1.9231,-1.63105 -0.5895,-0.40058 -1.1869,-0.79205 -1.8248,-1.11257 -0.6649,-0.33173 -1.3421,-0.6396 -2.0536,-0.85915 -0.6594,-0.20651 -1.3255,-0.39738 -2.015,-0.473 -0.5008,-0.0594 -1.0029,-0.11126 -1.5076,-0.12128 -0.2934,0.003 -0.5873,0.005 -0.8803,0.0227 -0.1502,0.018 -0.3006,0.0345 -0.4512,0.0495 -3.7736,0 -3.7736,10.6734 0,10.6734 z" /></g></g></svg>
