<?xml version="1.0" encoding="UTF-8" standalone="no"?>
<!-- Created with Inkscape (http://www.inkscape.org/) -->

<svg
   width="157.36908mm"
   height="160.16536mm"
   viewBox="0 0 157.36908 160.16536"
   version="1.1"
   id="svg5"
   xml:space="preserve"
   xmlns="http://www.w3.org/2000/svg"
   xmlns:svg="http://www.w3.org/2000/svg"><defs
     id="defs2" /><g
     id="layer2"
     transform="translate(12.125056,603.88005)"><g
       id="g242"
       transform="translate(119.23018,317.5)"
       style="fill:#ffffff;fill-opacity:1"><path
         style="fill:#ffffff;fill-opacity:1;stroke:none;stroke-width:22.4367;stroke-dasharray:none;stroke-opacity:1"
         id="path177"
         d="m -117.94138,-886.91383 c 0.28309,-0.12623 0.57665,-0.31596 0.8752,-0.51311 0.80828,-0.52395 1.60802,-1.06018 2.43699,-1.55119 1.2798,-0.64471 2.5205,-1.36332 3.79034,-2.02743 1.52717,-0.77552 3.05247,-1.55763 4.63536,-2.21379 2.0444,-0.83558 4.07797,-1.69717 6.12149,-2.53482 2.146898,-0.88503 4.287118,-1.78601 6.434244,-2.67044 1.941901,-0.78023 3.893701,-1.53548 5.863598,-2.24213 1.743051,-0.46006 3.528599,-0.74374 5.317857,-0.94959 1.873962,-0.2268 3.759221,-0.25392 5.643293,-0.19965 1.641218,0.0398 3.25782,0.31406 4.862242,0.63984 1.316697,0.28284 2.591131,0.72546 3.825127,1.25981 0.870444,0.39198 1.688031,0.87096 2.414039,1.49059 0.329113,0.16232 0.752624,1.12167 0.228685,0.29662 -0.05357,0.30925 -0.157517,0.7483 -0.277323,1.09559 -0.350499,1.05944 -0.915715,2.02573 -1.452293,2.99834 -0.871079,1.52714 -1.773076,3.03641 -2.671947,4.54728 -1.105472,1.79234 -2.134143,3.62985 -3.16932,5.46312 -1.033917,1.84888 -2.028377,3.7193 -3.043033,5.57871 -0.998779,1.86026 -2.000205,3.71896 -2.974877,5.59197 -1.013638,1.93307 -1.977991,3.89131 -2.893399,5.87264 -0.946822,2.01599 -1.840135,4.05524 -2.674776,6.12005 -0.854401,2.12847 -1.613913,4.29294 -2.327095,6.47226 -0.692952,2.16522 -1.310907,4.35378 -1.881815,6.55405 -0.621276,2.33799 -1.032126,4.72107 -1.347411,7.11713 -0.308264,2.38411 -0.398828,4.78663 -0.412301,7.1881 -0.0087,2.3659 0.221406,4.72093 0.544457,7.06165 0.310269,2.3023 0.886021,4.54861 1.604307,6.75373 0.711247,2.11375 1.691677,4.11892 2.701091,6.10245 0.894461,1.73268 1.853472,3.43083 2.862167,5.09929 0.61881,1.00711 0.306491,0.50456 0.936998,1.50765 2.10796,3.42029 11.782063,-2.54191 9.674104,-5.96223 v 0 c -0.545804,-0.90583 -0.271325,-0.4463 -0.823172,-1.37872 -0.842113,-1.43912 -1.644163,-2.90277 -2.385372,-4.39655 -0.731139,-1.49344 -1.492319,-2.98072 -2.046465,-4.55144 -0.506704,-1.53099 -0.908463,-3.09052 -1.094179,-4.69665 -0.22983,-1.81067 -0.387969,-3.63241 -0.389329,-5.45907 0.01651,-1.93045 0.08458,-3.86238 0.334653,-5.77879 0.241736,-1.90873 0.562189,-3.8077 1.042754,-5.6724 0.525,-1.98295 1.094894,-3.95348 1.712072,-5.90984 0.6175,-1.92341 1.278112,-3.83249 2.03767,-5.70521 0.760441,-1.87867 1.532434,-3.75351 2.416159,-5.57845 0.864478,-1.83697 1.737831,-3.67006 2.677604,-5.47007 0.917363,-1.80139 1.896999,-3.56965 2.848684,-5.35303 0.988714,-1.81586 1.978403,-3.63122 2.990998,-5.43396 0.99576,-1.77847 1.972083,-3.56785 2.983865,-5.3373 0.962232,-1.66989 1.93788,-3.33301 2.829682,-5.04217 0.887508,-1.74585 1.71918,-3.52808 2.223315,-5.42848 0.525518,-2.15421 0.778777,-4.34358 0.315534,-6.54066 -0.123746,-0.45169 -0.217834,-0.91257 -0.371237,-1.35509 -0.667311,-1.92495 -1.934951,-3.53541 -3.416657,-4.90119 -1.559867,-1.33914 -3.264112,-2.47989 -5.137859,-3.33944 -1.937745,-0.86672 -3.932431,-1.6066 -6.006251,-2.07952 -2.247328,-0.50363 -4.52048,-0.89601 -6.825736,-1.00087 -2.498421,-0.11385 -5.002477,-0.0894 -7.48936,0.20802 -2.631794,0.33179 -5.269198,0.7393 -7.787536,1.60316 -2.125486,0.74832 -4.246142,1.51154 -6.341814,2.3404 -2.206272,0.86924 -4.408082,1.75115 -6.588722,2.68309 -2.16233,0.91863 -4.32782,1.83451 -6.44575,2.85236 -1.76276,0.88046 -3.52757,1.7579 -5.25855,2.69997 -1.47011,0.83196 -2.94516,1.6618 -4.34415,2.61057 -1.00489,0.67788 -2.00676,1.36286 -2.96316,2.10838 -0.75347,0.60227 -1.50675,1.21846 -2.13421,1.95548 -2.61664,2.75437 5.17387,10.15535 7.79052,7.40098 z" /><path
         style="fill:#ffffff;fill-opacity:1;stroke:none;stroke-width:22.4367;stroke-dasharray:none;stroke-opacity:1"
         id="path178"
         d="m 21.905835,-921.33927 c -0.92734,0.18711 -1.821509,0.49107 -2.702123,0.83114 -1.294127,0.50133 -2.494476,1.20388 -3.671799,1.9309 -1.424451,0.87389 -2.739765,1.90233 -4.003314,2.99188 -1.307964,1.12887 -2.5283319,2.35302 -3.723971,3.59863 -1.2602932,1.30463 -2.4576251,2.66689 -3.6366754,4.04463 -1.2229168,1.43425 -2.3952751,2.91018 -3.55222131,4.39782 -1.24972364,1.59224 -2.40483979,3.25308 -3.53803749,4.92908 -1.2614936,1.86421 -2.3891264,3.81254 -3.462438,5.78951 -1.10934,2.05237 -2.0752691,4.17566 -2.9895969,6.32045 -0.9647959,2.26393 -1.7280349,4.60343 -2.4353469,6.95798 -0.783817,2.49979 -1.289153,5.06984 -1.746609,7.64522 -0.448612,2.56098 -0.695487,5.14961 -0.900872,7.7394 -0.200631,2.50087 -0.251345,5.00904 -0.246843,7.51676 0.008,2.46769 0.159829,4.93094 0.343241,7.39074 0.187938,2.54458 0.539902,5.07095 0.945391,7.5886 0.410883,2.51838 0.892372,5.02412 1.452578,7.5134 0.5962,2.59556 1.35959,5.14635 2.1768663,7.67947 0.8027707,2.50291 1.786133,4.93922 2.8019505,7.36132 0.9653447,2.29293 1.9894579,4.55988 3.043575,6.8131 1.0455087,2.17466 1.9684432,4.40497 2.8957217,6.63181 0.89004685,2.08177 1.65871547,4.21058 2.3294781,6.37217 0.5602149,1.80766 0.9473957,3.65906 1.2060513,5.53194 0.1942846,1.42165 0.1556578,2.85519 -0.016591,4.27566 -0.1172024,0.96975 -0.6504149,1.78171 -1.1613852,2.58839 -0.69577362,1.07072 -1.57518986,1.98996 -2.5133277,2.84771 -1.0491238,0.94798 -2.2094585,1.76131 -3.4129443,2.49928 -1.1975245,0.70234 -2.4509942,1.30146 -3.763723,1.75258 -1.4312543,0.46111 -2.9105417,0.728 -4.3963437,0.93617 -1.725558,0.23035 -3.464539,0.34534 -5.202783,0.42543 -1.722238,0.0815 -3.446176,0.0249 -5.165376,-0.0871 -1.7749,-0.12454 -3.54543,-0.30459 -5.311791,-0.51705 -1.743194,-0.24013 -3.482345,-0.5104 -5.218673,-0.79589 -1.687335,-0.27805 -3.358269,-0.63648 -5.024038,-1.02063 -1.684732,-0.37245 -3.354141,-0.80335 -5.018288,-1.25759 -1.688383,-0.45916 -3.357838,-0.98549 -5.012846,-1.55252 -1.826247,-0.61918 -3.6117,-1.34734 -5.395931,-2.07643 -1.88481,-0.73707 -3.702974,-1.61911 -5.494751,-2.5559 -1.931987,-1.01145 -3.822636,-2.09843 -5.700183,-3.2068 -1.974083,-1.20224 -3.934359,-2.42708 -5.902677,-3.63879 -1.939705,-1.19763 -3.883125,-2.38932 -5.830871,-3.57383 -1.928477,-1.16655 -3.889489,-2.27706 -5.862844,-3.36547 -1.821,-0.99352 -3.658489,-1.95662 -5.506686,-2.89846 -2.019522,-1.06207 -4.129529,-1.92379 -6.26732,-2.7132 -2.094643,-0.77729 -4.241054,-1.39075 -6.417128,-1.8901 -2.16563,-0.48911 -4.37336,-0.70371 -6.58841,-0.7674 -2.05862,-0.0649 -4.0987,0.21807 -6.12147,0.56441 -2.12689,0.35475 -4.12074,1.14684 -6.03502,2.11286 -1.73672,0.90392 -3.31319,2.06293 -4.80177,3.32594 -1.58534,1.37504 -2.81759,3.04967 -3.85493,4.85981 -0.79813,1.51567 -1.39978,3.12206 -1.92995,4.74753 -0.52401,1.65632 -0.74556,3.37931 -0.88167,5.10431 -0.12435,1.72932 0.0893,3.45062 0.35253,5.15597 0.22641,1.52225 0.58505,3.01865 1.00113,4.49879 0.46422,1.58289 1.09114,3.10951 1.7989,4.59721 0.81769,1.67979 1.90157,3.20429 3.05292,4.66765 1.26795,1.57006 2.80173,2.88306 4.39491,4.10826 1.6147,1.21806 3.41771,2.13588 5.26268,2.94603 1.66686,0.71999 3.41148,1.22529 5.17374,1.64785 1.63374,0.39421 3.30082,0.59868 4.97269,0.7389 1.60234,0.12079 3.20751,0.0591 4.80666,-0.0687 1.555286,-0.13234 3.084818,-0.43878 4.5879,-0.851 1.765702,-0.48173 3.332147,-1.40341 4.805344,-2.46235 1.362432,-0.97729 2.517259,-2.17532 3.546713,-3.49012 1.099902,-1.46581 1.783733,-3.14962 2.27616,-4.89929 0.432702,-1.66888 0.435359,-3.38447 0.285351,-5.08875 -0.167222,-1.67863 -0.713613,-3.27057 -1.399625,-4.79976 -0.68294,-1.44412 -1.665745,-2.70071 -2.724581,-3.88392 -1.0062,-1.1443 -2.172692,-2.1091 -3.427548,-2.96545 -1.228844,-0.77391 -2.5674,-1.34176 -3.906641,-1.89151 -1.121466,-0.45543 -2.264482,-0.85582 -3.424336,-1.20123 -1.191737,-0.37063 -2.417647,-0.60143 -3.651037,-0.77798 -1.07289,-0.15328 -2.154,-0.23112 -3.2353,-0.29366 -1.06173,-0.0579 -2.12474,-0.0536 -3.18711,-0.0233 -0.18201,0.009 -0.36401,0.0185 -0.54601,0.0276 -3.88356,0.17685 -3.38337,11.16118 0.50018,10.98436 v 0 c 0.11236,-0.004 0.22472,-0.008 0.33707,-0.0127 0.75009,-0.018 1.50076,-0.0282 2.25035,0.014 0.7566,0.0452 1.51437,0.0893 2.26343,0.21158 0.68625,0.10774 1.37645,0.2159 2.03935,0.42958 0.81242,0.25961 1.61331,0.55293 2.39876,0.88591 0.727474,0.30673 1.442624,0.64005 2.16101,0.96612 0.500713,0.20333 0.819163,0.67347 1.193414,1.04122 0.327014,0.36168 0.658698,0.72424 0.920961,1.13718 0.189495,0.35295 0.314145,0.73871 0.403387,1.12844 0.03838,0.42852 0.102857,0.85749 0.03217,1.28612 -0.03537,0.34917 -0.211166,0.68323 -0.382325,0.98353 -0.332574,0.49684 -0.800844,0.88514 -1.26999,1.24788 -0.372962,0.28123 -0.740476,0.58883 -1.19702,0.71951 -0.824828,0.22519 -1.667757,0.36007 -2.519487,0.43569 -0.99962,0.0752 -2.00196,0.11356 -3.00325,0.0369 -1.09585,-0.0911 -2.18412,-0.24665 -3.25461,-0.5034 -1.11942,-0.27585 -2.22707,-0.59581 -3.28524,-1.06058 -1.03278,-0.45223 -2.04756,-0.95351 -2.96116,-1.62105 -0.8888,-0.6563 -1.74804,-1.36546 -2.48949,-2.18758 -0.66236,-0.75207 -1.20308,-1.61133 -1.71713,-2.46911 -0.45415,-0.89485 -0.82795,-1.82608 -1.12515,-2.78506 -0.3013,-1.01023 -0.54062,-2.03711 -0.6964,-3.08047 -0.12911,-0.8745 -0.26974,-1.75688 -0.26679,-2.64236 0.0574,-0.84715 0.15727,-1.69709 0.38835,-2.51635 0.28745,-0.92128 0.66452,-1.81213 1.07483,-2.68504 0.35551,-0.68332 0.81812,-1.27797 1.39873,-1.79004 0.79489,-0.699 1.66214,-1.31384 2.59611,-1.81443 0.87308,-0.45572 1.77374,-0.8531 2.75665,-1.00079 1.29057,-0.20606 2.58945,-0.38825 3.90059,-0.34139 1.46483,0.0534 2.91937,0.22045 4.35169,0.54163 1.69653,0.40182 3.36214,0.91717 4.985107,1.55665 1.699374,0.63624 3.423081,1.22682 5.031272,2.07748 1.721191,0.90006 3.427619,1.82824 5.115414,2.78958 1.83792,1.04653 3.67216,2.09997 5.482384,3.19397 1.916041,1.16546 3.81209,2.36357 5.702877,3.56949 2.045065,1.28233 4.101258,2.54693 6.178668,3.77635 2.072291,1.20367 4.146902,2.40654 6.276915,3.50612 2.120624,1.06966 4.276391,2.06616 6.487276,2.93683 2.025092,0.80256 4.060446,1.5803 6.136531,2.24284 1.851861,0.58529 3.71062,1.14919 5.583809,1.6627 1.826355,0.49924 3.660378,0.96914 5.501735,1.41007 1.887276,0.41941 3.785444,0.78856 5.689936,1.1212 1.882797,0.31191 3.762296,0.65061 5.657877,0.87802 2.010907,0.26061 4.023692,0.51778 6.049481,0.63216 2.116301,0.11637 4.235034,0.18183 6.354019,0.0825 2.118067,-0.0897 4.235667,-0.22664 6.336541,-0.52128 2.26799,-0.33327 4.5177357,-0.79843 6.6809404,-1.57348 2.0258779,-0.7657 4.00108681,-1.66142 5.8542659,-2.78966 1.8176548,-1.13591 3.5796744,-2.36326 5.1599219,-3.81876 1.680759,-1.56953 3.2322278,-3.27197 4.4612838,-5.2261 1.352668,-2.21872 2.461301,-4.56504 2.787826,-7.17568 0.298957,-2.37353 0.432923,-4.76724 0.141636,-7.15124 -0.303933,-2.51116 -0.749497,-5.00433 -1.470078,-7.43299 -0.747592,-2.5472 -1.625618,-5.05225 -2.64901,-7.50266 -0.985961,-2.39935 -2.040628,-4.76705 -3.1717469,-7.10189 -0.9805749,-2.08836 -1.952631,-4.18106 -2.8201077,-6.31971 -0.8698645,-2.13712 -1.7332843,-4.28072 -2.4439561,-6.47705 -0.70867598,-2.21877 -1.37786795,-4.45109 -1.92338289,-6.7164 -0.52416201,-2.22705 -0.98008831,-4.46926 -1.32606541,-6.7315 -0.3476516,-2.19956 -0.6948387,-4.40216 -0.8724479,-6.62339 -0.1674225,-2.17729 -0.3033413,-4.35788 -0.3029296,-6.54267 -0.00847,-2.17842 0.032895,-4.3569 0.219652,-6.52862 0.1897667,-2.22764 0.4372656,-4.45109 0.7931476,-6.65885 0.3730978,-2.13053 0.7553709,-4.2667 1.36417894,-6.3449 0.58381643,-1.96275 1.20546917,-3.91609 1.97633686,-5.81488 0.7393909,-1.80599 1.5482361,-3.58415 2.4774819,-5.30137 0.8967409,-1.6728 1.8244579,-3.33121 2.8476537,-4.93062 0.9555308,-1.4683 1.9510695,-2.9097 3.0140222,-4.30286 1.0428403,-1.36274 2.1177983,-2.69968 3.2221833,-4.01315 1.020576,-1.22359 2.039386,-2.45047 3.129671,-3.61326 0.947433,-1.01078 1.925519,-1.99382 2.952625,-2.92407 0.820933,-0.73943 1.655311,-1.46703 2.583704,-2.07131 0.673511,-0.45715 1.370147,-0.87527 2.060558,-1.30525 0.09298,-0.0551 1.13238,-0.54729 0.480992,-0.34988 3.713015,-0.77356 1.5251,-11.27554 -2.187916,-10.502 z" /><path
         style="fill:#ffffff;fill-opacity:1;stroke:none;stroke-width:22.4367;stroke-dasharray:none;stroke-opacity:1"
         id="path179"
         d="m -34.422958,-850.8231 c -0.57349,-0.25114 -1.173829,-0.42884 -1.778474,-0.5864 -0.836165,-0.22587 -1.6979,-0.30276 -2.559745,-0.34615 -0.976535,-0.0279 -1.946384,0.0735 -2.9083,0.23106 -1.277538,0.21119 -2.468716,0.69863 -3.614135,1.2854 -1.052419,0.56409 -2.017138,1.2701 -2.94192,2.02107 -1.072303,0.86355 -1.96446,1.91598 -2.814376,2.99164 -0.862049,1.08636 -1.552625,2.28841 -2.206725,3.50679 -0.726162,1.36126 -1.243949,2.8122 -1.668172,4.29117 -0.358629,1.35057 -0.570484,2.7332 -0.724828,4.12009 -0.159298,1.33086 -0.13225,2.6714 -0.03677,4.00513 0.08084,1.47069 0.477239,2.88142 1.005175,4.24715 0.593884,1.49108 1.536864,2.77056 2.621114,3.93663 1.023863,1.06339 2.257919,1.86436 3.543088,2.57095 1.206452,0.66866 2.505512,1.10832 3.840962,1.43063 1.485349,0.3396 2.989079,0.31695 4.490182,0.12851 1.373791,-0.22362 2.664677,-0.75025 3.916683,-1.33861 1.242997,-0.58785 2.348595,-1.39927 3.388897,-2.28861 0.999694,-0.88268 1.83619,-1.91897 2.596324,-3.00908 0.79768,-1.15137 1.348021,-2.43449 1.820469,-3.74545 0.430643,-1.23372 0.672224,-2.52063 0.857049,-3.81074 0.162107,-1.23089 0.206197,-2.47263 0.210383,-3.71279 0.0016,-1.251 -0.104629,-2.49737 -0.265972,-3.73681 -0.142333,-1.23767 -0.390486,-2.45751 -0.664909,-3.6715 -0.302117,-1.25036 -0.708017,-2.4712 -1.145109,-3.67979 -0.419253,-1.1457 -0.926001,-2.25476 -1.468112,-3.34659 -0.555834,-1.10677 -1.232003,-2.14489 -1.948584,-3.15269 -0.111416,-0.14748 -0.22283,-0.29499 -0.334246,-0.44246 -2.309185,-3.1264 -11.151925,3.40497 -8.84274,6.53137 v 0 c 0.06262,0.0881 0.125246,0.17626 0.18787,0.26442 0.375047,0.53647 0.728176,1.08858 1.025139,1.67283 0.351237,0.72483 0.694513,1.4546 0.962218,2.21538 0.287375,0.80809 0.538419,1.62835 0.767884,2.45473 0.206701,0.84486 0.379286,1.69968 0.483145,2.56373 0.09906,0.78811 0.202518,1.57705 0.197663,2.37323 0.01426,0.71544 -0.02326,1.43214 -0.08865,2.14453 -0.07783,0.59219 -0.173276,1.18602 -0.354703,1.75644 -0.114197,0.3951 -0.252138,0.78293 -0.482876,1.12636 -0.22452,0.35284 -0.475294,0.68532 -0.787246,0.96721 -0.240345,0.25767 -0.543187,0.45423 -0.854258,0.61547 -0.281299,0.14163 -0.614558,0.24133 -0.862279,0.41894 0.223438,0.0341 -0.138705,0.0526 -0.31954,0.006 -0.36861,-0.0649 -0.717468,-0.20302 -1.041718,-0.38944 -0.32022,-0.17346 -0.64889,-0.33891 -0.928558,-0.5756 -0.141179,-0.0645 -0.241003,-0.2004 -0.312671,-0.3328 -0.13558,-0.28802 -0.208338,-0.58975 -0.215048,-0.91016 -0.03446,-0.65151 -0.04284,-1.30609 0.03485,-1.9552 0.115419,-0.84103 0.267009,-1.67647 0.45485,-2.50449 0.172956,-0.70194 0.422815,-1.38038 0.738047,-2.03152 0.342969,-0.65532 0.686089,-1.31763 1.124133,-1.91535 0.33583,-0.44061 0.685361,-0.87161 1.051735,-1.28717 0.37403,-0.31006 0.760978,-0.60309 1.164526,-0.874 0.144701,-0.0966 0.212516,-0.19367 0.396595,-0.23018 0.241294,-0.0606 0.491307,-0.0761 0.741968,-0.087 0.11316,-0.0116 0.05523,-0.0571 0.334158,-0.0212 0.07917,0 0.07082,0.0175 0.06158,-0.029 3.48805,1.46865 7.642027,-8.39705 4.153977,-9.8657 z" /></g></g></svg>
