<?xml version="1.0" encoding="UTF-8" standalone="no"?>
<!-- Created with Inkscape (http://www.inkscape.org/) -->

<svg
   width="154.20551mm"
   height="93.462776mm"
   viewBox="0 0 154.20551 93.462776"
   version="1.1"
   id="svg5"
   xml:space="preserve"
   xmlns="http://www.w3.org/2000/svg"
   xmlns:svg="http://www.w3.org/2000/svg"><defs
     id="defs2" /><g
     id="layer1"
     transform="translate(1210.7487,884.025)"><path
       style="fill:#ffffff;fill-opacity:1;stroke:none;stroke-width:0.956444;stroke-opacity:1"
       d="m -1201.7191,-792.03375 c -4.7796,-3.00155 -7.7512,-9.30869 -8.6688,-18.39922 -2.052,-20.32954 4.682,-41.45986 19.326,-60.63956 5.9619,-7.80842 8.5549,-9.75977 12.9682,-9.75977 3.7826,0 10.4291,3.88499 11.0922,6.48368 0.2593,1.01904 1.0369,2.1221 1.7263,2.45123 3.0442,1.45291 0.7092,10.35653 -3.3624,12.82172 l -2.6731,1.61849 -0.2723,-3.95402 c -0.282,-4.10587 -3.7358,-9.82081 -5.934,-9.82081 -1.9399,0 -6.5749,3.37111 -7.9184,5.759 -0.6933,1.23267 -2.1613,3.36883 -3.262,4.74704 -2.2439,2.8099 -5.3393,11.76912 -5.3393,15.45423 0,1.32765 -0.328,2.8699 -0.7287,3.42728 -1.7324,2.40965 -3.7695,11.24829 -4.4087,19.13086 -0.636,7.84351 -0.5254,8.92254 1.3966,13.64077 2.8352,6.9593 4.7387,7.88336 10.7902,5.23789 3.3034,-1.44416 5.0751,-1.7544 5.6854,-0.99546 1.843,2.29235 10.4797,-5.26105 14.4978,-12.6795 1.725,-3.18475 6.5684,-15.43203 8.1683,-20.65446 1.3714,-4.47663 2.7317,-6.716 9.7802,-16.0987 4.8745,-6.489 10.2219,-11.47265 15.3758,-14.32977 2.7765,-1.53916 6.2641,-3.4826 7.7505,-4.31882 1.4861,-0.8363 3.1152,-1.52046 3.6201,-1.52046 0.5047,0 3.148,-1.23162 5.8735,-2.73694 5.8839,-3.24964 17.3728,-6.84541 21.9057,-6.85588 4.9581,-0.0121 13.6826,3.25136 16.0147,5.98921 1.9447,2.28309 2.006,2.66513 0.8699,5.42982 -0.6722,1.63566 -1.9317,4.22041 -2.7994,5.74392 -0.9902,1.73956 -1.4735,4.12043 -1.2985,6.40018 0.2269,2.947 0.682,3.6987 2.4225,3.99413 2.4945,0.42345 5.1455,3.06904 5.1455,5.13492 0,2.23682 2.7253,1.69416 6.1873,-1.23203 1.7353,-1.46675 3.4399,-2.66676 3.7883,-2.66676 0.3485,0 1.5069,-1.02076 2.5746,-2.26835 2.3048,-2.69319 4.222,-2.09953 4.7717,1.47768 0.8486,5.52238 -3.3155,11.86146 -8.6525,13.17116 -1.6971,0.41647 -4.3754,2.49159 -6.4319,4.98324 -1.9383,2.3483 -4.9433,5.44322 -6.678,6.87758 l -3.1544,2.60794 1.5954,4.62907 c 2.7038,7.84612 3.4934,12.47103 2.4069,14.09948 -0.7497,1.12365 -0.5393,1.82548 0.9322,3.10741 1.3153,1.14603 1.8196,2.52739 1.6372,4.48618 -0.2366,2.56025 -0.6483,2.86112 -4.2976,3.15342 -4.1138,0.32939 -7.2543,-1.31745 -10.2112,-5.35504 -2.5334,-3.45946 -8.31,-5.81581 -24.3759,-9.94351 -6.2131,-1.59631 -6.8089,-1.56228 -18.4077,1.05073 -10.1159,2.27887 -15.6753,4.41567 -25.4283,9.7734 -1.4864,0.81652 -3.1634,1.48453 -3.7268,1.48453 -0.5633,0 -2.0487,0.69908 -3.3008,1.5535 -1.2518,0.85443 -4.5916,2.84423 -7.4215,4.42175 -4.7426,2.64363 -7.1,3.1874 -22.7261,5.24263 -2.6471,0.34793 -4.7905,-0.0775 -6.8247,-1.35501 z m 51.1728,-25.71672 c 4.085,-1.97695 10.348,-4.00213 15.254,-4.93233 1.4148,-0.2681 5.467,-1.25786 9.0045,-2.19897 8.4441,-2.24644 16.7106,-1.49806 25.5771,2.31561 3.8152,1.64102 7.2205,2.63079 7.567,2.19953 0.3468,-0.43129 0.107,-2.57217 -0.5355,-4.75747 -2.3839,-8.12536 -0.877,-36.69727 2.254,-42.73369 0.7111,-1.37095 1.0531,-2.79077 0.7601,-3.15518 -1.2392,-1.54121 -12.4626,-0.4078 -18.0998,1.82781 -9.1348,3.62281 -19.1289,8.7299 -22.2671,11.37892 -1.5581,1.31523 -4.2609,3.23429 -6.0067,4.26448 -3.6039,2.12741 -11.968,14.1311 -12.8259,18.40764 -0.3144,1.56012 -1.6968,6.03714 -3.075,9.94894 -2.3911,6.7863 -2.981,9.42149 -2.1091,9.42149 0.2172,0 2.2446,-0.89405 4.5024,-1.98678 z m 69.4986,-21.64402 c 0.6804,-0.84632 0.7244,-1.84471 0.1426,-3.2001 -1.2777,-2.96988 -2.5022,-2.36793 -2.5022,1.23012 0,3.38373 0.7328,3.99522 2.3609,1.96998 z"
       id="path919-6" /><path
       style="fill:#ffffff;fill-opacity:1;stroke:none;stroke-width:1.05528;stroke-opacity:1"
       d="m -928.26396,-763.17646 c -4.1103,-3.50197 -6.3248,-7.33441 -9.8292,-17.01041 -3.725,-10.2851 -5.4066,-22.98389 -5.2117,-39.35537 0.1142,-9.51696 -0.1305,-11.56796 -1.2967,-10.89095 -0.7898,0.4587 -4.2375,2.55917 -7.6615,4.66764 -3.424,2.10847 -8.6484,4.42772 -11.6096,5.15384 -3.0888,0.75738 -6.0162,2.22593 -6.8668,3.4447 -0.8151,1.16848 -2.5314,3.26485 -3.8134,4.65867 -8.942,9.72176 -14.5072,28.64906 -11.1985,38.08779 1.5054,4.29457 1.4671,4.60592 -0.8515,6.96723 -4.1131,4.18869 -11.7612,2.46929 -11.7612,-2.64414 0,-5.806 -19.72744,-10.5565 -42.33284,-10.19389 -7.3268,0.11743 -13.9074,-0.13303 -14.6238,-0.55662 -1.9165,-1.13298 -1.5226,-4.95933 0.7821,-7.60183 5.1835,-5.94363 15.9188,-5.9688 44.8463,-0.10533 2.9669,0.60141 6.5006,1.75814 7.8524,2.5706 3.24214,1.94829 4.12864,1.25794 4.98824,-3.88327 1.3346,-7.9848 12.0675,-28.78755 14.8529,-28.78755 1.6809,0 0.9024,-5.61156 -1.7142,-12.36067 -3.7951,-9.78657 -7.3827,-23.12874 -7.7223,-28.71691 -0.1631,-2.67008 -0.6451,-11.20811 -1.0729,-18.97344 -0.4277,-7.76529 -1.1286,-14.66174 -1.5576,-15.32545 -0.5122,-0.79295 -2.9988,0.86298 -7.25094,4.82907 -7.4243,6.92419 -10.8785,9.65381 -17.1712,13.56977 -2.4641,1.53331 -6.7192,4.62593 -9.4553,6.87246 l -4.9756,4.08461 7.4781,7.26945 c 18.0543,17.54998 20.3081,20.12031 21.6443,24.68691 1.1687,3.99367 1.092,4.89348 -0.6406,7.49505 -2.5559,3.83802 -3.5614,4.46989 -7.1433,4.48897 -2.8087,0.0156 -2.9669,-0.23719 -2.9669,-4.72834 0,-4.54733 -0.3466,-5.07309 -8.3613,-12.67238 -4.5988,-4.3605 -10.7838,-9.7735 -13.7446,-12.02885 -2.9608,-2.25538 -6.3424,-4.92488 -7.5144,-5.93232 -1.1723,-1.0074 -2.7903,-1.58965 -3.5956,-1.2939 -0.8058,0.29571 -2.3851,0.0663 -3.5101,-0.50961 -1.7204,-0.88069 -1.8672,-1.49583 -0.9248,-3.867 0.6161,-1.55084 1.0863,-2.93579 1.0447,-3.07772 -0.462,-1.57089 0.8812,-2.61769 6.3974,-4.98597 3.5603,-1.52864 6.4734,-3.18036 6.4734,-3.67054 0,-0.49018 0.5366,-0.89122 1.1927,-0.89122 0.6561,0 2.6354,-1.16123 4.3982,-2.58048 1.7631,-1.41924 3.7787,-2.58047 4.4793,-2.58047 1.1083,0 9.4675,-6.44821 17.9805,-13.8702 3.9835,-3.4727 16.47554,-16.9774 18.32144,-19.80646 2.0001,-3.06562 4.1356,-3.10139 7.6106,-0.12756 1.4924,1.27732 4.5115,3.20313 6.7094,4.27958 2.1975,1.07649 4.2812,2.81829 4.6302,3.87071 0.3507,1.05242 1.0875,1.91353 1.6413,1.91353 0.5533,0 1.0059,0.61576 1.0059,1.36833 0,0.75262 1.214,2.45927 2.6974,3.79257 1.4835,1.33334 2.697,2.92717 2.697,3.54188 0,0.61467 2.0633,3.52604 4.5854,6.46967 4.2819,4.99814 8.3612,13.40022 8.3612,17.22189 0,0.91728 0.4857,1.66779 1.079,1.66779 0.5933,0 1.0838,-0.34837 1.0904,-0.77415 0,-0.83762 8.1051,-11.60038 11.7653,-15.64628 1.2367,-1.36729 2.2488,-3.06247 2.2488,-3.76713 0,-2.38218 11.6874,-11.55739 16.8767,-13.24898 10.5881,-3.45168 16.4722,-1.13349 12.085,4.76123 -1.1752,1.57888 -2.953,2.87766 -3.9513,2.8862 -4.0776,0.0351 -10.0347,2.90689 -13.3723,6.44693 -7.9894,8.47394 -10.8911,12.10496 -13.0959,16.38755 -1.275,2.47658 -2.6276,4.73513 -3.0052,5.01898 -2.297,1.7258 -6.0566,10.17239 -5.5828,12.54317 0.7744,3.87637 -4.3855,11.17227 -7.3732,10.42484 -2.5384,-0.63511 -3.6079,-2.78798 -5.2048,-10.47622 -1.1955,-5.75552 -8.5133,-21.78498 -11.0562,-24.21755 -0.7923,-0.75812 -3.3698,-3.80595 -5.7279,-6.77295 l -4.2868,-5.39451 -0.3466,3.88253 c -0.1917,2.13539 0.1753,5.8591 0.8094,8.27494 0.6357,2.41584 1.156,7.47687 1.156,11.24674 0,10.2483 7.414,36.61553 10.2953,36.61553 0.8127,0 3.8049,-1.30015 6.6495,-2.88917 2.845,-1.58907 6.7657,-3.5095 8.7132,-4.2677 1.9475,-0.75815 3.2747,-1.63334 2.9489,-1.94485 -0.3262,-0.3117 0.7516,-1.19099 2.3932,-1.95437 1.6417,-0.76338 4.1466,-2.03158 5.5669,-2.81821 3.2429,-1.79633 4.5971,-1.30065 6.9773,2.5541 1.5238,2.46804 1.9825,6.24071 2.3536,19.35389 0.7952,28.07344 3.9346,39.35778 14.2976,51.38553 1.9022,2.20795 3.4587,4.43599 3.4587,4.95118 0,1.93619 -5.617,5.81817 -8.4168,5.81696 -1.6013,-6.6e-4 -4.1376,-1.04575 -5.6361,-2.32241 z m 13.4409,-12.45232 c -0.314,-0.78628 0.3711,-6.0279 1.5287,-11.64809 3.0028,-14.59792 3.5806,-24.50172 1.8904,-32.41049 -0.7886,-3.69009 -1.483,-7.40596 -1.5434,-8.2575 -0.3344,-4.75756 -3.678,-22.82937 -4.9148,-26.57879 -0.796,-2.41272 -1.1254,-4.38679 -0.7319,-4.38679 1.4814,0 3.3045,2.55663 3.3045,4.63393 0,1.64969 0.6651,2.14709 2.8299,2.11596 3.6353,-0.0523 4.054,0.77801 7.3578,14.58926 2.9481,12.32436 3.5606,24.53933 1.7293,34.48479 -0.5664,3.0751 -1.5891,9.307 -2.2729,13.84863 -1.4304,9.50178 -2.0608,10.93671 -5.8437,13.30819 -2.2774,1.42756 -2.8609,1.48022 -3.3339,0.30078 z m -8.5835,-23.15683 c 1.1425,-9.63703 0.9558,-11.86094 -2.2525,-26.84106 -3.4265,-15.99883 -5.1868,-29.72356 -4.1124,-32.06442 0.438,-0.9545 0.6892,-2.3558 0.5579,-3.11399 -0.1387,-0.81098 0.5378,-1.23547 1.6473,-1.03109 3.5692,0.6577 8.6345,19.04683 11.7234,42.56077 2.4877,18.94009 0.7184,27.45706 -5.7039,27.45706 -2.6786,0 -2.6835,-0.0195 -1.8598,-6.96727 z"
       id="path969-2" /></g></svg>
