<?xml version="1.0" encoding="UTF-8" standalone="no"?>
<!-- Created with Inkscape (http://www.inkscape.org/) -->

<svg
   width="154.36641mm"
   height="87.802231mm"
   viewBox="0 0 154.36641 87.80223"
   version="1.1"
   id="svg5"
   xml:space="preserve"
   xmlns="http://www.w3.org/2000/svg"
   xmlns:svg="http://www.w3.org/2000/svg"><defs
     id="defs2" /><g
     id="layer2"
     transform="translate(1350.0912,564.96428)"><g
       id="g235"
       transform="translate(-141.59367,317.5)"
       style="fill:#ffffff;fill-opacity:1"><path
         style="fill:#ffffff;fill-opacity:1;stroke:none;stroke-width:22.4367;stroke-dasharray:none;stroke-opacity:1"
         id="path139"
         d="m -1162.644,-870.90061 c -0.73,-0.79793 -1.5701,-1.48283 -2.4233,-2.14313 -1.0059,-0.78504 -2.0994,-1.4383 -3.2322,-2.02017 -1.4254,-0.71011 -2.9677,-1.05378 -4.5374,-1.24177 -1.5899,-0.16909 -3.161,0.0434 -4.7049,0.41429 -1.3772,0.33639 -2.6719,0.9122 -3.9492,1.51378 -1.2863,0.59799 -2.503,1.32117 -3.6721,2.12138 -1.3157,0.9131 -2.474,2.02274 -3.6247,3.12989 -1.236,1.21243 -2.3861,2.50801 -3.4931,3.8381 -1.258,1.53471 -2.3936,3.16346 -3.5034,4.80689 -1.1744,1.75128 -2.2206,3.58148 -3.2309,5.43066 -1.0256,1.88891 -1.9324,3.83833 -2.7949,5.80593 -0.8791,1.99576 -1.6306,4.04315 -2.3428,6.10323 -0.7326,2.1177 -1.3439,4.27349 -1.9215,6.43765 -0.6009,2.21652 -1.0725,4.46434 -1.4735,6.72465 -0.3691,2.04203 -0.6228,4.10229 -0.8092,6.16829 -0.215,2.05541 -0.17,4.11371 0.046,6.16508 0.2392,1.78395 0.634,3.54171 1.0996,5.27876 0.4461,1.66666 1.067,3.27215 1.8261,4.81909 0.7573,1.49032 1.7109,2.85977 2.7632,4.15377 1.0069,1.21664 2.1698,2.28317 3.3796,3.29245 1.2865,1.08987 2.703,1.99253 4.1953,2.76921 1.4762,0.71141 3.0308,1.22941 4.6061,1.66857 1.5783,0.4509 3.1991,0.69249 4.8319,0.82365 1.6541,0.10959 3.312,0.0404 4.9643,-0.0612 1.7058,-0.11697 3.405,-0.29665 5.0942,-0.5598 1.8888,-0.30528 3.7488,-0.76031 5.5972,-1.24915 1.7688,-0.50059 3.5184,-1.0667 5.2681,-1.6301 1.7627,-0.58624 3.5213,-1.18414 5.2708,-1.8088 1.813,-0.64587 3.6099,-1.33466 5.3967,-2.0493 1.757,-0.68419 3.5132,-1.37062 5.2738,-2.04531 1.7525,-0.67971 3.5036,-1.3617 5.2694,-2.00602 1.6453,-0.63021 3.3567,-1.02616 5.0729,-1.40285 1.8921,-0.41124 3.8068,-0.71397 5.7242,-0.97956 1.9093,-0.24175 3.8246,-0.39915 5.7479,-0.4499 1.9426,-0.0519 3.8863,-0.0225 5.8274,0.0596 1.7167,0.0799 3.4247,0.29625 5.1173,0.58772 1.6349,0.29144 3.2417,0.71252 4.8434,1.14577 1.4786,0.39664 2.9309,0.87839 4.3655,1.41079 1.3525,0.53284 2.6801,1.1253 4.0051,1.72236 1.2495,0.56533 2.4693,1.19277 3.6758,1.84404 1.1754,0.6427 2.3495,1.2877 3.4802,2.00676 1.2578,0.89318 2.5516,1.7182 3.9225,2.42623 1.3851,0.67878 2.8745,1.07812 4.3828,1.36551 0.5983,0.0914 1.1793,0.25866 1.7509,0.45371 0.7385,0.23979 1.4714,0.4962 2.1957,0.77581 0.3728,0.14758 0.741,0.30649 1.1084,0.46715 3.5461,1.51249 7.8241,-8.51752 4.2779,-10.02999 v 0 c -0.5066,-0.21272 -1.015,-0.41963 -1.5317,-0.60698 -0.9077,-0.33951 -1.8185,-0.67397 -2.7494,-0.94546 -0.9586,-0.29348 -1.9223,-0.57407 -2.9059,-0.77269 -0.4859,-0.11112 -0.9733,-0.23394 -1.4274,-0.44357 -1.0945,-0.59521 -2.0546,-1.40153 -3.1207,-2.04383 -1.3486,-0.84648 -2.7251,-1.64576 -4.1274,-2.4004 -1.4237,-0.76695 -2.8635,-1.50276 -4.3305,-2.18411 -1.5603,-0.72007 -3.1225,-1.43804 -4.7233,-2.06479 -1.7381,-0.64873 -3.4956,-1.24195 -5.2803,-1.75056 -1.9442,-0.54499 -3.8978,-1.061 -5.8864,-1.42044 -2.1574,-0.37936 -4.3309,-0.67077 -6.5205,-0.78079 -2.2296,-0.11125 -4.4629,-0.17489 -6.6953,-0.10752 -2.3329,0.0794 -4.6635,0.24765 -6.9761,0.57356 -2.201,0.31536 -4.3988,0.65887 -6.5712,1.13771 -2.1949,0.48392 -4.3611,1.07188 -6.4657,1.86867 -1.8529,0.66559 -3.6922,1.36684 -5.5269,2.08082 -1.7841,0.70456 -3.5683,1.4083 -5.3523,2.11296 -1.6711,0.66572 -3.3561,1.29445 -5.0427,1.91942 -1.6196,0.59039 -3.2464,1.16059 -4.8811,1.70775 -1.572,0.50157 -3.1373,1.02778 -4.7296,1.46238 -1.5143,0.40442 -3.0358,0.78142 -4.5741,1.08463 -1.304,0.24699 -2.6261,0.37622 -3.9492,0.4734 -1.1867,0.0777 -2.3769,0.15986 -3.5667,0.10252 -0.875,-0.0254 -1.7296,-0.14824 -2.569,-0.4106 -0.9021,-0.25347 -1.7952,-0.54727 -2.6496,-0.93483 -0.7673,-0.32623 -1.4344,-0.83812 -2.0806,-1.35784 -0.686,-0.56949 -1.3628,-1.15269 -1.933,-1.84245 -0.5416,-0.63482 -1.0044,-1.32617 -1.3874,-2.06875 -0.4453,-0.8595 -0.7313,-1.78502 -0.9825,-2.71786 -0.3107,-1.2188 -0.571,-2.45112 -0.7453,-3.69739 -0.1575,-1.27876 -0.1357,-2.56281 0.023,-3.84191 0.1898,-1.74471 0.4302,-3.48446 0.764,-5.20798 0.3852,-1.97223 0.8148,-3.93552 1.3091,-5.88351 0.5024,-1.90376 1.0201,-3.80532 1.6548,-5.67005 0.6055,-1.76784 1.2387,-3.52806 1.9882,-5.24092 0.7334,-1.661 1.48,-3.31835 2.3354,-4.92098 0.8713,-1.56964 1.7576,-3.13233 2.7371,-4.63783 0.8883,-1.36266 1.8006,-2.71039 2.8066,-3.98997 0.8016,-1.0165 1.6146,-2.02679 2.5407,-2.93476 0.7273,-0.71213 1.4422,-1.44253 2.2325,-2.08576 0.6371,-0.47324 1.3303,-0.85254 2.0491,-1.18899 0.6533,-0.30903 1.3018,-0.63987 1.9916,-0.86106 0.2672,-0.0939 0.5159,-0.15234 0.8041,-0.14766 0.2768,0.0188 0.5494,0.0452 0.8106,0.14721 0.5524,0.26519 1.0692,0.59476 1.5598,0.96168 0.3757,0.27763 0.8547,0.68104 1.2135,0.86022 2.6108,2.75584 10.4055,-4.62862 7.7947,-7.38447 z" /><path
         style="fill:#ffffff;fill-opacity:1;stroke:none;stroke-width:22.4367;stroke-dasharray:none;stroke-opacity:1"
         id="path140"
         d="m -1074.6154,-801.93704 c -0.1516,-0.61685 -0.4079,-1.20934 -0.6156,-1.81065 -0.3458,-1.06323 -0.6585,-2.13667 -0.9842,-3.20607 -0.4285,-1.28182 -0.8122,-2.57672 -1.1681,-3.88035 -0.3881,-1.41885 -0.7066,-2.85546 -1.0091,-4.29461 -0.3326,-1.58485 -0.6153,-3.17915 -0.8782,-4.77684 -0.2816,-1.73927 -0.5011,-3.48673 -0.7099,-5.23581 -0.2253,-1.8373 -0.4268,-3.67655 -0.5644,-5.52257 -0.1289,-1.78443 -0.2129,-3.57256 -0.2361,-5.36152 0,-1.76064 0.063,-3.52017 0.1534,-5.27817 0.1205,-1.74834 0.3011,-3.49165 0.5144,-5.23087 0.2404,-1.78355 0.5408,-3.55848 0.8523,-5.33082 0.341,-1.80965 0.7007,-3.61577 1.064,-5.42105 0.342,-1.69124 0.689,-3.38167 1.0922,-5.05947 0.3647,-1.54937 0.775,-3.08731 1.2049,-4.6197 0.4055,-1.42298 0.8407,-2.83692 1.2362,-4.26281 0.3071,-1.1004 0.5915,-2.20631 0.8453,-3.32018 0.082,-0.38933 0.1627,-0.77893 0.2412,-1.16903 0.8419,-3.72637 -9.6979,-6.10748 -10.5397,-2.38112 v 0 c -0.089,0.33031 -0.18,0.66022 -0.2701,0.99026 -0.2505,0.93554 -0.5618,1.85279 -0.8552,2.7754 -0.4512,1.43724 -0.9417,2.86247 -1.3469,4.314 -0.4867,1.67799 -0.9504,3.36323 -1.3632,5.06106 -0.4328,1.79456 -0.8352,3.59587 -1.211,5.40329 -0.4036,1.90445 -0.777,3.81532 -1.1326,5.72926 -0.353,1.96845 -0.6801,3.94229 -0.9414,5.92521 -0.2458,2.0011 -0.4465,4.0082 -0.5731,6.02062 -0.1032,1.99975 -0.195,4.00082 -0.1744,6.00398 0.028,2.02462 0.1026,4.04874 0.2484,6.06856 0.1582,2.022 0.3637,4.03987 0.6225,6.05163 0.2462,1.90479 0.5213,3.8063 0.8404,5.70032 0.3024,1.7626 0.6233,3.52234 1.0002,5.27074 0.3679,1.67156 0.7591,3.33869 1.245,4.98059 0.4098,1.38626 0.8241,2.77117 1.2897,4.14004 0.4058,1.26373 0.8135,2.52778 1.2954,3.76505 0.3973,0.98301 0.766,1.98234 1.2735,2.91563 1.7515,3.37791 11.3057,-1.5761 9.5542,-4.954 z" /><path
         style="fill:#ffffff;fill-opacity:1;stroke:none;stroke-width:22.4367;stroke-dasharray:none;stroke-opacity:1"
         id="path141"
         d="m -1077.1426,-877.79483 c -0.1366,-0.0953 -0.5923,-0.35663 -0.8296,-0.49057 -0.4019,-0.24698 -0.81,-0.484 -1.2115,-0.73165 -0.7081,-0.44339 -1.4551,-0.81685 -2.2141,-1.1635 -0.9252,-0.4567 -1.9024,-0.78513 -2.8876,-1.08345 -1.173,-0.36898 -2.3828,-0.58893 -3.5926,-0.79499 -1.4653,-0.24659 -2.9509,-0.34404 -4.4344,-0.38976 -1.5552,-0.0542 -3.1081,0.0398 -4.6558,0.18463 -1.526,0.1611 -3.0396,0.41854 -4.5498,0.68636 -1.472,0.26984 -2.9324,0.59851 -4.3887,0.9417 -1.5613,0.35883 -3.101,0.80275 -4.6393,1.2483 -1.6201,0.47879 -3.2356,0.97222 -4.8456,1.48379 -1.7268,0.57287 -3.4577,1.13175 -5.162,1.76929 -1.7944,0.6654 -3.5614,1.39735 -5.3076,2.17972 -1.7418,0.80134 -3.4488,1.67322 -5.1249,2.60358 -1.7342,0.95295 -3.3978,2.02247 -5.0016,3.17971 -1.6704,1.20102 -3.195,2.58109 -4.6899,3.98954 -1.3727,1.3158 -2.6909,2.68777 -3.9728,4.09176 -1.323,1.43491 -2.5188,2.97921 -3.674,4.55028 -1.1592,1.57953 -2.2187,3.22638 -3.2357,4.89984 -0.9701,1.59089 -1.879,3.21734 -2.7918,4.84143 -0.8753,1.57236 -1.7256,3.15838 -2.5663,4.74948 -0.8382,1.54011 -1.6356,3.10208 -2.4428,4.65857 -0.7497,1.47413 -1.5192,2.93807 -2.2897,4.40137 -0.731,1.37867 -1.4979,2.73786 -2.2569,4.10123 -0.7518,1.34588 -1.494,2.69708 -2.2376,4.04754 -0.6591,1.21587 -1.4104,2.37784 -2.1601,3.53891 -0.7069,1.10694 -1.4306,2.20427 -2.2333,3.24445 -0.7137,0.923 -1.544,1.74583 -2.38,2.55641 -0.8482,0.81777 -1.7725,1.55067 -2.7098,2.2624 -0.9155,0.68603 -1.8663,1.32349 -2.847,1.91209 -0.9213,0.55194 -1.8761,1.04449 -2.8508,1.49436 -0.8836,0.40079 -1.804,0.70872 -2.7274,1.00224 -0.913,0.29189 -1.8467,0.5075 -2.786,0.69432 -0.8693,0.15365 -1.7431,0.29115 -2.6231,0.36624 -0.82,0.0631 -1.6422,0.10729 -2.4646,0.0824 -3.8574,-0.10092 -4.1427,10.80934 -0.2854,10.91025 v 0 c 1.2352,0.0297 2.4706,0.006 3.702,-0.10361 1.2674,-0.11221 2.5278,-0.28411 3.7808,-0.50581 1.331,-0.25863 2.6536,-0.55808 3.948,-0.96607 1.3966,-0.4309 2.7781,-0.91818 4.1122,-1.51741 1.3271,-0.62579 2.6435,-1.27884 3.9031,-2.03333 1.2979,-0.79131 2.5735,-1.6198 3.7914,-2.53084 1.2975,-0.97682 2.5699,-1.98972 3.7413,-3.11722 1.2273,-1.18366 2.411,-2.41286 3.4542,-3.76494 0.9787,-1.27367 1.8981,-2.59006 2.765,-3.94253 0.9026,-1.37914 1.7734,-2.77783 2.5659,-4.2238 0.7412,-1.33639 1.4952,-2.66547 2.2385,-4.00064 0.7959,-1.42586 1.6121,-2.84056 2.3771,-4.28357 0.7998,-1.48768 1.594,-2.97823 2.3636,-4.48176 0.7937,-1.52288 1.5943,-3.04207 2.3954,-4.56107 0.814,-1.51728 1.6371,-3.02956 2.4764,-4.533 0.8414,-1.51119 1.6952,-3.01508 2.5879,-4.49675 0.8433,-1.38893 1.7257,-2.75519 2.6708,-4.07731 0.9307,-1.25852 1.8784,-2.5088 2.9388,-3.6622 1.0833,-1.19401 2.2089,-2.34932 3.3826,-3.45488 1.1596,-1.08723 2.3288,-2.17011 3.6131,-3.11102 1.2103,-0.89691 2.4711,-1.72231 3.7982,-2.43769 1.4261,-0.77753 2.8762,-1.50791 4.3534,-2.18392 1.5145,-0.69242 3.0506,-1.3303 4.6125,-1.90887 1.5414,-0.57663 3.0968,-1.1127 4.6611,-1.62411 1.5089,-0.4921 3.0228,-0.96994 4.5412,-1.43227 1.3585,-0.39889 2.7103,-0.82394 4.0876,-1.1548 1.237,-0.29689 2.4736,-0.59846 3.7275,-0.81709 1.2512,-0.21384 2.5048,-0.41574 3.7632,-0.58259 1.0816,-0.12075 2.1681,-0.19798 3.2573,-0.15769 0.9748,0.019 1.9486,0.0767 2.9194,0.16751 0.7793,0.12772 1.5638,0.2422 2.3278,0.44516 0.5249,0.14777 1.0612,0.26575 1.5529,0.50768 0.3644,0.15465 0.723,0.32301 1.0592,0.5333 0.5392,0.32107 1.0811,0.63783 1.6283,0.94506 0.4726,0.24387 0.9434,0.4879 1.4191,0.72578 3.4209,1.60986 7.9743,-8.06608 4.5533,-9.67594 z" /><path
         style="fill:#ffffff;fill-opacity:1;stroke:none;stroke-width:22.4367;stroke-dasharray:none;stroke-opacity:1"
         id="path143"
         d="m -1082.5977,-852.99993 c 0.3672,0.0958 0.7563,0.27106 1.1281,0.41592 0.5929,0.21934 1.1468,0.5244 1.6935,0.83817 0.5922,0.37166 1.1454,0.80063 1.6686,1.26339 0.5633,0.50493 1.027,1.0976 1.4689,1.70738 0.5608,0.80547 1.0281,1.6696 1.4858,2.53617 0.392,0.72609 0.6628,1.4909 0.8284,2.296 0.1489,0.71535 0.1195,1.45904 0.064,2.18437 -0.1439,0.66207 -0.3795,1.2958 -0.6304,1.92328 -0.3462,0.73703 -0.8081,1.41103 -1.2776,2.07341 -0.511,0.70736 -1.0709,1.37716 -1.7008,1.98112 -0.6798,0.65471 -1.4296,1.22457 -2.1942,1.77438 -0.8658,0.62494 -1.7693,1.19414 -2.6872,1.73863 -0.4221,0.2395 -0.8652,0.43841 -1.3037,0.64518 -3.5091,1.68924 1.2687,11.61458 4.7778,9.92534 v 0 c 0.7187,-0.35081 1.4366,-0.70445 2.1237,-1.11519 1.2204,-0.72146 2.4233,-1.47405 3.569,-2.31058 1.1966,-0.88233 2.362,-1.80731 3.4252,-2.84948 1.068,-1.06913 2.0715,-2.20057 2.9534,-3.43011 0.9734,-1.37115 1.8837,-2.7926 2.5169,-4.35814 0.6729,-1.68616 1.2399,-3.42236 1.3954,-5.24296 0.1188,-1.81305 0.112,-3.64315 -0.299,-5.42414 -0.4173,-1.72358 -0.9873,-3.39553 -1.8365,-4.95938 -0.7188,-1.35519 -1.4773,-2.69271 -2.3887,-3.92996 -0.9525,-1.26796 -1.9862,-2.4761 -3.1974,-3.50705 -1.0986,-0.91533 -2.2407,-1.78327 -3.4944,-2.47848 -1.0736,-0.57595 -2.1666,-1.12536 -3.3296,-1.5003 -0.7835,-0.26075 -1.5771,-0.47344 -2.3842,-0.64651 -3.6945,-0.83963 -6.0694,9.60988 -2.3749,10.44954 z" /><path
         style="fill:#ffffff;fill-opacity:1;stroke:none;stroke-width:22.4367;stroke-dasharray:none;stroke-opacity:1"
         id="path144"
         d="m -1062.5823,-840.5561 c 0.4535,-0.2952 0.8923,-0.61101 1.3254,-0.93533 0.7697,-0.55936 1.4373,-1.23696 2.0652,-1.94763 0.625,-0.70358 1.1656,-1.4751 1.6786,-2.26237 0.4799,-0.75414 0.9263,-1.5277 1.3613,-2.30828 0.4807,-0.87206 0.8863,-1.78202 1.2938,-2.68967 0.1877,-0.43215 0.3798,-0.86225 0.5683,-1.29403 1.5283,-3.53155 -8.4605,-7.85428 -9.9888,-4.32271 v 0 c -0.1694,0.39537 -0.3408,0.78981 -0.5104,1.1851 -0.2907,0.65619 -0.5693,1.31842 -0.9021,1.95485 -0.2948,0.56636 -0.6179,1.11537 -0.9516,1.6596 -0.2157,0.35533 -0.4365,0.70839 -0.7097,1.0234 -0.1431,0.18643 -0.3011,0.35732 -0.4913,0.4979 -0.2951,0.24349 -0.6038,0.46722 -0.9125,0.69297 -3.0923,2.18276 3.0815,10.92896 6.1738,8.7462 z" /></g></g></svg>
