<?xml version="1.0" encoding="UTF-8" standalone="no"?>
<!-- Created with Inkscape (http://www.inkscape.org/) -->

<svg
   width="154.70561mm"
   height="154.70567mm"
   viewBox="0 0 154.70561 154.70567"
   version="1.1"
   id="svg5"
   xml:space="preserve"
   xmlns="http://www.w3.org/2000/svg"
   xmlns:svg="http://www.w3.org/2000/svg"><defs
     id="defs2" /><g
     id="layer1"
     transform="translate(429.70868,2038.6146)"><path
       style="fill:#008080;stroke-width:1.10707"
       d="m -424.04056,-1884.1493 c -2.24226,-0.9133 -3.48547,-4.6453 -5.21489,-15.6538 -0.78459,-4.9942 -0.51853,-12.905 0.5515,-16.3969 0.52434,-1.7113 0.86203,-5.903 0.59301,-7.3609 -0.15269,-0.8278 -0.15269,-1.924 0,-2.6645 1.14781,-5.5683 1.54366,-7.0347 2.36538,-8.7617 0.78787,-1.6558 0.92775,-2.2638 0.87682,-3.811 -0.14251,-4.3272 2.06372,-9.9923 5.09922,-13.0932 5.65685,-5.7787 11.81406,-5.2154 21.63494,1.9791 8.01621,5.8724 13.4759,8.997 20.46305,11.7108 6.6306,2.5754 7.23818,2.6374 9.0732,0.9257 0.82752,-0.772 1.66973,-1.5559 1.87127,-1.7418 0.20165,-0.1859 0.69236,-1.7301 1.09052,-3.4315 0.39815,-1.7015 0.97462,-3.8929 1.2811,-4.8699 0.30647,-0.977 0.69992,-2.5171 0.8743,-3.4226 0.17437,-0.9055 0.64548,-2.1402 1.04692,-2.7436 0.40144,-0.6036 0.65052,-1.2287 0.55336,-1.3891 -0.0975,-0.1605 0.046,-1.4705 0.31688,-2.9114 0.49345,-2.6195 0.49345,-2.6195 -1.40904,-5.3259 -1.04626,-1.4886 -2.29746,-3.4068 -2.78029,-4.2626 -0.48282,-0.8559 -1.61781,-2.4887 -2.52223,-3.6285 -0.90441,-1.1398 -2.47556,-3.3562 -3.4916,-4.9252 -1.01603,-1.5691 -2.64874,-3.7006 -3.62807,-4.7368 -0.97944,-1.0361 -2.48027,-2.7774 -3.33529,-3.8696 -0.85491,-1.0921 -2.14708,-2.491 -2.87153,-3.1085 -0.72446,-0.6175 -3.1928,-3.2049 -5.48511,-5.7497 -4.16808,-4.6272 -4.16808,-4.6272 -5.99806,-4.7533 -8.54065,-0.5884 -11.00274,-12.893 -3.15884,-15.7866 0.73092,-0.2697 1.98103,-0.7676 2.77799,-1.1063 3.10144,-1.3185 6.81868,-0.5737 9.55067,1.9139 1.10826,1.009 2.09078,1.5885 3.39455,2.0025 2.14138,0.6798 4.14223,1.9951 6.68077,4.3919 1.00081,0.9449 2.27622,2.029 2.83407,2.4092 1.05667,0.72 4.25253,3.9271 5.50636,5.5257 0.39849,0.5081 1.75013,2.2226 3.00363,3.8101 1.2535,1.5876 3.37101,4.5513 4.70545,6.586 1.33445,2.035 2.47754,3.5177 2.54019,3.2951 2.36308,-8.3959 3.42861,-10.8568 5.74032,-13.2579 5.15662,-5.3558 12.87983,-3.7071 24.43604,5.2161 1.43314,1.1068 3.45458,2.8219 4.49197,3.8114 1.64301,1.5672 4.6818,4.0527 5.70276,4.6642 0.60627,0.3632 5.30273,1.678 5.99389,1.678 3.19979,0 6.49423,-5.474 9.44353,-15.6906 0.30549,-1.0584 0.9605,-3.0454 1.4556,-4.4155 0.49509,-1.3703 1.0318,-3.1021 1.19282,-3.8487 0.16101,-0.7465 0.68863,-2.4126 1.17244,-3.7024 0.54614,-1.4557 0.97825,-3.3172 1.13937,-4.9089 0.30275,-2.9889 1.64837,-7.4417 2.77394,-9.1791 0.69597,-1.0744 0.80748,-1.5938 0.97167,-4.5282 0.33178,-5.928 2.7138,-8.9289 7.38824,-9.308 6.45208,-0.5232 9.39612,4.0121 8.00745,12.3358 -0.83147,4.9835 -1.05371,5.7525 -2.38509,8.2509 -0.93136,1.7477 -1.2029,2.6282 -1.42437,4.6189 -0.1505,1.3529 -0.67637,3.7783 -1.16873,5.3899 -0.49235,1.6116 -1.12655,3.7962 -1.40936,4.8545 -0.28282,1.0584 -0.93542,3.1233 -1.45012,4.5888 -0.51481,1.4654 -1.10705,3.264 -1.31615,3.9966 -0.2091,0.7327 -0.5917,1.9228 -0.85031,2.6448 -0.2585,0.7219 -0.73092,2.3871 -1.04988,3.7007 -0.31885,1.3132 -1.01153,3.1207 -1.53916,4.0162 -0.52762,0.8955 -1.17671,2.2278 -1.44255,2.9605 -0.53759,1.4822 -0.7835,1.8941 -3.14471,5.2677 -1.08734,1.5535 -2.31751,2.8636 -3.6226,3.8578 -1.0869,0.8279 -2.30218,1.7595 -2.70066,2.0699 -3.1986,2.4929 -9.54749,3.6148 -14.05566,2.4836 -7.92946,-1.9898 -12.02525,-4.292 -18.54106,-10.4224 -2.38236,-2.2414 -3.99535,-3.4883 -6.31078,-4.8782 -1.99176,-1.1954 -1.97051,-1.2155 -2.67568,2.5253 -0.25927,1.3755 -0.84604,4.166 -1.30389,6.2015 -0.45796,2.0352 -0.92063,4.1668 -1.02808,4.7367 -0.10734,0.5699 -0.51897,2.0486 -0.91417,3.2861 -0.71854,2.25 -0.71854,2.25 0.18621,3.752 0.4975,0.8259 1.42514,2.9127 2.0612,4.6371 0.63617,1.7245 1.92483,4.442 2.86375,6.0389 0.93893,1.5969 1.92593,3.6723 2.19341,4.612 0.26738,0.9398 0.9248,2.4622 1.46096,3.3834 1.2626,2.1693 4.0752,9.0295 4.32799,10.5562 0.10734,0.6514 0.56311,1.917 1.01176,2.8126 0.44865,0.8954 1.14463,2.6939 1.54672,3.9965 0.40199,1.3026 1.08373,3.1499 1.51474,4.1051 1.3925,3.0853 0.96729,6.4324 -1.14068,8.9799 -3.72577,4.5024 -13.06011,2.5631 -14.37626,-2.9867 -0.15872,-0.6693 -0.4986,-1.8163 -0.75535,-2.5491 -0.25674,-0.7327 -0.56322,-1.7319 -0.68097,-2.2203 -0.23506,-0.9748 -0.97178,-2.4262 -2.44391,-4.8149 -0.52817,-0.8571 -1.25602,-2.5223 -1.61726,-3.7006 -1.01384,-3.3064 -2.96409,-8.199 -3.27089,-8.2061 -0.11961,0 -0.21743,0.537 -0.21743,1.1996 0,4.9361 -8.3689,13.9482 -14.56313,15.6826 -5.74405,1.6081 -17.80861,-1.4248 -26.61499,-6.6909 -1.20947,-0.7231 -2.33208,-1.315 -2.49474,-1.315 -0.41666,0 -7.11058,-4.427 -11.32784,-7.4916 -4.04562,-2.9399 -3.83017,-2.8428 -3.83017,-1.7238 0,1.5605 -1.38132,6.4375 -2.28826,8.079 -1.15273,2.0867 -1.76163,4.1609 -1.76721,6.0212 -0.011,2.099 -1.03159,8.9592 -1.7165,11.4857 -1.3155,4.8527 -1.76284,8.0256 -1.76809,12.5406 -0.012,10.8868 -2.74491,17.3504 -6.66029,15.7555 z"
       id="path16" /><rect
       style="fill:none;stroke:#ff0000;stroke-width:0.500062;stroke-linejoin:round"
       id="rect21"
       width="154.20555"
       height="154.20555"
       x="-429.45862"
       y="-2038.3645" /><rect
       style="fill:none;stroke:#ff0000;stroke-width:0.500062;stroke-linejoin:round"
       id="rect22"
       width="154.20555"
       height="154.20555"
       x="-429.45862"
       y="-2038.3645" /></g></svg>
