<?xml version="1.0" encoding="UTF-8" standalone="no"?>
<!-- Created with Inkscape (http://www.inkscape.org/) -->

<svg
   width="154.70554mm"
   height="154.70529mm"
   viewBox="0 0 154.70554 154.70529"
   version="1.1"
   id="svg5"
   xml:space="preserve"
   xmlns="http://www.w3.org/2000/svg"
   xmlns:svg="http://www.w3.org/2000/svg"><defs
     id="defs2" /><g
     id="layer1"
     transform="translate(1089.6651,2038.6144)"><path
       style="fill:#00ffff;stroke-width:0.999002"
       d="m -997.39183,-1884.1899 c -5.00947,-0.5948 -6.92867,-1.1963 -14.38337,-4.508 -1.4087,-0.6259 -4.5025,-2.4877 -7.1918,-4.3282 l -4.7195,-3.2297 -2.6969,-2.8135 c -1.4834,-1.5474 -3.1619,-3.1496 -3.7303,-3.5606 -0.5682,-0.411 -1.5463,-1.353 -2.1735,-2.0937 -0.6272,-0.7405 -1.5276,-1.5325 -2.0008,-1.76 -0.4731,-0.2274 -1.5279,-0.9623 -2.3438,-1.6333 -0.816,-0.6707 -2.6357,-1.924 -4.0438,-2.785 l -2.5603,-1.5654 -4.1593,-0.2417 c -5.281,-0.3066 -5.8263,-0.2776 -7.8502,0.4196 -2.4617,0.848 -13.199,8.5568 -15.6369,11.2266 -1.4644,1.6036 -4.8269,4.4348 -5.9362,4.998 -0.5669,0.288 -1.8398,1.045 -2.8287,1.6824 -2.6783,1.7263 -3.8686,2.1979 -5.6668,2.2455 l -1.6251,0.043 -0.938,-0.9195 c -2.5221,-2.473 -2.355,-6.9127 0.3674,-9.7559 0.6697,-0.6992 1.9036,-2.2626 2.7421,-3.4739 0.8385,-1.2112 1.9796,-2.5652 2.5358,-3.009 1.1689,-0.9319 2.8224,-2.7176 4.2701,-4.6108 2.9328,-3.8354 14.8352,-12.6227 19.5526,-14.4352 l 2.5845,-0.993 2.6969,-0.1549 c 6.5407,-0.3759 12.8702,0.5519 15.531,2.2766 0.9757,0.6324 2.5832,1.6292 3.5721,2.2151 0.9888,0.586 2.2681,1.4654 2.8429,1.9544 0.5747,0.4892 1.586,1.2072 2.2474,1.5957 0.6613,0.3886 1.8598,1.3017 2.6632,2.0294 3.2046,2.9018 6.0283,5.6511 7.4165,7.2207 1.7645,1.995 9.0893,7.0136 11.799,8.0841 0.9888,0.3907 2.5582,1.0427 3.4873,1.4492 5.09005,2.2259 11.37982,2.517 16.62701,0.7696 3.64009,-1.2124 6.13865,-2.2224 6.99826,-2.8288 0.49479,-0.3492 1.62562,-0.753 2.513,-0.8971 l 1.61338,-0.2623 2.08855,-1.5075 c 1.14867,-0.8294 2.79594,-2.0131 3.66073,-2.6308 0.8648,-0.6174 1.79593,-1.4065 2.06927,-1.7531 0.27326,-0.3467 1.00257,-0.9807 1.6206,-1.409 0.61804,-0.4281 1.67616,-1.2933 2.35136,-1.9228 0.6752,-0.6292 1.53481,-1.3472 1.91034,-1.5954 1.24558,-0.8229 3.00957,-2.749 3.67203,-4.0096 0.35939,-0.684 1.08861,-1.5932 1.62035,-2.0207 1.05013,-0.8441 1.34751,-1.2375 3.40676,-4.5074 0.75368,-1.1969 1.73764,-2.7357 2.18656,-3.4196 0.44892,-0.6839 1.14824,-1.8844 1.55401,-2.6677 3.83215,-7.3969 11.23422,-5.3759 11.67872,3.1886 l 0.10771,2.0753 -0.67257,1.966 c -0.43185,1.2623 -1.57933,3.4124 -3.20629,6.0072 -1.39356,2.2228 -2.7742,4.5666 -3.06818,5.2085 -0.2939,0.6418 -1.41054,2.1107 -2.4814,3.264 -1.07086,1.1534 -2.20704,2.4964 -2.5249,2.9843 -1.58314,2.4307 -5.41673,6.1304 -8.66856,8.3654 -0.49444,0.3399 -1.50576,1.2493 -2.24738,2.0212 -0.74163,0.7717 -1.9382,1.7919 -2.65893,2.2668 -0.72073,0.4751 -1.47926,1.0717 -1.68559,1.3258 -1.04079,1.2822 -7.58962,5.0696 -9.2583,5.3545 -0.67657,0.1152 -1.93803,0.5304 -2.80333,0.9219 -4.60834,2.0852 -7.74746,3.0739 -12.31316,3.8783 -3.76962,0.6642 -4.38094,0.6848 -7.91358,0.2654 z m 3.25878,-50.9677 c -5.572,-0.3771 -9.43345,-1.8346 -13.80495,-5.2107 -0.6272,-0.4845 -1.8989,-1.4683 -2.8259,-2.1865 -0.9271,-0.7179 -2.0396,-1.7692 -2.4722,-2.336 -0.4326,-0.5666 -1.6654,-1.8216 -2.7397,-2.7886 -1.0742,-0.9671 -2.4395,-2.285 -3.034,-2.9288 -0.5944,-0.6436 -1.5553,-1.5506 -2.1352,-2.0156 -0.5799,-0.4648 -2.1475,-2.0454 -3.4835,-3.5124 -1.336,-1.467 -3.0174,-3.1796 -3.7364,-3.8057 -0.7189,-0.6261 -1.9325,-1.817 -2.6969,-2.6465 -1.902,-2.0642 -2.9921,-2.904 -4.29,-3.305 -0.6064,-0.1873 -1.5672,-0.6018 -2.1351,-0.921 -5.6033,-3.1505 -13.5133,-1.6892 -19.2566,3.5573 -1.1236,1.0262 -2.7706,2.4954 -3.6602,3.2648 -0.8895,0.7695 -2.2925,2.2033 -3.1176,3.1864 -0.8252,0.9832 -1.5774,1.7875 -1.6718,1.7875 -0.094,0 -0.3406,0.4523 -0.5472,1.0051 -0.3277,0.8765 -1.3365,2.6075 -3.1916,5.4767 -0.2869,0.4438 -0.969,1.7373 -1.5154,2.8743 -1.7431,3.6268 -3.3316,5.0642 -5.608,5.0746 l -1.5771,0.012 -0.9908,-0.9238 c -0.578,-0.5391 -1.2158,-1.5068 -1.5308,-2.323 l -0.54,-1.3988 0.088,-1.7839 0.088,-1.784 0.7204,-1.3247 c 0.3962,-0.7286 1.1647,-2.5214 1.7077,-3.984 0.5432,-1.4625 1.1537,-2.8501 1.3568,-3.0833 0.2032,-0.2333 0.7889,-1.4146 1.3017,-2.6255 2.3268,-5.4947 5.3543,-9.76 10.4987,-14.7914 0.9614,-0.9404 2.209,-2.2985 2.7722,-3.0182 2.9448,-3.7619 9.2462,-6.7659 15.2652,-7.277 l 3.5355,-0.3001 2.5324,0.5019 c 1.3929,0.2762 3.2147,0.6389 4.0483,0.806 0.8337,0.1673 2.1989,0.6582 3.034,1.0913 0.835,0.4328 2.069,0.9968 2.7421,1.253 1.9959,0.7599 5.5288,3.4229 6.9792,5.2604 0.4326,0.5482 1.2923,1.3517 1.9103,1.7858 0.6181,0.4339 2.1857,2.057 3.4835,3.607 1.2979,1.5498 2.7138,3.1432 3.1464,3.541 0.4326,0.3977 1.3428,1.2319 2.0227,1.8539 0.6798,0.6219 2.1462,2.0172 3.2587,3.1006 1.1125,1.0835 2.3767,2.1629 2.8093,2.399 0.9244,0.5041 2.4803,1.9129 2.9174,2.6415 0.5833,0.9719 2.7129,2.7182 4.4458,3.6454 0.95631,0.5118 2.14337,1.1521 2.63774,1.4231 l 0.89902,0.4926 4.71953,0.018 4.71962,0.018 2.35976,-0.6982 c 9.52035,-2.8165 13.92067,-5.9152 19.88613,-14.0039 1.99154,-2.7003 4.806,-6.1262 6.29707,-7.6651 1.48283,-1.5303 3.35341,-3.6421 4.15687,-4.6929 0.80347,-1.0509 1.86541,-2.2127 2.35977,-2.5819 0.49445,-0.3693 1.45523,-1.2249 2.1351,-1.9013 3.56322,-3.545 7.59744,-2.765 9.61531,1.8591 l 0.61039,1.3989 v 2.8049 2.8049 l -0.7299,1.5472 c -0.74681,1.5829 -1.10985,2.0048 -3.65258,4.2445 -0.80338,0.7078 -1.91586,1.8726 -2.47214,2.5884 -0.5562,0.7159 -1.87093,2.1665 -2.92166,3.2237 -3.09409,3.1131 -3.56975,3.6861 -7.38916,8.899 l -3.64425,4.9739 -3.3044,2.869 c -1.81742,1.5777 -3.8606,3.1774 -4.54048,3.5546 -0.67979,0.3771 -1.59002,0.9809 -2.02264,1.3416 -1.24558,1.0387 -3.57094,2.2712 -5.28142,2.7994 -0.86521,0.2673 -2.02823,0.6898 -2.58452,0.939 -1.35745,0.6081 -6.69697,1.9464 -8.6525,2.1686 -3.04796,0.3463 -3.85287,0.3603 -7.30413,0.1267 z m 11.9124,-42.3879 c -2.3291,-0.613 -5.95774,-1.9594 -7.30516,-2.7105 -4.48272,-2.4984 -7.27348,-4.0896 -7.75365,-4.4209 -0.30901,-0.213 -1.92715,-1.3326 -3.59584,-2.4875 -1.6686,-1.1551 -3.3879,-2.3327 -3.8206,-2.6168 -1.1193,-0.7355 -3.0377,-2.4348 -4.6065,-4.0805 -0.7413,-0.7777 -1.8032,-1.7105 -2.3598,-2.0731 -1.0991,-0.716 -4.2801,-4.3481 -4.8362,-5.5221 -0.3996,-0.8436 -5.2893,-7.0839 -6.555,-8.3656 -0.4718,-0.4778 -1.768,-1.8448 -2.8805,-3.0378 -2.5925,-2.7798 -6.2166,-5.2755 -11.2387,-7.739 -7.2211,-3.542 -14.0168,-0.093 -22.0259,11.1793 -2.1017,2.9579 -4.4873,7.3095 -5.5387,10.1031 -0.3216,0.8549 -1.0077,2.4348 -1.5245,3.5105 -0.5168,1.076 -1.0783,2.5934 -1.2477,3.3722 -1.3215,6.0737 -7.2344,10.683 -10.599,8.2622 -3.1932,-2.2974 -3.5564,-6.3638 -1.0889,-12.1915 0.1809,-0.4276 0.6225,-1.8264 0.9811,-3.1087 0.762,-2.7246 3.5201,-9.4933 5.1056,-12.5296 0.6076,-1.1635 1.3526,-2.7023 1.6558,-3.4195 0.528,-1.2493 3.543,-5.806 5.1675,-7.8096 0.426,-0.5254 1.246,-1.5503 1.8222,-2.2776 6.8849,-8.6897 11.7593,-11.724 20.5968,-12.8214 l 2.2925,-0.2846 2.9744,0.6127 c 3.0714,0.6327 6.9912,2.1129 8.1726,3.0862 0.3709,0.3055 0.9271,0.6591 1.2361,0.7859 1.457,0.5974 7.8664,5.0037 8.765,6.0256 0.5562,0.6327 1.3652,1.4856 1.7978,1.8953 0.4326,0.4098 1.2417,1.2917 1.798,1.9599 0.5562,0.668 1.3653,1.4683 1.798,1.7783 0.4326,0.3101 2.6575,3.0982 4.9442,6.196 2.856,3.8689 4.5448,5.9124 5.3938,6.5269 0.6799,0.4921 1.944,1.6816 2.8093,2.6433 0.8652,0.9617 2.12939,2.113 2.80927,2.5584 1.16964,0.7663 4.89424,3.3407 6.85462,4.738 1.4305,1.0196 3.73328,2.2296 4.8319,2.5393 0.55629,0.1567 1.63412,0.7067 2.39528,1.2222 6.02695,4.0814 12.21326,2.6906 17.87156,-4.0183 1.39942,-1.6591 3.01586,-3.4618 3.59219,-4.006 0.57624,-0.5441 1.53702,-1.7876 2.13501,-2.7634 1.33545,-2.1791 2.48964,-3.6526 3.73455,-4.7675 1.5619,-1.3989 5.33111,-7.4845 5.33111,-8.6074 0,-0.2074 0.65005,-1.5692 1.44461,-3.0263 0.79454,-1.4573 1.70902,-3.3214 2.03214,-4.1427 0.95322,-2.4224 3.54962,-6.1318 4.96016,-7.0864 l 1.23396,-0.8351 h 1.40654 c 5.70698,0 8.5206,9.9287 4.18066,14.7528 -0.4806,0.5343 -1.1642,1.6826 -1.51918,2.5519 -0.35488,0.8692 -1.09684,2.2799 -1.64872,3.1348 -0.55194,0.8549 -1.25798,2.3301 -1.56904,3.2783 -0.31114,0.9482 -0.86198,2.2071 -1.22426,2.7977 -0.36228,0.5906 -0.94464,1.6091 -1.294,2.2633 -1.1101,2.078 -4.70748,7.1178 -5.7165,8.0084 -0.5347,0.472 -1.2427,1.3459 -1.57312,1.9421 -0.6791,1.2246 -2.51554,3.5617 -4.21692,5.3661 -0.62917,0.6674 -2.41337,2.6366 -3.965,4.3763 -5.51544,6.1837 -7.60398,7.6123 -13.09521,8.9565 -2.92174,0.7152 -7.26974,0.8672 -9.32566,0.3259 z"
       id="path9" /><rect
       style="fill:none;stroke:#ff0000;stroke-width:0.500062;stroke-linejoin:round"
       id="rect16"
       width="154.20555"
       height="154.20555"
       x="-1089.4152"
       y="-2038.3645" /></g></svg>
