<?xml version="1.0" encoding="UTF-8" standalone="no"?>
<!-- Created with Inkscape (http://www.inkscape.org/) -->

<svg
   width="154.70561mm"
   height="154.70567mm"
   viewBox="0 0 154.70561 154.70567"
   version="1.1"
   id="svg5"
   xml:space="preserve"
   xmlns="http://www.w3.org/2000/svg"
   xmlns:svg="http://www.w3.org/2000/svg"><defs
     id="defs2" /><g
     id="layer1"
     transform="translate(264.71945,2038.6146)"><path
       style="fill:#800080;stroke-width:1.17731"
       d="m -197.43727,-1884.1919 c -5.05183,-1.5861 -7.00316,-7.4942 -5.1294,-15.5304 0.73764,-3.1635 0.6549,-12.145 -0.13277,-14.4152 -0.32149,-0.9266 -0.80369,-2.4985 -1.07156,-3.4934 -1.23544,-4.5875 -4.8603,-10.9231 -8.19102,-14.3163 -4.0597,-4.1359 -12.18105,-8.6474 -21.01336,-11.6732 -4.19458,-1.4371 -8.80782,-3.3007 -10.10644,-4.0827 -0.77074,-0.4644 -2.18701,-1.1586 -3.14726,-1.5428 -1.97347,-0.7899 -7.78195,-5.0479 -10.30717,-7.5562 -2.14412,-2.1296 -5.04332,-6.9449 -7.30124,-12.1265 -2.69256,-6.1789 1.04683,-20.954 7.59298,-30.0011 0.35796,-0.4948 1.11685,-1.9745 1.6864,-3.2883 0.56953,-1.3138 1.67796,-3.2027 2.46313,-4.1974 0.78518,-0.9946 1.81157,-2.4745 2.28089,-3.2883 0.78269,-1.3572 2.72167,-3.7204 6.93462,-8.4513 0.88202,-0.9906 2.22382,-2.2686 2.98176,-2.8404 0.75793,-0.5717 2.35198,-1.7676 3.54236,-2.6578 5.67865,-4.2461 15.55726,-7.7833 32.73962,-11.7231 4.88715,-1.1206 6.95577,-1.4329 10.77012,-1.6259 2.88399,-0.1461 5.24443,-0.4338 6.06589,-0.7397 4.99713,-1.8601 10.96102,-0.694 15.32549,2.9969 2.42608,2.0517 8.08858,5.2694 10.1813,5.7857 0.48687,0.1208 1.94748,0.7891 3.2458,1.4865 2.32366,1.2483 11.10056,4.6159 12.03061,4.6159 0.262,0 1.71215,0.4614 3.22256,1.0256 1.51041,0.5641 3.4337,1.2254 4.27398,1.4694 1.96571,0.5709 8.2281,4.1503 9.38505,5.3642 0.48953,0.5136 1.68674,1.4837 2.66048,2.1555 0.97374,0.672 2.31255,1.8381 2.97513,2.5912 0.66258,0.7532 1.72484,1.7822 2.36058,2.2868 0.63573,0.5045 1.48783,1.4382 1.89355,2.0749 0.40572,0.6366 1.18758,1.7775 1.73747,2.5353 1.33285,1.8369 2.22376,3.4489 2.62361,4.7475 0.18085,0.5873 0.65474,1.5491 1.05311,2.1374 4.13278,6.103 5.13867,22.2749 1.78827,28.7501 -0.39099,0.7556 -0.71088,1.6697 -0.71088,2.0312 0,0.7653 -1.84636,4.8313 -2.63315,5.7987 -0.29572,0.3637 -0.95263,1.6229 -1.45981,2.7985 -0.50717,1.1756 -1.59409,2.9513 -2.41537,3.9459 -0.82127,0.9948 -1.70421,2.2526 -1.96208,2.7952 -1.72691,3.6335 -8.48421,10.9672 -11.02661,11.9671 -1.04263,0.4102 -2.16126,0.9113 -2.48583,1.1137 -3.0055,1.8738 -3.91849,2.2857 -5.95231,2.6854 -1.63451,0.3211 -3.90546,1.2365 -7.76852,3.1312 -3.00237,1.4726 -6.18914,2.9789 -7.08173,3.3474 -0.8926,0.3685 -2.69946,1.1743 -4.01526,1.7905 -1.31579,0.6162 -2.61373,1.1203 -2.88431,1.1203 -1.51562,0 -5.50647,2.9766 -7.3491,5.4813 -1.02001,1.3865 -4.47558,4.9921 -6.61808,6.9053 -1.48848,1.3292 -3.9286,5.3298 -5.02555,8.2392 -0.46801,1.2414 -1.42548,3.1239 -2.1277,4.1831 -1.25625,1.895 -2.07732,4.1365 -2.07732,5.6708 0,6.3317 -6.56243,12.1732 -11.82093,10.5223 z m 10.17024,-41.6255 c 0.30567,-0.3765 1.17242,-1.1253 1.92613,-1.6643 0.75369,-0.5391 1.6865,-1.4656 2.0729,-2.059 0.74938,-1.1509 1.80549,-2.4738 3.68641,-4.6178 2.2546,-2.5699 8.20001,-6.3675 11.86544,-7.5789 0.83806,-0.2769 1.83393,-0.729 2.21305,-1.0046 0.37912,-0.2757 2.21631,-1.1805 4.08264,-2.0106 1.86633,-0.8302 3.95621,-1.8002 4.64417,-2.1556 0.68796,-0.3555 1.36586,-0.6463 1.50645,-0.6463 0.14058,0 1.62583,-0.6678 3.30052,-1.4841 1.67471,-0.8162 3.65247,-1.6874 4.39501,-1.9361 0.74252,-0.2485 2.34592,-1.0497 3.56309,-1.7803 1.21716,-0.7307 2.74416,-1.4353 3.39333,-1.5659 0.73969,-0.1488 1.66391,-0.7102 2.47588,-1.5036 0.71258,-0.6963 1.4013,-1.2661 1.53049,-1.2661 0.1292,0 0.98958,-1.2771 1.91196,-2.8379 0.92239,-1.561 2.14077,-3.41 2.70752,-4.1091 0.93946,-1.1589 2.51025,-3.7968 3.49982,-5.8774 1.08938,-2.2906 1.93749,-5.7029 2.05961,-8.2867 0.0709,-1.5011 0.17527,-3.2472 0.23184,-3.8801 0.13857,-1.551 -0.57971,-3.7701 -1.79426,-5.5433 -0.5505,-0.8037 -1.26166,-2.0309 -1.58036,-2.7271 -0.3187,-0.6961 -0.70315,-1.2658 -0.85436,-1.2658 -0.15119,0 -0.70823,-0.7028 -1.23788,-1.5618 -1.03078,-1.672 -5.47458,-6.659 -5.93359,-6.659 -0.15186,0 -0.75995,-0.4167 -1.35132,-0.9259 -1.99066,-1.7145 -3.91905,-2.7507 -6.61594,-3.555 -1.47509,-0.4399 -2.8236,-0.9242 -2.99671,-1.0761 -0.1731,-0.1518 -0.83798,-0.3814 -1.47751,-0.5102 -0.63955,-0.1286 -2.89686,-0.8701 -5.01623,-1.6476 -2.11937,-0.7774 -5.00041,-1.8134 -6.40228,-2.302 -1.40187,-0.4885 -3.00431,-1.2332 -3.56097,-1.6548 -0.55667,-0.4215 -1.60059,-0.9381 -2.31983,-1.1479 -0.71924,-0.2099 -3.10027,-1.3447 -5.29118,-2.5218 -3.67794,-1.9762 -4.9219,-2.7508 -7.18514,-4.4742 -0.8411,-0.6405 -0.8411,-0.6405 -2.36058,0.298 -1.69723,1.0484 -5.53624,1.3117 -6.93145,0.4753 -1.32086,-0.7916 -4.6874,-0.8128 -8.16133,-0.052 -6.07179,1.331 -9.14359,2.0675 -11.36026,2.7242 -1.21717,0.3605 -4.23748,1.2238 -6.7118,1.9183 -4.78581,1.3432 -10.08116,3.5616 -12.02526,5.0377 -3.18002,2.4148 -4.39473,3.5485 -6.56291,6.1254 -1.29347,1.5372 -2.55941,3.2389 -2.8132,3.7815 -0.25381,0.5425 -1.06963,1.6461 -1.81295,2.4525 -0.74332,0.8062 -1.35149,1.6351 -1.35149,1.8417 0,0.5873 -1.4082,3.393 -2.53582,5.0527 -5.45501,8.0285 -7.35414,13.6838 -5.57589,16.6039 0.40725,0.6688 0.99107,1.7635 1.29737,2.4327 0.32977,0.7202 1.04707,1.5235 1.75862,1.9691 0.66094,0.414 1.87879,1.3491 2.70634,2.0781 0.82755,0.7289 2.19263,1.5911 3.03352,1.9157 0.84089,0.3246 2.39198,1.0436 3.44687,1.598 1.90591,1.0012 2.84198,1.3779 7.08172,2.8501 4.02074,1.3962 10.47379,3.9946 11.21829,4.5172 0.40266,0.2827 1.23055,0.6901 1.83974,0.9054 1.25133,0.4422 4.41575,2.3737 7.37215,4.4997 1.09351,0.7866 2.08938,1.4348 2.21304,1.4406 1.06927,0.05 6.22661,5.3459 8.7992,9.0349 0.96424,1.3827 2.43739,3.4796 3.27367,4.6598 0.8363,1.1799 1.75226,2.8333 2.03548,3.6739 0.28323,0.8407 1.09569,2.8268 1.80548,4.4136 1.38617,3.0987 1.56563,3.1981 2.87275,1.5885 z"
       id="path14" /><rect
       style="fill:none;stroke:#ff0000;stroke-width:0.500062;stroke-linejoin:round"
       id="rect23"
       width="154.20555"
       height="154.20555"
       x="-264.46942"
       y="-2038.3645" /></g></svg>
