<?xml version="1.0" encoding="UTF-8" standalone="no"?>
<!-- Created with Inkscape (http://www.inkscape.org/) -->

<svg
   width="154.70561mm"
   height="154.70555mm"
   viewBox="0 0 154.70561 154.70555"
   version="1.1"
   id="svg5"
   xml:space="preserve"
   xmlns="http://www.w3.org/2000/svg"
   xmlns:svg="http://www.w3.org/2000/svg"><defs
     id="defs2" /><g
     id="layer1"
     transform="translate(924.67604,2038.6144)"><path
       style="fill:#00ff00;stroke-width:0.995827"
       d="m -919.92964,-1884.1687 c -4.4488,-1.4982 -6.28385,-8.0832 -3.25599,-11.6838 0.53025,-0.6306 0.57314,-0.8838 0.46482,-2.7444 -0.17228,-2.9584 1.2331,-5.4757 3.05699,-5.4757 0.64311,0 2.0084,-1.6208 2.79592,-3.3193 0.38798,-0.8368 1.358,-2.5218 2.15559,-3.7444 0.7976,-1.2228 1.62637,-2.6881 1.8417,-3.256 0.21534,-0.568 0.72935,-1.6378 1.14224,-2.3774 0.41289,-0.7395 0.97797,-2.0749 1.25575,-2.9677 0.27778,-0.8926 0.94643,-2.6186 1.48589,-3.8357 1.02238,-2.3067 2.41201,-6.268 3.26101,-9.2964 0.27259,-0.9721 0.89791,-2.5037 1.38959,-3.4035 1.01947,-1.8654 1.88503,-3.9252 1.88503,-4.4859 0,-0.4433 2.57545,-5.9532 3.32472,-7.1129 0.27988,-0.4331 0.81145,-1.6779 1.18129,-2.7662 0.74221,-2.1836 1.61103,-3.8172 2.85975,-5.3768 1.38017,-1.7237 4.68123,-8.1308 4.68123,-9.086 0,-0.5183 3.00535,-5.6482 4.06366,-6.9361 0.6638,-0.8078 1.2069,-1.6435 1.2069,-1.8568 0,-0.3254 1.44124,-2.6492 3.52996,-5.6915 0.26112,-0.3802 0.89418,-1.5478 1.40679,-2.5942 0.51262,-1.0467 1.45161,-2.5401 2.08665,-3.3194 1.67277,-2.0518 2.86694,-4.0226 3.20497,-5.2886 0.16246,-0.6086 0.66633,-1.7237 1.11973,-2.478 0.45341,-0.7542 1.12196,-1.9689 1.48567,-2.699 0.36372,-0.7301 1.21077,-2.0331 1.88233,-2.8959 0.67159,-0.8626 1.45944,-2.0753 1.75082,-2.6948 1.93461,-4.1131 2.72557,-5.668 3.31644,-6.519 1.21306,-1.7472 1.83549,-2.8412 2.744,-4.8229 0.49298,-1.0752 1.37206,-2.7017 1.95351,-3.6145 0.58146,-0.9129 1.14006,-1.9707 1.24134,-2.3511 0.21284,-0.7992 1.86939,-4.2073 3.02492,-6.2235 1.0438,-1.8213 2.10163,-4.7926 2.38191,-6.6905 0.7491,-5.0724 5.94221,-8.2549 10.13516,-6.2106 3.98373,1.942 10.58183,13.1251 11.61001,19.6777 0.20291,1.2932 0.63177,2.9921 0.95303,3.7753 0.32126,0.7833 0.65793,1.7945 0.74815,2.2473 0.0902,0.4528 0.43223,1.1008 0.76003,1.4401 0.90811,0.9402 2.42366,5.081 2.57676,7.0404 0.15141,1.9377 0.30805,2.3357 1.58619,4.0293 0.99544,1.3192 2.58816,4.5815 2.8873,5.9139 0.0984,0.4381 0.59843,1.2142 1.11123,1.7249 1.3798,1.3738 2.79275,4.6297 3.01033,6.937 0.20625,2.187 0.67085,3.4677 1.90365,5.2477 0.48768,0.7041 0.95063,1.6326 1.02875,2.0629 0.0793,0.4373 0.44866,0.9995 0.83623,1.273 1.42929,1.0091 4.01387,5.1077 4.01387,6.3654 0,0.2767 0.51181,1.3708 1.13733,2.4311 1.36648,2.3163 2.6752,5.2603 3.25726,7.3272 0.90398,3.2104 1.53771,4.6171 2.81506,6.2485 1.22686,1.5669 2.82951,4.8243 2.82951,5.7509 0,0.2198 0.26291,0.7515 0.58425,1.1816 0.76894,1.0291 3.52834,6.0669 4.70229,8.5847 0.51137,1.0969 1.26664,2.466 1.67837,3.0427 0.94137,1.3183 1.68368,2.9234 2.05522,4.4441 0.29505,1.2075 1.25795,2.5498 3.81085,5.3115 0.77628,0.8399 1.67414,1.9626 1.99523,2.4952 0.32109,0.5324 0.71909,1.0605 0.88445,1.1735 0.44864,0.3065 2.0936,3.1214 2.4117,4.1271 0.34235,1.0822 2.07087,3.6655 2.80984,4.1989 0.84521,0.6105 2.59491,3.6664 3.0184,5.2719 0.46557,1.765 1.39989,3.2236 3.41722,5.3344 6.83418,7.1513 2.79429,18.7054 -5.43558,15.5458 -0.53653,-0.2057 -1.99198,-0.3808 -3.23432,-0.3888 -1.34019,-0.021 -2.76916,-0.1931 -3.5137,-0.4555 -4.39984,-1.5465 -8.30537,-2.7051 -9.16073,-2.7175 -0.71507,-0.021 -2.75516,-0.5322 -16.6901,-4.2697 -3.00033,-0.8048 -4.75832,-1.092 -8.65877,-1.4144 -2.69175,-0.2226 -5.96702,-0.5414 -7.27839,-0.7085 -2.49715,-0.3181 -7.5632,-0.1617 -9.7806,0.3018 -0.70638,0.147 -6.27703,0.3426 -12.37922,0.4333 -17.32959,0.2576 -18.10885,0.292 -21.00804,0.9273 -1.44913,0.3174 -3.03029,0.5781 -3.5137,0.5794 -0.4834,0 -1.78245,0.2502 -2.88675,0.5535 -1.15338,0.3168 -3.71675,0.6716 -6.02349,0.8336 -2.37735,0.168 -4.73243,0.4971 -5.77252,0.8089 -0.96627,0.2895 -2.31892,0.61 -3.00589,0.7118 -0.68699,0.1029 -2.43757,0.714 -3.89018,1.3601 -1.45263,0.6462 -3.88348,1.5096 -5.4019,1.9185 -4.14096,1.1154 -5.61989,1.551 -7.27838,2.1438 -0.82823,0.296 -2.03869,0.7083 -2.68991,0.9161 -0.65122,0.2078 -1.95004,0.7916 -2.88626,1.2976 -1.8399,0.9942 -4.39045,1.3269 -6.00437,0.7832 z m 19.49192,-20.8806 c 1.17893,-0.6527 5.5352,-2.0655 6.3702,-2.0657 0.26275,-2e-4 1.10981,-0.339 1.88234,-0.7532 1.32964,-0.7127 1.65909,-0.7623 6.1732,-0.9275 3.45083,-0.1259 5.45152,-0.3386 7.23991,-0.7683 1.35921,-0.3266 2.84324,-0.5939 3.29784,-0.5939 0.4546,0 1.94013,-0.2596 3.3012,-0.5771 3.12047,-0.7276 11.06431,-1.0972 23.25379,-1.0817 4.80266,0 9.43322,-0.1155 10.29012,-0.2693 3.51965,-0.6338 7.52221,-0.7665 11.47168,-0.3804 2.13959,0.2099 5.64075,0.4996 7.78034,0.6453 5.6667,0.3863 8.16962,0.9291 21.70967,4.7082 6.09897,1.7021 6.71597,1.573 4.63337,-0.9705 -0.24915,-0.3042 -0.88535,-1.3076 -1.41378,-2.2298 -2.07609,-3.6229 -2.68377,-4.4987 -4.82736,-6.9569 -2.2587,-2.5901 -4.90245,-6.8982 -5.5654,-9.069 -0.18585,-0.6086 -0.52754,-1.4181 -0.75932,-1.7989 -0.23179,-0.381 -0.93116,-1.7501 -1.55417,-3.0428 -2.17,-4.5019 -3.0964,-6.2323 -4.1463,-7.7438 -1.2434,-1.7902 -2.3042,-4.0186 -2.3042,-4.8406 0,-0.3206 -0.4094,-1.0119 -0.90979,-1.536 -1.24307,-1.3024 -2.4411,-3.4153 -2.97159,-5.2406 -0.24317,-0.8368 -0.60091,-1.8008 -0.79498,-2.1421 -0.19406,-0.3415 -0.53143,-1.3994 -0.7497,-2.3512 -0.50247,-2.1907 -1.7137,-4.7359 -2.46458,-5.1788 -0.97765,-0.5767 -3.4034,-4.5266 -3.4034,-5.5418 0,-0.1659 -0.44668,-0.9516 -0.99261,-1.7485 -0.86198,-1.2583 -1.75817,-3.0152 -3.97542,-7.7935 -0.88973,-1.9176 -2.56133,-6.0819 -2.56133,-6.3811 0,-0.1574 -0.34838,-0.8088 -0.77417,-1.4468 -0.67831,-1.0166 -2.05332,-4.6177 -2.41139,-6.3156 -0.0684,-0.3241 -0.57774,-1.1942 -1.13185,-1.9332 -1.60347,-2.1387 -3.59132,-6.9678 -4.07552,-9.9011 -0.0984,-0.596 -0.43992,-1.4672 -0.75898,-1.9364 -0.84307,-1.2389 -1.79281,-3.427 -2.23769,-5.1549 -0.41083,-1.5956 -1.28417,-4.5707 -1.7311,-5.897 -0.3265,-0.969 -0.61191,-0.6581 -1.58133,1.7225 -0.33165,0.8143 -0.97991,2.0591 -1.44057,2.7659 -0.46068,0.7071 -1.3035,2.3048 -1.87295,3.5507 -0.56945,1.2459 -1.77476,3.4589 -2.67847,4.9177 -0.90371,1.4588 -1.64311,2.8065 -1.64311,2.995 0,0.1889 -0.29423,0.82 -0.65384,1.4032 -0.3596,0.5831 -1.0482,1.9052 -1.53021,2.9381 -0.48201,1.0326 -1.22497,2.3436 -1.65103,2.9133 -0.42605,0.5695 -1.07831,1.7434 -1.44947,2.6083 -0.37117,0.8649 -1.01032,1.9996 -1.42036,2.5214 -0.41003,0.5219 -1.06729,1.5713 -1.4606,2.3319 -1.0751,2.0793 -3.08567,5.3588 -4.23935,6.9149 -0.56391,0.7608 -1.23849,1.8188 -1.49908,2.3512 -0.26058,0.5326 -0.893,1.5906 -1.40537,2.3512 -2.08561,3.0961 -2.94202,4.4863 -3.49342,5.6702 -0.31882,0.6848 -1.114,1.9916 -1.76709,2.9044 -1.27415,1.781 -2.6546,4.3053 -4.13722,7.5655 -1.11839,2.4592 -4.27523,8.1514 -4.77354,8.6071 -0.19711,0.1805 -0.54366,0.9426 -0.7701,1.6939 -0.39782,1.32 -1.75832,4.0434 -3.56359,7.1333 -0.47829,0.8185 -1.09527,2.2457 -1.37106,3.1717 -0.52915,1.7764 -1.7253,4.5516 -2.46206,5.7123 -0.42556,0.6705 -1.44413,3.6304 -2.61761,7.6066 -0.31427,1.065 -1.08038,3.0565 -1.70246,4.4257 -0.62208,1.3691 -1.27479,2.9872 -1.45046,3.5958 -0.36227,1.2547 -3.64595,8.3451 -4.17331,9.0114 -0.80941,1.0222 -0.12347,0.9619 1.91863,-0.1679 z"
       id="path10" /><rect
       style="fill:none;stroke:#ff0000;stroke-width:0.500062;stroke-linejoin:round"
       id="rect17"
       width="154.20555"
       height="154.20555"
       x="-924.42603"
       y="-2038.3645" /><rect
       style="fill:none;stroke:#ff0000;stroke-width:0.500062;stroke-linejoin:round"
       id="rect18"
       width="154.20555"
       height="154.20555"
       x="-924.42603"
       y="-2038.3645" /></g></svg>
