<?xml version="1.0" encoding="UTF-8" standalone="no"?>
<!-- Created with Inkscape (http://www.inkscape.org/) -->

<svg
   width="154.70561mm"
   height="154.70529mm"
   viewBox="0 0 154.70561 154.70529"
   version="1.1"
   id="svg5"
   xml:space="preserve"
   xmlns="http://www.w3.org/2000/svg"
   xmlns:svg="http://www.w3.org/2000/svg"><defs
     id="defs2" /><g
     id="layer1"
     transform="translate(99.730313,2038.6146)"><path
       style="fill:#808080;stroke-width:1.22079"
       d="m -85.12768,-1884.0614 c -7.424209,-1.6153 -8.270687,-15.7813 -1.095916,-18.3406 0.561571,-0.2003 1.229722,-0.6068 1.484758,-0.9035 1.244749,-1.4477 7.674207,-5.4371 10.494729,-6.5116 1.672644,-0.6373 3.375114,-1.3771 3.783267,-1.6437 0.408164,-0.2669 1.623022,-0.7614 2.699702,-1.0992 1.076669,-0.3377 2.21949,-0.8228 2.539603,-1.0781 0.320112,-0.2551 1.471031,-0.954 2.557603,-1.5525 1.086572,-0.5988 2.61498,-1.6138 3.396476,-2.2558 0.781486,-0.6421 2.027287,-1.3999 2.768431,-1.6844 0.741155,-0.2845 2.14784,-1.2493 3.125964,-2.1438 0.978124,-0.8947 2.225999,-1.9198 2.773038,-2.2783 4.087043,-2.6771 12.447703,-11.787 14.371665,-15.6593 0.368897,-0.7425 1.044233,-1.8994 1.50074,-2.5712 1.438262,-2.1161 3.466409,-6.2145 5.145238,-10.3969 0.891567,-2.2211 2.025118,-4.9106 2.518991,-5.9767 0.897958,-1.9384 0.897958,-1.9384 0.07121,-3.855 -0.454692,-1.054 -1.026478,-2.7423 -1.270623,-3.752 -1.235329,-5.1083 -1.937506,-7.0223 -4.090619,-11.1506 -1.560351,-2.9918 -2.458791,-5.1239 -2.761814,-6.5542 -0.83955,-3.9632 -2.669672,-7.7778 -5.161962,-10.7593 -0.754183,-0.9023 -1.627007,-2.0607 -1.939601,-2.5742 -0.312594,-0.5135 -1.143819,-1.4523 -1.847156,-2.0858 -0.703348,-0.6337 -2.749431,-2.9937 -4.546859,-5.2445 -1.797427,-2.2507 -3.651682,-4.3488 -4.120574,-4.6624 -1.057669,-0.7074 -4.315517,-3.4637 -6.388097,-5.4044 -6.399244,-5.9924 -16.236597,-6.754 -24.018973,-1.8597 -10.624251,6.6818 -16.05709,6.0783 -16.565345,-1.8396 -0.852666,-13.2832 19.020097,-24.2166 35.747368,-19.6671 7.202147,1.9589 8.402956,2.6392 14.656742,8.3037 1.70742,1.5466 3.711863,3.2111 4.454327,3.6992 1.839853,1.2092 5.432561,4.9796 7.60898,7.9854 0.988661,1.3654 2.654753,3.1988 3.702422,4.0745 1.04767,0.8756 2.272054,2.2174 2.720839,2.9818 0.448797,0.7645 1.764368,2.6748 2.923504,4.245 1.159146,1.5703 2.513095,3.8109 3.008783,4.9792 0.49569,1.1684 1.36948,3.1056 1.941771,4.3048 0.572291,1.1995 1.295166,3.0993 1.606395,4.222 0.842943,3.0409 1.937238,5.5352 3.150592,7.1813 1.119052,1.5181 2.519583,4.953 2.544716,6.2411 0.02792,1.4298 2.108314,-2.4189 5.489774,-10.1556 0.4114614,-0.9415 1.0958628,-2.2455 1.5209003,-2.8981 0.4250375,-0.6526 1.2693985,-2.4431 1.8763493,-3.9788 0.6069617,-1.5358 1.4300563,-3.6185 1.8291123,-4.628 0.9243354,-2.3386 2.6488558,-5.6639 4.31318587,-8.3169 0.71618263,-1.1416 2.00548333,-3.2681 2.86512823,-4.7253 1.6135378,-2.7355 5.2761339,-7.0544 7.6200535,-8.9856 0.7352265,-0.6058 1.7831745,-1.535 2.3287855,-2.0651 7.765696,-7.5434 31.932331,-7.5242 40.0064,0.032 4.219979,3.9492 3.469845,13.2109 -1.321598,16.3172 -2.732858,1.7719 -7.831751,1.5113 -10.373748,-0.5303 -2.389052,-1.9186 -14.759551,-2.3128 -17.941151,-0.5718 -3.2344,1.77 -7.646486,6.3217 -9.085102,9.3725 -0.529919,1.1238 -1.420315,2.613 -1.978664,3.3094 -0.569757,0.7104 -1.273319,2.1572 -1.6035069,3.2974 -0.3235708,1.1173 -1.0379486,2.8399 -1.5875127,3.8282 -0.5495642,0.9882 -1.1671051,2.4116 -1.3723263,3.1629 -0.6618351,2.4234 -1.5410598,4.3552 -2.8466755,6.2542 -0.7021341,1.0215 -1.2765947,2.0424 -1.2765947,2.2691 0,0.2265 -0.3516792,1.0055 -0.7814963,1.7309 -0.429817,0.7253 -1.27566022,2.3105 -1.87965745,3.5224 -0.60398637,1.2119 -1.52458405,2.8818 -2.04577135,3.7109 -0.5211765,0.8291 -1.2587867,2.4164 -1.6391326,3.5275 -0.6836602,1.9971 -2.248672,4.6228 -4.74151,7.9551 -1.4545555,1.9443 -1.4672831,3.5116 -0.05628,6.9334 0.3554061,0.862 0.755998,2.6969 0.8902125,4.0778 0.1342252,1.381 0.3818066,2.8434 0.5501869,3.2498 0.168391,0.4065 0.4310951,1.6278 0.5837834,2.7141 1.324734,9.4241 6.05159376,18.8082 11.2510288,22.3364 0.9377928,0.6365 2.4084169,1.7996 3.2680509,2.5847 2.1541323,1.9675 5.7974493,4.2434 7.6728103,4.793 0.859645,0.252 2.448576,0.846 3.530959,1.32 5.416804,2.3723 14.416271,-1.5143 16.694361,-7.2099 4.756504,-11.8917 20.202347,-2.4888 15.779425,9.6061 -1.172712,3.207 -3.818023,6.2614 -7.385071,8.5274 -0.748609,0.4757 -1.59994,1.144 -1.891826,1.4852 -1.172765,1.3712 -5.74959,4.3019 -9.70215,6.2127 -5.685028,2.7484 -11.374868,2.7823 -18.02032,0.1083 -1.250387,-0.5033 -3.232521,-1.187 -4.40476,-1.5195 -2.4698845,-0.7002 -3.9393909,-1.5977 -8.769167,-5.3551 -1.93152372,-1.5026 -4.59721,-3.4383 -5.9237377,-4.3014 -1.5764182,-1.0256 -2.8418319,-2.1703 -3.6531549,-3.3042 -6.7843074,-9.482 -8.0935634,-11.7339 -9.8785114,-16.9903 -1.792379,-5.2784 -2.168955,-6.52 -2.42472,-7.9941 -0.463135,-2.6694 -0.444521,-2.688 -3.71704,3.7029 -1.787987,3.4917 -3.904947,6.5136 -4.563151,6.5136 -0.153785,0 -0.912511,0.8134 -1.686059,1.8074 -0.773548,0.9941 -2.661466,3.0048 -4.195372,4.4681 -1.533918,1.4634 -3.212577,3.0868 -3.730369,3.6077 -1.42953,1.4381 -4.038281,3.6196 -5.310483,4.4411 -0.625188,0.4036 -1.776118,1.3945 -2.557604,2.2021 -0.781495,0.8074 -2.101665,1.7995 -2.933727,2.2046 -1.412196,0.6876 -3.75792,2.0794 -9.285931,5.509 -1.250388,0.7758 -2.848888,1.5975 -3.552236,1.8261 -4.244038,1.3791 -10.403736,4.311 -13.545252,6.4472 -5.214139,3.5457 -7.395327,4.3938 -9.899443,3.8488 z m 10.088327,-42.2196 c -1.544755,-0.3776 -3.762075,-1.3381 -5.115207,-2.2156 -0.547039,-0.3548 -1.703942,-0.9086 -2.570901,-1.2308 -10.054247,-3.7366 -14.382019,-25.4828 -7.534407,-37.859 7.962345,-14.3908 18.023155,-21.0725 24.882581,-16.5255 0.703337,0.4663 1.998202,0.9434 2.877481,1.0599 10.063183,1.3353 14.89718,15.3425 11.731058,33.9924 -1.316894,7.7571 -7.336083,17.3574 -12.775882,20.3769 -4.235585,2.3511 -8.261868,3.1924 -11.494723,2.4017 z m 5.037951,-20.0846 c 0.84145,-0.4226 4.018153,-5.0728 4.169401,-6.1034 0.06562,-0.447 0.322594,-2.138 0.571153,-3.758 0.782258,-5.0985 0.588928,-5.78 -1.28102,-4.5155 -1.74236,1.1782 -4.43522,1.1771 -6.289251,0 -1.343991,-0.8551 -1.343991,-0.8551 -2.983865,1.4214 -4.443642,6.1689 -3.326308,11.134 3.04906,13.5489 0.678376,0.257 1.370414,0.1096 2.764522,-0.5909 z m 98.829179,10.6253 c -11.473596,-3.6188 -17.280465,-13.1031 -17.942923,-29.3063 -0.193083,-4.7223 2.178911,-11.0889 5.713974,-15.3367 3.589109,-4.3127 12.510642,-6.2785 16.655093,-3.6697 1.63401,1.0286 2.154102,1.1646 4.951736,1.2958 5.770116,0.2707 11.509211,6.3933 11.509211,12.2783 0,0.4645 0.277602,1.9372 0.616898,3.2722 1.217113,4.79 0.180721,14.319 -2.059102,18.9326 -0.623512,1.2843 -1.331661,2.8984 -1.573668,3.5871 -2.147388,6.1107 -11.700211,10.893 -17.871219,8.9467 z"
       id="path13" /><rect
       style="fill:none;stroke:#ff0000;stroke-width:0.500062;stroke-linejoin:round"
       id="rect24"
       width="154.20555"
       height="154.20555"
       x="-99.480293"
       y="-2038.3645" /></g></svg>
