<?xml version="1.0" encoding="UTF-8" standalone="no"?>
<!-- Created with Inkscape (http://www.inkscape.org/) -->

<svg
   width="154.7056mm"
   height="154.70567mm"
   viewBox="0 0 154.7056 154.70567"
   version="1.1"
   id="svg5"
   xml:space="preserve"
   xmlns="http://www.w3.org/2000/svg"
   xmlns:svg="http://www.w3.org/2000/svg"><defs
     id="defs2" /><g
     id="layer1"
     transform="translate(-65.258811,2038.6146)"><path
       style="fill:#008000;stroke-width:1.26499"
       d="m 149.38021,-1883.9468 c -14.72903,-0.8224 -16.75554,-1.0257 -20.49906,-2.0555 -1.22358,-0.3366 -4.38653,-0.8281 -7.02868,-1.0922 -6.01761,-0.6014 -9.74493,-1.6087 -12.89313,-3.4841 -1.33144,-0.7933 -2.6011,-1.4422 -2.82146,-1.4422 -1.58592,0 -9.296651,-6.6523 -9.296651,-8.0205 0,-0.168 -0.774233,-1.0497 -1.720475,-1.9597 -0.946374,-0.9099 -2.571216,-3.017 -3.610966,-4.6826 -1.039617,-1.6654 -2.160921,-3.4585 -2.491787,-3.9844 -1.734555,-2.7578 -2.787853,-5.0796 -3.266818,-7.2009 -1.379382,-6.1087 -2.28312,-11.403 -2.144451,-12.5619 1.018099,-8.5088 2.117222,-13.4974 3.892687,-17.6673 1.454959,-3.4169 2.782805,-5.8265 3.514668,-6.3774 0.304434,-0.2292 0.789642,-1.1382 1.078402,-2.0199 0.746208,-2.279 2.770453,-5.4839 4.71155,-7.4592 1.043867,-1.0624 1.882919,-2.3184 2.250976,-3.3697 0.82484,-2.3561 3.688805,-6.2596 5.676255,-7.7368 0.92313,-0.6861 2.47625,-2.3285 3.45144,-3.6497 3.90903,-5.2968 8.18983,-9.8378 10.71083,-11.3618 1.01478,-0.6134 2.27994,-1.6308 2.8115,-2.2608 0.53156,-0.63 1.46293,-1.6622 2.0698,-2.294 1.10338,-1.1484 1.10338,-1.1484 -1.41405,-1.1607 -2.95614,-0.014 -6.47227,-1.3536 -10.40799,-3.9638 -4.66586,-3.0944 -5.91839,-3.6341 -14.057343,-6.0571 -1.642906,-0.4891 -4.568497,-1.4606 -6.501359,-2.1589 -1.932995,-0.6981 -4.146913,-1.3694 -4.920084,-1.4916 -0.773171,-0.1222 -3.102913,-0.7151 -5.1771,-1.3179 -2.816277,-0.8181 -4.394365,-1.0957 -6.230796,-1.0957 -6.139407,0 -10.104749,-3.5164 -9.789822,-8.6813 0.329936,-5.4106 4.031621,-8.3886 10.346224,-8.3234 3.205852,0.033 3.205852,0.033 3.389149,-1.8009 0.580576,-5.807 6.359769,-9.135 13.085203,-7.5351 2.360158,0.5614 12.057138,4.9266 13.657678,6.1481 1.14322,0.8726 4.86031,2.6364 7.68084,3.6448 1.00163,0.3581 2.4615,1.0409 3.24424,1.5173 0.78273,0.4765 2.29294,1.2024 3.35607,1.6132 1.06313,0.4109 3.00409,1.3738 4.31334,2.1399 1.30925,0.7661 3.20705,1.7718 4.21718,2.2348 1.01013,0.4631 2.92692,1.6938 4.25928,2.7348 1.47807,1.1549 3.57564,2.376 5.38006,3.1321 1.62657,0.6817 3.56381,1.675 4.3051,2.2076 1.75807,1.2629 1.52018,1.3311 4.94811,-1.4199 1.63667,-1.3136 3.74194,-2.7838 4.67835,-3.2673 2.98855,-1.5432 5.59895,-3.1899 8.57727,-5.4108 6.18577,-4.6127 24.82928,-11.6519 33.22033,-12.5431 13.09477,-1.3907 14.82693,-1.4618 16.77029,-0.6878 3.16534,1.2608 5.26914,3.886 5.79154,7.2267 0.17653,1.1287 0.58749,1.9382 1.44606,2.848 4.52201,4.7917 1.01465,12.6628 -6.12188,13.7386 -0.83599,0.126 -2.46894,0.5789 -3.62876,1.0063 -1.15983,0.4275 -3.74313,1.1274 -5.74068,1.5556 -1.99754,0.4281 -4.15993,1.052 -4.80559,1.3864 -0.64552,0.3345 -2.0435,0.8608 -3.10649,1.1697 -1.06313,0.309 -3.11899,1.1283 -4.56863,1.8206 -1.44965,0.6924 -3.25553,1.462 -4.01303,1.7101 -3.03052,0.9928 -17.72144,9.559 -17.76514,10.3587 0,0.1073 0.47923,0.7529 1.07787,1.4344 0.59877,0.6815 1.33263,1.6695 1.63095,2.1955 0.29833,0.5259 0.88581,1.3297 1.30567,1.7863 0.41972,0.4565 1.46505,2.0006 2.3227,3.4311 0.85765,1.4307 2.14923,3.5674 2.87007,4.7483 0.72097,1.1808 1.8707,3.145 2.55514,4.3647 0.68432,1.2197 1.54741,2.5107 1.91786,2.8688 0.37044,0.3581 1.17137,1.6553 1.77971,2.8824 0.60834,1.2272 1.41684,2.7333 1.79685,3.3469 1.44553,2.3345 2.12732,4.0437 2.2883,5.7376 0.0917,0.9643 0.46396,2.829 0.82736,4.1439 0.36328,1.3148 0.83401,3.1795 1.04586,4.1438 0.21186,0.9643 0.69348,2.3319 1.07017,3.0394 0.37669,0.7074 0.83387,1.9983 1.01611,2.8687 0.1821,0.8706 0.76706,2.7302 1.29982,4.1328 1.42428,3.7494 1.58991,23.5864 0.23829,28.5286 -2.56604,9.3827 -5.11654,13.9957 -10.7123,19.3752 -4.39928,4.2294 -10.29575,6.7025 -20.66682,8.6678 -2.02956,0.3846 -4.4807,0.8871 -5.44713,1.1167 -2.13675,0.5077 -4.67875,0.7209 -7.02868,0.5897 z m -17.76301,-24.7938 c 3.55677,-1.1698 7.93692,-1.4365 10.69011,-0.651 3.25447,0.9285 7.12564,0.4419 7.9781,-1.0027 0.26233,-0.4446 1.74731,-1.6623 3.30016,-2.7063 3.67406,-2.47 4.67197,-3.3519 5.5429,-4.8988 1.00388,-1.783 3.19496,-4.6591 4.12792,-5.4188 1.05834,-0.8617 1.96567,-2.5771 2.24951,-4.2529 0.12884,-0.7612 0.69175,-2.1956 1.25054,-3.1875 0.5588,-0.992 1.28415,-2.8794 1.61183,-4.1943 0.32768,-1.3148 0.75351,-2.9644 0.94624,-3.6656 0.19273,-0.7013 0.40392,-1.969 0.4694,-2.817 0.0651,-0.8481 0.37643,-2.2449 0.69096,-3.104 0.54232,-1.481 0.53634,-1.6492 -0.11556,-3.2395 -0.37829,-0.9224 -0.80465,-2.3227 -0.94757,-3.1117 -0.14279,-0.7889 -0.5406,-1.9372 -0.88382,-2.5518 -0.34321,-0.6146 -0.81248,-1.7523 -1.04293,-2.5281 -0.23032,-0.7759 -0.78699,-1.8509 -1.23687,-2.3889 -0.45,-0.5381 -1.95637,-2.8429 -3.34757,-5.122 -1.39107,-2.2792 -3.1672,-4.7176 -3.94715,-5.4188 -0.77981,-0.7013 -2.05506,-2.064 -2.83407,-3.0283 -0.77902,-0.9642 -1.66323,-1.887 -1.96514,-2.0506 -1.39479,-0.7561 -4.08422,-3.3675 -5.02807,-4.8824 -1.36397,-2.1886 -1.38669,-2.1938 -2.62806,-0.5963 -1.26928,1.6334 -6.20955,5.5114 -9.65316,7.5775 -3.03211,1.8193 -4.77118,3.3076 -5.37102,4.5969 -0.25064,0.5388 -0.92499,1.4712 -1.49839,2.072 -0.57354,0.6009 -1.23142,1.5945 -1.462,2.2082 -0.61272,1.6303 -9.20407,13.027 -11.65415,15.4596 -0.52971,0.5259 -1.07615,1.3149 -1.21428,1.7532 -0.13814,0.4383 -0.78818,1.6807 -1.44447,2.7611 -0.65642,1.0805 -1.19343,2.1677 -1.19343,2.4164 0,0.2485 -0.39462,1.1576 -0.87704,2.0201 -0.48242,0.8625 -0.87863,1.7833 -0.88049,2.0463 -0.0133,0.9392 -2.41103,9.1904 -2.9572,10.1483 -2.8734,5.0401 4.09962,16.4147 11.38969,18.5791 1.97444,0.5863 9.15852,0.092 11.93521,-0.8214 z"
       id="path15" /><rect
       style="fill:none;stroke:#ff0000;stroke-width:0.500062;stroke-linejoin:round"
       id="rect25"
       width="154.20555"
       height="154.20555"
       x="65.508842"
       y="-2038.3645" /><rect
       style="fill:none;stroke:#ff0000;stroke-width:0.500062;stroke-linejoin:round"
       id="rect26"
       width="154.20555"
       height="154.20555"
       x="65.508842"
       y="-2038.3645" /></g></svg>
