<?xml version="1.0" encoding="UTF-8" standalone="no"?>
<!-- Created with Inkscape (http://www.inkscape.org/) -->

<svg
   width="154.70564mm"
   height="154.70555mm"
   viewBox="0 0 154.70564 154.70555"
   version="1.1"
   id="svg5"
   xml:space="preserve"
   xmlns="http://www.w3.org/2000/svg"
   xmlns:svg="http://www.w3.org/2000/svg"><defs
     id="defs2" /><g
     id="layer1"
     transform="translate(594.69782,2038.6144)"><path
       style="fill:#ff0000;stroke-width:0.959445"
       d="m -522.36419,-1884.1146 c -6.03541,-0.9023 -13.38474,-5.4442 -14.34926,-8.8678 -0.21832,-0.775 -0.57955,-1.9777 -0.80274,-2.6724 -2.03136,-6.3243 2.70755,-14.8482 9.31859,-16.7614 7.66115,-2.217 10.63528,-2.5265 13.48097,-1.402 0.68502,0.2706 1.46749,0.4921 1.73882,0.4921 9.31175,0 15.8982,13.7809 9.40268,19.6732 -0.29336,0.266 -0.53338,0.6512 -0.53338,0.8559 0,1.8389 -4.78918,6.4736 -7.99266,7.7351 -2.61676,1.0302 -7.00123,1.4349 -10.26302,0.9473 z m 3.04261,-56.173 c -4.29407,-0.4448 -5.63064,-0.9896 -9.23188,-3.7627 -3.86707,-2.9778 -4.32354,-3.4438 -6.03409,-6.161 -2.41974,-3.8436 -2.72725,-4.3832 -2.73444,-4.7965 -0.004,-0.2096 -0.40478,-0.8833 -0.89142,-1.4969 -0.92108,-1.1614 -1.57387,-3.0576 -2.15338,-6.2549 -0.17737,-0.9784 -0.53506,-2.3264 -0.79488,-2.9956 -1.2688,-3.2678 0.12925,-9.2147 3.38063,-14.3801 0.50014,-0.7945 0.51651,-0.9671 0.22933,-2.4154 -1.2575,-6.3415 3.47092,-9.1457 18.7065,-11.0937 7.80933,-0.9985 18.54376,2.6128 23.54144,7.9198 4.35929,4.6293 6.62784,7.5495 7.07973,9.1134 0.22219,0.7689 0.62236,1.9662 0.88926,2.6603 0.26747,0.6957 0.65155,2.806 0.85573,4.702 0.20376,1.8917 0.43183,3.7035 0.50684,4.0261 0.40331,1.7346 -0.75136,4.7642 -3.28232,8.6125 -0.5695,0.8658 -1.72004,2.6329 -2.55676,3.9265 -1.48504,2.2961 -2.06157,2.9298 -5.45135,5.991 -2.32923,2.1037 -2.21428,2.0356 -5.24163,3.1047 -1.50988,0.533 -3.60096,1.3346 -4.64686,1.7809 -3.41306,1.4568 -7.6588,1.987 -12.17045,1.5196 z m 7.2262,-14.1172 c 0.83672,-0.3607 2.2059,-0.9456 3.04261,-1.2999 0.83672,-0.3543 2.02524,-1.0885 2.64116,-1.6314 0.61592,-0.543 1.39108,-1.0555 1.72259,-1.139 0.59738,-0.1502 2.16739,-2.2396 2.82523,-3.7598 0.1776,-0.4104 0.6654,-1.1797 1.08401,-1.7096 2.3796,-3.0116 -1.65207,-12.7292 -4.82165,-11.6218 -2.23476,0.7809 -5.3636,-0.078 -7.24403,-1.9908 -3.24779,-3.3023 -10.28442,-1.524 -12.30081,3.1083 -0.24384,0.5602 -0.75626,1.3914 -1.13871,1.8469 -2.30507,2.746 -2.02138,4.428 2.23599,13.2577 2.32823,4.8286 7.37362,6.9135 11.95361,4.9394 z m 50.71021,12.58 c -6.29893,-1.4676 -11.12011,-4.6756 -13.6188,-9.0616 -0.52126,-0.9152 -1.03164,-1.4549 -1.6012,-1.6934 -4.78392,-2.0036 -5.03086,-9.7032 -0.4616,-14.3936 1.11813,-1.1478 1.45581,-1.7031 1.77071,-2.9119 1.77909,-6.829 9.57118,-10.3571 16.19284,-7.3318 1.85547,0.8478 2.6814,1.075 4.41919,1.2154 6.02363,0.4867 12.19575,5.6142 13.5594,11.2645 0.19505,0.8081 0.53849,1.9745 0.76322,2.5918 1.00735,2.7676 -0.18895,9.5207 -1.87117,10.5629 -0.14046,0.087 -0.70397,0.9246 -1.25221,1.8612 -3.09398,5.2855 -12.08444,9.2516 -17.90038,7.8965 z m -115.99958,-5.8461 c -4.51033,-0.7388 -9.37315,-4.0688 -10.97381,-7.5145 -0.31173,-0.6712 -1.08823,-1.7407 -1.72558,-2.3771 -3.26908,-3.2636 -4.52553,-6.6869 -4.61269,-12.5676 -0.13469,-9.0869 14.04794,-13.0572 17.69365,-4.9533 0.46203,1.0272 0.49555,1.0478 1.37714,0.8429 2.01362,-0.4681 6.64912,-0.2534 7.87622,0.3646 5.141,2.5895 7.03727,4.7612 8.90881,10.2032 2.39904,6.9757 -2.44951,14.3516 -10.11986,15.3948 -0.73579,0.1 -1.93382,0.341 -2.66228,0.5354 -1.46903,0.3919 -3.64087,0.419 -5.7616,0.072 z m 59.83803,-53.7654 c -1.89916,-0.2171 -3.49809,-0.6038 -5.57812,-1.3487 -1.60371,-0.5743 -3.65748,-1.3084 -4.56392,-1.631 -1.55705,-0.5546 -3.2271,-1.4509 -5.38993,-2.8928 -4.35515,-2.9035 -5.619,-13.1535 -2.49049,-20.1979 0.26363,-0.5935 0.7916,-1.924 1.17327,-2.9565 1.5645,-4.2327 4.38227,-6.4744 8.98911,-7.1516 1.0459,-0.1538 2.68813,-0.4622 3.6494,-0.6855 4.41493,-1.0255 9.35358,0.5246 11.78295,3.6984 0.36747,0.48 1.15307,1.4335 1.74576,2.1186 1.32428,1.5309 2.27749,3.3707 2.50234,4.8296 0.0933,0.6055 0.40997,1.4432 0.70361,1.8613 0.53964,0.7683 1.69244,2.8607 2.73184,4.9584 0.91967,1.8559 0.80246,5.3331 -0.26988,8.0057 -1.74841,4.3579 -2.1268,5.1119 -3.45184,6.8766 -2.8196,3.7552 -6.29278,5.1149 -11.5341,4.5154 z"
       id="path12" /><rect
       style="fill:none;stroke:#ff0000;stroke-width:0.500062;stroke-linejoin:round"
       id="rect20"
       width="154.20555"
       height="154.20555"
       x="-594.44775"
       y="-2038.3645" /></g></svg>
