<?xml version="1.0" encoding="UTF-8" standalone="no"?>
<!-- Created with Inkscape (http://www.inkscape.org/) -->

<svg
   width="160.11748mm"
   height="159.76028mm"
   viewBox="0 0 160.11748 159.76028"
   version="1.1"
   id="svg5"
   xml:space="preserve"
   xmlns="http://www.w3.org/2000/svg"
   xmlns:svg="http://www.w3.org/2000/svg"><defs
     id="defs2" /><g
     id="layer1"
     transform="translate(1285.5618,2445.6261)"><path
       id="path23"
       style="fill:none;stroke:#fdffb6;stroke-width:18.5208;stroke-linecap:round;stroke-dasharray:none;stroke-opacity:1"
       d="m -1188.2729,-2365.7461 a 17.23018,26.934993 0 0 1 -17.2302,26.935 17.23018,26.934993 0 0 1 -17.2303,-26.935 17.23018,26.934993 0 0 1 17.2303,-26.935 17.23018,26.934993 0 0 1 17.2302,26.935 z m -66.5319,0 c 49.3018,-159.0853 98.6034,0 98.6034,0 0,0 49.3017,-159.0853 0,0 -49.3016,159.0852 -98.6034,0 -98.6034,0 0,0 -49.3017,159.0852 0,0 z" /></g></svg>
