<?xml version="1.0" encoding="UTF-8" standalone="no"?>
<!-- Created with Inkscape (http://www.inkscape.org/) -->

<svg
   width="154.70554mm"
   height="154.70555mm"
   viewBox="0 0 154.70554 154.70555"
   version="1.1"
   id="svg5"
   xml:space="preserve"
   xmlns="http://www.w3.org/2000/svg"
   xmlns:svg="http://www.w3.org/2000/svg"><defs
     id="defs2" /><g
     id="layer1"
     transform="translate(1254.6543,2038.6144)"><path
       style="fill:#ffff00;stroke-width:1.0443"
       d="m -1187.6775,-1884.2616 c -0.9901,-0.1304 -2.2859,-0.4144 -2.8793,-0.631 -0.5935,-0.2163 -2.5175,-0.5421 -4.2755,-0.7236 -3.7574,-0.3879 -4.6702,-0.6217 -12.5347,-3.2108 -3.6963,-1.217 -6.3755,-2.452 -7.096,-3.2714 -0.128,-0.1456 -1.0901,-0.7175 -2.1377,-1.2709 -5.4982,-2.9047 -8.7325,-5.324 -10.8573,-8.1216 -0.7693,-1.0128 -2.0331,-2.4888 -2.8088,-3.2802 -3.0518,-3.1143 -5.7493,-6.8101 -9.2784,-12.7122 -1.0519,-1.7594 -2.4294,-4.0494 -3.0611,-5.0892 -2.6452,-4.3538 -5.1402,-8.7699 -5.7193,-10.1232 -0.3407,-0.7963 -0.8776,-1.754 -1.193,-2.128 -0.3156,-0.3742 -1.082,-1.7076 -1.7032,-2.9631 -0.6211,-1.2553 -1.3225,-2.6643 -1.5587,-3.1307 -0.7607,-1.5026 -1.3915,-4.6343 -1.3862,-6.883 0.02,-8.3769 6.5779,-11.594 9.8832,-4.8483 0.4955,1.0112 1.3247,2.3471 1.8426,2.9681 2.0784,2.493 3.7726,5.1508 4.3911,6.8887 1.4997,4.2143 11.1027,19.3641 14.8319,23.3995 1.3541,1.4653 2.9177,3.231 3.4747,3.9239 1.4695,1.8282 1.7731,2.0389 7.5383,5.228 1.1138,0.6164 2.6009,1.5235 3.3046,2.0158 0.7037,0.4926 1.4493,0.8954 1.657,0.8954 0.2077,0 1.404,0.3734 2.6585,0.8298 4.1643,1.5144 7.8796,2.5138 10.1567,2.7322 1.2376,0.1182 3.364,0.4478 4.7254,0.7314 6.3601,1.3247 7.6547,1.3904 12.2637,0.6223 4.0148,-0.669 6.1676,-1.3246 8.8884,-2.7068 1.2376,-0.6287 2.6552,-1.2413 3.1503,-1.3614 1.5072,-0.3656 7.5167,-3.8995 9.2785,-5.456 0.5311,-0.4694 1.6406,-1.2365 2.4654,-1.7046 0.8248,-0.468 1.7603,-1.1256 2.0787,-1.4613 0.3183,-0.3357 1.2876,-1.0324 2.1539,-1.5487 0.8664,-0.5162 2.2562,-1.4541 3.0885,-2.0842 0.8324,-0.6303 1.6509,-1.1457 1.8189,-1.1457 0.168,0 1.0566,-0.5933 1.9746,-1.3182 0.9179,-0.725 2.2259,-1.6668 2.9066,-2.0926 0.6807,-0.426 1.4187,-1.0067 1.64,-1.2908 0.2214,-0.284 1.1899,-1.1363 2.1524,-1.8939 0.9624,-0.7575 2.1642,-1.8083 2.6706,-2.3347 0.5065,-0.5265 1.6331,-1.3943 2.5037,-1.9285 2.2636,-1.3888 3.5405,-2.7978 6.5645,-7.2436 1.4685,-2.1591 3.038,-4.1572 3.4879,-4.4406 0.4498,-0.2834 1.5772,-1.4364 2.5052,-2.562 0.9282,-1.1258 2.0088,-2.297 2.4015,-2.6031 1.1416,-0.89 2.3724,-2.5145 3.1649,-4.1778 l 0.7351,-1.5425 -0.8472,-0.9094 c -0.7896,-0.8478 -2.4512,-5.1521 -2.4512,-6.3497 0,-0.6646 -1.2587,-3.2343 -2.7085,-5.5295 -1.216,-1.9253 -2.692,-5.5138 -2.692,-6.545 0,-0.2229 -0.6329,-1.314 -1.4064,-2.4248 -0.7736,-1.1111 -2.3178,-3.5646 -3.4316,-5.4529 -1.1138,-1.888 -2.329,-3.6979 -2.7002,-4.0219 -0.3714,-0.324 -1.095,-1.1369 -1.608,-1.8064 -0.5131,-0.6697 -1.6083,-2.0573 -2.4338,-3.0835 -0.8256,-1.0263 -1.7729,-2.2284 -2.105,-2.6711 -0.3322,-0.4429 -1.2939,-1.4935 -2.1372,-2.3351 -0.8432,-0.8414 -1.6962,-1.9049 -1.8954,-2.3632 -0.4303,-0.9905 -3.2012,-4.2169 -4.9817,-5.801 -0.6961,-0.6194 -1.5188,-1.4818 -1.8282,-1.9166 -0.3094,-0.4347 -1.6258,-1.5186 -2.9253,-2.4091 -1.2994,-0.8904 -2.7677,-2.0534 -3.2628,-2.5844 -5.8806,-6.3074 -13.7121,-11.7407 -18.4518,-12.8016 -0.9901,-0.2217 -2.7622,-0.6355 -3.938,-0.9194 -2.2924,-0.5536 -8.1891,-0.4384 -11.6546,0.2276 -0.9538,0.1835 -2.8481,0.4873 -4.2094,0.6752 -3.2339,0.4467 -5.0974,1.265 -10.3266,4.5351 -1.348,0.843 -2.6644,1.8306 -2.9253,2.1948 -0.2609,0.3642 -0.944,1.0194 -1.5178,1.4561 -0.5739,0.4366 -1.8366,1.8332 -2.806,3.1034 -0.9694,1.2703 -2.0695,2.5324 -2.4445,2.8049 -0.375,0.2724 -1.3907,1.2571 -2.257,2.1883 -1.7692,1.9017 -2.8244,2.9471 -7.2591,7.1919 -1.7006,1.6278 -3.5596,3.5655 -4.1311,4.306 -0.5714,0.7405 -2.2929,2.6554 -3.8254,4.2553 -3.8528,4.0224 -4.6616,5.0432 -6.471,8.1674 -0.8678,1.4982 -2.2417,3.5211 -3.0532,4.4953 -3.6726,4.409 -4.343,5.3056 -5.1881,6.9393 -0.8409,1.6253 -3.3418,5.7181 -5.7809,9.4605 -3.6885,5.6598 -9.1876,0.8885 -6.456,-5.6015 0.4012,-0.9531 1.1271,-2.8777 1.6133,-4.2773 0.4861,-1.3995 1.2273,-3.2185 1.647,-4.0422 0.4198,-0.8235 0.7633,-1.6878 0.7633,-1.9204 0,-1.1405 3.3143,-6.4709 5.738,-9.2282 1.9674,-2.2385 4.0943,-5.4227 4.9459,-7.4051 0.7671,-1.7853 1.5078,-2.6832 6.3051,-7.6432 1.4853,-1.5356 3.308,-3.5549 4.0505,-4.4874 1.2838,-1.612 5.2784,-5.6587 7.7517,-7.8524 0.6311,-0.5599 2,-1.934 3.042,-3.0537 1.042,-1.1195 2.4703,-2.5699 3.174,-3.2229 0.7038,-0.6532 1.9466,-2.1412 2.7618,-3.3066 0.8152,-1.1655 2.0425,-2.5516 2.7274,-3.0802 0.6848,-0.5286 1.6502,-1.3452 2.1453,-1.8145 0.9927,-0.9413 4.0827,-3.0707 6.5256,-4.4974 0.8664,-0.5059 1.8789,-1.1239 2.2502,-1.3733 1.579,-1.0607 5.7321,-2.2473 10.5845,-3.0243 11.3598,-1.8192 11.9331,-1.8574 15.518,-1.0337 1.2377,0.2843 3.111,0.6609 4.163,0.837 4.4764,0.7487 8.2514,2.8096 15.7516,8.5996 1.6707,1.2898 3.5947,2.9072 4.2753,3.5941 0.6808,0.6869 1.7045,1.7154 2.2751,2.2855 0.8673,0.8665 3.1303,2.5024 5.3074,3.8367 0.2718,0.1666 0.8794,0.8245 1.3502,1.4619 0.4707,0.6376 1.4009,1.5735 2.0671,2.0798 0.6662,0.5064 1.6789,1.5665 2.2503,2.3559 0.5715,0.7892 1.6645,2.1644 2.4291,3.0558 0.7646,0.8912 1.4413,1.8213 1.5037,2.0665 0.062,0.2454 0.6013,0.9477 1.1976,1.5609 0.5962,0.6132 2.5017,2.8847 4.2344,5.0478 1.7326,2.1633 3.5047,4.2609 3.9379,4.6618 0.4331,0.4009 1.8508,2.4429 3.1502,4.5379 1.2996,2.0951 3.0107,4.8154 3.8024,6.0452 1.9761,3.0694 4.2767,7.1386 4.6539,8.2314 0.8572,2.4838 2.8025,5.917 3.5986,6.351 1.2067,0.6579 2.4483,2.5137 3.0184,4.5117 l 0.5006,1.7545 -0.1211,2.0597 c -0.1094,1.8626 -0.2586,3.0874 -0.6846,5.6218 l -0.1426,0.8483 0.9837,0.8923 c 1.2575,1.1407 2.3474,3.5315 2.6713,5.8594 l 0.2539,1.8257 -0.2777,1.8706 c -0.5928,3.994 -5.0554,11.1297 -8.685,13.8876 -0.7472,0.5677 -1.9002,1.7777 -2.5624,2.6889 -0.6622,0.9111 -1.7508,2.0465 -2.419,2.5232 -0.6682,0.4767 -1.215,0.9954 -1.215,1.1531 0,1.7201 -5.8752,8.7601 -8.9134,10.6805 -0.8525,0.5388 -2.1731,1.6422 -2.9346,2.4519 -0.7613,0.8096 -1.7233,1.6436 -2.1376,1.8532 -0.4143,0.2098 -0.9053,0.5709 -1.0909,0.8027 -0.6644,0.8291 -2.8399,2.5059 -4.3703,3.3682 -0.8565,0.4827 -2.0313,1.3172 -2.6106,1.8547 -1.0652,0.9882 -2.8859,2.2382 -6.201,4.2572 -1.0001,0.6091 -2.0633,1.3462 -2.3627,1.6379 -0.2995,0.2916 -1.3546,1.0125 -2.3448,1.6018 -0.9899,0.5894 -1.9013,1.1857 -2.0251,1.325 -0.6685,0.7529 -7.0976,4.8874 -9.2259,5.9333 -10.9649,5.3879 -19.3482,7.1516 -28.3528,5.9649 z m -12.9029,-29.2217 c -7.3899,-1.1656 -12.0674,-5.639 -14.7171,-14.0748 l -0.7328,-2.3329 -0.077,-4.8247 -0.078,-4.8246 0.6057,-3.318 c 0.3332,-1.8249 1.0727,-4.7683 1.6435,-6.5411 l 1.0377,-3.2231 3.0467,-4.6967 c 1.6757,-2.5834 3.7253,-5.4614 4.5547,-6.3959 0.8293,-0.9344 1.6525,-2.0317 1.8291,-2.4381 0.1768,-0.4068 0.7134,-1.1294 1.1924,-1.6061 0.4791,-0.4768 1.7824,-1.7754 2.8962,-2.8858 1.1139,-1.1106 2.5942,-2.3667 3.2895,-2.7914 0.7901,-0.4828 1.3531,-1.0669 1.5014,-1.5576 1.3885,-4.5947 6.0026,-7.21 14.1505,-8.0211 6.3079,-0.6276 11.2848,-0.042 12.8994,1.5176 0.4331,0.4184 1.1979,1.0044 1.6996,1.3023 6.3685,3.7813 11.6125,11.0105 12.1258,16.716 0.5789,6.4351 -1.6717,12.5704 -8.7674,23.9004 -1.1165,1.7829 -2.2833,3.6997 -2.593,4.2593 -0.9651,1.7448 -3.189,4.6281 -4.7153,6.1134 -0.8044,0.7829 -2.2115,2.4402 -3.1265,3.6833 -1.4001,1.9016 -2.6814,3.0898 -4.7493,4.4043 -0.1856,0.1182 -0.827,0.7472 -1.4253,1.398 -0.6017,0.6547 -1.8083,1.4968 -2.7003,1.8849 -0.8868,0.3859 -2.3713,1.1565 -3.2988,1.7128 -4.0681,2.4395 -10.17,3.4791 -15.492,2.6396 z m 8.4024,-18.4668 c 2.2195,-0.6523 5.8707,-2.6981 7.2008,-4.0348 0.6188,-0.6219 1.6314,-1.4032 2.2502,-1.7362 0.6217,-0.3346 1.8251,-1.4892 2.6894,-2.5803 0.8604,-1.0862 2.2709,-2.6896 3.1345,-3.5633 1.6816,-1.7009 2.6991,-3.1514 4.4773,-6.3829 0.6161,-1.1196 1.4675,-2.4737 1.8917,-3.0093 0.7836,-0.9889 1.9953,-3.3103 3.0624,-5.8667 l 0.5893,-1.412 -1.5091,-1.3407 c -0.8301,-0.7373 -2.0482,-1.6065 -2.707,-1.9314 l -1.1978,-0.5908 -2.6896,0.728 c -4.0058,1.0841 -8.6332,2.8826 -12.8363,4.9893 -3.9076,1.9585 -4.5062,2.4541 -7.5847,6.2815 -0.7859,0.977 -1.8624,2.2424 -2.3921,2.8124 -3.3219,3.5735 -5.574,8.5125 -5.8556,12.8416 l -0.1501,2.306 0.3481,0.8008 c 0.9529,2.1928 6.6568,3.0467 11.2786,1.6888 z"
       id="path7" /><rect
       style="fill:none;stroke:#ff0000;stroke-width:0.500062;stroke-linejoin:round"
       id="rect3169-4"
       width="154.20555"
       height="154.20555"
       x="-1254.4043"
       y="-2038.3645" /></g></svg>
