<?xml version="1.0" encoding="UTF-8" standalone="no"?>
<!-- Created with Inkscape (http://www.inkscape.org/) -->

<svg
   width="154.70561mm"
   height="153.05035mm"
   viewBox="0 0 154.70561 153.05035"
   version="1.1"
   id="svg5"
   xml:space="preserve"
   xmlns="http://www.w3.org/2000/svg"
   xmlns:svg="http://www.w3.org/2000/svg"><defs
     id="defs2" /><g
     id="layer1"
     transform="translate(759.6869,2036.9593)"><path
       style="fill:#de8787;stroke-width:1.28372"
       d="m -628.2692,-1884.1538 c -1.51983,-0.9248 -13.06057,-1.3594 -21.14994,-0.7966 -6.83724,0.4758 -18.78039,0.384 -23.45348,-0.1801 -2.75188,-0.3322 -11.4491,-0.2023 -17.68322,0.2641 -6.03145,0.4512 -14.14626,0.3236 -23.07445,-0.363 -12.79442,-0.9838 -17.75287,-1.1098 -21.49379,-0.5459 -14.9755,2.2573 -22.89269,-8.3809 -10.04296,-13.4947 6.68608,-2.6607 15.90019,-3.279 22.40781,-1.5035 5.07,1.3831 29.81431,2.6525 31.48701,1.6152 1.9907,-1.2346 2.14424,-9.8899 0.24698,-13.922 -0.46778,-0.9942 -0.60787,-2.4812 -0.52912,-5.617 0.14818,-5.9002 -0.48143,-7.8125 -2.63785,-8.0126 -10.67504,-0.9904 -23.71453,-4.6805 -28.55025,-8.0796 -0.80005,-0.5624 -2.33946,-1.4342 -3.4209,-1.9374 -2.47394,-1.1512 -4.50834,-2.7822 -5.37621,-4.3101 -0.36972,-0.6509 -1.67369,-2.4339 -2.89772,-3.9622 -2.69378,-3.3635 -3.20242,-7.04 -1.28718,-9.304 0.8583,-1.0146 0.89001,-1.1973 0.34826,-2.0061 -0.85501,-1.2765 -1.67365,-4.9612 -1.36673,-6.1515 0.62523,-2.4249 5.16177,-9.7889 7.1296,-11.5733 0.65869,-0.5973 1.49661,-1.447 1.86208,-1.8883 0.36547,-0.4414 2.9217,-2.4274 5.6805,-4.4134 2.75881,-1.986 5.68998,-4.2336 6.51369,-4.9947 0.82372,-0.761 2.37556,-1.7239 3.44853,-2.1398 1.07298,-0.4158 3.45001,-1.5171 5.28231,-2.4473 3.30313,-1.6769 7.70844,-3.178 11.16535,-3.8048 2.06981,-0.3752 2.37907,-0.8917 2.26628,-3.7844 -0.096,-2.4644 0.4325,-9.3953 0.89353,-11.7164 1.11562,-5.6168 0.95669,-7.9906 -0.54584,-8.1522 -4.65868,-0.5011 -19.24702,-1.2725 -27.91546,-1.476 -14.37761,-0.3375 -15.10036,-0.3861 -24.58399,-1.654 -6.31248,-0.8439 -6.61299,-0.9023 -8.56487,-1.6665 -12.40356,-4.8559 -2.14939,-16.1754 11.60071,-12.806 1.7699,0.4337 4.67362,0.9498 6.45273,1.1468 3.44134,0.3812 3.6555,0.3898 15.95802,0.6475 7.11704,0.149 11.88988,0.3929 24.04162,1.2282 3.9387,0.2707 13.51989,-0.052 19.51949,-0.6574 2.01632,-0.2035 4.92759,-0.4456 6.46947,-0.5381 3.47799,-0.2088 9.81912,-0.9993 16.60498,-2.0704 7.4587,-1.1772 11.71223,-1.473 16.92137,-1.1767 3.72661,0.212 4.70383,0.1791 6.79272,-0.2284 11.25794,-2.196 23.67279,6.9696 17.50903,12.9265 -3.06592,2.963 -9.69711,4.0805 -16.20783,2.7315 -7.37569,-1.5283 -12.44504,-1.5329 -21.34925,-0.019 -1.5419,0.2622 -3.77385,0.5572 -4.95993,0.6556 -1.18606,0.098 -3.32099,0.3666 -4.74427,0.5957 -1.42329,0.2291 -3.65526,0.4917 -4.95993,0.5835 -2.37214,0.1668 -2.37214,0.1668 -2.8599,1.6379 -0.26825,0.8091 -0.70494,1.81 -0.97042,2.2241 -0.26546,0.4141 -0.48657,1.4974 -0.49135,2.4073 -0.005,0.9099 -0.21951,2.4367 -0.47721,3.3929 -1.80909,6.7128 -0.71336,7.5034 12.3807,8.9345 10.05449,1.0989 9.30413,0.9472 19.43753,3.9289 2.87922,0.8472 3.96942,1.3568 6.03817,2.8225 1.94208,1.376 3.16481,1.9693 5.29938,2.5717 4.71789,1.3314 11.49057,6.0033 12.30752,8.49 0.16916,0.5149 1.34846,2.0796 2.62067,3.4772 1.2722,1.3975 2.59594,3.203 2.94164,4.0121 0.34568,0.8092 0.94404,1.9294 1.32966,2.4895 1.03523,1.5037 1.8959,5.5251 1.50895,7.0503 -0.18044,0.7112 -0.13122,2.3161 0.10922,3.5666 0.69545,3.616 0.46402,4.2893 -3.4473,10.0303 -0.70159,1.0298 -1.78514,2.462 -2.40789,3.1827 -0.62276,0.7206 -1.13228,1.4862 -1.13228,1.7011 0,1.493 -4.34503,4.8497 -7.48527,5.7828 -0.74599,0.2217 -1.60248,0.6525 -1.9033,0.9574 -0.30082,0.3049 -2.33869,1.4005 -4.52862,2.4347 -2.18993,1.0341 -5.31727,2.5198 -6.94963,3.3017 -2.63647,1.2626 -7.3726,3.012 -13.20573,4.8775 -2.14626,0.6864 -14.6933,2.4421 -20.84881,2.9174 -1.87531,0.1447 -2.06376,0.2203 -1.85529,0.743 0.63643,1.5957 1.32951,5.5935 1.23697,7.135 -0.0574,0.9562 0.10189,2.7015 0.3538,3.8784 0.60599,2.8302 0.75634,4.3415 1.06371,10.6918 0.14214,2.9383 0.34984,5.3989 0.46137,5.4681 0.55154,0.3421 8.42173,0.2938 13.9291,-0.086 3.41086,-0.2348 7.19549,-0.4316 8.41031,-0.4374 2.10175,-0.01 2.27588,-0.067 3.59424,-1.179 4.05057,-3.4166 13.22973,-3.4518 17.44325,-0.067 0.76859,0.6175 2.98152,2.1542 4.91761,3.4149 6.06576,3.9499 6.54089,7.8842 1.32585,10.9789 -2.74441,1.6285 -10.56511,3.1117 -11.95353,2.2669 z m -39.2122,-57.4329 c 0.83026,-0.1209 2.17645,-0.2227 2.99153,-0.2262 2.0961,-0.01 6.90512,-0.7807 8.43787,-1.3539 0.71164,-0.2662 2.42835,-0.7468 3.8149,-1.068 1.76053,-0.4079 3.38684,-1.0882 5.39124,-2.2548 1.57861,-0.9188 3.7436,-2.0076 4.81106,-2.4194 2.37273,-0.9154 6.98075,-3.7495 7.91174,-4.866 0.37559,-0.4505 1.22368,-1.216 1.88462,-1.7013 5.36779,-3.9411 4.7557,-13.3338 -1.22479,-18.7951 -1.62847,-1.487 -3.07129,-3.0688 -3.2063,-3.5151 -0.19814,-0.6551 -0.75221,-0.9855 -2.87547,-1.7149 -1.44652,-0.497 -3.50202,-1.3996 -4.56774,-2.0058 -1.06575,-0.6062 -2.00539,-0.9818 -2.08808,-0.8346 -2.14442,3.8142 -9.59414,5.1251 -17.18323,3.0236 -7.66747,-2.1233 -8.27783,-1.8729 -8.49491,3.4854 -0.14508,3.5798 -0.0448,5.0166 0.41362,5.9286 0.66089,1.3147 0.47095,5.5056 -0.32732,7.2218 -0.65715,1.4128 -0.67655,8.5266 -0.0259,9.4954 0.95915,1.4282 1.20614,3.644 0.86302,7.7426 -0.36778,4.3935 -0.3336,4.5348 1.03049,4.2634 0.51376,-0.1022 1.61341,-0.2848 2.44365,-0.4057 z m -26.72651,-1.503 c 0.008,-0.9931 0.0738,-2.5879 0.14704,-3.5442 0.10221,-1.3362 -0.0676,-1.9788 -0.73413,-2.7769 -1.12473,-1.3468 -1.75621,-5.9048 -1.05986,-7.6499 0.26517,-0.6646 0.43298,-2.4395 0.37292,-3.9443 -0.0797,-1.9964 0.0865,-3.1013 0.61498,-4.088 0.62089,-1.1593 0.648,-1.5492 0.19006,-2.733 -0.37752,-0.9759 -0.45029,-2.5868 -0.24817,-5.494 0.27901,-4.013 -1.53587,-4.8367 -4.10279,-1.8622 -0.22839,0.2647 -2.17932,1.7031 -4.33539,3.1965 -3.99794,2.7691 -7.23642,5.6226 -7.24377,6.3826 -0.002,0.2325 -0.49068,1.0149 -1.08539,1.7386 -1.28415,1.5627 -1.35822,2.3063 -0.47742,4.793 0.9792,2.7645 1.32366,6.4723 0.72749,7.8307 -0.48702,1.1096 -0.45667,1.178 1.01897,2.2948 0.83652,0.6332 1.91313,1.7009 2.39247,2.373 1.41747,1.9873 3.78073,3.0342 10.79001,4.7802 2.98356,0.7432 3.01738,0.7288 3.03307,-1.2969 z"
       id="path11" /><rect
       style="fill:none;stroke:#ff0000;stroke-width:0.500062;stroke-linejoin:round"
       id="rect19"
       width="154.20555"
       height="154.20555"
       x="-759.43689"
       y="-2038.3645" /></g></svg>
