<?xml version="1.0" encoding="UTF-8" standalone="no"?>
<!-- Created with Inkscape (http://www.inkscape.org/) -->

<svg
   width="154.70563mm"
   height="154.70529mm"
   viewBox="0 0 154.70563 154.70529"
   version="1.1"
   id="svg5"
   xml:space="preserve"
   xmlns="http://www.w3.org/2000/svg"
   xmlns:svg="http://www.w3.org/2000/svg"><defs
     id="defs2" /><g
     id="layer1"
     transform="translate(-236.39093,2038.6144)"><path
       style="fill:#ff00ff;stroke-width:1.00054"
       d="m 305.71365,-1884.2226 c -1.95442,-0.7699 -3.55592,-2.8193 -4.48193,-5.7353 -0.25204,-0.7936 -0.90482,-2.2066 -1.4506,-3.14 -0.54579,-0.9333 -1.22976,-2.3524 -1.51995,-3.1534 -1.57505,-4.3479 -2.53065,-6.5943 -3.31839,-7.8005 -0.82538,-1.2638 -1.96078,-4.1329 -1.9657,-4.9667 -8.5e-4,-0.2065 -0.44338,-1.261 -0.98272,-2.3432 -0.53926,-1.0823 -1.15897,-2.4557 -1.37719,-3.0521 -0.21813,-0.5964 -1.30232,-2.8459 -2.40924,-4.9989 -1.10692,-2.153 -2.34262,-4.9152 -2.74607,-6.1382 -0.40336,-1.2229 -1.08208,-2.7694 -1.50816,-3.4367 -0.42609,-0.6672 -1.21238,-2.127 -1.74724,-3.2439 -0.53485,-1.117 -1.46899,-2.7944 -2.0759,-3.7275 -0.60692,-0.9332 -1.59295,-2.6906 -2.19129,-3.9054 -1.19458,-2.4253 -2.85407,-4.9174 -4.65293,-6.9874 -0.64133,-0.738 -1.85126,-2.4955 -2.68867,-3.9054 -1.38524,-2.3322 -2.58847,-4.5185 -8.14943,-14.8072 -0.9962,-1.8432 -1.99724,-3.859 -2.22461,-4.4796 -0.22728,-0.6207 -0.82987,-1.8626 -1.33895,-2.7597 -0.50908,-0.8971 -1.27664,-2.4653 -1.70569,-3.485 -0.42905,-1.0198 -1.13405,-2.2301 -1.56666,-2.6896 -0.91889,-0.9763 -3.13824,-5.1679 -4.00635,-7.5664 -0.33206,-0.9176 -0.98772,-2.2533 -1.45696,-2.9682 -0.46923,-0.7147 -1.03257,-1.7917 -1.25197,-2.3931 -0.21931,-0.6014 -0.82944,-1.8668 -1.3559,-2.8119 -0.88888,-1.5956 -1.94875,-4.3535 -4.38275,-11.4038 -1.69637,-4.9136 -2.69291,-7.1272 -4.22346,-9.3812 -3.12408,-4.6008 -3.40002,-9.2949 -0.66634,-11.3341 3.75261,-2.7992 10.87176,4.7863 17.18935,18.3154 0.58724,1.2576 1.44026,3.0853 1.89559,4.0616 0.45533,0.9763 1.6895,3.392 2.74267,5.3681 1.05309,1.9761 2.20723,4.4457 2.56473,5.488 0.36098,1.0521 1.0441,2.3722 1.53614,2.9681 1.01714,1.2317 2.83703,4.4457 3.75151,6.6253 0.34402,0.8198 1.02163,2.1554 1.50596,2.9681 0.48424,0.8126 1.12209,2.1804 1.41737,3.0396 0.29527,0.8592 0.95661,2.1246 1.46959,2.8119 0.51298,0.6874 1.13286,1.7898 1.37735,2.4499 0.39523,1.0669 1.76411,3.6667 4.86369,9.2372 0.53476,0.9611 1.18466,2.1342 1.44415,2.6068 0.2595,0.4727 1.06683,1.5105 1.79403,2.3063 1.42449,1.5589 5.00526,6.9822 5.95492,9.0192 0.32046,0.6874 1.05631,1.9648 1.63516,2.8387 0.57885,0.8739 1.52148,2.6081 2.09456,3.8535 0.57317,1.2455 1.57548,3.1651 2.22724,4.2658 0.65184,1.1007 1.61362,3.1896 2.13745,4.6419 0.52383,1.4523 1.10268,2.8143 1.28639,3.0267 0.1838,0.2125 0.49213,0.8182 0.68533,1.3463 0.19312,0.528 1.00248,2.2015 1.79852,3.7187 0.79605,1.5173 1.58141,3.2045 1.74529,3.7492 0.16387,0.5447 0.57351,1.342 0.91024,1.7716 0.85522,1.091 2.28115,4.2086 2.4685,5.3971 0.0861,0.546 0.59776,1.747 1.13693,2.6692 0.53926,0.922 0.98044,1.8183 0.98044,1.9918 0,0.5622 1.26579,-3.0181 1.40541,-3.9752 0.0746,-0.5103 0.54028,-1.912 1.03529,-3.1148 0.49492,-1.2028 1.30902,-3.2416 1.80912,-4.5303 1.90585,-4.9117 2.74665,-6.6727 4.37122,-9.1548 0.9221,-1.4087 2.26156,-3.6933 2.97648,-5.0766 2.20892,-4.2742 3.53185,-6.4156 6.17813,-10.0004 1.40279,-1.9003 3.1964,-4.6419 3.98575,-6.0924 0.78943,-1.4506 2.22859,-3.7621 3.19825,-5.1368 0.96967,-1.3746 2.02878,-3.1321 2.35372,-3.9054 1.28419,-3.0565 3.29923,-7.1232 4.41217,-8.9043 0.64421,-1.031 2.06938,-3.4914 3.16706,-5.4676 1.09768,-1.9761 3.01633,-5.0692 4.26364,-6.8734 1.24731,-1.8043 2.98623,-4.372 3.86426,-5.7058 0.87802,-1.3339 2.18111,-3.1818 2.89586,-4.1064 0.71466,-0.9246 2.2079,-3.4075 3.31822,-5.5177 1.11022,-2.11 2.68299,-4.8314 3.49497,-6.0475 0.81198,-1.2162 1.71866,-2.7729 2.01487,-3.4594 0.64387,-1.4919 2.76836,-5.0146 4.34451,-7.2038 0.62506,-0.868 2.49327,-3.6448 4.15157,-6.1705 1.65822,-2.5257 3.09941,-4.592 3.2025,-4.592 0.37742,0 4.78407,-6.4378 5.13267,-7.4984 0.54969,-1.6723 2.2653,-4.1369 3.48268,-5.0028 l 1.0926,-0.7772 1.79436,0.027 1.79446,0.027 1.15244,0.8199 c 5.88871,4.1889 3.83603,13.3291 -5.2528,23.3893 -0.89863,0.9948 -2.66527,3.3771 -3.92581,5.2941 -1.26045,1.917 -3.20945,4.838 -4.33103,6.4912 -1.1215,1.6532 -2.2291,3.5681 -2.46122,4.2554 -0.23211,0.6874 -1.23798,2.4448 -2.23529,3.9054 -0.9973,1.4606 -2.20782,3.429 -2.69002,4.3741 -1.89525,3.7144 -3.46013,6.2751 -6.49181,10.6227 -5.34216,7.661 -8.11018,11.9013 -9.78959,14.9967 -0.88565,1.6325 -2.06294,3.6711 -2.61618,4.5303 -1.20738,1.8751 -2.40612,4.4254 -3.09238,6.5789 -0.42099,1.3209 -4.82519,8.5618 -5.44016,8.944 -0.0873,0.054 -0.86386,1.364 -1.7257,2.9105 -0.86183,1.5466 -2.98046,4.786 -4.70803,7.1987 -1.83014,2.5559 -3.79644,5.6734 -4.71125,7.4694 -0.86353,1.6955 -2.23444,4.1502 -3.04643,5.4548 -2.15238,3.4585 -4.84605,9.9277 -5.22101,12.5395 -0.15006,1.0452 -2.22334,6.4413 -3.17596,8.2662 -0.31376,0.6012 -0.5474,1.6601 -0.65142,2.9532 -0.0979,1.2171 -0.42244,2.7465 -0.81885,3.8593 -0.36115,1.0139 -0.65668,2.0175 -0.65668,2.2302 0,4.5833 -5.19388,8.7611 -9.01864,7.2544 z m -3.54227,-50.3027 c -2.18163,-0.8424 -3.75906,-3.054 -4.28509,-6.0078 -0.15082,-0.847 -0.45966,-2.1492 -0.68626,-2.8938 -0.22652,-0.7445 -0.41193,-1.5868 -0.41193,-1.8718 0,-0.285 -0.36038,-1.5738 -0.80079,-2.8641 -0.90634,-2.6551 -0.88023,-2.5913 -1.74045,-4.248 -0.34903,-0.6723 -1.25749,-2.6368 -2.01869,-4.3654 -0.76129,-1.7288 -1.75037,-3.7376 -2.19807,-4.4642 -0.4477,-0.7266 -0.99357,-1.9834 -1.21306,-2.793 -0.21957,-0.8097 -0.82682,-2.2454 -1.34955,-3.1904 -0.52281,-0.9452 -1.15295,-2.2808 -1.40041,-2.9682 -0.40328,-1.12 -1.39838,-3.1493 -3.37044,-6.8735 -0.36394,-0.6873 -0.91762,-1.9615 -1.23044,-2.8315 -0.31274,-0.8699 -0.74526,-1.7838 -0.9611,-2.0308 -0.21584,-0.2469 -0.84692,-1.4332 -1.40245,-2.636 -0.55546,-1.203 -1.4718,-2.9008 -2.03632,-3.7731 -0.56444,-0.8724 -1.37956,-2.482 -1.81133,-3.577 -0.43184,-1.0949 -1.34022,-2.7908 -2.01877,-3.7686 -4.00769,-5.7753 -4.96465,-7.3521 -6.5625,-10.8126 -0.54376,-1.1774 -1.69366,-2.6459 -4.0439,-5.164 -0.43685,-0.468 -1.06818,-1.6308 -1.40296,-2.584 l -0.60869,-1.7328 0.1019,-2.4516 0.10182,-2.4514 0.59622,-1.417 c 1.12795,-2.6809 3.80916,-4.5765 5.90677,-4.176 2.60211,0.4968 6.95019,5.445 9.56782,10.8885 0.71568,1.4882 2.33947,4.1557 3.6084,5.9276 2.55032,3.5612 4.55103,6.9333 5.24806,8.8454 0.2506,0.6874 0.77451,1.6716 1.16431,2.1871 0.3898,0.5155 1.02359,1.7106 1.40838,2.6557 0.3848,0.9452 1.2507,2.6295 1.92433,3.7432 0.67363,1.1135 1.35294,2.4521 1.50961,2.9744 0.15667,0.5223 0.49831,1.2187 0.75925,1.5476 0.49103,0.619 0.56224,0.7724 2.38382,5.1372 0.60216,1.4429 1.51113,3.2707 2.01979,4.0616 0.50865,0.7909 1.40423,2.6332 1.9902,4.0937 0.58588,1.4607 1.21051,3.0073 1.38795,3.4369 0.17744,0.4296 0.59606,1.4642 0.93033,2.2993 2.30709,5.764 3.04337,6.5421 4.0088,4.2371 0.67745,-1.6175 1.61448,-3.4594 3.32525,-6.5364 0.4299,-0.7733 1.06064,-2.0843 1.40161,-2.9134 0.34096,-0.8289 0.9227,-2.1509 1.29283,-2.9377 0.37013,-0.7867 0.98569,-2.1139 1.36794,-2.9493 0.75002,-1.639 2.52107,-4.6752 4.7244,-8.0992 0.76019,-1.1813 1.83625,-3.0992 2.39136,-4.2622 0.55511,-1.1629 2.06972,-3.646 3.36569,-5.5179 1.29597,-1.8718 2.59092,-4.0384 2.87755,-4.8149 0.28671,-0.7764 0.92601,-1.9865 1.42068,-2.6892 0.49467,-0.7027 1.39592,-2.298 2.00266,-3.5451 0.60683,-1.247 1.4395,-2.7936 1.85032,-3.4365 0.41091,-0.643 0.74713,-1.2807 0.74722,-1.4169 1.7e-4,-0.1362 0.44117,-0.9095 0.98009,-1.7184 0.53892,-0.8089 1.15329,-1.9443 1.36532,-2.5232 0.21202,-0.5789 0.97577,-1.9363 1.69721,-3.0165 0.72145,-1.0801 1.56378,-2.6451 1.87186,-3.4777 2.86042,-7.7299 9.65996,-8.8031 12.12466,-1.9137 l 0.57825,1.6161 v 2.0476 c 0,2.9317 -3.11382,10.5669 -5.01017,12.2977 -0.31469,0.2872 -0.77587,1.1636 -1.02486,1.9476 -0.24899,0.784 -1.04588,2.2969 -1.77097,3.3621 -0.72509,1.065 -1.96494,3.2136 -2.75522,4.7747 -2.0765,4.1019 -2.76353,5.387 -3.9108,7.3157 -0.56223,0.9451 -1.49731,2.5478 -2.07794,3.5615 -0.58063,1.0138 -1.73409,2.8428 -2.56337,4.0646 -0.8292,1.2218 -1.80056,2.8528 -2.15848,3.6245 -0.35801,0.7716 -1.07827,1.9653 -1.60074,2.6526 -0.52239,0.6874 -1.33099,1.9527 -1.79692,2.8119 -0.46584,0.8592 -1.26646,2.1948 -1.77902,2.9681 -0.51264,0.7733 -1.08403,1.898 -1.26977,2.4994 -0.18575,0.6015 -0.6126,1.5857 -0.94856,2.1871 -0.33605,0.6014 -1.00222,2.0074 -1.48045,3.1244 -0.47822,1.1168 -1.14498,2.4525 -1.48162,2.968 -1.34777,2.0637 -4.47957,8.9351 -5.46365,11.9877 -0.57435,1.7819 -1.23298,3.6096 -1.46348,4.0616 -0.56283,1.1035 -1.04105,2.7494 -1.45866,5.0199 -0.95627,5.1993 -4.71312,8.2228 -8.43258,6.7867 z"
       id="path8" /><rect
       style="fill:none;stroke:#ff0000;stroke-width:0.500062;stroke-linejoin:round"
       id="rect3169-4-9"
       width="154.20555"
       height="154.20555"
       x="236.64095"
       y="-2038.3645" /></g></svg>
