<?xml version="1.0" encoding="UTF-8" standalone="no"?>
<!-- Created with Inkscape (http://www.inkscape.org/) -->

<svg
   width="154.20557mm"
   height="154.70561mm"
   viewBox="0 0 154.20557 154.70561"
   version="1.1"
   id="svg5"
   xml:space="preserve"
   xmlns="http://www.w3.org/2000/svg"
   xmlns:svg="http://www.w3.org/2000/svg"><defs
     id="defs2" /><g
     id="layer1"
     transform="translate(2444.8934,915.56003)"><path
       style="fill:#ffffff;fill-opacity:1;stroke:none;stroke-width:0.893404;stroke-opacity:1"
       d="m -2444.869,-761.59014 c -0.6183,-0.92703 10.6344,-7.99172 14.3764,-9.02612 1.276,-0.35268 4.6168,-1.71447 7.4241,-3.02616 9.5471,-4.46107 13.542,-5.867 22.7832,-8.01822 19.0437,-4.43297 27.5445,-5.62335 44.0323,-6.1661 8.9319,-0.29387 20.2071,-0.75516 25.0557,-1.02475 11.4081,-0.63423 19.783,-0.3622 20.468,0.66486 0.2981,0.44831 1.0922,-0.13524 1.7628,-1.29655 1.1034,-1.91088 0.9543,-2.42347 -1.5682,-5.39206 -1.533,-1.80425 -3.608,-4.82863 -4.6111,-6.72088 -1.9042,-3.59138 -6.7717,-11.23273 -9.7032,-15.23205 -0.9396,-1.28175 -1.7081,-2.67917 -1.7081,-3.10535 0,-0.42621 -1.1185,-2.28037 -2.4856,-4.12035 -1.3669,-1.83998 -3.4618,-5.08713 -4.6554,-7.21588 -1.1935,-2.12878 -3.2159,-5.41868 -4.494,-7.3109 -1.2784,-1.89222 -2.5954,-4.02101 -2.9269,-4.73059 -0.3297,-0.70958 -2.9325,-4.58007 -5.7805,-8.60104 -2.8476,-4.02101 -5.6339,-8.08502 -6.1919,-9.03113 -0.5581,-0.94611 -1.8463,-3.07486 -2.8631,-4.73059 -1.0164,-1.65569 -2.1535,-4.14788 -2.5271,-5.53821 -0.3732,-1.39033 -1.5397,-3.64856 -2.5923,-5.01831 -1.0522,-1.36976 -3.3478,-5.65089 -5.1014,-9.51361 -1.7534,-3.86276 -3.5776,-7.38941 -4.0535,-7.83704 -1.0396,-0.97801 -3.2815,1.56522 -4.1293,4.68432 -0.3226,1.18267 -1.5614,4.27905 -2.7554,6.88086 -1.1942,2.6018 -2.9398,6.56761 -3.8795,8.81287 -0.9392,2.24525 -2.0209,4.08371 -2.4039,4.08549 -0.3827,0.002 -0.6959,0.58378 -0.6959,1.2934 0,0.70958 -0.3683,1.29014 -0.8183,1.29014 -0.6615,0 -16.1606,27.55593 -16.4254,29.20291 -0.4377,2.72306 -1.8704,5.3379 -3.7595,6.86012 -1.2613,1.01652 -3.0704,3.47818 -4.0198,5.47037 -0.9495,1.99218 -3.2387,5.75091 -5.0875,8.35271 -1.8484,2.60184 -3.5673,5.69822 -3.8195,6.88086 -0.2525,1.18264 -0.8369,3.23652 -1.2995,4.56418 -1.1125,3.19419 0.6338,3.81337 5.8005,2.05668 5.1955,-1.76632 7.9197,-2.18762 17.8291,-2.75703 4.5936,-0.26397 11.9015,-1.1162 16.2398,-1.89388 4.816,-0.86325 12.6427,-1.41878 20.0966,-1.42642 11.5915,-0.013 12.1906,-0.0972 11.8605,-1.68596 -0.1894,-0.92043 -0.9263,-2.29782 -1.6333,-3.06088 -0.7071,-0.76306 -2.4271,-3.51612 -3.8224,-6.11796 -1.3949,-2.6018 -3.1261,-5.82633 -3.8469,-7.16556 -0.7207,-1.33926 -1.3107,-2.82916 -1.3107,-3.3109 0,-1.03261 -6.9176,-17.08493 -8.8726,-20.58889 -1.8151,-3.2532 -3.6498,-2.4225 -5.616,2.54267 -0.8733,2.20534 -2.169,5.36433 -2.8792,7.02005 -0.7103,1.6557 -1.3241,3.20389 -1.3644,3.44041 -0.042,0.23666 -1.6884,2.63435 -3.6624,5.32848 -1.9739,2.69412 -3.5891,5.14018 -3.5891,5.43571 0,0.78244 -5.6044,8.23748 -8.0235,10.67265 -1.674,1.68547 -2.3292,1.88539 -3.4225,1.04448 -3.0759,-2.36606 -2.6319,-7.79007 1.1361,-13.88027 2.3976,-3.87543 4.7419,-8.53174 4.7419,-9.41833 0,-0.55725 1.0915,-3.21386 2.4258,-5.90363 1.3342,-2.68977 2.4979,-5.31619 2.5859,-5.83648 0.088,-0.52028 0.8758,-1.95811 1.7502,-3.19513 0.8744,-1.23706 1.5899,-2.46407 1.5899,-2.7267 0,-0.26267 1.6018,-3.66297 3.559,-7.55621 1.9574,-3.89325 4.0366,-8.14301 4.6202,-9.44391 1.2255,-2.73145 2.9017,-2.99129 5.5487,-0.86013 2.4759,1.99322 8.5429,10.22823 8.5485,11.60263 0,1.25578 4.0791,10.74615 4.9661,11.56837 0.3297,0.3046 0.5973,1.0582 0.5973,1.67491 0,0.61674 1.0442,3.23675 2.3202,5.82226 1.2759,2.58555 2.3187,5.01607 2.3173,5.40116 0,0.38513 0.9087,2.4419 2.0227,4.57068 1.1139,2.12875 2.6793,5.22513 3.4786,6.88083 0.7993,1.65572 2.137,3.97799 2.9729,5.16063 3.6862,5.21772 5.4483,8.83237 5.4483,11.17762 0,1.61393 1.0722,3.65607 2.9732,5.66282 2.8571,3.01586 2.9045,3.18522 1.2146,4.33048 -2.312,1.56704 -9.452,1.51828 -14.3957,-0.0982 -6.9565,-2.2748 -25.8521,-1.62682 -40.6894,1.39531 -2.2188,0.45189 -7.4388,1.03196 -11.5999,1.28907 -4.1615,0.25714 -10.882,1.20968 -14.9348,2.11692 -13.7202,3.07125 -17.8445,1.99104 -17.0013,-4.45255 0.2736,-2.08405 1.0304,-4.95031 1.6832,-6.36951 0.653,-1.41916 1.236,-2.77383 1.2959,-3.01036 0.06,-0.23666 1.2262,-2.04283 2.5927,-4.01405 1.3661,-1.97118 2.7575,-4.68052 3.0921,-6.02073 0.3332,-1.3402 1.7961,-4.43612 3.2485,-6.87981 1.4528,-2.44365 3.4948,-6.79178 4.5382,-9.66249 1.8239,-5.01783 4.9745,-12.00765 6.63,-14.70799 0.4353,-0.70958 1.8684,-3.41892 3.1847,-6.02073 1.3167,-2.60183 2.7887,-5.31114 3.271,-6.02076 0.4826,-0.70958 1.1452,-1.8707 1.4728,-2.58032 0.3261,-0.70958 1.5172,-2.45129 2.6445,-3.87045 1.1269,-1.41917 2.3752,-3.54795 2.7733,-4.73059 0.3984,-1.18264 2.9974,-6.5918 5.7753,-12.02033 2.7778,-5.42853 5.8717,-12.0687 6.8751,-14.75596 1.0035,-2.68727 3.0897,-7.05107 4.6361,-9.69735 2.3706,-4.0566 3.2148,-4.81143 5.382,-4.81143 1.4139,0 3.1917,0.67734 3.9507,1.50518 1.5321,1.67091 4.4755,7.32852 4.4755,8.60293 0,1.11925 4.5059,8.92977 6.1161,10.60214 0.7194,0.74684 1.3079,1.82857 1.3079,2.40386 0,1.26352 11.4236,21.80261 13.9692,25.11634 0.9936,1.2932 1.8067,2.71536 1.8067,3.16033 0,0.44496 0.8803,1.54637 1.9564,2.44755 1.6376,1.37161 5.1825,7.62331 10.9269,19.27064 0.5832,1.18267 2.2138,3.89198 3.6234,6.02076 1.4096,2.12875 3.3878,5.1656 4.3958,6.74855 1.0084,1.58294 4.0254,5.93562 6.7051,9.67266 2.6796,3.73705 4.8721,7.04054 4.8721,7.34114 0,1.51539 9.5734,15.69493 12.0264,17.81301 3.7192,3.21104 4.2734,5.6912 2.3275,10.41388 -2.2577,5.47905 -3.1124,5.94574 -8.9719,4.89895 -2.7048,-0.4832 -9.9293,-1.16564 -16.0539,-1.51653 -14.4367,-0.82707 -57.9075,-0.46272 -64.4958,0.54058 -10.1461,1.54516 -15.4226,2.55892 -19.965,3.83593 -2.5446,0.71537 -5.3842,1.30487 -6.3102,1.31001 -0.9259,0.006 -3.8489,0.9134 -6.496,2.01841 -2.6466,1.10501 -7.3181,2.94347 -10.3804,4.0855 -3.0623,1.14201 -8.4444,3.52783 -11.9605,5.30179 -6.8885,3.47574 -7.5844,3.67147 -8.4479,2.37636 z"
       id="path1779-4" /></g></svg>
