<?xml version="1.0" encoding="UTF-8" standalone="no"?>
<!-- Created with Inkscape (http://www.inkscape.org/) -->

<svg
   width="141.26527mm"
   height="154.70561mm"
   viewBox="0 0 141.26527 154.70561"
   version="1.1"
   id="svg5"
   xml:space="preserve"
   xmlns="http://www.w3.org/2000/svg"
   xmlns:svg="http://www.w3.org/2000/svg"><defs
     id="defs2" /><g
     id="layer1"
     transform="translate(1815.1309,915.56003)"><path
       style="fill:#ffffff;fill-opacity:1;stroke:none;stroke-width:0.981941;stroke-opacity:1"
       d="m -1776.1356,-761.16987 c -1.5148,-1.38575 -0.6631,-5.37758 2.1512,-10.08368 1.5928,-2.66281 4.0544,-7.16594 5.471,-10.00705 l 2.5753,-5.16563 -7.6633,-0.20162 c -6.7256,-0.17678 -16.1471,-2.11767 -19.191,-3.95318 -0.5646,-0.34042 -2.8318,-1.18128 -5.0385,-1.86844 -4.7731,-1.48653 -11.807,-5.76493 -11.8621,-7.21485 -0.038,-0.56562 -0.9367,-1.77172 -2.0341,-2.6802 -3.0036,-2.48678 -4.501,-10.88927 -2.4747,-13.88831 0.4404,-0.6523 0.6898,-2.24283 0.5541,-3.53455 -0.2678,-2.55755 6.5109,-10.71664 8.1398,-9.79566 0.5002,0.28256 0.9092,0.099 0.9092,-0.40787 0,-0.50701 1.7325,-1.43228 3.8499,-2.05626 2.1174,-0.62394 4.4952,-1.60764 5.2844,-2.18604 0.7889,-0.57836 4.716,-1.75247 8.7265,-2.60909 4.0103,-0.85666 9.1395,-2.00032 11.3981,-2.54148 2.2587,-0.54116 7.5909,-1.24166 11.8498,-1.55674 l 7.7433,-0.57279 -0.3298,-5.80819 c -0.1824,-3.19449 -0.9833,-8.76667 -1.7799,-12.38258 -0.7966,-3.61595 -1.7604,-8.89896 -2.1422,-11.74003 -0.3803,-2.84111 -0.901,-6.01093 -1.1544,-7.04404 -0.2522,-1.03312 -1.041,-8.21802 -1.7507,-15.96644 -0.7094,-7.74845 -1.8924,-15.11122 -2.6289,-16.36173 -1.1652,-1.97806 -1.0965,-2.43594 0.5269,-3.52202 1.0264,-0.68659 3.9722,-1.24532 6.5464,-1.24163 3.9702,0.007 5.9266,0.78215 12.8934,5.11707 11.6138,7.22632 14.9705,8.78395 21.2033,9.83825 3.0192,0.51067 7.9952,1.35445 11.0582,1.87498 5.7015,0.96901 10.809,0.26659 24.4339,-3.35955 4.9034,-1.3051 8.0138,-1.24113 13.9272,0.28647 1.6274,0.42043 1.5098,0.771 -1.0267,3.06215 -6.8784,6.21272 -16.2622,10.0692 -31.965,13.13678 -8.777,1.71467 -25.9585,-2.2166 -37.3496,-8.54583 -4.4653,-2.4812 -8.3684,-4.5113 -8.673,-4.5113 -0.3065,0 -0.2289,0.73963 0.1707,1.64361 0.3985,0.90397 0.9402,4.6021 1.2037,8.21804 0.2638,3.61592 0.9084,8.05366 1.4329,9.86162 0.5243,1.80796 0.9569,5.18909 0.9608,7.51364 0,4.49827 2.2768,17.08701 4.0621,22.53466 0.5914,1.80455 1.0752,4.38866 1.0752,5.74243 0,2.72851 1.8979,3.59227 16.3361,7.43561 4.1851,1.11409 8.2605,2.62127 9.0563,3.34933 0.7958,0.72801 1.8955,1.32369 2.4441,1.32369 1.5901,0 10.976,8.40523 13.4111,12.01 3.2385,4.79318 4.0432,21.18285 1.2366,25.17833 -5.6301,8.01529 -12.8142,13.9281 -22.0758,18.16887 -4.6757,2.14089 -9.9097,4.6835 -11.6314,5.6502 -5.4097,3.03738 -15.0927,5.7671 -25.2029,7.10475 -5.3644,0.7097 -10.6888,1.54836 -11.8327,1.86361 -1.1435,0.31522 -2.4139,0.26694 -2.8232,-0.1072 z m 25.2236,-13.02433 c 2.7068,-0.75137 8.0196,-2.82648 11.8062,-4.61136 3.7867,-1.78492 9.1577,-4.22754 11.9359,-5.42806 5.5708,-2.4073 12.3309,-9.3621 13.3909,-13.77656 1.0919,-4.54825 -1.1066,-13.89444 -4.118,-17.50631 -4.3586,-5.22792 -12.0317,-9.7454 -18.1515,-10.68647 -2.977,-0.45777 -6.2208,-1.14422 -7.2091,-1.52554 -2.8332,-1.09332 -2.5484,7.82062 0.3492,10.86928 2.6452,2.78425 5.0427,7.88026 5.0427,10.71707 0,3.5041 -2.6253,7.06975 -8.3905,11.39617 -2.9997,2.25136 -5.7539,4.09336 -6.1202,4.09336 -0.3648,0 -1.3709,1.58489 -2.2326,3.52198 -0.8618,1.93713 -2.7543,5.95221 -4.2054,8.92246 l -2.6378,5.40041 2.8101,-0.0107 c 1.5458,-0.007 5.0252,-0.62494 7.732,-1.37628 z m -11.5024,-22.90781 c 0.3337,-0.32693 1.6571,-3.92048 2.9427,-7.9854 1.8807,-5.94834 2.0739,-7.5393 0.9902,-8.15202 -2.1069,-1.19119 -11.2366,-0.0249 -16.5122,2.11028 -8.8654,3.5872 -13.1841,0.13383 -7.2757,-5.8181 3.3149,-3.33949 11.4706,-6.15724 20.5374,-7.09573 l 6.4117,-0.66358 v -3.16592 c 0,-3.15267 0,-3.16584 -4.8766,-3.15203 -6.5785,0.0177 -16.1351,2.12548 -28.4892,6.28025 -13.013,4.37658 -13.8592,5.02789 -13.8592,10.66659 0,3.69763 0.5696,5.04876 3.3339,7.90496 4.3298,4.4742 11.9334,8.03474 20.2786,9.49592 6.3088,1.10461 15.1932,0.8759 16.5184,-0.42522 z m -47.8308,-25.48355 c 0.3492,-0.51656 0.1435,-0.93919 -0.4528,-0.93919 -0.598,0 -1.0872,0.42263 -1.0872,0.93919 0,0.51656 0.2056,0.93923 0.4528,0.93923 0.2483,0 0.738,-0.42267 1.0872,-0.93923 z m 90.857,-76.07546 c 0,-0.51656 -0.4621,-0.93919 -1.0266,-0.93919 -0.5646,0 -1.0268,0.42263 -1.0268,0.93919 0,0.51656 0.4622,0.93919 1.0268,0.93919 0.5645,0 1.0266,-0.42263 1.0266,-0.93919 z"
       id="path2775-0" /></g></svg>
