<?xml version="1.0" encoding="UTF-8" standalone="no"?>
<!-- Created with Inkscape (http://www.inkscape.org/) -->

<svg
   width="154.70563mm"
   height="154.70561mm"
   viewBox="0 0 154.70563 154.70561"
   version="1.1"
   id="svg5"
   xml:space="preserve"
   xmlns="http://www.w3.org/2000/svg"
   xmlns:svg="http://www.w3.org/2000/svg"><defs
     id="defs2" /><g
     id="layer1"
     transform="translate(285.01523,915.56003)"><path
       style="fill:#ffffff;fill-opacity:1;stroke:none;stroke-width:1.2786;stroke-opacity:1"
       d="m -283.61516,-761.69068 c -2.08359,-1.49938 -1.99181,-1.87868 1.29725,-5.35976 2.97898,-3.15281 12.27839,-22.89011 12.27839,-26.05985 0,-2.32581 14.74758,-30.75497 17.88237,-34.47213 1.25966,-1.49368 0.47596,-1.94993 -4.63893,-2.70094 -13.0481,-1.91594 -16.78758,-5.0968 -18.45224,-15.69582 -2.90404,-18.49046 11.05098,-40.23797 37.93407,-59.11656 11.11961,-7.8087 16.96948,-9.60592 33.56592,-10.31218 15.92949,-0.67787 25.415,0.89169 30.76628,5.09084 3.43103,2.69236 3.82932,7.07187 0.64312,7.07187 -1.14,0 -6.25962,4.65566 -30.68585,27.90507 -9.91882,9.44098 -18.87956,21.56305 -15.93962,21.56305 2.16153,0 12.49772,-4.62032 31.77543,-14.20378 8.21821,-4.08554 11.47493,-5.01504 18.04446,-5.15019 10.76361,-0.22148 21.77961,5.11962 27.19935,13.18763 3.55831,5.29709 3.65515,5.824 2.27869,12.40195 -2.41168,11.52526 -12.82168,28.01153 -17.68744,28.01153 -0.83607,0 -4.77869,1.41822 -8.76141,3.15154 -12.96573,5.64296 -17.20887,5.33456 -23.51455,-1.70907 -3.93293,-4.39312 -4.00104,-11.80777 -0.17637,-19.17433 3.86406,-7.44201 8.69606,-10.9434 12.40577,-8.98957 1.50629,0.79332 2.73871,1.96655 2.73871,2.60718 0,0.64056 -2.61,3.69689 -5.8,6.7918 -3.19003,3.09492 -5.80004,6.28676 -5.80004,7.09302 0,2.40836 6.13042,7.69259 8.92447,7.69259 2.48724,0 11.00259,-4.05571 13.56672,-6.46159 0.67346,-0.63189 2.24192,-1.14888 3.48543,-1.14888 2.53596,0 11.07042,-10.31099 12.19981,-14.73935 1.70051,-6.66769 -12.2888,-16.97097 -23.04243,-16.97097 -3.66553,0 -13.88911,4.15242 -21.57842,8.76431 -1.06333,0.63775 -7.70623,3.88985 -14.76192,7.22686 -7.05568,3.33701 -15.95477,7.91989 -19.77575,10.18417 -3.82099,2.26432 -8.57417,4.46861 -10.56268,4.89843 -1.9885,0.43003 -3.97369,1.74776 -4.41153,2.92874 -0.43795,1.18101 -1.51418,3.28884 -2.39172,4.68408 -8.72176,13.86662 -18.96525,34.57511 -18.97953,38.36953 -0.005,1.8522 2.79911,2.10728 4.56957,0.41515 0.67348,-0.64354 4.81891,-2.07834 9.21207,-3.1884 9.66961,-2.4433 28.62857,-1.85735 35.83951,1.10772 2.65167,1.09033 5.63189,1.98241 6.62273,1.98241 0.99084,0 3.96591,1.34456 6.61122,2.98796 2.64532,1.64337 8.43761,4.28976 12.87176,5.88083 10.32987,3.70663 21.25165,3.11975 30.62593,-1.64572 7.36328,-3.74321 14.79715,-9.76447 14.79715,-11.98539 0,-1.68779 6.54078,-5.38496 9.52661,-5.38496 3.96099,0 3.42708,2.85402 -1.77544,9.4903 -9.0688,11.56807 -17.61816,16.56634 -33.68058,19.69098 -7.59394,1.47728 -9.57297,1.40235 -18.04452,-0.68338 -10.3988,-2.56018 -19.65889,-6.62081 -23.70941,-10.39676 -5.61191,-5.23145 -34.86981,-7.01876 -43.16143,-2.63659 -6.89235,3.64257 -11.61855,7.10571 -18.68894,13.69435 -4.07621,3.79843 -9.01421,5.20326 -11.64228,3.31208 z m 40.06001,-80.37304 c 0.74303,-0.51253 2.73743,-2.92961 4.43199,-5.37129 8.58804,-12.37466 39.17491,-43.23375 51.78951,-52.25046 7.64202,-5.46237 7.64202,-5.46237 2.27939,-5.85933 -9.512,-0.70412 -31.43022,2.09005 -37.94182,4.83687 -13.27778,5.60111 -29.52135,19.52784 -38.39621,32.91979 -6.25756,9.44251 -7.21484,17.25285 -2.66365,21.73174 3.41964,3.36529 17.44915,6.09763 20.50079,3.99268 z"
       id="path1472-2" /><path
       style="fill:#ffffff;stroke-width:6.40126"
       d="m -432.53504,-761.24999 c -0.4355,-0.27257 -1.2975,-1.03084 -1.911,-1.68449 -0.6212,-0.65967 -1.4525,-1.25548 -1.8707,-1.33917 -0.4611,-0.0928 -0.8735,-0.41205 -1.0637,-0.82903 -0.173,-0.37302 -0.4932,-0.67835 -0.7122,-0.67835 -0.3138,0 -0.4034,-0.34039 -0.4034,-1.56605 0,-1.00416 -0.1153,-1.61462 -0.3331,-1.70145 -0.2177,-0.0883 0,-0.42548 0.5572,-0.97145 0.8908,-0.83594 0.8908,-0.83594 0.4419,-1.83421 -0.4163,-0.92232 -0.4163,-1.09232 0,-2.23609 0.2305,-0.68091 0.4227,-1.52184 0.4227,-1.86882 0,-0.36342 0.4995,-1.21709 1.1828,-2.01566 1.2559,-1.46957 1.3058,-1.83466 0.2498,-1.83466 -0.6718,0 -1.245,-0.81265 -0.7013,-0.99378 0.4867,-0.16252 0.077,-0.79909 -0.8882,-1.36726 -1.0318,-0.60784 -1.204,-1.47821 -0.3459,-1.75001 0.6616,-0.20986 0.3715,-0.57265 -0.5571,-0.69703 -0.5508,-0.0742 -0.6757,-0.25017 -0.7436,-1.06993 -0.083,-0.96678 0.3715,-2.25873 0.6808,-1.94918 0.09,0.0876 0.4803,-0.15228 0.8806,-0.53234 1.2936,-1.23801 2.5738,-0.0448 1.3737,1.2796 -0.4675,0.51698 -0.6084,2.05175 -0.2626,2.928 0.3202,0.82487 0.7211,0.2073 0.7211,-1.11785 0,-2.30334 0.3843,-2.93043 1.8143,-2.96607 0.6776,-0.0192 1.0292,-0.0838 0.7813,-0.14908 -0.2497,-0.0653 -0.5251,-0.34935 -0.6148,-0.63152 -0.1216,-0.38966 -0.3202,-0.47411 -0.8075,-0.35127 -1.1438,0.28665 -0.7801,-1.70681 0.4098,-2.23199 1.1131,-0.49267 1.2501,-1.10473 0.2434,-1.10473 -0.684,0 -0.7794,0.0793 -0.634,0.52914 0.1409,0.43573 0.064,0.52914 -0.5123,0.52914 -0.4932,0 -0.6802,0.13948 -0.6802,0.50227 0,0.59824 -1.6798,2.14491 -2.3298,2.14491 -0.8499,0 -0.6404,-3.85384 0.2754,-5.05404 0.397,-0.52338 0.7268,-1.08899 0.7268,-1.25727 0,-0.17339 0.4035,-0.30584 0.9267,-0.30584 0.8998,0 0.9273,-0.032 0.9273,-1.02008 0,-0.71597 0.1922,-1.22893 0.6501,-1.72051 0.7512,-0.80996 1.202,-0.89832 1.2104,-0.23738 0,0.25466 0.2113,0.73069 0.4611,1.05771 0.4483,0.58481 0.4547,0.57393 0.3714,-0.68769 -0.1281,-1.87503 4.3088,-4.0154 5.8727,-2.83145 0.8319,0.62959 0.4547,1.52357 -0.9479,2.26289 -1.8117,0.95322 -0.6148,1.87055 1.4282,1.09456 0.7915,-0.30072 1.0944,-3.47672 0.333,-3.47672 -0.4419,0 -0.5059,-1.20858 -0.077,-1.47148 0.1601,-0.0985 0.4804,0.006 0.709,0.23929 0.3842,0.38134 0.4419,0.36663 0.7096,-0.16699 0.3586,-0.72487 3.9565,-1.26239 5.0663,-0.75724 0.6513,0.29688 0.8742,1.18868 0.3715,1.49778 -0.4227,0.26105 -0.064,0.62384 0.4931,0.48115 0.8594,-0.22458 1.813,1.19265 1.0989,1.6335 -0.1472,0.0902 -0.2625,0.46835 -0.2625,0.84054 0,0.58033 -0.083,0.65065 -0.5956,0.49267 -1.9879,-0.61551 -2.4439,-0.38965 -3.5287,1.74783 -0.7647,1.50598 -1.3167,2.08061 -1.9981,2.08061 -1.0106,0 -3.749,3.12142 -5.108,5.82311 -0.6961,1.383 -1.4525,2.72255 -1.6811,2.97682 -0.2946,0.33016 -0.4547,1.22112 -0.5444,3.1165 -0.07,1.45984 -0.2305,2.71788 -0.3586,2.79574 -0.1281,0.0781 -0.2306,0.66345 -0.2306,1.30136 0,0.63791 -0.1344,1.24089 -0.2881,1.33994 -0.4035,0.25145 -0.096,1.58275 0.5955,2.55446 0.4676,0.65711 0.5188,0.8973 0.2626,1.3011 -0.5123,0.81611 0.2626,0.61424 1.9264,-0.50547 1.544,-1.03697 4.392,-3.67519 4.392,-4.06863 0,-0.12348 0.1281,-0.22458 0.2818,-0.22458 0.1857,0 0.2177,0.41525 0.1024,1.19112 -0.2497,1.64756 -0.09,1.56061 2.9338,-1.58813 1.4666,-1.52856 2.5719,-2.77924 2.456,-2.77924 -0.1153,0 -0.2113,-0.17851 -0.2113,-0.3967 0,-0.22266 -0.237,-0.39669 -0.538,-0.39669 -1.3935,0 -0.7313,-1.41954 1.0843,-2.32496 0.7889,-0.3935 0.8997,-0.56625 0.8274,-1.29112 -0.064,-0.65461 0.064,-0.87459 0.4611,-1.01017 0.301,-0.0953 0.6148,-0.45428 0.7032,-0.798 0.09,-0.34359 0.3842,-0.8305 0.6634,-1.08208 0.301,-0.27257 0.506,-0.80728 0.506,-1.32132 0,-1.20678 0.2369,-1.70106 0.8229,-1.70106 0.6148,0 0.6404,-0.23673 0.064,-0.65857 -0.4611,-0.33464 -0.2881,-0.92955 0.2626,-0.92955 0.237,0 0.3074,-0.8353 0.269,-3.16161 -0.064,-3.42585 0,-3.53456 1.4307,-3.84302 0.8415,-0.17979 1.211,-0.67125 0.5059,-0.67125 -1.0054,0 -1.505,-1.49669 -0.9247,-2.76932 0.2177,-0.48051 0.2305,-0.92961 0.064,-1.54801 -0.333,-1.09232 0,-2.03518 0.6961,-2.03518 0.4739,0 0.4996,-0.0755 0.2306,-0.66063 -0.2434,-0.53745 -0.2178,-0.75097 0.1409,-1.14574 0.2433,-0.26681 0.4419,-0.66965 0.4419,-0.89519 0,-0.22522 0.1857,-0.84631 0.4034,-1.37954 0.3651,-0.87043 0.3651,-1.011 0,-1.37468 -0.5123,-0.51443 -0.5187,-1.26649 0,-1.6882 0.2434,-0.20027 0.3779,-0.72532 0.3523,-1.35331 0,-0.65736 0.128,-1.213 0.429,-1.54539 0.4547,-0.49843 0.4483,-0.54705 -0.09,-1.22924 -1.1291,-1.43342 -0.6212,-5.01379 0.8825,-6.25404 1.0996,-0.90562 1.9757,-2.37839 1.5069,-2.53438 -0.1729,-0.0576 -0.301,-0.70151 -0.301,-1.53361 0,-1.34365 -0.064,-1.43374 -0.6468,-1.43374 -0.9479,0 -1.0068,-0.3148 -0.3715,-1.97337 0.4867,-1.2654 0.5316,-1.67399 0.301,-2.67751 -0.2562,-1.10857 0.1921,-3.81109 0.7845,-4.77123 0.09,-0.14396 -0.1281,-0.97126 -0.4803,-1.83843 -0.8018,-1.96716 -0.8018,-2.26398 0,-3.01879 0.9139,-0.85769 1.3417,-2.13121 0.716,-2.13121 -1.0823,0 -1.4346,-1.25657 -0.6616,-2.35926 0.3779,-0.5349 0.3907,-0.75583 0.1025,-1.5473 -0.2562,-0.70203 -0.2562,-0.96909 0,-1.11498 0.4098,-0.25273 -0.3202,-5.31707 -1.0273,-7.10124 -0.3202,-0.8161 -0.5059,-1.96236 -0.5123,-3.2387 0,-1.0865 -0.1345,-2.89755 -0.2818,-4.02442 -0.3906,-2.9884 0.1729,-5.31349 1.7778,-7.31578 3.3782,-4.21745 4.1224,-4.54639 6.6828,-2.9541 0.2177,0.13564 0.8236,0.3148 1.3449,0.39669 1.4614,0.23098 3.1278,2.52542 1.8348,2.52542 -0.4291,0 -0.3074,0.67535 0.4547,2.57795 0.691,1.72377 0.7237,1.75941 0.885,0.97223 0.5444,-2.64232 1.0138,-1.58909 0.871,1.94227 -0.1537,3.70194 1.3859,13.6528 2.789,18.06464 2.3382,7.35084 2.7378,9.03194 2.271,9.54783 -0.4803,0.52914 0,1.44654 1.2193,2.2938 0.3074,0.21498 0.5188,0.66869 0.5188,1.10992 0,1.44736 0.3394,2.38798 1.2225,3.42316 0.9715,1.13404 1.1227,1.62396 0.4996,1.62396 -0.8621,0 -0.4035,1.06635 1.5177,3.53085 1.1349,1.45511 1.2956,2.29227 0.4419,2.29227 -0.429,0 -0.5123,0.10813 -0.365,0.46323 0.1025,0.25466 0.2562,0.70145 0.333,0.99258 0.077,0.29112 0.992,1.66394 2.034,3.05065 1.0419,1.38665 2.3452,3.26264 2.896,4.16877 1.1085,1.82333 1.4934,2.044 1.4934,0.85667 0,-0.43509 0.3587,-1.90638 0.7948,-3.26974 0.4355,-1.36342 0.7947,-2.77098 0.7947,-3.12801 0,-0.35703 0.2946,-1.05265 0.6622,-1.54596 0.3651,-0.49331 0.6641,-1.26086 0.6661,-1.70573 0.01,-1.04178 0.3586,-1.59056 0.8966,-1.38505 0.3522,0.13437 0.4226,-0.0448 0.4226,-1.02021 0,-1.18273 0,-1.18273 1.0593,-1.18273 1.1124,0 1.4352,-0.36982 0.5315,-0.60592 -0.6148,-0.16124 -0.6686,-0.83908 -0.1345,-1.77611 0.2114,-0.36406 0.3843,-0.9856 0.3907,-1.38146 0.01,-0.39606 0.2498,-1.17768 0.538,-1.7374 0.2945,-0.55986 0.634,-1.85296 0.7646,-2.87374 0.2242,-1.78398 0.7909,-3.32061 1.3519,-3.66727 0.1473,-0.0909 0.269,-0.51506 0.269,-0.94317 0,-0.9927 0.1921,-0.97933 1.0721,0.0749 0.7128,0.85347 0.7128,0.85347 1.0182,-0.56817 0.3779,-1.75046 0.3074,-1.82545 -1.1899,-1.27186 -1.1995,0.44404 -1.1995,0.44404 -1.1162,-0.27705 0.064,-0.56113 0.2882,-0.78744 1.0106,-1.01791 1.2187,-0.38966 1.4653,-1.15605 1.8501,-5.74275 0.1666,-1.98623 0.4291,-4.00081 0.5828,-4.47684 0.1537,-0.47604 0.3779,-3.06902 0.4932,-5.7622 0.1152,-2.69319 0.3394,-5.66309 0.4995,-6.59974 0.1857,-1.11139 0.1985,-1.75897 0,-1.86409 -0.4547,-0.28153 -0.6084,-3.74366 -0.2946,-6.75567 0.3906,-3.78333 0.4163,-17.57293 0.064,-19.3221 -1.9769,-9.0837 -0.1217,-18.71842 3.6286,-18.87045 1.0555,-0.0448 1.9187,-0.19195 1.9187,-0.33079 0,-0.91112 2.6744,0.4402 4.1397,2.09167 1.9558,2.20448 2.1121,3.35407 2.6302,19.35947 0.4291,13.29265 0.6148,16.41484 1.1521,19.69442 0.7109,4.3238 0.5124,8.97659 -0.397,9.16566 -1.4807,0.30968 -1.5972,0.5573 -0.5252,1.10826 0.8876,0.45492 0.9696,0.58225 0.7858,1.21715 -0.4867,1.68167 0.064,2.98386 1.4013,3.50686 1.0406,0.39733 1.179,3.01233 0.1537,2.83938 -0.8179,-0.13756 -0.6213,2.57065 0.2817,3.87105 1.124,1.61974 1.6491,3.69433 1.124,4.44306 -0.725,1.03435 -0.5444,1.93031 0.7499,3.76144 0.3779,0.5349 0.4291,0.78546 0.1985,1.01433 -0.4803,0.4786 -0.3586,0.88207 0.3587,1.20877 0.7307,0.33271 0.9837,1.5516 0.2625,1.27589 -0.6423,-0.24633 -0.4611,0.39606 0.5124,1.81386 0.8716,1.26917 0.8972,1.37417 0.602,2.46195 -0.3395,1.26949 -0.064,2.09826 0.7057,1.96224 0.3138,-0.0576 0.4291,0.12732 0.4291,0.69146 0,0.4562 0.3266,1.17576 0.7941,1.76773 0.4355,0.54898 0.9158,1.48863 1.0644,2.08771 0.8588,3.46623 2.0141,4.5638 2.9254,2.77956 0.3074,-0.59888 0.7967,-1.15183 1.0907,-1.22867 0.4354,-0.11325 0.5059,-0.28665 0.3778,-0.92136 -0.1281,-0.63215 -0.064,-0.80811 0.3715,-0.91976 0.2881,-0.0761 0.5251,-0.33847 0.5251,-0.58353 0,-0.24505 0.1089,-0.55857 0.2369,-0.69696 0.1281,-0.13821 0.4291,-1.0048 0.6616,-1.92552 0.2626,-1.04011 0.8242,-2.23423 1.4832,-3.15315 0.5828,-0.81355 1.0599,-1.63836 1.0599,-1.83306 0,-0.21946 0.3138,-0.35383 0.8261,-0.35383 0.8262,0 0.8262,0 0.1345,-0.90875 -0.8818,-1.1547 -0.8709,-1.61634 0.09,-3.8747 0.4291,-1.01355 1.0375,-2.68889 1.3455,-3.72286 0.3074,-1.03742 0.83,-2.13269 1.1617,-2.44377 0.9056,-0.84881 1.2117,-1.59261 1.2117,-2.9417 0,-1.46668 0.5956,-2.71992 1.4397,-3.04138 0.5571,-0.2105 0.602,-0.36086 0.4867,-1.42772 -0.1985,-1.75634 0.1537,-3.58575 0.8133,-4.26051 0.3715,-0.38134 0.5892,-0.96237 0.6212,-1.66504 0.064,-1.38786 0.7288,-2.66752 1.5543,-2.98104 0.7455,-0.28281 0.8396,-0.83191 0.2306,-1.33757 -0.5828,-0.48627 -0.3266,-1.53956 0.862,-3.45874 0.7819,-1.26604 1.0054,-1.93005 1.1278,-3.3517 0.1537,-1.77054 0.1537,-1.77304 1.0137,-1.8559 0.9114,-0.0876 1.0516,-0.28216 0.5572,-0.77432 -0.2241,-0.22522 -0.1921,-1.08944 0.1473,-3.42765 0.7826,-5.47971 1.4717,-8.27962 3.1765,-12.9056 1.487,-4.03581 2.1351,-6.08999 2.6584,-8.42672 0.919,-4.1021 8.0987,-5.03823 8.0987,-1.05592 0,0.35767 0.237,0.95361 0.5316,1.32413 2.1806,2.76952 2.0615,6.53679 -0.6213,19.72693 -0.8229,4.04112 -1.496,7.68093 -1.496,8.0885 0,0.40758 -0.1665,0.96576 -0.365,1.24044 -0.269,0.36983 -0.301,0.69282 -0.1025,1.24473 0.1857,0.52851 0.1409,1.41743 -0.1537,3.05821 -0.5123,2.87976 -1.1149,8.0489 -1.5018,12.90049 -0.1601,2.03806 -0.4162,4.18201 -0.5635,4.76432 -0.3202,1.24633 -0.3202,1.35043 -0.071,3.52016 0.1409,1.27046 0.077,2.03985 -0.2882,3.2318 -0.4226,1.40161 -0.4355,1.72377 -0.1088,3.09698 0.1985,0.84291 0.333,2.53661 0.301,3.76368 -0.064,1.49523 0.064,2.29495 0.2497,2.42465 0.2178,0.13564 0.096,0.44916 -0.4098,1.05329 -0.6597,0.78283 -0.7212,1.03934 -0.6879,2.86907 0,1.10512 0,2.18803 0,2.40635 -0.064,1.0817 0.4932,4.99267 0.7641,5.69079 0.1729,0.44532 0.2433,1.26405 0.1537,1.86441 -0.1089,0.70944 0.064,2.0037 0.4931,3.83797 0.3586,1.52216 0.7301,3.49854 0.8255,4.39193 0.096,0.89347 0.3394,1.94925 0.5508,2.34627 0.2049,0.39734 0.3714,1.28331 0.3714,1.9694 0,0.71668 0.2818,1.9337 0.6558,2.85999 1.001,2.46003 1.1732,3.88417 0.4419,3.65248 -0.7961,-0.25273 -0.7128,0.0781 0.096,0.38582 0.3651,0.13884 0.8025,0.55282 0.9696,0.91989 0.1665,0.36662 0.4611,0.66702 0.6526,0.66702 0.2434,0 0.301,0.23162 0.1985,0.76191 -0.09,0.43317 0,0.83966 0.1409,0.94203 0.1601,0.0992 0.2882,0.58289 0.2882,1.07524 0,1.08362 0.2626,1.28088 1.2085,0.92033 0.5059,-0.19323 0.9882,-0.18683 1.6177,0.0192 0.7467,0.24633 1.1265,0.20538 2.2805,-0.24314 0.7615,-0.29624 1.7119,-0.60656 2.1128,-0.68942 0.4034,-0.0832 0.7288,-0.32311 0.7288,-0.53362 0,-0.50739 1.4902,-2.18694 2.1172,-2.38561 0.3971,-0.12669 0.4675,-0.33336 0.3458,-1.07147 -0.096,-0.5912 -0.064,-0.91444 0.1537,-0.91444 0.1665,0 0.301,-0.26809 0.301,-0.59569 0.01,-0.87714 0.3907,-1.33693 0.9581,-1.15585 0.6212,0.19706 0.5636,-2.20352 -0.064,-2.56285 -0.6417,-0.36919 -0.397,-1.27615 0.5828,-2.1723 0.7391,-0.67592 0.9286,-1.03403 0.8614,-1.62383 -0.096,-0.86403 0.4995,-0.81662 -6.0744,-0.47923 -3.7388,0.19195 -3.8873,0.17979 -4.4375,-0.37046 -1.1156,-1.11453 -0.7512,-5.59796 0.4547,-5.59796 0.3203,0 0.57,-0.24378 0.6744,-0.66172 0.1345,-0.52274 0.333,-0.66171 0.9638,-0.66171 0.4675,0 0.862,-0.16572 0.9511,-0.3967 0.2049,-0.53234 0.5059,-0.50034 1.3807,0.14461 1.2539,0.92654 3.2213,-0.30904 2.2319,-1.40207 -1.115,-1.23027 4.1518,-0.20986 7.4775,1.44903 3.0715,1.53208 4.8928,3.67788 4.8986,5.7709 0,0.604 0.1921,1.09386 0.5315,1.38697 0.57,0.48499 0.6212,0.82013 0.3587,2.37742 -0.1602,0.94772 -0.2114,0.99257 -1.1893,0.99257 -1.2226,0 -1.3353,0.36919 -0.2306,0.75443 1.1272,0.39286 0.9645,2.49125 -0.301,3.89466 -0.2689,0.30072 -0.4931,0.85929 -0.4931,1.24166 0,0.38262 -0.1217,0.76882 -0.2625,0.85878 -0.1473,0.0902 -0.2626,0.72896 -0.2626,1.41998 0,0.92021 -0.1729,1.4933 -0.6539,2.1419 -0.3586,0.48691 -0.9747,1.85014 -1.3666,3.02916 -0.9351,2.81174 -3.6171,5.1875 -5.856,5.1875 -0.4291,0 -0.789,0.28793 -1.1662,0.92642 -0.7192,1.2183 -2.0404,1.29879 -3.2579,0.19834 -0.4418,-0.40053 -0.5955,-0.48051 -0.3458,-0.17787 0.6917,0.82775 0.57,1.12291 -0.7083,1.74425 -2.1383,1.03774 -11.2835,-2.72217 -11.2835,-4.63885 0,-0.34935 -0.1729,-0.77656 -0.3779,-0.95002 -0.2113,-0.1734 -0.4547,-0.65442 -0.5443,-1.06878 -0.09,-0.41461 -0.4547,-1.09098 -0.8146,-1.5036 -0.7032,-0.81278 -1.7029,-3.21548 -1.7029,-4.09365 0,-0.33079 -0.2178,-0.60144 -0.5572,-0.68987 -0.4803,-0.12604 -0.5379,-0.28088 -0.397,-1.15323 0.1344,-0.83671 0.064,-1.11542 -0.474,-1.64347 -0.8184,-0.81803 -1.4044,-3.40673 -0.9811,-4.33519 0.4035,-0.87977 0.3651,-1.09002 -0.1729,-1.04728 -0.7038,0.0576 -1.1252,-4.12186 -0.7967,-7.89354 0.083,-0.96314 -1.0445,-1.54379 -1.9283,-0.99232 -0.7544,0.47092 -0.9734,0.39862 -1.1201,-0.3679 -0.1985,-1.0238 0.071,-1.75653 0.5828,-1.62191 0.2882,0.0749 0.4547,-0.0576 0.4739,-0.37558 0,-0.32184 -0.1409,-0.49075 -0.4739,-0.49075 -0.3714,0 -0.5251,-0.20091 -0.5636,-0.72794 -0.083,-1.24953 0.07,-2.56995 0.3331,-2.83209 0.4739,-0.48307 0.2817,-2.47372 -0.2882,-3.00689 -0.6148,-0.57009 -0.4739,-1.2551 0.2882,-1.45517 0.5956,-0.15612 0.6545,-0.8298 0.1537,-1.78897 -0.8332,-1.59427 -0.6859,-3.95263 0.2433,-3.95263 0.5636,0 0.4547,-0.81067 -0.2113,-1.51615 -0.4803,-0.51122 -0.5316,-0.71226 -0.2818,-1.11491 0.2562,-0.40885 0.2177,-0.51378 -0.2113,-0.62575 -0.643,-0.16828 -0.7532,-1.77234 -0.1217,-1.77234 0.3202,0 0.2946,-0.15804 -0.1345,-0.86019 -0.5956,-0.97766 -0.6853,-1.78615 -0.1985,-1.78763 0.2305,-7.6e-4 0.3394,-0.59888 0.365,-2.01566 0,-1.28805 0.1537,-2.08803 0.365,-2.21804 0.3843,-0.2361 -1.6753,-2.38248 -2.2837,-2.38248 -0.5892,0 -0.4227,0.41909 0.2946,0.74592 0.8082,0.3679 0.8364,0.69018 0.1089,1.20128 -0.4099,0.28857 -0.602,0.80222 -0.7455,1.99058 -0.1153,0.95508 -0.3842,1.81655 -0.6718,2.13442 -0.3522,0.39222 -0.4419,0.77944 -0.333,1.46541 0.1409,0.85302 0.096,0.93236 -0.4931,0.93236 -0.4611,0 -0.6456,0.14588 -0.6456,0.51379 0,0.2828 -0.1088,0.58032 -0.2369,0.66177 -0.1345,0.0813 -0.1793,0.62192 -0.096,1.20116 0.1601,1.17128 -0.4291,2.38766 -1.1534,2.38766 -0.2882,0 -0.365,0.14141 -0.2433,0.46324 0.4931,1.27256 0.4803,1.9488 0,2.0831 -0.3331,0.0877 -0.5316,0.39606 -0.57,0.89634 -0.077,1.00307 -0.9357,2.979 -1.7708,4.07292 -0.602,0.79122 -0.8665,1.72345 -1.325,4.69931 -0.1601,1.04997 -1.0298,2.34288 -1.5729,2.34288 -2.8601,0 -2.2626,6.54612 1.0247,11.2302 0.8101,1.15413 1.473,2.23263 1.473,2.39662 0,0.1638 0.5379,1.05931 1.1918,1.98969 1.3353,1.8939 1.4601,2.38216 0.6084,2.38216 -0.4419,0 -0.5059,0.0742 -0.2754,0.30648 0.365,0.36214 1.1239,-0.13629 1.1239,-0.73587 0,-0.67317 0.7833,-0.37302 0.9472,0.36342 0.333,1.4832 0.4291,1.64949 1.4365,2.44755 1.1515,0.91138 2.2261,2.47507 2.0468,2.979 -0.064,0.18171 0.429,0.94477 1.104,1.69581 0.6718,0.75097 1.9367,2.2819 2.8108,3.40212 0.8749,1.12021 1.888,2.19244 2.2524,2.38273 1.4768,0.7717 2.1806,1.87669 2.8166,4.42175 0.7838,3.13755 0.7787,3.29098 -0.1345,3.76279 -0.4675,0.2425 -0.9306,0.81451 -1.2021,1.49164 -0.3842,0.95694 -0.5251,1.08138 -1.113,0.96929 -0.4227,-0.0813 -0.7256,0.006 -0.814,0.23545 -0.237,0.62256 -1.496,0.46644 -1.3308,-0.16507 0.1025,-0.3935 0,-0.52914 -0.3714,-0.52914 -0.3267,0 -0.8012,-0.47604 -1.3148,-1.31019 -0.4419,-0.72064 -1.0388,-1.38376 -1.3218,-1.47366 -0.2818,-0.0896 -0.5188,-0.33399 -0.5188,-0.54258 0,-0.20858 -0.1729,-0.37942 -0.3842,-0.37942 -0.4611,0 -3.2886,-3.22584 -4.5329,-5.16933 -0.4867,-0.75961 -1.0682,-1.45165 -1.2937,-1.53797 -0.2241,-0.0864 -0.602,-0.63279 -0.8325,-1.21446 -0.4803,-1.19732 -1.2008,-1.55639 -2.1288,-1.0602 -0.7595,0.40629 -1.5645,-0.20795 -2.3836,-1.81815 -0.2754,-0.5381 -0.7864,-1.22739 -1.1387,-1.53163 -0.7281,-0.62896 -0.6148,-1.39637 0.2434,-1.62031 0.5635,-0.14652 0.6891,-0.4754 0.2818,-0.72544 -0.1345,-0.0832 -0.3202,-0.50675 -0.4163,-0.94203 -0.1793,-0.82858 -0.2754,-0.87286 -1.6363,-0.79921 -1.1976,0.0646 -2.4521,-1.23232 -1.6631,-1.71949 0.1537,-0.094 0.4611,-0.0192 0.6878,0.1702 0.3522,0.29432 0.397,0.25273 0.3202,-0.29817 -0.077,-0.53809 -0.2498,-0.64443 -1.083,-0.67259 -0.5443,-0.0192 -1.2283,-0.24697 -1.5171,-0.50802 -0.5316,-0.48052 -1.0779,0.17019 -1.0638,1.2668 0,0.17275 -0.4034,1.14735 -0.9074,2.16641 -0.4996,1.01906 -0.9812,2.07389 -1.0663,2.34409 -0.1217,0.3775 -0.3138,0.45172 -0.8383,0.31991 -0.643,-0.16123 -0.6731,-0.1254 -0.5124,0.6104 0.1409,0.636 0.07,0.81355 -0.3586,0.95086 -0.2946,0.0928 -0.6084,0.43061 -0.709,0.75084 -0.096,0.31992 -0.3906,0.8202 -0.65,1.11139 -0.2626,0.29112 -0.6641,0.94625 -0.8966,1.45575 -0.9305,2.04228 -1.3538,2.51454 -2.2542,2.51454 -0.538,0 -0.9504,0.17147 -1.1144,0.46324 -0.634,1.12815 -3.4032,0.19642 -5.3776,-1.80913 -1.2744,-1.29374 -1.7938,-4.6686 -0.7794,-5.05762 0.1986,-0.0755 0.3587,-0.33975 0.3587,-0.58736 0,-0.51955 0.9965,-2.07466 2.8985,-4.52317 0.7352,-0.94631 1.3372,-1.8694 1.3385,-2.05137 6e-4,-0.18171 0.1281,-0.33079 0.2754,-0.33079 0.4162,0 1.5722,-2.65831 1.5747,-3.62382 0,-0.46452 0.1281,-0.91982 0.2754,-1.01183 0.1473,-0.0921 0.6276,-0.87324 1.0638,-1.73612 0.4355,-0.86281 0.91,-1.5688 1.0535,-1.5688 0.3458,0 0.3394,-0.87779 0,-1.22368 -0.1858,-0.18491 -0.173,-0.69544 0.064,-1.60515 0.3074,-1.32804 0.301,-1.34953 -1.2174,-4.61261 -3.4596,-7.43588 -5.1061,-12.11772 -4.6668,-13.27109 0.237,-0.62959 0.1986,-0.70554 -0.4867,-0.85507 -1.692,-0.3711 -3.1176,-3.28841 -2.1025,-4.30274 0.2242,-0.22586 0.1281,-0.50739 -0.3906,-1.12035 -0.57,-0.67713 -0.6456,-0.93447 -0.4355,-1.48895 0.3458,-0.90517 0.3458,-0.90056 -0.4099,-0.90056 -0.8345,0 -1.3891,-1.03289 -1.0304,-1.91899 0.2049,-0.51187 0,-0.81783 -1.293,-2.18362 -1.5351,-1.58813 -1.5351,-1.58813 -1.4576,1.32343 0.064,2.44601 0,2.91156 -0.3202,2.91156 -0.2178,0 -0.5444,0.1382 -0.7237,0.30712 -0.1793,0.16891 -0.5508,0.24889 -0.823,0.17787 -0.7653,-0.19963 -1.2135,3.74519 -0.5635,4.95857 0.2177,0.40054 0.1857,0.51187 -0.1217,0.51187 -0.3458,0 -0.9459,0.74483 -0.9459,1.18023 0,0.0857 0.2946,0.26937 0.6622,0.40758 0.8991,0.34167 0.9203,1.9289 0.064,3.22181 -0.3394,0.50226 -0.7019,1.42215 -0.8011,2.04394 -0.096,0.62192 -0.4739,1.71373 -0.8383,2.42669 -0.3651,0.7129 -0.718,1.77662 -0.7916,2.3638 -0.1601,1.25298 -0.8838,3.17805 -1.1989,3.17805 -0.1216,0 -0.2561,0.38709 -0.301,0.86025 -0.064,0.51506 -0.2177,0.83364 -0.4162,0.79403 -0.2242,-0.0448 -0.3331,0.302 -0.3331,1.06743 0,0.97786 -2.0634,7.63275 -2.5021,8.07142 -0.2946,0.29305 -0.1409,2.24364 0.2306,2.92973 0.2113,0.38646 0.4483,1.03007 0.5315,1.43041 0.096,0.4594 0.3266,0.72794 0.6212,0.72794 0.2562,0 0.7007,0.1606 0.9882,0.35766 0.2882,0.19643 0.837,0.43381 1.2219,0.52723 0.4483,0.10941 0.7583,0.40501 0.8659,0.83357 0.09,0.36534 0.3458,0.66402 0.5635,0.66402 4.0962,0 7.0101,3.96689 7.0101,9.54367 0,4.89836 -0.2946,5.59405 -1.8918,4.45829 -0.5188,-0.36983 -1.2034,-0.59505 -1.7586,-0.57969 -0.6629,0.0192 -0.8294,-0.0512 -0.6148,-0.26681 0.4803,-0.48243 0.3394,-0.67777 -0.5636,-0.76511 -0.6148,-0.0576 -0.8876,-0.23482 -0.9581,-0.61232 -0.064,-0.29112 -0.2113,-0.6008 -0.3522,-0.68731 -0.1409,-0.087 -0.333,-0.74105 -0.4355,-1.4537 -0.1665,-1.16648 -0.2625,-1.30916 -0.9555,-1.43015 -0.5443,-0.0953 -1.1258,-0.59185 -1.991,-1.70285 -0.6718,-0.86262 -1.3968,-1.62166 -1.6113,-1.68679 -0.2178,-0.0653 -0.773,-0.47987 -1.2412,-0.92136 -1.0394,-0.98176 -1.8104,-0.65493 -1.5242,0.6461 0.1473,0.66185 0.096,0.74445 -0.4226,0.68571 -0.4163,-0.0448 -0.7186,0.16572 -1.0343,0.72724 -0.4803,0.84912 -1.9181,1.24421 -2.4816,0.68097 -0.5252,-0.52466 -0.7064,-0.29496 -2.1205,2.69376 -0.7742,1.63778 -1.6081,3.14119 -1.8527,3.34101 -0.2626,0.2169 -0.4419,0.74515 -0.4419,1.30897 0,0.62831 -0.2113,1.17255 -0.6276,1.62184 -0.3458,0.37175 -0.8896,1.55512 -1.2098,2.62933 -0.6596,2.21209 -2.4457,6.21719 -2.8966,6.49583 -0.1665,0.10174 -0.301,0.3935 -0.301,0.64879 0,1.29765 -2.5034,5.063 -3.3667,5.063 -0.2177,0 -0.9862,0.52978 -1.7073,1.17684 -0.7314,0.65717 -1.977,1.42587 -2.8204,1.74066 -0.8306,0.31032 -1.7368,0.76313 -2.0129,1.00678 -0.3522,0.31032 -0.5379,0.34871 -0.6148,0.12861 -0.064,-0.17276 -0.5315,-0.86128 -1.0387,-1.52946 -1.3494,-1.76536 -1.3949,-2.58844 -0.2498,-4.47435 0.5188,-0.85475 0.9446,-1.82461 0.9446,-2.15534 0,-0.33079 0.1729,-0.66792 0.3843,-0.74924 0.2177,-0.0819 0.755,-1.35958 1.2168,-2.87368 0.5443,-1.7802 1.0419,-2.90944 1.4396,-3.25521 0.474,-0.41397 0.5764,-0.71885 0.474,-1.39669 -0.1025,-0.64476 0.064,-1.12015 0.5379,-1.85276 0.3714,-0.54194 0.8025,-1.48038 0.9613,-2.08521 0.3714,-1.42165 1.4281,-3.79805 2.2446,-5.05615 0.3523,-0.54514 0.848,-1.73836 1.099,-2.65217 0.2498,-0.91381 0.5572,-1.72479 0.6846,-1.80221 0.1281,-0.0774 0.2306,-0.39414 0.2306,-0.70369 0,-0.30968 0.2177,-0.80875 0.4867,-1.10928 0.7121,-0.79857 1.7073,-4.02045 1.7759,-5.74947 0.07,-1.8113 0.1665,-1.98572 1.2059,-2.21362 0.8133,-0.17852 0.8133,-0.17852 0.2625,-0.76531 -0.6449,-0.68539 -0.7384,-1.7438 -0.1537,-1.7438 0.6405,0 0.4611,-0.41589 -0.5443,-1.30052 -0.83,-0.72794 -0.9882,-0.77964 -1.3327,-0.43573 -1.0413,1.04063 -1.8508,-0.74822 -0.912,-2.01655 0.4611,-0.62576 0.5188,-0.86467 0.269,-1.10365 -0.2434,-0.23098 -0.3522,-0.22458 -0.4483,0.0256 -0.2498,0.67272 -0.8723,0.34039 -0.8723,-0.46324 0,-0.66485 -0.1024,-0.79403 -0.6449,-0.79403 -1.5267,0 -2.0262,-0.42933 -1.8418,-1.58166 0.1985,-1.24704 -0.1025,-1.72832 -1.2283,-1.95309 -0.4355,-0.087 -0.7884,-0.31608 -0.7884,-0.50931 0,-0.19323 -0.3458,-0.82545 -0.7755,-1.40475 -0.4291,-0.57905 -0.8614,-1.40667 -0.9671,-1.83875 -0.1088,-0.43189 -0.5187,-1.16245 -0.919,-1.62313 -0.8985,-1.03518 -1.3993,-2.48952 -1.2622,-3.66361 0.083,-0.73011 0,-0.94087 -0.5124,-1.17211 -1.1553,-0.52594 -2.3484,-3.72306 -1.3897,-3.72306 0.3843,0 0.5316,-0.17659 0.5316,-0.65358 0,-0.6422 0,-0.63472 -1.457,0.43508 -1.6766,1.25279 -1.674,1.24588 -0.7947,2.0712 0.9266,0.87024 0.878,2.18202 -0.1345,3.67929 -0.4355,0.6406 -0.7897,1.51244 -0.7897,1.93735 0,0.64988 -0.096,0.75923 -0.5956,0.68808 -1.0355,-0.14716 -1.2974,0.99602 -0.5507,2.40321 0.7301,1.37621 0.7883,2.28701 0.1665,2.63323 -0.4227,0.23545 -0.4227,0.45812 -0.01,3.61998 0.4291,3.27997 0.4098,4.00138 -0.096,3.68799 -0.1345,-0.0838 -0.2498,0.27513 -0.2498,0.79819 0,0.52274 -0.1857,1.38933 -0.4098,1.92564 -0.3907,0.92692 -0.3779,0.99571 0.1473,1.39195 0.6474,0.4882 0.5059,1.10115 -0.3907,1.6875 -1.0791,0.70663 -1.0797,2.81027 -6e-4,2.81027 0.2113,0 0.3906,0.11901 0.3906,0.26489 0,0.14588 -0.096,0.26489 -0.2177,0.26489 -0.6789,0 -1.1694,0.7184 -0.871,1.27582 0.2434,0.45173 0.2242,0.73728 -0.096,1.35549 -0.2242,0.43061 -0.4035,1.00434 -0.4035,1.27442 0,0.27001 -0.2882,0.87849 -0.634,1.35196 -0.3523,0.47348 -0.716,1.30065 -0.8146,1.83811 -0.096,0.53746 -0.3523,1.25081 -0.57,1.58525 -0.2818,0.43573 -0.3394,0.94625 -0.2113,1.80138 0.1473,0.99296 0.09,1.2908 -0.3651,1.77407 -0.9882,1.05361 -1.439,2.83062 -0.7185,2.83062 0.5187,0 1.2975,1.21299 1.1034,1.71839 -0.083,0.21947 -0.3394,0.39926 -0.5572,0.39926 -0.2241,0 -0.4034,0.16316 -0.4034,0.36278 0,0.23546 -0.4611,0.42421 -1.3161,0.53746 -1.2917,0.17084 -1.3135,0.18939 -1.1591,0.96052 0.1152,0.58289 0.064,0.78603 -0.2242,0.78603 -0.269,0 -0.3522,0.2201 -0.2754,0.74637 0.077,0.51634 -0.09,0.98515 -0.5379,1.5219 -0.3523,0.42677 -0.7218,1.08996 -0.8159,1.47424 -0.1089,0.45044 -0.4035,0.75782 -0.8351,0.86524 -0.5892,0.14781 -0.6654,0.30648 -0.6737,1.4189 0,1.52862 -0.3715,2.21823 -1.5806,3.02928 -0.9004,0.60464 -1.7112,2.33494 -2.2402,4.78486 -0.1217,0.57009 -0.6872,1.07562 -2.4701,2.21318 -1.2706,0.81086 -2.8466,1.9902 -3.5024,2.62082 -1.7465,1.67949 -3.0888,2.06 -4.9261,1.39624 -0.7147,-0.25849 -0.9696,-0.2361 -1.5326,0.13244 -0.8703,0.56945 -1.4345,0.55666 -2.4163,-0.0576 z"
       id="path3-0" /></g></svg>
