<?xml version="1.0" encoding="UTF-8" standalone="no"?>
<!-- Created with Inkscape (http://www.inkscape.org/) -->

<svg
   width="135.40271mm"
   height="154.70561mm"
   viewBox="0 0 135.40271 154.70561"
   version="1.1"
   id="svg5"
   xml:space="preserve"
   xmlns="http://www.w3.org/2000/svg"
   xmlns:svg="http://www.w3.org/2000/svg"><defs
     id="defs2" /><g
     id="layer1"
     transform="translate(1355.4229,915.56003)"><path
       style="fill:#ffffff;fill-opacity:1;stroke:none;stroke-width:0.918273;stroke-opacity:1"
       d="m -1292.0953,-761.46784 c -1.6939,-0.37088 -5.4556,-1.24069 -8.3593,-1.93291 -2.9042,-0.69224 -6.0554,-1.15047 -7.0032,-1.01828 -0.9479,0.13219 -2.9278,-0.25679 -4.3997,-0.86431 -3.6192,-1.4937 -10.7497,-2.82312 -14.7759,-2.75492 -1.8148,0.029 -3.2998,-0.28504 -3.2998,-0.70162 -3e-4,-0.41665 -1.5082,-0.77908 -3.3517,-0.80546 -1.8432,-0.0254 -5.2045,-0.9966 -7.4697,-2.15608 -2.2652,-1.15953 -4.4718,-2.10818 -4.9036,-2.10818 -0.4316,0 -1.9066,-1.61711 -3.2776,-3.59353 -1.3708,-1.97641 -2.9868,-4.14706 -3.5908,-4.82365 -1.1475,-1.28458 -2.9294,-7.30974 -2.8958,-9.78995 0.033,-2.26598 4.846,-8.61725 8.053,-10.62199 7.0941,-4.43468 9.5715,-5.39688 24.916,-9.67756 1.9359,-0.54005 4.3982,-1.35285 5.4718,-1.8062 3.4689,-1.46444 25.106,-3.00953 32.8056,-2.34262 7.8945,0.68381 29.6854,3.82289 35.6382,5.13384 1.9358,0.42633 4.9055,1.44995 6.5993,2.27467 1.6942,0.82476 4.9006,2.01524 7.1258,2.64551 2.225,0.6303 5.195,2.20332 6.5994,3.49562 1.4049,1.29233 3.6135,3.34364 4.9083,4.55855 2.5466,2.38929 3.9121,7.67108 3.0029,11.61581 -0.9663,4.19253 -11.9171,12.88604 -18.0924,14.36313 -2.6343,0.63015 -10.7675,4.2065 -14.3113,6.29309 -0.8403,0.4948 -2.2768,0.89969 -3.1923,0.89969 -0.9153,0 -3.0511,0.63093 -4.7456,1.40203 -5.2465,2.38718 -24.6121,3.81275 -31.4516,2.31532 z m 25.0785,-9.46692 c 1.9359,-0.4888 7.077,-1.36506 11.4246,-1.94719 4.3475,-0.58217 8.1094,-1.37698 8.3594,-1.76621 0.2494,-0.38921 1.8409,-1.30693 3.5347,-2.03937 8.4578,-3.65726 14.079,-9.50295 14.079,-14.64161 0,-2.18165 -5.2048,-7.22368 -8.726,-8.45332 -1.7342,-0.60553 -3.7919,-1.70666 -4.5725,-2.44696 -1.8231,-1.72872 -3.9739,-2.19778 -12.9522,-2.82472 -4.0328,-0.28177 -10.1706,-0.88339 -13.6393,-1.33734 -5.5786,-0.73002 -19.5684,-0.56145 -45.025,0.54254 -9.0888,0.39416 -16.931,1.67023 -21.9988,3.57964 -2.9622,1.11624 -3.9157,2.19221 -6.0223,6.79639 l -2.5027,5.47015 2.0626,3.29871 c 1.1346,1.81426 2.3597,3.3016 2.723,3.30522 0.3627,0.003 0.661,0.54555 0.6627,1.20435 0,1.08474 3.7465,3.43884 12.3164,7.74483 6.8571,3.4455 8.5642,3.72927 21.9985,3.65727 7.5016,-0.0402 15.2231,0.31038 17.1591,0.77948 3.9354,0.95329 15.7317,0.43834 21.1188,-0.92186 z m -54.4546,-48.44842 c -1.0732,-3.04485 -0.4961,-5.20001 2.1947,-8.19744 3.9218,-4.36913 5.1553,-8.04715 4.1117,-12.2609 -0.4689,-1.8934 -1.2115,-3.85222 -1.6506,-4.35294 -0.4389,-0.50067 -0.7982,-1.65059 -0.7982,-2.55535 0,-0.90478 -0.2961,-1.78878 -0.6601,-1.96447 -0.3629,-0.17565 -1.4517,-2.00833 -2.4199,-4.07254 -0.9678,-2.06417 -2.5173,-5.29833 -3.4432,-7.18699 -1.6745,-3.41602 -2.3424,-10.79525 -2.4787,-27.39065 -0.064,-7.59024 2.8089,-17.34292 7.053,-23.95669 2.1186,-3.30175 2.973,-3.87392 6.1639,-4.12773 3.5973,-0.28613 3.7044,-0.2108 3.7044,2.60956 0,1.59738 -0.754,4.74851 -1.6756,7.00255 -4.6843,11.45691 -4.6721,11.38496 -4.3491,25.30652 l 0.3093,13.28943 3.2982,5.25769 c 1.8138,2.89173 3.2983,5.81967 3.2983,6.5065 0,0.68684 0.7846,2.92457 1.7443,4.97278 0.9594,2.04817 2.0074,6.15724 2.3283,9.1313 0.5412,5.01633 0.3406,5.90759 -2.7747,12.3268 -3.7574,7.742 -5.569,9.61357 -10.2156,10.55382 -2.4966,0.5052 -3.3164,0.31003 -3.7397,-0.89125 z m 60.1741,-6.00224 c 0,-5.34686 2.093,-12.80658 4.7517,-16.93638 3.9308,-6.10578 5.1556,-9.57782 5.115,-14.49953 -0.05,-6.26191 -1.5654,-9.39383 -8.5419,-17.67258 -4.6069,-5.46671 -5.7273,-7.44661 -6.2139,-10.98011 -0.9927,-7.2093 0.7815,-12.45021 6.027,-17.80221 6.0775,-6.20126 9.167,-6.26271 5.0453,-0.10027 -1.5806,2.36287 -1.9203,7.42038 -1.0005,14.88549 0.053,0.43444 2.3379,3.34837 5.0772,6.47543 2.7387,3.12706 4.7366,5.95044 4.4393,6.2742 -0.2961,0.32378 1.0579,2.26101 3.0113,4.30509 1.9538,2.04406 3.1659,3.7165 2.6936,3.7165 -0.5537,0 -0.5623,1.43352 -0.033,4.04132 0.4586,2.22274 0.607,5.02568 0.3293,6.22874 -0.3592,1.55869 -0.1196,2.18742 0.8328,2.18742 1.7417,0 1.7122,2.32885 -0.054,4.25233 -0.765,0.83294 -1.2315,2.03436 -1.0369,2.66989 0.1961,0.63547 -0.7637,2.17923 -2.1292,3.43056 -1.3656,1.25131 -2.483,3.03235 -2.483,3.95794 0,0.92555 -0.8102,2.48156 -1.8009,3.45774 -1.7807,1.75497 -3.7057,5.67475 -4.765,9.70279 -1.0346,3.93392 -3.9819,7.02643 -6.697,7.02643 -2.4921,0 -2.5763,-0.15102 -2.5763,-4.62062 z m -30.2114,-1.76783 c -0.3226,-0.35132 -0.5866,-2.0729 -0.5866,-3.82568 0,-2.37619 0.7047,-3.85903 2.7711,-5.82946 4.4771,-4.26943 6.0282,-6.26798 6.0282,-7.76632 0,-1.72592 -6.7327,-17.92169 -8.8245,-21.22868 -0.8339,-1.31762 -1.8091,-3.90496 -2.1669,-5.74961 -0.3582,-1.8447 -1.044,-3.88523 -1.5238,-4.53458 -0.4802,-0.64934 -0.9296,-6.47081 -0.9984,-12.93664 -0.1032,-9.68463 0.1595,-12.38117 1.4949,-15.30418 2.5526,-5.58898 5.412,-8.43018 8.4848,-8.43018 3.655,0 4.0022,1.67404 1.5062,7.26625 -1.9616,4.39494 -2.0591,5.35714 -1.448,14.29482 0.3606,5.27048 1.1411,10.87634 1.735,12.45747 0.5939,1.58113 1.3873,3.73727 1.7627,4.79136 2.0141,5.65382 4.6551,11.45899 5.762,12.66435 0.6905,0.75211 1.2557,2.18312 1.2557,3.18006 0,0.99693 0.7919,4.00063 1.76,6.67491 2.32,6.41041 2.2254,8.25908 -0.6601,12.85526 -5.2867,8.4216 -13.7065,14.30217 -16.3523,11.42085 z"
       id="path857-5" /></g></svg>
