<?xml version="1.0" encoding="UTF-8" standalone="no"?>
<!-- Created with Inkscape (http://www.inkscape.org/) -->

<svg
   width="154.70567mm"
   height="154.70567mm"
   viewBox="0 0 154.70567 154.70567"
   version="1.1"
   id="svg5"
   xml:space="preserve"
   xmlns="http://www.w3.org/2000/svg"
   xmlns:svg="http://www.w3.org/2000/svg"><defs
     id="defs2" /><g
     id="layer1"
     transform="translate(-339.89646,915.56003)"><path
       style="fill:#ffffff;fill-opacity:1;stroke:none;stroke-width:0.969829;stroke-opacity:1"
       d="m 436.99602,-761.42877 c -0.35448,-0.46163 -0.72908,-0.56796 -2.05478,-0.58322 -1.31526,-0.0151 -1.63869,-0.10555 -1.71352,-0.47902 -0.0637,-0.3175 0.0348,-0.41352 0.31719,-0.30946 0.56306,0.20751 1.87018,-0.66103 1.76726,-1.17426 -0.0484,-0.24106 -0.36227,-0.42018 -0.74156,-0.42311 -0.50035,-0.004 -0.74097,-0.22583 -1.00563,-0.92762 -0.46525,-1.23377 -0.47275,-2.29892 -0.018,-2.55684 0.67311,-0.38178 0.95958,-1.2613 1.40117,-4.30188 0.27194,-1.87245 0.6405,-3.33627 0.97852,-3.88646 0.29825,-0.48544 0.54226,-1.03223 0.54226,-1.21509 0,-0.18286 0.19308,-0.95687 0.42907,-1.72002 0.29011,-0.93816 0.54659,-1.34425 0.79191,-1.25385 0.26728,0.0985 0.39257,-0.26017 0.47579,-1.36201 0.0622,-0.82264 0.3542,-1.92756 0.64903,-2.45537 0.81694,-1.46241 2.84909,-3.88659 4.3778,-5.2223 1.54779,-1.3524 2.9207,-2.66589 4.98205,-4.7664 1.96836,-2.00579 3.67046,-3.33617 4.89908,-3.82917 0.57525,-0.23082 1.67524,-0.89577 2.4444,-1.47768 2.43832,-1.84465 5.94391,-3.64535 7.09673,-3.64535 1.12325,0 2.04821,-0.39601 2.61655,-1.12023 0.1991,-0.2537 0.54639,-0.46127 0.77176,-0.46127 0.68679,0 1.98101,-0.75661 2.14548,-1.25428 0.0853,-0.25811 0.55722,-0.67836 1.04869,-0.93389 0.49149,-0.25553 1.31247,-1.103 1.8244,-1.88331 0.51195,-0.78028 1.43482,-1.75503 2.05084,-2.16609 0.61603,-0.41107 1.69699,-1.3108 2.40211,-1.99942 0.70514,-0.6886 1.41956,-1.25202 1.5876,-1.25202 0.40662,0 3.25619,-2.79539 4.24053,-4.15992 1.24539,-1.72642 1.52555,-2.82372 1.53868,-6.02663 l 0.0121,-2.93801 -0.95475,-0.80505 c -1.19907,-1.01106 -2.2605,-1.22644 -6.0441,-1.22644 -2.39547,0 -3.43939,0.12677 -5.05375,0.61371 -4.3956,1.32585 -7.21956,3.07019 -7.56375,4.6721 -0.0917,0.42713 -0.34725,1.11241 -0.56769,1.52284 -0.22045,0.4104 -0.40082,0.87618 -0.40082,1.03504 0,0.56643 -2.07507,3.17437 -3.0142,3.78823 -0.72511,0.47398 -1.32115,0.62316 -2.47019,0.61827 -2.76735,-0.0118 -3.83143,-0.40199 -5.56062,-2.03916 -1.68206,-1.59254 -1.93075,-2.09289 -2.42016,-4.86927 -0.35536,-2.01588 -0.82043,-2.53131 -4.1511,-4.60047 -1.01821,-0.63258 -1.9483,-1.29537 -2.06686,-1.47287 -0.23021,-0.34467 -1.30159,-0.98228 -2.75604,-1.64021 -0.49153,-0.22233 -1.6075,-0.4759 -2.47994,-0.56348 -1.28127,-0.1286 -1.85769,-0.047 -2.99788,0.42396 -1.78507,0.73748 -2.07293,1.07718 -2.64406,3.12026 -0.41151,1.47205 -0.41904,1.74478 -0.0656,2.37224 0.21967,0.38994 0.46447,1.00775 0.54398,1.3729 0.24179,1.11015 7.04459,7.29525 9.55609,8.68836 1.18097,0.65508 3.25659,1.94675 4.6125,2.87037 2.18311,1.48708 2.46529,1.77134 2.46529,2.48333 0,1.11294 -1.9281,2.87164 -3.65829,3.33685 -2.55083,0.68587 -7.73221,-0.18013 -11.43727,-1.9116 -3.3052,-1.54461 -8.20619,-5.20057 -9.02071,-6.72912 -0.20629,-0.38711 -0.85926,-1.26408 -1.45107,-1.94879 -1.38292,-1.60008 -2.13998,-3.21726 -2.14758,-4.58753 -0.003,-0.62029 -0.17635,-1.22369 -0.40226,-1.40375 -0.21792,-0.17369 -0.66325,-1.0864 -0.98961,-2.02825 -0.62818,-1.81284 -0.63387,-3.81699 -0.0195,-6.89414 0.33745,-1.69026 2.51291,-5.62335 3.42932,-6.20001 0.36323,-0.22856 1.40122,-1.07421 2.30663,-1.87924 2.26379,-2.01277 4.33274,-2.89483 6.64803,-2.83424 5.88597,0.15402 6.87855,0.30975 9.88072,1.55021 5.4909,2.26875 7.39669,3.22111 9.89927,4.94685 1.38293,0.95365 2.78399,1.79888 3.11344,1.87829 0.40532,0.0977 1.57114,-0.3506 3.60528,-1.38635 l 3.00625,-1.53075 7.54779,0.0255 c 10.76431,0.0363 13.11858,0.42555 17.78299,2.93993 3.30782,1.78308 4.05272,2.49652 5.02241,4.81029 0.45569,1.08728 1.20628,2.35222 1.668,2.81095 0.59207,0.58825 0.8788,1.1709 0.97287,1.97687 0.18114,1.55204 -0.63683,5.92145 -1.30201,6.95507 -0.29716,0.46175 -0.54107,1.00346 -0.54202,1.2038 -0.002,0.41013 -3.97179,5.5883 -4.38696,5.72224 -0.14712,0.0474 -0.40482,0.57606 -0.57266,1.17465 -0.24201,0.86313 -1.07828,1.85427 -4.04155,4.78998 -3.56915,3.53596 -5.66537,5.14453 -6.7102,5.14922 -0.26419,9.5e-4 -0.48032,0.114 -0.48032,0.25071 0,0.54182 -3.18545,3.50997 -4.65406,4.33657 -0.8574,0.4826 -2.09392,1.24962 -2.74781,1.70452 -0.6539,0.45489 -1.35564,0.8271 -1.55942,0.8271 -0.20378,0 -0.37052,0.11062 -0.37052,0.24582 0,0.13519 -0.27789,0.32687 -0.61755,0.42593 -0.33964,0.0991 -1.23508,0.62727 -1.98987,1.17382 -0.75477,0.54654 -1.92812,1.25687 -2.6074,1.57851 -1.60395,0.75944 -3.4823,2.51267 -3.85552,3.5987 -0.19679,0.57263 -1.18543,1.60242 -2.97683,3.10068 -6.36795,5.32599 -7.97755,7.83748 -7.9855,12.45998 -0.002,1.32789 0.11865,2.00924 0.40555,2.28475 0.36208,0.34774 0.3072,0.51393 -0.48032,1.45447 -0.48901,0.58403 -1.11079,1.36444 -1.38173,1.73423 -0.27091,0.36981 -0.84946,0.8496 -1.28561,1.06619 -0.43617,0.21661 -1.92873,1.16581 -3.31682,2.10934 -1.38809,0.94352 -2.78569,1.71107 -3.10581,1.70567 -0.32011,-0.005 -0.7771,-0.26389 -1.01553,-0.5744 z m -20.24958,-12.68161 c -0.38084,-0.44069 -1.03559,-2.11105 -4.6155,-11.77459 -14.27582,-38.53585 -23.89368,-55.48311 -39.38837,-69.40476 -4.38656,-3.94125 -8.48041,-7.02879 -15.53089,-11.71322 -9.48073,-6.29912 -12.99745,-9.07721 -14.79763,-11.68962 -0.61231,-0.88857 -0.67013,-1.10915 -0.34292,-1.308 1.08876,-0.66164 3.89619,-2e-4 5.06929,1.19433 0.4618,0.47023 1.11165,0.99478 1.44415,1.16567 0.3325,0.17089 0.60453,0.48445 0.60453,0.69681 0,0.52392 1.17631,0.49733 2.27796,-0.0516 0.51088,-0.2545 1.57304,-0.4475 2.53866,-0.46127 1.59285,-0.0227 1.9245,0.10364 8.16838,3.11294 5.19969,2.50603 6.61393,3.30092 7.03445,3.95375 0.50667,0.78659 3.31098,3.72619 11.31602,11.86195 2.06347,2.09715 4.09465,4.3842 4.51376,5.08234 0.41909,0.69814 1.24482,1.8031 1.83493,2.45545 0.97701,1.0801 5.35224,7.13889 6.15158,8.51871 0.18319,0.31621 0.45718,0.75285 0.60887,0.9703 0.5964,0.85497 2.38741,3.3954 3.77377,5.35291 0.8017,1.13197 2.00894,3.1141 2.68277,4.40474 1.25308,2.40012 2.77569,4.83343 4.58866,7.33314 0.56147,0.77418 1.35875,2.25682 1.77172,3.2948 0.41297,1.03797 1.54031,3.36987 2.50519,5.182 0.9649,1.81214 1.94386,3.88786 2.17546,4.61271 0.23161,0.72486 1.40904,3.33434 2.61651,5.79885 1.20749,2.4645 2.43256,5.07397 2.7224,5.79882 0.52111,1.30325 2.69372,5.74358 3.93357,8.0393 0.83306,1.54252 1.51958,3.80448 1.51447,4.99003 -0.005,1.08586 -0.57945,2.28883 -1.04763,2.19261 -0.4209,-0.0865 -0.4092,0.27085 0.0224,0.68514 0.2392,0.22958 0.37225,1.68284 0.43942,4.79954 l 0.0963,4.47025 -1.03457,0.41514 c -0.78521,0.31507 -1.1888,0.34764 -1.67451,0.13511 -0.40161,-0.17574 -0.63994,-0.18395 -0.63994,-0.0221 0,0.38123 -0.9829,0.31318 -1.33333,-0.0923 z m 6.9142,-4.55598 c -0.53954,-0.79079 -0.70991,-3.54376 -0.22881,-3.69733 0.15096,-0.0481 0.55236,0.32427 0.89202,0.82769 0.70715,1.04813 0.82689,2.79997 0.22421,3.28032 -0.31776,0.25324 -0.48829,0.17434 -0.88742,-0.41068 z m -1.41038,-2.07873 c 0.005,-0.43492 0.0671,-0.58092 0.13669,-0.32446 0.0696,0.25646 0.065,0.6123 -0.01,0.79076 -0.0752,0.17844 -0.13212,-0.0314 -0.12652,-0.4663 z m 40.01834,-68.29615 c -0.37738,-0.0595 -3.09459,-0.22163 -6.03822,-0.36034 -5.30044,-0.24978 -10.89894,-0.98329 -12.06016,-1.58011 -0.33094,-0.1701 -1.18018,-0.40869 -1.88718,-0.53021 -3.9039,-0.67099 -6.0613,-1.17109 -6.96967,-1.61564 -0.56007,-0.2741 -1.17761,-0.49909 -1.37232,-0.49999 -0.19471,-8.9e-4 -0.72454,-0.19119 -1.1774,-0.42288 -2.16994,-1.11016 -9.07381,-3.78567 -10.48673,-4.06398 -0.87435,-0.17223 -1.71324,-0.39931 -1.86419,-0.50461 -0.15095,-0.10533 -1.00646,-0.34287 -1.90111,-0.52792 -1.83949,-0.38049 -3.84862,-1.14744 -4.12309,-1.57392 -0.10097,-0.15697 -0.33906,-0.2854 -0.52899,-0.2854 -0.70817,0 -5.2736,-2.81135 -6.47397,-3.98661 -2.2841,-2.23635 -4.41726,-4.57103 -4.93382,-5.39997 -0.28109,-0.45107 -0.89383,-1.08186 -1.36163,-1.40176 -0.55191,-0.37741 -0.85056,-0.80672 -0.85056,-1.22265 0,-0.68855 -0.25945,-0.81359 -0.73685,-0.35511 -0.16373,0.15724 -0.58984,0.24621 -0.94691,0.1977 -0.56852,-0.0773 -0.66943,-0.26836 -0.81199,-1.53794 -0.17642,-1.57098 -0.86435,-3.10291 -1.49834,-3.33655 -0.21855,-0.0805 -0.39735,-0.37097 -0.39735,-0.64539 0,-0.35461 -0.19572,-0.49897 -0.67651,-0.49897 -0.37475,0 -0.79645,-0.21524 -0.94542,-0.48257 -0.21944,-0.39376 -0.006,-0.75286 1.15682,-1.95121 1.57097,-1.61823 2.76465,-2.31072 3.98308,-2.31072 0.67411,0 1.66254,0.82576 6.25771,5.22794 3.0014,2.87535 6.50694,6.0284 7.79007,7.00677 11.59954,8.84445 24.71576,13.49547 45.01223,15.96136 4.37174,0.53114 16.49929,1.7099 21.13379,2.05414 l 2.60742,0.19368 0.0839,0.96784 c 0.0659,0.76028 -0.0812,1.14095 -0.68616,1.77507 -1.34353,1.40836 -3.03641,1.66948 -11.33697,1.74868 -4.00032,0.0383 -7.58208,0.0207 -7.95948,-0.0388 z m -56.40251,-19.87249 c -0.0933,-0.14498 -0.35489,-0.26359 -0.58133,-0.26359 -0.22644,0 -0.33536,0.11861 -0.24207,0.26359 0.0933,0.14496 0.3549,0.26357 0.58133,0.26357 0.22643,0 0.33536,-0.11861 0.24207,-0.26357 z m -48.03134,-11.59764 c -2.97909,-0.29608 -5.82991,-1.03096 -6.68739,-1.72388 -0.42486,-0.34331 -1.44385,-0.86545 -2.26443,-1.1603 -1.6437,-0.5906 -3.5094,-2.24251 -4.78039,-4.2326 -0.41664,-0.65238 -1.11707,-1.58352 -1.55652,-2.0692 -0.62532,-0.6911 -0.76224,-1.04377 -0.62991,-1.6224 0.13174,-0.57602 0.0174,-0.87586 -0.51771,-1.35739 -0.81558,-0.73395 -1.36846,-1.97623 -0.98168,-2.20579 0.42129,-0.25005 0.30545,-1.7965 -0.18494,-2.46885 -0.61363,-0.84136 -0.36479,-3.52094 0.58078,-6.25406 1.1443,-3.30752 2.88312,-5.37257 4.52382,-5.37257 0.34724,0 1.03495,-0.46825 1.66651,-1.1347 0.80997,-0.85471 1.41993,-1.2195 2.47207,-1.47847 0.85575,-0.21063 1.85419,-0.72399 2.5777,-1.32535 1.17845,-0.97951 1.91174,-1.23544 5.37039,-1.87438 7.13937,-1.31891 11.70765,-0.96225 15.85761,1.23806 2.73478,1.45 3.95673,2.29561 5.75132,3.98004 0.8891,0.83453 2.53872,2.35466 3.66581,3.37808 1.12709,1.02341 2.53997,2.43697 3.13974,3.14124 1.07704,1.26471 1.0901,1.30635 1.05955,3.37775 -0.0303,2.05238 -0.0737,2.17981 -2.03155,5.95239 -1.64763,3.17494 -2.28375,4.12132 -3.60527,5.36375 -0.88258,0.82973 -2.00109,1.70548 -2.4856,1.9461 -0.48451,0.24061 -1.8401,1.18726 -3.01243,2.10365 -1.33362,1.04247 -2.57082,1.77642 -3.30511,1.96069 -0.64548,0.16197 -1.91733,0.51099 -2.82636,0.77558 -3.11736,0.90741 -8.48889,1.39127 -11.79601,1.06261 z m 8.78288,-7.65033 c 2.55123,-0.3446 5.49936,-1.74708 7.36464,-3.50347 1.63474,-1.53931 2.28092,-3.17356 2.57165,-6.50404 0.23721,-2.71713 -0.23806,-4.03329 -2.09744,-5.8085 -3.75876,-3.58859 -10.41169,-5.19319 -15.18945,-3.66351 -2.14492,0.68673 -5.47232,2.38762 -6.96436,3.55999 -1.84511,1.44982 -2.42864,2.90604 -2.42091,6.04152 0.005,2.20027 0.11001,2.83977 0.63299,3.86992 0.75263,1.48254 3.88051,4.39028 5.56512,5.17347 2.18264,1.0147 6.60907,1.3653 10.53776,0.83462 z"
       id="path1-7" /></g></svg>
