<?xml version="1.0" encoding="UTF-8" standalone="no"?>
<!-- Created with Inkscape (http://www.inkscape.org/) -->

<svg
   width="153.7056mm"
   height="145.28377mm"
   viewBox="0 0 153.7056 145.28377"
   version="1.1"
   id="svg5"
   xml:space="preserve"
   xmlns="http://www.w3.org/2000/svg"
   xmlns:svg="http://www.w3.org/2000/svg"><defs
     id="defs2" /><g
     id="layer1"
     transform="translate(2598.5989,917.19138)"><path
       style="fill:#ffffff;fill-opacity:1;stroke:none;stroke-width:0.909566;stroke-opacity:1"
       d="m -2532.5691,-772.57632 c -2.3553,-0.46451 -5.2624,-1.35518 -6.4602,-1.97931 -1.1978,-0.62413 -3.5593,-1.13476 -5.2475,-1.13476 -3.8016,0 -16.4173,-7.87006 -22.0256,-13.74031 -7.802,-8.16631 -22.1734,-29.37206 -22.2054,-32.76509 0,-0.48375 -1.2779,-2.55663 -2.8299,-4.60642 -3.5434,-4.67999 -7.2607,-15.2091 -7.2613,-20.56801 0,-6.86984 2.3727,-10.36413 4.5724,-6.73121 0.5115,0.84448 3.3338,1.75611 6.7507,2.18045 3.2295,0.40126 6.985,1.36811 8.3454,2.14892 1.3605,0.78085 4.6731,2.42279 7.3618,3.64874 4.1801,1.90632 4.9512,2.00245 5.3262,0.66389 0.2408,-0.86085 0.4886,-7.5173 0.5506,-14.79208 0.062,-7.27482 0.3746,-13.58604 0.695,-14.02497 0.3204,-0.43891 0.5826,-3.61761 0.5826,-7.06385 0,-6.1064 0.068,-6.30393 2.6141,-7.76274 3.6541,-2.09254 7.1236,-0.55596 13.3656,5.91917 2.7941,2.89841 5.3239,5.2692 5.6216,5.26839 0.2981,-8.1e-4 1.5158,-4.43317 2.7069,-9.84969 2.471,-11.24086 6.958,-24.45374 9.3345,-27.48793 2.0094,-2.56598 4.6863,-2.58348 8.7007,-0.0568 3.579,2.25232 4.8711,4.1188 7.4599,10.77528 1.0248,2.63544 2.244,5.3476 2.7095,6.02702 0.9009,1.31582 3.8056,9.50596 6.171,17.39923 2.2646,7.55628 2.6305,7.92389 4.9517,4.97426 4.793,-6.09068 15.3326,-12.42805 20.669,-12.42805 3.6979,0 8.3065,4.54004 9.5427,9.40058 0.8302,3.26347 0.2942,5.83484 -4.4617,21.40586 -2.2326,7.31008 -3.8893,18.17569 -2.7714,18.17569 0.2643,0 2.6472,-2.03099 5.2974,-4.51334 l 4.8182,-4.51337 10.4289,0.2612 c 5.7361,0.14367 10.524,0.39119 10.64,0.54974 0.1145,0.15857 0.6322,2.45019 1.1479,5.09215 1.2192,6.2476 0.4087,12.70712 -1.5943,12.70712 -0.9029,0 -3.1502,3.11368 -5.9563,8.25243 -9.3101,17.04878 -22.2685,31.55366 -33.6864,37.70568 -3.2131,1.73132 -6.2485,3.87307 -6.7454,4.75938 -2.7165,4.84652 -27.2317,9.04716 -39.1189,6.70289 z m 8.4392,-9.38164 c 1.4988,-1.30181 0.071,-4.61836 -5.9907,-13.89801 -8.9595,-13.71987 -19.3268,-24.24669 -32.6971,-33.20024 -6.7733,-4.53579 -16.6407,-10.35006 -18.6892,-11.01221 -0.6411,-0.20727 -2.0796,-0.69694 -3.1967,-1.08828 -3.1629,-1.10796 -3.3555,1.84139 -0.5385,8.25533 1.3446,3.06172 3.5455,7.48344 4.8913,9.82606 1.3454,2.34265 3.6139,6.6552 5.0407,9.58347 1.4266,2.92831 4.5495,7.8496 6.9392,10.93627 4.4814,5.78786 13.6825,14.07534 15.6576,14.10272 1.3464,0.0202 7.3292,2.81338 9.5941,4.4817 0.8935,0.65821 2.6736,1.54369 3.9557,1.96768 3.317,1.09713 13.7865,1.12882 15.0336,0.0454 z m 22.1196,-2.10519 c 1.7862,-1.67671 4.1219,-3.37853 5.1902,-3.78184 3.7872,-1.42956 9.7503,-5.37781 12.5429,-8.30446 1.5572,-1.63196 3.058,-2.96717 3.3352,-2.96717 0.2761,0 2.3566,-1.9167 4.6206,-4.25935 2.2637,-2.34262 4.3495,-4.2593 4.6349,-4.2593 0.2849,0 1.5581,-1.269 2.8281,-2.81993 1.2701,-1.55098 3.1027,-3.35302 4.0724,-4.00456 1.4996,-1.00769 8.2867,-17.34557 8.3484,-20.09586 0.076,-3.48044 -5.5864,-1.08773 -19.3326,8.16666 -7.5735,5.09886 -8.8121,6.4204 -19.5731,20.88334 -10.8333,14.56035 -13.724,19.77256 -12.7987,23.07748 0.6185,2.20859 2.6,1.68025 6.1317,-1.63501 z m -14.1944,-11.86458 c 0.3166,-1.6965 0.065,-3.3455 -0.6974,-4.56312 -1.0738,-1.71578 -1.0706,-2.19527 0.032,-4.79171 1.3617,-3.20347 4.4876,-14.14107 6.1496,-21.51965 1.5255,-6.77135 1.3478,-24.50485 -0.3254,-32.47729 -0.7373,-3.51396 -1.5052,-7.33973 -1.7063,-8.50175 -0.6029,-3.48292 -6.4556,-19.64558 -8.9428,-24.69653 -1.2756,-2.59049 -2.3195,-4.97134 -2.3195,-5.29081 0,-0.31954 -0.7227,-1.97211 -1.6063,-3.67255 -1.2339,-2.37505 -1.9113,-2.86791 -2.9224,-2.12631 -2.3412,1.71736 -6.3466,22.81604 -6.3477,33.43957 -3e-4,2.81824 -0.5524,7.43528 -1.2263,10.26007 -1.1913,4.99157 -1.1693,5.3298 0.7858,12.0273 1.1065,3.79019 2.5627,9.43492 3.2363,12.5438 1.3419,6.19288 5.3717,18.15065 6.4323,19.08623 1.3567,1.19676 4.7336,11.66308 3.9716,12.30866 -1.3619,1.15361 -0.8201,6.17116 0.9447,8.74552 2.101,3.06517 3.8811,2.76272 4.5407,-0.77143 z m 17.4421,-26.06662 c 2.1366,-2.41667 4.8464,-5.21692 6.0213,-6.22269 1.1752,-1.00581 2.1366,-2.34273 2.1366,-2.97089 0,-0.62814 0.7044,-2.49795 1.5654,-4.15511 1.4682,-2.82591 4.7395,-16.06106 6.9835,-28.25492 0.871,-4.73227 0.8269,-5.85633 -0.3638,-9.29536 -1.1546,-3.3353 -1.5716,-3.75277 -2.8272,-2.83167 -0.8102,0.59419 -1.473,0.7913 -1.473,0.43799 0,-0.35335 -0.9617,0.2785 -2.1366,1.4045 -1.1751,1.12579 -3.0128,2.33614 -4.0834,2.68959 -1.071,0.35337 -3.3127,2.55939 -4.9818,4.90199 l -3.0345,4.25927 0.1732,12.61254 c 0.1439,10.45145 -0.1057,13.69773 -1.4441,18.94574 -2.8002,10.97318 -3.0998,12.47853 -2.6716,13.42803 0.5209,1.1553 1.2856,0.5387 6.1372,-4.94901 z m -42.4089,-11.85767 c -1.3264,-6.27363 -2.1518,-12.63628 -2.1101,-16.2682 0.038,-3.28064 0.029,-7.22569 -0.044,-8.76672 -0.1174,-2.96844 -4.3131,-9.44361 -6.1178,-9.44361 -0.5771,0 -2.0588,-1.02289 -3.2927,-2.27312 -2.7374,-2.77383 -4.6458,-1.99001 -4.8053,1.97349 -0.3109,7.74698 0.2673,26.79232 0.913,30.14085 0.6134,3.17302 1.4785,4.28521 5.5987,7.19806 2.6801,1.89484 6.2717,4.59144 7.9807,5.99247 1.7094,1.40099 3.3212,2.36793 3.5817,2.1487 0.2613,-0.21932 -0.5069,-5.03508 -1.705,-10.70192 z"
       id="path1693-0" /><path
       style="fill:#ffffff;fill-opacity:1;stroke:none;stroke-width:0.893404;stroke-opacity:1"
       d="m -2444.869,-761.59014 c -0.6183,-0.92703 10.6344,-7.99172 14.3764,-9.02612 1.276,-0.35268 4.6168,-1.71447 7.4241,-3.02616 9.5471,-4.46107 13.542,-5.867 22.7832,-8.01822 19.0437,-4.43297 27.5445,-5.62335 44.0323,-6.1661 8.9319,-0.29387 20.2071,-0.75516 25.0557,-1.02475 11.4081,-0.63423 19.783,-0.3622 20.468,0.66486 0.2981,0.44831 1.0922,-0.13524 1.7628,-1.29655 1.1034,-1.91088 0.9543,-2.42347 -1.5682,-5.39206 -1.533,-1.80425 -3.608,-4.82863 -4.6111,-6.72088 -1.9042,-3.59138 -6.7717,-11.23273 -9.7032,-15.23205 -0.9396,-1.28175 -1.7081,-2.67917 -1.7081,-3.10535 0,-0.42621 -1.1185,-2.28037 -2.4856,-4.12035 -1.3669,-1.83998 -3.4618,-5.08713 -4.6554,-7.21588 -1.1935,-2.12878 -3.2159,-5.41868 -4.494,-7.3109 -1.2784,-1.89222 -2.5954,-4.02101 -2.9269,-4.73059 -0.3297,-0.70958 -2.9325,-4.58007 -5.7805,-8.60104 -2.8476,-4.02101 -5.6339,-8.08502 -6.1919,-9.03113 -0.5581,-0.94611 -1.8463,-3.07486 -2.8631,-4.73059 -1.0164,-1.65569 -2.1535,-4.14788 -2.5271,-5.53821 -0.3732,-1.39033 -1.5397,-3.64856 -2.5923,-5.01831 -1.0522,-1.36976 -3.3478,-5.65089 -5.1014,-9.51361 -1.7534,-3.86276 -3.5776,-7.38941 -4.0535,-7.83704 -1.0396,-0.97801 -3.2815,1.56522 -4.1293,4.68432 -0.3226,1.18267 -1.5614,4.27905 -2.7554,6.88086 -1.1942,2.6018 -2.9398,6.56761 -3.8795,8.81287 -0.9392,2.24525 -2.0209,4.08371 -2.4039,4.08549 -0.3827,0.002 -0.6959,0.58378 -0.6959,1.2934 0,0.70958 -0.3683,1.29014 -0.8183,1.29014 -0.6615,0 -16.1606,27.55593 -16.4254,29.20291 -0.4377,2.72306 -1.8704,5.3379 -3.7595,6.86012 -1.2613,1.01652 -3.0704,3.47818 -4.0198,5.47037 -0.9495,1.99218 -3.2387,5.75091 -5.0875,8.35271 -1.8484,2.60184 -3.5673,5.69822 -3.8195,6.88086 -0.2525,1.18264 -0.8369,3.23652 -1.2995,4.56418 -1.1125,3.19419 0.6338,3.81337 5.8005,2.05668 5.1955,-1.76632 7.9197,-2.18762 17.8291,-2.75703 4.5936,-0.26397 11.9015,-1.1162 16.2398,-1.89388 4.816,-0.86325 12.6427,-1.41878 20.0966,-1.42642 11.5915,-0.013 12.1906,-0.0972 11.8605,-1.68596 -0.1894,-0.92043 -0.9263,-2.29782 -1.6333,-3.06088 -0.7071,-0.76306 -2.4271,-3.51612 -3.8224,-6.11796 -1.3949,-2.6018 -3.1261,-5.82633 -3.8469,-7.16556 -0.7207,-1.33926 -1.3107,-2.82916 -1.3107,-3.3109 0,-1.03261 -6.9176,-17.08493 -8.8726,-20.58889 -1.8151,-3.2532 -3.6498,-2.4225 -5.616,2.54267 -0.8733,2.20534 -2.169,5.36433 -2.8792,7.02005 -0.7103,1.6557 -1.3241,3.20389 -1.3644,3.44041 -0.042,0.23666 -1.6884,2.63435 -3.6624,5.32848 -1.9739,2.69412 -3.5891,5.14018 -3.5891,5.43571 0,0.78244 -5.6044,8.23748 -8.0235,10.67265 -1.674,1.68547 -2.3292,1.88539 -3.4225,1.04448 -3.0759,-2.36606 -2.6319,-7.79007 1.1361,-13.88027 2.3976,-3.87543 4.7419,-8.53174 4.7419,-9.41833 0,-0.55725 1.0915,-3.21386 2.4258,-5.90363 1.3342,-2.68977 2.4979,-5.31619 2.5859,-5.83648 0.088,-0.52028 0.8758,-1.95811 1.7502,-3.19513 0.8744,-1.23706 1.5899,-2.46407 1.5899,-2.7267 0,-0.26267 1.6018,-3.66297 3.559,-7.55621 1.9574,-3.89325 4.0366,-8.14301 4.6202,-9.44391 1.2255,-2.73145 2.9017,-2.99129 5.5487,-0.86013 2.4759,1.99322 8.5429,10.22823 8.5485,11.60263 0,1.25578 4.0791,10.74615 4.9661,11.56837 0.3297,0.3046 0.5973,1.0582 0.5973,1.67491 0,0.61674 1.0442,3.23675 2.3202,5.82226 1.2759,2.58555 2.3187,5.01607 2.3173,5.40116 0,0.38513 0.9087,2.4419 2.0227,4.57068 1.1139,2.12875 2.6793,5.22513 3.4786,6.88083 0.7993,1.65572 2.137,3.97799 2.9729,5.16063 3.6862,5.21772 5.4483,8.83237 5.4483,11.17762 0,1.61393 1.0722,3.65607 2.9732,5.66282 2.8571,3.01586 2.9045,3.18522 1.2146,4.33048 -2.312,1.56704 -9.452,1.51828 -14.3957,-0.0982 -6.9565,-2.2748 -25.8521,-1.62682 -40.6894,1.39531 -2.2188,0.45189 -7.4388,1.03196 -11.5999,1.28907 -4.1615,0.25714 -10.882,1.20968 -14.9348,2.11692 -13.7202,3.07125 -17.8445,1.99104 -17.0013,-4.45255 0.2736,-2.08405 1.0304,-4.95031 1.6832,-6.36951 0.653,-1.41916 1.236,-2.77383 1.2959,-3.01036 0.06,-0.23666 1.2262,-2.04283 2.5927,-4.01405 1.3661,-1.97118 2.7575,-4.68052 3.0921,-6.02073 0.3332,-1.3402 1.7961,-4.43612 3.2485,-6.87981 1.4528,-2.44365 3.4948,-6.79178 4.5382,-9.66249 1.8239,-5.01783 4.9745,-12.00765 6.63,-14.70799 0.4353,-0.70958 1.8684,-3.41892 3.1847,-6.02073 1.3167,-2.60183 2.7887,-5.31114 3.271,-6.02076 0.4826,-0.70958 1.1452,-1.8707 1.4728,-2.58032 0.3261,-0.70958 1.5172,-2.45129 2.6445,-3.87045 1.1269,-1.41917 2.3752,-3.54795 2.7733,-4.73059 0.3984,-1.18264 2.9974,-6.5918 5.7753,-12.02033 2.7778,-5.42853 5.8717,-12.0687 6.8751,-14.75596 1.0035,-2.68727 3.0897,-7.05107 4.6361,-9.69735 2.3706,-4.0566 3.2148,-4.81143 5.382,-4.81143 1.4139,0 3.1917,0.67734 3.9507,1.50518 1.5321,1.67091 4.4755,7.32852 4.4755,8.60293 0,1.11925 4.5059,8.92977 6.1161,10.60214 0.7194,0.74684 1.3079,1.82857 1.3079,2.40386 0,1.26352 11.4236,21.80261 13.9692,25.11634 0.9936,1.2932 1.8067,2.71536 1.8067,3.16033 0,0.44496 0.8803,1.54637 1.9564,2.44755 1.6376,1.37161 5.1825,7.62331 10.9269,19.27064 0.5832,1.18267 2.2138,3.89198 3.6234,6.02076 1.4096,2.12875 3.3878,5.1656 4.3958,6.74855 1.0084,1.58294 4.0254,5.93562 6.7051,9.67266 2.6796,3.73705 4.8721,7.04054 4.8721,7.34114 0,1.51539 9.5734,15.69493 12.0264,17.81301 3.7192,3.21104 4.2734,5.6912 2.3275,10.41388 -2.2577,5.47905 -3.1124,5.94574 -8.9719,4.89895 -2.7048,-0.4832 -9.9293,-1.16564 -16.0539,-1.51653 -14.4367,-0.82707 -57.9075,-0.46272 -64.4958,0.54058 -10.1461,1.54516 -15.4226,2.55892 -19.965,3.83593 -2.5446,0.71537 -5.3842,1.30487 -6.3102,1.31001 -0.9259,0.006 -3.8489,0.9134 -6.496,2.01841 -2.6466,1.10501 -7.3181,2.94347 -10.3804,4.0855 -3.0623,1.14201 -8.4444,3.52783 -11.9605,5.30179 -6.8885,3.47574 -7.5844,3.67147 -8.4479,2.37636 z"
       id="path1779-4" /></g></svg>
