<?xml version="1.0" encoding="UTF-8" standalone="no"?>
<!-- Created with Inkscape (http://www.inkscape.org/) -->

<svg
   width="153.70547mm"
   height="95.77523mm"
   viewBox="0 0 153.70547 95.77523"
   version="1.1"
   id="svg5"
   xml:space="preserve"
   xmlns="http://www.w3.org/2000/svg"
   xmlns:svg="http://www.w3.org/2000/svg"><defs
     id="defs2" /><g
     id="layer1"
     transform="translate(2290.1878,885.36588)"><path
       style="fill:#ffffff;fill-opacity:1;stroke:none;stroke-width:0.950981;stroke-opacity:1"
       d="m -2274.2127,-792.4364 c -1.8798,-1.54598 -4.7626,-5.1388 -6.4065,-7.98402 -1.6436,-2.84521 -3.9165,-6.41723 -5.0507,-7.93775 -1.1342,-1.52052 -2.1847,-3.61564 -2.3344,-4.65581 -0.1487,-1.04017 -0.5692,-2.15272 -0.932,-2.47232 -0.3624,-0.31949 -0.851,-6.98025 -1.0852,-14.80151 -0.3727,-12.43927 -0.2015,-15.02312 1.37,-20.62885 0.9882,-3.52465 2.2815,-6.874 2.8746,-7.44308 0.5926,-0.56905 1.5583,-2.43163 2.1457,-4.13907 0.9607,-2.79378 7.4809,-11.61264 10.8186,-14.63285 5.2581,-4.75763 14.3552,-6.14209 21.6758,-3.29871 5.9357,2.30546 20.5906,14.65429 23.1146,19.47736 0.4486,0.85727 2.3116,3.31637 4.1402,5.46472 1.8282,2.1483 4.1702,6.10581 5.2039,8.79436 1.0338,2.68854 3.5353,7.449 5.5595,10.57878 2.0238,3.12974 4.7021,7.6198 5.9516,9.97793 5.5142,10.40705 15.004,18.23501 25.6491,21.15718 16.2624,4.46421 22.6187,3.45786 29.4838,-4.66805 5.9483,-7.04067 7.614,-17.2259 5.3635,-32.79802 -2.9974,-20.74472 -5.2152,-24.02282 -20.9724,-31.00104 -5.4974,-2.4347 -10.6409,-2.25209 -15.2019,0.53972 -1.3694,0.83808 -3.5294,1.74698 -4.8,2.01974 -4.524,0.97099 -5.8277,1.84903 -7.1128,4.79017 -1.8402,4.21218 -1.637,5.1558 1.1021,5.11831 2.6251,-0.0351 5.4633,-2.09376 5.4633,-3.96103 0,-1.46683 1.3446,-1.50777 3.5538,-0.10831 3.301,2.09117 1.3409,6.92362 -4.3407,10.70175 -3.2707,2.17482 -11.7516,2.4937 -13.7632,0.51754 -1.3135,-1.29035 -1.6152,-6.6795 -0.4225,-7.55187 0.4185,-0.30618 1.0106,-2.03205 1.3152,-3.83506 0.3763,-2.22678 2.5369,-5.55209 6.7365,-10.36784 5.1353,-5.88846 6.6778,-7.08962 9.1037,-7.08962 1.6062,0 5.3192,-0.72741 8.2509,-1.61641 5.0603,-1.53445 5.6956,-1.50453 12.5266,0.59016 9.4016,2.88287 19.2727,8.69766 22.031,12.97772 2.9825,4.62869 5.3559,12.21959 6.1141,19.55467 2.6856,25.98662 -3.6552,45.5421 -17.4438,53.79983 -4.7996,2.87437 -5.1181,2.92227 -15.566,2.34153 -15.9498,-0.88661 -23.1965,-3.90189 -31.4673,-13.0931 -2.821,-3.13501 -6.1782,-6.23147 -7.4607,-6.88103 -2.5141,-1.27351 -7.6417,-7.47039 -10.9355,-13.21525 -1.1246,-1.96158 -3.2872,-5.42327 -4.8059,-7.69265 -1.5184,-2.26932 -2.7609,-4.41375 -2.7609,-4.76534 0,-0.35154 -2.6548,-3.9363 -5.9,-7.96602 -3.2453,-4.02973 -6.2149,-7.98171 -6.5992,-8.78221 -0.3845,-0.80048 -1.2696,-1.45542 -1.9666,-1.45542 -0.6975,0 -1.268,-0.3492 -1.268,-0.77595 0,-1.33164 -10.7657,-10.24309 -14.0615,-11.63947 -5.8085,-2.46113 -9.2113,-0.8093 -16.3133,7.91996 -3.4857,4.28398 -6.3374,8.17872 -6.3374,8.65492 0,0.47625 -0.5389,1.50391 -1.1976,2.28369 -2.8167,3.33399 -4.1732,8.06812 -3.2862,11.46761 0.4738,1.81454 1.0889,5.85987 1.3671,8.98965 1.1616,13.07302 1.6247,15.06523 4.6869,20.16589 1.7051,2.84006 3.942,5.94755 4.9707,6.90552 1.0291,0.95798 3.0087,3.68541 4.3996,6.06091 l 2.5286,4.31916 6.1584,-0.40006 c 6.6196,-0.43003 11.403,-2.5189 11.403,-4.97941 0,-0.90173 -1.8669,-2.32004 -4.5653,-3.4683 -4.019,-1.70994 -4.4604,-2.17618 -3.6843,-3.89224 0.9065,-2.00502 5.2046,-2.61038 9.3018,-1.31009 2.8878,0.91648 4.8872,5.16983 4.2677,9.07805 -0.6442,4.06548 -4.1319,6.71779 -9.9028,7.53127 -2.2868,0.32222 -4.8204,0.9963 -5.6301,1.49765 -0.8097,0.50132 -3.7599,0.89603 -6.5558,0.87714 -4.0798,-0.0273 -5.7584,-0.58934 -8.5014,-2.84525 z m 8.5526,-42.09268 c -0.2709,-0.83481 -0.1289,-2.81356 0.3204,-4.3972 0.7031,-2.49593 1.2667,-2.87935 4.2344,-2.87935 3.0919,0 3.4507,0.27803 3.7021,2.86837 0.2378,2.4347 -0.1883,3.09951 -2.8128,4.39719 -3.8729,1.91543 -4.8244,1.91735 -5.4425,0.0118 z m 90.1563,0.22445 c -1.1157,-3.92054 -0.7642,-5.34526 1.7341,-7.0253 3.121,-2.09884 8.3041,-0.9995 8.3041,1.76133 0,4.18657 -9.0015,8.9068 -10.0382,5.26397 z"
       id="path1847-9" /></g></svg>
