<?xml version="1.0" encoding="UTF-8" standalone="no"?>
<!-- Created with Inkscape (http://www.inkscape.org/) -->

<svg
   width="153.70551mm"
   height="154.70561mm"
   viewBox="0 0 153.70551 154.70561"
   version="1.1"
   id="svg5"
   xml:space="preserve"
   xmlns="http://www.w3.org/2000/svg"
   xmlns:svg="http://www.w3.org/2000/svg"><defs
     id="defs2" /><g
     id="layer1"
     transform="translate(130.3096,915.56003)"><path
       style="fill:#ffffff;fill-opacity:1;stroke:none;stroke-width:1.2786;stroke-opacity:1"
       d="m -283.61516,-761.69068 c -2.08359,-1.49938 -1.99181,-1.87868 1.29725,-5.35976 2.97898,-3.15281 12.27839,-22.89011 12.27839,-26.05985 0,-2.32581 14.74758,-30.75497 17.88237,-34.47213 1.25966,-1.49368 0.47596,-1.94993 -4.63893,-2.70094 -13.0481,-1.91594 -16.78758,-5.0968 -18.45224,-15.69582 -2.90404,-18.49046 11.05098,-40.23797 37.93407,-59.11656 11.11961,-7.8087 16.96948,-9.60592 33.56592,-10.31218 15.92949,-0.67787 25.415,0.89169 30.76628,5.09084 3.43103,2.69236 3.82932,7.07187 0.64312,7.07187 -1.14,0 -6.25962,4.65566 -30.68585,27.90507 -9.91882,9.44098 -18.87956,21.56305 -15.93962,21.56305 2.16153,0 12.49772,-4.62032 31.77543,-14.20378 8.21821,-4.08554 11.47493,-5.01504 18.04446,-5.15019 10.76361,-0.22148 21.77961,5.11962 27.19935,13.18763 3.55831,5.29709 3.65515,5.824 2.27869,12.40195 -2.41168,11.52526 -12.82168,28.01153 -17.68744,28.01153 -0.83607,0 -4.77869,1.41822 -8.76141,3.15154 -12.96573,5.64296 -17.20887,5.33456 -23.51455,-1.70907 -3.93293,-4.39312 -4.00104,-11.80777 -0.17637,-19.17433 3.86406,-7.44201 8.69606,-10.9434 12.40577,-8.98957 1.50629,0.79332 2.73871,1.96655 2.73871,2.60718 0,0.64056 -2.61,3.69689 -5.8,6.7918 -3.19003,3.09492 -5.80004,6.28676 -5.80004,7.09302 0,2.40836 6.13042,7.69259 8.92447,7.69259 2.48724,0 11.00259,-4.05571 13.56672,-6.46159 0.67346,-0.63189 2.24192,-1.14888 3.48543,-1.14888 2.53596,0 11.07042,-10.31099 12.19981,-14.73935 1.70051,-6.66769 -12.2888,-16.97097 -23.04243,-16.97097 -3.66553,0 -13.88911,4.15242 -21.57842,8.76431 -1.06333,0.63775 -7.70623,3.88985 -14.76192,7.22686 -7.05568,3.33701 -15.95477,7.91989 -19.77575,10.18417 -3.82099,2.26432 -8.57417,4.46861 -10.56268,4.89843 -1.9885,0.43003 -3.97369,1.74776 -4.41153,2.92874 -0.43795,1.18101 -1.51418,3.28884 -2.39172,4.68408 -8.72176,13.86662 -18.96525,34.57511 -18.97953,38.36953 -0.005,1.8522 2.79911,2.10728 4.56957,0.41515 0.67348,-0.64354 4.81891,-2.07834 9.21207,-3.1884 9.66961,-2.4433 28.62857,-1.85735 35.83951,1.10772 2.65167,1.09033 5.63189,1.98241 6.62273,1.98241 0.99084,0 3.96591,1.34456 6.61122,2.98796 2.64532,1.64337 8.43761,4.28976 12.87176,5.88083 10.32987,3.70663 21.25165,3.11975 30.62593,-1.64572 7.36328,-3.74321 14.79715,-9.76447 14.79715,-11.98539 0,-1.68779 6.54078,-5.38496 9.52661,-5.38496 3.96099,0 3.42708,2.85402 -1.77544,9.4903 -9.0688,11.56807 -17.61816,16.56634 -33.68058,19.69098 -7.59394,1.47728 -9.57297,1.40235 -18.04452,-0.68338 -10.3988,-2.56018 -19.65889,-6.62081 -23.70941,-10.39676 -5.61191,-5.23145 -34.86981,-7.01876 -43.16143,-2.63659 -6.89235,3.64257 -11.61855,7.10571 -18.68894,13.69435 -4.07621,3.79843 -9.01421,5.20326 -11.64228,3.31208 z m 40.06001,-80.37304 c 0.74303,-0.51253 2.73743,-2.92961 4.43199,-5.37129 8.58804,-12.37466 39.17491,-43.23375 51.78951,-52.25046 7.64202,-5.46237 7.64202,-5.46237 2.27939,-5.85933 -9.512,-0.70412 -31.43022,2.09005 -37.94182,4.83687 -13.27778,5.60111 -29.52135,19.52784 -38.39621,32.91979 -6.25756,9.44251 -7.21484,17.25285 -2.66365,21.73174 3.41964,3.36529 17.44915,6.09763 20.50079,3.99268 z"
       id="path1472-2" /><path
       style="fill:#ffffff;fill-opacity:1;stroke:none;stroke-width:1.21241;stroke-opacity:1"
       d="m -117.57862,-762.72078 c -2.27532,-1.01758 -4.13693,-2.34818 -4.13693,-2.95692 0,-0.60873 -0.69917,-0.89535 -1.55374,-0.63692 -2.62903,0.79501 -6.41244,-7.33811 -6.8996,-14.83178 -0.39883,-6.13499 -0.0683,-7.43007 2.55209,-9.99499 1.65565,-1.62071 4.19027,-4.45012 5.63247,-6.28757 3.71201,-4.72928 14.87215,-9.58863 21.92647,-9.54722 7.531358,0.0441 31.998698,6.34248 33.387918,8.59453 0.59883,0.97079 1.91958,1.76508 2.93494,1.76508 1.01536,0 1.84607,0.47935 1.84607,1.06524 0,0.58587 2.14807,1.68826 4.77343,2.44973 2.62534,0.76148 8.57453,3.17345 13.22035,5.35994 8.45189,3.9778 22.16923,7.29216 30.18034,7.29216 2.34286,0 7.3551397,-0.81635 11.1383997,-1.81413 5.30402,-1.39883 6.87871,-2.33242 6.87871,-4.07819 0,-3.3868 -5.02157001,-16.25201 -7.43572,-19.05034 -8.8286397,-10.23348 -12.9308397,-15.59513 -12.9308397,-16.90093 0,-0.83851 -0.86126,-2.64007 -1.9139,-4.00348 -4.7534,-6.15673 -4.49337,-27.44441 0.50607,-41.43038 2.37258,-6.63733 11.7404397,-24.15677 15.4745897,-28.94002 9.02238,-11.55727 17.5178703,-18.89301 21.8799003,-18.89301 2.91074,0 3.51351,0.50149 3.51351,2.9232 0,1.60778 -0.88786,3.23231 -1.97299,3.61007 -3.96954,1.38191 -22.18780031,30.09388 -24.4312103,38.50356 -5.75563,21.57551 -4.36024,41.51663 3.34575999,47.81408 1.48053001,1.2099 2.69189001,2.60224 2.69189001,3.09399 0,0.49181 2.29123,4.0236 5.09166,7.84845 2.8003803,3.82484 5.1295203,8.14876 5.1758103,9.60868 0.0482,1.45993 1.12345,5.51252 2.3936,9.00575 1.91397,5.26378 2.04791,6.94458 0.78204,9.81572 -4.45517,10.10502 -31.61927,16.39308 -49.4818,11.45421 -3.632,-1.00424 -11.48176,-3.86235 -17.44382,-6.35135 -5.96208,-2.489 -11.2837,-4.52546 -11.82595,-4.52546 -0.5422,0 -2.53784,-0.95872 -4.43476,-2.13048 -18.0084,-11.12418 -26.19816,-13.21486 -41.503148,-10.59498 -7.22818,1.2373 -8.70814,1.92922 -10.81964,5.05853 -3.66318,5.42887 -3.99384,12.083 -0.74681,15.02872 1.06266,0.96404 1.77863,2.37531 1.59115,3.13615 -0.5946,2.41222 7.94102,3.71363 14.99887,2.28689 11.390788,-2.30265 14.229518,-9.22981 5.388748,-13.14963 -4.972918,-2.20489 -10.120158,-2.76418 -14.370178,-1.56143 -3.52621,0.99789 -6.16379,-0.76564 -5.21238,-3.48505 0.93541,-2.67374 9.02171,-6.13662 14.32982,-6.13662 5.302238,0 15.846198,3.32086 18.892618,5.95032 2.02076,1.74416 2.54582,3.69967 2.54582,9.48147 0,6.0977 -0.58072,8.04431 -3.56547,11.95168 -2.75131,3.60169 -4.64072,4.82888 -8.27393,5.37382 -8.549468,1.28233 -19.862458,0.73306 -24.120228,-1.17109 z m -2.42479,-17.20113 c -0.41471,-0.9801 -0.46907,-2.04002 -0.1217,-2.35538 0.34783,-0.31538 0.93757,0.48652 1.311,1.78199 0.79323,2.75179 -0.088,3.1767 -1.18929,0.57339 z m 38.219798,-31.5107 c -2.49946,-2.3309 -5.45187,-5.79697 -6.56099,-7.70236 -5.45407,-9.37019 1.97549,-35.83642 14.91195,-53.12039 5.80903,-7.76119 6.60501,-25.84406 1.34756,-30.61365 -1.29214,-1.17224 -4.86997,-2.47427 -7.95069,-2.8934 -4.61061,-0.62724 -7.05691,-0.16324 -13.83097,2.62323 -4.52632,1.86188 -10.782338,5.59855 -13.902318,8.30371 -7.88876,6.83997 -10.16907,8.14523 -14.2297,8.14523 -4.35193,0 -4.40942,-1.09961 -0.36131,-6.91682 4.35535,-6.25909 10.75638,-11.31216 18.39925,-14.52461 3.53689,-1.48657 6.430698,-3.20437 6.430698,-3.81729 0,-2.31981 11.06648,-3.32815 21.00415,-1.91381 8.70732,1.23918 10.24871,1.86157 14.77061,5.96386 4.82018,4.3729 5.05135,4.91747 5.10581,12.02838 0.0697,9.09772 -3.40349,19.63783 -11.39676,34.58572 -7.33137,13.71013 -8.78871,17.42093 -9.84015,25.05556 -1.28752,9.3488 0.1136,13.55003 6.51105,19.52163 3.11742,2.9099 5.66797,5.73202 5.66797,6.2714 0,1.59197 -2.89175,2.77813 -7.35692,3.01765 -3.30842,0.17764 -5.11754,-0.65534 -8.71906,-4.01404 z m 33.86171,-7.92692 c -5.09859,-3.16985 -8.82211,-7.60521 -9.62202,-11.46151 -1.37056,-6.60686 7.80996,-18.91589 14.10807,-18.91589 10.10101,0 16.36348,7.09513 16.08078,18.21896 -0.16309,6.41917 -1.2957,8.20214 -7.67747,12.08668 -4.18898,2.54979 -8.86179,2.5758 -12.88936,0.0721 z m 10.36903,-11.03465 c 0.31848,-5.48448 -1.91454,-11.25923 -4.35352,-11.25923 -1.4696,0 -5.98053,4.53754 -5.98053,6.01577 0,1.22863 7.75349,7.84171 9.19403,7.84171 0.54407,0 1.05708,-1.16922 1.14002,-2.59825 z"
       id="path1602-4" /></g></svg>
